<svg width="178" height="69" viewBox="0 0 178 69" fill="none" xmlns="http://www.w3.org/2000/svg">
<rect x="0.5" y="0.5" width="149" height="37" rx="18.5" fill="white" stroke="url(#paint0_linear_1_9291)"/>
<path d="M22.2234 25V13.1H27.1874C28.4681 13.1 29.4711 13.3607 30.1964 13.882C30.9217 14.4033 31.2844 15.157 31.2844 16.143C31.2844 16.789 31.1314 17.333 30.8254 17.775C30.5194 18.217 30.0944 18.5513 29.5504 18.778C29.0177 18.9933 28.4171 19.101 27.7484 19.101L28.0544 18.761C28.8704 18.761 29.5674 18.88 30.1454 19.118C30.7234 19.356 31.1597 19.7017 31.4544 20.155C31.7604 20.6083 31.9134 21.175 31.9134 21.855C31.9134 22.8523 31.5507 23.6287 30.8254 24.184C30.1001 24.728 29.0007 25 27.5274 25H22.2234ZM23.0904 24.252H27.5274C28.6721 24.252 29.5447 24.0593 30.1454 23.674C30.7461 23.2773 31.0464 22.6483 31.0464 21.787C31.0464 20.937 30.7461 20.3193 30.1454 19.934C29.5447 19.5373 28.6721 19.339 27.5274 19.339H22.9884V18.591H27.1534C28.1847 18.591 28.9837 18.3927 29.5504 17.996C30.1171 17.5993 30.4004 17.0043 30.4004 16.211C30.4004 15.429 30.1171 14.8397 29.5504 14.443C28.9837 14.0463 28.1847 13.848 27.1534 13.848H23.0904V24.252ZM38.3386 25.068C37.5793 25.068 36.922 24.932 36.3666 24.66C35.8113 24.3767 35.3806 23.9573 35.0746 23.402C34.78 22.8353 34.6326 22.1383 34.6326 21.311V16.126H35.4826V21.243C35.4826 22.2403 35.7376 22.9997 36.2476 23.521C36.7576 24.0423 37.4773 24.303 38.4066 24.303C39.0753 24.303 39.6533 24.1613 40.1406 23.878C40.628 23.5947 41.002 23.198 41.2626 22.688C41.5233 22.1667 41.6536 21.5547 41.6536 20.852V16.126H42.5036V25H41.6876V22.535L41.8066 22.824C41.546 23.5153 41.1096 24.065 40.4976 24.473C39.897 24.8697 39.1773 25.068 38.3386 25.068ZM45.9027 28.366C45.4947 28.366 45.1094 28.298 44.7467 28.162C44.3954 28.026 44.095 27.8277 43.8457 27.567L44.2707 26.921C44.4974 27.159 44.741 27.3347 45.0017 27.448C45.2737 27.5613 45.5797 27.618 45.9197 27.618C46.3277 27.618 46.6847 27.5047 46.9907 27.278C47.308 27.0513 47.6027 26.6377 47.8747 26.037L48.4867 24.677L48.6057 24.524L52.3627 16.126H53.2297L48.6737 26.207C48.4357 26.751 48.175 27.176 47.8917 27.482C47.6197 27.7993 47.3194 28.026 46.9907 28.162C46.662 28.298 46.2994 28.366 45.9027 28.366ZM48.4697 25.221L44.3557 16.126H45.2567L48.9967 24.473L48.4697 25.221ZM59.7263 25V13.1H60.4573L65.9823 22.637H65.5913L71.0993 13.1H71.8133L71.8303 25H70.9803L70.9633 14.409H71.2013L65.9823 23.419H65.5573L60.3213 14.409H60.5763V25H59.7263ZM79.3113 25.068C78.4159 25.068 77.6226 24.8753 76.9313 24.49C76.2513 24.1047 75.7129 23.572 75.3163 22.892C74.9309 22.212 74.7383 21.4357 74.7383 20.563C74.7383 19.679 74.9196 18.9027 75.2823 18.234C75.6563 17.554 76.1663 17.0213 76.8123 16.636C77.4583 16.2507 78.1836 16.058 78.9883 16.058C79.7929 16.058 80.5126 16.245 81.1473 16.619C81.7933 16.993 82.2976 17.52 82.6603 18.2C83.0343 18.8687 83.2213 19.645 83.2213 20.529C83.2213 20.563 83.2156 20.6027 83.2043 20.648C83.2043 20.682 83.2043 20.7217 83.2043 20.767H75.3673V20.104H82.7453L82.4053 20.427C82.4166 19.7357 82.2693 19.118 81.9633 18.574C81.6686 18.0187 81.2663 17.588 80.7563 17.282C80.2463 16.9647 79.6569 16.806 78.9883 16.806C78.3309 16.806 77.7416 16.9647 77.2203 17.282C76.7103 17.588 76.3079 18.0187 76.0133 18.574C75.7186 19.118 75.5713 19.7413 75.5713 20.444V20.597C75.5713 21.3223 75.7299 21.9683 76.0473 22.535C76.3759 23.0903 76.8236 23.5267 77.3903 23.844C77.9569 24.15 78.6029 24.303 79.3283 24.303C79.8949 24.303 80.4219 24.201 80.9093 23.997C81.4079 23.793 81.8273 23.4813 82.1673 23.062L82.6603 23.623C82.2749 24.099 81.7876 24.4617 81.1983 24.711C80.6203 24.949 79.9913 25.068 79.3113 25.068ZM90.489 25V13.1H91.22L99.703 23.929H99.312V13.1H100.179V25H99.465L90.965 14.171H91.356V25H90.489ZM107.531 25.068C106.681 25.068 105.921 24.8753 105.253 24.49C104.595 24.1047 104.068 23.572 103.672 22.892C103.286 22.212 103.094 21.4357 103.094 20.563C103.094 19.679 103.286 18.9027 103.672 18.234C104.068 17.554 104.595 17.0213 105.253 16.636C105.921 16.2507 106.681 16.058 107.531 16.058C108.381 16.058 109.14 16.2507 109.809 16.636C110.477 17.0213 111.004 17.554 111.39 18.234C111.775 18.9027 111.968 19.679 111.968 20.563C111.968 21.4357 111.775 22.212 111.39 22.892C111.004 23.572 110.477 24.1047 109.809 24.49C109.14 24.8753 108.381 25.068 107.531 25.068ZM107.531 24.303C108.211 24.303 108.823 24.15 109.367 23.844C109.911 23.5267 110.336 23.0847 110.642 22.518C110.948 21.9513 111.101 21.2997 111.101 20.563C111.101 19.815 110.948 19.1633 110.642 18.608C110.336 18.0413 109.911 17.605 109.367 17.299C108.823 16.9817 108.211 16.823 107.531 16.823C106.851 16.823 106.239 16.9817 105.695 17.299C105.162 17.605 104.737 18.0413 104.42 18.608C104.114 19.1633 103.961 19.815 103.961 20.563C103.961 21.2997 104.114 21.9513 104.42 22.518C104.737 23.0847 105.162 23.5267 105.695 23.844C106.239 24.15 106.851 24.303 107.531 24.303ZM116.09 25L112.724 16.126H113.54L116.668 24.524H116.311L119.524 16.126H120.255L123.451 24.524H123.077L126.256 16.126H127.038L123.672 25H122.873L119.745 16.942H120.017L116.872 25H116.09Z" fill="#030303"/>
<path d="M177.51 60.2931L167.559 50.3416L174.659 46.2409C175.213 45.9205 175.536 45.3115 175.49 44.6725C175.444 44.0334 175.037 43.477 174.442 43.2398L142.784 30.6114C142.163 30.3635 141.455 30.5095 140.982 30.9819C140.51 31.4547 140.364 32.1632 140.611 32.7838L153.238 64.4454C153.475 65.0404 154.031 65.4476 154.671 65.4938C155.31 65.5402 155.919 65.2173 156.239 64.6624L160.339 57.5629L170.29 67.5145C170.603 67.8282 171.029 68.0044 171.472 68.0044C171.916 68.0044 172.341 67.8282 172.655 67.5145L177.511 62.658C178.164 62.0049 178.164 60.9462 177.51 60.2931Z" fill="black"/>
<path d="M135.34 22.9758C134.687 22.3232 133.628 22.3231 132.975 22.9758C132.322 23.6289 132.322 24.6878 132.975 25.3409L136.691 29.0565C137.017 29.383 137.445 29.5463 137.873 29.5463C138.301 29.5463 138.729 29.383 139.055 29.0565C139.708 28.4034 139.708 27.3447 139.055 26.6917L135.34 22.9758Z" fill="black"/>
<path d="M136.599 34.536C136.599 33.6127 135.851 32.8638 134.927 32.8638H129.672C128.749 32.8638 128 33.6125 128 34.536C128 35.4595 128.749 36.2083 129.672 36.2083H134.927C135.851 36.2082 136.599 35.4595 136.599 34.536Z" fill="black"/>
<path d="M135.922 39.697L132.206 43.413C131.553 44.0661 131.553 45.1249 132.206 45.7779C132.532 46.1043 132.96 46.2676 133.388 46.2676C133.816 46.2676 134.244 46.1043 134.57 45.7779L138.286 42.062C138.939 41.409 138.939 40.3501 138.286 39.697C137.633 39.0444 136.575 39.0443 135.922 39.697Z" fill="black"/>
<path d="M144.535 26.5998C145.459 26.5998 146.208 25.851 146.208 24.9274V19.6722C146.208 18.7487 145.459 18 144.535 18C143.612 18 142.863 18.7486 142.863 19.6722V24.9276C142.863 25.851 143.612 26.5998 144.535 26.5998Z" fill="black"/>
<path d="M150.877 28.7768C151.305 28.7768 151.733 28.6135 152.06 28.287L155.775 24.5714C156.428 23.9183 156.428 22.8594 155.775 22.2064C155.122 21.5536 154.063 21.5536 153.41 22.2064L149.695 25.9222C149.042 26.5753 149.042 27.6341 149.695 28.287C150.022 28.6135 150.449 28.7768 150.877 28.7768Z" fill="black"/>
<defs>
<linearGradient id="paint0_linear_1_9291" x1="7.80347" y1="5" x2="156.209" y2="26.5721" gradientUnits="userSpaceOnUse">
<stop stop-color="#F73E94"/>
<stop offset="1" stop-color="#22DCD9"/>
</linearGradient>
</defs>
</svg>
