<svg width="121" height="109" viewBox="0 0 121 109" fill="none" xmlns="http://www.w3.org/2000/svg">
<path d="M30.325 0.475388C27.0354 1.49631 23.6323 5.05061 22.687 8.41586C22.4224 9.39896 22.3089 12.802 22.3846 17.8688L22.498 25.7714L23.5567 26.3764C24.4642 26.868 24.6911 26.868 25.6364 26.3764L26.6573 25.7714L26.8463 17.6041L27.0354 9.43678L28.1697 7.81087C30.2872 4.82374 30.9678 4.63468 41.8954 4.52125L51.424 4.40781V14.5792C51.424 24.2968 51.4618 24.7883 52.218 25.7714C52.6339 26.3008 53.3524 26.7546 53.7683 26.7546C54.1842 26.7546 56.8689 25.0908 59.6669 23.0868C62.5028 21.0828 64.9984 19.4569 65.2253 19.4569C65.4521 19.4569 67.9477 21.0828 70.7836 23.0868C73.5816 25.0908 76.2663 26.7546 76.6822 26.7546C77.0981 26.7546 77.8166 26.3008 78.2325 25.7714C78.9887 24.7883 79.0265 24.2968 79.0265 14.5792V4.40781L88.5929 4.52125C99.4827 4.63468 100.163 4.82374 102.281 7.81087L103.415 9.43678V39.8752V70.3515L95.2478 73.8302L87.0426 77.3089L86.8536 75.1536C86.6267 72.658 85.6436 70.5027 83.8664 68.839C81.5977 66.6459 80.6146 66.4569 72.107 66.4569H64.3934L59.2888 64.226C52.2936 61.1632 50.2896 60.6339 44.996 60.6339C40.3073 60.6339 37.3202 61.2389 33.7659 62.8648L31.7619 63.7723V61.8817C31.7619 59.3861 30.6275 58.1383 28.3588 58.1383H26.8463V51.4078C26.8463 45.3201 26.7707 44.5639 26.1657 44.0345C25.2582 43.2027 23.708 43.2405 22.9517 44.0723C22.3846 44.6773 22.3089 45.7739 22.3089 51.4456V58.1383H12.1376C2.45776 58.1383 1.96621 58.1761 0.983105 58.9323L0 59.6886V83.1319C0 106.046 0 106.537 0.756235 107.294C1.47466 108.012 2.00402 108.05 15.8809 108.05C29.7578 108.05 30.2872 108.012 31.0056 107.294C31.4972 106.802 31.7619 106.046 31.7619 105.063V103.588L50.214 103.399C72.712 103.172 76.2285 102.756 87.7232 98.8994C93.4706 96.9332 116.006 85.9299 117.897 84.115C120.014 82.1109 120.771 80.2582 120.771 77.2332C120.771 74.0949 119.977 72.2421 117.67 70.1624C115.439 68.1206 112.074 67.3266 109.2 68.0828L108.142 68.3475L108.066 38.4006L107.953 8.41586L107.121 6.71432C106.024 4.48344 103.566 2.02567 101.373 0.966942L99.6339 0.0972748L65.7924 0.0216522C38.3411 -0.0539703 31.6484 0.0594635 30.325 0.475388ZM74.111 12.0458C74.111 17.9444 73.9976 19.5703 73.6573 19.3435C73.3926 19.1544 71.5776 17.8688 69.6114 16.4698C67.683 15.0707 65.7168 13.8986 65.2253 13.8986C64.7715 13.8986 62.7675 15.0707 60.8391 16.4698C58.8729 17.8688 57.0579 19.1544 56.831 19.3435C56.4529 19.5703 56.3395 17.9822 56.3395 12.0458V4.44563H65.2253H74.111V12.0458ZM26.8463 83.2831V103.512L15.8809 103.437L4.91553 103.323L4.80209 83.1697L4.72647 63.0538H15.8053H26.8463V83.2831ZM50.4787 65.8897C51.7265 66.23 55.0539 67.5156 57.852 68.7256L62.9566 70.9943H70.6323C76.3797 70.9943 78.6106 71.1455 79.5937 71.5237C81.8246 72.469 82.6943 75.4561 81.4843 77.8004C80.35 79.9557 79.7828 80.0691 67.683 80.0691C57.2092 80.0691 56.6798 80.1069 55.9614 80.8253C54.7136 82.0731 54.9783 83.699 56.6042 84.5687C57.6629 85.0981 77.0603 85.1359 80.3878 84.6065C81.938 84.3418 87.4964 82.2244 96.609 78.3676C104.663 74.9645 110.977 72.5068 111.696 72.5068C113.057 72.5068 114.872 73.6033 115.553 74.8511C116.233 76.0611 116.195 78.3676 115.477 79.7288C114.986 80.7119 113.019 81.8085 102.545 86.9887C89.576 93.4167 85.3033 95.1182 77.5141 96.8197C70.5945 98.37 66.889 98.5969 48.7771 98.5969H31.7619L31.8375 83.8125L31.9509 68.9903L34.2196 67.8181C38.9083 65.436 45.601 64.6419 50.4787 65.8897Z" fill="black"/>
<path d="M22.8765 33.4096C21.9312 34.3548 22.2715 36.2454 23.5571 36.9639C24.4646 37.4554 24.6915 37.4554 25.6368 36.9639C27.7164 35.7917 26.9602 32.8046 24.578 32.8046C23.973 32.8046 23.2168 33.0692 22.8765 33.4096Z" fill="black"/>
<path d="M72.2207 53.0337C71.5401 53.8655 71.6536 55.378 72.4098 56.2477C73.0526 56.9661 73.6198 57.0039 81.9384 57.0039C90.2569 57.0039 90.7863 56.9661 91.5047 56.2477C92.45 55.3024 92.4878 53.9033 91.5804 53.1093C90.9754 52.5421 89.7276 52.4665 81.7871 52.4665C74.1491 52.4665 72.5989 52.5421 72.2207 53.0337Z" fill="black"/>
</svg>
