<svg width="606" height="595" viewBox="0 0 606 595" fill="none" xmlns="http://www.w3.org/2000/svg">
<g filter="url(#filter0_ddi_236_5873)">
<circle cx="299" cy="289" r="200" fill="url(#paint0_linear_236_5873)"/>
</g>
<g filter="url(#filter1_dii_236_5873)">
<circle cx="298.615" cy="289.385" r="147.308" fill="#070726"/>
</g>
<g filter="url(#filter2_d_236_5873)">
<path fill-rule="evenodd" clip-rule="evenodd" d="M203.381 145.381C203.381 146.319 203.226 147.222 202.942 148.064L407.74 418.926C407.935 418.912 408.133 418.905 408.332 418.905C412.961 418.905 416.713 422.657 416.713 427.286C416.713 431.915 412.961 435.667 408.332 435.667C403.703 435.667 399.951 431.915 399.951 427.286C399.951 425.442 400.546 423.737 401.555 422.353L198.043 153.192C197.1 153.56 196.073 153.762 195 153.762C190.371 153.762 186.619 150.01 186.619 145.381C186.619 140.752 190.371 137 195 137C199.628 137 203.381 140.752 203.381 145.381Z" fill="white"/>
</g>
<g filter="url(#filter3_d_236_5873)">
<rect x="206.693" y="120.538" width="81.5385" height="21.5385" rx="10.7692" fill="white"/>
</g>
<path d="M228.989 134.077L229.849 127.077H230.249L229.389 134.077H228.989ZM225.189 132.097V131.697H231.129V132.097H225.189ZM226.389 134.077L227.249 127.077H227.659L226.789 134.077H226.389ZM225.499 129.457V129.057H231.449V129.457H225.499ZM233.563 134.077L236.643 127.317L236.823 127.537H232.353L232.613 127.297V128.877H232.113V127.077H237.133V127.437L234.123 134.077H233.563ZM237.994 134.077V133.717L240.954 130.777C241.234 130.497 241.444 130.253 241.584 130.047C241.724 129.833 241.817 129.637 241.864 129.457C241.917 129.277 241.944 129.1 241.944 128.927C241.944 128.487 241.794 128.14 241.494 127.887C241.194 127.627 240.754 127.497 240.174 127.497C239.734 127.497 239.347 127.563 239.014 127.697C238.687 127.83 238.404 128.033 238.164 128.307L237.804 127.987C238.07 127.68 238.407 127.443 238.814 127.277C239.227 127.11 239.694 127.027 240.214 127.027C240.674 127.027 241.07 127.103 241.404 127.257C241.744 127.403 242.004 127.617 242.184 127.897C242.37 128.17 242.464 128.497 242.464 128.877C242.464 129.103 242.43 129.327 242.364 129.547C242.304 129.76 242.19 129.987 242.024 130.227C241.864 130.467 241.63 130.74 241.324 131.047L238.544 133.817L238.374 133.617H242.804V134.077H237.994ZM246.549 134.127C245.936 134.127 245.419 133.987 244.999 133.707C244.586 133.427 244.272 133.023 244.059 132.497C243.846 131.97 243.739 131.343 243.739 130.617C243.739 129.823 243.869 129.163 244.129 128.637C244.389 128.103 244.752 127.703 245.219 127.437C245.686 127.163 246.229 127.027 246.849 127.027C247.149 127.027 247.436 127.053 247.709 127.107C247.982 127.16 248.226 127.253 248.439 127.387L248.229 127.797C248.049 127.683 247.839 127.603 247.599 127.557C247.366 127.503 247.116 127.477 246.849 127.477C246.062 127.477 245.432 127.733 244.959 128.247C244.486 128.753 244.249 129.517 244.249 130.537C244.249 130.69 244.259 130.887 244.279 131.127C244.299 131.36 244.342 131.59 244.409 131.817L244.229 131.767C244.276 131.38 244.406 131.05 244.619 130.777C244.832 130.503 245.106 130.297 245.439 130.157C245.772 130.01 246.139 129.937 246.539 129.937C247.006 129.937 247.412 130.023 247.759 130.197C248.112 130.363 248.386 130.603 248.579 130.917C248.779 131.23 248.879 131.597 248.879 132.017C248.879 132.443 248.776 132.817 248.569 133.137C248.369 133.45 248.092 133.693 247.739 133.867C247.392 134.04 246.996 134.127 246.549 134.127ZM246.529 133.687C246.896 133.687 247.216 133.62 247.489 133.487C247.762 133.347 247.976 133.153 248.129 132.907C248.289 132.653 248.369 132.36 248.369 132.027C248.369 131.527 248.199 131.127 247.859 130.827C247.526 130.527 247.062 130.377 246.469 130.377C246.089 130.377 245.752 130.45 245.459 130.597C245.166 130.743 244.936 130.943 244.769 131.197C244.609 131.45 244.529 131.733 244.529 132.047C244.529 132.32 244.606 132.583 244.759 132.837C244.912 133.083 245.136 133.287 245.429 133.447C245.729 133.607 246.096 133.687 246.529 133.687ZM249.615 134.077V133.717L252.575 130.777C252.855 130.497 253.065 130.253 253.205 130.047C253.345 129.833 253.438 129.637 253.485 129.457C253.538 129.277 253.565 129.1 253.565 128.927C253.565 128.487 253.415 128.14 253.115 127.887C252.815 127.627 252.375 127.497 251.795 127.497C251.355 127.497 250.968 127.563 250.635 127.697C250.308 127.83 250.025 128.033 249.785 128.307L249.425 127.987C249.691 127.68 250.028 127.443 250.435 127.277C250.848 127.11 251.315 127.027 251.835 127.027C252.295 127.027 252.691 127.103 253.025 127.257C253.365 127.403 253.625 127.617 253.805 127.897C253.991 128.17 254.085 128.497 254.085 128.877C254.085 129.103 254.051 129.327 253.985 129.547C253.925 129.76 253.811 129.987 253.645 130.227C253.485 130.467 253.251 130.74 252.945 131.047L250.165 133.817L249.995 133.617H254.425V134.077H249.615ZM256.06 134.077V127.077H258.83C259.57 127.077 260.22 127.227 260.78 127.527C261.34 127.827 261.773 128.24 262.08 128.767C262.393 129.293 262.55 129.897 262.55 130.577C262.55 131.257 262.393 131.86 262.08 132.387C261.773 132.913 261.34 133.327 260.78 133.627C260.22 133.927 259.57 134.077 258.83 134.077H256.06ZM256.57 133.617H258.79C259.45 133.617 260.023 133.487 260.51 133.227C260.996 132.967 261.373 132.61 261.64 132.157C261.906 131.697 262.04 131.17 262.04 130.577C262.04 129.983 261.906 129.46 261.64 129.007C261.373 128.547 260.996 128.187 260.51 127.927C260.023 127.667 259.45 127.537 258.79 127.537H256.57V133.617ZM263.054 134.077L266.274 127.077H266.784L270.004 134.077H269.454L266.414 127.397H266.634L263.604 134.077H263.054ZM264.234 132.107L264.404 131.677H268.594L268.764 132.107H264.234Z" fill="black"/>
<defs>
<filter id="filter0_ddi_236_5873" x="0" y="0" width="606" height="595" filterUnits="userSpaceOnUse" color-interpolation-filters="sRGB">
<feFlood flood-opacity="0" result="BackgroundImageFix"/>
<feColorMatrix in="SourceAlpha" type="matrix" values="0 0 0 0 0 0 0 0 0 0 0 0 0 0 0 0 0 0 127 0" result="hardAlpha"/>
<feOffset dx="-41" dy="-31"/>
<feGaussianBlur stdDeviation="29"/>
<feComposite in2="hardAlpha" operator="out"/>
<feColorMatrix type="matrix" values="0 0 0 0 0.882353 0 0 0 0 0.14902 0 0 0 0 0.505882 0 0 0 0.1 0"/>
<feBlend mode="normal" in2="BackgroundImageFix" result="effect1_dropShadow_236_5873"/>
<feColorMatrix in="SourceAlpha" type="matrix" values="0 0 0 0 0 0 0 0 0 0 0 0 0 0 0 0 0 0 127 0" result="hardAlpha"/>
<feOffset dx="38" dy="37"/>
<feGaussianBlur stdDeviation="34.5"/>
<feComposite in2="hardAlpha" operator="out"/>
<feColorMatrix type="matrix" values="0 0 0 0 0.0745098 0 0 0 0 0.905882 0 0 0 0 0.862745 0 0 0 0.14 0"/>
<feBlend mode="normal" in2="effect1_dropShadow_236_5873" result="effect2_dropShadow_236_5873"/>
<feBlend mode="normal" in="SourceGraphic" in2="effect2_dropShadow_236_5873" result="shape"/>
<feColorMatrix in="SourceAlpha" type="matrix" values="0 0 0 0 0 0 0 0 0 0 0 0 0 0 0 0 0 0 127 0" result="hardAlpha"/>
<feOffset dx="-7" dy="-9"/>
<feGaussianBlur stdDeviation="13.5"/>
<feComposite in2="hardAlpha" operator="arithmetic" k2="-1" k3="1"/>
<feColorMatrix type="matrix" values="0 0 0 0 0 0 0 0 0 0 0 0 0 0 0 0 0 0 0.29 0"/>
<feBlend mode="normal" in2="shape" result="effect3_innerShadow_236_5873"/>
</filter>
<filter id="filter1_dii_236_5873" x="122.307" y="119.077" width="338.615" height="332.615" filterUnits="userSpaceOnUse" color-interpolation-filters="sRGB">
<feFlood flood-opacity="0" result="BackgroundImageFix"/>
<feColorMatrix in="SourceAlpha" type="matrix" values="0 0 0 0 0 0 0 0 0 0 0 0 0 0 0 0 0 0 127 0" result="hardAlpha"/>
<feOffset dx="-4" dy="-4"/>
<feGaussianBlur stdDeviation="9.5"/>
<feComposite in2="hardAlpha" operator="out"/>
<feColorMatrix type="matrix" values="0 0 0 0 0 0 0 0 0 0 0 0 0 0 0 0 0 0 0.24 0"/>
<feBlend mode="normal" in2="BackgroundImageFix" result="effect1_dropShadow_236_5873"/>
<feBlend mode="normal" in="SourceGraphic" in2="effect1_dropShadow_236_5873" result="shape"/>
<feColorMatrix in="SourceAlpha" type="matrix" values="0 0 0 0 0 0 0 0 0 0 0 0 0 0 0 0 0 0 127 0" result="hardAlpha"/>
<feOffset dx="-29" dy="-11"/>
<feGaussianBlur stdDeviation="35.5"/>
<feComposite in2="hardAlpha" operator="arithmetic" k2="-1" k3="1"/>
<feColorMatrix type="matrix" values="0 0 0 0 0.0784314 0 0 0 0 0.905882 0 0 0 0 0.866667 0 0 0 0.19 0"/>
<feBlend mode="normal" in2="shape" result="effect2_innerShadow_236_5873"/>
<feColorMatrix in="SourceAlpha" type="matrix" values="0 0 0 0 0 0 0 0 0 0 0 0 0 0 0 0 0 0 127 0" result="hardAlpha"/>
<feOffset dx="13" dy="15"/>
<feGaussianBlur stdDeviation="18"/>
<feComposite in2="hardAlpha" operator="arithmetic" k2="-1" k3="1"/>
<feColorMatrix type="matrix" values="0 0 0 0 0.886275 0 0 0 0 0.160784 0 0 0 0 0.517647 0 0 0 0.19 0"/>
<feBlend mode="normal" in2="effect2_innerShadow_236_5873" result="effect3_innerShadow_236_5873"/>
</filter>
<filter id="filter2_d_236_5873" x="182.619" y="137" width="238.094" height="306.667" filterUnits="userSpaceOnUse" color-interpolation-filters="sRGB">
<feFlood flood-opacity="0" result="BackgroundImageFix"/>
<feColorMatrix in="SourceAlpha" type="matrix" values="0 0 0 0 0 0 0 0 0 0 0 0 0 0 0 0 0 0 127 0" result="hardAlpha"/>
<feOffset dy="4"/>
<feGaussianBlur stdDeviation="2"/>
<feComposite in2="hardAlpha" operator="out"/>
<feColorMatrix type="matrix" values="0 0 0 0 0 0 0 0 0 0 0 0 0 0 0 0 0 0 0.08 0"/>
<feBlend mode="normal" in2="BackgroundImageFix" result="effect1_dropShadow_236_5873"/>
<feBlend mode="normal" in="SourceGraphic" in2="effect1_dropShadow_236_5873" result="shape"/>
</filter>
<filter id="filter3_d_236_5873" x="202.693" y="120.538" width="89.5386" height="29.5385" filterUnits="userSpaceOnUse" color-interpolation-filters="sRGB">
<feFlood flood-opacity="0" result="BackgroundImageFix"/>
<feColorMatrix in="SourceAlpha" type="matrix" values="0 0 0 0 0 0 0 0 0 0 0 0 0 0 0 0 0 0 127 0" result="hardAlpha"/>
<feOffset dy="4"/>
<feGaussianBlur stdDeviation="2"/>
<feComposite in2="hardAlpha" operator="out"/>
<feColorMatrix type="matrix" values="0 0 0 0 0 0 0 0 0 0 0 0 0 0 0 0 0 0 0.25 0"/>
<feBlend mode="normal" in2="BackgroundImageFix" result="effect1_dropShadow_236_5873"/>
<feBlend mode="normal" in="SourceGraphic" in2="effect1_dropShadow_236_5873" result="shape"/>
</filter>
<linearGradient id="paint0_linear_236_5873" x1="158.429" y1="121.762" x2="386.238" y2="461.952" gradientUnits="userSpaceOnUse">
<stop stop-color="#F4187D"/>
<stop offset="0.989583" stop-color="#05F4E3"/>
</linearGradient>
</defs>
</svg>
