<svg width="30" height="30" viewBox="0 0 30 30" fill="none" xmlns="http://www.w3.org/2000/svg">
<path d="M7.4032 0.401271C6.7417 0.514971 5.6395 0.86897 5.0449 1.16957C2.6062 2.38547 0.849405 4.76357 0.415005 7.44257C0.261405 8.39117 0.261405 21.5924 0.415005 22.541C0.702405 24.3047 1.5241 25.8947 2.8201 27.1841C3.8221 28.193 4.82441 28.8143 6.16061 29.2619C7.34981 29.6561 7.74401 29.6894 11.7256 29.6894H15.2797V24.2444V18.7997H13.4425H11.6053V16.4615V14.1233H13.4425H15.2797V12.6269C15.2797 11.8052 15.313 10.823 15.3466 10.4423C15.6073 7.87007 16.8967 5.94617 18.8608 5.19797C19.6759 4.89077 20.1436 4.84397 22.4818 4.83707H24.6328V7.16867V9.50027L23.2498 9.52697C22.0207 9.55367 21.8203 9.57377 21.4861 9.70067C20.7778 9.98117 20.3836 10.3955 20.1499 11.117C20.0296 11.4779 19.9963 11.7584 19.9696 12.8339L19.9429 14.1233H22.2745H24.6127L24.145 16.4615L23.6773 18.7997H21.82H19.9561V24.2513V29.7095L21.2122 29.6696C22.114 29.6429 22.6219 29.5961 23.0293 29.5025C24.6928 29.1083 26.0155 28.3802 27.2047 27.1844C28.3939 26.0018 29.1022 24.7259 29.5297 23.009C29.6701 22.4546 29.6701 22.3076 29.6902 15.3128C29.7169 7.38947 29.7169 7.45637 29.2825 6.13997C28.8283 4.79717 28.207 3.79487 27.2116 2.79947C25.9087 1.49687 24.3256 0.681772 22.5619 0.394372C21.6598 0.254272 8.2783 0.254271 7.4032 0.401271Z" fill="white"/>
</svg>
