<svg width="23" height="26" viewBox="0 0 23 26" fill="none" xmlns="http://www.w3.org/2000/svg">
<path d="M11.2818 0.343018C11.2635 0.58316 11.1995 1.03173 11.1401 1.33984C10.7971 2.99818 10.0471 4.19437 9.05473 4.64747C8.67059 4.82417 8.07151 4.86949 7.65536 4.74715C7.07458 4.58403 6.39776 4.07656 5.90844 3.43316C5.79411 3.28364 5.68436 3.14318 5.66149 3.12052C5.6432 3.09333 5.69808 3.25192 5.78497 3.46488C6.03649 4.07203 6.13252 4.50247 6.13252 5.01901C6.13252 5.97958 5.74381 6.61845 4.91608 7.01265C4.42676 7.24826 3.94658 7.32528 3.20117 7.29357C2.28655 7.25279 1.38565 7.02171 0.379567 6.55502C-0.114327 6.32847 -0.1189 6.333 0.342982 6.65017C1.90698 7.72401 2.91306 9.1105 3.00452 10.3203C3.08684 11.453 2.40088 12.2958 1.07468 12.6764C0.850596 12.7398 0.51676 12.8033 0.333836 12.8214C0.150912 12.835 0 12.8622 0 12.8803C0 12.8984 0.150912 12.9256 0.333836 12.9392C1.10669 13.0072 1.93899 13.3515 2.40545 13.8091C2.86276 14.2532 3.05025 14.7742 3.00452 15.4403C2.91306 16.6501 1.90698 18.0366 0.342982 19.1104C-0.114327 19.4231 -0.114327 19.4321 0.342982 19.2192C1.39937 18.7343 2.27283 18.5078 3.20117 18.467C3.94658 18.4353 4.42676 18.5169 4.91608 18.7479C5.74381 19.1421 6.13252 19.781 6.13252 20.7416C6.13252 21.2581 6.03649 21.6886 5.78497 22.2957C5.69808 22.5087 5.6432 22.6672 5.66149 22.6401C5.68436 22.6174 5.79411 22.4769 5.90844 22.3274C6.39776 21.684 7.07458 21.1765 7.65536 21.0134C8.07151 20.8911 8.67059 20.9364 9.05473 21.1131C10.0471 21.5662 10.7971 22.7624 11.1401 24.4207C11.1995 24.7289 11.2635 25.1774 11.2818 25.4176C11.3138 25.9114 11.3596 25.8707 11.4053 25.3043C11.5654 23.3469 12.4205 21.7021 13.5775 21.1358C13.8748 20.9908 13.9617 20.9681 14.3412 20.9545C14.6796 20.9364 14.8305 20.9545 15.0775 21.027C15.6446 21.1992 16.3077 21.7112 16.7924 22.3591C16.9205 22.5313 17.0302 22.6672 17.0439 22.6672C17.0531 22.6672 17.0211 22.5902 16.9708 22.4996C16.8107 22.1779 16.6049 21.4937 16.55 21.0905C16.3808 19.7719 17.1034 18.7932 18.4524 18.5169C18.736 18.458 18.9601 18.4489 19.4585 18.467C20.3914 18.5033 21.1551 18.6981 22.2207 19.1738C22.4996 19.2962 22.7283 19.3913 22.7283 19.3823C22.7283 19.3732 22.6185 19.3007 22.4905 19.2192C22.0606 18.9473 21.3746 18.3764 20.9814 17.9595C19.7649 16.6818 19.3625 15.3134 19.893 14.2849C20.0439 13.9859 20.5058 13.5599 20.8762 13.3696C21.2786 13.1612 21.9143 12.9754 22.3487 12.9392C22.5316 12.9256 22.6826 12.8984 22.6826 12.8803C22.6826 12.8622 22.5316 12.835 22.3487 12.8214C21.9143 12.7851 21.2786 12.5994 20.8762 12.3909C20.5058 12.2006 20.0439 11.7747 19.893 11.4757C19.3625 10.4471 19.7649 9.07878 20.9814 7.80104C21.3746 7.38419 22.0606 6.81328 22.4905 6.54142C22.6185 6.45987 22.7283 6.38737 22.7283 6.37831C22.7283 6.36925 22.4996 6.4644 22.2207 6.58673C21.1414 7.06702 20.3914 7.25732 19.4357 7.29357C18.8594 7.31622 18.7177 7.30263 18.3656 7.22107C17.0576 6.90843 16.3854 5.96599 16.55 4.67012C16.6049 4.26686 16.8107 3.58268 16.9708 3.26098C17.0211 3.17036 17.0531 3.09333 17.0439 3.09333C17.0302 3.09333 16.9205 3.22926 16.7924 3.39691C16.3077 4.04937 15.6446 4.56138 15.0775 4.73355C14.8305 4.80605 14.6796 4.82417 14.3412 4.80605C13.9617 4.79246 13.8748 4.7698 13.5775 4.62481C12.4205 4.05844 11.5654 2.41368 11.4053 0.456293C11.3596 -0.110083 11.3138 -0.150862 11.2818 0.343018ZM12.3245 6.60486C12.9693 6.70454 13.5089 6.87672 14.108 7.1667C15.4525 7.81917 16.4631 8.82051 17.108 10.139C17.5653 11.0724 17.7436 11.8608 17.7436 12.9256C17.7436 13.9949 17.5607 14.7878 17.108 15.7122C16.2116 17.5246 14.5836 18.7797 12.5669 19.2101C12.0227 19.3279 10.5639 19.3234 10.0151 19.2056C9.56692 19.1104 8.81693 18.8567 8.48767 18.6936C6.95568 17.9324 5.76667 16.6229 5.21333 15.0778C4.9801 14.4163 4.88864 13.927 4.8612 13.1522C4.82919 12.2822 4.9115 11.6886 5.17217 10.9093C5.51058 9.90796 5.95417 9.19659 6.74532 8.41726C7.75597 7.41138 8.87181 6.83141 10.2437 6.60486C10.7239 6.5233 11.826 6.5233 12.3245 6.60486Z" fill="url(#paint0_linear_337_10)"/>
<defs>
<linearGradient id="paint0_linear_337_10" x1="23.4385" y1="22.519" x2="2.31437" y2="2.61989" gradientUnits="userSpaceOnUse">
<stop stop-color="#CB328F"/>
<stop offset="0.2" stop-color="#CB328F"/>
<stop offset="0.4" stop-color="#97238A"/>
<stop offset="0.6" stop-color="#5456AB"/>
<stop offset="0.8" stop-color="#219DDE"/>
<stop offset="1" stop-color="#22DCD9"/>
</linearGradient>
</defs>
</svg>
