<svg width="230" height="12" viewBox="0 0 230 12" fill="none" xmlns="http://www.w3.org/2000/svg">
<path fill-rule="evenodd" clip-rule="evenodd" d="M5.66229 0.333374H6.21292C9.34012 0.333374 11.8752 2.53045 11.8752 5.24069V5.93752C11.8752 8.64776 9.34012 10.8448 6.21292 10.8448H5.66229C2.53509 10.8448 0 8.64776 0 5.93752V5.24069C0 2.53045 2.53509 0.333374 5.66229 0.333374ZM21.2707 0.333374H30.8313C34.0258 0.333374 36.6154 2.57772 36.6154 5.34627V5.83194C36.6154 8.60049 34.0258 10.8448 30.8313 10.8448H21.2707C18.0762 10.8448 15.4866 8.60049 15.4866 5.83194V5.34627C15.4866 2.57772 18.0762 0.333374 21.2707 0.333374ZM42.7209 0.333374H42.4968C41.2427 0.333374 40.226 1.21446 40.226 2.30136V8.87683C40.226 9.96372 41.2427 10.8448 42.4968 10.8448H42.7209C43.975 10.8448 44.9917 9.96372 44.9917 8.87683V2.30136C44.9917 1.21446 43.975 0.333374 42.7209 0.333374ZM52.3155 0.333374H52.6956C54.8835 0.333374 56.6572 1.87058 56.6572 3.76681V7.4114C56.6572 9.30763 54.8835 10.8448 52.6956 10.8448H52.3155C50.1275 10.8448 48.3538 9.30763 48.3538 7.4114V3.76681C48.3538 1.87058 50.1275 0.333374 52.3155 0.333374Z" fill="url(#paint0_linear_236_5803)"/>
<path d="M71.3676 11.1302C70.5378 11.1302 69.7458 10.9953 68.9914 10.7255C68.2479 10.4453 67.666 10.0873 67.2457 9.65144L67.6175 9.05993C68.0162 9.46464 68.5496 9.79672 69.2177 10.0562C69.8966 10.3052 70.6079 10.4297 71.3514 10.4297C72.429 10.4297 73.2426 10.2326 73.7922 9.83823C74.3417 9.44389 74.6165 8.93021 74.6165 8.29718C74.6165 7.80944 74.4711 7.42029 74.1801 7.12972C73.8892 6.83916 73.5282 6.61604 73.0971 6.46038C72.6661 6.30472 72.0842 6.14387 71.3514 5.97783C70.5216 5.78066 69.8535 5.58867 69.3471 5.40188C68.8514 5.21509 68.4257 4.92971 68.0701 4.54574C67.7253 4.1514 67.5528 3.62734 67.5528 2.97356C67.5528 2.44431 67.6983 1.96176 67.9893 1.52591C68.2802 1.07968 68.722 0.726848 69.3147 0.467412C69.9182 0.207976 70.6671 0.0782579 71.5615 0.0782579C72.1865 0.0782579 72.8008 0.166466 73.4042 0.342883C74.0077 0.519299 74.5303 0.75798 74.9721 1.05893L74.665 1.69714C74.2124 1.39619 73.7114 1.16789 73.1618 1.01223C72.623 0.856565 72.0896 0.778735 71.5615 0.778735C70.5163 0.778735 69.7242 0.981095 69.1854 1.38581C68.6466 1.79053 68.3772 2.31459 68.3772 2.958C68.3772 3.44573 68.5227 3.83489 68.8136 4.12546C69.1046 4.41602 69.4656 4.63914 69.8966 4.7948C70.3277 4.95046 70.915 5.1165 71.6585 5.29292C72.4883 5.49009 73.151 5.68207 73.6467 5.86887C74.1424 6.05566 74.5627 6.34104 74.9075 6.725C75.2631 7.09859 75.4409 7.60708 75.4409 8.25049C75.4409 8.77973 75.29 9.26229 74.9883 9.69814C74.6974 10.134 74.2448 10.4816 73.6305 10.7411C73.0163 11.0005 72.262 11.1302 71.3676 11.1302Z" fill="black"/>
<path d="M84.806 0.156089C86.2284 0.156089 87.3437 0.482978 88.1519 1.13676C88.9601 1.78016 89.3642 2.6778 89.3642 3.8297C89.3642 4.97122 88.9601 5.86887 88.1519 6.52264C87.3437 7.16604 86.2284 7.48774 84.806 7.48774H81.5731V11.0524H80.7488V0.156089H84.806ZM84.806 6.7717C86.0129 6.7717 86.9342 6.51745 87.57 6.00896C88.2058 5.50047 88.5237 4.77405 88.5237 3.8297C88.5237 2.88535 88.2058 2.15893 87.57 1.65044C86.9342 1.13157 86.0129 0.872131 84.806 0.872131H81.5731V6.7717H84.806Z" fill="black"/>
<path d="M102.458 10.3363V11.0524H94.6511V0.156089H102.216V0.872131H95.4755V5.16839H101.505V5.86887H95.4755V10.3363H102.458Z" fill="black"/>
<path d="M112.691 11.1302C111.581 11.1302 110.579 10.8915 109.684 10.4142C108.801 9.93682 108.1 9.27785 107.583 8.43728C107.077 7.59671 106.823 6.65236 106.823 5.60424C106.823 4.55612 107.077 3.61177 107.583 2.7712C108.1 1.93063 108.801 1.27166 109.684 0.794301C110.579 0.316939 111.581 0.0782579 112.691 0.0782579C113.51 0.0782579 114.264 0.207976 114.954 0.467412C115.643 0.71647 116.231 1.09006 116.716 1.58817L116.198 2.10186C115.293 1.24053 114.135 0.809867 112.723 0.809867C111.775 0.809867 110.913 1.01742 110.137 1.43251C109.361 1.84761 108.752 2.42356 108.31 3.16036C107.869 3.88678 107.648 4.7014 107.648 5.60424C107.648 6.50708 107.869 7.32689 108.31 8.06369C108.752 8.79011 109.361 9.36087 110.137 9.77597C110.913 10.1911 111.775 10.3986 112.723 10.3986C114.124 10.3986 115.282 9.96276 116.198 9.09106L116.716 9.60474C116.231 10.1029 115.638 10.4816 114.938 10.7411C114.248 11.0005 113.499 11.1302 112.691 11.1302Z" fill="black"/>
<path d="M124.006 0.872131H119.933V0.156089H128.904V0.872131H124.831V11.0524H124.006V0.872131Z" fill="black"/>
<path d="M141.309 11.0524L138.61 7.40991C138.211 7.4618 137.845 7.48774 137.511 7.48774H134.278V11.0524H133.454V0.156089H137.511C138.933 0.156089 140.049 0.482978 140.857 1.13676C141.665 1.78016 142.069 2.6778 142.069 3.8297C142.069 4.69103 141.837 5.41745 141.374 6.00896C140.922 6.5901 140.27 7.00001 139.418 7.23869L142.247 11.0524H141.309ZM137.511 6.78727C138.718 6.78727 139.639 6.53302 140.275 6.02453C140.911 5.50565 141.229 4.77405 141.229 3.8297C141.229 2.88535 140.911 2.15893 140.275 1.65044C139.639 1.13157 138.718 0.872131 137.511 0.872131H134.278V6.78727H137.511Z" fill="black"/>
<path d="M152.022 11.1302C150.589 11.1302 149.473 10.7307 148.676 9.93163C147.889 9.13257 147.496 7.96511 147.496 6.42925V0.156089H148.32V6.39811C148.32 7.7368 148.638 8.73822 149.274 9.40238C149.91 10.0665 150.831 10.3986 152.038 10.3986C153.234 10.3986 154.15 10.0665 154.786 9.40238C155.422 8.73822 155.74 7.7368 155.74 6.39811V0.156089H156.564V6.42925C156.564 7.96511 156.165 9.13257 155.368 9.93163C154.57 10.7307 153.455 11.1302 152.022 11.1302Z" fill="black"/>
<path d="M173.616 11.0524L173.6 1.72827L168.864 9.60474H168.46L163.724 1.7594V11.0524H162.916V0.156089H163.611L168.67 8.57737L173.73 0.156089H174.409L174.425 11.0524H173.616Z" fill="black"/>
<path d="M196.958 0.156089L193.208 11.0524H190.978L188.181 2.98913L185.336 11.0524H183.089L179.339 0.156089H181.522L184.334 8.43728L187.26 0.156089H189.199L192.061 8.48398L194.954 0.156089H196.958Z" fill="black"/>
<path d="M201.176 0.156089H203.277V11.0524H201.176V0.156089Z" fill="black"/>
<path d="M212.35 11.2081C211.477 11.2081 210.632 11.0887 209.813 10.85C209.004 10.6114 208.363 10.2948 207.889 9.9005L208.616 8.32832C209.08 8.68115 209.646 8.97172 210.314 9.20002C210.993 9.41795 211.671 9.52691 212.35 9.52691C213.191 9.52691 213.816 9.39719 214.225 9.13776C214.646 8.87832 214.856 8.53586 214.856 8.11039C214.856 7.79907 214.737 7.54482 214.5 7.34765C214.274 7.1401 213.983 6.97925 213.627 6.8651C213.272 6.75095 212.787 6.62123 212.173 6.47594C211.31 6.27877 210.61 6.0816 210.071 5.88443C209.543 5.68726 209.085 5.38113 208.697 4.96603C208.32 4.54055 208.132 3.96979 208.132 3.25375C208.132 2.65186 208.299 2.10705 208.633 1.61931C208.977 1.12119 209.489 0.726847 210.168 0.436279C210.858 0.145711 211.698 0.000427246 212.69 0.000427246C213.379 0.000427246 214.058 0.0834469 214.726 0.249486C215.395 0.415525 215.971 0.654206 216.456 0.965529L215.793 2.53771C215.298 2.25752 214.78 2.04478 214.242 1.8995C213.703 1.75421 213.18 1.68157 212.674 1.68157C211.844 1.68157 211.224 1.81648 210.815 2.08629C210.416 2.3561 210.217 2.71413 210.217 3.16036C210.217 3.47168 210.33 3.72593 210.556 3.9231C210.793 4.12027 211.09 4.27593 211.445 4.39008C211.801 4.50423 212.286 4.63395 212.9 4.77923C213.74 4.96603 214.43 5.1632 214.969 5.37075C215.508 5.56792 215.966 5.87405 216.343 6.28915C216.731 6.70425 216.925 7.26463 216.925 7.97029C216.925 8.57219 216.752 9.117 216.408 9.60474C216.073 10.0925 215.562 10.4816 214.872 10.7722C214.182 11.0628 213.342 11.2081 212.35 11.2081Z" fill="black"/>
<path d="M230 9.35568V11.0524H221.514V0.156089H229.774V1.8528H223.615V4.68584H229.079V6.35142H223.615V9.35568H230Z" fill="black"/>
<defs>
<linearGradient id="paint0_linear_236_5803" x1="0" y1="0.333374" x2="55.7061" y2="14.186" gradientUnits="userSpaceOnUse">
<stop stop-color="#22DCD9"/>
<stop offset="1" stop-color="#F73E94"/>
</linearGradient>
</defs>
</svg>
