<svg width="70" height="61" viewBox="0 0 70 61" fill="none" xmlns="http://www.w3.org/2000/svg">
<path d="M31.2977 22.876C31.6348 22.876 31.9713 22.9872 32.2253 23.2086L39.6298 29.6588C40.1234 30.0886 40.1234 30.7755 39.6298 31.2053L32.2253 37.655C31.7229 38.0913 30.9004 38.0983 30.3904 37.6723C29.8778 37.2452 29.8689 36.5448 30.3701 36.1086L36.8869 30.4321L30.3701 24.755C29.8689 24.3187 29.8778 23.6184 30.3904 23.1913C30.6426 22.9807 30.9701 22.876 31.2977 22.876Z" fill="#030335"/>
<path d="M0.5 30.2897C0.5 14.1043 15.87 0.855804 35 0.855804C54.13 0.855804 69.5 14.1043 69.5 30.2897C69.5 46.4751 54.13 59.7236 35 59.7236C15.87 59.7236 0.5 46.4751 0.5 30.2897Z" stroke="url(#paint0_linear_110_122)"/>
<defs>
<linearGradient id="paint0_linear_110_122" x1="70" y1="52.5263" x2="14.9055" y2="3.56805" gradientUnits="userSpaceOnUse">
<stop stop-color="#22DCD9"/>
<stop offset="1" stop-color="#F73E94"/>
</linearGradient>
</defs>
</svg>
