<svg width="175" height="142" viewBox="0 0 175 142" fill="none" xmlns="http://www.w3.org/2000/svg">
<g clip-path="url(#clip0_779_12)">
<path d="M20.8193 1.08444C20.3314 1.57239 20.1687 15.4519 20.1687 60.1266C20.1687 109.789 20.2772 118.681 20.9278 119.331C21.4699 119.874 23.747 120.199 28.6808 120.416C43.5904 121.121 58.5001 124.97 72.7049 131.747C75.7952 133.211 78.1808 134.512 78.0181 134.675C77.8555 134.837 75.6868 134.621 73.1928 134.133C55.8976 130.934 30.9037 130.012 13.7711 131.964L10.4097 132.344V76.3917V20.4941H11.9278C13.988 20.4941 14.8555 19.7893 14.6386 18.2712C14.4759 17.1326 14.1506 16.97 11.6567 16.8073C10.0844 16.6989 8.29523 16.9158 7.69884 17.2411C6.6145 17.8375 6.6145 18.1085 6.6145 76.5543C6.6145 126.868 6.72294 135.38 7.37354 135.922C7.96992 136.464 9.43378 136.41 13.7711 135.868C22.5543 134.729 51.0723 134.946 60.5603 136.139C69.3434 137.277 77.1507 138.741 85.3374 140.693L91.0844 142.103L95.3675 140.964C101.44 139.337 112.5 137.277 121.283 136.139C130.825 134.946 159.289 134.729 168.072 135.868C172.41 136.41 173.874 136.464 174.47 135.922C175.121 135.38 175.229 126.868 175.229 76.5543V17.7832L173.765 17.1869C172.952 16.9158 171.217 16.6989 169.862 16.8073C167.693 16.97 167.368 17.1326 167.205 18.2712C166.988 19.7893 167.855 20.4941 169.97 20.4941H171.434V76.3917V132.344L167.801 131.964C149.639 130.012 126.054 130.934 108.651 134.133C106.157 134.621 103.988 134.837 103.825 134.675C103.337 134.187 114.072 129.307 120.362 127.084C132.506 122.856 141.506 121.066 153.651 120.307C158.801 120.036 160.807 119.711 161.187 119.115C161.458 118.681 161.675 94.0122 161.675 60.0182C161.675 8.3495 161.566 1.5724 160.862 0.976013C159.235 -0.37941 140.639 1.5724 131.042 4.01216C117.868 7.42783 103.608 13.6085 93.6326 20.223C91.0302 22.0122 90.976 22.0122 89.5663 21.0905C82.6808 16.211 69.8856 10.0844 59.3675 6.61456C45.8133 2.11456 23.0422 -1.13844 20.8193 1.08444ZM35.8916 5.36757C51.8314 7.10251 71.3494 14.0965 85.1205 22.9338L89.0241 25.482V80.729C89.0241 111.09 88.9157 135.976 88.7531 135.976C88.5362 135.976 86.4217 134.729 83.9278 133.265C69.3434 124.482 48.2531 117.705 32.3675 116.675C29.3856 116.512 26.4579 116.241 25.8615 116.187C25.2651 116.078 24.6145 115.97 24.3976 115.97C23.8555 115.916 23.8013 5.09648 24.3434 4.60854C24.6687 4.22902 26.6747 4.39166 35.8916 5.36757ZM157.771 60.0724C157.88 104.097 157.771 115.645 157.229 116.024C156.849 116.241 155.06 116.458 153.271 116.458C137.115 116.512 113.693 123.669 97.3736 133.59C95.2049 134.892 93.3073 135.976 93.1446 135.976C92.982 135.976 92.8193 111.09 92.8193 80.729V25.482L96.7772 22.9338C107.078 16.2652 122.151 10.0844 134.837 7.26517C141.506 5.7471 153.542 4.22902 156.795 4.44589C157.5 4.50011 157.609 11.1146 157.771 60.0724Z" fill="url(#paint0_linear_779_12)"/>
<path d="M34.9699 15.4517C33.994 15.8313 33.9398 59.259 34.8614 59.8554C35.1867 60.0722 38.1687 60.6686 41.5301 61.265C52.0482 63.0542 61.8614 66.1445 72.3253 71.024C76.0663 72.759 77.4217 73.1385 78.0723 72.7048C78.8855 72.2168 78.994 69.9939 79.1566 50.8554C79.2651 35.1867 79.1024 29.3855 78.6145 28.7891C78.2892 28.3554 76.0121 27.1084 73.5723 25.9156C63.6506 21.2529 51.8313 17.6204 41.3133 15.8855C35.7831 15.018 35.9458 15.018 34.9699 15.4517ZM49.4458 21.6325C56.6566 23.3674 64.3554 26.0782 70.8615 29.1144L75.4699 31.2831V49.5542C75.4699 66.6867 75.4157 67.771 74.5482 67.4999C74.006 67.3373 70.5361 65.9277 66.7952 64.4096C60.1807 61.6987 46.6265 57.8493 40.9337 57.0903L38.0602 56.7108V38.006V19.3554L40.6627 19.7349C42.0723 19.9517 46.0301 20.765 49.4458 21.6325Z" fill="url(#paint1_linear_779_12)"/>
<path d="M34.3193 74.1149C33.3976 75.7956 34.753 76.7173 39.4157 77.3679C49.988 78.9944 61.6446 82.5185 71.5663 87.2354C77.0422 89.7836 78.3434 90.0005 78.9398 88.4824C79.5361 86.9643 78.6145 86.2053 73.4096 83.7655C63.1084 78.9944 54.6506 76.2836 43.8615 74.2234C36.5422 72.8137 35.0241 72.8137 34.3193 74.1149Z" fill="#FF4A55"/>
<path d="M34.97 87.0187C34.1567 87.344 34.0483 89.6753 34.8073 90.1632C35.0784 90.3259 37.5724 90.868 40.3375 91.3018C50.6387 92.9283 61.8615 96.4524 71.7832 101.115C76.9881 103.555 78.4519 103.772 79.0483 102.091C79.5362 100.79 78.4519 99.868 73.9519 97.6994C64.0302 93.0367 52.97 89.5126 42.5061 87.6693C35.9459 86.5849 36.0001 86.5849 34.97 87.0187Z" fill="#FF4A55"/>
<path d="M34.6447 101.114C34.4278 101.277 34.2652 102.036 34.2652 102.687C34.2652 104.096 34.2109 104.042 40.5001 105.072C50.476 106.753 62.0242 110.277 70.5362 114.343C73.6266 115.807 76.717 117 77.3676 117C78.723 117 79.4278 115.861 78.8856 114.506C78.5061 113.53 72.0001 110.331 64.4097 107.458C53.7832 103.392 36.1085 99.5964 34.6447 101.114Z" fill="#FF4A55"/>
<path d="M141.343 15.6691C129.687 17.7836 117.488 21.5788 108.271 25.9703C103.446 28.2474 102.253 29.2233 102.795 30.5245C103.392 32.2053 104.91 31.9884 110.06 29.5486C119.711 24.9402 131.151 21.3619 141.506 19.7354C147.307 18.7595 147.578 18.651 147.578 16.9703C147.578 15.0185 146.386 14.8016 141.343 15.6691Z" fill="#FF4A55"/>
<path d="M137.277 30.2531C126.976 32.2591 112.337 37.2471 105.289 41.1507C102.687 42.5603 102.145 44.0242 103.771 45.0543C104.476 45.5423 106.048 45.0543 110.819 42.8856C122.151 37.8435 128.494 36.0001 146.386 32.6386C147.416 32.4218 147.633 32.0965 147.47 30.9037C147.307 29.5483 147.09 29.4398 144.868 29.3314C143.512 29.2772 140.096 29.7109 137.277 30.2531Z" fill="#FF4A55"/>
<path d="M142.428 43.048C141.831 43.2107 139.392 43.6986 137.006 44.1323C127.572 45.8673 114.614 50.2046 106.374 54.3793C102.361 56.3853 101.494 57.8492 103.608 58.9335C104.422 59.3673 105.614 59.042 109.193 57.4155C119.548 52.536 130.988 48.9576 141.343 47.3311C144.325 46.8432 146.982 46.2468 147.199 46.0299C147.47 45.7588 147.578 44.9998 147.47 44.295C147.361 43.2107 146.982 42.9938 145.41 42.8853C144.38 42.8853 143.024 42.9396 142.428 43.048Z" fill="#FF4A55"/>
<path d="M139.717 57.3073C131.964 58.717 130.229 59.3134 130.229 60.8856C130.229 61.5362 130.609 62.2953 131.096 62.4579C131.964 62.7832 144.217 60.8314 146.386 60.0182C148.392 59.2591 147.687 56.0603 145.518 56.3314C145.301 56.3314 142.699 56.8194 139.717 57.3073Z" fill="#FF4A55"/>
<path d="M111.09 65.9821C101.819 70.211 102.578 69.1267 102.578 77.8556C102.578 81.9218 102.795 85.6086 103.066 86.0423C103.392 86.5303 104.096 86.6929 105.072 86.4761C106.699 86.205 118.627 80.9459 119.819 80.0243C120.741 79.2652 120.741 64.8977 119.819 63.9761C118.735 62.8917 117.217 63.2712 111.09 65.9821ZM116.404 73.0303V77.4761L112.066 79.3737C109.681 80.4038 107.512 81.3255 107.187 81.3797C106.862 81.4339 106.59 79.6447 106.482 76.9881L106.319 72.4881L110.819 70.3737C113.313 69.2351 115.59 68.3134 115.862 68.4218C116.187 68.4761 116.404 70.4821 116.404 73.0303Z" fill="url(#paint2_linear_779_12)"/>
<path d="M137.331 71.5124C134.187 72.1088 131.313 72.8679 130.934 73.1932C129.958 73.9522 130.012 75.6329 131.042 76.1751C131.693 76.5546 137.602 75.6871 146.386 73.8438C147.416 73.6269 147.633 73.3016 147.47 72.1088C147.307 70.8076 147.09 70.645 145.139 70.5365C143.946 70.4823 140.422 70.916 137.331 71.5124Z" fill="#FF4A55"/>
<path d="M140.259 87.506C137.873 87.8856 134.729 88.5362 133.211 88.9157L130.5 89.6205V98.0241V106.428L132.669 106.374C134.512 106.374 142.428 105.127 146.386 104.259C147.578 103.988 147.578 103.825 147.578 95.6386C147.578 85.5 148.175 86.1506 140.259 87.506ZM143.783 95.8554C143.783 98.5121 143.729 100.735 143.675 100.735C143.566 100.735 141.452 101.114 138.904 101.548C136.355 101.982 134.241 102.361 134.187 102.361C134.078 102.361 134.024 100.193 134.024 97.5362V92.7109L138.253 91.8976C140.53 91.4639 142.753 91.0844 143.133 91.0301C143.62 90.9759 143.783 92.2771 143.783 95.8554Z" fill="url(#paint3_linear_779_12)"/>
<path d="M110.711 96.4521C104.042 99.3798 102.199 100.627 102.741 102.036C103.446 103.771 104.855 103.555 110.657 100.844C113.855 99.3256 117.163 97.916 117.922 97.7533C119.765 97.2654 120.633 96.181 120.199 94.7714C119.657 93.0907 117.596 93.416 110.711 96.4521Z" fill="#FF4A55"/>
<path d="M111.307 109.952C102.687 113.693 102.145 114.127 102.904 116.133C103.392 117.38 105.018 117.217 108.488 115.537C110.169 114.778 113.313 113.314 115.536 112.392C120.036 110.494 121.066 109.464 119.982 108.109C118.898 106.808 118.084 107.025 111.307 109.952Z" fill="#FF4A55"/>
</g>
<defs>
<linearGradient id="paint0_linear_779_12" x1="178.5" y1="138" x2="7.00001" y2="8.99999" gradientUnits="userSpaceOnUse">
<stop stop-color="#F73E94"/>
<stop offset="1" stop-color="#8F0CEC"/>
</linearGradient>
<linearGradient id="paint1_linear_779_12" x1="79" y1="73" x2="40" y2="15" gradientUnits="userSpaceOnUse">
<stop stop-color="#8E0CED"/>
<stop offset="1" stop-color="#F73E94"/>
</linearGradient>
<linearGradient id="paint2_linear_779_12" x1="121" y1="87" x2="103" y2="63" gradientUnits="userSpaceOnUse">
<stop stop-color="#9B12E3"/>
<stop offset="1" stop-color="#F73E94"/>
</linearGradient>
<linearGradient id="paint3_linear_779_12" x1="148" y1="112" x2="131" y2="87" gradientUnits="userSpaceOnUse">
<stop stop-color="#9A11E4"/>
<stop offset="1" stop-color="#F73E94"/>
</linearGradient>
<clipPath id="clip0_779_12">
<rect width="175" height="142" fill="white"/>
</clipPath>
</defs>
</svg>
