<svg width="147" height="128" viewBox="0 0 147 128" fill="none" xmlns="http://www.w3.org/2000/svg">
<path d="M75.7632 -9.81367C38.3558 -10.8678 5.95316 15.0378 1.05778 49.0297C-4.29444 86.1949 25.1646 119.635 61.4131 124.991C106.5 131.653 150.232 93.1132 146.305 51.3039C143.347 19.8033 113.788 -8.74203 75.7632 -9.81367Z" fill="#F4F7FA"/>
<path d="M102.562 107.889C101.397 103.35 100.36 96.4711 102.593 89.0563C105.157 80.5423 109.689 79.1035 114.265 70.1237C120.797 57.305 115.018 47.3272 121.145 43.6815C124.133 41.9038 128.629 42.1981 131.27 44.355C138.806 50.5075 135.022 74.8957 121.846 83.6419C115.887 87.5975 110.97 86.7575 106.343 92.0797C102.254 96.7825 102.119 103.333 102.562 107.889Z" fill="url(#paint0_linear_786_12)"/>
<path d="M92.9628 114.979C91.9352 111.389 90.9278 105.712 93.3173 100.256C97.486 90.7373 107.302 92.6027 115.268 82.0011C121.694 73.4505 118.697 67.7262 126.211 61.6694C127.469 60.6554 134.093 55.1106 139.752 57.3371C142.94 58.5918 144.408 61.7536 144.684 62.3468C148.848 71.3172 141.032 87.0158 129.421 95.1231C122.749 99.7813 120.31 98.7919 108.306 104.712C101.253 108.19 96.1205 112.213 92.9628 114.979Z" fill="url(#paint1_linear_786_12)"/>
<path d="M93.7069 104.204C95.9099 102.973 99.4844 101.236 104.148 100.158C112.443 98.2423 115.907 100.327 119.667 97.3416C123.559 94.2516 121.688 90.5567 126.316 87.1382C126.705 86.8508 131.661 83.2883 135.551 85.2697C138.272 86.6557 139.01 90.0111 139.357 91.5852C140.7 97.6952 138.506 106.52 131.729 110.223C125.304 113.734 118.002 110.877 115.686 109.954C111.623 108.333 110.816 106.585 106.67 105.065C101.629 103.215 96.8627 103.615 93.7069 104.204Z" fill="url(#paint2_linear_786_12)"/>
<path d="M114.235 63.4505C114.301 93.4877 98.3351 118.001 69.901 118.807C69.4617 118.819 62.2049 118.806 61.7626 118.807C32.7158 118.877 9.11397 94.2083 9.04677 63.7067C8.97958 33.2051 32.4721 8.42132 61.5184 8.35061C62.1974 8.34911 68.5736 8.41179 69.2466 8.43687C97.3562 9.48745 114.169 33.662 114.235 63.4505Z" fill="url(#paint3_linear_786_12)"/>
<path d="M71.4736 119.3C100.521 119.3 124.068 94.5737 124.068 64.072C124.068 33.5703 100.521 8.84375 71.4736 8.84375C42.4268 8.84375 18.8796 33.5703 18.8796 64.072C18.8796 94.5737 42.4268 119.3 71.4736 119.3Z" fill="url(#paint4_linear_786_12)"/>
<path opacity="0.3" d="M71.4737 117.909C99.7888 117.909 122.743 93.8052 122.743 64.072C122.743 34.3388 99.7888 10.2354 71.4737 10.2354C43.1586 10.2354 20.2046 34.3388 20.2046 64.072C20.2046 93.8052 43.1586 117.909 71.4737 117.909Z" fill="url(#paint5_linear_786_12)"/>
<path d="M71.4736 116.284C98.9338 116.284 121.195 92.9082 121.195 64.0727C121.195 35.2372 98.9338 11.8613 71.4736 11.8613C44.0134 11.8613 21.7526 35.2372 21.7526 64.0727C21.7526 92.9082 44.0134 116.284 71.4736 116.284Z" fill="url(#paint6_linear_786_12)"/>
<path d="M70.4106 115.168C97.2839 115.168 119.069 92.2915 119.069 64.0722C119.069 35.8528 97.2839 12.9766 70.4106 12.9766C43.5373 12.9766 21.7522 35.8528 21.7522 64.0722C21.7522 92.2915 43.5373 115.168 70.4106 115.168Z" fill="url(#paint7_linear_786_12)"/>
<path d="M75.5481 62.6092L112.613 76.9819C113.82 72.9215 114.47 68.6028 114.47 64.1251C114.47 41.0674 97.2303 22.2386 75.5481 21.0762V62.6092Z" fill="url(#paint8_linear_786_12)"/>
<g opacity="0.54">
<path d="M58.1936 62.913C54.3458 50.4504 68.2582 41.4569 66.0643 26.9313C65.0964 20.5214 61.3299 15.2695 56.6978 11.0566C34.7994 17.7754 18.8245 39.0413 18.8797 64.2008C18.9469 94.7023 42.5487 119.371 71.5955 119.301C78.7174 119.283 85.5044 117.777 91.693 115.068C90.7964 97.4409 85.389 87.4836 79.6391 81.4845C70.7766 72.2384 61.1278 72.4159 58.1936 62.913Z" fill="#D8DEE8"/>
</g>
<path d="M70.2741 68.1211C71.9827 68.1211 73.3677 66.6667 73.3677 64.8726C73.3677 63.0784 71.9827 61.624 70.2741 61.624C68.5656 61.624 67.1805 63.0784 67.1805 64.8726C67.1805 66.6667 68.5656 68.1211 70.2741 68.1211Z" fill="url(#paint9_linear_786_12)"/>
<path d="M70.2742 38.9824C69.1945 38.9824 68.319 39.9016 68.319 41.0355V62.9348C68.319 64.0686 69.1945 64.9878 70.2742 64.9878C71.3539 64.9878 72.2295 64.0686 72.2295 62.9348V41.0355C72.229 39.9016 71.3539 38.9824 70.2742 38.9824Z" fill="url(#paint10_linear_786_12)"/>
<path d="M70.7791 64.5649L35.7502 54.2666C35.1329 54.0781 34.4544 54.4206 34.2347 55.0314C34.0156 55.6422 34.338 56.2901 34.9553 56.4786L69.9842 66.7769C70.6015 66.9654 71.28 66.6229 71.4997 66.0121C71.7193 65.4013 71.3964 64.7534 70.7791 64.5649Z" fill="url(#paint11_linear_786_12)"/>
<path d="M139.548 16.7863L100.539 19.0324C98.4304 19.1537 96.7911 21.4284 96.7911 24.1158V36.0208L94.1578 41.4597L96.7294 41.8464L100.392 42.1778L139.553 45.7097C142.945 46.0156 145.803 43.3944 145.803 39.845V22.8551C145.803 19.3052 142.94 16.5912 139.548 16.7863Z" fill="url(#paint12_linear_786_12)"/>
<path d="M138.187 16.7863L99.149 19.0324C97.0408 19.1537 95.3734 21.4284 95.3734 24.1158V36.0208L92.7812 41.4597L95.3734 41.8464L99.0462 42.1778L138.187 45.7097C141.579 46.0156 144.415 43.3944 144.415 39.845V22.8551C144.415 19.3052 141.578 16.5912 138.187 16.7863Z" fill="url(#paint13_linear_786_12)"/>
<path d="M28.8585 60.3696C28.8585 60.3696 19.2016 43.648 6.14123 72.0845C-4.02814 94.2276 2.54466 118.862 26.0713 125.621C49.5984 132.381 86.3443 118.729 74.8104 109.108C50.3441 88.7003 31.775 70.6112 28.8585 60.3696Z" fill="url(#paint14_linear_786_12)"/>
<g opacity="0.35">
<path d="M16.7408 75.3965C16.0533 77.4219 15.8979 83.1914 16.1877 89.8269C16.4465 95.7457 15.9089 98.8408 25.3261 103.146C28.554 104.622 30.7861 109.305 35.7286 112.09C37.9692 113.353 46.41 117.923 57.311 116.076C64.5237 114.854 69.894 111.316 73.5106 108.02C49.6906 88.0587 31.7228 70.4284 28.8584 60.3693C28.8584 60.3693 25.3301 54.2644 19.6554 55.7096C21.0319 57.2446 21.4993 61.3778 16.7408 75.3965Z" fill="url(#paint15_linear_786_12)"/>
</g>
<g opacity="0.13">
<path d="M63.7279 118.895C52.6012 125.039 34.0186 128.789 20.1739 118.506C7.35478 108.985 6.21293 93.0396 5.78567 88.1738C5.03898 79.6693 6.70036 72.2641 9.0959 66.291C8.13307 67.974 7.14767 69.8941 6.14172 72.0845C-4.02765 94.2276 2.54515 118.862 26.0718 125.621C49.2298 132.275 85.1949 119.152 75.3179 109.564C72.5107 112.73 68.7235 116.136 63.7279 118.895Z" fill="url(#paint16_linear_786_12)"/>
</g>
<path opacity="0.3" d="M46.1988 120.72C45.8694 120.72 45.5384 120.716 45.2034 120.709C36.6102 120.517 24.5457 117.663 15.8713 105.155C8.54473 94.5909 9.52511 82.6689 11.6378 74.5275C13.9245 65.7166 17.9945 59.3133 18.0356 59.2501C18.0812 59.1789 18.176 59.1583 18.2467 59.204C18.3179 59.2496 18.3385 59.3444 18.2929 59.4151C18.2522 59.4783 14.2049 65.8475 11.9317 74.6127C9.83703 82.69 8.86367 94.5147 16.1225 104.98C24.7238 117.382 36.6879 120.212 45.2099 120.402C54.4571 120.608 61.7475 117.846 61.8202 117.818C61.8985 117.787 61.9872 117.827 62.0178 117.905C62.0484 117.984 62.0088 118.073 61.93 118.103C61.8598 118.131 55.0243 120.719 46.1988 120.72Z" fill="url(#paint17_linear_786_12)"/>
<path d="M92.345 119.138C91.7317 118.478 90.6329 115.636 92.6368 115.053C94.6522 114.465 95.772 113.722 98.5472 111.498C101.322 109.273 102.035 111.183 98.1154 114.796C94.1959 118.408 93.217 120.077 92.345 119.138Z" fill="url(#paint18_linear_786_12)"/>
<path d="M89.7192 114.988L91.3701 116.429C91.7151 116.73 92.2166 116.769 92.6037 116.525C92.7842 116.411 92.8996 116.218 92.9146 116.005C92.9302 115.792 92.8434 115.585 92.6814 115.446L90.2684 113.382L89.7192 114.988Z" fill="url(#paint19_linear_786_12)"/>
<path d="M40.2786 101.11C37.362 103.665 43.4499 112.044 53.1754 109.328C64.9611 106.037 79.9501 107.516 90.0538 115.743C90.64 115.221 92.0918 114.403 91.4278 113.732C82.3005 104.502 73.8462 99.2032 66.8436 97.7815C56.2575 95.6322 48.5834 93.8349 40.2786 101.11Z" fill="url(#paint20_linear_786_12)"/>
<g opacity="0.24">
<path d="M74.471 104.62C76.1805 105.614 76.5451 103.594 77.4272 102.264C73.641 99.9393 70.0856 98.4399 66.8446 97.7815C56.258 95.6322 48.5839 93.8349 40.279 101.11C37.3625 103.665 43.4504 112.044 53.1764 109.328C56.6938 108.346 60.4984 107.8 64.3718 107.72C67.4865 105.76 70.0355 101.265 74.471 104.62Z" fill="#552D63"/>
</g>
<path d="M38.5575 109.838L37.9587 110.067C37.9587 110.067 34.0864 106.41 33.3958 105.479C32.5539 104.342 42.0367 101.443 45.1158 97.6507C48.3518 93.6655 45.7953 102.382 45.7953 102.382L38.5575 109.838Z" fill="url(#paint21_linear_786_12)"/>
<path d="M35.0452 73.9658C35.0452 73.9658 38.4833 74.4372 42.2528 81.1218C45.0872 86.1476 51.2407 90.3113 51.2407 90.3113L51.8726 94.2659L46.7651 95.1631L44.9382 93.9601L39.9546 83.3564L35.0452 73.9658Z" fill="url(#paint22_linear_786_12)"/>
<path d="M28.3795 73.5398C28.3795 73.5398 19.9051 74.5849 19.7231 84.336C19.5551 93.3349 22.8016 96.8212 30.7685 104.325C31.5694 105.079 32.8687 105.079 32.965 105.188C33.4825 105.772 34.0071 106.38 34.5371 107.016C41.6671 100.174 49.7062 97.8567 49.7062 97.8567C49.7062 97.8567 42.2708 82.4751 39.0037 77.3761C35.6353 72.1191 30.5549 73.0168 28.3795 73.5398Z" fill="url(#paint23_linear_786_12)"/>
<g opacity="0.2">
<path d="M42.4494 96.2555C38.8718 98.1696 33.802 97.9529 31.9375 95.5845C30.5334 93.8007 30.3057 93.1358 28.5967 90.3346C27.2216 88.0809 26.5522 87.7199 23.5478 85.8223C22.414 85.1062 21.1272 84.0697 19.865 82.5166C19.7853 83.0873 19.7351 83.6915 19.7231 84.3359C19.5551 93.3349 22.8016 96.8211 30.7685 104.325C31.5694 105.079 32.8687 105.079 32.965 105.188C33.4825 105.771 34.0071 106.38 34.5371 107.016C41.6671 100.173 49.7062 97.8562 49.7062 97.8562C49.7062 97.8562 48.472 95.437 46.8382 92.0351C45.6528 94.0214 44.7441 95.0279 42.4494 96.2555Z" fill="url(#paint24_linear_786_12)"/>
</g>
<path d="M36.6062 96.5416C36.6062 96.5416 38.2124 96.6158 39.3528 96.1565C40.4936 95.6971 40.3993 95.5913 41.7122 95.4248C42.9885 95.2628 45.5018 94.5051 44.0792 93.2108C42.495 91.7701 39.78 92.1738 38.9997 93.1306C38.2475 94.0528 36.9442 94.638 36.9442 94.638L36.6062 96.5416Z" fill="url(#paint25_linear_786_12)"/>
<path d="M22.2817 78.4007C22.2817 78.4007 17.5748 78.9489 20.3214 94.1049C21.7456 101.965 28.7868 100.859 37.2893 97.6112C37.8649 96.4071 37.1243 93.8551 37.1243 93.8551C37.1243 93.8551 26.5612 98.2104 26.2879 91.8568C25.981 84.7329 25.0272 77.6485 22.2817 78.4007Z" fill="url(#paint26_linear_786_12)"/>
<path d="M30.3514 76.7644C28.337 76.7644 26.2905 75.2726 26.1922 75.2004C26.1581 75.1753 26.1511 75.1276 26.1761 75.0935C26.2012 75.0594 26.2494 75.0524 26.283 75.0775C26.31 75.0976 28.9999 77.0588 31.1778 76.5142C31.7811 76.3638 32.1943 76.0684 32.4054 75.6371C32.8076 74.8162 32.3518 73.7631 32.3473 73.7526C32.3302 73.714 32.3478 73.6689 32.3864 73.6518C32.4255 73.6353 32.4701 73.6523 32.4872 73.6909C32.5072 73.7366 32.9756 74.8202 32.5428 75.7048C32.3107 76.1787 31.8638 76.5012 31.2149 76.6632C30.9316 76.7334 30.6418 76.7644 30.3514 76.7644Z" fill="#9F73F8"/>
<path d="M33.3461 104.876C33.325 104.876 33.3045 104.868 33.2894 104.85C33.2609 104.819 33.2634 104.771 33.295 104.743C33.3707 104.674 40.957 97.8835 47.8061 96.2086C47.8482 96.1975 47.8883 96.2241 47.8989 96.2647C47.9089 96.3059 47.8838 96.347 47.8427 96.3575C41.0312 98.0229 33.473 104.788 33.3978 104.856C33.3827 104.87 33.3642 104.876 33.3461 104.876Z" fill="#AE87F9"/>
<path d="M28.0757 69.7715C28.0757 69.7715 28.354 72.9744 28.1028 73.5812C27.851 74.188 28.6459 75.0149 30.216 75.3333C31.7861 75.6518 30.5429 72.1389 30.5429 72.1389L28.0757 69.7715Z" fill="url(#paint27_linear_786_12)"/>
<path d="M32.6005 70.0103C34.2327 69.1202 34.1981 64.9419 33.2754 64.624C32.7454 64.4414 32.4846 65.7292 30.736 66.4744C29.3745 67.0551 28.4056 66.7542 27.9087 67.5556C27.6755 67.9322 27.5862 68.4873 27.6619 68.9547C27.7011 69.1954 27.8094 69.5073 28.0681 70.1131C28.2978 70.6507 28.2793 70.6301 28.3515 70.7876C28.5245 71.1657 28.875 71.8141 29.5931 72.63C29.6899 72.3998 29.8258 72.118 30.0179 71.8191C30.0916 71.7043 30.3865 71.2564 30.7796 70.9084C31.4947 70.2756 32.1321 70.2655 32.6005 70.0103Z" fill="url(#paint28_linear_786_12)"/>
<path d="M28.6353 71.7758C28.6353 71.7758 29.2466 73.2712 30.9165 73.4297C32.4119 73.5716 33.1626 70.2874 32.3306 69.4309C32.0528 69.1451 31.437 68.946 30.9004 69.0072C30.5835 69.0433 30.4606 69.1531 29.9416 69.2018C29.4627 69.2469 29.3413 69.1752 29.1839 69.2694C28.9868 69.3878 28.8023 69.7253 28.9357 70.7423C28.6995 70.4108 28.378 70.2468 28.1198 70.3215C28.0786 70.3336 27.9658 70.3862 27.8916 70.482C27.6238 70.8285 27.8921 71.3681 28.6353 71.7758Z" fill="url(#paint29_linear_786_12)"/>
<path d="M37.7351 98.579C37.6579 98.59 37.5867 98.6462 37.5671 98.7194C37.5641 98.7304 37.5942 99.1146 37.5932 99.1261C37.5857 99.2154 37.6403 99.2981 37.7256 99.3257L44.9317 101.667L58.3983 96.3926L52 96.882L37.7351 98.579Z" fill="#26264F"/>
<path d="M37.7316 98.5278C37.6428 98.5408 37.5746 98.613 37.5671 98.7023C37.5596 98.7915 37.6142 98.8743 37.6995 98.9019L44.9057 101.243L58.3727 95.9688L51.9739 96.4582L37.7316 98.5278Z" fill="#444B8C"/>
<path d="M44.5872 101.137L45.6608 87.0893C45.6779 86.8641 45.8479 86.6806 46.071 86.6455L62.1979 84.1211C62.3423 84.0985 62.4892 84.1421 62.5981 84.2394C62.7069 84.3372 62.7661 84.4781 62.7595 84.6245L62.1543 97.718C62.1437 97.9442 61.9792 98.1327 61.7566 98.1743L45.0029 101.276L44.5872 101.137Z" fill="url(#paint30_linear_786_12)"/>
<path d="M44.9321 101.666L46.0394 87.3085C46.0569 87.0833 46.2264 86.8998 46.4496 86.8652L62.577 84.3408C62.7214 84.3182 62.8683 84.3619 62.9771 84.4591C63.086 84.5569 63.1451 84.6978 63.1386 84.8443L62.5333 97.9397C62.5228 98.1649 62.3593 98.3535 62.1382 98.3956L44.9321 101.666Z" fill="#26264F"/>
<path d="M44.9323 101.666L62.1378 98.3957C62.3589 98.3536 62.5229 98.165 62.533 97.9398L62.7155 93.9902C57.5899 96.9008 51.1671 97.2709 45.181 98.4388L44.9323 101.666Z" fill="#1F1F44"/>
<path d="M74.0729 98.7236C73.8377 97.9067 73.3177 97.0045 75.1731 96.3456C76.5201 95.8677 78.8599 95.7138 80.9867 95.6049C83.9669 95.452 84.6525 97.2352 80.2972 98.3695C77.4453 99.1122 74.4074 99.885 74.0729 98.7236Z" fill="url(#paint31_linear_786_12)"/>
<path d="M76.3952 97.4738C76.4233 97.9307 76.1319 98.2897 75.7523 98.3439C74.8707 98.4697 75.0362 98.0159 75.0081 97.5591C74.98 97.1022 74.6235 96.7848 75.651 96.689C76.0331 96.6529 76.3671 97.0165 76.3952 97.4738Z" fill="url(#paint32_linear_786_12)"/>
<path d="M67.3462 94.8459L68.2167 94.709C68.2167 94.709 69.9122 94.8675 74.5855 96.1562C75.5859 96.3222 76.9499 99.2418 74.0183 99.3566C71.0867 99.4715 67.5197 101.654 67.5197 101.654L67.3462 94.8459Z" fill="url(#paint33_linear_786_12)"/>
<path d="M36.9127 108.43C36.9127 108.43 37.3395 112.219 46.1494 111.874C54.9593 111.529 70.6975 102.384 70.5987 97.5846C70.4994 92.7855 64.6432 94.7026 58.5794 97.4768C53.4614 99.8182 45.5556 101.174 43.9354 101.425C41.8603 101.747 36.4118 106.61 36.9127 108.43Z" fill="url(#paint34_linear_786_12)"/>
<g opacity="0.2">
<path d="M48.4395 103.682C52.5175 103.267 53.4332 100.34 58.5076 99.4942C61.7958 98.9461 62.9572 99.9169 64.6336 98.7941C65.957 97.908 66.6325 96.3625 66.9574 94.6846C64.7088 94.8751 61.6734 96.0611 58.5788 97.4768C53.6077 99.7509 46.0069 101.095 44.0897 101.401C44.0331 101.41 42.7478 100.95 42.7478 100.95C42.7478 100.95 41.791 101.497 41.105 101.929C43.7778 103.362 46.9502 103.833 48.4395 103.682Z" fill="url(#paint35_linear_786_12)"/>
</g>
<defs>
<linearGradient id="paint0_linear_786_12" x1="130.252" y1="50.9944" x2="108.83" y2="85.4906" gradientUnits="userSpaceOnUse">
<stop stop-color="#FF9085"/>
<stop offset="1" stop-color="#FB6FBB"/>
</linearGradient>
<linearGradient id="paint1_linear_786_12" x1="127.277" y1="62.6996" x2="109.317" y2="116.285" gradientUnits="userSpaceOnUse">
<stop stop-color="#AA80F9"/>
<stop offset="0.9964" stop-color="#6165D7"/>
</linearGradient>
<linearGradient id="paint2_linear_786_12" x1="149.143" y1="50.8075" x2="140.36" y2="64.8073" gradientUnits="userSpaceOnUse">
<stop stop-color="#AA80F9"/>
<stop offset="0.9964" stop-color="#6165D7"/>
</linearGradient>
<linearGradient id="paint3_linear_786_12" x1="37.829" y1="48.495" x2="103.206" y2="86.3447" gradientUnits="userSpaceOnUse">
<stop stop-color="#444B8C"/>
<stop offset="0.9964" stop-color="#26264F"/>
</linearGradient>
<linearGradient id="paint4_linear_786_12" x1="93.2044" y1="31.4247" x2="-11.9921" y2="189.467" gradientUnits="userSpaceOnUse">
<stop stop-color="#FFC444"/>
<stop offset="0.9964" stop-color="#F36F56"/>
</linearGradient>
<linearGradient id="paint5_linear_786_12" x1="98.2549" y1="26.62" x2="66.6513" y2="70.8157" gradientUnits="userSpaceOnUse">
<stop stop-color="#FFC444"/>
<stop offset="0.9964" stop-color="#F36F56"/>
</linearGradient>
<linearGradient id="paint6_linear_786_12" x1="38.5848" y1="-23.9175" x2="86.2114" y2="103.502" gradientUnits="userSpaceOnUse">
<stop stop-color="#FFC444"/>
<stop offset="0.9964" stop-color="#F36F56"/>
</linearGradient>
<linearGradient id="paint7_linear_786_12" x1="9.89289" y1="227.182" x2="104.732" y2="-28.4321" gradientUnits="userSpaceOnUse">
<stop offset="0.00359712" stop-color="#EBEFF2"/>
<stop offset="1" stop-color="white"/>
</linearGradient>
<linearGradient id="paint8_linear_786_12" x1="105.524" y1="26.0113" x2="49.1094" y2="139.482" gradientUnits="userSpaceOnUse">
<stop stop-color="#FFC444"/>
<stop offset="0.9964" stop-color="#F36F56"/>
</linearGradient>
<linearGradient id="paint9_linear_786_12" x1="43.5329" y1="15.022" x2="104.126" y2="127.979" gradientUnits="userSpaceOnUse">
<stop stop-color="#FF9085"/>
<stop offset="1" stop-color="#FB6FBB"/>
</linearGradient>
<linearGradient id="paint10_linear_786_12" x1="48.901" y1="12.1414" x2="109.494" y2="125.099" gradientUnits="userSpaceOnUse">
<stop stop-color="#FF9085"/>
<stop offset="1" stop-color="#FB6FBB"/>
</linearGradient>
<linearGradient id="paint11_linear_786_12" x1="-14.2107" y1="-64.5248" x2="124.199" y2="193.499" gradientUnits="userSpaceOnUse">
<stop stop-color="#FF9085"/>
<stop offset="1" stop-color="#FB6FBB"/>
</linearGradient>
<linearGradient id="paint12_linear_786_12" x1="94.1583" y1="31.2553" x2="145.803" y2="31.2553" gradientUnits="userSpaceOnUse">
<stop stop-color="#AA80F9"/>
<stop offset="0.9964" stop-color="#6165D7"/>
</linearGradient>
<linearGradient id="paint13_linear_786_12" x1="129.721" y1="4.81068" x2="99.8408" y2="87.4345" gradientUnits="userSpaceOnUse">
<stop stop-color="#AA80F9"/>
<stop offset="0.9964" stop-color="#6165D7"/>
</linearGradient>
<linearGradient id="paint14_linear_786_12" x1="19.9665" y1="65.334" x2="77.2839" y2="187.776" gradientUnits="userSpaceOnUse">
<stop stop-color="#FF9085"/>
<stop offset="1" stop-color="#FB6FBB"/>
</linearGradient>
<linearGradient id="paint15_linear_786_12" x1="26.5466" y1="62.254" x2="83.8639" y2="184.696" gradientUnits="userSpaceOnUse">
<stop stop-color="#FF9085"/>
<stop offset="1" stop-color="#FB6FBB"/>
</linearGradient>
<linearGradient id="paint16_linear_786_12" x1="19.9665" y1="65.3335" x2="77.284" y2="187.776" gradientUnits="userSpaceOnUse">
<stop stop-color="#FF9085"/>
<stop offset="1" stop-color="#FB6FBB"/>
</linearGradient>
<linearGradient id="paint17_linear_786_12" x1="10.1048" y1="89.9496" x2="62.0286" y2="89.9496" gradientUnits="userSpaceOnUse">
<stop stop-color="#FF9085"/>
<stop offset="1" stop-color="#FB6FBB"/>
</linearGradient>
<linearGradient id="paint18_linear_786_12" x1="91.9186" y1="118.776" x2="99.7363" y2="109.797" gradientUnits="userSpaceOnUse">
<stop stop-color="#40447E"/>
<stop offset="0.9964" stop-color="#3C3B6B"/>
</linearGradient>
<linearGradient id="paint19_linear_786_12" x1="58.7666" y1="74.1614" x2="144.367" y2="182.491" gradientUnits="userSpaceOnUse">
<stop stop-color="#FFC444"/>
<stop offset="0.9964" stop-color="#F36F56"/>
</linearGradient>
<linearGradient id="paint20_linear_786_12" x1="37.2639" y1="94.5602" x2="97.9243" y2="122.169" gradientUnits="userSpaceOnUse">
<stop stop-color="#311944"/>
<stop offset="1" stop-color="#6B3976"/>
</linearGradient>
<linearGradient id="paint21_linear_786_12" x1="15.8737" y1="109.901" x2="68.5406" y2="96.742" gradientUnits="userSpaceOnUse">
<stop stop-color="#311944"/>
<stop offset="1" stop-color="#893976"/>
</linearGradient>
<linearGradient id="paint22_linear_786_12" x1="60.2846" y1="116.704" x2="44.582" y2="85.0687" gradientUnits="userSpaceOnUse">
<stop stop-color="#AA80F9"/>
<stop offset="0.9964" stop-color="#6165D7"/>
</linearGradient>
<linearGradient id="paint23_linear_786_12" x1="37.8421" y1="102.996" x2="30.6259" y2="80.5813" gradientUnits="userSpaceOnUse">
<stop stop-color="#AA80F9"/>
<stop offset="0.9964" stop-color="#6165D7"/>
</linearGradient>
<linearGradient id="paint24_linear_786_12" x1="37.8422" y1="102.996" x2="30.626" y2="80.5814" gradientUnits="userSpaceOnUse">
<stop stop-color="#AA80F9"/>
<stop offset="0.9964" stop-color="#6165D7"/>
</linearGradient>
<linearGradient id="paint25_linear_786_12" x1="35.736" y1="95.7315" x2="63.2477" y2="86.6021" gradientUnits="userSpaceOnUse">
<stop stop-color="#FFC444"/>
<stop offset="0.9964" stop-color="#F36F56"/>
</linearGradient>
<linearGradient id="paint26_linear_786_12" x1="32.6068" y1="106.216" x2="25.0141" y2="82.6315" gradientUnits="userSpaceOnUse">
<stop offset="0.2828" stop-color="#AA80F9"/>
<stop offset="0.9964" stop-color="#6165D7"/>
</linearGradient>
<linearGradient id="paint27_linear_786_12" x1="28.8698" y1="77.2372" x2="30.1144" y2="67.8686" gradientUnits="userSpaceOnUse">
<stop stop-color="#FFC444"/>
<stop offset="0.9964" stop-color="#F36F56"/>
</linearGradient>
<linearGradient id="paint28_linear_786_12" x1="25.1361" y1="77.7409" x2="32.4863" y2="65.2169" gradientUnits="userSpaceOnUse">
<stop stop-color="#311944"/>
<stop offset="1" stop-color="#6B3976"/>
</linearGradient>
<linearGradient id="paint29_linear_786_12" x1="30.3517" y1="69.6775" x2="28.8534" y2="83.6322" gradientUnits="userSpaceOnUse">
<stop stop-color="#FFC444"/>
<stop offset="0.9964" stop-color="#F36F56"/>
</linearGradient>
<linearGradient id="paint30_linear_786_12" x1="44.106" y1="93.2788" x2="63.2201" y2="92.1087" gradientUnits="userSpaceOnUse">
<stop stop-color="#40447E"/>
<stop offset="0.9964" stop-color="#3C3B6B"/>
</linearGradient>
<linearGradient id="paint31_linear_786_12" x1="74.1324" y1="98.8799" x2="82.9432" y2="95.2968" gradientUnits="userSpaceOnUse">
<stop stop-color="#40447E"/>
<stop offset="0.9964" stop-color="#3C3B6B"/>
</linearGradient>
<linearGradient id="paint32_linear_786_12" x1="72.3138" y1="94.5228" x2="174.014" y2="187.903" gradientUnits="userSpaceOnUse">
<stop stop-color="#FFC444"/>
<stop offset="0.9964" stop-color="#F36F56"/>
</linearGradient>
<linearGradient id="paint33_linear_786_12" x1="33.0489" y1="103.739" x2="76.5832" y2="96.7888" gradientUnits="userSpaceOnUse">
<stop stop-color="#311944"/>
<stop offset="1" stop-color="#6B3976"/>
</linearGradient>
<linearGradient id="paint34_linear_786_12" x1="16.7351" y1="113.349" x2="69.4023" y2="100.19" gradientUnits="userSpaceOnUse">
<stop stop-color="#311944"/>
<stop offset="1" stop-color="#893976"/>
</linearGradient>
<linearGradient id="paint35_linear_786_12" x1="35.3118" y1="105.243" x2="67.1201" y2="96.3813" gradientUnits="userSpaceOnUse">
<stop stop-color="#311944"/>
<stop offset="1" stop-color="#6B3976"/>
</linearGradient>
</defs>
</svg>
