<svg width="126" height="142" viewBox="0 0 126 142" fill="none" xmlns="http://www.w3.org/2000/svg">
<g clip-path="url(#clip0_779_28)">
<path d="M25.0448 0.850525C24.4627 1.52217 24.2836 2.64157 24.2836 6.13411V10.5669L12.1941 15.8953C2.34332 20.2386 0.0597416 21.4028 -0.164139 22.2087C-0.343243 22.9252 0.910488 26.2386 3.68661 32.552C5.97019 37.7013 11.5224 50.2834 16.0448 60.5819L24.2836 79.2087V110.104C24.2836 139.433 24.3284 141 25.0896 141.671C25.8508 142.388 29.1194 142.433 63.1045 142.433C98.5224 142.433 100.313 142.388 100.985 141.627C101.612 140.955 101.746 139.836 101.746 136.343V131.91L113.388 126.761C124.582 121.88 126.373 120.895 126.373 119.642C126.373 119.328 122.657 110.686 118.134 100.433C113.612 90.1789 108.06 77.5968 105.821 72.4923L101.746 63.2684V32.3729C101.746 3.04456 101.702 1.47739 100.94 0.805756C100.179 0.0893402 96.9105 0.0445557 62.9254 0.0445557C27.5075 0.0445557 25.7165 0.0893402 25.0448 0.850525ZM96.8657 17.8207C96.8657 25.164 96.9105 48.4028 96.8657 69.4475C96.8657 90.4923 96.8209 114.537 96.8209 122.865V137.955L62.9254 137.865L28.9851 137.731L29.1194 71.4625C29.1642 35.0147 29.209 5.05948 29.209 4.8356C29.209 4.65649 44.4329 4.52217 63.015 4.52217H96.8209L96.8657 17.8207ZM24.2836 41.552C24.2836 55.746 24.1941 67.2535 24.1045 67.164C23.8806 66.8953 5.43288 24.9849 5.34332 24.4923C5.25377 24.1341 22.8508 15.8953 23.9702 15.761C24.1493 15.7162 24.2836 27.3132 24.2836 41.552ZM111.373 96.5371C116.433 108.089 120.642 117.761 120.687 117.985C120.776 118.298 106.716 124.88 103 126.268L101.746 126.716V100.925C101.746 86.7311 101.836 75.2237 101.925 75.3132C102.015 75.4028 106.269 84.9401 111.373 96.5371Z" fill="url(#paint0_linear_779_28)"/>
<path d="M38.2539 24.0893L38.3882 32.955L39.6419 33.0893L40.8509 33.2236V29.4177V25.5669H42.6419C44.3434 25.5669 44.433 25.4774 44.433 24.2236C44.433 22.9699 44.3434 22.8803 42.6419 22.8803H40.8509V20.4177V17.955H43.3136C45.7315 17.955 45.7762 17.955 45.7762 16.6117V15.2684H41.9703H38.1643L38.2539 24.0893Z" fill="#22DCD9"/>
<path d="M48.6867 15.8057C48.5524 16.1192 48.5076 20.1042 48.5971 24.6714L48.6867 32.955L52.4031 33.0893L56.0747 33.2236V31.8803C56.0747 30.5818 55.9852 30.5371 53.7464 30.4027L51.3732 30.2684L51.2389 22.746L51.1494 15.2684H49.9852C49.4031 15.2684 48.7762 15.5371 48.6867 15.8057Z" fill="#22DCD9"/>
<path d="M55.627 15.5818C55.627 15.8057 56.4329 18.2684 57.418 21.0445C58.9404 25.343 59.209 26.6415 59.209 29.6863V33.2236L60.4628 33.0893L61.6717 32.955L61.9404 28.4774C62.1195 25.0296 62.5225 23.0595 63.5971 20.0147C64.4031 17.7759 65.0299 15.8505 65.0299 15.6266C65.0299 15.4475 64.4478 15.2684 63.7314 15.2684C62.4777 15.2684 62.3434 15.4475 61.3583 18.4923L60.3284 21.6714L59.3881 18.5818C58.5374 15.6714 58.4031 15.4923 57.0598 15.358C56.2538 15.2684 55.627 15.4027 55.627 15.5818Z" fill="#22DCD9"/>
<path d="M68.612 15.4475C68.4776 15.5371 68.4329 19.6117 68.5224 24.4475L68.6567 33.2236L72.3284 33.0893C75.9105 32.955 76 32.9102 76 31.8356C76 30.8057 75.8209 30.7162 73.5373 30.4923L71.0747 30.2684V28.0296V25.7908L72.8657 25.5669C74.3881 25.3878 74.6567 25.1639 74.7911 24.1341C74.9254 23.0147 74.7911 22.9251 73 22.7908L71.0747 22.6565V20.4177V18.1789L73.5373 17.955C75.8209 17.7311 76 17.6415 76 16.6117C76 15.5371 75.9105 15.4923 72.3732 15.358C70.403 15.3132 68.7015 15.3132 68.612 15.4475Z" fill="#22DCD9"/>
<path d="M78.9104 24.2235V33.1787H80.2537H81.597V29.8205C81.597 26.8205 81.6865 26.4623 82.4477 26.4623C83.1641 26.4623 83.4776 27.0892 84.1044 29.8205C84.8656 33.1339 84.9104 33.1787 86.2985 33.1787H87.7313L86.8358 29.4175C85.985 25.8802 85.9403 25.6115 86.6567 24.0892C88.1343 21.0444 87.194 16.5668 84.9552 15.716C84.2835 15.4474 82.6716 15.2683 81.3283 15.2683H78.9104V24.2235ZM84.194 18.4921C84.5074 18.8056 84.7313 19.8354 84.7313 20.8653C84.7313 22.925 84.1492 23.7757 82.6268 23.7757C81.6417 23.7757 81.597 23.5966 81.597 20.8653C81.597 18.1339 81.6417 17.9548 82.6268 17.9548C83.2089 17.9548 83.8805 18.1787 84.194 18.4921Z" fill="#22DCD9"/>
<path d="M35.1195 38.6413C34.3583 39.4025 34.3583 103.074 35.1195 103.835C35.8807 104.597 90.1493 104.597 90.9105 103.835C91.6717 103.074 91.6717 39.4025 90.9105 38.6413C90.1493 37.8801 35.8807 37.8801 35.1195 38.6413ZM88.7613 71.2383V101.238H63.015H37.2687V71.2383V41.2383H63.015H88.7613V71.2383Z" fill="url(#paint1_linear_779_28)"/>
<path d="M52.806 59.4629C52.4478 60.045 43.9851 82.2988 43.9851 82.6122C43.9851 82.7913 44.7015 82.8809 45.597 82.7913C47.1642 82.657 47.2538 82.5674 48.4179 79.2988L49.6269 75.9406H54.7314H59.7911L61.1344 79.3883L62.4776 82.8809H64.2687C65.7463 82.8809 65.9702 82.7465 65.7463 82.0749C65.5672 81.6719 63.4179 76.3435 60.9105 70.2092L56.3881 59.1495H54.6866C53.7463 59.1495 52.8956 59.2838 52.806 59.4629ZM56.209 66.3137C57.0597 68.6421 58 71.1047 58.2687 71.7764L58.7612 73.0301H54.7762H50.7911L52.6269 67.4779C53.6567 64.4331 54.5523 61.9704 54.597 62.0152C54.6418 62.06 55.3582 63.9853 56.209 66.3137Z" fill="#F73E94"/>
<path d="M79.3581 63.1794V67.2092L77.9253 66.3137C75.8656 65.0599 72.7761 65.1495 70.8507 66.448C68.6119 67.9256 67.6268 69.9405 67.3581 73.5226C67.179 76.1644 67.3134 76.8808 68.2984 78.9853C69.1492 80.6868 69.9999 81.6271 71.2537 82.3435C73.4477 83.5973 76.4925 83.642 78.0149 82.4331C79.3581 81.4032 79.985 81.3137 79.6268 82.2092C79.4477 82.7465 79.7611 82.8808 80.9253 82.8808H82.4925V71.0152V59.1495H80.9253H79.3581V63.1794ZM77.5223 68.7764C80.2984 71.1495 80.3432 77.3734 77.5671 79.8361C75.4626 81.7614 72.8656 81.3137 71.2984 78.7614C70.179 76.9256 70.0895 72.2689 71.0746 70.3435C72.5074 67.5226 75.2387 66.8958 77.5223 68.7764Z" fill="#F73E94"/>
<path d="M34.7613 112.656C34.5822 113.014 34.5822 113.641 34.7613 113.999C34.9852 114.582 38.3881 114.671 63.1046 114.582L91.224 114.447V113.328V112.208L63.1046 112.074C38.3881 111.984 34.9852 112.074 34.7613 112.656Z" fill="#22DCD9"/>
<path d="M35.1642 119.015C34.4478 119.283 34.403 120.582 35.1195 121.298C35.8806 122.059 90.1493 122.059 90.9105 121.298C91.6717 120.537 91.5821 119.283 90.7314 118.97C89.8806 118.656 35.9702 118.656 35.1642 119.015Z" fill="#22DCD9"/>
<path d="M35.0299 126.089C34.7613 126.448 34.5822 127.075 34.6717 127.522C34.8061 128.283 36.2837 128.328 62.9255 128.463C88.627 128.552 91.0449 128.507 91.3135 127.836C91.4479 127.433 91.4031 126.761 91.1344 126.358C90.7314 125.731 87.9105 125.642 63.1493 125.552C39.5523 125.463 35.5225 125.507 35.0299 126.089Z" fill="#22DCD9"/>
</g>
<defs>
<linearGradient id="paint0_linear_779_28" x1="115.5" y1="142" x2="10.5" y2="7.38163e-06" gradientUnits="userSpaceOnUse">
<stop stop-color="#F73E94"/>
<stop offset="1" stop-color="#22DCD9"/>
</linearGradient>
<linearGradient id="paint1_linear_779_28" x1="91" y1="104" x2="35" y2="38" gradientUnits="userSpaceOnUse">
<stop stop-color="#22DCD9"/>
<stop offset="1" stop-color="#F73E94"/>
</linearGradient>
<clipPath id="clip0_779_28">
<rect width="126" height="142" fill="white"/>
</clipPath>
</defs>
</svg>
