<svg width="150" height="152" viewBox="0 0 150 152" fill="none" xmlns="http://www.w3.org/2000/svg">
<path d="M147.726 63.9387C143.68 37.453 127.089 4.91336 94.3137 1.50797C94.3137 1.50797 69.4285 -1.51898 44.8976 3.06862C30.3385 5.79153 17.5719 13.8961 9.49378 25.5452C1.41561 37.1937 -1.2825 51.398 1.99189 64.9398C4.11858 73.7355 5.55631 82.8384 5.1617 91.8762C4.47545 107.606 4.87006 122.289 20.1353 131.669C33.7655 140.045 50.9191 147.432 67.2841 148.726C78.4054 149.606 90.8776 148.183 101.597 145.287C156.224 130.531 151.773 90.4244 147.726 63.9387Z" fill="#F4F7FA"/>
<path d="M58.9068 90.1962C67.3698 81.1358 65.8545 65.4743 60.3316 62.2124C57.4588 60.5153 54.6911 62.8749 51.958 60.7067C48.93 58.304 50.8308 54.2199 48.9494 46.3843C47.9774 42.3358 46.2151 34.994 41.4017 33.1789C36.6281 31.3789 33.6135 36.808 28.3709 35.1552C23.4135 33.5924 24.2248 28.1439 17.8329 24.4355C17.2383 24.0905 10.5014 20.2905 6.21028 23.1067C1.85071 25.9676 1.55583 34.6463 4.98009 39.4436C8.09114 43.8021 13.3569 43.676 13.579 46.5347C13.8238 49.6851 7.50893 50.8706 7.44909 54.1309C7.36338 58.8436 20.4944 59.8059 22.1095 66.9304C23.0588 71.1196 18.944 72.6652 18.9839 78.1698C19.0345 85.2743 25.9515 91.4231 31.476 94.1115C39.4814 98.008 51.5715 98.049 58.9068 90.1962Z" fill="url(#paint0_linear_771_185)"/>
<mask id="mask0_771_185" style="mask-type:luminance" maskUnits="userSpaceOnUse" x="2" y="22" width="63" height="75">
<path d="M58.9068 90.1962C67.3698 81.1358 65.8545 65.4743 60.3316 62.2124C57.4588 60.5153 54.6911 62.8749 51.958 60.7067C48.93 58.304 50.8308 54.2199 48.9494 46.3843C47.9774 42.3358 46.2151 34.994 41.4017 33.1789C36.6281 31.3789 33.6135 36.808 28.3709 35.1552C23.4135 33.5924 24.2248 28.1439 17.8329 24.4355C17.2383 24.0905 10.5014 20.2905 6.21028 23.1067C1.85071 25.9676 1.55583 34.6463 4.98009 39.4436C8.09114 43.8021 13.3569 43.676 13.579 46.5347C13.8238 49.6851 7.50893 50.8706 7.44909 54.1309C7.36338 58.8436 20.4944 59.8059 22.1095 66.9304C23.0588 71.1196 18.944 72.6652 18.9839 78.1698C19.0345 85.2743 25.9515 91.4231 31.476 94.1115C39.4814 98.008 51.5715 98.049 58.9068 90.1962Z" fill="white"/>
</mask>
<g mask="url(#mask0_771_185)">
<g opacity="0.7">
<path d="M55.1288 97.8327L55.484 97.665C49.001 83.899 42.118 71.2888 35.0263 60.1836C29.3514 51.2974 23.5309 43.3497 17.7266 36.561C7.83497 24.9917 1.32445 20.7427 1.25976 20.7012L1.04736 21.0316C1.11151 21.0731 7.58806 25.3028 17.4468 36.8376C26.5471 47.4845 40.4716 66.7093 55.1288 97.8327Z" fill="white"/>
<path d="M18.636 37.7029C18.5131 25.5239 12.8199 16.664 12.7622 16.5762L12.4333 16.7907C12.4905 16.8781 18.1212 25.6468 18.2431 37.7066L18.636 37.7029Z" fill="white"/>
<path d="M36.0755 61.7542C40.0761 49.1035 40.3262 40.6275 39.8313 35.745C39.2923 30.4264 37.8162 28.1418 37.7542 28.0469L37.4265 28.2636C37.4416 28.2862 38.9214 30.5887 39.4453 35.8285C39.9294 40.6701 39.6728 49.0771 35.7014 61.6361L36.0755 61.7542Z" fill="white"/>
<path d="M49.7094 86.1121C61.4948 66.1337 59.4771 52.6065 59.4555 52.4717L59.0673 52.5347C59.0727 52.5687 59.5854 56.0765 58.5638 62.0808C57.6641 67.3682 55.3396 75.7946 49.3708 85.9121L49.7094 86.1121Z" fill="white"/>
<path d="M29.6577 59.1097C31.0178 59.0811 32.3995 58.9781 33.7952 58.7868L33.7418 58.3975C24.6211 59.6498 16.0761 57.0752 10.5138 54.6946C4.48414 52.114 0.568776 49.2029 0.530501 49.1738L0.294922 49.4881C0.334275 49.5172 4.28683 52.4568 10.3596 55.0558C15.1165 57.0919 22.0421 59.2687 29.6577 59.1097Z" fill="white"/>
<path d="M44.9268 81.7995C45.6611 81.7839 46.405 81.7429 47.1587 81.6729L47.1225 81.2815C37.5651 82.1672 29.5193 78.4157 24.4519 75.1128C18.957 71.5311 15.6886 67.6955 15.6562 67.6572L15.356 67.9106C15.3888 67.9494 18.695 71.8292 24.2374 75.4421C28.9576 78.5192 36.2401 81.9818 44.9268 81.7995Z" fill="white"/>
</g>
</g>
<path d="M58.3337 97.3088C44.593 95.8188 34.4722 81.4921 36.7606 74.7174C37.9509 71.1935 42.0054 71.1714 42.7348 67.3509C43.5429 63.118 38.965 61.0533 34.849 53.0673C32.7224 48.9412 28.8668 41.4592 31.6097 36.4231C34.3299 31.4285 40.8275 33.8183 44.0512 28.6064C47.0992 23.6781 42.448 19.6679 45.1461 11.884C45.3973 11.16 48.3197 3.04736 53.9924 2.30181C59.7558 1.54386 66.3224 8.65761 66.9234 15.201C67.4695 21.1455 62.931 24.8727 64.8248 27.4479C66.9116 30.2862 73.1062 26.69 75.5299 29.3999C79.0329 33.3169 68.6458 43.6878 72.4679 50.8786C74.7159 55.1072 80.5531 53.3886 81.7957 59.3983C83.7989 69.0856 82.773 71.96 80.0658 78.2517C76.1428 87.3687 70.2437 98.5999 58.3337 97.3088Z" fill="url(#paint1_linear_771_185)"/>
<mask id="mask1_771_185" style="mask-type:luminance" maskUnits="userSpaceOnUse" x="30" y="2" width="53" height="96">
<path d="M58.3337 97.3088C44.593 95.8188 34.4722 81.4921 36.7606 74.7174C37.9509 71.1935 42.0054 71.1714 42.7348 67.3509C43.5429 63.118 38.965 61.0533 34.849 53.0673C32.7224 48.9412 28.8668 41.4592 31.6097 36.4231C34.3299 31.4285 40.8275 33.8183 44.0512 28.6064C47.0992 23.6781 42.448 19.6679 45.1461 11.884C45.3973 11.16 48.3197 3.04736 53.9924 2.30181C59.7558 1.54386 66.3224 8.65761 66.9234 15.201C67.4695 21.1455 62.931 24.8727 64.8248 27.4479C66.9116 30.2862 73.1062 26.69 75.5299 29.3999C79.0329 33.3169 68.6458 43.6878 72.4679 50.8786C74.7159 55.1072 80.5531 53.3886 81.7957 59.3983C83.7989 69.0856 82.773 71.96 80.0658 78.2517C76.1428 87.3687 70.2437 98.5999 58.3337 97.3088Z" fill="white"/>
</mask>
<g mask="url(#mask1_771_185)">
<g opacity="0.7">
<path d="M67.082 101.006L66.6599 101.124C62.1132 84.7813 58.7456 69.1231 56.6501 54.584C54.9736 42.95 54.1024 32.0023 54.062 22.0449C53.993 5.07616 56.3979 -3.25107 56.4221 -3.33301L56.8421 -3.20902C56.8178 -3.12708 54.4286 5.15864 54.5003 22.0745C54.5666 37.6891 56.8027 64.0573 67.082 101.006Z" fill="white"/>
<path d="M54.1261 23.6715C45.3644 13.2985 43.7229 1.67369 43.7073 1.55724L44.1412 1.49902C44.1563 1.61385 45.7854 13.1174 54.4609 23.3891L54.1261 23.6715Z" fill="white"/>
<path d="M56.9085 56.6743C44.322 48.9045 37.9408 41.9298 34.8044 37.4468C31.3877 32.5638 30.971 29.56 30.9548 29.435L31.3893 29.3789C31.3931 29.4091 31.8201 32.4301 35.1915 37.2355C38.3069 41.6754 44.6432 48.5875 57.1387 56.3013L56.9085 56.6743Z" fill="white"/>
<path d="M63.1273 87.1656C38.633 78.875 30.4901 65.9845 30.4109 65.8551L30.7839 65.626C30.8039 65.6583 32.9246 68.9936 38.1581 73.3198C42.7661 77.1295 50.8632 82.5521 63.2675 86.7505L63.1273 87.1656Z" fill="white"/>
<path d="M60.4022 49.7692C59.2329 50.7353 57.9919 51.6538 56.6733 52.5083L56.4351 52.1406C65.048 46.559 70.3887 38.1644 73.3526 32.1056C76.565 25.5374 77.752 20.2296 77.7639 20.1768L78.1919 20.2706C78.1801 20.3239 76.9817 25.683 73.7467 32.2975C71.2113 37.4813 66.9483 44.3606 60.4022 49.7692Z" fill="white"/>
<path d="M64.0266 80.0429C63.3954 80.5647 62.7371 81.0709 62.0498 81.5604L61.7959 81.2035C70.5107 74.9949 74.5733 65.9701 76.4476 59.4925C78.48 52.4682 78.4482 46.8504 78.4476 46.7943L78.8859 46.79C78.8865 46.8466 78.9188 52.5291 76.8687 59.6143C75.1226 65.6488 71.494 73.8736 64.0266 80.0429Z" fill="white"/>
</g>
</g>
<path d="M103.626 86.7627L75.1676 91.8931L61.241 14.6392L89.6997 9.50879L103.626 86.7627Z" fill="url(#paint2_linear_771_185)"/>
<path d="M88.6922 26.592L67.2264 30.4616L64.8835 17.4643L86.3493 13.5947L88.6922 26.592Z" fill="url(#paint3_linear_771_185)"/>
<path d="M91.4346 41.8039L69.9688 45.6735L67.626 32.6767L89.0917 28.8066L91.4346 41.8039Z" fill="url(#paint4_linear_771_185)"/>
<path d="M94.1768 57.0159L72.7111 60.8854L70.3677 47.8881L91.8334 44.0186L94.1768 57.0159Z" fill="url(#paint5_linear_771_185)"/>
<path d="M96.9185 72.2268L75.4527 76.0963L73.1099 63.0996L94.5756 59.2295L96.9185 72.2268Z" fill="url(#paint6_linear_771_185)"/>
<g opacity="0.3">
<path d="M89.6996 9.50879L74.5708 12.236C76.7476 14.5142 78.704 17.3692 79.7579 20.8851C81.7643 27.5756 79.0862 31.9223 78.7519 40.9799C78.4037 50.4328 80.9832 54.8581 83.0048 63.6489C84.4797 70.0624 85.6689 78.856 84.8447 90.1487L103.626 86.7632L89.6996 9.50879Z" fill="url(#paint7_linear_771_185)"/>
</g>
<path d="M97.5741 94.53L70.1709 85.2939L95.2437 10.9062L122.646 20.1429L97.5741 94.53Z" fill="url(#paint8_linear_771_185)"/>
<path d="M113.522 34.6206L92.8528 27.654L97.0711 15.1387L117.74 22.1058L113.522 34.6206Z" fill="url(#paint9_linear_771_185)"/>
<path d="M108.585 49.2675L87.916 42.301L92.1343 29.7861L112.803 36.7527L108.585 49.2675Z" fill="url(#paint10_linear_771_185)"/>
<path d="M103.648 63.9146L82.979 56.948L87.1973 44.4326L107.866 51.3992L103.648 63.9146Z" fill="url(#paint11_linear_771_185)"/>
<path d="M98.7115 78.5615L78.042 71.5949L82.2603 59.0801L102.929 66.0467L98.7115 78.5615Z" fill="url(#paint12_linear_771_185)"/>
<g opacity="0.3">
<path d="M122.646 20.1426L104.598 14.0596C106.212 18.9318 105.967 22.5819 105.306 25.1933C103.448 32.5313 97.7628 33.8563 93.9672 42.5798C90.4081 50.7598 92.407 56.4881 92.0884 63.4035C91.7849 69.983 89.338 78.6089 80.6707 88.8326L97.5742 94.5302L122.646 20.1426Z" fill="url(#paint13_linear_771_185)"/>
</g>
<path d="M91.2955 97.9741L71.7483 76.6636L129.598 23.6016L149.145 44.9126L91.2955 97.9741Z" fill="url(#paint14_linear_771_185)"/>
<path d="M134.168 53.1915L119.424 37.1177L129.157 28.1904L143.9 44.2643L134.168 53.1915Z" fill="url(#paint15_linear_771_185)"/>
<path d="M122.777 63.6397L108.033 47.5659L117.766 38.6387L132.51 54.7125L122.777 63.6397Z" fill="url(#paint16_linear_771_185)"/>
<path d="M111.386 74.088L96.6426 58.0141L106.375 49.0869L121.119 65.1608L111.386 74.088Z" fill="url(#paint17_linear_771_185)"/>
<path d="M99.9951 84.5362L85.2517 68.4624L94.9843 59.5352L109.728 75.609L99.9951 84.5362Z" fill="url(#paint18_linear_771_185)"/>
<g opacity="0.3">
<path d="M149.145 44.9124L136.6 31.2354C136.117 38.3054 133.754 42.3017 131.57 44.6925C126.467 50.2823 120.83 48.7647 113.363 54.6601C106.362 60.1885 105.418 66.1814 101.87 72.1265C98.7246 77.3965 93.0976 83.3534 82.2561 88.1194L91.2949 97.9739L149.145 44.9124Z" fill="url(#paint19_linear_771_185)"/>
</g>
<path d="M85.9514 86.3305C87.6496 86.3305 89.0263 84.9538 89.0263 83.2556C89.0263 81.5574 87.6496 80.1807 85.9514 80.1807C84.2532 80.1807 82.8765 81.5574 82.8765 83.2556C82.8765 84.9538 84.2532 86.3305 85.9514 86.3305Z" fill="url(#paint20_linear_771_185)"/>
<path d="M96.0366 144.098C94.062 143.443 92.586 141.767 92.1698 139.707L89.2954 125.481L64.7083 126.355L61.6824 141.175C61.2587 143.25 62.9552 145.333 64.9089 146.097L75.1957 150.122C77.1089 150.871 79.1655 151.169 81.2097 150.994L102.949 149.134C103.585 149.079 104.094 148.58 104.169 147.939C104.243 147.298 104.688 146.578 104.082 146.377L96.0366 144.098Z" fill="#97A6B7"/>
<path d="M96.2798 143.233C94.3068 142.586 92.8324 140.931 92.4167 138.897L89.5456 124.851L65.5574 125.714L62.5343 140.347C62.1111 142.397 63.2313 144.452 65.1828 145.206L75.4593 149.181C77.3709 149.92 79.4254 150.214 81.4674 150.041L103.185 148.205C103.82 148.151 104.329 147.658 104.403 147.025C104.477 146.392 104.095 145.795 103.49 145.596L96.2798 143.233Z" fill="url(#paint21_linear_771_185)"/>
<path d="M14.4673 134.937C11.801 135.096 9.61987 133.366 9.61987 131.08V48.6912C9.61987 46.4055 11.801 44.64 14.4673 44.7553L137.774 50.0982C139.731 50.1828 141.317 51.8335 141.317 53.7774V123.849C141.317 125.793 139.732 127.47 137.774 127.586L14.4673 134.937Z" fill="url(#paint22_linear_771_185)"/>
<path d="M15.5757 134.937C12.9094 135.096 10.7283 133.366 10.7283 131.08V48.6912C10.7283 46.4055 12.9094 44.64 15.5757 44.7553L138.882 50.0982C140.84 50.1828 142.425 51.8335 142.425 53.7774V123.849C142.425 125.793 140.84 127.47 138.882 127.586L15.5757 134.937Z" fill="url(#paint23_linear_771_185)"/>
<path opacity="0.3" d="M138.882 51.7473L15.5756 46.6745C14.1502 46.6157 12.9912 47.5575 12.9912 48.7785V112.856V130.956C12.9912 132.176 14.1502 133.099 15.5756 133.018L138.882 125.937C139.931 125.877 140.78 124.982 140.78 123.939V107.921V53.7138C140.78 52.6707 139.931 51.7904 138.882 51.7473Z" fill="#D8DEE8"/>
<path d="M139.496 53.6693V119.147C139.496 119.554 139.228 119.902 138.819 119.923L15.5261 126.019C14.9708 126.046 14.5342 125.681 14.5342 125.208V48.8386C14.5342 48.3653 15.0032 47.9954 15.5579 48.0175L138.81 52.9006C139.219 52.9178 139.496 53.2617 139.496 53.6693Z" fill="#D8DEE8"/>
<path opacity="0.7" d="M139.611 53.748L139.68 64.7712L14.5342 62.3523V48.8353C14.5342 48.3636 14.9951 47.9954 15.5407 48.0175L138.87 52.9679C139.286 52.9857 139.609 53.3351 139.611 53.748Z" fill="white"/>
<g opacity="0.5">
<path d="M94.7611 96.0139L21.8888 97.2528L21.8586 67.7002L94.4694 68.7088L94.7611 96.0139Z" fill="white"/>
<path d="M134.587 95.3369L98.9426 95.9429L98.637 68.7666L134.17 69.2599L134.587 95.3369Z" fill="white"/>
<path d="M134.897 114.809L21.9119 119.339L21.8931 101.129L134.641 98.7549L134.897 114.809Z" fill="white"/>
</g>
<path d="M67.3456 92.365C67.6388 93.3089 67.172 94.221 66.3278 94.483L6.98545 112.918C6.14125 113.18 5.2399 112.693 4.94664 111.749L0.168199 96.3666C-0.125063 95.4226 0.321299 94.4447 1.1655 94.1827L60.5084 75.7477C61.3526 75.4857 62.2744 76.0383 62.5677 76.9822L67.3456 92.365Z" fill="url(#paint24_linear_771_185)"/>
<path d="M64.2705 76.4534L69.0495 91.8362C69.3422 92.779 68.8754 93.6917 68.0317 93.9537L8.68887 112.389C7.8452 112.651 6.94332 112.163 6.65005 111.221L1.87108 95.8378C1.57782 94.8933 2.02418 93.916 2.86839 93.6534L62.2107 75.2184C63.0549 74.9564 63.9767 75.509 64.2705 76.4534Z" fill="url(#paint25_linear_771_185)"/>
<path opacity="0.2" d="M67.6743 87.4107L69.049 91.8361C69.3417 92.7789 68.8748 93.6916 68.0312 93.9536L8.68887 112.389C7.8452 112.651 6.94332 112.163 6.65005 111.22L1.87108 95.8377C1.57782 94.8932 2.02418 93.9158 2.86839 93.6533L10.4554 91.2964C12.4312 91.1902 14.456 91.4954 16.2226 92.5746C22.1951 96.2237 22.6846 101.08 38.1067 95.525C49.3417 91.4776 61.1708 87.1611 67.6743 87.4107Z" fill="url(#paint26_linear_771_185)"/>
<path d="M22.0846 148.309C22.2204 148.193 22.3735 148.234 23.0598 148.354C23.9034 148.5 24.0792 148.509 24.36 148.676C24.429 148.717 24.8916 148.994 24.8398 149.159C24.8005 149.286 24.4932 149.255 23.3692 149.227C22.3746 149.202 22.118 149.212 21.987 149.01C21.8544 148.804 21.9056 148.462 22.0846 148.309Z" fill="#26264F"/>
<path d="M22.2312 147.598L22.3778 148.563C22.5633 148.662 22.7433 148.669 22.9164 148.563L22.904 147.718L22.2312 147.598Z" fill="url(#paint27_linear_771_185)"/>
<path d="M21.2037 111.979C21.1412 113.349 21.1422 115.426 21.5465 117.9C22.3099 122.57 23.615 123.175 23.8673 126.751C24.0802 129.769 23.3627 132.345 22.512 135.401C21.6172 138.615 20.911 139.548 20.8118 141.879C20.7029 144.45 21.4242 146.575 22.035 147.948C22.3773 147.964 22.7201 147.98 23.0624 147.997C23.4781 146.176 24.2554 143.467 25.8032 140.46C27.4738 137.214 29.1961 135.263 29.8161 134.441C32.0177 131.525 33.3282 125.63 28.8371 112.419C26.2932 112.272 23.7482 112.125 21.2037 111.979Z" fill="url(#paint28_linear_771_185)"/>
<path d="M37.7805 147.743L38.1363 149.252C38.1363 149.252 38.3676 149.465 38.7735 149.252V147.816L37.7805 147.743Z" fill="url(#paint29_linear_771_185)"/>
<path d="M37.9525 149.187C38.0883 149.071 38.2414 149.112 38.9277 149.231C39.7713 149.378 39.9471 149.387 40.2279 149.554C40.2969 149.595 40.7595 149.872 40.7077 150.037C40.6684 150.164 40.3611 150.133 39.2371 150.105C38.2425 150.079 37.9859 150.09 37.8549 149.888C37.7223 149.682 37.7735 149.34 37.9525 149.187Z" fill="#26264F"/>
<path opacity="0.3" d="M28.8382 112.419C26.2932 112.272 23.7487 112.125 21.2037 111.979C21.1412 113.349 21.1422 115.426 21.5466 117.9C21.7902 119.39 22.0889 120.465 22.3913 121.356C22.5908 121.559 22.8015 121.755 23.0393 121.937C25.0226 123.456 26.7094 122.838 27.5169 124.212C28.3142 125.569 26.9174 126.588 27.0765 130.085C27.1778 132.316 27.7643 132.305 27.5169 133.535C26.9999 136.106 24.4614 136.048 23.4059 138.894C22.7422 140.685 23.5347 141.281 22.8188 143.298C22.4474 144.345 21.8759 145.185 21.2851 145.853C21.5099 146.665 21.7811 147.375 22.036 147.947C22.3784 147.963 22.7212 147.98 23.0635 147.996C23.4792 146.176 24.2565 143.467 25.8042 140.46C27.4749 137.213 29.1972 135.262 29.8172 134.441C32.0182 131.525 33.3293 125.63 28.8382 112.419Z" fill="url(#paint30_linear_771_185)"/>
<path d="M25.1678 111.293C24.4669 112.758 24.3397 113.945 24.3365 114.712C24.3192 118.871 27.9058 122.655 33.2071 128.122C34.5133 129.469 35.1467 130.045 35.6271 131.246C36.62 133.728 35.6147 135.561 35.4448 139.334C35.2864 142.864 35.6378 144.387 35.9586 145.427C36.3764 146.779 36.9349 147.825 37.3532 148.51C37.9403 148.534 38.5279 148.559 39.1149 148.584C40.5101 146.368 42.5936 142.349 42.882 137.057C43.1225 132.647 42.0076 129.347 40.5721 125.098C39.5483 122.069 37.8421 117.897 34.9306 113.275C31.6766 112.614 28.4222 111.954 25.1678 111.293Z" fill="url(#paint31_linear_771_185)"/>
<path d="M14.7429 108.745V109.244L15.5839 109.431C15.6955 109.456 15.8044 109.492 15.909 109.537L16.2701 109.693C16.9866 110.003 17.813 109.919 18.4513 109.469L14.7429 108.745Z" fill="url(#paint32_linear_771_185)"/>
<path d="M58.31 93.6492C58.2405 93.3225 57.9623 93.667 57.7973 93.5409C57.4556 93.2794 56.8637 94.2077 56.4761 94.5657C56.054 94.9554 56.1499 95.3948 55.889 96.2088C55.7477 96.6492 55.4825 97.26 54.9348 97.9339L55.889 98.9614L57.006 97.2708C57.2205 97.0864 57.531 96.7657 57.7402 96.2832C57.8205 96.0983 57.8707 95.9236 57.903 95.7705L58.1548 95.0142C58.2486 94.446 58.3758 93.9581 58.31 93.6492Z" fill="url(#paint33_linear_771_185)"/>
<path d="M15.0883 108.201C15.0468 108.742 15.0058 109.283 14.9643 109.825C14.3595 109.906 10.5923 110.354 7.84356 107.769C4.49585 104.621 5.5848 99.7266 5.78803 98.8134C7.20905 92.4284 14.0144 89.9503 14.8026 89.6775C17.6446 88.6931 19.9756 88.919 24.36 89.3438C27.6182 89.6597 30.8743 89.9756 34.4182 91.5082C42.1503 94.8527 43.167 100.337 48.0716 100.453C49.7514 100.493 52.2441 99.9082 55.3508 96.6991C55.8177 97.0171 56.2851 97.3346 56.7519 97.6527C56.5244 98.6382 55.2861 103.551 50.7864 106.007C45.8382 108.708 38.9562 107.342 34.3384 102.301C33.9746 106.408 34.7411 109.318 35.5913 111.293C36.2651 112.858 36.932 113.696 36.5454 114.596C35.8479 116.219 32.5185 116.184 28.1034 116.138C23.7611 116.092 21.5665 116.044 20.4171 114.779C19.2468 113.491 19.856 112.322 19.2107 107.612C18.6581 103.577 18.2506 100.601 16.7153 100.14C15.3045 99.7163 12.7368 101.356 12.4694 103.862C12.277 105.671 13.3336 107.45 15.0883 108.201Z" fill="url(#paint34_linear_771_185)"/>
<path d="M15.0883 108.201C15.0468 108.742 15.0058 109.283 14.9643 109.825C14.3595 109.906 10.5923 110.354 7.84356 107.769C4.49585 104.621 5.5848 99.7266 5.78803 98.8134C7.20905 92.4284 14.0144 89.9503 14.8026 89.6775C17.6446 88.6931 19.9756 88.919 24.36 89.3438C27.6182 89.6597 30.8743 89.9756 34.4182 91.5082C42.1503 94.8527 43.167 100.337 48.0716 100.453C49.7514 100.493 52.2441 99.9082 55.3508 96.6991C55.8177 97.0171 56.2851 97.3346 56.7519 97.6527C56.5244 98.6382 55.2861 103.551 50.7864 106.007C45.8382 108.708 38.9562 107.342 34.3384 102.301C33.9746 106.408 34.7411 109.318 35.5913 111.293C36.2651 112.858 36.932 113.696 36.5454 114.596C35.8479 116.219 32.5185 116.184 28.1034 116.138C23.7611 116.092 21.5665 116.044 20.4171 114.779C19.0419 113.266 20.0991 111.816 19.2107 107.612C19.071 106.95 17.6635 100.511 15.3239 100.383C14.0684 100.314 12.6624 102.069 12.4689 103.862C12.2737 105.68 13.3325 107.459 15.0883 108.201Z" fill="url(#paint35_linear_771_185)"/>
<path d="M20.3596 86.1152C20.5682 88.2009 20.1828 88.9406 19.7327 89.1918C19.1192 89.5346 17.7537 89.3233 17.1068 89.7853C17.0761 89.8069 17.0211 89.8468 17.0243 89.8985C17.0367 90.1152 18.1364 90.2452 19.5893 90.5929C21.2777 90.9966 24.5602 90.85 25.2313 90.5929C25.2782 90.5745 25.3726 90.5352 25.379 90.471C25.4054 90.2117 23.9257 90.3136 23.0577 89.4365C22.4081 88.7805 22.6529 88.1336 21.7165 87.0689C21.4971 86.8193 21.2912 86.636 21.1488 86.5185C20.8858 86.3842 20.6227 86.2495 20.3596 86.1152Z" fill="url(#paint36_linear_771_185)"/>
<path d="M21.8378 88.0263C21.9931 87.9411 23.2562 87.7875 23.4298 87.1082C23.6659 86.1864 22.8378 85.0646 22.7343 84.884C22.302 84.1282 22.1936 84.0263 21.9926 83.898L21.7139 83.7346C21.7139 83.7346 21.6977 83.7287 21.681 83.7228C21.5031 83.664 20.9009 83.6592 20.7796 83.6883C20.392 83.7805 20.013 85.3762 20.1823 87.616C20.1683 87.7018 20.1543 87.7886 20.1413 87.8753C20.1079 88.1023 21.8497 88.1061 21.8378 88.0263Z" fill="url(#paint37_linear_771_185)"/>
<path d="M23.026 83.592C22.8804 84.0146 22.3036 84.4518 22.0459 84.6465C22.0082 84.675 21.8993 84.7715 21.8006 84.9268C21.7861 84.9494 21.7737 84.9758 21.7629 85.0098C21.6206 85.4513 22.3284 85.9505 22.1985 86.15C22.1041 86.2944 21.6265 86.1149 21.5731 86.2389C21.523 86.3559 21.9214 86.5861 21.8643 86.7257C21.8211 86.8314 21.5769 86.7413 21.4281 86.9047C21.3537 86.9861 21.3775 87.0486 21.3025 87.2944C21.2599 87.4335 21.1996 87.5855 21.1521 87.6707C20.9214 88.0842 20.2443 88.2486 20.1101 88.088C20.0729 88.0432 20.1031 88.0044 20.0626 87.8524C20.0626 87.8524 20.0249 87.7117 19.923 87.5505C19.7769 87.3198 19.4335 87.1602 19.0853 86.9214C18.4405 86.4788 18.2589 86.0934 18.2044 85.9629C18.1985 85.9483 18.1931 85.9349 18.1882 85.9225C18.1791 85.9004 18.171 85.8783 18.164 85.8562C18.0184 85.3845 18.3915 84.8761 18.5926 84.6394C18.8804 84.3036 19.3651 83.8049 20.075 83.3607C20.268 83.24 22.1473 82.0799 22.8362 82.6535C23.0815 82.8583 23.1246 83.3047 23.026 83.592Z" fill="#26264F"/>
<path d="M21.9445 85.9928C21.7688 85.7626 21.4744 85.989 21.4798 86.292C21.4852 86.5949 21.7855 86.9028 22.0685 86.8365C22.352 86.7707 22.1806 86.3028 21.9445 85.9928Z" fill="url(#paint38_linear_771_185)"/>
<path opacity="0.3" d="M35.4447 114.303C34.4555 114.775 33.0792 114.748 32.2884 114.01C31.0587 112.863 32.3202 110.742 31.0404 109.899C29.8711 109.128 28.7326 110.144 27.6636 109.458C25.8232 108.276 27.9229 104.444 25.9752 102.264C24.3703 100.468 22.0361 102.054 20.1024 100.208C17.9348 98.139 19.6463 94.9772 17.6798 93.602C16.0356 92.4522 13.0636 93.422 11.2932 94.7034C8.31642 96.8575 8.12289 100.335 6.74176 100.282C6.43556 100.27 6.06629 100.082 5.65551 99.4759C5.35847 101.154 4.99351 105.09 7.84311 107.77C10.5914 110.354 14.359 109.907 14.9639 109.825C15.0054 109.284 15.0463 108.743 15.0879 108.201C13.3326 107.459 12.2738 105.681 12.4695 103.862C12.6631 102.069 14.0684 100.314 15.3245 100.383C17.6641 100.512 19.0717 106.951 19.2113 107.612C20.0992 111.816 19.0426 113.267 20.4178 114.779C21.5671 116.044 23.7617 116.093 28.104 116.138C32.5186 116.185 35.8485 116.22 36.5461 114.597C36.7121 114.21 36.6765 113.831 36.5364 113.404C36.2436 113.783 35.8781 114.097 35.4447 114.303Z" fill="url(#paint39_linear_771_185)"/>
<path d="M128.733 84.9506C128.733 86.3598 127.695 87.6148 126.533 87.6148H86.1941C85.0318 87.6148 84.0593 86.3598 84.0593 84.9506V60.2892C84.0593 58.88 85.0318 57.832 86.1941 57.832H126.533C127.695 57.832 128.733 58.8806 128.733 60.2892V84.9506Z" fill="url(#paint40_linear_771_185)"/>
<path d="M129.85 60.2903V84.9517C129.85 85.8973 129.433 86.7765 128.804 87.2326C128.495 87.4568 128.143 87.6153 127.761 87.6153H87.4216C86.2588 87.6153 85.1758 86.3603 85.1758 84.9517V60.2903C85.1758 58.88 86.2588 57.832 87.4216 57.832H127.761C128.923 57.832 129.85 58.88 129.85 60.2903Z" fill="url(#paint41_linear_771_185)"/>
<path d="M123.492 82.9928L115.67 71.9787C115.591 71.8677 115.458 71.8014 115.315 71.8014C115.172 71.8014 115.038 71.8682 114.96 71.9787L110.461 78.3103L103.094 67.9361C103.016 67.8251 102.882 67.7588 102.739 67.7588C102.596 67.7588 102.463 67.8256 102.384 67.9361L91.6895 82.9928C91.6033 83.114 91.5957 83.32 91.6701 83.4477C91.7445 83.5755 91.8884 83.706 92.0448 83.706H106.7H114.222H123.136C123.292 83.706 123.436 83.576 123.511 83.4477C123.585 83.32 123.578 83.114 123.492 82.9928Z" fill="white"/>
<path d="M114.37 68.436C116.231 68.436 117.74 66.9271 117.74 65.0657C117.74 63.2043 116.231 61.6953 114.37 61.6953C112.508 61.6953 111 63.2043 111 65.0657C111 66.9271 112.508 68.436 114.37 68.436Z" fill="white"/>
<g opacity="0.2">
<path d="M128.811 87.2316C128.502 87.4559 128.143 87.6143 127.761 87.6143H87.4216C86.2588 87.6143 85.1758 86.3594 85.1758 84.9507V60.2893C85.1758 58.879 86.2588 57.8311 87.4216 57.8311H87.8286C88.5796 59.134 89.5089 60.8936 90.6631 62.4532C101.244 76.7437 117.971 72.6208 127.635 85.5556C128.071 86.1405 128.46 86.6914 128.811 87.2316Z" fill="url(#paint42_linear_771_185)"/>
</g>
<path d="M128.736 82.6432V80.1936C128.736 80.1936 128.384 79.6707 128.199 78.3758C128.014 77.0809 128.35 77.5947 128.515 78.1332C128.561 78.2836 128.656 78.4108 128.77 78.5165C129.055 78.7823 129.524 78.6081 129.579 78.2227L129.811 76.6006C129.811 76.6006 130.751 77.5623 130.07 79.9682C129.858 80.7213 130.07 82.5386 130.07 82.5386L128.736 82.6432Z" fill="url(#paint43_linear_771_185)"/>
<path d="M85.8361 84.5927L85.2189 82.2078C85.2189 82.2078 85.8124 81.2924 85.5272 80.3582C85.2426 79.424 85.4135 79.7566 85.1838 80.3582C84.9542 80.9598 84.5008 79.9409 84.1466 79.0132C83.7924 78.0854 83.6108 79.5118 83.697 80.3582C83.7833 81.2046 83.8151 81.7086 84.3207 82.3259C84.8264 82.9436 84.7251 85.1399 84.7251 85.1399L85.8361 84.5927Z" fill="url(#paint44_linear_771_185)"/>
<path d="M120.858 150.255C120.878 149.729 122.145 149.835 122.974 149.915C123.804 149.995 124.169 150.327 124.299 150.639C124.429 150.95 124.332 151.718 123.565 151.396C122.936 151.132 120.841 150.72 120.858 150.255Z" fill="#26264F"/>
<path d="M122.384 148.218L122.975 150.254C122.975 150.254 123.565 150.66 123.759 150.458L123.54 148.111L122.384 148.218Z" fill="url(#paint45_linear_771_185)"/>
<path d="M118.214 147.014L120.169 147.866L119.84 148.855L117.883 148.346L118.214 147.014Z" fill="url(#paint46_linear_771_185)"/>
<path d="M118.102 150.853C118.102 150.853 119.405 151.19 119.981 150.42C120.352 149.925 120.66 149.084 120.833 148.547C120.927 148.255 120.779 147.942 120.495 147.828C120.081 147.663 119.52 147.486 119.28 147.621C118.879 147.846 119.254 149.345 119.079 149.735C118.904 150.126 118.052 150.377 118.102 150.853Z" fill="#26264F"/>
<path d="M115.065 116.541C115.359 121.264 116.01 126.735 117.305 132.732C118.654 138.983 120.408 144.432 122.168 148.987C122.338 149.068 122.64 149.186 123.035 149.197C123.495 149.211 123.848 149.071 124.024 148.987C124.344 146.552 124.509 144.497 124.6 142.971C124.842 138.941 124.951 136.876 124.403 134.478C123.888 132.228 123.474 132.404 122.936 129.916C122.458 127.704 122.448 126.003 122.447 123.511C122.446 121.801 122.525 119.49 122.855 116.749C120.258 116.68 117.661 116.611 115.065 116.541Z" fill="url(#paint47_linear_771_185)"/>
<path opacity="0.3" d="M122.424 147.323C121.907 145.656 122.927 144.894 122.808 142.779C122.663 140.195 121.071 140.118 120.568 137.212C120.164 134.876 121.148 134.675 120.888 131.836C120.612 128.819 119.424 128.207 119.673 126.397C119.811 125.39 120.398 124.016 122.457 122.521C122.485 120.946 122.585 118.995 122.855 116.749C120.259 116.68 117.662 116.611 115.065 116.541C115.36 121.264 116.01 126.735 117.305 132.732C118.655 138.983 120.409 144.432 122.169 148.987C122.339 149.068 122.641 149.186 123.035 149.197C123.244 149.203 123.427 149.176 123.585 149.138C123.093 148.662 122.655 148.067 122.424 147.323Z" fill="url(#paint48_linear_771_185)"/>
<path d="M108.729 115.709C108.635 116.847 108.45 118.57 108.051 120.64C107.153 125.306 106.122 126.801 105.85 129.852C105.533 133.41 106.504 136.211 106.873 137.276C109.396 144.547 116.322 147.932 118.155 148.76C118.362 148.089 118.569 147.418 118.776 146.747C118.315 146.13 117.632 145.138 116.988 143.822C115.889 141.577 115.815 140.254 115.065 138.043C113.712 134.055 112.683 134.619 112.436 132.588C112.045 129.369 114.642 128.07 116.984 121.917C117.656 120.153 118.048 118.669 118.264 117.757C115.086 117.074 111.908 116.391 108.729 115.709Z" fill="url(#paint49_linear_771_185)"/>
<path d="M128.311 81.664C128.973 81.5572 129.634 81.4505 130.295 81.3438C131.125 82.5114 133.518 86.203 133.047 91.1351C132.936 92.3039 132.453 96.1826 129.175 99.2677C126.827 101.477 124.217 102.171 123.021 102.411C123.019 108.155 123.128 111.777 123.325 113.945C123.349 114.206 123.553 116.4 123.256 119.228C123.165 120.09 123.118 120.527 123 120.764C121.363 124.067 111.982 121.449 109.447 120.355C108.789 120.07 108.119 119.674 107.833 118.972C107.465 118.072 107.818 117.255 107.961 116.541C108.312 114.787 107.27 113.463 105.179 110.061C104.295 108.622 103.011 106.462 101.512 103.659C99.7767 104.165 95.6867 105.072 91.6829 103.162C85.7999 100.356 82.4425 92.5826 84.1541 84.1588C84.7514 83.988 85.3487 83.8176 85.946 83.6467C86.3411 85.2812 87.1034 87.4823 88.6646 89.7022C89.6117 91.0489 90.401 92.1707 91.7692 92.7977C93.9179 93.7826 95.8268 92.7826 98.6166 92.0936C103.013 91.0084 106.689 91.4133 111.154 91.9055C116.032 92.4429 117.369 93.4451 120.936 92.7712C122.523 92.4715 124.509 92.0704 126.135 90.4936C129.334 87.3934 128.444 82.3556 128.311 81.664Z" fill="url(#paint50_linear_771_185)"/>
<path d="M110.085 88.083C110.085 88.083 109.792 89.2539 110.205 89.779C110.617 90.3035 111.993 92.3148 112.441 92.4135C112.696 92.4695 113.335 92.566 113.839 92.6393C114.103 92.6776 114.16 93.042 113.914 93.1488C113.414 93.366 112.532 93.5844 111.017 93.5682C108.827 93.5445 107.066 92.711 106.298 92.2798C106.189 92.2183 106.24 92.0528 106.365 92.0625L107.35 92.1364C108.195 92.2 108.888 91.4803 108.794 90.6393L108.733 90.0916L110.085 88.083Z" fill="url(#paint51_linear_771_185)"/>
<path d="M109.181 90.4403C109.046 90.3659 107.945 90.2322 107.793 89.6403C107.587 88.8365 108.31 87.8587 108.399 87.7012C108.776 87.0425 108.87 86.9535 109.046 86.8414L109.289 86.6991C109.289 86.6991 109.303 86.6937 109.317 86.6888C109.473 86.6376 109.998 86.6333 110.103 86.6586C110.441 86.739 110.771 88.1298 110.624 90.0829C110.636 90.1578 110.648 90.2333 110.66 90.3093C110.69 90.5066 109.171 90.5099 109.181 90.4403Z" fill="url(#paint52_linear_771_185)"/>
<path d="M108.146 86.5742C108.098 86.813 108.73 87.2885 109.001 87.4933C109.033 87.5181 109.128 87.6022 109.215 87.7381C109.227 87.758 109.238 87.7807 109.247 87.8103C109.371 88.1952 108.754 88.6308 108.868 88.8044C108.95 88.9305 109.367 88.7737 109.413 88.882C109.457 88.9839 109.109 89.185 109.159 89.3068C109.197 89.399 109.41 89.3203 109.54 89.4632C109.604 89.5338 109.584 89.5888 109.649 89.8028C109.686 89.9235 109.739 90.0567 109.78 90.1306C109.982 90.4907 110.571 90.6341 110.688 90.4944C110.721 90.4556 110.694 90.4217 110.73 90.289C110.73 90.289 110.763 90.1661 110.852 90.0254C110.979 89.8243 111.278 89.6853 111.582 89.4766C112.144 89.0907 112.302 88.7548 112.35 88.6411C112.355 88.6281 112.36 88.6168 112.364 88.606C112.372 88.5866 112.379 88.5672 112.385 88.5483C112.504 88.1607 112.011 87.4874 112.011 87.4874C111.616 86.9559 111.118 86.5996 110.719 86.3726C109.989 86.2292 109.396 86.247 108.984 86.2928C108.65 86.33 108.184 86.385 108.146 86.5742Z" fill="#26264F"/>
<path d="M107.919 88.5843C107.919 88.5843 108.385 89.1439 109.001 88.4717L109.305 88.5612C109.305 88.5612 108.562 90.1967 108.403 90.1967C108.244 90.1967 107.779 90.0911 107.779 90.0911C107.605 90.0183 107.507 89.8318 107.548 89.6474C107.62 89.3116 107.811 88.8215 107.919 88.5843Z" fill="#26264F"/>
<path d="M109.149 88.6671C109.302 88.4666 109.558 88.6639 109.554 88.9281C109.55 89.1922 109.288 89.4607 109.041 89.403C108.793 89.3453 108.943 88.9372 109.149 88.6671Z" fill="url(#paint53_linear_771_185)"/>
<path opacity="0.3" d="M120.504 119.804C117.326 120.925 113.622 119.287 112.697 117.052C112.013 115.401 113.474 113.826 112.44 112.125C111.445 110.487 109.649 111.221 108.409 109.565C107.058 107.76 108.647 106.162 107.449 103.741C106.547 101.921 104.387 100.282 102.265 100.286C99.7424 100.29 98.8006 102.612 96.6329 102.142C95.5008 101.896 95.5273 101.213 93.945 100.094C91.1995 98.1527 89.3585 98.9657 87.0976 97.598C86.4335 97.1959 85.6917 96.5797 85.0022 95.5889C86.3526 99.0191 88.6895 101.734 91.6831 103.162C95.6868 105.072 99.7769 104.165 101.512 103.658C103.011 106.462 104.295 108.622 105.179 110.061C107.27 113.463 108.312 114.787 107.961 116.54C107.817 117.255 107.465 118.071 107.833 118.972C108.119 119.673 108.789 120.069 109.447 120.354C111.982 121.449 121.363 124.066 123 120.764C123.118 120.526 123.166 120.09 123.256 119.228C123.313 118.691 123.35 118.178 123.376 117.695C122.721 118.534 121.798 119.348 120.504 119.804Z" fill="url(#paint54_linear_771_185)"/>
<path d="M84.3783 136.478C84.3783 128.831 77.325 122.862 68.9233 123.135C64.139 123.291 59.9762 125.448 57.3772 128.631C57.3767 128.63 57.3767 128.63 57.3762 128.629C57.36 128.649 57.3449 128.669 57.3287 128.689C57.284 128.745 57.2403 128.802 57.1961 128.858C57.1158 128.961 57.0365 129.064 56.9595 129.169C56.9142 129.231 56.8689 129.293 56.8247 129.356C56.7503 129.461 56.678 129.566 56.6074 129.672C56.567 129.733 56.526 129.794 56.4861 129.856C56.4069 129.979 56.3309 130.103 56.256 130.229C56.229 130.274 56.2004 130.319 56.174 130.365C56.0754 130.534 55.9805 130.707 55.8899 130.881C55.8657 130.927 55.8441 130.974 55.8204 131.02C55.7546 131.151 55.6899 131.282 55.6285 131.415C55.5983 131.48 55.5697 131.546 55.5411 131.611C55.4894 131.729 55.4387 131.847 55.3907 131.966C55.3627 132.035 55.3352 132.104 55.3082 132.174C55.2613 132.296 55.2166 132.419 55.174 132.543C55.1514 132.608 55.1282 132.672 55.1066 132.737C55.0554 132.893 55.0074 133.05 54.9627 133.208C54.9535 133.241 54.9422 133.273 54.9336 133.306C54.8807 133.497 54.8333 133.69 54.7902 133.883C54.7772 133.94 54.767 133.998 54.7551 134.055C54.726 134.194 54.6985 134.333 54.6743 134.474C54.6619 134.546 54.6511 134.617 54.6403 134.689C54.6204 134.819 54.6026 134.95 54.5869 135.081C54.5783 135.154 54.5697 135.228 54.5621 135.302C54.5481 135.44 54.5374 135.579 54.5282 135.718C54.5239 135.783 54.5185 135.848 54.5152 135.913C54.505 136.117 54.4985 136.321 54.4985 136.527C54.4985 141.435 57.4705 145.763 61.926 148.081C62.3357 148.293 62.7584 148.49 63.1923 148.668C63.4096 148.758 63.6301 148.842 63.8533 148.923C65.4214 149.486 67.1287 149.82 68.9239 149.872C69.1713 149.879 69.4171 149.881 69.6624 149.877C69.7449 149.876 69.8268 149.871 69.9093 149.869C70.071 149.864 70.2333 149.86 70.394 149.85C70.4921 149.844 70.5896 149.836 70.6872 149.828C70.8306 149.817 70.9745 149.807 71.1169 149.792C71.2214 149.781 71.325 149.768 71.4285 149.755C71.5632 149.739 71.698 149.723 71.8317 149.703C71.9384 149.688 72.0446 149.67 72.1503 149.653C72.2797 149.631 72.4085 149.609 72.5368 149.584C72.6441 149.564 72.7508 149.542 72.8576 149.519C72.9832 149.493 73.1082 149.465 73.2322 149.435C73.339 149.41 73.4452 149.384 73.5508 149.357C73.6737 149.325 73.7956 149.292 73.9174 149.257C74.022 149.228 74.1266 149.198 74.2306 149.166C74.2689 149.154 74.3082 149.145 74.3465 149.133C74.3454 149.132 74.3449 149.131 74.3438 149.13C80.1573 147.309 84.3783 142.374 84.3783 136.478Z" fill="url(#paint55_linear_771_185)"/>
<path d="M83.2243 136.48C83.2243 144.107 76.2065 150.085 67.8474 149.841C59.7995 149.606 53.4922 143.649 53.4922 136.529C53.4922 129.408 59.7995 123.431 67.8474 123.169C76.2065 122.898 83.2243 128.853 83.2243 136.48Z" fill="url(#paint56_linear_771_185)"/>
<path d="M64.0756 140.175L58.1079 137.138V136.16L64.0756 132.704V134.369L59.9467 136.574L64.0756 138.517V140.175Z" fill="white"/>
<path d="M70.4239 131.355L67.0298 141.613L65.3247 141.595L68.6918 131.379L70.4239 131.355Z" fill="white"/>
<path d="M71.6858 138.539L76.047 136.549L71.6858 134.317V132.623L78.0464 136.109V137.133L71.6858 140.226V138.539Z" fill="white"/>
<g opacity="0.3">
<path d="M71.4825 146.521C69.6685 142.528 71.5024 138.838 69.0534 136.276C66.593 133.703 63.4377 136.108 60.0933 134.05C58.814 133.262 57.4011 131.756 56.3569 128.648C54.5553 130.86 53.4922 133.587 53.4922 136.528C53.4922 143.648 59.7995 149.605 67.8474 149.84C69.7342 149.895 71.5547 149.632 73.2442 149.102C72.4092 148.232 71.8582 147.348 71.4825 146.521Z" fill="url(#paint57_linear_771_185)"/>
</g>
<defs>
<linearGradient id="paint0_linear_771_185" x1="38.4924" y1="51.7438" x2="137.681" y2="-31.4142" gradientUnits="userSpaceOnUse">
<stop offset="0.00359712" stop-color="#E38DDD"/>
<stop offset="1" stop-color="#9571F6"/>
</linearGradient>
<linearGradient id="paint1_linear_771_185" x1="30.6596" y1="49.828" x2="82.845" y2="49.828" gradientUnits="userSpaceOnUse">
<stop stop-color="#FF9085"/>
<stop offset="1" stop-color="#FB6FBB"/>
</linearGradient>
<linearGradient id="paint2_linear_771_185" x1="72.8243" y1="43.7557" x2="95.4642" y2="60.1185" gradientUnits="userSpaceOnUse">
<stop offset="0.00359712" stop-color="white"/>
<stop offset="1" stop-color="#F4F7FA"/>
</linearGradient>
<linearGradient id="paint3_linear_771_185" x1="71.3269" y1="8.14408" x2="95.1676" y2="68.7574" gradientUnits="userSpaceOnUse">
<stop stop-color="#FFC444"/>
<stop offset="0.9964" stop-color="#F36F56"/>
</linearGradient>
<linearGradient id="paint4_linear_771_185" x1="66.5785" y1="4.31163" x2="90.4192" y2="64.925" gradientUnits="userSpaceOnUse">
<stop stop-color="#FFC444"/>
<stop offset="0.9964" stop-color="#F36F56"/>
</linearGradient>
<linearGradient id="paint5_linear_771_185" x1="63.7271" y1="5.30212" x2="87.5678" y2="65.9154" gradientUnits="userSpaceOnUse">
<stop stop-color="#FFC444"/>
<stop offset="0.9964" stop-color="#F36F56"/>
</linearGradient>
<linearGradient id="paint6_linear_771_185" x1="62.5319" y1="10.5033" x2="86.3727" y2="71.1167" gradientUnits="userSpaceOnUse">
<stop stop-color="#FFC444"/>
<stop offset="0.9964" stop-color="#F36F56"/>
</linearGradient>
<linearGradient id="paint7_linear_771_185" x1="89.6863" y1="8.89541" x2="89.008" y2="55.7752" gradientUnits="userSpaceOnUse">
<stop stop-color="#FFC444"/>
<stop offset="0.9964" stop-color="#F36F56"/>
</linearGradient>
<linearGradient id="paint8_linear_771_185" x1="101.243" y1="15.9368" x2="95.2298" y2="61.6888" gradientUnits="userSpaceOnUse">
<stop offset="0.00359712" stop-color="white"/>
<stop offset="1" stop-color="#F4F7FA"/>
</linearGradient>
<linearGradient id="paint9_linear_771_185" x1="106.967" y1="13.1043" x2="99.2829" y2="67.2639" gradientUnits="userSpaceOnUse">
<stop offset="0.00359712" stop-color="#E38DDD"/>
<stop offset="1" stop-color="#9571F6"/>
</linearGradient>
<linearGradient id="paint10_linear_771_185" x1="104.165" y1="12.7068" x2="96.4807" y2="66.8665" gradientUnits="userSpaceOnUse">
<stop offset="0.00359712" stop-color="#E38DDD"/>
<stop offset="1" stop-color="#9571F6"/>
</linearGradient>
<linearGradient id="paint11_linear_771_185" x1="101.362" y1="12.309" x2="93.6783" y2="66.4687" gradientUnits="userSpaceOnUse">
<stop offset="0.00359712" stop-color="#E38DDD"/>
<stop offset="1" stop-color="#9571F6"/>
</linearGradient>
<linearGradient id="paint12_linear_771_185" x1="99.968" y1="1.98786" x2="92.2839" y2="56.1475" gradientUnits="userSpaceOnUse">
<stop offset="0.00359712" stop-color="#E38DDD"/>
<stop offset="1" stop-color="#9571F6"/>
</linearGradient>
<linearGradient id="paint13_linear_771_185" x1="106.632" y1="16.6445" x2="100.619" y2="62.3966" gradientUnits="userSpaceOnUse">
<stop offset="0.00359712" stop-color="#E38DDD"/>
<stop offset="1" stop-color="#9571F6"/>
</linearGradient>
<linearGradient id="paint14_linear_771_185" x1="104.167" y1="52.3234" x2="120.005" y2="73.6717" gradientUnits="userSpaceOnUse">
<stop offset="0.00359712" stop-color="white"/>
<stop offset="1" stop-color="#F4F7FA"/>
</linearGradient>
<linearGradient id="paint15_linear_771_185" x1="132.971" y1="38.9497" x2="100.111" y2="82.6886" gradientUnits="userSpaceOnUse">
<stop stop-color="#FF9085"/>
<stop offset="1" stop-color="#FB6FBB"/>
</linearGradient>
<linearGradient id="paint16_linear_771_185" x1="132.721" y1="34.5686" x2="99.8611" y2="78.3074" gradientUnits="userSpaceOnUse">
<stop stop-color="#FF9085"/>
<stop offset="1" stop-color="#FB6FBB"/>
</linearGradient>
<linearGradient id="paint17_linear_771_185" x1="131.634" y1="31.3007" x2="98.7747" y2="75.0395" gradientUnits="userSpaceOnUse">
<stop stop-color="#FF9085"/>
<stop offset="1" stop-color="#FB6FBB"/>
</linearGradient>
<linearGradient id="paint18_linear_771_185" x1="131.366" y1="26.9438" x2="98.5064" y2="70.6827" gradientUnits="userSpaceOnUse">
<stop stop-color="#FF9085"/>
<stop offset="1" stop-color="#FB6FBB"/>
</linearGradient>
<linearGradient id="paint19_linear_771_185" x1="124.043" y1="23.1954" x2="116.747" y2="61.0808" gradientUnits="userSpaceOnUse">
<stop stop-color="#FF9085"/>
<stop offset="1" stop-color="#FB6FBB"/>
</linearGradient>
<linearGradient id="paint20_linear_771_185" x1="82.925" y1="83.8009" x2="88.9778" y2="82.7098" gradientUnits="userSpaceOnUse">
<stop offset="0.00359712" stop-color="#E38DDD"/>
<stop offset="1" stop-color="#9571F6"/>
</linearGradient>
<linearGradient id="paint21_linear_771_185" x1="80.6566" y1="170.768" x2="83.7224" y2="141.131" gradientUnits="userSpaceOnUse">
<stop stop-color="#444B8C"/>
<stop offset="0.9964" stop-color="#26264F"/>
</linearGradient>
<linearGradient id="paint22_linear_771_185" x1="59.3801" y1="88.0764" x2="27.0181" y2="91.8235" gradientUnits="userSpaceOnUse">
<stop stop-color="#444B8C"/>
<stop offset="0.3946" stop-color="#383C74"/>
<stop offset="0.9964" stop-color="#26264F"/>
</linearGradient>
<linearGradient id="paint23_linear_771_185" x1="114.457" y1="28.6469" x2="27.5913" y2="160.819" gradientUnits="userSpaceOnUse">
<stop stop-color="#444B8C"/>
<stop offset="0.9964" stop-color="#26264F"/>
</linearGradient>
<linearGradient id="paint24_linear_771_185" x1="2.54726" y1="104.026" x2="64.9462" y2="84.6401" gradientUnits="userSpaceOnUse">
<stop stop-color="#AB316D"/>
<stop offset="1" stop-color="#792D3D"/>
</linearGradient>
<linearGradient id="paint25_linear_771_185" x1="4.25039" y1="103.497" x2="66.6493" y2="84.1106" gradientUnits="userSpaceOnUse">
<stop stop-color="#FF9085"/>
<stop offset="1" stop-color="#FB6FBB"/>
</linearGradient>
<linearGradient id="paint26_linear_771_185" x1="4.25039" y1="103.497" x2="66.649" y2="84.1105" gradientUnits="userSpaceOnUse">
<stop stop-color="#FF9085"/>
<stop offset="1" stop-color="#FB6FBB"/>
</linearGradient>
<linearGradient id="paint27_linear_771_185" x1="22.8492" y1="146.283" x2="22.1519" y2="150.835" gradientUnits="userSpaceOnUse">
<stop stop-color="#311944"/>
<stop offset="1" stop-color="#A03976"/>
</linearGradient>
<linearGradient id="paint28_linear_771_185" x1="20.8011" y1="129.988" x2="31.8386" y2="129.988" gradientUnits="userSpaceOnUse">
<stop stop-color="#AB316D"/>
<stop offset="1" stop-color="#792D3D"/>
</linearGradient>
<linearGradient id="paint29_linear_771_185" x1="38.8846" y1="146.316" x2="37.4531" y2="151.454" gradientUnits="userSpaceOnUse">
<stop stop-color="#311944"/>
<stop offset="1" stop-color="#A03976"/>
</linearGradient>
<linearGradient id="paint30_linear_771_185" x1="20.8011" y1="129.988" x2="31.8386" y2="129.988" gradientUnits="userSpaceOnUse">
<stop stop-color="#AB316D"/>
<stop offset="1" stop-color="#792D3D"/>
</linearGradient>
<linearGradient id="paint31_linear_771_185" x1="24.3366" y1="129.938" x2="42.915" y2="129.938" gradientUnits="userSpaceOnUse">
<stop stop-color="#AB316D"/>
<stop offset="1" stop-color="#792D3D"/>
</linearGradient>
<linearGradient id="paint32_linear_771_185" x1="26.3928" y1="84.8156" x2="15.5285" y2="111.756" gradientUnits="userSpaceOnUse">
<stop stop-color="#311944"/>
<stop offset="1" stop-color="#A03976"/>
</linearGradient>
<linearGradient id="paint33_linear_771_185" x1="56.3303" y1="107.392" x2="56.7497" y2="91.373" gradientUnits="userSpaceOnUse">
<stop stop-color="#311944"/>
<stop offset="1" stop-color="#A03976"/>
</linearGradient>
<linearGradient id="paint34_linear_771_185" x1="35.3922" y1="88.6387" x2="21.1512" y2="121.966" gradientUnits="userSpaceOnUse">
<stop stop-color="#AA80F9"/>
<stop offset="0.9964" stop-color="#6165D7"/>
</linearGradient>
<linearGradient id="paint35_linear_771_185" x1="35.3922" y1="88.6387" x2="21.1512" y2="121.966" gradientUnits="userSpaceOnUse">
<stop stop-color="#AA80F9"/>
<stop offset="0.9964" stop-color="#6165D7"/>
</linearGradient>
<linearGradient id="paint36_linear_771_185" x1="17.0238" y1="88.4793" x2="25.3788" y2="88.4793" gradientUnits="userSpaceOnUse">
<stop stop-color="#311944"/>
<stop offset="1" stop-color="#A03976"/>
</linearGradient>
<linearGradient id="paint37_linear_771_185" x1="18.0734" y1="91.0943" x2="22.671" y2="84.5811" gradientUnits="userSpaceOnUse">
<stop stop-color="#311944"/>
<stop offset="1" stop-color="#A03976"/>
</linearGradient>
<linearGradient id="paint38_linear_771_185" x1="18.3938" y1="91.3208" x2="22.9913" y2="84.8077" gradientUnits="userSpaceOnUse">
<stop stop-color="#311944"/>
<stop offset="1" stop-color="#A03976"/>
</linearGradient>
<linearGradient id="paint39_linear_771_185" x1="29.9551" y1="86.3159" x2="15.7141" y2="119.643" gradientUnits="userSpaceOnUse">
<stop stop-color="#AA80F9"/>
<stop offset="0.9964" stop-color="#6165D7"/>
</linearGradient>
<linearGradient id="paint40_linear_771_185" x1="113.253" y1="67.126" x2="87.0986" y2="88.2781" gradientUnits="userSpaceOnUse">
<stop stop-color="#AA80F9"/>
<stop offset="0.9964" stop-color="#6165D7"/>
</linearGradient>
<linearGradient id="paint41_linear_771_185" x1="103.894" y1="75.497" x2="160.418" y2="32.2261" gradientUnits="userSpaceOnUse">
<stop stop-color="#AA80F9"/>
<stop offset="0.9964" stop-color="#6165D7"/>
</linearGradient>
<linearGradient id="paint42_linear_771_185" x1="85.1757" y1="72.7232" x2="128.811" y2="72.7232" gradientUnits="userSpaceOnUse">
<stop stop-color="#AA80F9"/>
<stop offset="0.9964" stop-color="#6165D7"/>
</linearGradient>
<linearGradient id="paint43_linear_771_185" x1="129.684" y1="81.4686" x2="131.476" y2="94.2037" gradientUnits="userSpaceOnUse">
<stop stop-color="#FFC444"/>
<stop offset="0.9964" stop-color="#F36F56"/>
</linearGradient>
<linearGradient id="paint44_linear_771_185" x1="85.6422" y1="87.6651" x2="87.434" y2="100.4" gradientUnits="userSpaceOnUse">
<stop stop-color="#FFC444"/>
<stop offset="0.9964" stop-color="#F36F56"/>
</linearGradient>
<linearGradient id="paint45_linear_771_185" x1="121.679" y1="144.485" x2="124.386" y2="152.544" gradientUnits="userSpaceOnUse">
<stop stop-color="#FFC444"/>
<stop offset="0.9964" stop-color="#F36F56"/>
</linearGradient>
<linearGradient id="paint46_linear_771_185" x1="118.211" y1="145.68" x2="120.898" y2="153.679" gradientUnits="userSpaceOnUse">
<stop stop-color="#FFC444"/>
<stop offset="0.9964" stop-color="#F36F56"/>
</linearGradient>
<linearGradient id="paint47_linear_771_185" x1="129.151" y1="140.354" x2="116.437" y2="126.019" gradientUnits="userSpaceOnUse">
<stop stop-color="#444B8C"/>
<stop offset="0.9964" stop-color="#3E4177"/>
</linearGradient>
<linearGradient id="paint48_linear_771_185" x1="129.151" y1="140.354" x2="116.437" y2="126.019" gradientUnits="userSpaceOnUse">
<stop stop-color="#444B8C"/>
<stop offset="0.9964" stop-color="#3E4177"/>
</linearGradient>
<linearGradient id="paint49_linear_771_185" x1="113.163" y1="132.183" x2="94.3914" y2="128.684" gradientUnits="userSpaceOnUse">
<stop stop-color="#444B8C"/>
<stop offset="0.9964" stop-color="#3E4177"/>
</linearGradient>
<linearGradient id="paint50_linear_771_185" x1="104.176" y1="74.0997" x2="115.865" y2="117.019" gradientUnits="userSpaceOnUse">
<stop stop-color="#FF9085"/>
<stop offset="1" stop-color="#FB6FBB"/>
</linearGradient>
<linearGradient id="paint51_linear_771_185" x1="109.519" y1="90.6572" x2="111.631" y2="96.8861" gradientUnits="userSpaceOnUse">
<stop stop-color="#FFC444"/>
<stop offset="0.9964" stop-color="#F36F56"/>
</linearGradient>
<linearGradient id="paint52_linear_771_185" x1="136.127" y1="168.091" x2="138.239" y2="174.319" gradientUnits="userSpaceOnUse">
<stop stop-color="#FFC444"/>
<stop offset="0.9964" stop-color="#F36F56"/>
</linearGradient>
<linearGradient id="paint53_linear_771_185" x1="181.669" y1="205.8" x2="187.109" y2="214.567" gradientUnits="userSpaceOnUse">
<stop stop-color="#FFC444"/>
<stop offset="0.9964" stop-color="#F36F56"/>
</linearGradient>
<linearGradient id="paint54_linear_771_185" x1="95.9369" y1="76.3429" x2="107.627" y2="119.262" gradientUnits="userSpaceOnUse">
<stop stop-color="#FF9085"/>
<stop offset="1" stop-color="#FB6FBB"/>
</linearGradient>
<linearGradient id="paint55_linear_771_185" x1="49.6081" y1="96.6952" x2="71.6593" y2="140.947" gradientUnits="userSpaceOnUse">
<stop stop-color="#311944"/>
<stop offset="1" stop-color="#893976"/>
</linearGradient>
<linearGradient id="paint56_linear_771_185" x1="62.5758" y1="125.76" x2="83.9943" y2="165.485" gradientUnits="userSpaceOnUse">
<stop stop-color="#FF9085"/>
<stop offset="1" stop-color="#FB6FBB"/>
</linearGradient>
<linearGradient id="paint57_linear_771_185" x1="56.6939" y1="128.4" x2="77.5013" y2="170.156" gradientUnits="userSpaceOnUse">
<stop stop-color="#FF9085"/>
<stop offset="1" stop-color="#FB6FBB"/>
</linearGradient>
</defs>
</svg>
