<svg width="173" height="144" viewBox="0 0 173 144" fill="none" xmlns="http://www.w3.org/2000/svg">
<g clip-path="url(#clip0_779_4)">
<path d="M1.07699 0.595047L0.123535 1.43294V59.1312V116.829L1.07699 117.667L2.00154 118.505H37.3948C56.8683 118.505 72.7881 118.592 72.7881 118.707C72.7881 118.852 72.2969 119.863 71.6902 120.99C71.1123 122.117 69.0898 125.931 67.2407 129.513C65.3627 133.067 63.6003 136.447 63.3113 136.996L62.7624 138.008L51.6099 138.152L40.4285 138.296L39.6484 139.077C38.5216 140.203 38.5216 141.966 39.6484 142.948L40.4574 143.642H86.6853C119.247 143.642 133.087 143.555 133.52 143.324C134.271 142.919 134.907 141.388 134.705 140.377C134.618 139.943 134.156 139.279 133.693 138.874L132.827 138.152H121.819H110.782L109.568 135.754C108.875 134.454 106.708 130.264 104.714 126.451C102.721 122.637 101.016 119.285 100.929 118.996C100.785 118.534 102.605 118.505 136.178 118.505H171.542L172.438 117.754L173.334 117.003V59.2756V1.51961L172.64 0.710617L171.947 -0.0983582L86.9743 -0.185043L2.00154 -0.242828L1.07699 0.595047ZM167.844 59.1312V113.016H86.8009H5.75756V59.1312V5.24673H86.8009H167.844V59.1312ZM96.7399 122.983C97.9534 125.353 100.236 129.744 101.796 132.72L104.628 138.152H86.8298H69.032L69.321 137.401C69.4943 136.996 69.9277 136.13 70.3033 135.465C70.6789 134.801 71.8346 132.634 72.8458 130.64C73.886 128.646 75.7351 125.122 76.9775 122.752L79.2022 118.505L86.8587 118.563L94.4863 118.65L96.7399 122.983Z" fill="url(#paint0_linear_779_4)"/>
<path d="M107.632 21.5996C104.801 22.1196 100.034 23.6798 97.5778 24.9222C81.1669 33.1854 72.9614 51.2432 77.6131 68.9543C78.451 72.1902 79.5778 75.0217 80.9357 77.4487C89.4012 92.5016 106.534 100.158 123.119 96.2865C125.95 95.622 130.111 94.0329 132.567 92.7039C140.859 88.1967 147.562 80.2801 150.48 71.5257C156.576 53.2946 148.515 33.6188 131.44 25.0378C128.551 23.5642 125.199 22.4374 121.674 21.7151C118.178 21.0217 111.215 20.9639 107.632 21.5996ZM111.648 41.5065V56.2416L96.7977 56.3283L81.947 56.3861L82.1492 54.5081C82.5537 50.5787 84.7784 44.6846 87.1765 41.1886C91.4526 34.9479 97.2311 30.5273 104.194 28.187C106.766 27.3203 109.886 26.6557 110.926 26.7135L111.648 26.7713V41.5065ZM120.201 27.0602C130.804 28.9093 139.992 36.2191 144.326 46.2448C146.897 52.1678 147.648 58.8708 146.493 64.996C146.146 66.8162 145.597 68.9543 145.279 69.7633C144.239 72.4503 142.621 75.744 142.332 75.744C142.188 75.744 139.876 74.1549 137.189 72.1902C134.502 70.2544 129.244 66.4406 125.488 63.7536C121.732 61.0378 118.265 58.4952 117.831 58.0618L116.994 57.3106V42.171C116.994 33.8211 117.08 26.9158 117.196 26.8291C117.427 26.5691 117.427 26.5691 120.201 27.0602ZM118.612 65.5739C133.231 76.0329 138.807 80.1646 138.894 80.4824C138.952 80.6846 138.114 81.667 137.074 82.6204C132.335 87.0699 126.788 89.9302 120.49 91.2015C116.733 91.9816 109.366 91.6926 105.928 90.6525C97.1733 88.0233 90.8459 83.1983 86.3675 75.744C84.1139 71.988 82.0625 65.8628 82.0337 62.8002V61.8756H97.7512H113.44L118.612 65.5739Z" fill="url(#paint1_linear_779_4)"/>
<path d="M16.7944 28.9966L16.8811 31.6836H38.5505H60.2198L60.2487 28.9966L60.3065 26.3385H38.4927H16.7078L16.7944 28.9966Z" fill="#FF4A55"/>
<path d="M16.9389 46.4764C16.8234 46.563 16.7367 47.8054 16.7367 49.2211V51.7637H38.406H60.0754L60.2487 51.0991C60.3354 50.7235 60.3643 49.5101 60.3065 48.4121L60.2198 46.4186L38.6661 46.3319C26.8202 46.303 17.0256 46.3608 16.9389 46.4764Z" fill="#FF4A55"/>
<path d="M16.8523 66.8743C16.7656 67.1055 16.7367 68.29 16.7945 69.5613L16.8811 71.8438L38.4638 71.9305L60.0754 71.9883L60.2487 71.2949C60.3354 70.9193 60.3643 69.7058 60.3065 68.6079L60.2198 66.6432L38.6083 66.5565C20.7238 66.4987 16.9967 66.5565 16.8523 66.8743Z" fill="#FF4A55"/>
<path d="M16.9389 86.6365C16.8234 86.7232 16.7367 87.9656 16.7367 89.3813V91.9238L38.4927 91.866L60.2198 91.7794L60.2487 89.3235C60.2776 87.7633 60.1909 86.781 59.9598 86.6654C59.5553 86.3765 17.199 86.3765 16.9389 86.6365Z" fill="#FF4A55"/>
</g>
<defs>
<linearGradient id="paint0_linear_779_4" x1="173" y1="144" x2="3.91295e-06" y2="4.03303e-06" gradientUnits="userSpaceOnUse">
<stop stop-color="#F73E94"/>
<stop offset="1" stop-color="#8F0CEC"/>
</linearGradient>
<linearGradient id="paint1_linear_779_4" x1="153" y1="97" x2="76" y2="27.5" gradientUnits="userSpaceOnUse">
<stop stop-color="#8B0BEF"/>
<stop offset="1" stop-color="#F73E94"/>
</linearGradient>
<clipPath id="clip0_779_4">
<rect width="173" height="144" fill="white"/>
</clipPath>
</defs>
</svg>
