<svg width="118" height="146" viewBox="0 0 118 146" fill="none" xmlns="http://www.w3.org/2000/svg">
<g clip-path="url(#clip0_778_50)">
<path d="M0.923039 1.05751C0.105732 1.87483 0.105732 144.279 0.923039 145.096C1.74035 145.913 116.26 145.913 117.077 145.096C117.51 144.663 117.654 131.25 117.654 87.7402V31.0094L102.365 15.721L87.125 0.480591H44.2884C11.6442 0.480591 1.35573 0.624832 0.923039 1.05751ZM84 18.4614C84 30.6729 84.0961 32.7402 84.7692 33.3652C85.3942 34.0383 87.4615 34.1344 99.673 34.1344H113.808L113.712 87.8364L113.567 141.586H59H4.43265L4.28842 73.5575C4.24035 36.1537 4.28842 5.2402 4.43265 4.90367C4.57689 4.47098 13.0384 4.32675 44.3365 4.32675H84V18.4614ZM99.625 18.7498L110.683 29.8075H99.4807H88.3269V18.7498C88.3269 12.6441 88.375 7.69214 88.4711 7.69214C88.5192 7.69214 93.5673 12.6441 99.625 18.7498Z" fill="url(#paint0_linear_778_50)"/>
<path d="M50.8269 19.086C49.5769 19.5187 47.6538 20.9129 46.2115 22.3071C42.8942 25.6725 41.5481 29.134 41.5 34.6148C41.5 38.2206 41.6442 39.086 42.9904 41.9225C49.5288 55.8167 66.9808 53.9417 70.8269 38.9417C72.75 31.3456 69.3846 22.884 63.0865 19.5667C60.4904 18.2206 53.9038 17.9321 50.8269 19.086ZM59.1923 22.6437C64 23.8456 66.7404 27.7879 67.0769 33.8936C67.2692 37.4994 67.1731 37.9321 65.6346 40.8648C63.5673 44.8552 61.0673 46.6821 57.3654 47.0186C54.0481 47.3071 51.8846 46.5379 49.6731 44.4225C47.3173 42.1148 45.9712 39.3263 45.6827 36.009C45.0577 29.3744 48.1346 24.2783 53.7115 22.5475C55.4423 22.0187 56.8846 22.0667 59.1923 22.6437Z" fill="url(#paint1_linear_778_50)"/>
<path d="M41.8364 54.279C37.0288 55.9136 33.6153 59.0386 31.2595 63.9425C30.2499 66.1059 29.9614 67.5001 29.7691 71.4425C29.5768 75.529 29.673 76.3944 30.3461 77.0675C31.1153 77.8367 33.3268 77.8848 56.3076 77.8848C76.4038 77.8848 81.5961 77.7405 82.2691 77.2598C83.0384 76.6828 83.1345 76.0098 82.9422 71.5867C82.7499 65.7213 81.548 62.5482 78.2307 58.9425C73.8557 54.1828 65.923 52.0194 61.3557 54.3271C58.4711 55.8175 54.673 55.8655 51.7403 54.4232C49.048 53.1251 45.3461 53.029 41.8364 54.279ZM50.0095 58.2694C52.8941 59.8559 59.7691 59.8559 62.6538 58.3175C64.4326 57.3559 65.0095 57.3078 67.4134 57.6925C73.9518 58.7501 78.1826 63.4617 78.9999 70.529L79.3364 73.5578H56.5961H33.9038L34.0961 70.2886C34.5288 62.9328 39.1922 58.4136 47.6057 57.2598C47.798 57.2117 48.9038 57.6925 50.0095 58.2694Z" fill="url(#paint2_linear_778_50)"/>
<path d="M16.7883 86.8271C15.5383 87.6925 15.4422 88.6059 16.4999 89.6155C17.1729 90.2886 21.6922 90.3848 58.9999 90.3848C96.3076 90.3848 100.827 90.2886 101.5 89.6155C102.558 88.6059 102.461 87.6925 101.211 86.8271C100.25 86.154 95.4422 86.0578 58.9999 86.0578C22.5576 86.0578 17.7499 86.154 16.7883 86.8271Z" fill="#22DCD9"/>
<path d="M16.2116 106.25C15.8269 106.923 15.8269 107.5 16.2116 108.173C16.7404 109.135 17.2212 109.135 59 109.135C100.779 109.135 101.26 109.135 101.788 108.173C102.173 107.5 102.173 106.923 101.788 106.25C101.26 105.289 100.779 105.289 59 105.289C17.2212 105.289 16.7404 105.289 16.2116 106.25Z" fill="#22DCD9"/>
<path d="M16.1153 125.288C15.5865 126.394 15.6346 126.683 16.6442 127.452C17.7019 128.317 19.3365 128.365 59 128.365C98.6634 128.365 100.298 128.317 101.356 127.452C102.365 126.683 102.413 126.394 101.885 125.288L101.308 124.038H59H16.6923L16.1153 125.288Z" fill="#22DCD9"/>
</g>
<defs>
<linearGradient id="paint0_linear_778_50" x1="118.07" y1="146.162" x2="-0.0698951" y2="0.115774" gradientUnits="userSpaceOnUse">
<stop stop-color="#F73E94"/>
<stop offset="1" stop-color="#22DCD9"/>
</linearGradient>
<linearGradient id="paint1_linear_778_50" x1="56.4332" y1="51.3438" x2="56.4332" y2="18.3668" gradientUnits="userSpaceOnUse">
<stop stop-color="#22DCD9"/>
<stop offset="1" stop-color="#F73E94"/>
</linearGradient>
<linearGradient id="paint2_linear_778_50" x1="56.3546" y1="77.8848" x2="56.3546" y2="53.3935" gradientUnits="userSpaceOnUse">
<stop stop-color="#22DCD9"/>
<stop offset="1" stop-color="#F73E94"/>
</linearGradient>
<clipPath id="clip0_778_50">
<rect width="118" height="146" fill="white"/>
</clipPath>
</defs>
</svg>
