<svg width="160" height="155" viewBox="0 0 160 155" fill="none" xmlns="http://www.w3.org/2000/svg">
<g clip-path="url(#clip0_786_111)">
<path d="M65.1419 142.789C28.042 137.171 -2.10836 102.093 3.36898 63.1052C8.04215 29.8548 37.1939 3.97921 72.1519 1.53566C74.6833 1.35801 77.244 1.30335 79.8279 1.37851C99.33 1.94196 116.658 9.74248 129.473 21.5466C142.228 33.2939 150.515 49.0063 152.024 65.4909C156.042 109.349 111.286 149.777 65.1419 142.789Z" fill="#F4F7FA"/>
<path d="M94.9293 112.273C93.7903 112.176 91.3972 110.963 90.9037 110.389C87.6202 106.572 81.0081 99.8251 81.0859 94.5028C81.099 93.594 85.1136 92.5728 85.6445 91.7155C88.046 90.4436 88.9579 90.1508 90.6467 87.8202C95.6326 80.939 83.038 68.9888 96.8551 63.9814C106.976 60.3132 115.801 63.4652 113.991 47.5819C112.182 31.6986 123.532 2.10697 140.847 12.4761C150.784 18.4271 141.582 32.4092 146.992 42.1829C152.133 51.4704 148.453 59.4664 138.617 65.6118C128.781 71.7572 134.364 75.9 137.695 84.7949C141.697 95.4794 125.106 98.1379 117.342 98.7119C111.091 99.1749 95.4817 104.57 94.9293 112.273Z" fill="url(#paint0_linear_786_111)"/>
<mask id="mask0_786_111" style="mask-type:luminance" maskUnits="userSpaceOnUse" x="81" y="10" width="69" height="103">
<path d="M94.9292 112.272C93.7902 112.175 91.3971 110.962 90.9036 110.388C87.6201 106.571 81.008 99.8241 81.0858 94.5018C81.0989 93.5931 85.1135 92.5718 85.6443 91.7145C88.0458 90.4426 88.9578 90.1498 90.6465 87.8193C95.6324 80.938 83.0379 68.9878 96.855 63.9804C106.976 60.3122 115.8 63.4642 113.991 47.5809C112.182 31.6976 123.532 2.10599 140.847 12.4752C150.784 18.4261 141.582 32.4083 146.992 42.1819C152.133 51.4694 148.453 59.4654 138.617 65.6108C128.781 71.7562 134.364 75.899 137.695 84.7939C141.697 95.4784 125.106 98.1369 117.342 98.7109C111.091 99.1739 95.4816 104.569 94.9292 112.272Z" fill="white"/>
</mask>
<g mask="url(#mask0_786_111)">
<path d="M86.1563 102.896L86.0402 102.683C118.94 84.8085 137.669 49.3516 136.142 7.83608L136.385 7.82715C137.109 27.5027 133.108 46.5386 124.816 62.8765C116.1 80.0528 102.731 93.891 86.1563 102.896Z" fill="#FCFDFE"/>
<path d="M139.869 89.0445C130.007 86.2851 113.743 86.9179 103.615 90.4547L103.535 90.225C113.703 86.674 130.031 86.0396 139.934 88.8101L139.869 89.0445Z" fill="#FCFDFE"/>
<path d="M92.5744 99.3124L92.4036 99.1389C96.3735 95.2231 98.2115 89.4509 97.8667 81.9821C97.6139 76.5058 96.2147 70.2616 93.7081 63.4234L93.9362 63.3398C96.4513 70.2016 97.8552 76.47 98.1096 81.971C98.4586 89.5119 96.5963 95.3461 92.5744 99.3124Z" fill="#FCFDFE"/>
<path d="M125.904 60.5108L125.725 60.3468C132.829 52.581 143.618 50.1101 151.417 49.4053L151.439 49.6476C143.682 50.3487 132.955 52.8023 125.904 60.5108Z" fill="#FCFDFE"/>
<path d="M133.779 37.7404L133.536 37.7336C133.87 25.8812 126.611 15.7711 122.255 10.8L122.438 10.6396C126.817 15.6376 134.115 25.805 133.779 37.7404Z" fill="#FCFDFE"/>
</g>
<path d="M106.385 126.6C105.221 127.208 102.153 127.507 101.321 127.255C95.7851 125.58 85.2168 123.116 82.0111 117.909C81.4634 117.02 84.7253 113.556 84.7116 112.397C86.2554 109.683 86.9591 108.838 87.1589 105.537C87.7497 95.7932 68.1745 91.9741 78.4806 78.6022C86.0293 68.8075 96.5268 66.4223 84.9813 52.1416C73.4358 37.8609 66.194 2.18006 89.3706 1.55669C102.672 1.19875 102.372 20.4249 113.642 26.5635C124.35 32.3967 125.713 42.4158 119.967 54.4369C114.221 66.4575 122.187 67.0315 130.9 73.6C141.366 81.4899 126.923 94.2952 119.751 99.638C113.975 103.94 102.171 118.793 106.385 126.6Z" fill="url(#paint1_linear_786_111)"/>
<mask id="mask1_786_111" style="mask-type:luminance" maskUnits="userSpaceOnUse" x="74" y="1" width="61" height="127">
<path d="M106.384 126.601C105.221 127.21 102.153 127.509 101.321 127.257C95.785 125.582 85.2166 123.118 82.011 117.911C81.4633 117.022 84.7252 113.557 84.7115 112.399C86.2552 109.685 86.959 108.84 87.1587 105.539C87.7495 95.7952 68.1744 91.9761 78.4805 78.6041C86.0292 68.8095 96.5266 66.4243 84.9812 52.1435C73.4357 37.8628 66.1939 2.18201 89.3705 1.55864C102.672 1.2007 102.372 20.4269 113.641 26.5654C124.35 32.3986 125.713 42.4177 119.967 54.4389C114.221 66.4595 122.187 67.0334 130.9 73.6019C141.366 81.4918 126.923 94.2972 119.751 99.64C113.975 103.942 102.171 118.795 106.384 126.601Z" fill="white"/>
</mask>
<g mask="url(#mask1_786_111)">
<path d="M92.1011 122.923L91.8573 122.787C112.728 85.179 109.025 39.2631 81.9496 -0.0375549L82.1798 -0.196289C95.0114 18.4296 102.869 39.3472 104.904 60.2963C107.043 82.3203 102.615 103.976 92.1011 122.923Z" fill="#FCFDFE"/>
<path d="M135.626 76.3832C124.365 79.7886 108.991 90.4279 101.353 100.1L101.134 99.9272C108.801 90.2172 124.237 79.5353 135.545 76.1162L135.626 76.3832Z" fill="#FCFDFE"/>
<path d="M96.1137 115.493L95.8414 115.431C97.2758 109.188 95.4987 102.459 90.5596 95.4325C86.9382 90.2799 81.7326 85.0901 75.0868 80.007L75.2566 79.7852C81.9244 84.8856 87.15 90.096 90.7877 95.2716C95.7747 102.366 97.5665 109.17 96.1137 115.493Z" fill="#FCFDFE"/>
<path d="M104.499 57.335L104.224 57.2866C106.322 45.3795 115.257 36.3339 122.382 30.8418L122.553 31.0631C115.466 36.5247 106.581 45.5162 104.499 57.335Z" fill="#FCFDFE"/>
<path d="M98.0952 30.4085L97.8555 30.5515C90.8723 18.8573 77.6033 13.5324 70.3158 11.3989L70.3941 11.1309C77.7211 13.2759 91.0625 18.6323 98.0952 30.4085Z" fill="#FCFDFE"/>
</g>
<path d="M10.2016 117.391C7.49101 117.552 5.27295 115.794 5.27295 113.47V29.7071C5.27295 27.3828 7.49048 25.5884 10.2016 25.7056L10.5795 25.7219L135.564 34.898C137.554 34.9842 139.166 32.9012 139.166 34.878V106.118C139.166 108.095 137.554 109.799 135.564 109.918L10.847 116.603L10.4512 117.376L10.2016 117.391Z" fill="#BFC8D6"/>
<path d="M11.3279 117.391C8.61735 117.552 6.39929 115.794 6.39929 113.47V29.7071C6.39929 27.3828 8.61683 25.5884 11.3279 25.7056L136.691 31.1372C138.681 31.2234 140.292 32.9012 140.292 34.878V106.118C140.292 108.095 138.681 109.799 136.691 109.918L11.3279 117.391Z" fill="white"/>
<path opacity="0.3" d="M136.691 32.8142L11.3279 27.6569C9.87885 27.5975 8.70044 28.5547 8.70044 29.7956V94.9414V113.343C8.70044 114.584 9.87885 115.523 11.3279 115.439L136.691 108.241C137.757 108.179 138.62 107.271 138.62 106.21V89.9245V34.8141C138.62 33.7534 137.757 32.8583 136.691 32.8142Z" fill="#D8DEE8"/>
<path d="M11.3278 108.324C10.7639 108.352 10.304 107.982 10.304 107.5V29.8581C10.304 29.3756 10.7633 29.0008 11.3278 29.0234L136.691 33.9883C137.107 34.0046 137.445 34.3552 137.445 34.7688V101.34C137.445 101.753 137.107 102.107 136.691 102.127L11.3278 108.324Z" fill="#D8DEE8"/>
<path opacity="0.4" d="M123.603 104.733C113.056 98.2088 120.423 79.6591 108.579 70.3396C96.6375 60.9433 79.8349 72.4678 71.4704 62.7367C65.2425 55.4912 72.5301 46.7425 66.5828 39.9285C57.257 29.243 33.3829 43.9394 22.4145 33.4121C20.8572 31.9172 19.2856 29.6498 18.3915 26.0115L11.3279 25.7056C8.61735 25.5884 6.39929 27.3828 6.39929 29.7071V113.47C6.39929 115.795 8.61683 117.553 11.3279 117.391L136.691 109.918C138.681 109.799 140.292 108.095 140.292 106.118V104.851C131.968 107.676 126.88 106.759 123.603 104.733Z" fill="#D8DEE8"/>
<path d="M18.2886 101.992L48.4626 100.732V84.9131L18.2886 85.6447V101.992Z" fill="#F4F7FA"/>
<g opacity="0.7">
<path d="M99.1221 74.7521L103.706 74.6885V63.4127L99.1221 63.2949V74.7521Z" fill="#F4F7FA"/>
<path d="M90.849 74.8663L95.5222 74.8016V57.8824L90.849 57.8545V74.8663Z" fill="#F4F7FA"/>
<path d="M82.4142 74.9828L87.1788 74.9171V49.1877L82.4142 49.0479V74.9828Z" fill="#F4F7FA"/>
<path d="M73.813 75.1019L78.6717 75.0346V55.6534L73.813 55.542V75.1019Z" fill="#F4F7FA"/>
<path d="M65.0402 75.2221L69.9966 75.1538V66.4424L65.0402 66.4618V75.2221Z" fill="#F4F7FA"/>
<path d="M56.0907 75.3465L61.147 75.2772V54.5961L56.0907 54.5488V75.3465Z" fill="#F4F7FA"/>
<path d="M46.9592 75.4711L52.1186 75.3996V45.2928L46.9592 45.1914V75.4711Z" fill="#F4F7FA"/>
<path d="M37.6404 75.6008L42.9059 75.5278V53.3472L37.6404 53.292V75.6008Z" fill="#F4F7FA"/>
<path d="M28.1274 75.7309L33.5023 75.6568V40.8963L28.1274 40.7676V75.7309Z" fill="#F4F7FA"/>
<path d="M18.4147 75.8654L23.9031 75.7897V36.7498L18.4147 36.5947V75.8654Z" fill="#F4F7FA"/>
</g>
<path d="M107.916 98.2504L130.466 97.309V95.0273L107.916 95.9056V98.2504Z" fill="#F4F7FA"/>
<path d="M107.916 67.9855L130.466 67.8515V65.5693L107.916 65.6408V67.9855Z" fill="#F4F7FA"/>
<path d="M107.916 63.9717L130.466 63.9444V61.6627L107.916 61.627V63.9717Z" fill="#F4F7FA"/>
<path d="M107.916 95.0104L111.591 94.8711V91.2754L107.916 91.3989V95.0104Z" fill="#F4F7FA"/>
<path d="M26.5753 92.0335C28.4922 92.1055 28.7765 90.9959 30.664 90.8882C33.8649 90.7058 34.6486 93.821 37.7329 93.7737C40.2505 93.7348 40.8839 91.6319 43.3768 91.8647C45.2296 92.0382 45.5944 93.2713 47.4009 93.4484C47.7614 93.4836 48.1162 93.4699 48.4626 93.4195V100.732L18.2886 101.991V89.0527C19.9059 89.1694 21.0869 89.5352 21.9321 89.9058C23.9662 90.7977 24.6416 91.9604 26.5753 92.0335Z" fill="#F4F7FA"/>
<path d="M18.4148 83.8496L103.706 81.9448V78.3691L18.4148 79.9155V83.8496Z" fill="#F4F7FA"/>
<path d="M52.1187 100.579L103.706 98.4262V83.3271L52.1187 84.5634V100.579Z" fill="#F4F7FA"/>
<path d="M124.982 55.2958C128.37 51.9072 128.37 46.4131 124.982 43.0245C121.593 39.6358 116.099 39.6358 112.71 43.0245C109.322 46.4131 109.322 51.9072 112.71 55.2958C116.099 58.6845 121.593 58.6845 124.982 55.2958Z" fill="#F4F7FA"/>
<mask id="mask2_786_111" style="mask-type:luminance" maskUnits="userSpaceOnUse" x="110" y="40" width="18" height="18">
<path d="M124.982 55.2949C128.37 51.9062 128.37 46.4122 124.982 43.0235C121.593 39.6349 116.099 39.6349 112.71 43.0235C109.322 46.4122 109.322 51.9062 112.71 55.2949C116.099 58.6835 121.593 58.6835 124.982 55.2949Z" fill="white"/>
</mask>
<g mask="url(#mask2_786_111)">
<g opacity="0.74">
<path d="M118.837 50.0068C120.705 50.0068 122.22 48.4923 122.22 46.624C122.22 44.7557 120.705 43.2412 118.837 43.2412C116.969 43.2412 115.454 44.7557 115.454 46.624C115.454 48.4923 116.969 50.0068 118.837 50.0068Z" fill="url(#paint2_linear_786_111)"/>
<path d="M112.36 57.9157C112.36 54.441 115.264 51.4287 118.847 51.4287C122.429 51.4287 125.334 54.441 125.334 57.9157H112.36Z" fill="url(#paint3_linear_786_111)"/>
</g>
</g>
<path d="M47.6549 136.545C47.6549 136.545 51.4408 138.469 51.5023 138.776C51.5643 139.083 49.0677 138.673 48.0486 138.717C47.0294 138.761 46.1911 138.425 46.283 137.942C46.3755 137.459 46.7319 136.245 46.7319 136.245L47.6549 136.545Z" fill="url(#paint4_linear_786_111)"/>
<path d="M47.7935 134.983L47.5633 136.889C47.5633 136.889 46.9641 137.127 46.5615 136.845L46.3896 134.755L47.7935 134.983Z" fill="url(#paint5_linear_786_111)"/>
<path d="M29.9646 135.028L29.5241 135.819C29.4011 136.04 29.3643 136.306 29.4232 136.558C29.5772 137.215 29.8847 138.496 30.0187 138.83C30.2011 139.285 32.6515 139.555 32.6515 139.555C32.6515 139.555 32.8701 139.212 32.3613 138.796C31.8526 138.381 31.5256 138.316 31.3464 137.703C31.1672 137.09 31.0473 135.357 31.0473 135.357L29.9646 135.028Z" fill="url(#paint6_linear_786_111)"/>
<path d="M31.7974 133.021C31.6366 133.164 30.8497 135.834 30.8497 135.834C30.8497 135.834 30.5948 136.198 30.1113 135.661C29.6277 135.123 29.8921 135.419 29.8921 135.419L29.983 132.793L31.7974 133.021Z" fill="url(#paint7_linear_786_111)"/>
<path d="M49.8766 96.6952C50.0763 102.38 50.0842 108.557 49.7919 115.155C49.4624 122.585 48.8006 129.453 47.9665 135.678C47.6564 135.689 47.3305 135.691 46.9899 135.68C46.7602 135.673 46.5374 135.661 46.3219 135.644C45.8888 134.353 45.3774 132.655 44.919 130.628C44.4376 128.496 44.1469 126.583 43.9398 124.755C43.2108 118.316 44.0649 117.754 43.4736 112.982C42.9496 108.756 42.2043 108.591 41.3297 102.59C40.3804 96.0797 41.0868 95.1031 41.4306 94.7505C42.8928 93.2477 46.3292 94.2706 49.8766 96.6952Z" fill="url(#paint8_linear_786_111)"/>
<path opacity="0.3" d="M41.4306 94.7493C42.8256 93.3165 46.0165 94.1838 49.3862 96.3708C45.5093 101.054 45.0867 104.092 45.5514 106.063C46.0764 108.291 47.6738 108.932 47.6674 111.368C47.6601 114.362 45.2433 115.155 45.2949 118.323C45.329 120.417 46.3907 120.396 46.6415 122.983C46.9379 126.044 45.5508 127.099 46.0002 129.364C46.1936 130.338 46.745 131.611 48.3166 132.923C48.2036 133.853 48.0869 134.774 47.966 135.677C47.6559 135.688 47.33 135.69 46.9899 135.679C46.7602 135.673 46.5374 135.66 46.3219 135.643C45.8888 134.352 45.3774 132.655 44.919 130.627C44.4376 128.495 44.1469 126.583 43.9398 124.754C43.2108 118.315 44.0649 117.754 43.4736 112.982C42.9496 108.755 42.2043 108.59 41.3297 102.59C40.3804 96.0786 41.0868 95.102 41.4306 94.7493Z" fill="url(#paint9_linear_786_111)"/>
<path d="M47.475 96.5995C44.1369 102.061 40.5365 108.857 37.3166 116.991C34.8836 123.139 33.1186 128.911 31.823 134.055C31.6474 134.146 31.2343 134.327 30.7055 134.249C29.9849 134.142 29.5529 133.628 29.4399 133.484C28.9127 129.797 28.9705 126.674 29.1497 124.42C29.2643 122.977 29.4672 120.573 30.2898 117.606C31.2112 114.283 31.8451 114.096 33.0471 110.58C34.2949 106.931 33.9927 106.02 35.1879 101.453C35.6788 99.5765 36.5004 96.7845 37.8564 93.4453C41.0626 94.4965 44.2688 95.5477 47.475 96.5995Z" fill="url(#paint10_linear_786_111)"/>
<path d="M48.3634 72.8714C52.049 70.4641 53.6284 70.7416 54.697 68.5798C55.754 66.4411 55.7513 63.0483 54.0026 61.2507C53.8744 61.1188 52.542 59.7922 50.7391 60.0192C48.0123 60.363 47.8115 63.8078 44.7535 65.3857C42.1623 66.7228 39.3361 65.7825 37.4234 65.146C32.8181 63.6133 32.1343 60.7141 29.7464 61.1761C26.7541 61.7553 26.4898 66.5662 23.5085 66.8626C21.516 67.0608 21.0413 64.9705 18.4222 64.3949C15.3443 63.7185 11.9673 65.7184 10.0735 68.1498C6.61185 72.5949 7.52326 79.2291 9.68981 83.2789C11.4695 86.606 15.2954 90.4329 18.5184 89.6093C21.065 88.9591 21.8939 85.7493 24.0846 86.0683C25.642 86.2954 25.6982 87.9873 27.5394 88.8582C30.5627 90.2884 34.2945 87.5626 35.3126 86.8194C38.2145 84.7001 37.7519 83.3451 41.4937 79.0972C42.9712 77.42 45.0994 75.0032 48.3634 72.8714Z" fill="url(#paint11_linear_786_111)"/>
<path d="M74.762 63.5087C74.762 63.5087 75.3848 62.6372 75.7801 61.9897C76.1753 61.3421 78.0202 59.5225 78.0202 59.5225C78.0202 59.5225 78.1605 59.811 77.7637 60.273C77.3663 60.735 76.5306 61.5271 76.723 61.8619C76.9154 62.1967 77.4562 62.4921 77.0657 63.125C76.6752 63.7573 75.9961 63.3257 75.6492 63.833C75.3023 64.3402 74.9465 64.8936 74.9465 64.8936L74.762 63.5087Z" fill="url(#paint12_linear_786_111)"/>
<path d="M74.5186 62.9395C74.9385 63.6501 75.359 64.3607 75.779 65.0713C75.3417 66.4999 74.5879 68.4835 73.2671 70.5765C72.6847 71.4995 70.8782 74.2079 67.8197 76.386C63.6564 79.3505 56.0719 82.1167 53.8517 78.962C51.8707 76.1469 55.0685 69.9069 55.6572 68.7868C56.8493 69.4118 58.8077 70.2401 61.3248 70.4362C62.15 70.5003 64.2971 70.6469 66.7165 69.816C71.1941 68.2775 73.6802 64.3964 74.5186 62.9395Z" fill="url(#paint13_linear_786_111)"/>
<path d="M60.5143 72.4659C60.3046 73.5187 57.0306 72.9542 56.3546 74.8647C55.992 75.8902 56.762 76.5414 56.7941 78.2828C56.8303 80.2322 55.9011 81.3397 55.1883 82.8729C54.1445 85.1193 54.1403 87.3211 54.1329 91.7246C54.1219 97.9935 55.5079 99.2539 54.3248 101.274C52.7847 103.904 49.0866 104.072 48.0869 104.117C44.6683 104.272 44.2631 102.456 40.5539 102.24C36.3175 101.992 35.7141 104.295 32.6845 103.313C29.9166 102.415 28.9858 100.029 26.8308 100.523C25.4837 100.832 25.1268 101.93 23.8559 101.811C22.5787 101.692 21.2589 100.426 21.169 99.1283C21.057 97.5152 22.8204 95.4837 25.5835 95.4801C26.6815 95.9111 28.5017 96.4104 30.5258 95.8559C33.8424 94.9466 35.5674 91.7935 37.4833 88.2914C38.8089 85.8688 41.245 81.4159 41.274 75.5769C41.286 73.1691 40.8787 72.4648 41.4658 71.1776C43.3716 66.9985 50.7659 67.6219 51.3924 67.6823C56.4303 68.1685 60.7676 71.1944 60.5143 72.4659Z" fill="url(#paint14_linear_786_111)"/>
<path d="M62.1662 77.7247L52.8788 78.13C52.7768 78.1342 52.6874 78.2078 52.6527 78.315L48.2776 91.8856C48.2151 92.0801 48.4116 92.5673 48.5956 92.5453L57.7779 91.1487C57.8715 91.1377 57.9514 91.0688 57.985 90.9705L62.5368 78.3039C62.6014 78.1158 62.346 77.7168 62.1662 77.7247Z" fill="url(#paint15_linear_786_111)"/>
<path d="M62.3108 78.0569L53.0233 78.4621C52.9214 78.4663 52.832 78.5399 52.7973 78.6471L48.4222 92.2178C48.3596 92.4122 48.5005 92.6135 48.6844 92.5915L57.9225 91.4809C58.0161 91.4698 58.096 91.401 58.1296 91.3027L62.5547 78.4374C62.6188 78.2492 62.4906 78.049 62.3108 78.0569Z" fill="url(#paint16_linear_786_111)"/>
<path d="M59.7711 78.5623L60.129 77.4806C60.1611 77.3828 60.097 77.2793 60.0034 77.2793H56.6227C56.5644 77.2793 56.5129 77.3213 56.495 77.3834L56.1549 78.5802C56.1271 78.6785 56.1943 78.7783 56.2863 78.7752L59.6491 78.6606C59.7038 78.658 59.7522 78.6196 59.7711 78.5623Z" fill="url(#paint17_linear_786_111)"/>
<path opacity="0.3" d="M54.0536 89.3059C54.657 87.1188 53.6641 85.6945 54.6775 83.9946C56.1108 81.5905 59.1903 82.6081 60.1474 80.6681C60.4055 80.1451 60.529 79.3656 60.1811 78.1494L62.3108 78.0569C62.4906 78.049 62.6188 78.2492 62.5542 78.4374L58.1291 91.3027C58.0955 91.401 58.0156 91.4693 57.922 91.4809L52.3075 92.1563C53.3077 91.1802 53.8086 90.1947 54.0536 89.3059Z" fill="url(#paint18_linear_786_111)"/>
<path d="M47.2712 87.6798C47.2712 87.6798 48.6746 87.3675 49.216 86.9865C49.7574 86.6054 50.3313 85.9931 51.1292 86.0267C51.9271 86.0604 52.7302 86.514 52.3617 86.618C51.9933 86.7221 51.3042 87.5394 50.7786 87.8616C50.2525 88.1833 49.0504 88.2127 48.8265 88.1948C48.6026 88.1775 47.7191 88.7714 47.7191 88.7714L47.2712 87.6798Z" fill="url(#paint19_linear_786_111)"/>
<path opacity="0.3" d="M25.583 95.4792C26.681 95.9102 28.5012 96.4095 30.5253 95.855C33.8419 94.9457 35.5669 91.7926 37.4827 88.2905C38.8083 85.8679 41.2445 81.415 41.2734 75.576C41.2855 73.1682 40.8782 72.4639 41.4653 71.1767C41.5588 70.9723 41.6687 70.782 41.7869 70.5996C43.235 71.6939 43.7963 72.7898 43.9603 73.7517C44.3598 76.0938 42.4765 78.0086 43.4563 80.0285C44.395 81.9632 46.715 81.4282 47.1991 83.0864C47.721 84.8756 45.1529 85.9547 45.0399 88.7194C44.9038 92.0375 48.4721 93.6622 47.8466 95.8813C47.3047 97.8045 44.3183 97.6662 44.3198 98.698C44.3214 99.9248 44.2273 97.3919 47.8466 95.8813C48.9436 95.4235 54.1056 99.2336 54.7326 98.565C54.8677 99.6462 54.8435 100.387 54.3242 101.273C52.7842 103.903 49.086 104.071 48.0863 104.116C44.6678 104.271 44.2625 102.455 40.5533 102.238C36.3169 101.991 35.7135 104.294 32.684 103.311C29.9161 102.414 28.9853 100.028 26.8303 100.522C25.4831 100.83 25.1263 101.928 23.8553 101.81C22.5781 101.69 21.2583 100.425 21.1684 99.1269C21.057 97.5143 22.8199 95.4829 25.583 95.4792Z" fill="url(#paint20_linear_786_111)"/>
<path d="M47.3074 87.0301C47.7394 87.8884 48.171 88.7467 48.603 89.605C47.9371 89.9698 40.8193 93.7353 35.6599 90.0077C35.0219 89.5467 33.3268 88.322 32.4127 85.9232C31.4057 83.2794 31.9707 80.8211 32.3371 79.2243C33.2443 75.2723 35.8103 71.1263 39.4506 69.4607C40.8414 68.8241 42.4923 68.5025 44.0449 68.1997C45.3616 67.9427 47.4314 67.6284 47.4756 67.8512C47.4971 67.96 47.0162 68.0988 46.6824 68.3101C44.631 69.6073 47.2354 74.9653 44.8249 77.5345C42.5154 79.9959 39.5184 79.5896 39.0354 81.8198C38.811 82.8568 39.2756 83.7897 39.4827 84.2055C40.6374 86.5239 43.7474 87.562 47.3074 87.0301Z" fill="url(#paint21_linear_786_111)"/>
<path d="M52.1389 63.8281C52.1389 63.8281 51.3032 66.545 50.2619 66.9686C49.2207 67.3917 47.575 67.8769 47.3685 68.0656C47.1619 68.2532 52.9 70.3367 56.1172 69.378C55.2005 68.9297 54.9551 68.7862 54.9551 68.7862C54.7101 68.6427 54.2534 68.3762 53.8255 67.952C53.5338 67.6635 53.0776 67.1263 52.7339 66.2333L53.0345 64.6906L52.1389 63.8281Z" fill="url(#paint22_linear_786_111)"/>
<path d="M51.7636 65.0158C51.7636 65.0158 52.2482 66.22 53.3972 66.035C54.4263 65.8694 54.3737 62.9759 53.6747 62.4834C53.4418 62.3194 52.9688 62.2569 52.6177 62.4004C52.3707 62.5013 51.6359 63.1741 51.7999 64.1601C51.5733 64.025 51.3473 64.0466 51.269 64.1675C51.1696 64.321 51.3305 64.6001 51.3673 64.6631C51.4929 64.8818 51.6774 64.978 51.7636 65.0158Z" fill="url(#paint23_linear_786_111)"/>
<path opacity="0.3" d="M75.2372 75.8379C75.2372 75.8379 71.9874 80.15 71.9038 86.7511L70.6302 114.067H75.9683L75.2372 75.8379Z" fill="#BFC8D6"/>
<path d="M140.108 74.9361L136.941 74.8772L134.042 74.8242L126.631 74.6859L123.668 74.6307L118.655 74.5377L115.635 74.4825L99.5849 74.1834L96.4176 74.1246L80.6389 73.8329L79.2287 73.8066C76.5407 73.7572 74.2843 75.6972 74.2843 78.1386V125.858C74.2843 128.3 76.5334 130.169 79.2229 130.037L80.6857 129.963V130.159H80.6878L80.754 129.954L102.577 128.592L140.066 126.318C142.361 126.206 144.332 125.038 144.332 122.799V79.0621C144.333 76.8267 142.406 74.9776 140.108 74.9361ZM129.363 77.253C129.591 77.2567 129.812 77.2793 130.028 77.3213C131.195 77.5389 132.172 78.2721 132.695 79.2629C132.96 79.7612 133.11 80.3236 133.11 80.9201C133.11 81.5698 132.931 82.1779 132.619 82.7025C132.082 83.6118 131.14 84.2688 130.026 84.4527C129.812 84.4885 129.59 84.5079 129.363 84.5058C127.278 84.4927 125.58 82.8523 125.58 80.8387C125.58 78.8251 127.278 77.2204 129.363 77.253ZM110.779 76.9665C111.016 76.9702 111.249 76.9928 111.475 77.0349C112.687 77.2567 113.704 77.9972 114.257 78.9975C114.545 79.5147 114.706 80.1018 114.706 80.7209C114.706 81.3764 114.524 81.9919 114.206 82.5222C113.644 83.4672 112.649 84.1495 111.471 84.3387C111.248 84.3744 111.016 84.3939 110.78 84.3918C108.596 84.3786 106.815 82.6983 106.815 80.6374C106.815 78.577 108.595 76.9324 110.779 76.9665ZM91.2924 76.6675C91.5426 76.6711 91.7886 76.6958 92.0256 76.7395C93.3081 76.9686 94.3819 77.7397 94.9559 78.7778C95.2476 79.3008 95.4126 79.8915 95.4126 80.5149C95.4126 81.1966 95.2176 81.8368 94.8707 82.3866C94.28 83.3374 93.2477 84.0249 92.0256 84.2183C91.7891 84.2583 91.5426 84.2772 91.2924 84.2751C89.0002 84.2599 87.1307 82.538 87.1307 80.4261C87.1307 78.3152 89.0002 76.6312 91.2924 76.6675Z" fill="url(#paint24_linear_786_111)"/>
<path d="M141.341 74.9589L136.905 74.8754L134.024 74.8223L126.622 74.6861L123.664 74.6294L118.653 74.5363L115.634 74.4812L99.5849 74.1821L96.4182 74.1232L88.2786 73.9718L85.0225 73.9114L80.8155 73.8336C80.7567 73.8315 80.6983 73.8315 80.6395 73.8336C79.5861 73.8452 78.6054 74.15 77.8227 74.6877C77.817 74.6914 77.8117 74.6951 77.8059 74.6993C76.7794 75.4115 76.0746 76.48 75.9516 77.7205C75.9442 77.8056 75.8465 77.8929 75.8422 77.9801C75.8401 78.0237 75.7482 78.0674 75.7482 78.111V89.0841L86.2204 88.7924L144.147 87.1614L145.431 87.1272V79.0313C145.431 76.7986 143.629 75.001 141.341 74.9589ZM134.425 80.9351C134.425 81.1569 134.404 81.3724 134.362 81.5832C134.048 83.2614 132.527 84.525 130.689 84.5134C130.464 84.5113 130.243 84.4924 130.026 84.453C128.263 84.1423 126.918 82.6459 126.918 80.8541C126.918 79.0623 128.263 77.5943 130.028 77.3215C130.242 77.2858 130.464 77.2705 130.689 77.2742C131.719 77.2895 132.653 77.7042 133.328 78.3654C134.006 79.0276 134.425 79.9369 134.425 80.9351ZM116.083 80.738C116.083 80.9519 116.064 81.1606 116.026 81.3629C115.712 83.1001 114.107 84.4125 112.17 84.4009C111.931 84.3988 111.699 84.3783 111.471 84.3384C110.124 84.1019 109.011 83.2246 108.509 82.0541C108.321 81.622 108.217 81.1485 108.217 80.6523C108.217 79.8529 108.486 79.116 108.941 78.5178C109.53 77.741 110.433 77.1938 111.475 77.0346C111.701 77.0004 111.934 76.9836 112.171 76.9872C113.239 77.0041 114.205 77.4209 114.91 78.0821C115.634 78.7627 116.083 79.7041 116.083 80.738ZM96.8555 80.5319C96.8555 80.7648 96.8329 80.9939 96.7871 81.2137C96.4402 82.9713 94.7678 84.2937 92.7505 84.2821C92.5024 84.28 92.2601 84.2595 92.0252 84.2175C90.0836 83.8916 88.6024 82.3216 88.6024 80.4426C88.6024 78.5614 90.0836 77.0235 92.0252 76.7397C92.2601 76.7018 92.5024 76.6866 92.7505 76.6903C93.8832 76.7071 94.906 77.1428 95.6487 77.8361C96.395 78.5294 96.8555 79.4844 96.8555 80.5319Z" fill="url(#paint25_linear_786_111)"/>
<path d="M145.431 86.8089V122.753C145.431 122.963 145.421 123.17 145.388 123.372C145.087 125.327 143.385 126.897 141.309 126.998L102.603 128.892L80.7546 130.059L80.7172 130.16H80.6868C78.2658 130.16 76.2249 128.631 75.8911 126.529C75.857 126.319 75.7482 126.004 75.7482 125.784V86.5918L85.5817 86.6223L144.147 86.8062L145.431 86.8089Z" fill="white"/>
<path d="M121.352 93.0705C121.352 92.5349 120.951 92.1034 120.388 92.1055L114.418 92.1302C113.846 92.1323 113.134 92.5764 113.134 93.1173V98.5757C113.134 99.1165 113.874 99.5444 114.445 99.537L120.251 99.4608C120.813 99.4535 121.352 99.0109 121.352 98.4753V93.0705H121.352Z" fill="#BFC8D6"/>
<path d="M131.722 93.0193C131.722 92.4905 131.262 92.0653 130.714 92.0674L125.168 92.09C124.611 92.0921 124.188 92.5289 124.188 93.0624V98.4482C124.188 98.9817 124.604 99.407 125.16 99.4001L130.732 99.3265C131.28 99.3197 131.722 98.8834 131.722 98.3547V93.0193Z" fill="#BFC8D6"/>
<path d="M142.022 92.971C142.022 92.4496 141.549 92.0292 141.015 92.0313L135.553 92.0491C135.011 92.0512 134.537 92.4775 134.537 93.0042V98.3186C134.537 98.8452 134.99 99.2688 135.532 99.2615L141.008 99.1921C141.541 99.1853 142.022 98.7569 142.022 98.2355V92.971Z" fill="#BFC8D6"/>
<path d="M121.352 102.956C121.352 102.42 120.951 101.994 120.388 102.003L114.418 102.1C113.846 102.109 113.134 102.56 113.134 103.101V108.559C113.134 109.1 113.874 109.521 114.445 109.507L120.251 109.359C120.813 109.345 121.352 108.896 121.352 108.361V102.956H121.352Z" fill="#BFC8D6"/>
<path d="M131.722 102.778C131.722 102.249 131.262 101.829 130.714 101.838L125.168 101.929C124.611 101.938 124.188 102.38 124.188 102.913V108.299C124.188 108.833 124.604 109.253 125.16 109.239L130.732 109.097C131.28 109.083 131.722 108.642 131.722 108.113V102.778Z" fill="url(#paint26_linear_786_111)"/>
<path d="M142.022 102.601C142.022 102.079 141.549 101.664 141.015 101.673L135.553 101.758C135.011 101.767 134.537 102.199 134.537 102.725V108.04C134.537 108.566 134.99 108.984 135.532 108.971L141.008 108.833C141.541 108.82 142.022 108.387 142.022 107.865V102.601Z" fill="#BFC8D6"/>
<path d="M88.5383 103.531C88.5383 102.974 88.0011 102.527 87.3909 102.537L81.2245 102.632C80.6042 102.642 80.1454 103.102 80.1454 103.666V109.353C80.1454 109.917 80.5816 110.365 81.2024 110.349L87.424 110.195C88.0342 110.18 88.5377 109.719 88.5377 109.161V103.531H88.5383Z" fill="#BFC8D6"/>
<path d="M99.7658 103.33C99.7658 102.78 99.3333 102.342 98.7393 102.352L92.6118 102.45C92.0084 102.459 91.4329 102.919 91.4329 103.475V109.084C91.4329 109.639 92.0331 110.076 92.6365 110.061L98.6847 109.907C99.2786 109.892 99.7658 109.433 99.7658 108.883V103.33Z" fill="#BFC8D6"/>
<path d="M110.596 103.153C110.596 102.61 110.157 102.172 109.58 102.182L103.542 102.276C102.955 102.286 102.321 102.738 102.321 103.286V108.82C102.321 109.368 102.97 109.797 103.557 109.782L109.494 109.636C110.072 109.622 110.596 109.173 110.596 108.631V103.153Z" fill="#BFC8D6"/>
<path d="M121.352 112.843C121.352 112.307 120.951 111.886 120.388 111.902L114.418 112.071C113.846 112.087 113.134 112.545 113.134 113.085V118.543C113.134 119.084 113.874 119.498 114.445 119.477L120.251 119.258C120.813 119.236 121.352 118.783 121.352 118.247V112.843H121.352Z" fill="#BFC8D6"/>
<path d="M131.722 112.536C131.722 112.007 131.262 111.592 130.714 111.608L125.168 111.768C124.611 111.784 124.188 112.231 124.188 112.764V118.15C124.188 118.684 124.604 119.099 125.16 119.078L130.732 118.866C131.28 118.845 131.722 118.4 131.722 117.872V112.536Z" fill="#BFC8D6"/>
<path d="M88.5383 113.828C88.5383 113.27 88.0011 112.831 87.3909 112.848L81.2245 113.021C80.6042 113.038 80.1454 113.504 80.1454 114.068V119.755C80.1454 120.319 80.5816 120.761 81.2024 120.738L87.424 120.505C88.0342 120.482 88.5377 120.014 88.5377 119.457V113.828H88.5383Z" fill="#BFC8D6"/>
<path d="M99.7658 113.487C99.7658 112.936 99.3333 112.504 98.7393 112.521L92.6118 112.695C92.0084 112.713 91.4329 113.179 91.4329 113.735V119.343C91.4329 119.899 92.0331 120.329 92.6365 120.306L98.6847 120.077C99.2786 120.055 99.7658 119.59 99.7658 119.04V113.487Z" fill="#BFC8D6"/>
<path d="M110.596 113.174C110.596 112.631 110.157 112.2 109.58 112.216L103.542 112.385C102.955 112.402 102.321 112.861 102.321 113.409V118.942C102.321 119.491 102.97 119.913 103.557 119.891L109.494 119.671C110.072 119.649 110.596 119.195 110.596 118.653V113.174Z" fill="#BFC8D6"/>
<path d="M92.3663 66.4997C88.521 66.393 85.3316 69.4899 85.0231 73.9145L88.2787 73.9749C88.5441 71.3322 90.3117 69.3417 92.3663 69.3916C94.5839 69.4452 96.4482 71.8946 96.4482 74.7544C96.4482 77.6137 94.5839 80.0026 92.3663 79.9773C91.21 79.9642 90.1451 79.292 89.3867 78.2476C88.9467 78.8436 88.1883 80.2097 88.9063 81.8622C89.9406 82.4924 91.1191 82.854 92.3663 82.864C96.3741 82.8955 99.606 79.2888 99.606 74.8112C99.6055 70.3325 96.3741 66.6112 92.3663 66.4997Z" fill="white"/>
<path d="M111.77 67.0298C108.104 66.9279 105.064 69.9538 104.77 74.2732L107.873 74.331C108.126 71.7503 109.811 69.8061 111.771 69.8539C113.885 69.9054 115.663 72.2964 115.663 75.089C115.663 77.8815 113.885 80.2147 111.771 80.191C110.668 80.1784 109.653 79.5225 108.929 78.5028C108.51 79.0851 107.787 80.4186 108.471 82.0322C109.458 82.6472 110.581 83.0004 111.771 83.0099C115.593 83.0398 118.675 79.5167 118.675 75.1431C118.675 70.769 115.592 67.136 111.77 67.0298Z" fill="white"/>
<path d="M130.34 67.5551C126.843 67.4578 123.945 70.4144 123.664 74.6318L126.623 74.687C126.864 72.1673 128.471 70.2677 130.34 70.3129C132.357 70.3618 134.053 72.696 134.053 75.4239C134.053 78.1513 132.357 80.4308 130.34 80.4082C129.289 80.3962 128.32 79.756 127.63 78.7605C127.23 79.3292 126.541 80.6316 127.194 82.2069C128.134 82.8071 129.206 83.1519 130.34 83.1608C133.985 83.1892 136.927 79.7476 136.927 75.4754C136.926 71.2028 133.985 67.6565 130.34 67.5551Z" fill="white"/>
<path opacity="0.3" d="M145.431 121.283V122.753C145.431 122.964 145.421 123.17 145.388 123.373C145.093 125.327 143.417 126.898 141.343 126.998L102.602 128.892L80.754 130.06C80.7314 130.06 80.7109 130.161 80.6883 130.161H80.6862C78.2805 130.161 76.2301 128.62 75.8905 126.529C75.8564 126.319 75.7476 126.004 75.7476 125.785V78.112C75.7476 78.0684 75.8395 78.0248 75.8416 77.9812C75.8453 77.8939 75.8974 77.8067 75.9047 77.7215C76.024 76.4769 76.7367 75.3899 77.7633 74.6777C77.7743 74.6814 77.7995 74.6851 77.8106 74.6893C80.2657 75.4945 83.4098 77.7993 85.0198 84.1602C85.2374 85.0185 85.4545 85.8406 85.6705 86.6227C85.8807 87.3822 86.0941 88.1038 86.3101 88.7934C88.7973 96.7148 91.9573 100.075 101.231 99.5768C108.058 99.2109 113.297 99.3418 116.599 102.066C116.652 102.107 116.705 102.153 116.758 102.198C117.94 103.219 118.868 104.592 119.524 106.422C119.836 107.293 120.086 108.269 120.272 109.358C120.28 109.396 120.287 109.436 120.293 109.475C120.625 111.47 122.091 112.703 124.186 113.572C124.203 113.579 124.22 113.585 124.237 113.593C126.292 114.436 128.954 114.932 131.721 115.466C131.749 115.47 131.776 115.476 131.805 115.482C136.257 116.34 141.156 117.294 144.198 119.959C144.458 120.185 144.701 120.425 144.932 120.679C145.108 120.872 145.431 121.073 145.431 121.283Z" fill="#BFC8D6"/>
<path opacity="0.3" d="M145.431 122.577V122.755C145.431 122.965 145.421 123.172 145.388 123.374C145.093 125.329 143.417 126.899 141.343 127L102.602 128.894C102.591 128.778 102.584 128.661 102.577 128.545C102.542 128.068 102.528 127.587 102.526 127.102C102.52 124.566 102.946 122.136 103.73 119.887C104.742 116.985 106.35 114.385 108.399 112.252C109.792 110.803 111.385 109.567 113.135 108.601C115.093 107.516 117.245 106.766 119.524 106.423C120.124 106.332 120.735 106.27 121.352 106.238C121.676 106.219 122.002 106.209 122.329 106.209C122.484 106.207 123.413 106.217 124.186 106.225C124.701 106.232 125.144 106.238 125.246 106.241C125.951 106.268 126.637 106.334 127.304 106.435C128.829 106.531 130.308 106.81 131.721 107.249C132.723 107.56 133.693 107.95 134.621 108.418C134.969 108.591 135.312 108.775 135.647 108.97C139.409 111.144 142.426 114.561 144.197 118.695C144.476 119.341 144.717 120.003 144.931 120.681C145.127 121.3 145.431 121.932 145.431 122.577Z" fill="#BFC8D6"/>
<path d="M145.365 127.005C145.39 138.342 139.364 147.594 128.632 147.898C128.466 147.903 125.727 147.898 125.56 147.898C114.597 147.925 105.689 138.614 105.663 127.101C105.638 115.589 114.504 106.235 125.468 106.208C125.724 106.207 128.131 106.231 128.385 106.241C138.994 106.637 145.34 115.762 145.365 127.005Z" fill="url(#paint27_linear_786_111)"/>
<path d="M129.225 148.085C140.188 148.085 149.076 138.752 149.076 127.24C149.076 115.727 140.188 106.395 129.225 106.395C118.262 106.395 109.374 115.727 109.374 127.24C109.374 138.752 118.262 148.085 129.225 148.085Z" fill="url(#paint28_linear_786_111)"/>
<path opacity="0.3" d="M129.225 147.56C139.912 147.56 148.576 138.462 148.576 127.24C148.576 116.017 139.912 106.92 129.225 106.92C118.538 106.92 109.874 116.017 109.874 127.24C109.874 138.462 118.538 147.56 129.225 147.56Z" fill="url(#paint29_linear_786_111)"/>
<path d="M129.225 146.945C139.589 146.945 147.991 138.122 147.991 127.239C147.991 116.355 139.589 107.532 129.225 107.532C118.861 107.532 110.459 116.355 110.459 127.239C110.459 138.122 118.861 146.945 129.225 146.945Z" fill="url(#paint30_linear_786_111)"/>
<path d="M128.824 146.525C138.967 146.525 147.189 137.891 147.189 127.24C147.189 116.589 138.967 107.955 128.824 107.955C118.681 107.955 110.459 116.589 110.459 127.24C110.459 137.891 118.681 146.525 128.824 146.525Z" fill="url(#paint31_linear_786_111)"/>
<path d="M130.763 126.686L144.752 132.111C145.208 130.579 145.454 128.949 145.454 127.259C145.454 118.556 138.947 111.45 130.763 111.011V126.686Z" fill="url(#paint32_linear_786_111)"/>
<g opacity="0.54">
<path d="M124.213 126.802C122.76 122.098 128.011 118.704 127.183 113.221C126.818 110.802 125.396 108.82 123.648 107.229C115.383 109.766 109.353 117.792 109.374 127.288C109.4 138.8 118.308 148.111 129.271 148.084C131.959 148.078 134.521 147.509 136.857 146.487C136.518 139.834 134.477 136.076 132.307 133.812C128.962 130.322 125.32 130.389 124.213 126.802Z" fill="#D8DEE8"/>
</g>
<path d="M128.772 128.768C129.417 128.768 129.94 128.219 129.94 127.542C129.94 126.864 129.417 126.315 128.772 126.315C128.127 126.315 127.604 126.864 127.604 127.542C127.604 128.219 128.127 128.768 128.772 128.768Z" fill="url(#paint33_linear_786_111)"/>
<path d="M128.772 117.77C128.365 117.77 128.034 118.116 128.034 118.544V126.81C128.034 127.238 128.365 127.585 128.772 127.585C129.18 127.585 129.51 127.238 129.51 126.81V118.544C129.51 118.116 129.18 117.77 128.772 117.77Z" fill="url(#paint34_linear_786_111)"/>
<path d="M128.692 127.725C128.532 127.539 128.26 127.523 128.082 127.69L118.145 137.237C117.968 137.404 117.953 137.691 118.112 137.877C118.271 138.063 118.544 138.079 118.721 137.912L128.658 128.364C128.836 128.197 128.851 127.911 128.692 127.725Z" fill="url(#paint35_linear_786_111)"/>
<path d="M41.9794 28.778C43.3229 29.4603 45.0111 28.8338 45.7496 27.3789C46.4881 25.924 45.9977 24.1916 44.6542 23.5094C44.5849 23.4741 44.5134 23.4442 44.4424 23.4158C44.6921 22.6106 44.8802 21.7996 45.0064 20.988C45.0831 20.988 45.1609 20.9865 45.2392 20.9796C46.7719 20.843 47.9887 19.4343 47.9566 17.8333C47.9246 16.2323 46.6557 15.045 45.1231 15.1817C45.0432 15.189 44.9643 15.2016 44.886 15.2153C44.7257 14.4216 44.5065 13.6469 44.2295 12.8968C44.3 12.8558 44.3704 12.8127 44.4387 12.7649C45.7501 11.8462 46.1696 10.0328 45.3754 8.71459C44.5812 7.39637 42.874 7.0726 41.5626 7.99136C41.4953 8.03866 41.4323 8.08912 41.3697 8.14116C40.852 7.56824 40.2838 7.03791 39.6689 6.5533C39.712 6.48234 39.7545 6.41086 39.7929 6.33517C40.5314 4.88029 41.4969 3.29086 40.1424 2.63017C37.0098 1.10118 35.6658 2.40994 34.9268 3.86482C34.8885 3.93998 34.8559 4.01672 34.8238 4.09346C34.0701 3.88322 33.3064 3.73763 32.5385 3.65721C32.5432 3.57626 32.5469 3.49532 32.5453 3.41333C32.5133 1.81233 32.9884 0.94613 31.4494 0.91617C28.094 0.850995 26.9618 2.30745 26.9939 3.90845C26.9954 3.99202 27.0023 4.07401 27.0107 4.15496C26.2417 4.37413 25.4864 4.65428 24.7516 4.9933C24.7169 4.92182 24.6807 4.85086 24.6391 4.78201C23.8449 3.46379 22.1378 3.14001 20.8264 4.05877C19.515 4.97753 19.0956 6.79087 19.8898 8.1091C19.9302 8.1769 19.9749 8.23997 20.0201 8.30199C19.4393 8.88279 18.8953 9.51351 18.3928 10.19C18.3277 10.149 18.262 10.1096 18.1921 10.0738C16.8486 9.39157 15.1604 10.0181 14.4219 11.473C13.6834 12.9279 14.1738 14.6603 15.5172 15.3425C15.5866 15.3777 15.6581 15.4077 15.7291 15.436C15.4794 16.2413 15.2912 17.0523 15.1651 17.8638C15.0878 17.8638 15.0106 17.8654 14.9322 17.8722C13.399 18.0089 12.1828 19.4175 12.2149 21.0185C12.2469 22.6195 13.5157 23.8069 15.0484 23.6702C15.1283 23.6628 15.2071 23.6508 15.2854 23.6366C15.4458 24.4302 15.6649 25.205 15.9419 25.955C15.8715 25.996 15.8011 26.0391 15.7327 26.0869C14.4214 27.0057 14.0019 28.819 14.7961 30.1373C15.5903 31.4555 18.2199 32.0678 19.5313 31.1491C19.5986 31.1017 18.7392 30.7622 18.8018 30.7107C19.3195 31.2831 19.8877 31.8139 20.5026 32.2986C20.4595 32.3695 20.4169 32.441 20.3791 32.5167C19.6406 33.9716 20.131 35.704 21.4745 36.3862C22.8179 37.0684 24.5062 36.4419 25.2446 34.987C25.283 34.9119 25.3156 34.8351 25.3477 34.7584C26.1014 34.9686 26.8651 35.1142 27.633 35.1946C27.6283 35.2756 27.6246 35.3565 27.6262 35.4385C27.6582 37.0395 28.927 38.2263 30.4597 38.0902C31.9924 37.9536 33.2092 36.5449 33.1771 34.9439C33.1755 34.8604 33.1687 34.7784 33.1603 34.6974C33.9292 34.4782 34.6845 34.1981 35.4193 33.8591C35.454 33.9306 35.4903 34.0015 35.5318 34.0704C36.326 35.3886 38.0332 35.7124 39.3446 34.7936C40.6559 33.8748 41.0754 32.0615 40.2812 30.7433C40.2407 30.676 40.196 30.6129 40.1508 30.5504C40.7316 29.9696 41.2756 29.3389 41.7781 28.6624C41.8438 28.7029 41.9095 28.7428 41.9794 28.778ZM25.2299 28.9909C20.3518 26.5143 18.571 20.2243 21.2532 14.942C23.9348 9.65963 30.0639 7.38533 34.9421 9.86252C39.8202 12.3392 41.601 18.6291 38.9188 23.9115C36.2372 29.1933 30.1081 31.4676 25.2299 28.9909Z" fill="url(#paint36_linear_786_111)"/>
<path d="M45.2391 20.9799C46.7718 20.8433 47.9886 19.4346 47.9565 17.8336C47.9245 16.2326 46.6557 15.0453 45.123 15.1819C45.0431 15.1893 44.9643 15.2019 44.8859 15.2156C44.7262 14.4219 44.5064 13.6472 44.2295 12.8971C44.2999 12.8561 44.3703 12.813 44.4386 12.7652C45.75 11.8464 47.3726 9.62629 46.4475 8.39637C44.6915 6.06215 42.8739 7.07289 41.5625 7.99165C41.4952 8.03896 41.4322 8.08941 41.3696 8.14145C40.8514 7.56854 40.2837 7.0382 39.6688 6.55359C39.7119 6.48263 39.7544 6.41115 39.7928 6.33546C40.1949 5.5439 40.2301 4.67087 39.9647 3.92871C38.698 6.15833 37.4481 8.39689 36.2208 10.6481C40.1124 13.5 41.3518 19.1198 38.9187 23.9112C36.8573 27.9715 32.7597 30.2511 28.7588 29.9657C28.58 30.4287 28.405 30.8939 28.2137 31.3522C27.6949 32.5963 27.1057 33.8147 26.516 35.0315C26.8871 35.1014 27.2597 35.1566 27.6334 35.1955C27.6287 35.2764 27.625 35.3573 27.6266 35.4393C27.6587 37.0403 28.6305 38.4006 31.4089 38.2534C32.9457 38.172 33.2096 36.5457 33.1775 34.9447C33.1759 34.8612 33.1691 34.7792 33.1607 34.6982C33.9297 34.4791 34.685 34.1989 35.4198 33.8599C35.4545 33.9314 35.4907 34.0023 35.5322 34.0712C36.3264 35.3894 39.0817 35.9497 40.3936 35.0304C41.705 34.1117 41.0758 32.0618 40.2816 30.7436C40.2412 30.6763 40.1965 30.6127 40.1513 30.5507C40.7321 29.9699 41.2761 29.3392 41.7786 28.6627C41.8437 28.7037 41.9094 28.7431 41.9793 28.7783C43.3228 29.4606 45.011 28.834 45.7495 27.3792C46.488 25.9243 45.9976 24.1919 44.6541 23.5097C44.5848 23.4744 44.5133 23.4445 44.4423 23.4161C44.692 22.6109 44.8802 21.7999 45.0063 20.9883C45.083 20.9883 45.1603 20.9873 45.2391 20.9799Z" fill="url(#paint37_linear_786_111)"/>
<path d="M43.4244 28.9427C44.7679 29.6249 46.4561 28.9984 47.1946 27.5435C47.9331 26.0886 47.4427 24.3562 46.0992 23.674C46.0298 23.6388 45.9584 23.6088 45.8874 23.5804C46.1371 22.7752 46.3252 21.9642 46.4514 21.1527C46.5281 21.1527 46.6059 21.1511 46.6842 21.1443C48.2169 21.0076 49.4337 19.599 49.4016 17.998C49.3695 16.397 48.1007 15.2096 46.5681 15.3463C46.4876 15.3536 46.4093 15.3663 46.331 15.3799C46.1707 14.5863 45.9515 13.8115 45.6745 13.0615C45.745 13.02 45.8154 12.9774 45.8837 12.9295C47.1951 12.0108 47.6146 10.1974 46.8204 8.87922C46.0262 7.561 44.319 7.23723 43.0076 8.15599C42.9403 8.2033 42.8773 8.25375 42.8147 8.30526C42.2965 7.73235 41.7288 7.20201 41.1138 6.7174C41.1569 6.64645 41.1995 6.57497 41.2379 6.49928C41.9764 5.0444 41.486 3.312 40.1425 2.62976C38.7991 1.94753 37.1108 2.57405 36.3724 4.02893C36.334 4.10409 36.3009 4.18083 36.2693 4.25757C35.5156 4.04732 34.7519 3.90173 33.984 3.82131C33.9887 3.74037 33.9924 3.65943 33.9908 3.57743C33.9588 1.97643 32.69 0.789089 31.1573 0.925747C29.6246 1.0624 28.4078 2.47103 28.4399 4.07203C28.4415 4.1556 28.4488 4.23759 28.4567 4.31854C27.6878 4.53772 26.9325 4.81786 26.1977 5.15688C26.163 5.08539 26.1267 5.01444 26.0852 4.94559C25.291 3.62736 23.5838 3.30359 22.2724 4.22235C20.961 5.14111 20.5416 6.95445 21.3358 8.27267C21.3763 8.33995 21.421 8.40355 21.4662 8.46557C20.8854 9.04637 20.3414 9.6771 19.8389 10.3536C19.7737 10.3126 19.708 10.2731 19.6381 10.2374C18.2946 9.55515 16.6064 10.1817 15.8679 11.6366C15.1294 13.0914 15.6198 14.8238 16.9633 15.5061C17.0327 15.5413 17.1041 15.5712 17.1751 15.5996C16.9254 16.4049 16.7373 17.2159 16.6111 18.0274C16.5339 18.0274 16.4566 18.029 16.3783 18.0358C14.8451 18.1725 13.6288 19.5811 13.6609 21.1821C13.693 22.7831 14.9618 23.9704 16.4944 23.8338C16.5743 23.8264 16.6532 23.8138 16.7315 23.8001C16.8918 24.5933 17.111 25.3686 17.388 26.1186C17.3175 26.1596 17.2471 26.2027 17.1788 26.2505C15.8674 27.1693 15.448 28.9826 16.2422 30.3008C17.0363 31.6191 18.7435 31.9428 20.0549 31.0241C20.1222 30.9768 20.1853 30.9263 20.2478 30.8743C20.766 31.4467 21.3337 31.9775 21.9487 32.4621C21.9056 32.5331 21.863 32.6046 21.8251 32.6803C21.0867 34.1351 21.5771 35.8675 22.9205 36.5498C24.264 37.232 25.9522 36.6055 26.6907 35.1506C26.7291 35.0755 26.7622 34.9987 26.7937 34.922C27.5474 35.1322 28.3111 35.2778 29.079 35.3582C29.0743 35.4392 29.0706 35.5201 29.0722 35.6021C29.1043 37.2031 30.3731 38.3905 31.9057 38.2538C33.4384 38.1171 34.6552 36.7085 34.6231 35.1075C34.6216 35.0239 34.6147 34.9419 34.6063 34.861C35.3753 34.6418 36.1306 34.3617 36.8654 34.0227C36.9001 34.0941 36.9369 34.1651 36.9784 34.234C37.7726 35.5522 39.4797 35.8759 40.7911 34.9572C42.1025 34.0384 42.5219 32.2251 41.7278 30.9069C41.6873 30.8396 41.6426 30.7765 41.5974 30.714C42.1782 30.1332 42.7222 29.5024 43.2247 28.826C43.2888 28.8675 43.355 28.9075 43.4244 28.9427ZM26.6754 29.155C21.7973 26.6784 20.0165 20.3884 22.6987 15.1061C25.3809 9.82374 31.5094 7.54997 36.3876 10.0266C41.2658 12.5033 43.0465 18.7932 40.3643 24.0756C37.6822 29.3579 31.5536 31.6317 26.6754 29.155Z" fill="url(#paint38_linear_786_111)"/>
<path d="M69.2012 39.8961C70.1804 40.3933 71.4104 39.9365 71.9491 38.8764C72.4873 37.8162 72.1299 36.5537 71.1507 36.0565C71.1002 36.0308 71.0482 36.0092 70.9962 35.9882C71.178 35.4016 71.3152 34.8103 71.4072 34.219C71.4634 34.219 71.5197 34.2179 71.577 34.2127C72.6939 34.1133 73.5806 33.0868 73.5575 31.92C73.5343 30.7531 72.6093 29.888 71.4923 29.9879C71.434 29.9931 71.3767 30.0021 71.3194 30.0126C71.2027 29.4344 71.043 28.8694 70.8411 28.3227C70.8926 28.2928 70.9436 28.2618 70.9935 28.2266C71.9491 27.5569 72.255 26.2356 71.6763 25.2748C71.0976 24.3139 69.8535 24.0779 68.898 24.7476C68.8491 24.7817 68.8028 24.819 68.7571 24.8564C68.3797 24.439 67.9655 24.0522 67.5177 23.6995C67.5492 23.648 67.5803 23.5954 67.6081 23.5408C68.1463 22.4806 68.8496 21.3222 67.863 20.8407C65.5803 19.7264 64.6006 20.6804 64.0624 21.7406C64.0345 21.7952 64.0103 21.8515 63.9872 21.9072C63.438 21.7537 62.8813 21.6475 62.3216 21.5892C62.3252 21.5303 62.3279 21.4715 62.3268 21.4115C62.3032 20.2447 62.6495 19.6134 61.5284 19.5914C59.0833 19.5441 58.2581 20.6053 58.2818 21.7721C58.2828 21.8331 58.2881 21.8925 58.2938 21.9519C57.7335 22.1116 57.1832 22.3156 56.6476 22.5626C56.6224 22.5106 56.5956 22.4591 56.5656 22.4086C55.987 21.4478 54.7428 21.2118 53.7868 21.8814C52.8312 22.5511 52.5253 23.8724 53.104 24.8332C53.1334 24.8826 53.166 24.9284 53.1991 24.9741C52.776 25.3972 52.3797 25.8571 52.0134 26.3501C51.9661 26.3202 51.9177 26.2913 51.8673 26.2655C50.888 25.7683 49.6581 26.225 49.1199 27.2852C48.5817 28.3453 48.9391 29.6078 49.9183 30.1051C49.9688 30.1308 50.0208 30.1524 50.0728 30.1734C49.891 30.76 49.7538 31.3513 49.6618 31.9426C49.6056 31.9426 49.5493 31.9436 49.492 31.9489C48.3746 32.0488 47.4884 33.0753 47.5116 34.2416C47.5347 35.4084 48.4597 36.2736 49.5767 36.1737C49.635 36.1685 49.6923 36.1595 49.7496 36.149C49.8663 36.7272 50.0261 37.2922 50.2279 37.8388C50.1764 37.8688 50.1254 37.8998 50.0755 37.935C49.1199 38.6047 48.814 39.926 49.3932 40.8868C49.9719 41.8476 51.8883 42.2939 52.8438 41.6243C52.8927 41.5901 52.2667 41.3425 52.3124 41.3047C52.6898 41.722 53.104 42.1089 53.5518 42.4616C53.5203 42.5131 53.4893 42.5656 53.4614 42.6203C52.9232 43.6804 53.2806 44.9429 54.2598 45.4402C55.239 45.9374 56.4689 45.4806 57.0077 44.4205C57.0355 44.3653 57.0597 44.3096 57.0829 44.2539C57.6321 44.4074 58.1887 44.5135 58.7485 44.5719C58.7448 44.6307 58.7422 44.6896 58.7432 44.7495C58.7664 45.9164 59.6914 46.7815 60.8083 46.6817C61.9253 46.5823 62.812 45.5553 62.7888 44.389C62.7878 44.328 62.7825 44.2686 62.7762 44.2092C63.3365 44.0494 63.8868 43.8455 64.4224 43.5984C64.4476 43.6505 64.4745 43.702 64.5044 43.7524C65.0831 44.7133 66.3272 44.9493 67.2833 44.2796C68.2388 43.61 68.5447 42.2886 67.9661 41.3278C67.9366 41.2784 67.904 41.2327 67.8709 41.187C68.294 40.7638 68.6903 40.3039 69.0567 39.8109C69.1024 39.8414 69.1502 39.8703 69.2012 39.8961ZM56.9951 40.0511C53.4399 38.2462 52.1421 33.6624 54.0969 29.8128C56.0511 25.9633 60.5177 24.3061 64.0729 26.111C67.6281 27.9159 68.9258 32.4997 66.9711 36.3493C65.0164 40.1988 60.5497 41.8561 56.9951 40.0511Z" fill="url(#paint39_linear_786_111)"/>
<path d="M71.5765 34.2124C72.6934 34.1126 73.5801 33.0861 73.557 31.9198C73.5338 30.7529 72.6088 29.8878 71.4918 29.9876C71.4335 29.9929 71.3762 30.0018 71.3189 30.0123C71.2022 29.4342 71.0425 28.8691 70.8406 28.3225C70.8921 28.2925 70.9431 28.2615 70.993 28.2263C71.9486 27.5567 73.1312 25.9389 72.4569 25.0427C71.177 23.3419 69.8525 24.0782 68.8969 24.7479C68.848 24.782 68.8018 24.8193 68.7566 24.8567C68.3792 24.4393 67.965 24.0525 67.5172 23.6998C67.5487 23.6483 67.5798 23.5957 67.6076 23.5411C67.9004 22.9639 67.9267 22.328 67.7327 21.7871C66.8097 23.4118 65.8989 25.0438 65.0043 26.6842C67.8405 28.7624 68.7435 32.858 66.9706 36.3496C65.4684 39.3082 62.4819 40.9696 59.5664 40.7615C59.4365 41.0989 59.3088 41.438 59.1695 41.7722C58.7916 42.6789 58.3622 43.5667 57.9323 44.4534C58.2024 44.5043 58.4742 44.5443 58.7464 44.5732C58.7427 44.6321 58.7401 44.6915 58.7412 44.7509C58.7643 45.9177 59.4728 46.909 61.4974 46.8018C62.6175 46.7424 62.8099 45.5571 62.7868 44.3903C62.7857 44.3293 62.7804 44.2699 62.7741 44.2105C63.3344 44.0507 63.8847 43.8468 64.4203 43.5998C64.4456 43.6518 64.4724 43.7033 64.5023 43.7538C65.081 44.7146 67.0894 45.1225 68.0449 44.4528C69.0005 43.7832 68.5421 42.2894 67.9635 41.3286C67.934 41.2792 67.9014 41.2335 67.8683 41.1878C68.2914 40.7647 68.6877 40.3048 69.0541 39.8117C69.1014 39.8417 69.1497 39.8706 69.2002 39.8964C70.1794 40.3936 71.4093 39.9368 71.9481 38.8767C72.4863 37.8165 72.1289 36.554 71.1497 36.0568C71.0987 36.031 71.0472 36.0095 70.9952 35.9885C71.177 35.4019 71.3142 34.8106 71.4062 34.2193C71.4629 34.2188 71.5197 34.2177 71.5765 34.2124Z" fill="url(#paint40_linear_786_111)"/>
<path d="M70.254 40.0153C71.2332 40.5126 72.4631 40.0558 73.0019 38.9956C73.5401 37.9355 73.1827 36.673 72.2035 36.1758C72.153 36.15 72.101 36.1285 72.049 36.1074C72.2308 35.5209 72.368 34.9296 72.46 34.3383C72.5162 34.3383 72.5725 34.3372 72.6297 34.3319C73.7467 34.2321 74.6334 33.2056 74.6102 32.0392C74.5866 30.8724 73.662 30.0073 72.5451 30.1071C72.4868 30.1124 72.4295 30.1218 72.3722 30.1318C72.2555 29.5537 72.0957 28.9886 71.8939 28.442C71.9454 28.412 71.9964 28.381 72.0463 28.3458C73.0019 27.6762 73.3078 26.3548 72.7291 25.394C72.1504 24.4332 70.9063 24.1972 69.9502 24.8668C69.9013 24.901 69.8551 24.9383 69.8099 24.9756C69.4325 24.5583 69.0183 24.1714 68.5705 23.8188C68.602 23.7673 68.633 23.7147 68.6609 23.66C69.1991 22.5999 68.8417 21.3374 67.8625 20.8401C66.8833 20.3429 65.6534 20.7997 65.1146 21.8598C65.0868 21.9145 65.0626 21.9707 65.0395 22.0264C64.4902 21.873 63.9336 21.7668 63.3738 21.7085C63.3775 21.6496 63.3801 21.5907 63.3791 21.5308C63.3554 20.3639 62.4309 19.4988 61.314 19.5987C60.197 19.698 59.3103 20.725 59.3335 21.8914C59.3345 21.9523 59.3398 22.0117 59.3461 22.0711C58.7858 22.2309 58.2355 22.4348 57.6999 22.6819C57.6747 22.6298 57.6479 22.5783 57.6179 22.5279C57.0392 21.5671 55.7951 21.3311 54.839 22.0007C53.8835 22.6703 53.5776 23.9917 54.1563 24.9525C54.1857 25.0019 54.2183 25.0476 54.2514 25.0934C53.8283 25.5165 53.432 25.9764 53.0656 26.4694C53.0183 26.4394 52.9705 26.4105 52.9195 26.3848C51.9403 25.8875 50.7104 26.3443 50.1722 27.4044C49.6339 28.4646 49.9913 29.7271 50.9706 30.2243C51.0215 30.2501 51.073 30.2716 51.1251 30.2927C50.9432 30.8792 50.806 31.4705 50.7141 32.0618C50.6578 32.0618 50.6016 32.0629 50.5443 32.0682C49.4274 32.168 48.5407 33.1945 48.5638 34.3614C48.5869 35.5282 49.512 36.3934 50.6289 36.2935C50.6872 36.2882 50.7445 36.2793 50.8018 36.2688C50.9185 36.847 51.0783 37.412 51.2801 37.9586C51.2286 37.9886 51.1776 38.0196 51.1277 38.0548C50.1722 38.7244 49.8663 40.0458 50.4449 41.0066C51.0236 41.9674 52.2677 42.2034 53.2238 41.5338C53.2727 41.4996 53.319 41.4623 53.3642 41.425C53.7416 41.8423 54.1557 42.2292 54.6035 42.5819C54.572 42.6334 54.541 42.6859 54.5131 42.7406C53.9749 43.8007 54.3323 45.0633 55.3115 45.5605C56.2907 46.0577 57.5207 45.6009 58.0594 44.5408C58.0873 44.4861 58.1114 44.4299 58.1346 44.3742C58.6838 44.5277 59.2404 44.6338 59.8002 44.6922C59.7965 44.751 59.7939 44.8099 59.795 44.8698C59.8186 46.0367 60.7431 46.9018 61.8601 46.802C62.977 46.7026 63.8637 45.6756 63.8406 44.5093C63.8395 44.4483 63.8342 44.3889 63.8279 44.3295C64.3882 44.1697 64.9385 43.9658 65.4741 43.7188C65.4994 43.7708 65.5262 43.8223 65.5561 43.8728C66.1348 44.8336 67.3789 45.0696 68.3345 44.3999C69.29 43.7303 69.5959 42.4089 69.0173 41.4481C68.9878 41.3993 68.9552 41.353 68.9221 41.3073C69.3452 40.8842 69.7415 40.4242 70.1079 39.9312C70.1552 39.9607 70.2035 39.9896 70.254 40.0153ZM58.0478 40.1699C54.4926 38.3649 53.1949 33.7811 55.1496 29.9316C57.1044 26.082 61.5705 24.4248 65.1257 26.2297C68.6809 28.0347 69.9786 32.6185 68.0239 36.468C66.0696 40.3176 61.603 41.9753 58.0478 40.1699Z" fill="url(#paint41_linear_786_111)"/>
</g>
<defs>
<linearGradient id="paint0_linear_786_111" x1="106.53" y1="22.773" x2="124.466" y2="114.5" gradientUnits="userSpaceOnUse">
<stop offset="0.00359712" stop-color="#E38DDD"/>
<stop offset="1" stop-color="#9571F6"/>
</linearGradient>
<linearGradient id="paint1_linear_786_111" x1="65.15" y1="80.5791" x2="208.298" y2="3.67112" gradientUnits="userSpaceOnUse">
<stop stop-color="#FDF53F"/>
<stop offset="1" stop-color="#D93C65"/>
</linearGradient>
<linearGradient id="paint2_linear_786_111" x1="123.659" y1="36.6576" x2="108.916" y2="67.1273" gradientUnits="userSpaceOnUse">
<stop stop-color="#AA80F9"/>
<stop offset="0.9964" stop-color="#6165D7"/>
</linearGradient>
<linearGradient id="paint3_linear_786_111" x1="127.817" y1="38.656" x2="113.089" y2="69.0944" gradientUnits="userSpaceOnUse">
<stop stop-color="#AA80F9"/>
<stop offset="0.9964" stop-color="#6165D7"/>
</linearGradient>
<linearGradient id="paint4_linear_786_111" x1="49.563" y1="129.83" x2="48.5081" y2="143.255" gradientUnits="userSpaceOnUse">
<stop offset="0.003597" stop-color="#26264F"/>
<stop offset="1" stop-color="#444B8C"/>
</linearGradient>
<linearGradient id="paint5_linear_786_111" x1="47.0575" y1="137.321" x2="47.2488" y2="123.453" gradientUnits="userSpaceOnUse">
<stop stop-color="#FFC444"/>
<stop offset="0.9964" stop-color="#F36F56"/>
</linearGradient>
<linearGradient id="paint6_linear_786_111" x1="31.7989" y1="128.259" x2="30.7412" y2="141.719" gradientUnits="userSpaceOnUse">
<stop offset="0.003597" stop-color="#26264F"/>
<stop offset="1" stop-color="#444B8C"/>
</linearGradient>
<linearGradient id="paint7_linear_786_111" x1="30.7688" y1="137.07" x2="30.96" y2="123.204" gradientUnits="userSpaceOnUse">
<stop stop-color="#FFC444"/>
<stop offset="0.9964" stop-color="#F36F56"/>
</linearGradient>
<linearGradient id="paint8_linear_786_111" x1="50.0197" y1="114.867" x2="40.8535" y2="114.867" gradientUnits="userSpaceOnUse">
<stop stop-color="#AB316D"/>
<stop offset="1" stop-color="#792D3D"/>
</linearGradient>
<linearGradient id="paint9_linear_786_111" x1="49.386" y1="114.867" x2="40.8536" y2="114.867" gradientUnits="userSpaceOnUse">
<stop stop-color="#AB316D"/>
<stop offset="1" stop-color="#792D3D"/>
</linearGradient>
<linearGradient id="paint10_linear_786_111" x1="47.475" y1="113.856" x2="29.0224" y2="113.856" gradientUnits="userSpaceOnUse">
<stop stop-color="#AB316D"/>
<stop offset="1" stop-color="#792D3D"/>
</linearGradient>
<linearGradient id="paint11_linear_786_111" x1="34.3035" y1="66.8079" x2="16.6691" y2="82.9478" gradientUnits="userSpaceOnUse">
<stop offset="0.003597" stop-color="#26264F"/>
<stop offset="1" stop-color="#444B8C"/>
</linearGradient>
<linearGradient id="paint12_linear_786_111" x1="78.0444" y1="62.2079" x2="74.7619" y2="62.2079" gradientUnits="userSpaceOnUse">
<stop stop-color="#FFC444"/>
<stop offset="0.9964" stop-color="#F36F56"/>
</linearGradient>
<linearGradient id="paint13_linear_786_111" x1="63.4799" y1="73.5608" x2="50.41" y2="117.695" gradientUnits="userSpaceOnUse">
<stop stop-color="#AA80F9"/>
<stop offset="0.9964" stop-color="#6165D7"/>
</linearGradient>
<linearGradient id="paint14_linear_786_111" x1="47.0583" y1="68.6991" x2="33.9884" y2="112.833" gradientUnits="userSpaceOnUse">
<stop stop-color="#AA80F9"/>
<stop offset="0.9964" stop-color="#6165D7"/>
</linearGradient>
<linearGradient id="paint15_linear_786_111" x1="53.9837" y1="82.7872" x2="59.7277" y2="92.3081" gradientUnits="userSpaceOnUse">
<stop offset="0.003597" stop-color="#6165D7"/>
<stop offset="1" stop-color="#AA80F9"/>
</linearGradient>
<linearGradient id="paint16_linear_786_111" x1="50.0784" y1="82.4447" x2="64.309" y2="90.019" gradientUnits="userSpaceOnUse">
<stop stop-color="#FF9085"/>
<stop offset="1" stop-color="#FB6FBB"/>
</linearGradient>
<linearGradient id="paint17_linear_786_111" x1="56.5477" y1="72.8058" x2="58.2366" y2="78.3331" gradientUnits="userSpaceOnUse">
<stop offset="0.003597" stop-color="#26264F"/>
<stop offset="1" stop-color="#444B8C"/>
</linearGradient>
<linearGradient id="paint18_linear_786_111" x1="50.6287" y1="81.5323" x2="64.7872" y2="89.0684" gradientUnits="userSpaceOnUse">
<stop stop-color="#FF9085"/>
<stop offset="1" stop-color="#FB6FBB"/>
</linearGradient>
<linearGradient id="paint19_linear_786_111" x1="52.4542" y1="87.3987" x2="47.2715" y2="87.3987" gradientUnits="userSpaceOnUse">
<stop stop-color="#FFC444"/>
<stop offset="0.9964" stop-color="#F36F56"/>
</linearGradient>
<linearGradient id="paint20_linear_786_111" x1="54.8029" y1="87.3629" x2="21.1637" y2="87.3629" gradientUnits="userSpaceOnUse">
<stop stop-color="#AA80F9"/>
<stop offset="0.9964" stop-color="#6165D7"/>
</linearGradient>
<linearGradient id="paint21_linear_786_111" x1="45.2652" y1="68.1667" x2="32.1953" y2="112.301" gradientUnits="userSpaceOnUse">
<stop stop-color="#AA80F9"/>
<stop offset="0.9964" stop-color="#6165D7"/>
</linearGradient>
<linearGradient id="paint22_linear_786_111" x1="51.9275" y1="69.1781" x2="47.4139" y2="58.3933" gradientUnits="userSpaceOnUse">
<stop stop-color="#FFC444"/>
<stop offset="0.9964" stop-color="#F36F56"/>
</linearGradient>
<linearGradient id="paint23_linear_786_111" x1="53.6344" y1="64.7097" x2="43.6118" y2="55.3952" gradientUnits="userSpaceOnUse">
<stop stop-color="#FFC444"/>
<stop offset="0.9964" stop-color="#F36F56"/>
</linearGradient>
<linearGradient id="paint24_linear_786_111" x1="-11.6467" y1="101.983" x2="58.4021" y2="101.983" gradientUnits="userSpaceOnUse">
<stop stop-color="#311944"/>
<stop offset="1" stop-color="#893976"/>
</linearGradient>
<linearGradient id="paint25_linear_786_111" x1="75.7481" y1="81.4583" x2="145.431" y2="81.4583" gradientUnits="userSpaceOnUse">
<stop stop-color="#FF9085"/>
<stop offset="1" stop-color="#FB6FBB"/>
</linearGradient>
<linearGradient id="paint26_linear_786_111" x1="124.187" y1="105.538" x2="131.721" y2="105.538" gradientUnits="userSpaceOnUse">
<stop stop-color="#FF9085"/>
<stop offset="1" stop-color="#FB6FBB"/>
</linearGradient>
<linearGradient id="paint27_linear_786_111" x1="108.967" y1="110.57" x2="143.406" y2="143.608" gradientUnits="userSpaceOnUse">
<stop stop-color="#AB316D"/>
<stop offset="1" stop-color="#792D3D"/>
</linearGradient>
<linearGradient id="paint28_linear_786_111" x1="137.427" y1="114.917" x2="97.7224" y2="174.568" gradientUnits="userSpaceOnUse">
<stop stop-color="#FFC444"/>
<stop offset="0.9964" stop-color="#F36F56"/>
</linearGradient>
<linearGradient id="paint29_linear_786_111" x1="139.333" y1="113.104" x2="127.405" y2="129.785" gradientUnits="userSpaceOnUse">
<stop stop-color="#FFC444"/>
<stop offset="0.9964" stop-color="#F36F56"/>
</linearGradient>
<linearGradient id="paint30_linear_786_111" x1="116.812" y1="94.0282" x2="134.788" y2="142.121" gradientUnits="userSpaceOnUse">
<stop stop-color="#FFC444"/>
<stop offset="0.9964" stop-color="#F36F56"/>
</linearGradient>
<linearGradient id="paint31_linear_786_111" x1="105.983" y1="188.803" x2="141.778" y2="92.3258" gradientUnits="userSpaceOnUse">
<stop offset="0.00359712" stop-color="#EBEFF2"/>
<stop offset="1" stop-color="white"/>
</linearGradient>
<linearGradient id="paint32_linear_786_111" x1="142.077" y1="112.873" x2="120.784" y2="155.701" gradientUnits="userSpaceOnUse">
<stop stop-color="#FFC444"/>
<stop offset="0.9964" stop-color="#F36F56"/>
</linearGradient>
<linearGradient id="paint33_linear_786_111" x1="118.679" y1="108.727" x2="141.549" y2="151.36" gradientUnits="userSpaceOnUse">
<stop stop-color="#FF9085"/>
<stop offset="1" stop-color="#FB6FBB"/>
</linearGradient>
<linearGradient id="paint34_linear_786_111" x1="120.705" y1="107.639" x2="143.575" y2="150.273" gradientUnits="userSpaceOnUse">
<stop stop-color="#FF9085"/>
<stop offset="1" stop-color="#FB6FBB"/>
</linearGradient>
<linearGradient id="paint35_linear_786_111" x1="112.318" y1="112.139" x2="135.188" y2="154.773" gradientUnits="userSpaceOnUse">
<stop stop-color="#FF9085"/>
<stop offset="1" stop-color="#FB6FBB"/>
</linearGradient>
<linearGradient id="paint36_linear_786_111" x1="51.1138" y1="31.4095" x2="30.0926" y2="19.0888" gradientUnits="userSpaceOnUse">
<stop stop-color="#FF9085"/>
<stop offset="1" stop-color="#FB6FBB"/>
</linearGradient>
<linearGradient id="paint37_linear_786_111" x1="25.644" y1="16.915" x2="30.3154" y2="19.0172" gradientUnits="userSpaceOnUse">
<stop stop-color="#FF9085"/>
<stop offset="1" stop-color="#FB6FBB"/>
</linearGradient>
<linearGradient id="paint38_linear_786_111" x1="45.6051" y1="37.4178" x2="-5.78009" y2="-27.6701" gradientUnits="userSpaceOnUse">
<stop stop-color="#FF9085"/>
<stop offset="1" stop-color="#FB6FBB"/>
</linearGradient>
<linearGradient id="paint39_linear_786_111" x1="75.858" y1="41.8137" x2="60.5385" y2="32.8348" gradientUnits="userSpaceOnUse">
<stop stop-color="#FF9085"/>
<stop offset="1" stop-color="#FB6FBB"/>
</linearGradient>
<linearGradient id="paint40_linear_786_111" x1="57.2966" y1="31.2502" x2="60.7009" y2="32.7822" gradientUnits="userSpaceOnUse">
<stop stop-color="#FF9085"/>
<stop offset="1" stop-color="#FB6FBB"/>
</linearGradient>
<linearGradient id="paint41_linear_786_111" x1="71.8433" y1="46.1916" x2="34.3957" y2="-1.24203" gradientUnits="userSpaceOnUse">
<stop stop-color="#FF9085"/>
<stop offset="1" stop-color="#FB6FBB"/>
</linearGradient>
<clipPath id="clip0_786_111">
<rect width="160" height="155" fill="white"/>
</clipPath>
</defs>
</svg>
