<svg width="158" height="154" viewBox="0 0 158 154" fill="none" xmlns="http://www.w3.org/2000/svg">
<path d="M65.6599 5.21892C65.6599 5.21892 12.2017 7.54237 9.1688 54.5575C6.13592 101.573 -7.89265 146.307 26.2297 148.977C60.3521 151.647 140.35 156.834 151.724 128.824C163.098 100.815 168.785 -4.64415 65.6599 5.21892Z" fill="#F4F7FA"/>
<path d="M51.0265 59.4223C50.3699 58.5366 49.7219 56.0299 49.8222 55.307C50.4907 50.4957 51.1575 41.4056 55.0594 38.0671C55.7257 37.4967 59.0254 39.7517 59.9845 39.5895C62.4373 40.5162 63.2303 40.99 65.9947 40.7259C74.1564 39.9458 74.7731 23.2073 87.2109 30.0143C96.3214 35.0008 99.6686 43.3992 110.012 31.9582C120.355 20.5178 149.015 9.85847 152.553 29.0062C154.584 39.9954 138.594 42.2525 134.969 52.4029C131.526 62.0482 123.39 64.4849 112.668 61.2849C101.946 58.0849 102.508 64.7684 98.1942 72.8531C93.0125 82.5647 80.5058 72.2509 75.1376 66.997C70.8163 62.7663 56.9548 54.9086 51.0265 59.4223Z" fill="url(#paint0_linear_771_326)"/>
<mask id="mask0_771_326" style="mask-type:luminance" maskUnits="userSpaceOnUse" x="43" y="18" width="110" height="59">
<path d="M54.2955 35.3641C50.7262 42.0525 46.8184 48.7108 43.1871 55.4267C45.9262 58.7749 49.2297 62.6466 53.71 59.6569C59.9392 55.5 70.8605 62.7463 75.1569 66.997C80.4745 72.2579 93.0259 82.5609 98.1963 72.8525C102.501 64.7706 101.949 58.0838 112.669 61.2849C123.389 64.486 131.524 62.0477 134.97 52.4024C138.596 42.2525 154.58 39.9981 152.553 29.0062C149.022 9.85308 120.341 20.5264 110.018 31.956C99.695 43.3857 96.2605 35.0294 87.227 30.0073C74.8944 23.1507 73.8912 40.0671 66.1224 40.6574C60.0335 41.1199 58.5251 38.314 54.2955 35.3641Z" fill="white"/>
</mask>
<g mask="url(#mask0_771_326)">
<path d="M52.2179 47.0917L52.2988 46.8718C86.2222 59.2858 123.835 50.2276 152.912 22.6416L153.073 22.812C139.293 35.8858 122.962 45.1322 105.846 49.551C87.8524 54.1958 69.3079 53.3456 52.2179 47.0917Z" fill="#FCFDFE"/>
<path d="M96.5047 77.136C92.2114 68.2374 81.3802 56.8681 72.3602 51.7932L72.4751 51.5889C81.5306 56.6843 92.405 68.0988 96.716 77.0342L96.5047 77.136Z" fill="#FCFDFE"/>
<path d="M58.9053 49.4525L58.922 49.2185C64.2886 49.5948 69.6395 47.2433 74.8255 42.2298C78.6282 38.5538 82.2557 33.5581 85.6066 27.3818L85.8126 27.494C82.4497 33.6913 78.8082 38.7058 74.9883 42.3986C69.7522 47.46 64.3414 49.8336 58.9053 49.4525Z" fill="#FCFDFE"/>
<path d="M108.251 48.8283L108.256 48.5938C118.408 48.7824 127.078 55.0164 132.563 60.2121L132.402 60.3824C126.947 55.2148 118.328 49.0159 108.251 48.8283Z" fill="#FCFDFE"/>
<path d="M129.756 40.0051L129.607 39.825C138.399 32.507 141.087 20.804 141.907 14.4795L142.14 14.5097C141.315 20.8682 138.61 32.6353 129.756 40.0051Z" fill="#FCFDFE"/>
</g>
<mask id="mask1_771_326" style="mask-type:luminance" maskUnits="userSpaceOnUse" x="17" y="3" width="108" height="122">
<path d="M34.0912 124.8C28.5737 121.315 23.1219 117.698 17.7408 113.95C17.6065 113.994 21.3586 100.307 30.4357 96.2794C48.2648 88.5866 45.3327 73.2896 46.0896 65.3316C46.7165 53.9144 53.882 42.8756 63.6615 49.8729C73.3009 56.4384 84.4631 35.5505 90.0265 18.1128C92.0702 9.33165 104.064 2.89392 112.682 4.02815C121.567 4.99041 127.077 13.5241 122.303 30.7171C117.624 50.9996 98.992 56.2238 89.7904 63.3538C80.7456 70.3478 89.0055 82.9122 76.0906 86.937C65.0561 90.709 52.8869 91.5424 52.4631 102.236C52.1834 112.872 48.0378 119.83 34.0912 124.8Z" fill="white"/>
</mask>
<g mask="url(#mask1_771_326)">
<path d="M34.0912 124.8C28.5737 121.316 23.1219 117.699 17.7408 113.95C17.6065 113.995 21.3586 100.307 30.4357 96.2798C48.2648 88.5871 45.3327 73.29 46.0896 65.3321C46.7505 53.9386 53.3683 44.2167 63.3791 48.4669C74.578 52.965 84.6664 35.6011 90.0265 18.1138C92.0702 9.33263 104.064 2.89489 112.682 4.02913C121.567 4.99139 127.077 13.5251 122.303 30.7181C117.624 51.0006 98.992 56.2248 89.7904 63.3547C80.7456 70.3488 89.0055 82.9132 76.0906 86.938C65.0561 90.71 52.8869 91.5434 52.4631 102.237C52.1834 112.872 48.0378 119.83 34.0912 124.8Z" fill="url(#paint1_linear_771_326)"/>
</g>
<mask id="mask2_771_326" style="mask-type:luminance" maskUnits="userSpaceOnUse" x="17" y="3" width="108" height="122">
<path d="M34.0912 124.8C28.5737 121.315 23.1219 117.698 17.7408 113.95C17.6065 113.994 21.3586 100.307 30.4357 96.2794C48.2648 88.5866 45.3327 73.2896 46.0896 65.3316C46.7165 53.9144 53.882 42.8756 63.6615 49.8729C73.3009 56.4384 84.4631 35.5505 90.0265 18.1128C92.0702 9.33165 104.064 2.89392 112.682 4.02815C121.567 4.99041 127.077 13.5241 122.303 30.7171C117.624 50.9996 98.992 56.2238 89.7904 63.3538C80.7456 70.3478 89.0055 82.9122 76.0906 86.937C65.0561 90.709 52.8869 91.5424 52.4631 102.236C52.1834 112.872 48.0378 119.83 34.0912 124.8Z" fill="white"/>
</mask>
<g mask="url(#mask2_771_326)">
<path d="M25.564 121.928C25.613 121.813 43.2189 97.3144 64.6001 75.3441C67.827 71.6875 71.1882 68.0438 74.4384 64.5204C92.5397 44.8977 109.638 26.3635 112.394 -1.45215L112.781 -1.41387C110.011 26.5317 92.8712 45.1123 74.7241 64.784C71.475 68.3058 68.1154 71.9478 64.8847 75.6082C43.3877 97.6977 26.006 121.935 25.9149 122.094L25.564 121.928Z" fill="#BEB8F2"/>
<path d="M91.0842 46.2792L90.9257 45.9244C100.743 41.5314 113.287 34.6614 120.025 30.9708C125.479 27.9837 125.494 27.9918 125.662 28.1013L125.557 28.2646L125.571 28.4549C125.321 28.5137 123.066 29.7482 120.212 31.3115C113.469 35.0048 100.917 41.8792 91.0842 46.2792Z" fill="#BEB8F2"/>
<path d="M97.4309 37.059C99.7716 28.1215 98.7797 21.1118 97.5349 16.8051C96.1791 12.114 94.1694 9.34256 93.8627 9.13501L93.9473 9.00994L93.9053 8.76897C94.0201 8.74903 94.1101 8.8191 94.2357 8.95603C96.0373 10.9145 101.923 21.4412 97.8066 37.1571L97.4309 37.059Z" fill="#BEB8F2"/>
<path d="M51.5343 90.1449L51.2001 89.9465C60.578 74.1487 56.1489 53.567 53.8087 45.4511C53.6831 45.015 53.6427 44.8737 53.6356 44.8058L54.0222 44.7638L53.8292 44.7848L54.0222 44.7627C54.0292 44.8107 54.1003 45.0576 54.1828 45.3433C55.8702 51.1961 56.8949 57.0166 57.2281 62.6425C57.8669 73.4506 55.9516 82.7034 51.5343 90.1449Z" fill="#BEB8F2"/>
<path d="M57.813 83.1369L57.5936 82.8161C69.7198 74.532 84.9651 80.3018 85.1947 80.4361C85.1958 80.4366 85.1963 80.4372 85.1969 80.4377L85.2556 80.6625L85.0567 80.7832L85.0745 80.5913L84.9845 80.7606C84.8454 80.6943 69.8184 74.9358 57.813 83.1369Z" fill="#BEB8F2"/>
<path d="M28.5042 117.953C30.1289 114.625 31.475 108.316 28.6653 97.1712C28.5058 96.5388 28.5058 96.5388 28.5597 96.4531L28.8891 96.6601L28.7246 96.5566L28.9176 96.5545C28.9225 96.5997 28.9785 96.8208 29.0427 97.0768C31.8815 108.336 30.5068 114.737 28.854 118.125L28.5042 117.953Z" fill="#BEB8F2"/>
<path d="M33.1775 112.409L32.8799 112.158C37.3058 106.896 47.6874 106.215 53.482 106.277C53.6659 106.279 53.7839 106.281 53.8276 106.278L53.8497 106.666C53.8028 106.669 53.6756 106.668 53.4777 106.666C47.7521 106.604 37.5009 107.269 33.1775 112.409Z" fill="#BEB8F2"/>
</g>
<path d="M10.5348 134.118C7.55745 134.292 5.12402 132.211 5.12402 129.478V30.9852C5.12402 28.2526 7.55745 26.1173 10.5348 26.2256L151.061 31.3248C153.337 31.4073 155.182 33.4062 155.182 35.7803V121.36C155.182 123.735 153.337 125.774 151.061 125.908L10.5348 134.118Z" fill="url(#paint2_linear_771_326)"/>
<path d="M102.152 145.019C99.9057 144.238 98.227 142.238 97.7536 139.779L94.4846 122.804L66.5197 123.846L63.0782 141.53C62.5962 144.007 64.5256 146.492 66.7477 147.404L78.4474 152.207C80.6237 153.1 82.9628 153.456 85.2873 153.247L110.013 151.028C110.736 150.963 111.316 150.367 111.4 149.602C111.484 148.837 111.99 147.978 111.301 147.738L102.152 145.019Z" fill="url(#paint3_linear_771_326)"/>
<path d="M102.429 143.987C100.185 143.215 98.5079 141.241 98.0346 138.813L94.7688 122.051L67.4858 123.08L64.0475 140.543C63.5661 142.989 64.84 145.441 67.0599 146.342L78.7483 151.084C80.9224 151.966 83.2588 152.318 85.5817 152.112L110.283 149.92C111.005 149.856 111.584 149.267 111.669 148.512C111.753 147.757 111.318 147.044 110.63 146.808L102.429 143.987Z" fill="url(#paint4_linear_771_326)"/>
<path d="M11.6475 134.118C8.67066 134.292 6.23669 132.211 6.23669 129.478V30.9852C6.23669 28.2526 8.67012 26.1173 11.6475 26.2256L152.174 31.3248C154.45 31.4073 156.295 33.4062 156.295 35.7803V121.36C156.295 123.735 154.45 125.774 152.174 125.908L11.6475 134.118Z" fill="url(#paint5_linear_771_326)"/>
<path d="M152.174 33.3376L11.6474 28.5214C10.0555 28.467 8.76172 29.606 8.76172 31.0659V107.696V129.342C8.76172 130.802 10.0555 131.912 11.6474 131.822L152.174 123.895C153.394 123.826 154.381 122.738 154.381 121.464V101.906V35.7192C154.381 34.4459 153.394 33.3796 152.174 33.3376Z" fill="url(#paint6_linear_771_326)"/>
<path d="M11.6475 123.448C11.0275 123.478 10.5229 123.041 10.5229 122.474V31.1226C10.5229 30.5549 11.0275 30.1091 11.6475 30.1296L152.174 34.7474C152.65 34.763 153.036 35.1803 153.036 35.6767V115.61C153.036 116.107 152.649 116.531 152.174 116.554L11.6475 123.448Z" fill="white"/>
<path d="M147.388 111.628L17.8114 117.319V43.7812L147.388 46.5015V111.628Z" fill="url(#paint7_linear_771_326)"/>
<path d="M147.388 44.2771L17.8114 41.2696V34.9893L147.388 38.7149V44.2771Z" fill="url(#paint8_linear_771_326)"/>
<path d="M137.547 41.2402C137.547 41.6375 137.234 41.9513 136.848 41.9416C136.462 41.9319 136.148 41.6014 136.148 41.2035C136.148 40.8057 136.462 40.492 136.848 40.5022C137.233 40.513 137.547 40.8434 137.547 41.2402Z" fill="white"/>
<path d="M140.414 41.3147C140.414 41.7109 140.103 42.0241 139.719 42.0144C139.335 42.0047 139.023 41.6753 139.023 41.2786C139.023 40.8818 139.335 40.5686 139.719 40.5794C140.103 40.5891 140.414 40.9185 140.414 41.3147Z" fill="white"/>
<path d="M143.266 41.3892C143.266 41.7844 142.956 42.0965 142.575 42.0868C142.192 42.0771 141.883 41.7488 141.883 41.3531C141.883 40.9574 142.193 40.6453 142.575 40.6555C142.956 40.6658 143.266 40.9946 143.266 41.3892Z" fill="white"/>
<g opacity="0.68">
<path d="M121.162 99.8924L20.6378 103.049V45.6924L121.162 47.6379V99.8924Z" fill="white"/>
</g>
<path opacity="0.68" d="M146.004 62.8288L122.921 62.7199V47.6719L146.004 48.1182V62.8288Z" fill="white"/>
<path d="M146.004 65.5232L122.921 65.4763V64.3496L146.004 64.4213V65.5232Z" fill="white"/>
<path d="M137.415 67.4247L122.921 67.4226V66.2959L137.415 66.3137V67.4247Z" fill="white"/>
<path opacity="0.68" d="M146.004 84.4078L122.921 84.7948V69.7463L146.004 69.6973V84.4078Z" fill="white"/>
<path d="M146.004 87.1029L122.921 87.5514V86.4247L146.004 86.001V87.1029Z" fill="white"/>
<path d="M137.415 89.1882L122.921 89.4976V88.3704L137.415 88.0771V89.1882Z" fill="white"/>
<path opacity="0.68" d="M146.004 105.988L122.921 106.87V91.8224L146.004 91.2773V105.988Z" fill="white"/>
<path d="M146.004 108.683L122.921 109.627V108.501L146.004 107.581V108.683Z" fill="white"/>
<path d="M137.415 110.953L122.921 111.573V110.447L137.415 109.842V110.953Z" fill="white"/>
<path d="M90.2039 106.928L20.6378 109.51V105.74L90.2039 103.39V106.928Z" fill="white"/>
<path d="M121.162 105.78L111.237 106.148V102.679L121.162 102.345V105.78Z" fill="white"/>
<path d="M109.704 106.205L99.5553 106.582V103.074L109.704 102.731V106.205Z" fill="white"/>
<path d="M52.4642 112.758L20.6378 114.068V112.182L52.4642 110.926V112.758Z" fill="white"/>
<path d="M15.0339 143.773L14.3778 143.086C13.3315 141.99 13.415 140.264 14.5649 139.235L59.6398 98.8936L63.7541 103.573L18.9892 143.888C17.8474 144.916 16.077 144.866 15.0339 143.773Z" fill="url(#paint9_linear_771_326)"/>
<path d="M104.989 60.0066C93.6193 46.0125 73.4592 43.7532 59.9832 55.447C46.2598 67.3554 45.153 88.7241 57.47 102.669C69.498 116.287 89.5676 117.333 102.345 105.483C114.901 93.8362 116.099 73.6821 104.989 60.0066ZM61.3897 99.15C51.1315 87.4562 52.0684 69.5963 63.5099 59.6125C74.7789 49.7796 91.704 51.5942 101.295 63.323C110.702 74.8265 109.701 91.8303 99.0824 101.629C88.3067 111.572 71.4458 110.613 61.3897 99.15Z" fill="url(#paint10_linear_771_326)"/>
<path opacity="0.3" d="M59.6399 98.8926L53.8927 104.037C54.4237 106.384 54.0981 108.021 53.545 109.183C51.4641 113.554 45.5321 112.592 40.7585 118.799C38.3633 121.915 39.4501 122.685 37.0215 125.21C33.0065 129.384 29.5423 127.789 26.0113 131.531C22.4399 135.316 23.7633 139.302 21.214 140.319C20.1234 140.755 18.3951 140.615 15.5073 138.391L14.5644 139.234C13.4145 140.263 13.331 141.989 14.3773 143.085L15.0334 143.772C16.0765 144.865 17.8469 144.915 18.9887 143.887L63.7536 103.571L59.6399 98.8926Z" fill="url(#paint11_linear_771_326)"/>
<path d="M106.637 60.8943C95.2674 46.9002 75.1073 44.6409 61.6313 56.3347C47.9078 68.2431 46.8011 89.6118 59.1181 103.557C71.1461 117.175 91.2157 118.22 103.993 106.37C116.549 94.7245 117.747 74.5703 106.637 60.8943ZM63.0372 100.038C52.779 88.3439 53.7159 70.484 65.1574 60.5002C76.4264 50.6673 93.3515 52.4819 102.942 64.2107C112.349 75.7142 111.349 92.718 100.73 102.516C89.9542 112.46 73.0933 111.501 63.0372 100.038Z" fill="url(#paint12_linear_771_326)"/>
<path d="M105.332 62.0656C94.5897 48.8737 75.5741 46.775 62.8808 57.8112C49.9682 69.0381 48.9213 89.1621 60.5062 102.31C71.835 115.167 90.7698 116.186 102.841 105.011C114.715 94.0176 115.844 74.974 105.332 62.0656ZM63.0372 100.038C52.779 88.3443 53.7159 70.4845 65.1574 60.5007C76.4264 50.6678 93.3515 52.4823 102.942 64.2112C112.349 75.7147 111.349 92.7184 100.73 102.517C89.9542 112.46 73.0932 111.501 63.0372 100.038Z" fill="url(#paint13_linear_771_326)"/>
<path d="M65.4771 38.1563C67.2712 39.0668 69.5245 38.2301 70.51 36.2878C71.496 34.3455 70.8404 32.0328 69.0469 31.1223C68.9542 31.0749 68.8593 31.0355 68.7639 30.9978C69.097 29.9228 69.3477 28.8398 69.5165 27.7563C69.6194 27.7557 69.7224 27.7541 69.8275 27.7449C71.8739 27.5622 73.4976 25.6813 73.4545 23.5439C73.4113 21.4064 71.717 19.822 69.6706 20.0048C69.5639 20.0145 69.4588 20.0312 69.3542 20.0501C69.1402 18.9908 68.8474 17.9563 68.4776 16.9546C68.572 16.8997 68.6652 16.8425 68.7569 16.7784C70.5073 15.5514 71.0669 13.1304 70.0059 11.3708C68.945 9.61124 66.6663 9.17944 64.9154 10.4064C64.8259 10.4695 64.7412 10.5374 64.6577 10.6059C63.966 9.84143 63.2076 9.13308 62.3865 8.48671C62.4442 8.39184 62.5008 8.29642 62.5515 8.19561C63.5375 6.25329 64.8253 4.13146 63.0178 3.24898C58.8356 1.20801 57.0415 2.95626 56.0555 4.89857C56.0043 4.99938 55.9607 5.10127 55.9181 5.2037C54.9116 4.92283 53.8922 4.72877 52.8669 4.62203C52.8733 4.51421 52.8782 4.40585 52.876 4.29642C52.8329 2.15895 53.4669 1.00208 51.4124 0.962726C46.9326 0.876473 45.4221 2.82095 45.4652 4.95842C45.4674 5.07001 45.4771 5.17944 45.4879 5.28779C44.4615 5.58052 43.4534 5.95464 42.4722 6.40747C42.4253 6.31205 42.3774 6.21717 42.3218 6.12553C41.2609 4.36596 38.9822 3.93416 37.2313 5.16111C35.4809 6.38807 34.9213 8.80909 35.9822 10.5687C36.0367 10.6587 36.096 10.7433 36.1563 10.8263C35.3811 11.6021 34.655 12.4441 33.9844 13.3476C33.8976 13.2932 33.8097 13.2398 33.7165 13.1929C31.9224 12.2824 29.669 13.1191 28.6836 15.0614C27.6976 17.0037 28.3531 19.3164 30.1466 20.2269C30.2394 20.2743 30.3342 20.3137 30.4297 20.3514C30.0965 21.4263 29.8453 22.5094 29.6771 23.5929C29.5741 23.5935 29.4712 23.5951 29.3666 23.6042C27.3202 23.787 25.696 25.6678 25.7396 27.8053C25.7828 29.9428 27.4771 31.5271 29.5235 31.3444C29.6302 31.3347 29.7353 31.318 29.8399 31.2997C30.0539 32.359 30.3472 33.3935 30.7164 34.3951C30.6221 34.4501 30.5288 34.5072 30.4372 34.5714C28.6868 35.7983 28.1272 38.2193 29.1881 39.9789C30.2491 41.7385 33.7596 42.5557 35.51 41.3288C35.5995 41.2657 34.4523 40.8129 34.5359 40.7439C35.2275 41.5083 35.986 42.2166 36.807 42.863C36.7493 42.9573 36.6927 43.0533 36.6421 43.1541C35.6561 45.0964 36.3116 47.4091 38.1051 48.3196C39.8992 49.2301 42.1526 48.3935 43.138 46.4511C43.1892 46.3503 43.2329 46.2484 43.2755 46.146C44.282 46.4269 45.3014 46.6209 46.3267 46.7277C46.3202 46.8355 46.3154 46.9439 46.3175 47.0533C46.3607 49.1908 48.055 50.7751 50.1014 50.5924C52.1477 50.4096 53.772 48.5288 53.7283 46.3913C53.7262 46.2797 53.7164 46.1703 53.7057 46.0619C54.7321 45.7692 55.7402 45.3951 56.7213 44.9422C56.7682 45.0377 56.8162 45.1325 56.8717 45.2242C57.9326 46.9837 60.2113 47.4156 61.9623 46.1886C63.7127 44.9616 64.2722 42.5406 63.2119 40.7811C63.1574 40.691 63.0981 40.6069 63.0377 40.5234C63.8129 39.7476 64.5391 38.9056 65.2097 38.0021C65.296 38.056 65.3844 38.1094 65.4771 38.1563ZM43.1165 38.4441C36.6032 35.1385 34.2248 26.7417 37.8038 19.6894C41.3828 12.6371 49.5644 9.59938 56.0776 12.9045C62.5908 16.2102 64.9693 24.6064 61.3903 31.6592C57.8113 38.712 49.6297 41.7498 43.1165 38.4441Z" fill="#26264F"/>
<path d="M69.827 27.7448C71.8733 27.562 73.4971 25.6812 73.4539 23.5437C73.4108 21.4062 71.7165 19.8219 69.6701 20.0046C69.5634 20.0143 69.4582 20.031 69.3537 20.0499C69.1396 18.9906 68.8469 17.9561 68.4771 16.9545C68.5714 16.8995 68.6647 16.8424 68.7564 16.7782C70.5068 15.5513 72.6723 12.5868 71.4372 10.9453C69.0922 7.82996 66.6663 9.17929 64.9154 10.4057C64.8259 10.4688 64.7413 10.5367 64.6577 10.6052C63.9661 9.84074 63.2076 9.13239 62.3865 8.48603C62.4442 8.39169 62.5008 8.29573 62.5515 8.19492C63.0879 7.13778 63.1353 5.97228 62.7806 4.98145C61.09 7.95826 59.4221 10.9475 57.7844 13.9529C62.9806 17.7593 64.6361 25.2618 61.3898 31.6585C58.6388 37.0796 53.1687 40.1238 47.827 39.7437C47.5887 40.3615 47.3547 40.9831 47.0997 41.5949C46.4076 43.2558 45.6216 44.8823 44.834 46.5071C45.3294 46.6003 45.827 46.6736 46.3256 46.7259C46.3192 46.8337 46.3143 46.9421 46.3165 47.0515C46.3596 49.189 47.6577 51.0046 51.3666 50.8073C53.4183 50.6979 53.7704 48.527 53.7272 46.3895C53.7251 46.2779 53.7159 46.1685 53.7046 46.0601C54.731 45.7674 55.7391 45.3928 56.7202 44.9405C56.7671 45.0359 56.8151 45.1308 56.8706 45.2224C57.9316 46.982 61.6097 47.7292 63.3607 46.5022C65.1116 45.2752 64.2712 42.5389 63.2103 40.7793C63.1558 40.6893 63.0965 40.6046 63.0361 40.5216C63.8113 39.7459 64.5375 38.9038 65.2081 38.0003C65.2949 38.0548 65.3828 38.1081 65.476 38.155C67.2701 39.0655 69.5235 38.2289 70.5089 36.2866C71.4949 34.3442 70.8394 32.0316 69.0458 31.1211C68.9531 31.0736 68.8582 31.0343 68.7628 30.9965C69.096 29.9216 69.3467 28.8386 69.5154 27.755C69.6189 27.7561 69.7224 27.7545 69.827 27.7448Z" fill="#26264F"/>
<path d="M67.4065 38.3752C69.2006 39.2857 71.454 38.449 72.4394 36.5067C73.4254 34.5644 72.7699 32.2517 70.9763 31.3412C70.8836 31.2943 70.7887 31.2544 70.6933 31.2167C71.0265 30.1418 71.2777 29.0587 71.4459 27.9752C71.5488 27.9746 71.6518 27.973 71.7569 27.9639C73.8033 27.7811 75.427 25.9003 75.3839 23.7628C75.3407 21.6253 73.6464 20.041 71.6001 20.2237C71.4933 20.2334 71.3882 20.2501 71.2836 20.269C71.0696 19.2097 70.7763 18.1752 70.4071 17.1736C70.5014 17.1186 70.5947 17.0614 70.6863 16.9973C72.4367 15.7703 72.9963 13.3493 71.9354 11.5897C70.8744 9.83017 68.5957 9.39836 66.8448 10.6253C66.7553 10.6884 66.6707 10.7563 66.5871 10.8248C65.8955 10.0604 65.137 9.352 64.316 8.70564C64.3736 8.6113 64.4302 8.51535 64.4815 8.41454C65.4674 6.47222 64.8119 4.15955 63.0184 3.24904C61.2243 2.33853 58.9709 3.17518 57.9855 5.1175C57.9343 5.21831 57.8906 5.3202 57.848 5.42262C56.8416 5.14176 55.8221 4.94769 54.7968 4.84095C54.8033 4.73314 54.8081 4.62478 54.806 4.51534C54.7629 2.37788 53.0685 0.793512 51.0221 0.976261C48.9758 1.15901 47.3521 3.03987 47.3952 5.17734C47.3974 5.28893 47.4071 5.39836 47.4178 5.50672C46.3914 5.79944 45.3833 6.17411 44.4022 6.6264C44.3553 6.53098 44.3073 6.4361 44.2518 6.34445C43.1914 4.58489 40.9122 4.15308 39.1612 5.38004C37.4108 6.60699 36.8513 9.02802 37.9122 10.7876C37.9666 10.8776 38.0259 10.9622 38.0863 11.0453C37.3111 11.821 36.585 12.6631 35.9143 13.5666C35.8275 13.5121 35.7397 13.4587 35.6464 13.4118C33.8523 12.5013 31.599 13.338 30.6135 15.2803C29.6275 17.2226 30.2831 19.5353 32.0766 20.4458C32.1693 20.4932 32.2642 20.5326 32.3596 20.5703C32.0265 21.6453 31.7753 22.7283 31.6071 23.8118C31.5041 23.8124 31.4011 23.814 31.296 23.8232C29.2496 24.0059 27.6259 25.8868 27.6691 28.0242C27.7122 30.1617 29.4065 31.7461 31.4529 31.5633C31.5596 31.5536 31.6647 31.5369 31.7693 31.5186C31.9833 32.5779 32.2766 33.6124 32.6459 34.614C32.5515 34.669 32.4583 34.7261 32.3666 34.7903C30.6162 36.0172 30.0567 38.4383 31.1176 40.1978C32.1785 41.9574 34.4572 42.3892 36.2076 41.1622C36.2971 41.0992 36.3817 41.0312 36.4653 40.9628C37.1569 41.7272 37.9154 42.4356 38.7364 43.0819C38.6788 43.1768 38.6222 43.2722 38.5715 43.373C37.5855 45.3153 38.241 47.628 40.0346 48.5385C41.8286 49.449 44.082 48.6124 45.0674 46.6701C45.1186 46.5693 45.1623 46.4674 45.2049 46.3649C46.2114 46.6458 47.2308 46.8399 48.2561 46.9466C48.2496 47.0544 48.2448 47.1628 48.2469 47.2722C48.2901 49.4097 49.9844 50.994 52.0308 50.8113C54.0771 50.6286 55.7009 48.7477 55.6577 46.6102C55.6556 46.4986 55.6464 46.3892 55.6351 46.2808C56.6615 45.9881 57.6696 45.614 58.6507 45.1612C58.6976 45.2566 58.7461 45.3515 58.8011 45.4431C59.862 47.2027 62.1408 47.6345 63.8912 46.4075C65.6421 45.1806 66.2011 42.7595 65.1407 41C65.0863 40.91 65.027 40.8253 64.9666 40.7423C65.7418 39.9666 66.468 39.1245 67.1386 38.221C67.2254 38.2749 67.3133 38.3283 67.4065 38.3752ZM45.0459 38.6631C38.5327 35.3574 36.1542 26.9612 39.7332 19.9083C43.3122 12.856 51.4939 9.81831 58.0071 13.1234C64.5203 16.4291 66.8987 24.8253 63.3197 31.8781C59.7407 38.931 51.5591 41.9687 45.0459 38.6631Z" fill="url(#paint14_linear_771_326)"/>
<path d="M29.661 69.473C30.979 70.142 32.634 69.5269 33.358 68.1005C34.082 66.6735 33.6011 64.9748 32.2831 64.3058C32.2146 64.2713 32.1451 64.2422 32.0755 64.2142C32.3203 63.4244 32.5046 62.6288 32.6281 61.8331C32.7035 61.8331 32.7796 61.8314 32.8566 61.8244C34.3602 61.6902 35.5526 60.3085 35.5213 58.7382C35.4895 57.1678 34.2453 56.004 32.7418 56.1382C32.6631 56.1452 32.586 56.1576 32.5095 56.1711C32.3526 55.3932 32.137 54.6331 31.8653 53.8972C31.9343 53.8568 32.0033 53.8147 32.0707 53.7678C33.3564 52.8665 33.7677 51.0881 32.9882 49.7953C32.2092 48.5026 30.5348 48.1856 29.2491 49.087C29.1833 49.1333 29.1213 49.1829 29.0599 49.2336C28.5515 48.6719 27.9947 48.1517 27.3914 47.6767C27.434 47.6072 27.4755 47.5366 27.5127 47.4627C28.2367 46.0358 29.1833 44.4773 27.855 43.8293C24.7828 42.3301 23.4647 43.6142 22.7407 45.0412C22.703 45.115 22.6707 45.1899 22.6399 45.2654C21.9009 45.0589 21.1515 44.9166 20.3984 44.8379C20.4033 44.7587 20.4065 44.6789 20.4054 44.5986C20.3736 43.0287 20.8394 42.1786 19.3305 42.1495C16.0399 42.0859 14.93 43.5145 14.9618 45.0848C14.9634 45.1668 14.9704 45.2471 14.9785 45.3269C14.2243 45.542 13.4841 45.8169 12.7628 46.1495C12.7283 46.0794 12.6928 46.0099 12.6523 45.9425C11.8734 44.6498 10.199 44.3328 8.91271 45.2341C7.62646 46.1355 7.21568 47.9139 7.99519 49.2066C8.03508 49.273 8.07875 49.3349 8.12296 49.3959C7.55368 49.9657 7.01999 50.584 6.52727 51.2476C6.46366 51.2077 6.39897 51.1684 6.3305 51.1339C5.01244 50.4649 3.35746 51.0794 2.63347 52.5064C1.90948 53.9333 2.39034 55.632 3.7084 56.301C3.77686 56.3355 3.8464 56.3646 3.91649 56.3926C3.67174 57.1824 3.48738 57.9781 3.36393 58.7738C3.28845 58.7738 3.21244 58.7754 3.13589 58.7818C1.63239 58.9161 0.439397 60.2978 0.471203 61.8681C0.503008 63.4385 1.74721 64.6023 3.25072 64.4681C3.32942 64.4611 3.40651 64.4487 3.48306 64.4352C3.64047 65.2131 3.85557 65.9732 4.12727 66.7091C4.05826 66.7495 3.98926 66.7916 3.92188 66.8385C2.63562 67.7398 2.22484 69.5182 3.00436 70.811C3.78333 72.1037 6.36231 72.7037 7.64856 71.8023C7.71433 71.756 6.87174 71.4234 6.9332 71.3727C7.44155 71.9344 7.99843 72.4546 8.60166 72.9296C8.55961 72.9991 8.51756 73.0692 8.48037 73.1436C7.75638 74.5705 8.23724 76.2692 9.5553 76.9382C10.8734 77.6072 12.5283 76.9926 13.2523 75.5657C13.2901 75.4918 13.3224 75.4169 13.3531 75.3414C14.0922 75.5479 14.8416 75.6902 15.5947 75.7689C15.5898 75.8482 15.5866 75.9279 15.5882 76.0083C15.62 77.5781 16.8642 78.7425 18.3677 78.6083C19.8712 78.474 21.0642 77.0924 21.0324 75.522C21.0308 75.4401 21.0238 75.3597 21.0157 75.28C21.7699 75.0649 22.5106 74.7899 23.2313 74.4573C23.2658 74.5274 23.3014 74.5969 23.3418 74.6643C24.1208 75.9571 25.7952 76.274 27.0809 75.3727C28.3672 74.4713 28.7779 72.6929 27.9984 71.4002C27.9585 71.3339 27.9149 71.2719 27.8701 71.211C28.4394 70.6411 28.9731 70.0228 29.4658 69.3592C29.5278 69.3991 29.5925 69.4385 29.661 69.473ZM13.2345 69.6843C8.45018 67.2562 6.70247 61.0881 9.33158 55.9069C11.9607 50.7263 17.9709 48.4945 22.7553 50.9231C27.5402 53.3511 29.2874 59.5193 26.6583 64.7004C24.0297 69.881 18.0195 72.1123 13.2345 69.6843Z" fill="#26264F"/>
<path d="M32.8567 61.8249C34.3602 61.6907 35.5526 60.309 35.5214 58.7387C35.4895 57.1683 34.2453 56.0044 32.7418 56.1387C32.6631 56.1457 32.586 56.1581 32.5095 56.1715C32.3526 55.3936 32.137 54.6335 31.8653 53.8977C31.9343 53.8573 32.0033 53.8152 32.0707 53.7683C33.3564 52.867 34.9472 50.6896 34.0399 49.4837C32.317 47.1953 30.5348 48.1861 29.2491 49.0874C29.1833 49.1338 29.1213 49.1834 29.0599 49.2341C28.5515 48.6723 27.9947 48.1521 27.3914 47.6772C27.434 47.6077 27.4755 47.5376 27.5127 47.4632C27.9068 46.6864 27.9413 45.8303 27.6809 45.1025C26.4389 47.2891 25.2141 49.4853 24.0108 51.6928C27.8281 54.4891 29.0443 60.0001 26.6594 64.6993C24.6383 68.6815 20.62 70.9182 16.6965 70.6384C16.5213 71.0923 16.3499 71.5489 16.1623 71.9985C15.654 73.2184 15.0761 74.4136 14.4982 75.6071C14.8621 75.6756 15.2275 75.7295 15.5941 75.7678C15.5893 75.847 15.586 75.9268 15.5877 76.0071C15.6195 77.5775 16.5731 78.9112 19.2976 78.7661C20.8049 78.6858 21.0637 77.0912 21.0319 75.5209C21.0302 75.4389 21.0232 75.3586 21.0152 75.2788C21.7693 75.0637 22.51 74.7888 23.2308 74.4562C23.2653 74.5263 23.3009 74.5958 23.3413 74.6632C24.1203 75.9559 26.8227 76.5047 28.1089 75.6033C29.3952 74.702 28.778 72.6918 27.9984 71.399C27.9585 71.3327 27.9149 71.2707 27.8701 71.2098C28.4394 70.64 28.9731 70.0217 29.4658 69.3581C29.5294 69.398 29.5941 69.4373 29.6626 69.4718C30.9806 70.1408 32.6356 69.5263 33.3596 68.0993C34.0836 66.6723 33.6028 64.9737 32.2847 64.3047C32.2162 64.2702 32.1467 64.2411 32.0766 64.2131C32.3214 63.4233 32.5057 62.6276 32.6292 61.8319C32.7036 61.833 32.7796 61.8319 32.8567 61.8249Z" fill="#26264F"/>
<path d="M31.0783 69.6339C32.3963 70.3029 34.0513 69.6884 34.7753 68.2614C35.4993 66.8345 35.0184 65.1358 33.7004 64.4668C33.6319 64.4323 33.5624 64.4032 33.4923 64.3751C33.737 63.5854 33.9214 62.7897 34.0448 61.994C34.1203 61.994 34.1963 61.9924 34.2734 61.9854C35.7769 61.8512 36.9694 60.4695 36.9381 58.8991C36.9063 57.3288 35.6621 56.1649 34.1586 56.2991C34.0799 56.3061 34.0028 56.3185 33.9262 56.332C33.7688 55.5541 33.5537 54.794 33.282 54.0582C33.351 54.0177 33.42 53.9757 33.4874 53.9288C34.7731 53.0274 35.1845 51.249 34.4049 49.9563C33.626 48.6636 31.9516 48.3466 30.6653 49.2479C30.5996 49.2943 30.5376 49.3439 30.4761 49.3946C29.9677 48.8328 29.4109 48.3126 28.8076 47.8377C28.8502 47.7681 28.8917 47.6975 28.9289 47.6237C29.6529 46.1967 29.1721 44.4981 27.854 43.8291C26.5359 43.1601 24.881 43.7746 24.157 45.2016C24.1192 45.2754 24.0869 45.3504 24.0562 45.4258C23.3171 45.2194 22.5677 45.077 21.8146 44.9983C21.8195 44.9191 21.8227 44.8393 21.8211 44.759C21.7893 43.1886 20.5451 42.0247 19.0416 42.159C17.5381 42.2932 16.3456 43.6749 16.3769 45.2452C16.3785 45.3272 16.3855 45.4075 16.3936 45.4873C15.6394 45.7024 14.8993 45.9773 14.178 46.3099C14.1435 46.2398 14.1079 46.1703 14.0675 46.1029C13.2885 44.8102 11.6141 44.4932 10.3279 45.3946C9.0416 46.2959 8.63082 48.0743 9.41033 49.3671C9.45023 49.4334 9.49389 49.4954 9.53864 49.5563C8.96936 50.1261 8.43567 50.7444 7.94295 51.408C7.87934 51.3681 7.81465 51.3288 7.74618 51.2943C6.42812 50.6253 4.77314 51.2398 4.04915 52.6668C3.32516 54.0937 3.80602 55.7924 5.12408 56.4614C5.19254 56.4959 5.26209 56.525 5.33217 56.553C5.08742 57.3428 4.90306 58.1385 4.77961 58.9342C4.70413 58.9342 4.62812 58.9358 4.55103 58.9423C3.04753 59.0765 1.85508 60.4582 1.88634 62.0285C1.91815 63.5989 3.16235 64.7628 4.66586 64.6285C4.74456 64.6215 4.82165 64.6091 4.8982 64.5956C5.05562 65.3735 5.27071 66.1336 5.54241 66.8695C5.47341 66.9099 5.4044 66.952 5.33702 66.9989C4.05076 67.9002 3.63998 69.6787 4.4195 70.9714C5.19847 72.2641 6.87287 72.5811 8.15858 71.6797C8.22435 71.6334 8.28634 71.5838 8.3478 71.5331C8.85615 72.0948 9.41303 72.615 10.0163 73.09C9.97367 73.1595 9.93217 73.2301 9.89497 73.304C9.17098 74.7309 9.65184 76.4296 10.9699 77.0986C12.288 77.7676 13.9429 77.153 14.6669 75.7261C14.7047 75.6522 14.737 75.5773 14.7677 75.5018C15.5068 75.7083 16.2562 75.8506 17.0093 75.9293C17.0044 76.0086 17.0012 76.0884 17.0022 76.1687C17.0341 77.7385 18.2783 78.9029 19.7818 78.7687C21.2853 78.6344 22.4783 77.2528 22.4465 75.6824C22.4448 75.6005 22.4378 75.5202 22.4297 75.4404C23.1839 75.2253 23.9241 74.9503 24.6454 74.6177C24.6799 74.6878 24.7155 74.7574 24.7559 74.8247C25.5349 76.1175 27.2093 76.4345 28.495 75.5331C29.7812 74.6318 30.192 72.8533 29.4125 71.5606C29.3726 71.4943 29.3289 71.4323 29.2842 71.3714C29.8535 70.8016 30.3872 70.1832 30.8799 69.5196C30.9451 69.5606 31.0098 69.5994 31.0783 69.6339ZM14.6518 69.8458C9.86747 67.4177 8.11977 61.2495 10.7489 56.0684C13.378 50.8878 19.3882 48.656 24.1726 51.0846C28.9575 53.5126 30.7047 59.6808 28.0756 64.8619C25.447 70.042 19.4367 72.2738 14.6518 69.8458Z" fill="url(#paint15_linear_771_326)"/>
<defs>
<linearGradient id="paint0_linear_771_326" x1="149.338" y1="48.4835" x2="-45.5777" y2="43.7873" gradientUnits="userSpaceOnUse">
<stop stop-color="#FFC444"/>
<stop offset="0.9964" stop-color="#F36F56"/>
</linearGradient>
<linearGradient id="paint1_linear_771_326" x1="111.541" y1="6.66409" x2="32.704" y2="121.956" gradientUnits="userSpaceOnUse">
<stop stop-color="#AA80F9"/>
<stop offset="0.9964" stop-color="#6165D7"/>
</linearGradient>
<linearGradient id="paint2_linear_771_326" x1="20.8034" y1="82.3076" x2="45.7238" y2="79.7039" gradientUnits="userSpaceOnUse">
<stop offset="0.003597" stop-color="#26264F"/>
<stop offset="1" stop-color="#444B8C"/>
</linearGradient>
<linearGradient id="paint3_linear_771_326" x1="73.926" y1="158.441" x2="79.2059" y2="150.878" gradientUnits="userSpaceOnUse">
<stop stop-color="#444B8C"/>
<stop offset="0.9964" stop-color="#26264F"/>
</linearGradient>
<linearGradient id="paint4_linear_771_326" x1="89.9092" y1="156.502" x2="81.8285" y2="112.635" gradientUnits="userSpaceOnUse">
<stop stop-color="#444B8C"/>
<stop offset="0.9964" stop-color="#26264F"/>
</linearGradient>
<linearGradient id="paint5_linear_771_326" x1="109.843" y1="35.4045" x2="150.282" y2="-22.3106" gradientUnits="userSpaceOnUse">
<stop stop-color="#444B8C"/>
<stop offset="0.9964" stop-color="#26264F"/>
</linearGradient>
<linearGradient id="paint6_linear_771_326" x1="92.2795" y1="42.2571" x2="41.6962" y2="202.916" gradientUnits="userSpaceOnUse">
<stop stop-color="#444B8C"/>
<stop offset="0.9964" stop-color="#26264F"/>
</linearGradient>
<linearGradient id="paint7_linear_771_326" x1="95.0214" y1="52.0916" x2="47.6006" y2="149.873" gradientUnits="userSpaceOnUse">
<stop offset="0.00359712" stop-color="#E38DDD"/>
<stop offset="1" stop-color="#9571F6"/>
</linearGradient>
<linearGradient id="paint8_linear_771_326" x1="82.499" y1="40.4669" x2="79.7008" y2="63.6297" gradientUnits="userSpaceOnUse">
<stop stop-color="#FF9085"/>
<stop offset="1" stop-color="#FB6FBB"/>
</linearGradient>
<linearGradient id="paint9_linear_771_326" x1="13.6447" y1="121.76" x2="63.7542" y2="121.76" gradientUnits="userSpaceOnUse">
<stop stop-color="#FFC444"/>
<stop offset="0.9964" stop-color="#F36F56"/>
</linearGradient>
<linearGradient id="paint10_linear_771_326" x1="48.9141" y1="80.8027" x2="112.6" y2="80.8027" gradientUnits="userSpaceOnUse">
<stop stop-color="#FFC444"/>
<stop offset="0.9964" stop-color="#F36F56"/>
</linearGradient>
<linearGradient id="paint11_linear_771_326" x1="13.6448" y1="121.76" x2="63.7542" y2="121.76" gradientUnits="userSpaceOnUse">
<stop stop-color="#FFC444"/>
<stop offset="0.9964" stop-color="#F36F56"/>
</linearGradient>
<linearGradient id="paint12_linear_771_326" x1="103.572" y1="109.585" x2="74.5628" y2="71.3237" gradientUnits="userSpaceOnUse">
<stop stop-color="#FFC444"/>
<stop offset="0.9964" stop-color="#F36F56"/>
</linearGradient>
<linearGradient id="paint13_linear_771_326" x1="52.462" y1="81.7121" x2="112.536" y2="81.7121" gradientUnits="userSpaceOnUse">
<stop stop-color="#FFC444"/>
<stop offset="0.9964" stop-color="#F36F56"/>
</linearGradient>
<linearGradient id="paint14_linear_771_326" x1="27.6685" y1="25.8936" x2="75.3844" y2="25.8936" gradientUnits="userSpaceOnUse">
<stop stop-color="#AA80F9"/>
<stop offset="0.9964" stop-color="#6165D7"/>
</linearGradient>
<linearGradient id="paint15_linear_771_326" x1="1.8866" y1="60.4649" x2="36.9387" y2="60.4649" gradientUnits="userSpaceOnUse">
<stop stop-color="#AA80F9"/>
<stop offset="0.9964" stop-color="#6165D7"/>
</linearGradient>
</defs>
</svg>
