<svg width="450" height="338" viewBox="0 0 450 338" fill="none" xmlns="http://www.w3.org/2000/svg">
<rect x="0.5" y="0.5" width="449" height="336.838" rx="29.5" fill="#000E32" stroke="url(#paint0_linear_57_1007)"/>
<g filter="url(#filter0_d_57_1007)">
<g clip-path="url(#clip0_57_1007)">
<path d="M151.785 167.3V144.62H161.977V148.036H156.797V153.664H160.745V157.136H156.797V163.912H162.033V167.3H151.785ZM164.308 167.3V144.62H167.836L172.484 155.54V144.62H176.628V167.3H173.24L168.592 155.54V167.3H164.308ZM180.004 167.3V144.62H190.196V148.036H185.016V153.664H188.964V157.136H185.016V163.912H190.252V167.3H180.004ZM192.527 167.3V144.62H198.771C200.302 144.62 201.627 144.788 202.747 145.124C203.867 145.46 204.735 146.066 205.351 146.944C205.986 147.802 206.303 149.025 206.303 150.612C206.303 151.545 206.229 152.376 206.079 153.104C205.93 153.832 205.65 154.466 205.239 155.008C204.847 155.53 204.278 155.969 203.531 156.324L206.639 167.3H201.459L198.967 157.136H197.539V167.3H192.527ZM197.539 154.252H198.939C199.649 154.252 200.199 154.13 200.591 153.888C200.983 153.626 201.254 153.262 201.403 152.796C201.571 152.31 201.655 151.732 201.655 151.06C201.655 150.089 201.478 149.333 201.123 148.792C200.769 148.25 200.115 147.98 199.163 147.98H197.539V154.252ZM215.005 167.636C213.437 167.636 212.196 167.309 211.281 166.656C210.385 166.002 209.741 165.088 209.349 163.912C208.976 162.717 208.789 161.345 208.789 159.796V152.18C208.789 150.574 208.995 149.184 209.405 148.008C209.816 146.832 210.516 145.926 211.505 145.292C212.513 144.638 213.876 144.312 215.593 144.312C217.273 144.312 218.589 144.592 219.541 145.152C220.512 145.712 221.203 146.486 221.613 147.476C222.024 148.465 222.229 149.622 222.229 150.948V152.404H217.329V150.556C217.329 150.07 217.292 149.622 217.217 149.212C217.161 148.801 217.012 148.474 216.769 148.232C216.545 147.97 216.172 147.84 215.649 147.84C215.108 147.84 214.716 147.989 214.473 148.288C214.231 148.568 214.072 148.922 213.997 149.352C213.941 149.781 213.913 150.229 213.913 150.696V161.196C213.913 161.7 213.96 162.176 214.053 162.624C214.165 163.053 214.352 163.408 214.613 163.688C214.893 163.949 215.285 164.08 215.789 164.08C216.312 164.08 216.713 163.94 216.993 163.66C217.273 163.38 217.469 163.016 217.581 162.568C217.693 162.12 217.749 161.644 217.749 161.14V158.48H215.705V155.54H222.257V167.3H218.953L218.673 165.424C218.375 166.058 217.936 166.59 217.357 167.02C216.779 167.43 215.995 167.636 215.005 167.636ZM231.89 167.636C230.192 167.636 228.848 167.337 227.858 166.74C226.869 166.142 226.16 165.284 225.73 164.164C225.301 163.044 225.086 161.709 225.086 160.16V151.732C225.086 150.164 225.301 148.829 225.73 147.728C226.16 146.626 226.869 145.786 227.858 145.208C228.848 144.61 230.192 144.312 231.89 144.312C233.608 144.312 234.961 144.61 235.95 145.208C236.958 145.786 237.677 146.626 238.106 147.728C238.536 148.829 238.75 150.164 238.75 151.732V160.16C238.75 161.709 238.536 163.044 238.106 164.164C237.677 165.284 236.958 166.142 235.95 166.74C234.961 167.337 233.608 167.636 231.89 167.636ZM231.89 164.08C232.413 164.08 232.796 163.949 233.038 163.688C233.281 163.426 233.44 163.09 233.514 162.68C233.589 162.269 233.626 161.849 233.626 161.42V150.5C233.626 150.052 233.589 149.632 233.514 149.24C233.44 148.829 233.281 148.493 233.038 148.232C232.796 147.97 232.413 147.84 231.89 147.84C231.405 147.84 231.041 147.97 230.798 148.232C230.556 148.493 230.397 148.829 230.322 149.24C230.248 149.632 230.21 150.052 230.21 150.5V161.42C230.21 161.849 230.238 162.269 230.294 162.68C230.369 163.09 230.518 163.426 230.742 163.688C230.985 163.949 231.368 164.08 231.89 164.08ZM243.626 167.3V148.344H240.21V144.62H252.054V148.344H248.666V167.3H243.626ZM254.051 167.3V144.62H260.295C261.825 144.62 263.151 144.788 264.271 145.124C265.391 145.46 266.259 146.066 266.875 146.944C267.509 147.802 267.827 149.025 267.827 150.612C267.827 151.545 267.752 152.376 267.603 153.104C267.453 153.832 267.173 154.466 266.763 155.008C266.371 155.53 265.801 155.969 265.055 156.324L268.163 167.3H262.983L260.491 157.136H259.063V167.3H254.051ZM259.063 154.252H260.463C261.172 154.252 261.723 154.13 262.115 153.888C262.507 153.626 262.777 153.262 262.927 152.796C263.095 152.31 263.179 151.732 263.179 151.06C263.179 150.089 263.001 149.333 262.647 148.792C262.292 148.25 261.639 147.98 260.687 147.98H259.063V154.252ZM269.748 167.3L274.032 144.62H279.744L283.972 167.3H279.352L278.596 162.512H275.264L274.48 167.3H269.748ZM275.712 159.516H278.12L276.916 150.668L275.712 159.516ZM286.262 167.3V144.62H289.79L294.438 155.54V144.62H298.582V167.3H295.194L290.546 155.54V167.3H286.262ZM307.977 167.636C306.558 167.636 305.373 167.384 304.421 166.88C303.469 166.376 302.75 165.601 302.265 164.556C301.78 163.492 301.509 162.12 301.453 160.44L305.737 159.796C305.756 160.766 305.84 161.55 305.989 162.148C306.157 162.745 306.381 163.174 306.661 163.436C306.96 163.697 307.314 163.828 307.725 163.828C308.248 163.828 308.584 163.65 308.733 163.296C308.901 162.941 308.985 162.568 308.985 162.176C308.985 161.242 308.761 160.458 308.313 159.824C307.865 159.17 307.258 158.517 306.493 157.864L304.533 156.156C303.674 155.428 302.946 154.606 302.349 153.692C301.77 152.758 301.481 151.61 301.481 150.248C301.481 148.325 302.05 146.86 303.189 145.852C304.328 144.825 305.877 144.312 307.837 144.312C309.05 144.312 310.021 144.517 310.749 144.928C311.496 145.338 312.056 145.88 312.429 146.552C312.821 147.205 313.082 147.905 313.213 148.652C313.362 149.38 313.446 150.08 313.465 150.752L309.153 151.284C309.134 150.612 309.088 150.033 309.013 149.548C308.957 149.044 308.826 148.661 308.621 148.4C308.416 148.12 308.098 147.98 307.669 147.98C307.202 147.98 306.857 148.176 306.633 148.568C306.428 148.96 306.325 149.352 306.325 149.744C306.325 150.584 306.521 151.274 306.913 151.816C307.324 152.338 307.856 152.889 308.509 153.468L310.385 155.12C311.374 155.96 312.205 156.912 312.877 157.976C313.568 159.04 313.913 160.356 313.913 161.924C313.913 162.988 313.67 163.958 313.185 164.836C312.7 165.694 312.009 166.376 311.113 166.88C310.236 167.384 309.19 167.636 307.977 167.636Z" fill="#E9D758"/>
<path d="M154.321 184.071C153.77 184.071 153.269 183.979 152.82 183.793C152.375 183.603 151.992 183.336 151.67 182.995C151.353 182.653 151.108 182.248 150.938 181.779C150.767 181.31 150.681 180.797 150.681 180.241V179.933C150.681 179.289 150.776 178.715 150.967 178.212C151.157 177.704 151.416 177.274 151.743 176.923C152.07 176.571 152.441 176.305 152.856 176.125C153.271 175.944 153.701 175.854 154.146 175.854C154.712 175.854 155.2 175.951 155.61 176.146C156.025 176.342 156.365 176.615 156.628 176.967C156.892 177.313 157.087 177.724 157.214 178.197C157.341 178.666 157.405 179.179 157.405 179.735V180.343H151.487V179.237H156.05V179.135C156.03 178.783 155.957 178.441 155.83 178.109C155.708 177.777 155.513 177.504 155.244 177.289C154.976 177.074 154.609 176.967 154.146 176.967C153.838 176.967 153.555 177.033 153.296 177.165C153.037 177.292 152.815 177.482 152.629 177.736C152.444 177.99 152.3 178.3 152.197 178.666C152.095 179.032 152.043 179.455 152.043 179.933V180.241C152.043 180.617 152.095 180.971 152.197 181.303C152.305 181.63 152.458 181.918 152.659 182.167C152.864 182.416 153.11 182.611 153.398 182.753C153.691 182.895 154.023 182.965 154.395 182.965C154.873 182.965 155.278 182.868 155.61 182.672C155.942 182.477 156.233 182.216 156.482 181.889L157.302 182.541C157.131 182.799 156.914 183.046 156.65 183.28C156.387 183.515 156.062 183.705 155.676 183.852C155.295 183.998 154.844 184.071 154.321 184.071ZM160.459 172.675V183.925H159.097V172.675H160.459ZM165.923 184.071C165.371 184.071 164.871 183.979 164.421 183.793C163.977 183.603 163.594 183.336 163.271 182.995C162.954 182.653 162.71 182.248 162.539 181.779C162.368 181.31 162.283 180.797 162.283 180.241V179.933C162.283 179.289 162.378 178.715 162.568 178.212C162.759 177.704 163.018 177.274 163.345 176.923C163.672 176.571 164.043 176.305 164.458 176.125C164.873 175.944 165.303 175.854 165.747 175.854C166.313 175.854 166.802 175.951 167.212 176.146C167.627 176.342 167.966 176.615 168.23 176.967C168.494 177.313 168.689 177.724 168.816 178.197C168.943 178.666 169.006 179.179 169.006 179.735V180.343H163.088V179.237H167.651V179.135C167.632 178.783 167.559 178.441 167.432 178.109C167.31 177.777 167.114 177.504 166.846 177.289C166.577 177.074 166.211 176.967 165.747 176.967C165.439 176.967 165.156 177.033 164.897 177.165C164.639 177.292 164.417 177.482 164.231 177.736C164.045 177.99 163.901 178.3 163.799 178.666C163.696 179.032 163.645 179.455 163.645 179.933V180.241C163.645 180.617 163.696 180.971 163.799 181.303C163.906 181.63 164.06 181.918 164.26 182.167C164.465 182.416 164.712 182.611 165 182.753C165.293 182.895 165.625 182.965 165.996 182.965C166.475 182.965 166.88 182.868 167.212 182.672C167.544 182.477 167.834 182.216 168.083 181.889L168.904 182.541C168.733 182.799 168.516 183.046 168.252 183.28C167.988 183.515 167.664 183.705 167.278 183.852C166.897 183.998 166.445 184.071 165.923 184.071ZM173.76 182.958C174.082 182.958 174.38 182.892 174.653 182.76C174.927 182.628 175.151 182.448 175.327 182.218C175.503 181.984 175.603 181.718 175.627 181.42H176.917C176.892 181.889 176.733 182.326 176.44 182.731C176.152 183.131 175.774 183.456 175.305 183.705C174.836 183.949 174.321 184.071 173.76 184.071C173.164 184.071 172.644 183.966 172.2 183.756C171.76 183.546 171.394 183.258 171.101 182.892C170.813 182.526 170.596 182.106 170.449 181.632C170.308 181.154 170.237 180.648 170.237 180.116V179.809C170.237 179.276 170.308 178.773 170.449 178.3C170.596 177.821 170.813 177.399 171.101 177.033C171.394 176.667 171.76 176.378 172.2 176.168C172.644 175.958 173.164 175.854 173.76 175.854C174.38 175.854 174.922 175.98 175.386 176.234C175.85 176.483 176.213 176.825 176.477 177.26C176.746 177.689 176.892 178.178 176.917 178.725H175.627C175.603 178.397 175.51 178.102 175.349 177.838C175.193 177.575 174.978 177.365 174.705 177.208C174.436 177.047 174.121 176.967 173.76 176.967C173.345 176.967 172.996 177.05 172.712 177.216C172.434 177.377 172.212 177.597 172.046 177.875C171.885 178.148 171.768 178.454 171.694 178.791C171.626 179.123 171.592 179.462 171.592 179.809V180.116C171.592 180.463 171.626 180.805 171.694 181.142C171.763 181.479 171.877 181.784 172.039 182.057C172.205 182.331 172.427 182.55 172.705 182.716C172.988 182.877 173.34 182.958 173.76 182.958ZM181.758 176V177.04H177.473V176H181.758ZM178.923 174.074H180.278V181.962C180.278 182.23 180.32 182.433 180.403 182.57C180.486 182.707 180.593 182.797 180.725 182.841C180.857 182.885 180.999 182.907 181.15 182.907C181.262 182.907 181.379 182.897 181.501 182.877C181.628 182.853 181.724 182.833 181.787 182.819L181.794 183.925C181.687 183.959 181.545 183.991 181.37 184.02C181.199 184.054 180.991 184.071 180.747 184.071C180.415 184.071 180.11 184.005 179.832 183.874C179.553 183.742 179.331 183.522 179.165 183.214C179.004 182.902 178.923 182.482 178.923 181.955V174.074ZM184.702 177.245V183.925H183.347V176H184.666L184.702 177.245ZM187.178 175.956L187.17 177.216C187.058 177.191 186.951 177.177 186.848 177.172C186.75 177.162 186.638 177.157 186.511 177.157C186.199 177.157 185.923 177.206 185.684 177.304C185.444 177.401 185.242 177.538 185.076 177.714C184.91 177.89 184.778 178.1 184.68 178.344C184.587 178.583 184.526 178.847 184.497 179.135L184.116 179.354C184.116 178.876 184.163 178.427 184.255 178.007C184.353 177.587 184.502 177.216 184.702 176.894C184.902 176.566 185.156 176.312 185.464 176.132C185.776 175.946 186.147 175.854 186.577 175.854C186.675 175.854 186.787 175.866 186.914 175.89C187.041 175.91 187.129 175.932 187.178 175.956ZM187.925 180.05V179.882C187.925 179.311 188.008 178.781 188.174 178.292C188.34 177.799 188.579 177.372 188.892 177.011C189.204 176.645 189.583 176.361 190.027 176.161C190.471 175.956 190.969 175.854 191.521 175.854C192.078 175.854 192.578 175.956 193.022 176.161C193.472 176.361 193.853 176.645 194.165 177.011C194.482 177.372 194.724 177.799 194.89 178.292C195.056 178.781 195.139 179.311 195.139 179.882V180.05C195.139 180.622 195.056 181.151 194.89 181.64C194.724 182.128 194.482 182.555 194.165 182.921C193.853 183.283 193.474 183.566 193.03 183.771C192.59 183.971 192.092 184.071 191.536 184.071C190.979 184.071 190.479 183.971 190.034 183.771C189.59 183.566 189.209 183.283 188.892 182.921C188.579 182.555 188.34 182.128 188.174 181.64C188.008 181.151 187.925 180.622 187.925 180.05ZM189.28 179.882V180.05C189.28 180.446 189.326 180.819 189.419 181.171C189.512 181.518 189.651 181.825 189.836 182.094C190.027 182.362 190.264 182.575 190.547 182.731C190.83 182.882 191.16 182.958 191.536 182.958C191.907 182.958 192.231 182.882 192.51 182.731C192.793 182.575 193.027 182.362 193.213 182.094C193.398 181.825 193.538 181.518 193.63 181.171C193.728 180.819 193.777 180.446 193.777 180.05V179.882C193.777 179.491 193.728 179.123 193.63 178.776C193.538 178.424 193.396 178.114 193.206 177.846C193.02 177.572 192.786 177.357 192.502 177.201C192.224 177.045 191.897 176.967 191.521 176.967C191.15 176.967 190.823 177.045 190.54 177.201C190.261 177.357 190.027 177.572 189.836 177.846C189.651 178.114 189.512 178.424 189.419 178.776C189.326 179.123 189.28 179.491 189.28 179.882ZM200.156 176V177.04H195.872V176H200.156ZM197.322 174.074H198.677V181.962C198.677 182.23 198.718 182.433 198.801 182.57C198.884 182.707 198.992 182.797 199.124 182.841C199.255 182.885 199.397 182.907 199.548 182.907C199.661 182.907 199.778 182.897 199.9 182.877C200.027 182.853 200.122 182.833 200.186 182.819L200.193 183.925C200.085 183.959 199.944 183.991 199.768 184.02C199.597 184.054 199.39 184.071 199.146 184.071C198.813 184.071 198.508 184.005 198.23 183.874C197.952 183.742 197.729 183.522 197.563 183.214C197.402 182.902 197.322 182.482 197.322 181.955V174.074ZM205.034 184.071C204.482 184.071 203.982 183.979 203.533 183.793C203.088 183.603 202.705 183.336 202.383 182.995C202.065 182.653 201.821 182.248 201.65 181.779C201.479 181.31 201.394 180.797 201.394 180.241V179.933C201.394 179.289 201.489 178.715 201.68 178.212C201.87 177.704 202.129 177.274 202.456 176.923C202.783 176.571 203.154 176.305 203.569 176.125C203.984 175.944 204.414 175.854 204.858 175.854C205.425 175.854 205.913 175.951 206.323 176.146C206.738 176.342 207.078 176.615 207.341 176.967C207.605 177.313 207.8 177.724 207.927 178.197C208.054 178.666 208.118 179.179 208.118 179.735V180.343H202.2V179.237H206.763V179.135C206.743 178.783 206.67 178.441 206.543 178.109C206.421 177.777 206.226 177.504 205.957 177.289C205.688 177.074 205.322 176.967 204.858 176.967C204.551 176.967 204.268 177.033 204.009 177.165C203.75 177.292 203.528 177.482 203.342 177.736C203.157 177.99 203.013 178.3 202.91 178.666C202.808 179.032 202.756 179.455 202.756 179.933V180.241C202.756 180.617 202.808 180.971 202.91 181.303C203.018 181.63 203.171 181.918 203.372 182.167C203.577 182.416 203.823 182.611 204.111 182.753C204.404 182.895 204.736 182.965 205.107 182.965C205.586 182.965 205.991 182.868 206.323 182.672C206.655 182.477 206.946 182.216 207.195 181.889L208.015 182.541C207.844 182.799 207.627 183.046 207.363 183.28C207.1 183.515 206.775 183.705 206.389 183.852C206.008 183.998 205.557 184.071 205.034 184.071ZM212.871 182.958C213.193 182.958 213.491 182.892 213.765 182.76C214.038 182.628 214.263 182.448 214.438 182.218C214.614 181.984 214.714 181.718 214.739 181.42H216.028C216.003 181.889 215.845 182.326 215.552 182.731C215.264 183.131 214.885 183.456 214.417 183.705C213.948 183.949 213.433 184.071 212.871 184.071C212.275 184.071 211.755 183.966 211.311 183.756C210.872 183.546 210.505 183.258 210.212 182.892C209.924 182.526 209.707 182.106 209.561 181.632C209.419 181.154 209.348 180.648 209.348 180.116V179.809C209.348 179.276 209.419 178.773 209.561 178.3C209.707 177.821 209.924 177.399 210.212 177.033C210.505 176.667 210.872 176.378 211.311 176.168C211.755 175.958 212.275 175.854 212.871 175.854C213.491 175.854 214.033 175.98 214.497 176.234C214.961 176.483 215.325 176.825 215.588 177.26C215.857 177.689 216.003 178.178 216.028 178.725H214.739C214.714 178.397 214.622 178.102 214.46 177.838C214.304 177.575 214.089 177.365 213.816 177.208C213.547 177.047 213.232 176.967 212.871 176.967C212.456 176.967 212.107 177.05 211.824 177.216C211.545 177.377 211.323 177.597 211.157 177.875C210.996 178.148 210.879 178.454 210.806 178.791C210.737 179.123 210.703 179.462 210.703 179.809V180.116C210.703 180.463 210.737 180.805 210.806 181.142C210.874 181.479 210.989 181.784 211.15 182.057C211.316 182.331 211.538 182.55 211.816 182.716C212.1 182.877 212.451 182.958 212.871 182.958ZM218.906 172.675V183.925H217.551V172.675H218.906ZM218.584 179.662L218.02 179.64C218.025 179.098 218.105 178.598 218.262 178.139C218.418 177.675 218.638 177.272 218.921 176.93C219.204 176.588 219.541 176.325 219.932 176.139C220.327 175.949 220.764 175.854 221.243 175.854C221.633 175.854 221.985 175.907 222.297 176.015C222.61 176.117 222.876 176.283 223.096 176.513C223.32 176.742 223.491 177.04 223.608 177.406C223.726 177.768 223.784 178.209 223.784 178.732V183.925H222.422V178.717C222.422 178.302 222.361 177.97 222.239 177.721C222.117 177.467 221.938 177.284 221.704 177.172C221.47 177.055 221.182 176.996 220.84 176.996C220.503 176.996 220.195 177.067 219.917 177.208C219.644 177.35 219.407 177.545 219.207 177.794C219.011 178.043 218.857 178.329 218.745 178.651C218.638 178.969 218.584 179.306 218.584 179.662ZM227.168 177.692V183.925H225.813V176H227.095L227.168 177.692ZM226.846 179.662L226.282 179.64C226.287 179.098 226.367 178.598 226.523 178.139C226.68 177.675 226.899 177.272 227.183 176.93C227.466 176.588 227.803 176.325 228.193 176.139C228.589 175.949 229.026 175.854 229.504 175.854C229.895 175.854 230.247 175.907 230.559 176.015C230.872 176.117 231.138 176.283 231.357 176.513C231.582 176.742 231.753 177.04 231.87 177.406C231.987 177.768 232.046 178.209 232.046 178.732V183.925H230.684V178.717C230.684 178.302 230.623 177.97 230.5 177.721C230.378 177.467 230.2 177.284 229.966 177.172C229.731 177.055 229.443 176.996 229.102 176.996C228.765 176.996 228.457 177.067 228.179 177.208C227.905 177.35 227.668 177.545 227.468 177.794C227.273 178.043 227.119 178.329 227.007 178.651C226.899 178.969 226.846 179.306 226.846 179.662ZM235.576 176V183.925H234.214V176H235.576ZM234.111 173.898C234.111 173.678 234.177 173.493 234.309 173.341C234.446 173.19 234.646 173.114 234.91 173.114C235.168 173.114 235.366 173.19 235.503 173.341C235.645 173.493 235.715 173.678 235.715 173.898C235.715 174.108 235.645 174.289 235.503 174.44C235.366 174.586 235.168 174.66 234.91 174.66C234.646 174.66 234.446 174.586 234.309 174.44C234.177 174.289 234.111 174.108 234.111 173.898ZM240.923 182.958C241.245 182.958 241.543 182.892 241.816 182.76C242.09 182.628 242.314 182.448 242.49 182.218C242.666 181.984 242.766 181.718 242.791 181.42H244.08C244.055 181.889 243.896 182.326 243.604 182.731C243.315 183.131 242.937 183.456 242.468 183.705C242 183.949 241.484 184.071 240.923 184.071C240.327 184.071 239.807 183.966 239.363 183.756C238.923 183.546 238.557 183.258 238.264 182.892C237.976 182.526 237.759 182.106 237.612 181.632C237.471 181.154 237.4 180.648 237.4 180.116V179.809C237.4 179.276 237.471 178.773 237.612 178.3C237.759 177.821 237.976 177.399 238.264 177.033C238.557 176.667 238.923 176.378 239.363 176.168C239.807 175.958 240.327 175.854 240.923 175.854C241.543 175.854 242.085 175.98 242.549 176.234C243.013 176.483 243.376 176.825 243.64 177.26C243.909 177.689 244.055 178.178 244.08 178.725H242.791C242.766 178.397 242.673 178.102 242.512 177.838C242.356 177.575 242.141 177.365 241.868 177.208C241.599 177.047 241.284 176.967 240.923 176.967C240.508 176.967 240.159 177.05 239.875 177.216C239.597 177.377 239.375 177.597 239.209 177.875C239.048 178.148 238.931 178.454 238.857 178.791C238.789 179.123 238.755 179.462 238.755 179.809V180.116C238.755 180.463 238.789 180.805 238.857 181.142C238.926 181.479 239.041 181.784 239.202 182.057C239.368 182.331 239.59 182.55 239.868 182.716C240.151 182.877 240.503 182.958 240.923 182.958ZM250.276 182.57V178.49C250.276 178.178 250.212 177.907 250.085 177.677C249.963 177.443 249.778 177.262 249.529 177.135C249.28 177.008 248.972 176.945 248.606 176.945C248.264 176.945 247.964 177.003 247.705 177.121C247.451 177.238 247.251 177.392 247.104 177.582C246.963 177.772 246.892 177.978 246.892 178.197H245.537C245.537 177.914 245.61 177.633 245.757 177.355C245.903 177.077 246.113 176.825 246.387 176.601C246.665 176.371 246.997 176.19 247.383 176.059C247.773 175.922 248.208 175.854 248.687 175.854C249.263 175.854 249.771 175.951 250.21 176.146C250.654 176.342 251.001 176.637 251.25 177.033C251.504 177.423 251.631 177.914 251.631 178.505V182.196C251.631 182.46 251.653 182.741 251.697 183.039C251.746 183.336 251.816 183.593 251.909 183.808V183.925H250.496C250.427 183.769 250.374 183.561 250.334 183.302C250.295 183.039 250.276 182.794 250.276 182.57ZM250.51 179.12L250.525 180.072H249.155C248.77 180.072 248.425 180.104 248.123 180.167C247.82 180.226 247.566 180.316 247.361 180.438C247.156 180.561 247 180.714 246.892 180.9C246.785 181.081 246.731 181.293 246.731 181.537C246.731 181.786 246.787 182.013 246.899 182.218C247.012 182.423 247.18 182.587 247.405 182.709C247.634 182.826 247.915 182.885 248.247 182.885C248.662 182.885 249.028 182.797 249.346 182.621C249.663 182.445 249.915 182.23 250.1 181.977C250.291 181.723 250.393 181.476 250.408 181.237L250.986 181.889C250.952 182.094 250.859 182.321 250.708 182.57C250.557 182.819 250.354 183.058 250.1 183.288C249.851 183.512 249.553 183.7 249.207 183.852C248.865 183.998 248.479 184.071 248.049 184.071C247.512 184.071 247.041 183.966 246.636 183.756C246.235 183.546 245.923 183.266 245.698 182.914C245.479 182.558 245.369 182.16 245.369 181.72C245.369 181.295 245.452 180.922 245.618 180.6C245.784 180.272 246.023 180.001 246.335 179.787C246.648 179.567 247.024 179.401 247.463 179.289C247.903 179.176 248.394 179.12 248.936 179.12H250.51ZM255.234 172.675V183.925H253.872V172.675H255.234ZM264.302 182.958C264.624 182.958 264.922 182.892 265.195 182.76C265.469 182.628 265.693 182.448 265.869 182.218C266.045 181.984 266.145 181.718 266.169 181.42H267.458C267.434 181.889 267.275 182.326 266.982 182.731C266.694 183.131 266.316 183.456 265.847 183.705C265.378 183.949 264.863 184.071 264.302 184.071C263.706 184.071 263.186 183.966 262.742 183.756C262.302 183.546 261.936 183.258 261.643 182.892C261.355 182.526 261.138 182.106 260.991 181.632C260.85 181.154 260.779 180.648 260.779 180.116V179.809C260.779 179.276 260.85 178.773 260.991 178.3C261.138 177.821 261.355 177.399 261.643 177.033C261.936 176.667 262.302 176.378 262.742 176.168C263.186 175.958 263.706 175.854 264.302 175.854C264.922 175.854 265.464 175.98 265.928 176.234C266.392 176.483 266.755 176.825 267.019 177.26C267.288 177.689 267.434 178.178 267.458 178.725H266.169C266.145 178.397 266.052 178.102 265.891 177.838C265.735 177.575 265.52 177.365 265.247 177.208C264.978 177.047 264.663 176.967 264.302 176.967C263.887 176.967 263.538 177.05 263.254 177.216C262.976 177.377 262.754 177.597 262.588 177.875C262.427 178.148 262.31 178.454 262.236 178.791C262.168 179.123 262.134 179.462 262.134 179.809V180.116C262.134 180.463 262.168 180.805 262.236 181.142C262.305 181.479 262.419 181.784 262.581 182.057C262.747 182.331 262.969 182.55 263.247 182.716C263.53 182.877 263.882 182.958 264.302 182.958ZM268.623 180.05V179.882C268.623 179.311 268.706 178.781 268.872 178.292C269.038 177.799 269.277 177.372 269.59 177.011C269.902 176.645 270.281 176.361 270.725 176.161C271.169 175.956 271.667 175.854 272.219 175.854C272.776 175.854 273.276 175.956 273.721 176.161C274.17 176.361 274.551 176.645 274.863 177.011C275.181 177.372 275.422 177.799 275.588 178.292C275.754 178.781 275.837 179.311 275.837 179.882V180.05C275.837 180.622 275.754 181.151 275.588 181.64C275.422 182.128 275.181 182.555 274.863 182.921C274.551 183.283 274.172 183.566 273.728 183.771C273.289 183.971 272.791 184.071 272.234 184.071C271.677 184.071 271.177 183.971 270.732 183.771C270.288 183.566 269.907 183.283 269.59 182.921C269.277 182.555 269.038 182.128 268.872 181.64C268.706 181.151 268.623 180.622 268.623 180.05ZM269.978 179.882V180.05C269.978 180.446 270.024 180.819 270.117 181.171C270.21 181.518 270.349 181.825 270.535 182.094C270.725 182.362 270.962 182.575 271.245 182.731C271.528 182.882 271.858 182.958 272.234 182.958C272.605 182.958 272.93 182.882 273.208 182.731C273.491 182.575 273.726 182.362 273.911 182.094C274.097 181.825 274.236 181.518 274.329 181.171C274.426 180.819 274.475 180.446 274.475 180.05V179.882C274.475 179.491 274.426 179.123 274.329 178.776C274.236 178.424 274.094 178.114 273.904 177.846C273.718 177.572 273.484 177.357 273.201 177.201C272.922 177.045 272.595 176.967 272.219 176.967C271.848 176.967 271.521 177.045 271.238 177.201C270.959 177.357 270.725 177.572 270.535 177.846C270.349 178.114 270.21 178.424 270.117 178.776C270.024 179.123 269.978 179.491 269.978 179.882ZM278.884 177.575V183.925H277.522V176H278.811L278.884 177.575ZM278.606 179.662L277.976 179.64C277.981 179.098 278.052 178.598 278.188 178.139C278.325 177.675 278.528 177.272 278.796 176.93C279.065 176.588 279.399 176.325 279.8 176.139C280.2 175.949 280.664 175.854 281.191 175.854C281.562 175.854 281.904 175.907 282.217 176.015C282.529 176.117 282.8 176.281 283.03 176.505C283.259 176.73 283.438 177.018 283.564 177.37C283.691 177.721 283.755 178.146 283.755 178.644V183.925H282.4V178.71C282.4 178.295 282.329 177.963 282.188 177.714C282.051 177.465 281.855 177.284 281.602 177.172C281.348 177.055 281.05 176.996 280.708 176.996C280.308 176.996 279.973 177.067 279.705 177.208C279.436 177.35 279.221 177.545 279.06 177.794C278.899 178.043 278.782 178.329 278.708 178.651C278.64 178.969 278.606 179.306 278.606 179.662ZM283.74 178.915L282.832 179.193C282.837 178.759 282.908 178.341 283.044 177.941C283.186 177.541 283.389 177.184 283.652 176.872C283.921 176.559 284.25 176.312 284.641 176.132C285.032 175.946 285.479 175.854 285.981 175.854C286.406 175.854 286.782 175.91 287.109 176.022C287.441 176.134 287.72 176.308 287.944 176.542C288.174 176.771 288.347 177.067 288.464 177.428C288.582 177.79 288.64 178.219 288.64 178.717V183.925H287.278V178.703C287.278 178.258 287.207 177.914 287.065 177.67C286.929 177.421 286.733 177.248 286.479 177.15C286.23 177.047 285.933 176.996 285.586 176.996C285.288 176.996 285.024 177.047 284.795 177.15C284.565 177.252 284.373 177.394 284.216 177.575C284.06 177.75 283.94 177.953 283.857 178.183C283.779 178.412 283.74 178.656 283.74 178.915ZM292.046 177.523V186.972H290.684V176H291.929L292.046 177.523ZM297.385 179.896V180.05C297.385 180.626 297.317 181.161 297.18 181.654C297.043 182.143 296.843 182.567 296.58 182.929C296.321 183.29 296.001 183.571 295.62 183.771C295.239 183.971 294.802 184.071 294.309 184.071C293.806 184.071 293.362 183.988 292.976 183.822C292.59 183.656 292.263 183.415 291.995 183.097C291.726 182.78 291.511 182.399 291.35 181.955C291.194 181.51 291.086 181.01 291.028 180.453V179.633C291.086 179.047 291.196 178.522 291.357 178.058C291.519 177.594 291.731 177.199 291.995 176.872C292.263 176.54 292.588 176.288 292.969 176.117C293.35 175.941 293.789 175.854 294.287 175.854C294.785 175.854 295.227 175.951 295.613 176.146C295.999 176.337 296.323 176.61 296.587 176.967C296.851 177.323 297.048 177.75 297.18 178.249C297.317 178.742 297.385 179.291 297.385 179.896ZM296.023 180.05V179.896C296.023 179.501 295.981 179.13 295.898 178.783C295.815 178.432 295.686 178.124 295.51 177.86C295.339 177.592 295.12 177.382 294.851 177.23C294.583 177.074 294.263 176.996 293.892 176.996C293.55 176.996 293.252 177.055 292.998 177.172C292.749 177.289 292.537 177.448 292.361 177.648C292.185 177.843 292.041 178.068 291.929 178.322C291.821 178.571 291.741 178.83 291.687 179.098V180.995C291.785 181.337 291.921 181.659 292.097 181.962C292.273 182.26 292.507 182.501 292.8 182.687C293.093 182.868 293.462 182.958 293.906 182.958C294.272 182.958 294.587 182.882 294.851 182.731C295.12 182.575 295.339 182.362 295.51 182.094C295.686 181.825 295.815 181.518 295.898 181.171C295.981 180.819 296.023 180.446 296.023 180.05ZM303.787 182.57V178.49C303.787 178.178 303.723 177.907 303.596 177.677C303.474 177.443 303.289 177.262 303.04 177.135C302.791 177.008 302.483 176.945 302.117 176.945C301.775 176.945 301.475 177.003 301.216 177.121C300.962 177.238 300.762 177.392 300.615 177.582C300.474 177.772 300.403 177.978 300.403 178.197H299.048C299.048 177.914 299.121 177.633 299.268 177.355C299.414 177.077 299.624 176.825 299.897 176.601C300.176 176.371 300.508 176.19 300.894 176.059C301.284 175.922 301.719 175.854 302.197 175.854C302.773 175.854 303.281 175.951 303.721 176.146C304.165 176.342 304.512 176.637 304.761 177.033C305.015 177.423 305.142 177.914 305.142 178.505V182.196C305.142 182.46 305.164 182.741 305.208 183.039C305.256 183.336 305.327 183.593 305.42 183.808V183.925H304.006C303.938 183.769 303.884 183.561 303.845 183.302C303.806 183.039 303.787 182.794 303.787 182.57ZM304.021 179.12L304.036 180.072H302.666C302.28 180.072 301.936 180.104 301.633 180.167C301.331 180.226 301.077 180.316 300.872 180.438C300.667 180.561 300.51 180.714 300.403 180.9C300.295 181.081 300.242 181.293 300.242 181.537C300.242 181.786 300.298 182.013 300.41 182.218C300.522 182.423 300.691 182.587 300.916 182.709C301.145 182.826 301.426 182.885 301.758 182.885C302.173 182.885 302.539 182.797 302.856 182.621C303.174 182.445 303.425 182.23 303.611 181.977C303.801 181.723 303.904 181.476 303.918 181.237L304.497 181.889C304.463 182.094 304.37 182.321 304.219 182.57C304.067 182.819 303.865 183.058 303.611 183.288C303.362 183.512 303.064 183.7 302.717 183.852C302.375 183.998 301.99 184.071 301.56 184.071C301.023 184.071 300.552 183.966 300.146 183.756C299.746 183.546 299.434 183.266 299.209 182.914C298.989 182.558 298.879 182.16 298.879 181.72C298.879 181.295 298.962 180.922 299.128 180.6C299.294 180.272 299.534 180.001 299.846 179.787C300.159 179.567 300.535 179.401 300.974 179.289C301.414 179.176 301.904 179.12 302.446 179.12H304.021ZM308.628 177.692V183.925H307.273V176H308.555L308.628 177.692ZM308.306 179.662L307.742 179.64C307.747 179.098 307.827 178.598 307.983 178.139C308.14 177.675 308.359 177.272 308.643 176.93C308.926 176.588 309.263 176.325 309.653 176.139C310.049 175.949 310.486 175.854 310.964 175.854C311.355 175.854 311.707 175.907 312.019 176.015C312.332 176.117 312.598 176.283 312.817 176.513C313.042 176.742 313.213 177.04 313.33 177.406C313.447 177.768 313.506 178.209 313.506 178.732V183.925H312.144V178.717C312.144 178.302 312.083 177.97 311.96 177.721C311.838 177.467 311.66 177.284 311.426 177.172C311.191 177.055 310.903 176.996 310.562 176.996C310.225 176.996 309.917 177.067 309.639 177.208C309.365 177.35 309.128 177.545 308.928 177.794C308.733 178.043 308.579 178.329 308.467 178.651C308.359 178.969 308.306 179.306 308.306 179.662ZM317.791 183.104L319.995 176H321.445L318.267 185.148C318.193 185.343 318.096 185.553 317.974 185.778C317.856 186.007 317.705 186.225 317.52 186.43C317.334 186.635 317.109 186.801 316.846 186.928C316.587 187.06 316.277 187.125 315.916 187.125C315.808 187.125 315.671 187.111 315.505 187.082C315.339 187.052 315.222 187.028 315.154 187.008L315.146 185.91C315.186 185.915 315.247 185.919 315.33 185.924C315.417 185.934 315.479 185.939 315.513 185.939C315.82 185.939 316.082 185.897 316.296 185.814C316.511 185.736 316.692 185.602 316.838 185.412C316.99 185.226 317.119 184.97 317.227 184.643L317.791 183.104ZM316.172 176L318.23 182.152L318.582 183.581L317.607 184.079L314.692 176H316.172Z" fill="#E9D758"/>
<path d="M112.794 162.399H120.747V167.346H112.794V177.479H122.808V182.426H107V147.858H122.808V152.806H112.794V162.442V162.399Z" fill="#E9D758"/>
<path d="M129.07 147.815H146.375V152.762H140.522V182.404H134.922V152.762H129.07V147.815Z" fill="#E9D758"/>
<path d="M120.242 146H118.745C118.143 146 117.656 146.542 117.656 147.21V149.673C117.656 150.341 118.143 150.883 118.745 150.883H120.242C120.843 150.883 121.331 150.341 121.331 149.673V147.21C121.331 146.542 120.843 146 120.242 146Z" fill="#E9D758"/>
<path d="M111.9 146H110.403C109.801 146 109.314 146.542 109.314 147.21V149.673C109.314 150.341 109.801 150.883 110.403 150.883H111.9C112.501 150.883 112.989 150.341 112.989 149.673V147.21C112.989 146.542 112.501 146 111.9 146Z" fill="#E9D758"/>
<path d="M142 146H140.503C139.902 146 139.414 146.542 139.414 147.21V149.673C139.414 150.341 139.902 150.883 140.503 150.883H142C142.602 150.883 143.089 150.341 143.089 149.673V147.21C143.089 146.542 142.602 146 142 146Z" fill="#E9D758"/>
<path d="M133.639 146H132.142C131.54 146 131.053 146.542 131.053 147.21V149.673C131.053 150.341 131.54 150.883 132.142 150.883H133.639C134.24 150.883 134.728 150.341 134.728 149.673V147.21C134.728 146.542 134.24 146 133.639 146Z" fill="#E9D758"/>
<path d="M119.97 148.441C119.678 148.441 125.861 156.025 132.9 148.441" stroke="#E9D758" stroke-miterlimit="10"/>
<path d="M111.142 148.441C112.639 155.485 131.208 167.583 141.242 148.441" stroke="#E9D758" stroke-miterlimit="10"/>
</g>
</g>
<defs>
<filter id="filter0_d_57_1007" x="98" y="140" width="253" height="65" filterUnits="userSpaceOnUse" color-interpolation-filters="sRGB">
<feFlood flood-opacity="0" result="BackgroundImageFix"/>
<feColorMatrix in="SourceAlpha" type="matrix" values="0 0 0 0 0 0 0 0 0 0 0 0 0 0 0 0 0 0 127 0" result="hardAlpha"/>
<feOffset dy="4"/>
<feGaussianBlur stdDeviation="2"/>
<feComposite in2="hardAlpha" operator="out"/>
<feColorMatrix type="matrix" values="0 0 0 0 0 0 0 0 0 0 0 0 0 0 0 0 0 0 0.25 0"/>
<feBlend mode="normal" in2="BackgroundImageFix" result="effect1_dropShadow_57_1007"/>
<feBlend mode="normal" in="SourceGraphic" in2="effect1_dropShadow_57_1007" result="shape"/>
</filter>
<linearGradient id="paint0_linear_57_1007" x1="35.8108" y1="5.40542" x2="450" y2="291.892" gradientUnits="userSpaceOnUse">
<stop stop-color="#F73E94"/>
<stop offset="1" stop-color="#22DCD9"/>
</linearGradient>
<clipPath id="clip0_57_1007">
<rect width="245" height="57" fill="white" transform="translate(102 140)"/>
</clipPath>
</defs>
</svg>
