<svg width="426" height="336" viewBox="0 0 426 336" fill="none" xmlns="http://www.w3.org/2000/svg">
<path d="M373.787 91.7297C368.458 100.436 361.675 108.939 352.147 112.599C347.024 114.567 341.446 114.991 336.177 116.527C325.298 119.698 315.977 127.838 311.37 138.19C308.755 144.064 307.347 150.931 302.359 154.991C297.754 158.739 290.889 158.998 285.56 156.385C280.23 153.773 276.395 148.666 274.422 143.068C271.927 135.99 272.422 127.467 277.298 121.761C283.101 114.972 293.653 113.431 298.773 106.114C302.62 100.616 302.361 93.2507 301.016 86.6784C299.671 80.1037 297.386 73.5949 297.698 66.8932C298.116 57.9943 303.497 49.4909 311.363 45.3063C319.227 41.1217 329.288 41.4074 336.9 46.0314C338.191 46.8151 339.432 47.7209 340.862 48.2067C344.888 49.5715 349.261 47.2594 352.366 44.3542C355.472 41.4489 358.001 37.8405 361.663 35.6823C367 32.5353 374.344 33.2751 378.946 37.423C383.548 41.571 385.047 48.7951 382.474 54.4299C381.324 56.947 378.521 59.0173 378.211 61.7907C377.911 64.4714 380.408 68.2995 380.547 71.2438C380.882 78.4313 377.447 85.7507 373.787 91.7297Z" fill="#7B5DCE"/>
<path d="M376.881 179.718C379.276 165.594 372.244 150.128 378.477 137.23C382.186 129.559 390.194 124.003 391.715 115.619C393.446 106.085 385.794 97.174 377.188 92.7209C369.281 88.6291 359.974 86.9445 351.302 88.9587C342.63 90.9728 334.754 96.9201 331.27 105.113C330.164 107.718 329.503 110.489 328.47 113.124C324.788 122.523 316.764 129.425 310.973 137.694C297.298 157.223 297.313 183.444 310.33 203.236C322.279 221.4 338.411 220.873 355.65 209.032C365.667 202.159 374.791 192.052 376.881 179.718Z" fill="#22DCD9"/>
<path d="M84.5147 42.3005C92.2369 32.0784 104.461 25.3889 117.234 24.4001C119.61 24.217 122.046 24.2268 124.319 24.9421C131.353 27.1614 134.656 35.218 135.757 42.5105C136.089 44.7151 136.302 46.9905 135.76 49.1535C135.337 50.8381 134.476 52.3738 133.621 53.8874C131.431 57.7766 129.239 61.6633 127.049 65.5525C119.271 79.3513 98.8384 110.621 79.2535 94.7761C66.7657 84.6736 76.8487 52.4494 84.5147 42.3005Z" fill="#22DCD9"/>
<path d="M234.459 25.682C238.421 24.3759 242.933 24.2441 246.214 21.6659C248.716 19.7006 250.047 16.6488 251.675 13.9145C255.132 8.11369 260.45 3.28947 266.856 1.15324C273.262 -0.982991 280.745 -0.191971 286.143 3.86565C289.683 6.52678 292.261 10.4452 296.185 12.496C299.127 14.0341 302.576 14.3783 305.526 15.8993C311.602 19.0317 314.166 26.2484 315.882 32.8671C316.939 36.9443 317.882 41.2167 316.998 45.3354C315.179 53.7997 306.566 58.7216 298.797 62.5473C279.661 71.9736 252.31 84.7397 231.866 71.0092C217.403 61.2948 215.994 31.7636 234.459 25.682Z" fill="#F73E94"/>
<path d="M117.356 178.692C109.939 171.678 101.172 165.237 91.0182 164.193C85.5592 163.631 80.0636 164.676 74.5777 164.569C63.2496 164.346 52.1265 158.922 44.9781 150.13C40.9205 145.142 37.7686 138.88 31.8946 136.263C26.4722 133.846 19.7755 135.389 15.3126 139.3C10.8497 143.214 8.48153 149.144 8.0372 155.064C7.47567 162.549 10.1759 170.645 16.3722 174.881C23.7452 179.92 34.3336 178.655 41.1866 184.381C46.3355 188.682 48.0079 195.86 48.4254 202.557C48.8429 209.254 48.335 216.133 50.3858 222.523C53.1104 231.004 60.525 237.808 69.2091 239.796C77.8931 241.783 87.5294 238.883 93.672 232.43C94.7144 231.336 95.6739 230.137 96.9288 229.295C100.459 226.927 105.283 228.018 109.038 230.01C112.793 232.005 116.177 234.827 120.276 235.955C126.25 237.598 133.145 234.969 136.506 229.764C139.868 224.559 139.429 217.193 135.474 212.425C133.706 210.296 130.459 209.027 129.436 206.431C128.447 203.922 129.858 199.576 129.224 196.697C127.676 189.676 122.449 183.507 117.356 178.692Z" fill="#22DCD9"/>
<path d="M56.3824 170.955C53.8213 160.035 54.6343 147.618 47.6031 138.88C41.1236 130.831 30.0249 128.526 21.1285 123.272C7.63969 115.308 -0.810015 99.5003 0.0615674 83.8582C0.933149 68.2161 11.0894 53.4481 25.3814 47.032C28.1036 45.8089 31.0552 44.8592 34.0289 45.118C38.6871 45.5208 42.625 48.8265 45.3765 52.6058C48.128 56.3851 50.0079 60.7308 52.6275 64.6028C54.522 67.4031 57.2759 70.1644 60.6548 70.0569C63.7725 69.9568 66.2261 67.4642 69.0777 66.1995C75.523 63.3382 83.3721 67.369 87.0733 73.3675C90.7769 79.3685 91.3262 86.7366 91.5582 93.785C91.7901 100.833 91.8536 108.126 94.7832 114.539C99.6685 125.235 111.536 131.385 116.646 141.976C123.582 156.348 116.915 186.832 101.985 195.33C82.293 206.541 60.9624 190.477 56.3824 170.955Z" fill="#F73E94"/>
<path d="M261.358 224.935C288.516 223.59 321.536 221.81 342.566 228.136C355.252 231.952 351.668 242.191 360.65 247.591C371.136 253.895 393.658 253.485 408.443 257.743C420.716 261.278 426.988 268.231 424.612 275.67C422.237 283.109 411.285 290.814 396.375 295.533C369.558 304.02 337.239 301.913 308.335 308.006C289.07 312.066 272.92 319.425 254.842 324.908C228.304 332.958 197.215 336.827 169.849 335.484C160.34 335.018 151.16 333.924 143.836 331.656C129.993 327.369 124.021 319.349 110.589 314.833C93.5184 309.093 66.7752 309.772 50.1883 303.778C31.0526 296.861 30.9232 282.115 45.0638 269.977C59.2044 257.838 84.8733 248.241 111.626 241.771C159.759 230.13 211.47 227.406 261.358 224.935Z" fill="#F4F8FB"/>
<path d="M269.381 252.652C266.207 254.061 262.63 255.973 262.01 259.388C261.595 261.673 262.723 264.019 264.376 265.65C266.031 267.281 268.158 268.326 270.245 269.344C285.526 276.795 300.877 284.273 317.083 289.413C319.447 290.162 321.917 290.868 324.374 290.518C326.556 290.206 328.526 289.085 330.431 287.97C341.639 281.41 352.574 274.381 363.197 266.913C363.944 266.388 364.715 265.831 365.152 265.028C366.058 263.355 365.206 261.292 364.203 259.676C359.364 251.883 351.07 246.734 342.345 243.902C330.777 240.147 315.599 237.94 303.416 239.173C291.942 240.331 279.784 248.038 269.381 252.652Z" fill="#D7DEE8"/>
<path d="M187.033 255.227C250.608 246.781 301.265 233.309 300.18 225.137C299.094 216.965 246.676 217.187 183.101 225.633C119.526 234.08 68.8684 247.552 69.9541 255.724C71.0398 263.896 123.458 263.673 187.033 255.227Z" fill="#D7DEE8"/>
<path d="M193.572 248.358C190.435 250.399 187.446 252.945 185.945 256.373C184.446 259.801 184.81 264.261 187.622 266.727C189.4 268.287 191.853 268.846 194.214 268.968C204.509 269.493 214.822 262.796 224.666 265.855C226.968 266.571 229.092 267.796 231.411 268.451C235.3 269.552 239.446 268.983 243.43 268.302C246.841 267.718 250.335 267.022 253.245 265.152C256.157 263.282 258.391 259.962 257.993 256.524C257.625 253.333 255.161 250.799 252.593 248.868C243.013 241.671 233.447 241.795 222.171 242.123C211.38 242.437 203.384 241.976 193.572 248.358Z" fill="#D7DEE8"/>
<g opacity="0.5">
<path d="M92.8791 163.483C86.9392 163.483 81.3801 159.694 78.1501 155.406C74.1047 150.04 72.3029 143.28 70.8039 136.815L70.5134 135.56C69.1364 129.581 67.7106 123.397 64.5441 118.136C61.3776 112.877 56.5095 108.693 50.8332 106.354C48.9265 105.568 46.8952 104.974 44.9323 104.401C42.6252 103.727 40.2399 103.031 38.0036 102.01C26.9807 96.9812 20.6452 83.3899 23.8825 71.7126C23.9533 71.4538 24.2243 71.3 24.4831 71.3732C24.7419 71.444 24.8957 71.7151 24.8225 71.9738C21.7072 83.2068 27.8034 96.2829 38.4089 101.122C40.5817 102.113 42.9328 102.799 45.2082 103.463C47.1955 104.044 49.2512 104.645 51.2092 105.45C57.0759 107.867 62.1101 112.194 65.384 117.631C68.6311 123.024 70.0739 129.283 71.468 135.338L71.7585 136.593C73.2331 142.955 75.0031 149.603 78.9338 154.818C82.5227 159.579 89.1022 163.702 95.7087 162.186C95.9724 162.125 96.2336 162.289 96.2946 162.552C96.3557 162.816 96.1896 163.077 95.9284 163.138C94.903 163.373 93.885 163.483 92.8791 163.483Z" fill="white"/>
<path d="M55.5748 29.1539C55.5211 29.1539 55.465 29.1442 55.4113 29.1246L54.5739 28.8268C54.32 28.7365 54.1881 28.4557 54.2785 28.2018C54.3688 27.9479 54.6495 27.816 54.9035 27.9064L55.7409 28.2042C55.9948 28.2946 56.1266 28.5753 56.0363 28.8292C55.963 29.0294 55.775 29.1539 55.5748 29.1539Z" fill="white"/>
<path d="M66.5558 120.255C66.3679 120.255 66.1896 120.148 66.1091 119.965C63.8093 114.774 63.9435 108.856 64.3757 103.751C64.4636 102.714 64.5685 101.656 64.6686 100.636C65.0886 96.3635 65.5207 91.9445 64.9299 87.6696C64.6393 85.5724 63.9875 84.2809 62.9328 83.7267C62.6935 83.6022 62.6032 83.3068 62.7277 83.0676C62.8547 82.8283 63.1501 82.738 63.3869 82.8625C64.7394 83.5754 65.5598 85.1037 65.8967 87.5353C66.5046 91.925 66.0651 96.4025 65.6379 100.731C65.5378 101.749 65.4352 102.801 65.3473 103.834C64.925 108.815 64.7907 114.581 67.0002 119.571C67.11 119.818 66.9977 120.106 66.7512 120.216C66.6901 120.24 66.6218 120.255 66.5558 120.255Z" fill="white"/>
<path d="M73.0182 144.437C72.8278 144.437 72.6471 144.325 72.569 144.139C71.2238 140.985 68.5577 138.663 66.3825 136.991C60.4645 132.443 53.4699 129.252 46.1578 127.762C45.9259 127.716 45.694 127.67 45.462 127.623C43.8165 127.299 42.1149 126.964 40.6159 126.1C40.3815 125.966 40.3034 125.668 40.4376 125.433C40.5719 125.199 40.8698 125.118 41.1041 125.255C42.4616 126.039 44.0826 126.356 45.65 126.666C45.8844 126.713 46.1188 126.759 46.3532 126.805C53.8117 128.324 60.943 131.578 66.9782 136.217C69.2462 137.96 72.0343 140.394 73.4674 143.756C73.5724 144.005 73.4576 144.291 73.2086 144.396C73.1476 144.425 73.0817 144.437 73.0182 144.437Z" fill="white"/>
<path d="M42.4027 103.815C42.2733 103.815 42.1463 103.763 42.0511 103.666C38.4891 99.9596 37.1268 95.1744 36.6116 91.815C35.9232 87.3277 36.2869 82.7061 36.7337 78.7779L36.7606 78.5313C36.9608 76.7784 37.1683 74.9669 36.7728 73.2799C36.7117 73.0162 36.8753 72.755 37.1365 72.6939C37.3978 72.6329 37.6615 72.7965 37.7225 73.0577C38.1546 74.9083 37.9373 76.8053 37.7298 78.6412L37.703 78.8853C37.2635 82.7501 36.9071 87.2911 37.576 91.6661C38.0692 94.8887 39.368 99.4664 42.7542 102.989C42.9422 103.185 42.9349 103.492 42.7396 103.68C42.6468 103.768 42.5247 103.815 42.4027 103.815Z" fill="white"/>
<path d="M79.4998 215.68C79.4949 215.68 79.4901 215.68 79.4827 215.68C76.0477 215.57 72.6077 213.785 68.9603 210.223C65.5423 206.886 62.7274 203.026 60.5911 198.751C58.7503 195.065 57.4149 191.051 56.1209 187.169C53.9822 180.743 51.7728 174.1 47.2391 169.071C41.9266 163.175 33.4183 160.104 25.5643 161.244C25.2982 161.28 25.0491 161.097 25.0101 160.831C24.971 160.565 25.1566 160.316 25.4227 160.277C33.7137 159.071 42.3538 162.191 47.9617 168.417C52.6297 173.597 54.8734 180.338 57.0438 186.859C58.3255 190.709 59.6487 194.689 61.4603 198.314C63.5477 202.491 66.2991 206.263 69.639 209.525C73.1033 212.909 76.3309 214.601 79.5096 214.703C79.7781 214.713 79.9905 214.938 79.9808 215.206C79.9808 215.47 79.7635 215.68 79.4998 215.68Z" fill="white"/>
<path d="M57.9159 192.723C57.7645 192.723 57.6131 192.652 57.5179 192.521C53.1625 186.446 46.5707 181.878 39.3563 179.913C39.2708 180.038 39.1268 180.121 38.9632 180.123C38.6605 180.121 38.3968 179.916 38.3163 179.608C38.2381 179.3 38.37 178.985 38.6361 178.846C38.7411 178.79 38.8656 178.775 38.9803 178.805C46.6537 180.729 53.6996 185.521 58.3089 191.952C58.4652 192.171 58.4164 192.477 58.1966 192.633C58.1136 192.694 58.016 192.723 57.9159 192.723Z" fill="white"/>
<path d="M66.9784 208.065C66.7831 208.065 66.5975 207.945 66.5219 207.752C65.101 204.081 64.9154 199.767 65.9847 195.274C66.0043 195.196 66.0262 195.099 66.0311 195.028C65.8431 195.025 65.6674 194.913 65.5892 194.73C65.4843 194.481 65.6014 194.195 65.8505 194.09C66.0482 194.007 66.2704 194.012 66.473 194.107C66.7001 194.212 66.8832 194.42 66.9589 194.659C67.059 194.977 66.9882 195.279 66.9345 195.501C66.2216 198.499 65.7284 202.999 67.4325 207.403C67.5301 207.655 67.4056 207.938 67.1542 208.036C67.098 208.053 67.037 208.065 66.9784 208.065Z" fill="white"/>
<path d="M279.971 41.1292C279.815 41.1292 279.661 41.056 279.568 40.9168C278.343 39.1248 276.387 37.6014 273.592 36.2586C267.869 33.512 261.472 32.5697 255.286 31.659L250.74 30.9901C250.474 30.951 250.288 30.702 250.327 30.4359C250.367 30.1697 250.618 29.9842 250.882 30.0233L255.428 30.6922C261.685 31.6126 268.157 32.5672 274.014 35.3773C276.971 36.7957 279.051 38.4266 280.376 40.3651C280.528 40.5872 280.472 40.8924 280.249 41.0438C280.161 41.0999 280.066 41.1292 279.971 41.1292Z" fill="white"/>
<path d="M276.468 38.3946C276.293 38.3946 276.122 38.2994 276.036 38.1334C274.806 35.7823 273.666 33.463 273.219 30.902C272.63 27.5377 273.336 24.0465 273.959 20.9679C274.012 20.7042 274.269 20.5333 274.535 20.587C274.798 20.6407 274.969 20.8971 274.916 21.1632C274.281 24.3028 273.627 27.5524 274.181 30.7359C274.603 33.1578 275.709 35.4039 276.9 37.6842C277.025 37.9234 276.932 38.2189 276.693 38.3434C276.622 38.3751 276.544 38.3946 276.468 38.3946Z" fill="white"/>
<path d="M403.763 68.3824C403.592 68.3824 403.421 68.3361 403.267 68.2433C403.038 68.1017 402.967 67.8014 403.106 67.5719C403.248 67.3424 403.548 67.2716 403.778 67.4132C403.778 67.4083 403.834 67.3815 403.888 67.3107C403.941 67.2399 403.951 67.1764 403.949 67.1617C403.748 66.9811 403.736 66.6808 403.917 66.4806C404.098 66.2804 404.41 66.2706 404.61 66.4513C405.006 66.8077 405.03 67.4157 404.669 67.8966C404.434 68.2091 404.095 68.3824 403.763 68.3824Z" fill="white"/>
<path d="M328.5 100.267C328.431 100.267 328.36 100.253 328.294 100.221C328.05 100.106 327.945 99.8157 328.058 99.5716C334.234 86.3245 343.426 74.3689 354.642 64.9939C357.464 62.6355 360.458 60.4017 363.351 58.2435L367.367 55.2479C367.584 55.0867 367.889 55.1307 368.05 55.3479C368.212 55.5652 368.168 55.8704 367.95 56.0315L363.934 59.0271C361.051 61.178 358.07 63.4021 355.267 65.7459C344.161 75.0281 335.057 86.8665 328.941 99.9866C328.861 100.165 328.683 100.267 328.5 100.267Z" fill="white"/>
<path d="M395.577 41.8055C395.545 41.8055 395.513 41.803 395.482 41.7957C395.028 41.7054 394.635 41.3856 394.454 40.9583C394.349 40.7093 394.464 40.4236 394.713 40.3187C394.962 40.2137 395.247 40.3284 395.352 40.5774C395.406 40.7068 395.535 40.8118 395.672 40.8387C395.936 40.8924 396.109 41.1487 396.055 41.4124C396.009 41.6468 395.806 41.8055 395.577 41.8055Z" fill="white"/>
<path d="M343.367 77.9747C343.321 77.9747 343.272 77.9674 343.226 77.9527C342.967 77.8746 342.823 77.6012 342.901 77.3448C344.94 70.6212 347.467 63.9757 350.411 57.5963L350.457 57.4937C351.221 55.8409 352.01 54.1319 351.951 52.3814C351.942 52.1129 352.154 51.8858 352.423 51.8761C352.691 51.8712 352.918 52.0787 352.928 52.3473C352.994 54.3297 352.154 56.1461 351.343 57.9014L351.297 58.004C348.37 64.3419 345.86 70.9434 343.834 77.6256C343.77 77.8404 343.577 77.9747 343.367 77.9747Z" fill="white"/>
<path d="M335.321 89.1418C335.164 89.1418 335.011 89.0661 334.915 88.927C334.764 88.7024 334.825 88.3996 335.047 88.2483C340.252 84.7424 345.963 82.2058 352.037 80.6946C352.115 80.5822 352.24 80.5041 352.384 80.487L353.407 80.3747C353.663 80.3454 353.9 80.5237 353.941 80.78C353.983 81.0364 353.819 81.2805 353.565 81.3366C347.208 82.7502 340.992 85.4187 335.592 89.0564C335.509 89.115 335.413 89.1418 335.321 89.1418Z" fill="white"/>
<path d="M367.527 102.753C364.229 104.608 361.033 106.713 358.028 109.01C354.761 111.505 350.748 114.962 348.675 119.584C347.254 122.753 346.697 126.456 346.971 131.08C347 131.652 347.046 132.237 347.107 132.838C347.142 133.214 347.183 133.597 347.229 133.988C347.466 135.965 347.803 137.97 348.133 139.908C348.621 142.801 349.126 145.795 349.31 148.785C349.756 156.136 348.277 163.59 344.915 170.941C341.819 177.704 337.186 184.112 331.512 189.479C331.416 189.567 331.297 189.611 331.175 189.611C331.045 189.611 330.916 189.559 330.821 189.459C330.635 189.261 330.645 188.954 330.84 188.768C342.635 177.616 349.175 162.692 348.335 148.846C348.155 145.907 347.654 142.941 347.168 140.069C346.839 138.121 346.499 136.105 346.26 134.103C346.141 133.109 346.055 132.154 345.999 131.234C345.911 129.784 345.901 128.419 345.975 127.13C346.138 124.122 346.736 121.52 347.784 119.183C349.944 114.361 354.078 110.799 357.435 108.234C360.477 105.909 363.711 103.778 367.049 101.903C367.283 101.771 367.581 101.854 367.713 102.089C367.845 102.323 367.762 102.621 367.527 102.753Z" fill="white"/>
<path d="M349.061 157.894C349.027 157.894 348.993 157.892 348.958 157.882C348.695 157.826 348.526 157.564 348.585 157.301C350.431 148.744 357.025 141.9 362.325 136.4L365.645 132.955C365.833 132.76 366.141 132.755 366.336 132.943C366.532 133.131 366.537 133.438 366.349 133.634L363.028 137.079C357.813 142.489 351.327 149.222 349.539 157.508C349.488 157.735 349.286 157.894 349.061 157.894Z" fill="white"/>
<path d="M347.107 132.838C346.636 132.704 346.251 132.162 346.126 131.703C346.082 131.547 346.041 131.39 345.999 131.234C343.758 122.924 342.432 114.354 342.056 105.756C342.044 105.485 342.254 105.258 342.522 105.245C342.786 105.231 343.021 105.443 343.033 105.712C343.348 112.919 344.336 120.104 345.975 127.13C346.282 128.453 346.614 129.769 346.971 131.08C347 131.652 347.046 132.238 347.107 132.838Z" fill="white"/>
</g>
<path d="M183.734 181.666L174.605 239.242C174.605 239.242 207.14 251.441 230.091 230.191L220.135 177.809L183.734 181.666Z" fill="#3C468E"/>
<path d="M83.7867 69.9106L82.4 210.509C82.3292 217.633 88.5353 223.16 95.5201 222.193L314.751 191.915C320.239 191.158 324.424 186.571 324.724 180.982L331.887 48.4433C332.273 41.2998 326.27 35.4892 319.224 36.185L94.2189 58.4043C88.3448 58.9853 83.8453 63.9463 83.7867 69.9106Z" fill="#363B6D"/>
<path d="M324.71 56.8102L324.618 58.2579L317.247 174.454C316.895 179.999 312.686 184.527 307.183 185.284L105.833 212.989C98.7484 213.966 92.4594 208.4 92.5668 201.249L94.3783 79.2223L94.4271 75.8922C94.515 69.9449 99.0609 65.0157 104.979 64.4444L311.932 44.4469C319.09 43.756 325.164 49.6349 324.71 56.8102Z" fill="white"/>
<path d="M104.715 90.9238L104.373 132.826L220.916 120.436V79.1489L104.715 90.9238Z" fill="#D7DEE8"/>
<path d="M104.373 137.999L103.792 195.57L164.563 186.605L163.672 132.157L104.373 137.999Z" fill="#D7DEE8"/>
<path d="M228.141 95.5161L227.643 99.7935L310.516 89.2685V84.6665L228.141 95.5161Z" fill="#D7DEE8"/>
<path d="M228.141 105.204L227.643 109.479L310.516 98.9561V94.3516L228.141 105.204Z" fill="#D7DEE8"/>
<path d="M228.141 114.891L227.643 119.166L310.516 108.641V104.039L228.141 114.891Z" fill="#D7DEE8"/>
<path d="M228.141 124.576L227.643 128.854L310.516 118.329V113.724L228.141 124.576Z" fill="#D7DEE8"/>
<path d="M228.141 134.264L227.643 138.539L310.516 128.016V123.412L228.141 134.264Z" fill="#D7DEE8"/>
<path d="M228.141 143.951L227.643 148.226L310.516 137.701V133.099L228.141 143.951Z" fill="#D7DEE8"/>
<path d="M228.141 153.636L227.643 157.911L310.516 147.389V142.784L228.141 153.636Z" fill="#D7DEE8"/>
<path d="M228.141 163.324L227.643 167.599L310.516 157.076V152.472L228.141 163.324Z" fill="#D7DEE8"/>
<path d="M228.141 173.009L227.643 177.286L310.516 166.761V162.159L228.141 173.009Z" fill="#D7DEE8"/>
<path d="M169.522 130.985L169.31 151.852L220.455 144.828L220.481 125.226L169.522 130.985Z" fill="#D7DEE8"/>
<path d="M177.132 155.977C177.371 155.538 177.21 154.989 176.77 154.749L176.682 154.701C176.243 154.461 175.694 154.622 175.454 155.062L169.883 165.291C169.812 165.423 169.78 165.562 169.778 165.702L169.453 167.31C169.373 167.706 169.854 167.97 170.144 167.686L171.45 166.414L171.419 166.397C171.472 166.341 171.524 166.278 171.563 166.204L177.132 155.977Z" fill="#434757"/>
<path d="M170.041 161.766C170.171 161.424 170.327 161.092 170.561 160.811C170.854 160.462 171.291 160.206 171.746 160.235C172.388 160.277 172.849 160.838 173.318 161.28C173.73 161.668 174.202 161.993 174.609 162.389C175.686 163.433 175.891 165.006 174.346 165.65C173.369 166.058 171.916 166.104 170.984 165.545C170.681 165.362 170.615 165.084 170.41 164.806C170.215 164.537 169.971 164.307 169.827 164.002C169.539 163.39 169.719 162.667 169.941 162.027C169.978 161.939 170.01 161.851 170.041 161.766Z" fill="#FDB948"/>
<path d="M236.841 172.97C237.02 173.272 237.2 173.595 237.195 173.946C237.191 174.246 237.049 174.525 236.91 174.788C234.852 178.682 232.418 182.376 229.652 185.802C228.951 186.668 227.994 187.608 226.903 187.379C226.282 187.249 225.797 186.754 225.465 186.214C224.493 184.637 224.539 182.66 224.615 180.809C224.835 175.484 225.054 170.157 225.274 164.832C225.352 162.933 225.425 160.997 224.903 159.171C224.315 157.12 224.481 155.565 226.324 157.828C227.642 159.449 228.919 161.107 230.152 162.794C232.549 166.07 234.783 169.469 236.841 172.97Z" fill="#17C8C5"/>
<path d="M202.708 133.534C202.94 133.28 203.189 133.282 203.477 133.16C203.74 133.05 203.967 132.816 204.136 132.591C204.368 132.284 204.534 131.932 204.717 131.593C204.968 131.131 205.276 130.675 205.732 130.414C206.069 130.223 206.46 130.152 206.846 130.116C207.571 130.045 208.396 130.274 209.085 130.047C209.622 129.872 210.081 129.54 210.503 129.169C211.353 128.421 212.087 127.462 213.164 127.027C214.168 126.625 215.344 126.786 216.284 127.315C217.224 127.845 217.944 128.714 218.442 129.674C219.085 130.909 219.431 132.374 220.496 133.273C221.958 134.51 224.338 134.283 225.64 135.692C226.763 136.905 226.594 138.807 226.201 140.414C225.811 142.02 225.274 143.736 225.872 145.279C226.528 146.971 228.318 147.872 229.697 149.046C230.176 149.454 230.628 149.923 230.869 150.504C231.314 151.571 230.977 152.796 230.537 153.866C230.147 154.815 229.614 155.797 228.687 156.236C227.678 156.715 226.47 156.429 225.388 156.708C224.121 157.035 223.196 158.077 222.163 158.88C220.523 160.155 218.333 160.885 216.333 160.323C214.819 159.898 213.552 158.758 212.827 157.362C212.105 155.965 211.897 154.332 212.092 152.772C212.195 151.957 212.395 151.097 212.083 150.336C211.575 149.11 210.044 148.766 208.745 148.497C206.172 147.962 203.428 146.874 202.249 144.525C201.531 143.099 201.526 141.346 202.192 139.896C202.666 138.866 203.482 137.862 203.291 136.744C203.196 136.178 202.847 135.69 202.622 135.16C202.398 134.635 202.319 133.959 202.708 133.534Z" fill="#27264F"/>
<path d="M210.007 154.462C210.469 155.348 211.628 155.716 212.595 155.472C213.564 155.226 214.341 154.479 214.863 153.627C215.923 151.893 216.057 149.706 215.583 147.731C215.246 146.329 214.507 144.886 213.174 144.342C212.676 144.139 212.119 144.078 211.587 144.169C209.638 144.503 208.835 146.385 209.343 148.153C209.514 148.744 209.775 149.31 209.878 149.916C210.127 151.405 209.26 153.026 210.007 154.462Z" fill="#FDB948"/>
<path d="M204.153 138.248C204.192 138.966 204.422 139.674 204.368 140.389C204.305 141.234 203.858 142.006 203.702 142.838C203.577 143.495 203.641 144.181 203.816 144.825C204.3 146.588 205.677 148.073 207.388 148.715C209.1 149.354 211.102 149.144 212.654 148.18C213.328 147.762 213.938 147.181 214.18 146.427C214.341 145.927 214.327 145.382 214.485 144.882C214.783 143.944 215.618 143.302 216.255 142.552C216.893 141.803 217.344 140.665 216.77 139.867C216.243 139.132 214.937 139.205 214.498 139.996C214.131 138.361 213.543 136.71 212.374 135.509C211.18 134.281 209.49 133.783 207.847 134.261C207.486 133.456 205.833 134.735 205.423 135.143C204.607 135.951 204.087 137.086 204.153 138.248Z" fill="#FDB948"/>
<path d="M207.913 137.735C208.57 138.036 209.295 138.143 209.986 138.348C210.677 138.556 211.375 138.895 211.758 139.508C212.137 140.113 212.151 140.897 212.542 141.495C212.715 141.759 213.045 141.993 213.328 141.852C213.433 141.8 213.509 141.705 213.575 141.61C213.86 141.19 213.994 140.68 214.29 140.265C214.795 139.557 215.73 139.171 216.033 138.355C216.192 137.926 216.14 137.45 216.048 137C215.608 134.862 214.134 132.872 212.063 132.171C211.123 131.854 210.113 131.808 209.119 131.856C207.757 131.925 205.166 132.369 204.993 134.134C204.859 135.523 206.792 137.223 207.913 137.735Z" fill="#2A2E3D"/>
<path d="M221.272 181.752C220.698 181.381 220.061 181.117 219.399 180.941C217.148 180.341 213.833 179.44 211.35 180.592C208.706 181.82 208.411 186.134 207.615 188.673C205.342 195.914 203.069 203.155 200.796 210.394C199.365 214.95 197.925 219.567 197.698 224.337C197.6 226.383 197.727 228.434 197.856 230.477C198.218 236.276 198.618 242.032 199.299 247.767C199.526 249.672 202.244 249.801 202.639 247.926C203.127 245.616 203.633 243.309 204.158 241.007C205.159 236.61 206.401 232.215 206.877 227.704C207.058 225.985 207.214 224.254 207.651 222.582C208.442 219.549 210.12 216.837 211.694 214.127C214.895 208.629 217.773 202.945 220.315 197.113C222.202 192.782 226.958 185.441 221.272 181.752Z" fill="#27264F"/>
<path d="M222.107 229.633C221.721 228.453 221.331 227.274 220.945 226.095C220.323 224.191 219.715 222.277 219.365 220.304C219.07 218.632 218.96 216.93 218.672 215.255C218.379 213.561 217.901 211.903 217.425 210.25C216.099 205.653 214.773 201.058 213.448 196.461C212.434 192.946 209.966 188.239 211.358 184.603C213.863 178.068 223.533 178.856 226.575 184.313C228.216 187.255 228.477 190.743 228.679 194.108C228.86 197.123 229.024 200.165 228.599 203.156C228.369 204.769 227.971 206.354 227.781 207.972C227.451 210.797 227.771 213.654 228.091 216.478C228.804 222.787 229.834 229.113 230.425 235.397C230.718 238.507 230.872 241.63 230.886 244.752C230.894 246.376 230.862 248.002 230.794 249.623C230.735 250.995 230.691 253.134 230.215 254.384C228.25 253.141 227.224 249.352 226.616 247.223C225.823 244.445 225.379 241.583 224.739 238.768C224.038 235.68 223.091 232.65 222.107 229.633Z" fill="#27264F"/>
<path d="M203.904 248.898C203.393 247.897 202.881 246.896 202.37 245.895C202.302 245.758 202.226 245.616 202.097 245.536C201.931 245.431 201.719 245.453 201.528 245.494C200.105 245.809 199.097 247.037 198.201 248.187C196.675 250.155 195.149 252.12 193.623 254.088C192.646 255.345 191.25 256.466 193.44 256.364C194.883 256.298 204.092 249.271 203.904 248.898Z" fill="#434757"/>
<path d="M231.499 260.824C231.282 261.041 230.984 261.268 230.694 261.163C230.559 261.114 230.459 261.005 230.369 260.895C228.987 259.237 225.828 248.38 230.747 250.074C232.032 250.516 233.567 253.124 233.999 254.318C234.829 256.608 233.103 259.215 231.499 260.824Z" fill="#434757"/>
<path d="M204.717 185.67C204.4 184.239 204.295 182.46 204.717 181.036C205.369 178.839 205.877 176.835 205.835 174.513C205.762 170.421 205.069 166.415 205.491 162.311C206.324 154.208 213.362 146.903 221.954 148.746C222.327 148.827 222.703 148.934 222.986 149.149C223.313 149.396 223.475 149.752 223.626 150.096C228.455 161.078 232.964 172.601 231.446 184.21C231.062 187.15 230.042 190.367 227.01 191.962C225.55 192.731 223.79 193.016 222.061 193.148C218.902 193.387 215.689 193.151 212.63 192.455C211.148 192.118 209.678 191.664 208.443 190.909C206.414 189.679 205.169 187.709 204.717 185.67Z" fill="#22DCD9"/>
<path d="M197.032 166.248C196.053 167.086 195.049 167.96 193.826 168.363C191.709 169.059 189.427 168.214 187.361 167.379C183.265 165.724 179.17 164.071 175.074 162.415C174.566 164.083 174.061 165.75 173.553 167.418C178.75 170.099 184.014 172.65 189.339 175.067C190.953 175.799 192.691 176.537 194.441 176.261C195.354 176.117 196.199 175.702 197.029 175.294C200.54 173.565 204.053 171.834 207.564 170.106C209.654 169.078 211.775 168.026 213.472 166.429C215.169 164.832 216.404 162.584 216.226 160.262C216.087 158.451 214.747 156.307 212.896 155.809C211.092 155.323 209.427 156.935 208.033 157.877C204.209 160.455 200.535 163.253 197.032 166.248Z" fill="#22DCD9"/>
<path d="M287.774 265.176C287.774 265.176 266.561 257.325 266.39 258.328C266.219 259.329 252.256 271.426 242.073 271.734L267.408 282.21C267.408 282.21 269.861 284.344 275.015 277.313C280.171 270.284 282.942 264.49 287.774 265.176Z" fill="#0C65E2"/>
<path d="M288.892 272.901C289.563 272.498 290.308 272.066 291.077 272.21C291.472 272.286 291.824 272.508 292.163 272.728C295.613 274.952 299.065 277.178 302.515 279.402C298.242 281.062 293.97 282.723 289.695 284.385C286.663 285.564 283.599 286.751 280.383 287.234C279.907 287.305 279.412 287.359 278.958 287.2C278.462 287.027 278.086 286.624 277.744 286.224C276.316 284.556 275.093 282.715 274.109 280.752C273.833 280.201 272.757 278.565 273.103 277.952C273.501 277.249 275.261 277.583 275.916 277.54C280.554 277.232 284.954 275.267 288.892 272.901Z" fill="#22DCD9"/>
<path d="M172.872 268.599C171.949 268.328 170.921 268.038 169.886 268.199C169.351 268.282 168.885 268.48 168.433 268.673C163.838 270.633 159.246 272.591 154.651 274.552C160.503 275.577 166.355 276.602 172.208 277.625C176.36 278.353 180.555 279.085 184.932 279.256C185.579 279.281 186.255 279.293 186.863 279.139C187.527 278.971 188.023 278.631 188.47 278.299C190.345 276.905 191.934 275.387 193.196 273.79C193.55 273.341 194.949 271.993 194.454 271.536C193.887 271.012 191.517 271.388 190.628 271.395C184.329 271.453 178.296 270.199 172.872 268.599Z" fill="#22DCD9"/>
<path d="M310.23 264.047H310.103C309.317 264.047 308.68 263.41 308.68 262.624V223.932C308.68 223.146 309.317 222.509 310.103 222.509H310.23C311.016 222.509 311.653 223.146 311.653 223.932V262.624C311.653 263.41 311.016 264.047 310.23 264.047Z" fill="#27264F"/>
<path d="M331.067 270.589H330.94C330.154 270.589 329.517 269.952 329.517 269.166V230.475C329.517 229.688 330.154 229.051 330.94 229.051H331.067C331.853 229.051 332.49 229.688 332.49 230.475V269.166C332.493 269.952 331.853 270.589 331.067 270.589Z" fill="#27264F"/>
<path d="M327.312 257.001H327.185C326.399 257.001 325.762 256.364 325.762 255.578V216.886C325.762 216.1 326.399 215.463 327.185 215.463H327.312C328.098 215.463 328.735 216.1 328.735 216.886V255.578C328.735 256.364 328.098 257.001 327.312 257.001Z" fill="#27264F"/>
<path d="M348.15 263.543H348.023C347.237 263.543 346.6 262.906 346.6 262.12V223.429C346.6 222.643 347.237 222.005 348.023 222.005H348.15C348.936 222.005 349.573 222.643 349.573 223.429V262.12C349.576 262.906 348.936 263.543 348.15 263.543Z" fill="#27264F"/>
<path d="M323.877 233.531C327.232 234.381 330.703 235.238 334.119 234.676C337.105 234.186 339.8 232.65 342.403 231.107C344.751 229.715 347.083 228.295 349.397 226.847C350.769 225.987 352.158 225.099 353.181 223.846C354.204 222.594 354.817 220.895 354.39 219.335C353.716 216.876 350.935 215.758 348.504 214.986C343.135 213.285 337.512 211.566 331.961 212.521C329.663 212.916 327.469 213.761 325.293 214.601C320.755 216.354 316.214 218.104 311.675 219.857C309.231 220.799 302.671 222.45 303.518 226.302C304.104 228.961 308.728 229.674 310.845 230.233C315.178 231.373 319.534 232.43 323.877 233.531Z" fill="#363B6D"/>
<path d="M329.847 171.493C329.497 169.156 329.175 166.639 330.257 164.54C331.6 161.935 334.685 160.773 337.566 160.24C344.217 159.012 351.253 159.987 357.32 162.972C359.712 164.149 362.024 165.702 363.44 167.96C365.916 171.91 365.132 177.003 364.195 181.573C361.892 192.811 359.187 203.966 356.092 215.011C355.828 215.948 355.557 216.901 355.039 217.726C354.312 218.883 353.15 219.708 351.91 220.287C347.967 222.12 342.998 221.495 339.634 218.739C334.251 214.327 334.881 205.219 333.938 198.915C332.576 189.772 331.211 180.634 329.847 171.493Z" fill="#363B6D"/>
<path d="M270.806 261.197C269.983 261.197 269.316 260.531 269.316 259.708V210.401C269.316 209.579 269.983 208.912 270.806 208.912C271.628 208.912 272.295 209.579 272.295 210.401V259.71C272.292 260.531 271.626 261.197 270.806 261.197Z" fill="#F07454"/>
<path d="M294.599 253.77H294.472C293.686 253.77 293.049 253.133 293.049 252.347V208.036C293.049 207.25 293.686 206.612 294.472 206.612H294.599C295.385 206.612 296.022 207.25 296.022 208.036V252.347C296.022 253.133 295.385 253.77 294.599 253.77Z" fill="#F07454"/>
<path d="M342.485 265.968H342.358C341.572 265.968 340.935 265.331 340.935 264.544V220.233C340.935 219.447 341.572 218.81 342.358 218.81H342.485C343.271 218.81 343.908 219.447 343.908 220.233V264.544C343.908 265.331 343.271 265.968 342.485 265.968Z" fill="#F07454"/>
<path d="M305.833 201.415C304.454 202.047 303.673 203.507 303.065 204.899C302.913 205.245 302.762 205.616 302.808 205.992C302.889 206.661 303.582 207.115 304.256 207.176C304.927 207.237 305.587 207.01 306.234 206.82C306.881 206.63 307.581 206.481 308.221 206.695C308.768 206.879 309.268 207.323 309.84 207.24C310.567 207.135 310.877 206.293 311.273 205.672C311.778 204.881 312.586 204.342 313.358 203.81C314.42 203.075 315.814 201.993 315.589 200.511C315.418 199.383 314.42 198.619 313.306 198.807C312.347 198.971 311.534 200.067 310.635 200.45C309.1 201.112 307.344 200.724 305.833 201.415Z" fill="#F07454"/>
<path d="M304.156 250.489C304.607 250.702 305.061 250.948 305.318 251.322C305.757 251.964 305.481 252.767 305.196 253.465C304.644 254.818 304.092 256.173 303.54 257.525C303.452 257.743 303.355 257.97 303.142 258.116C302.796 258.355 302.283 258.292 301.839 258.216C299.666 257.835 297.503 257.411 295.352 256.949C294.065 256.671 292.757 256.371 291.668 255.741C290.11 254.842 289.131 253.231 289.409 251.678C289.688 250.125 291.336 248.763 293.233 248.7C295.154 248.636 296.343 250.189 298.142 250.081C299.17 250.02 299.969 249.544 301.065 249.615C302.151 249.684 303.22 250.047 304.156 250.489Z" fill="#97285C"/>
<path d="M329.929 264.999C329.104 265.282 328.467 266.058 328.352 266.922C328.237 267.789 328.647 268.702 329.373 269.193C329.993 269.613 330.772 269.713 331.521 269.73C332.964 269.764 334.409 269.53 335.769 269.044C336.201 268.89 336.643 268.695 336.919 268.329C337.112 268.072 337.205 267.752 337.295 267.442C337.793 265.704 338.289 263.966 338.787 262.228C339.402 260.077 340.286 256.439 337.844 254.969C336.506 254.164 333.916 254.818 332.6 255.543C331.169 256.329 330.581 257.645 330.559 259.244C330.53 261.256 332.669 264.059 329.929 264.999Z" fill="#97285C"/>
<path d="M300.117 250.079C300.042 250.296 299.966 250.521 299.973 250.753C299.99 251.3 300.454 251.715 300.891 252.042C301.636 252.599 302.554 253.131 303.447 252.872C304.414 252.591 304.888 251.532 305.242 250.589C305.501 249.899 305.762 249.2 305.879 248.473C306.077 247.24 305.84 245.941 305.222 244.855C304.446 243.492 302.908 243.099 302.039 244.466C301.077 245.982 300.701 248.373 300.117 250.079Z" fill="#F07454"/>
<path d="M330.47 252.96C330.938 254.891 331.805 256.725 333.004 258.309C333.16 258.517 333.343 258.734 333.597 258.792C333.866 258.854 334.137 258.722 334.381 258.595C335.099 258.219 335.848 257.816 336.283 257.132C336.903 256.163 336.729 254.879 336.305 253.812C336.065 253.209 335.755 252.64 335.435 252.076C335.123 251.524 334.784 250.958 334.261 250.599C333.705 250.216 332.965 250.116 332.325 250.335C331.246 250.702 330.189 251.798 330.47 252.96Z" fill="#F07454"/>
<path d="M315.84 222.963C314.26 223.871 312.529 225.004 312.18 226.823C311.958 227.972 312.358 229.149 312.827 230.219C314.194 233.341 316.189 236.127 318.169 238.886C321.829 243.988 325.488 249.088 329.148 254.191C329.253 254.337 329.365 254.491 329.524 254.572C329.844 254.733 330.217 254.557 330.532 254.384C332.383 253.361 334.233 252.34 336.084 251.317C335.22 243.109 331.614 235.228 326.003 229.301C332.261 227.792 338.24 225.094 343.552 221.386C344.614 220.643 345.664 219.85 346.489 218.839C348.13 216.835 348.762 214.008 348.135 211.473C347.854 210.338 347.273 209.198 346.253 208.673C345.449 208.261 344.5 208.29 343.608 208.41C338.906 209.035 335.664 212.282 331.597 214.367C326.277 217.096 321.03 219.982 315.84 222.963Z" fill="#27264F"/>
<path d="M311.139 216.613C310.011 217.123 308.87 217.645 307.926 218.456C306.878 219.354 306.131 220.563 305.479 221.791C301.908 228.532 300.806 236.317 299.862 243.927C299.813 244.325 299.766 244.747 299.925 245.114C300.091 245.494 300.448 245.743 300.792 245.968C302.62 247.164 304.542 248.214 306.529 249.108C306.827 249.242 307.174 249.374 307.469 249.232C307.75 249.1 307.879 248.776 307.987 248.48C309.947 242.987 311.827 237.465 313.621 231.915C313.89 231.085 314.168 230.231 314.72 229.564C315.164 229.027 315.76 228.644 316.358 228.295C322.208 224.882 329.288 223.812 334.615 219.596C336.182 218.356 337.591 216.82 338.338 214.94C340.101 210.516 336.951 205.91 332.159 207.157C330.396 207.616 328.792 208.89 327.127 209.628C324.62 210.739 322.078 211.776 319.566 212.872C316.749 214.1 313.941 215.346 311.139 216.613Z" fill="#27264F"/>
<path d="M327.176 181.11C325.423 183.666 324.353 186.642 323.714 189.677C323.65 189.972 323.589 190.28 323.408 190.524C323.203 190.804 322.874 190.963 322.559 191.11C318.867 192.85 315.271 194.794 311.79 196.925C311.167 197.306 310.467 197.848 310.535 198.575C310.557 198.807 310.659 199.025 310.762 199.235C311.729 201.241 312.696 203.248 313.662 205.255C313.762 205.463 313.88 205.685 314.092 205.77C314.295 205.851 314.524 205.778 314.729 205.704C318.794 204.257 322.644 202.208 326.118 199.65C326.702 199.22 327.276 198.776 327.788 198.268C328.623 197.443 329.287 196.466 329.947 195.494C330.908 194.076 331.873 192.657 332.835 191.239C334.451 188.859 336.084 186.437 336.983 183.705C337.6 181.822 338.682 175.121 335.354 175.201C332.144 175.282 328.845 178.673 327.176 181.11Z" fill="#E85BA8"/>
<path d="M349.339 211.38C348.97 213.6 348.096 215.851 346.343 217.259C345.227 218.158 343.838 218.648 342.444 218.968C341.023 219.293 339.563 219.459 338.106 219.437C336.87 219.42 335.64 219.268 334.419 219.066C331.736 218.619 328.951 217.83 327.071 215.865C326.065 214.813 325.437 213.331 325.369 211.886C325.308 210.636 325.664 209.41 326.551 208.512C326.729 208.331 326.929 208.16 327.029 207.926C327.276 207.359 326.846 206.754 326.66 206.165C326.25 204.872 327.049 203.524 327.884 202.455C328.721 201.385 329.683 200.24 329.656 198.883C329.637 197.894 329.085 197 328.86 196.039C327.974 192.259 332.176 188.802 331.643 184.959C331.287 182.384 330.034 180.902 331.553 178.416C332.268 177.242 333.101 176.104 334.353 175.475C337.544 173.866 342.976 173.248 345.279 176.339C345.94 177.225 346.512 178.18 346.988 179.181C347.603 180.479 348.055 181.861 348.321 183.275C348.609 184.806 348.682 186.366 348.755 187.921C349.007 193.282 349.258 198.643 349.512 204.005C349.627 206.466 349.742 208.949 349.339 211.38Z" fill="#FA71B7"/>
<path d="M349.339 211.38C348.97 213.6 348.096 215.851 346.343 217.259C345.228 218.158 343.838 218.648 342.444 218.968C341.023 219.293 339.563 219.459 338.106 219.437C336.871 219.42 335.64 219.269 334.419 219.066C331.736 218.619 328.951 217.831 327.071 215.865C326.065 214.813 325.438 213.331 325.369 211.886C325.794 210.672 326.502 209.51 327.276 208.492C328.143 207.352 329.1 206.278 329.917 205.101C330.289 204.569 330.765 203.956 330.97 203.334C331.148 202.792 331.004 202.381 331.561 201.981C331.961 201.69 332.459 201.576 332.94 201.454C334.732 201.007 336.543 200.372 337.908 199.127C338.919 198.204 339.627 196.996 340.235 195.77C342.535 191.144 343.658 186.041 345.184 181.104C345.455 180.226 346.138 179.552 346.988 179.181C347.603 180.479 348.055 181.861 348.321 183.275C348.609 184.806 348.682 186.366 348.755 187.921C349.007 193.282 349.258 198.644 349.512 204.005C349.627 206.466 349.742 208.949 349.339 211.38Z" fill="#E85BA8"/>
<path d="M314.126 273.714C313.303 273.714 312.637 273.048 312.637 272.225V222.916C312.637 222.093 313.303 221.427 314.126 221.427C314.949 221.427 315.615 222.093 315.615 222.916V272.225C315.615 273.048 314.949 273.714 314.126 273.714Z" fill="#F07454"/>
<path d="M352.454 216.966L352.557 216.935L290.232 202.672L253.045 208.939L253.167 208.976L253.045 208.995L253.167 209.032L253.045 209.051L253.167 209.085L253.045 209.107L253.167 209.142L253.045 209.164L253.167 209.198L253.045 209.22L253.167 209.254L253.045 209.276L253.167 209.31L253.045 209.332L253.167 209.366L253.045 209.386L253.167 209.422L253.045 209.442L253.167 209.479L253.045 209.498L253.167 209.535L253.045 209.554L253.167 209.591L253.045 209.61L253.167 209.645L253.045 209.666L253.167 209.701L253.045 209.723L253.167 209.757L253.045 209.779L253.167 209.813L253.045 209.835L253.167 209.869L253.045 209.891L253.167 209.925L253.045 209.947L253.167 209.981L253.045 210.001L253.167 210.038L253.045 210.057L253.167 210.094L253.045 210.113L253.167 210.15L253.045 210.169L253.167 210.206L253.045 210.226L253.167 210.26L253.045 210.282L253.167 210.316L253.045 210.338L253.167 210.372L253.045 210.394L253.167 210.428L253.045 210.45L253.167 210.484L253.045 210.506L253.167 210.541L253.045 210.56L253.167 210.597L253.045 210.616L253.167 210.653L253.045 210.672L318.672 229.376L352.557 218.668L352.454 218.644L352.557 218.612L352.454 218.587L352.557 218.556L352.454 218.531L352.557 218.5L352.454 218.475L352.557 218.443L352.454 218.419L352.557 218.387L352.454 218.363L352.557 218.331L352.454 218.307L352.557 218.275L352.454 218.253L352.557 218.219L352.454 218.197L352.557 218.163L352.454 218.141L352.557 218.106L352.454 218.084L352.557 218.053L352.454 218.028L352.557 217.997L352.454 217.972L352.557 217.94L352.454 217.916L352.557 217.884L352.454 217.86L352.557 217.828L352.454 217.804L352.557 217.772L352.454 217.748L352.557 217.716L352.454 217.694L352.557 217.66L352.454 217.638L352.557 217.603L352.454 217.582L352.557 217.547L352.454 217.525L352.557 217.494L352.454 217.469L352.557 217.437L352.454 217.413L352.557 217.381L352.454 217.357L352.557 217.325L352.454 217.301L352.557 217.269L352.454 217.245L352.557 217.213L352.454 217.188L352.557 217.157L352.454 217.135L352.557 217.101L352.454 217.079L352.557 217.044L352.454 217.022L352.557 216.988L352.454 216.966Z" fill="#F07454"/>
<path d="M253.045 208.939L290.232 202.672L352.557 216.935L318.672 227.643" fill="#F8AA9B"/>
<path d="M288.001 206.8L307.142 203.983L332.112 209.698C333.318 209.974 333.387 211.666 332.208 212.037L319.961 215.907" fill="#787B8A"/>
<path d="M323.472 205.575C323.147 205.621 322.813 205.641 322.515 205.777C322.278 205.887 322.08 206.063 321.89 206.241C321.248 206.842 320.65 207.489 320.103 208.172C319.866 208.468 319.627 208.817 319.678 209.19C319.763 209.791 320.567 210.228 320.379 210.802C320.291 211.07 320.007 211.226 319.873 211.478C319.69 211.822 319.846 212.269 320.139 212.525C320.432 212.782 320.828 212.882 321.211 212.945C323.924 213.38 326.836 212.02 328.245 209.662C328.518 209.205 328.738 208.717 329.048 208.285C329.812 207.218 333.95 203.709 330.652 202.821C328.613 202.271 325.571 205.282 323.472 205.575Z" fill="#FDB948"/>
<path d="M346.913 186.676C345.028 193.226 342.44 199.935 337.25 204.352C335.345 205.973 333.163 207.223 330.992 208.46C330.865 208.534 330.726 208.607 330.582 208.587C330.406 208.565 330.282 208.412 330.172 208.272C328.722 206.378 327.269 204.483 325.816 202.586C325.904 202.44 325.997 202.298 326.097 202.162C328.465 198.78 333.258 197.521 335.392 193.941C336.158 192.657 336.51 191.175 336.812 189.713C337.357 187.057 337.777 184.315 339.061 181.93C339.981 180.221 342.425 178.192 344.5 177.774C346.168 177.435 347.596 178.136 347.813 180.875C347.965 182.835 347.457 184.786 346.913 186.676Z" fill="#FA71B7"/>
<path d="M330.096 170.58C328.836 171.219 327.174 170.926 326.207 169.896C325.24 168.866 325.055 167.186 325.772 165.973C325.54 165.463 325.304 164.945 324.937 164.52C324.459 163.964 323.8 163.605 323.211 163.168C321.104 161.598 319.932 158.856 320.262 156.249C320.589 153.641 322.403 151.273 324.835 150.275C325.865 149.852 327.017 149.664 328.104 149.918C329.188 150.17 330.189 150.904 330.604 151.937C331.576 150.013 333.477 148.553 335.614 148.263C337.75 147.972 340.042 148.929 341.214 150.736C342.22 152.286 342.354 154.22 342.764 156.022C342.83 156.312 342.913 156.615 343.119 156.832C343.431 157.159 343.929 157.198 344.359 157.34C345.543 157.728 346.28 159.007 346.305 160.253C346.329 161.498 345.758 162.689 344.998 163.678C344.815 163.917 344.615 164.247 344.793 164.488C344.889 164.618 345.062 164.662 345.206 164.735C345.743 165.008 345.897 165.699 345.924 166.3C346.004 168.102 345.474 169.952 344.322 171.341C343.17 172.731 341.383 173.612 339.581 173.524C337.298 173.414 335.347 171.874 333.15 171.246C331.402 170.746 329.547 170.839 327.73 170.934" fill="#97285C"/>
<path d="M334.269 179.835C334.83 180.406 335.731 180.555 336.503 180.338C337.274 180.121 337.923 179.588 338.429 178.968C340.096 176.93 340.316 174.051 339.942 171.444C339.859 170.858 339.74 170.253 339.388 169.776C338.873 169.073 337.933 168.78 337.064 168.858C335.025 169.042 332.274 170.763 332.65 173.045C332.836 174.164 333.297 175.206 333.434 176.346C333.575 177.489 333.39 178.941 334.269 179.835Z" fill="#FDB948"/>
<path d="M326.49 165.875C326.832 167.076 327.467 168.206 327.567 169.449C327.613 170.025 327.542 170.611 327.618 171.185C327.75 172.208 328.336 173.123 329.049 173.868C330.348 175.225 332.166 176.129 334.046 176.143C335.926 176.158 337.833 175.216 338.805 173.607C339.381 172.655 339.615 171.537 340.123 170.545C340.702 169.412 341.617 168.47 342.123 167.303C342.628 166.136 342.557 164.539 341.48 163.866C340.396 163.187 338.722 164.093 338.697 165.372C339.195 164.032 339.435 162.567 339.171 161.161C338.91 159.754 338.106 158.416 336.873 157.694C335.44 156.851 333.668 156.922 332.01 157.064C331.852 157.079 331.678 157.098 331.566 157.21C331.473 157.303 331.441 157.437 331.414 157.564C331.273 158.206 331.131 158.856 331.144 159.515C331.153 160.023 331.258 160.536 331.18 161.038C331.053 161.859 330.406 162.574 329.603 162.784C328.407 163.094 327.616 161.634 326.817 161.847C325.633 162.159 326.273 165.118 326.49 165.875Z" fill="#FDB948"/>
<path d="M283.248 187.794L311.358 194.676C312.544 194.967 313.494 195.851 313.868 197.013L319.959 215.909L287.999 206.803L281.954 189.21C281.675 188.392 282.408 187.589 283.248 187.794Z" fill="#434757"/>
<path d="M301.341 203.568C302.13 202.857 301.923 201.339 300.877 200.178C299.831 199.016 298.343 198.651 297.554 199.362C296.764 200.074 296.972 201.591 298.018 202.753C299.063 203.914 300.551 204.279 301.341 203.568Z" fill="#C9E2E8"/>
<path d="M157.957 149.488C157.488 149.437 157.066 149.776 157.014 150.245L154.839 170.257L124.695 172.291L129.099 153.006C129.204 152.547 128.916 152.088 128.457 151.983C127.996 151.878 127.539 152.166 127.434 152.625L114.47 209.398L101.514 266.134C101.409 266.593 101.697 267.052 102.156 267.157C102.219 267.171 102.283 267.178 102.346 267.178C102.737 267.178 103.088 266.91 103.179 266.514L106.936 250.062L145.772 253.621L144.4 266.231C144.348 266.7 144.688 267.122 145.156 267.174C145.188 267.176 145.22 267.178 145.249 267.178C145.679 267.178 146.05 266.854 146.099 266.417L152.224 210.098C152.339 209.952 152.412 209.771 152.412 209.571C152.412 209.437 152.378 209.31 152.322 209.198L158.713 150.43C158.765 149.962 158.425 149.539 157.957 149.488ZM154.651 171.983L152.622 190.631L120.344 191.346L124.297 174.031L154.651 171.983ZM150.657 208.717H116.38L119.954 193.065L152.439 192.344L150.657 208.717ZM148.15 231.771L111.572 229.766L115.989 210.426H150.471L148.15 231.771ZM107.322 248.382L111.187 231.458L147.964 233.475L145.957 251.925L107.322 248.382Z" fill="#7B5DCE"/>
<path d="M324.71 56.8102L324.617 58.2579L94.3779 81.2047L94.4268 75.8922C94.5147 69.9449 99.0605 65.0157 104.979 64.4444L311.932 44.4469C319.09 43.756 325.164 49.6349 324.71 56.8102Z" fill="#C281E8"/>
<path d="M288.001 58.5044C290.25 58.5044 292.073 56.6812 292.073 54.4321C292.073 52.1831 290.25 50.3599 288.001 50.3599C285.752 50.3599 283.929 52.1831 283.929 54.4321C283.929 56.6812 285.752 58.5044 288.001 58.5044Z" fill="#97285C"/>
<path d="M299.977 56.9346C301.959 56.9346 303.565 55.3278 303.565 53.3457C303.565 51.3636 301.959 49.7568 299.977 49.7568C297.994 49.7568 296.388 51.3636 296.388 53.3457C296.388 55.3278 297.994 56.9346 299.977 56.9346Z" fill="#97285C"/>
<path d="M310.916 55.6431C312.693 55.6431 314.134 54.2024 314.134 52.4253C314.134 50.6482 312.693 49.2075 310.916 49.2075C309.139 49.2075 307.698 50.6482 307.698 52.4253C307.698 54.2024 309.139 55.6431 310.916 55.6431Z" fill="#97285C"/>
<path d="M129.72 261.537L145.821 281.437L115.228 271.485L129.72 261.537Z" fill="#97285C"/>
<path d="M63.0005 265.911L79.9537 247.083C81.2281 245.667 83.2178 245.138 85.0269 245.728L130.173 260.474C133.323 261.502 134.517 265.33 132.51 267.967L118.049 286.973C116.821 288.587 114.714 289.259 112.778 288.653L65.1392 273.731C61.792 272.679 60.6543 268.516 63.0005 265.911Z" fill="#FA71B7"/>
<path d="M96.1528 260.597L88.4355 269.159H104.605L96.1528 260.597Z" fill="#97285C"/>
<path d="M156.995 101.915V113.724L169.686 105.987L156.995 101.915Z" fill="white"/>
</svg>
