<svg width="100" height="109" viewBox="0 0 100 109" fill="none" xmlns="http://www.w3.org/2000/svg">
<path d="M47.1779 0.543938C45.9282 0.94709 43.5093 2.60001 39.639 5.7849L33.9143 10.4211H25.1659C15.4097 10.4211 14.1599 10.663 11.7007 12.7594C8.67703 15.3396 8.3142 16.5087 8.15294 24.5314L7.99168 31.5866L4.80679 34.1264C-0.434176 38.3595 0.00929006 35.0537 0.00929006 70.3294V100.566L1.05748 102.662C2.26693 105.121 4.0408 106.613 6.70159 107.419C9.52365 108.266 90.4763 108.266 93.2984 107.419C95.9592 106.613 97.7331 105.121 98.9425 102.662L99.9907 100.566V70.3294C99.9907 35.0537 100.434 38.3595 95.1932 34.1264L92.0083 31.5866L91.8471 24.5314C91.6858 16.5087 91.323 15.3396 88.2993 12.7594C85.8401 10.6227 84.5903 10.4211 74.8341 10.4211H66.0857L60.361 5.7849C53.2655 -0.0204697 51.3707 -0.746147 47.1779 0.543938ZM52.8624 5.98647C53.8299 6.63152 55.4425 7.88129 56.4504 8.76822L58.2646 10.3808H50H41.7354L43.5496 8.76822C46.291 6.309 48.8309 4.77702 50 4.77702C50.6047 4.77702 51.8545 5.30112 52.8624 5.98647ZM84.6307 15.8637C87.0093 17.0731 87.0899 17.6375 87.0899 34.8924V50.575L70.2785 64.2418C61.0463 71.7807 53.0236 78.2714 52.4592 78.6343C51.1288 79.5615 48.8712 79.5615 47.5408 78.6343C46.9764 78.2714 38.9537 71.7807 29.7215 64.2418L12.9101 50.5346V34.8924C12.9101 17.7585 12.9907 17.1134 15.2887 15.8637C16.9013 14.9767 82.9374 14.9767 84.6307 15.8637ZM7.87073 46.2209C7.74979 46.3419 7.02412 45.8178 6.25813 45.0921C5.12931 44.0036 4.8471 43.4392 4.8471 42.1491C4.8471 40.8187 5.12931 40.2946 6.37907 39.1255L7.87073 37.7144L7.99168 41.8669C8.03199 44.1245 7.99168 46.1 7.87073 46.2209ZM94.7497 40.2543C95.5561 41.746 95.2335 43.5601 93.8628 44.9712C93.1371 45.6968 92.4115 46.3016 92.2502 46.3016C92.089 46.3016 91.9277 44.3664 91.9277 42.0282V37.7951L93.1371 38.6417C93.8225 39.1255 94.5482 39.8512 94.7497 40.2543ZM18.5139 61.2181C24.9643 66.4188 30.2053 70.8131 30.2053 70.9341C30.2456 71.2163 5.29057 97.9049 5.00836 97.9049C4.92773 97.9049 4.8471 87.1811 4.8471 74.0787V50.2524L5.85498 51.0184C6.37907 51.4216 12.1038 56.0175 18.5139 61.2181ZM95.0723 86.0926L94.9513 98.0661L82.373 84.6412C75.4388 77.2232 69.7544 71.0953 69.7947 70.9341C69.7947 70.8131 75.4388 66.0963 82.373 60.4925L94.9513 50.2928L95.0723 62.226C95.1126 68.7571 95.1126 79.5212 95.0723 86.0926ZM39.5181 78.3521C45.2428 83.0286 47.2989 84.1977 50 84.1977C52.7011 84.1977 54.7572 83.0286 60.5626 78.3117C64.9972 74.6834 65.8841 74.119 66.3679 74.5624C66.6501 74.885 72.6974 81.2951 79.7525 88.834C88.7428 98.3887 92.4921 102.622 92.1293 102.864C91.2423 103.347 7.87073 103.025 7.87073 102.501C7.87073 102.098 33.8336 74.119 34.1965 74.119C34.2368 74.119 36.6557 76.0138 39.5181 78.3521Z" fill="black"/>
<path d="M45.2825 24.6924C41.4526 25.6197 38.1871 27.5548 35.365 30.5381C32.3011 33.7633 30.8901 36.4644 29.9628 40.7782C27.0601 54.1225 39.1143 66.7814 52.8618 64.8463C58.3446 64.0803 65.3191 59.7666 65.3191 57.1864C65.3191 55.9769 64.1097 54.7675 62.8599 54.7675C62.4568 54.7675 61.207 55.5738 60.0379 56.5817C53.6278 62.0242 44.3553 61.3792 38.5096 55.09C35.5263 51.9051 34.5184 49.1637 34.4781 44.4871C34.4781 41.2619 34.6394 40.5766 35.7682 38.1577C37.3808 34.7309 40.0416 32.0701 43.4684 30.4575C45.9276 29.2884 46.5323 29.1674 49.9994 29.1674C53.4665 29.1674 54.0712 29.2884 56.5305 30.4575C61.5295 32.8361 64.9966 37.6336 65.561 42.9552C65.8029 45.2531 65.7626 45.495 64.795 46.4626C62.6987 48.559 60.3604 47.3898 59.8363 44.0034C59.03 38.3189 55.321 34.8518 49.9994 34.8518C44.3553 34.8518 40.2432 39.0446 40.2835 44.729C40.2835 48.7202 42.2186 51.7439 45.7663 53.3968C49.3947 55.09 54.0712 54.4047 56.8933 51.7035C57.9012 50.736 57.9415 50.736 59.2316 51.381C64.0291 53.7596 69.5925 50.8569 70.3988 45.5757C70.7617 43.2777 69.7538 38.4399 68.3025 35.4566C66.8511 32.5136 62.6583 28.1595 59.7557 26.6276C55.4016 24.2893 49.9188 23.5636 45.2825 24.6924ZM52.2974 40.1331C54.3131 41.0604 55.5226 43.8018 54.8775 45.9385C53.4262 50.7763 46.5726 50.7763 45.1213 45.9385C44.7181 44.6484 44.7988 44.1243 45.4438 42.5923C46.7339 39.7703 49.435 38.7624 52.2974 40.1331Z" fill="black"/>
</svg>
