<svg width="96" height="154" viewBox="0 0 96 154" fill="none" xmlns="http://www.w3.org/2000/svg">
<g clip-path="url(#clip0_778_38)">
<path d="M39.077 11.8768C22.6 18.2922 7.00005 24.3845 4.46158 25.3538L-0.153801 27.1999L-0.292263 89.6922C-0.338416 124.077 -0.292263 152.692 -0.153801 153.246L0.0769682 154.308H47.8462H95.6154L95.8462 153.246C95.9847 152.692 96.0308 124.077 95.9847 89.6922L95.8462 27.1538L88.9231 26.923L82.0001 26.6922L81.8616 19.8615C81.7693 14.3692 81.6308 12.9845 81.077 12.7999C80.4308 12.523 72.8154 13.723 71.3385 14.323C70.7847 14.5076 70.6924 13.3999 70.6924 7.63069C70.6924 1.76915 70.6001 0.661453 69.9539 0.430695C69.5385 0.292236 69.2154 0.153763 69.1693 0.153763C69.1231 0.153763 55.6001 5.46146 39.077 11.8768ZM67.8308 9.47685L67.6924 14.6461L66.3077 14.9691C63.8616 15.6153 17.9385 23.7384 17.8 23.5538C17.7077 23.4615 22.3693 21.5692 28.1385 19.3538C33.9077 17.1384 44.8462 12.8461 52.4616 9.84607C60.077 6.84607 66.677 4.39992 67.1385 4.35378C67.877 4.30762 67.9231 4.76915 67.8308 9.47685ZM78.9077 21.2461L78.7693 26.6922L49.277 26.8307C33.0308 26.8768 19.877 26.7845 20.0616 26.6461C20.3385 26.323 21.3539 26.1384 50.8462 20.8768C60.8616 19.0768 71.1539 17.2307 73.6924 16.7691C76.2308 16.3076 78.4924 15.9384 78.677 15.8922C78.8616 15.8461 78.9539 18.2922 78.9077 21.2461ZM92.8462 90.6153V151.538H47.8462H2.8462V90.6153V29.6922H47.8462H92.8462V90.6153Z" fill="url(#paint0_linear_778_38)"/>
<path d="M8.70772 35.5536C8.52311 35.6921 8.38464 38.6921 8.38464 42.1536C8.38464 47.2305 8.52311 48.6152 9.07695 49.0767C9.6308 49.5382 9.90772 49.5382 10.4616 49.0767C10.9693 48.6613 11.1539 47.2305 11.2462 43.3998L11.3846 38.2305L16.5539 38.0921C20.3846 37.9998 21.8154 37.8152 22.2308 37.3075C22.6923 36.7536 22.6923 36.4767 22.2308 35.9229C21.7693 35.369 20.3846 35.2305 15.3077 35.2305C11.8462 35.2305 8.84618 35.369 8.70772 35.5536Z" fill="url(#paint1_linear_778_38)"/>
<path d="M73.5077 35.8309C73.2308 36.2001 73.0923 36.8463 73.2769 37.2155C73.5077 37.8617 74.5231 38.0001 78.9077 38.0925L84.3077 38.2309L84.4462 43.6309C84.5385 48.0155 84.6769 49.0309 85.3231 49.2617C87.0308 49.954 87.3539 48.8001 87.2154 41.9694L87.0769 35.4617L80.5692 35.3232C75.4462 35.2309 73.9231 35.3232 73.5077 35.8309Z" fill="url(#paint2_linear_778_38)"/>
<path d="M26.8001 95.508C26.3847 96.0157 26.3385 96.4311 26.7078 96.9849C27.1231 97.6772 29.0616 97.7695 47.8462 97.7695C66.6308 97.7695 68.5693 97.6772 68.9847 96.9849C69.3539 96.4311 69.3078 96.0157 68.8924 95.508C68.3385 94.8618 65.9385 94.7695 47.8462 94.7695C29.7539 94.7695 27.3539 94.8618 26.8001 95.508Z" fill="#22DCD9"/>
<path d="M26.6616 107.461C26.5231 107.83 26.5231 108.477 26.6616 108.846C26.8924 109.446 29.7077 109.538 47.8462 109.538C65.9847 109.538 68.8 109.446 69.0308 108.846C69.1693 108.477 69.1693 107.83 69.0308 107.461C68.8 106.861 65.9847 106.769 47.8462 106.769C29.7077 106.769 26.8924 106.861 26.6616 107.461Z" fill="#22DCD9"/>
<path d="M27.4001 118.677C27.077 118.908 26.8924 119.554 26.9847 120.2L27.1693 121.308H47.8462C67.277 121.308 68.5232 121.261 69.0309 120.477C69.4462 119.785 69.3539 119.508 68.6616 118.954C67.877 118.4 64.4616 118.308 47.8924 118.308C36.9539 118.308 27.7232 118.492 27.4001 118.677Z" fill="#22DCD9"/>
<path d="M8.8923 132.338C8.52306 132.754 8.3846 135.061 8.47691 139.354L8.61537 145.769L15.0308 145.908C21.1231 146 22.6923 145.769 22.6923 144.569C22.6923 143.508 21.0769 142.723 19.0461 142.769C17.8923 142.815 15.6308 142.815 14.0615 142.815L11.1538 142.769V137.508C11.1538 133.123 11.0154 132.2 10.4154 131.969C9.44614 131.6 9.4923 131.6 8.8923 132.338Z" fill="url(#paint3_linear_778_38)"/>
<path d="M85.1385 132.015C84.7231 132.154 84.5385 133.723 84.5385 137.508V142.769L81.9077 142.815C80.4308 142.862 78.1693 142.862 76.877 142.769C75.2154 142.723 74.2924 142.908 73.7847 143.462C71.7077 145.492 73.277 146.046 80.6616 145.908L87.077 145.769L87.2154 139.354C87.3539 132.292 87.0308 131.231 85.1385 132.015Z" fill="url(#paint4_linear_778_38)"/>
<path d="M44.6754 42.528C45.3737 43.8224 45.7058 45.5085 45.561 47.0158C45.3226 49.4854 44.2837 51.4525 42.2058 53.3686C41.5416 53.9817 41.3287 54.2372 41.1328 54.663C40.8347 55.3272 40.2301 56.264 39.6255 57.0048C39.0975 57.6691 39.0975 57.6691 40.443 56.9963C43.9601 55.225 46.4552 52.4829 47.3919 49.3491C47.6729 48.4294 47.7666 46.8114 47.6048 45.8406C47.5026 45.253 47.4686 45.1764 46.9406 44.5632C46.2167 43.7202 45.4674 42.9452 44.8712 42.4172L44.3858 42L44.6754 42.528Z" fill="url(#paint5_linear_778_38)"/>
<path d="M54.7666 49.1703C52.2544 53.3771 50.9004 57.6606 50.7812 61.7141C50.713 64.0475 51.0111 65.9039 51.7179 67.6752C51.8797 68.0754 51.9819 68.399 51.9564 68.399C51.8371 68.399 50.6875 67.4708 50.0233 66.8407C49.6315 66.4745 49.3079 66.219 49.3079 66.2871C49.3079 66.3467 49.2483 66.8747 49.1802 67.4623L49.0439 68.5183L49.2824 68.7141C50.7727 69.9404 53.0038 71.0645 54.971 71.5754C55.9077 71.8139 56.887 72.0098 56.9381 71.9501C56.9551 71.9331 56.7678 71.7883 56.5208 71.6265C55.8736 71.2093 54.6644 70.0171 54.179 69.3017C53.1315 67.7944 52.4247 65.8954 52.1096 63.7153C51.9734 62.7786 51.9734 60.3346 52.1096 59.2445C52.3651 57.2348 52.9186 55.0803 53.7447 52.9428C53.9235 52.4745 54.2045 51.5973 54.3748 51.0012C54.5366 50.4051 54.8177 49.5535 55.005 49.1107C55.1838 48.6679 55.3201 48.3017 55.3116 48.3017C55.2946 48.3017 55.0476 48.6935 54.7666 49.1703Z" fill="url(#paint6_linear_778_38)"/>
<path d="M49.5635 48.9406C49.555 50.482 48.729 52.662 47.5879 54.1608C44.9735 57.5842 40.7326 59.7983 34.8227 60.8117C34.0051 60.9564 33.1791 61.1268 32.9832 61.1949C32.6426 61.3141 31.1523 61.6292 30.5733 61.7058C30.4115 61.7229 31.2716 61.7314 32.4893 61.7143C34.1414 61.6888 35.0015 61.6377 35.8701 61.51C41.4565 60.6839 45.9613 58.4613 48.4565 55.2934C48.7545 54.9102 49.01 54.6207 49.0356 54.6377C49.1037 54.7143 48.8567 56.392 48.6609 57.1499C48.5416 57.5842 48.465 57.9589 48.4735 57.9674C48.5161 58.0015 50.5429 57.1243 50.5939 57.0477C50.6706 56.9285 50.8409 55.1487 50.8409 54.4078C50.8409 52.9345 50.5514 51.1803 50.0404 49.6219C49.6402 48.3956 49.5635 48.2934 49.5635 48.9406Z" fill="url(#paint7_linear_778_38)"/>
<path d="M54.2982 58.6147C54.2642 58.7254 54.2216 59.3896 54.1875 60.0965C54.0853 62.6938 54.5452 65.0101 55.5756 67.0624C56.6571 69.2339 58.4965 70.9541 60.3955 71.5673L60.9576 71.7461L62.0987 71.5247C62.7204 71.4055 63.6571 71.1755 64.168 71.0222L65.1048 70.7412L64.1936 70.639C62.252 70.4261 60.7532 69.7364 59.3651 68.4334C57.8323 66.9858 56.9211 65.2996 56.4187 62.9322C56.2483 62.1317 56.1717 61.9444 55.7544 61.3142C55.1839 60.4456 54.9795 60.0454 54.6303 59.1257C54.4004 58.5295 54.3493 58.4444 54.2982 58.6147Z" fill="url(#paint8_linear_778_38)"/>
<path d="M39.089 61.7908C37.5391 62.4805 36.3043 63.2725 35.0355 64.3881C34.3202 65.0097 33.0002 66.4234 33.0683 66.5C33.0854 66.517 33.3579 66.4148 33.6644 66.2701C35.1292 65.6058 36.8919 65.3333 38.561 65.5037C43.0063 65.9635 47.3068 68.646 51.0963 73.3382C51.454 73.781 52.0756 74.4793 52.4844 74.8881C52.8846 75.2968 53.4552 75.944 53.7447 76.3187C54.0343 76.6934 54.2897 77 54.3068 77C54.3494 77 54.0939 76.5487 53.2508 75.1265C50.7131 70.826 47.0939 67.2749 43.4321 65.5122C41.8907 64.7713 40.0002 64.1922 38.9017 64.1241C38.7228 64.1156 38.5781 64.0815 38.5781 64.0474C38.5781 63.9282 40.5452 63.1873 41.4138 62.983C41.8567 62.8808 41.8652 62.8893 40.1535 61.6204L39.898 61.4331L39.089 61.7908Z" fill="url(#paint9_linear_778_38)"/>
<path d="M35.9297 67.8965C34.5501 68.0924 33.426 68.5011 32.4211 69.1569C31.263 69.9148 31.2204 69.9744 30.7861 71.3028C30.5732 71.9501 30.3263 72.8187 30.2241 73.2274C30.1304 73.6447 30.0282 74.0535 30.0027 74.1471C29.9771 74.2408 30.1389 74.0364 30.3688 73.7043C31.51 72.0097 33.1705 70.8515 35.2399 70.298C35.9722 70.0936 36.2192 70.0681 37.5136 70.0681C39.072 70.0681 39.8129 70.1873 41.218 70.6727C41.8141 70.8771 41.9589 70.8856 43.2277 70.8771C44.4284 70.86 45.1182 70.9111 45.9017 71.09C46.3786 71.2007 44.5136 69.9659 43.2107 69.3101C40.8007 68.1009 38.0927 67.5729 35.9297 67.8965Z" fill="url(#paint10_linear_778_38)"/>
</g>
<defs>
<linearGradient id="paint0_linear_778_38" x1="96" y1="154" x2="4.5" y2="5.49999" gradientUnits="userSpaceOnUse">
<stop stop-color="#F73E94"/>
<stop offset="1" stop-color="#22DCD9"/>
</linearGradient>
<linearGradient id="paint1_linear_778_38" x1="15.4808" y1="49.4229" x2="4.49988" y2="31" gradientUnits="userSpaceOnUse">
<stop stop-color="#22DCD9"/>
<stop offset="0.979167" stop-color="#F73E94"/>
</linearGradient>
<linearGradient id="paint2_linear_778_38" x1="80.2184" y1="49.4365" x2="73" y2="35" gradientUnits="userSpaceOnUse">
<stop stop-color="#22DCD9"/>
<stop offset="1" stop-color="#F73E94"/>
</linearGradient>
<linearGradient id="paint3_linear_778_38" x1="15.5708" y1="145.926" x2="8" y2="132" gradientUnits="userSpaceOnUse">
<stop stop-color="#F73E94"/>
<stop offset="1" stop-color="#22DCD9"/>
</linearGradient>
<linearGradient id="paint4_linear_778_38" x1="80.0928" y1="145.928" x2="91.0001" y2="128.5" gradientUnits="userSpaceOnUse">
<stop stop-color="#F73E94"/>
<stop offset="1" stop-color="#22DCD9"/>
</linearGradient>
<linearGradient id="paint5_linear_778_38" x1="48.0349" y1="56.4553" x2="35.2065" y2="50.1542" gradientUnits="userSpaceOnUse">
<stop stop-color="#22DCD9"/>
<stop offset="1" stop-color="#F73E94"/>
</linearGradient>
<linearGradient id="paint6_linear_778_38" x1="57.2696" y1="70.3635" x2="43.5398" y2="66.2038" gradientUnits="userSpaceOnUse">
<stop stop-color="#22DCD9"/>
<stop offset="1" stop-color="#F73E94"/>
</linearGradient>
<linearGradient id="paint7_linear_778_38" x1="51.6898" y1="60.834" x2="38.6509" y2="42.6072" gradientUnits="userSpaceOnUse">
<stop stop-color="#22DCD9"/>
<stop offset="1" stop-color="#F73E94"/>
</linearGradient>
<linearGradient id="paint8_linear_778_38" x1="65.5622" y1="70.8543" x2="52.2965" y2="60.8873" gradientUnits="userSpaceOnUse">
<stop stop-color="#22DCD9"/>
<stop offset="1" stop-color="#F73E94"/>
</linearGradient>
<linearGradient id="paint9_linear_778_38" x1="55.2003" y1="75.949" x2="39.29" y2="56.2351" gradientUnits="userSpaceOnUse">
<stop stop-color="#22DCD9"/>
<stop offset="1" stop-color="#F73E94"/>
</linearGradient>
<linearGradient id="paint10_linear_778_38" x1="46.6465" y1="73.74" x2="41.7466" y2="62.576" gradientUnits="userSpaceOnUse">
<stop stop-color="#22DCD9"/>
<stop offset="1" stop-color="#F73E94"/>
</linearGradient>
<clipPath id="clip0_778_38">
<rect width="96" height="154" fill="white"/>
</clipPath>
</defs>
</svg>
