<svg width="200" height="150" viewBox="0 0 200 150" fill="none" xmlns="http://www.w3.org/2000/svg">
<path d="M117.74 70.7111C116.829 71.5111 116.759 72.3556 117.53 73.2889C118.02 73.9111 121.314 74 148.5 74C175.686 74 178.98 73.9111 179.47 73.2889C180.241 72.3556 180.171 71.5111 179.26 70.7111C178.559 70.0889 175.056 70 148.5 70C121.944 70 118.441 70.0889 117.74 70.7111Z" fill="#22DCD9"/>
<path d="M117.74 50.7111C116.829 51.5111 116.759 52.3556 117.53 53.2889C118.02 53.9111 121.314 54 148.5 54C175.686 54 178.98 53.9111 179.47 53.2889C180.241 52.3556 180.171 51.5111 179.26 50.7111C178.559 50.0889 175.056 50 148.5 50C121.944 50 118.441 50.0889 117.74 50.7111Z" fill="#22DCD9"/>
<path d="M117.211 90C116.93 90.7 116.93 91.3 117.211 92C117.598 93 117.949 93 148.5 93C179.051 93 179.402 93 179.789 92C180.07 91.3 180.07 90.7 179.789 90C179.402 89 179.051 89 148.5 89C117.949 89 117.598 89 117.211 90Z" fill="#22DCD9"/>
<rect x="2" y="2" width="196" height="146" rx="18" stroke="url(#paint0_linear_1062_2)" stroke-width="4"/>
<path d="M59.3508 36.0559C60.7474 38.6447 61.4116 42.017 61.1221 45.0316C60.6452 49.9707 58.5673 53.9051 54.4116 57.7372C53.0831 58.9634 52.6573 59.4744 52.2656 60.326C51.6695 61.6544 50.4603 63.5279 49.251 65.0097C48.195 66.3381 48.195 66.3381 50.886 64.9926C57.9201 61.4501 62.9104 55.9659 64.7839 49.6982C65.3459 47.8588 65.5332 44.6228 65.2096 42.6812C65.0053 41.506 64.9371 41.3527 63.8812 40.1265C62.4335 38.4403 60.9347 36.8905 59.7425 35.8345L58.7717 34.9999L59.3508 36.0559Z" fill="url(#paint1_linear_1062_2)"/>
<path d="M79.5333 49.3407C74.5089 57.7543 71.8009 66.3212 71.5625 74.4283C71.4262 79.0949 72.0223 82.8078 73.4359 86.3504C73.7595 87.1509 73.9639 87.7981 73.9128 87.7981C73.6744 87.7981 71.3751 85.9416 70.0467 84.6813C69.2632 83.9489 68.616 83.438 68.616 83.5742C68.616 83.6935 68.4968 84.7494 68.3605 85.9246L68.088 88.0365L68.5649 88.4283C71.5454 90.8808 76.0077 93.129 79.942 94.1509C81.8155 94.6278 83.7741 95.0195 83.8763 94.9003C83.9104 94.8662 83.5357 94.5767 83.0418 94.2531C81.7474 93.4185 79.3289 91.0341 78.3581 89.6034C76.2632 86.5888 74.8496 82.7908 74.2194 78.4307C73.9469 76.5572 73.9469 71.6691 74.2194 69.4891C74.7303 65.4696 75.8374 61.1606 77.4895 56.8857C77.8471 55.9489 78.4092 54.1947 78.7498 53.0025C79.0734 51.8103 79.6355 50.1071 80.0102 49.2215C80.3678 48.3358 80.6403 47.6034 80.6233 47.6034C80.5892 47.6034 80.0953 48.3869 79.5333 49.3407Z" fill="url(#paint2_linear_1062_2)"/>
<path d="M69.1269 48.8813C69.1099 51.964 67.4578 56.3241 65.1756 59.3216C59.9469 66.1684 51.4651 70.5966 39.6452 72.6233C38.0102 72.9129 36.3581 73.2535 35.9664 73.3898C35.2851 73.6282 32.3046 74.2584 31.1464 74.4117C30.8228 74.4457 32.543 74.4628 34.9785 74.4287C38.2827 74.3776 40.0029 74.2754 41.7401 74.0199C52.9128 72.3679 61.9226 67.9226 66.9128 61.5869C67.5089 60.8204 68.0199 60.2414 68.071 60.2754C68.2072 60.4287 67.7133 63.7839 67.3216 65.2997C67.0832 66.1684 66.9299 66.9177 66.9469 66.9348C67.0321 67.0029 71.0856 65.2487 71.1878 65.0954C71.3411 64.8569 71.6817 61.2973 71.6817 59.8156C71.6817 56.8691 71.1026 53.3606 70.0807 50.2438C69.2802 47.7912 69.1269 47.5869 69.1269 48.8813Z" fill="url(#paint3_linear_1062_2)"/>
<path d="M78.5966 68.2284C78.5284 68.4499 78.4433 69.7783 78.3751 71.1919C78.1708 76.3866 79.0905 81.0192 81.1513 85.1238C83.3143 89.4669 86.9932 92.9073 90.7912 94.1335L91.9153 94.4912L94.1975 94.0484C95.4408 93.8099 97.3143 93.3501 98.3362 93.0435L100.21 92.4815L98.3873 92.2771C94.5041 91.8513 91.5065 90.4717 88.7304 87.8659C85.6647 84.9705 83.8423 81.5983 82.8374 76.8635C82.4968 75.2625 82.3435 74.8878 81.509 73.6275C80.3678 71.8902 79.9591 71.0898 79.2608 69.2503C78.8009 68.0581 78.6987 67.8878 78.5966 68.2284Z" fill="url(#paint4_linear_1062_2)"/>
<path d="M48.178 74.5815C45.0783 75.9611 42.6087 77.545 40.071 79.7762C38.6403 81.0195 36.0004 83.8467 36.1367 84C36.1707 84.0341 36.7157 83.8297 37.3289 83.5401C40.2583 82.2117 43.7839 81.6667 47.1221 82.0073C56.0126 82.927 64.6136 88.292 72.1926 97.6764C72.908 98.562 74.1513 99.9586 74.9688 100.776C75.7693 101.594 76.9104 102.888 77.4895 103.637C78.0685 104.387 78.5795 105 78.6136 105C78.6987 105 78.1878 104.097 76.5016 101.253C71.4262 92.6521 64.1878 85.5499 56.8642 82.0243C53.7814 80.5426 50.0004 79.3844 47.8033 79.2482C47.4457 79.2311 47.1561 79.163 47.1561 79.0949C47.1561 78.8565 51.0904 77.3747 52.8277 76.9659C53.7133 76.7616 53.7303 76.7786 50.307 74.2409L49.796 73.8662L48.178 74.5815Z" fill="url(#paint5_linear_1062_2)"/>
<path d="M41.8593 86.793C39.1002 87.1848 36.852 88.0023 34.8423 89.3137C32.526 90.8295 32.4408 90.9488 31.5722 93.6057C31.1464 94.9001 30.6525 96.6373 30.4481 97.4548C30.2608 98.2894 30.0564 99.1069 30.0053 99.2943C29.9542 99.4816 30.2778 99.0729 30.7377 98.4086C33.0199 95.0193 36.3411 92.703 40.4798 91.596C41.9445 91.1872 42.4384 91.1361 45.0272 91.1361C48.144 91.1361 49.6257 91.3746 52.436 92.3454C53.6282 92.7541 53.9177 92.7711 56.4554 92.7541C58.8569 92.7201 60.2364 92.8222 61.8034 93.1799C62.7571 93.4013 59.0272 90.9317 56.4214 89.6203C51.6014 87.2018 46.1854 86.1458 41.8593 86.793Z" fill="url(#paint6_linear_1062_2)"/>
<defs>
<linearGradient id="paint0_linear_1062_2" x1="10" y1="6.5" x2="200" y2="143" gradientUnits="userSpaceOnUse">
<stop stop-color="#22DCD9"/>
<stop offset="1" stop-color="#F73E94"/>
</linearGradient>
<linearGradient id="paint1_linear_1062_2" x1="66.0699" y1="63.9106" x2="40.413" y2="51.3083" gradientUnits="userSpaceOnUse">
<stop stop-color="#22DCD9"/>
<stop offset="1" stop-color="#F73E94"/>
</linearGradient>
<linearGradient id="paint2_linear_1062_2" x1="84.5392" y1="91.727" x2="57.0797" y2="83.4077" gradientUnits="userSpaceOnUse">
<stop stop-color="#22DCD9"/>
<stop offset="1" stop-color="#F73E94"/>
</linearGradient>
<linearGradient id="paint3_linear_1062_2" x1="73.3795" y1="72.668" x2="47.3016" y2="36.2145" gradientUnits="userSpaceOnUse">
<stop stop-color="#22DCD9"/>
<stop offset="1" stop-color="#F73E94"/>
</linearGradient>
<linearGradient id="paint4_linear_1062_2" x1="101.125" y1="92.7075" x2="74.5932" y2="72.7736" gradientUnits="userSpaceOnUse">
<stop stop-color="#22DCD9"/>
<stop offset="1" stop-color="#F73E94"/>
</linearGradient>
<linearGradient id="paint5_linear_1062_2" x1="80.4005" y1="102.898" x2="48.5801" y2="63.4702" gradientUnits="userSpaceOnUse">
<stop stop-color="#22DCD9"/>
<stop offset="1" stop-color="#F73E94"/>
</linearGradient>
<linearGradient id="paint6_linear_1062_2" x1="63.293" y1="98.4801" x2="53.4931" y2="76.1521" gradientUnits="userSpaceOnUse">
<stop stop-color="#22DCD9"/>
<stop offset="1" stop-color="#F73E94"/>
</linearGradient>
</defs>
</svg>
