<svg width="155" height="129" viewBox="0 0 155 129" fill="none" xmlns="http://www.w3.org/2000/svg">
<g clip-path="url(#clip0_786_4)">
<path d="M82.7632 -9.81367C45.3558 -10.8678 12.9532 15.0378 8.05778 49.0297C2.70556 86.1949 32.1646 119.635 68.4131 124.991C113.5 131.653 157.232 93.1132 153.305 51.3039C150.347 19.8033 120.788 -8.74203 82.7632 -9.81367Z" fill="#F4F7FA"/>
<path d="M109.562 107.889C108.397 103.35 107.36 96.4711 109.593 89.0563C112.157 80.5423 116.689 79.1035 121.265 70.1237C127.797 57.305 122.018 47.3272 128.145 43.6815C131.133 41.9038 135.629 42.1981 138.27 44.355C145.806 50.5075 142.022 74.8957 128.846 83.6419C122.887 87.5975 117.97 86.7575 113.343 92.0797C109.254 96.7825 109.119 103.333 109.562 107.889Z" fill="url(#paint0_linear_786_4)"/>
<path d="M99.9628 114.979C98.9352 111.389 97.9278 105.712 100.317 100.256C104.486 90.7373 114.302 92.6027 122.268 82.0011C128.694 73.4505 125.697 67.7262 133.211 61.6694C134.469 60.6554 141.093 55.1106 146.752 57.3371C149.94 58.5918 151.408 61.7536 151.684 62.3468C155.848 71.3172 148.032 87.0158 136.421 95.1231C129.749 99.7813 127.31 98.7919 115.306 104.712C108.253 108.19 103.121 112.213 99.9628 114.979Z" fill="url(#paint1_linear_786_4)"/>
<path d="M100.707 104.204C102.91 102.973 106.484 101.236 111.148 100.158C119.443 98.2423 122.907 100.327 126.667 97.3416C130.559 94.2516 128.688 90.5567 133.316 87.1382C133.705 86.8508 138.661 83.2883 142.551 85.2697C145.272 86.6557 146.01 90.0111 146.357 91.5852C147.7 97.6952 145.506 106.52 138.729 110.223C132.304 113.734 125.002 110.877 122.686 109.954C118.623 108.333 117.816 106.585 113.67 105.065C108.629 103.215 103.863 103.615 100.707 104.204Z" fill="url(#paint2_linear_786_4)"/>
<path d="M121.235 63.4505C121.301 93.4877 105.335 118.001 76.901 118.807C76.4617 118.819 69.2049 118.806 68.7626 118.807C39.7158 118.877 16.114 94.2083 16.0468 63.7067C15.9796 33.2051 39.4721 8.42132 68.5184 8.35061C69.1974 8.34911 75.5736 8.41179 76.2466 8.43687C104.356 9.48745 121.169 33.662 121.235 63.4505Z" fill="url(#paint3_linear_786_4)"/>
<path d="M78.4736 119.3C107.521 119.3 131.068 94.5737 131.068 64.072C131.068 33.5703 107.521 8.84375 78.4736 8.84375C49.4268 8.84375 25.8796 33.5703 25.8796 64.072C25.8796 94.5737 49.4268 119.3 78.4736 119.3Z" fill="url(#paint4_linear_786_4)"/>
<path opacity="0.3" d="M78.4737 117.909C106.789 117.909 129.743 93.8052 129.743 64.072C129.743 34.3388 106.789 10.2354 78.4737 10.2354C50.1586 10.2354 27.2046 34.3388 27.2046 64.072C27.2046 93.8052 50.1586 117.909 78.4737 117.909Z" fill="url(#paint5_linear_786_4)"/>
<path d="M78.4736 116.284C105.934 116.284 128.195 92.9082 128.195 64.0727C128.195 35.2372 105.934 11.8613 78.4736 11.8613C51.0134 11.8613 28.7526 35.2372 28.7526 64.0727C28.7526 92.9082 51.0134 116.284 78.4736 116.284Z" fill="url(#paint6_linear_786_4)"/>
<path d="M77.4106 115.168C104.284 115.168 126.069 92.2915 126.069 64.0722C126.069 35.8528 104.284 12.9766 77.4106 12.9766C50.5373 12.9766 28.7522 35.8528 28.7522 64.0722C28.7522 92.2915 50.5373 115.168 77.4106 115.168Z" fill="url(#paint7_linear_786_4)"/>
<path d="M82.5481 62.6092L119.613 76.9819C120.82 72.9215 121.47 68.6028 121.47 64.1251C121.47 41.0674 104.23 22.2386 82.5481 21.0762V62.6092Z" fill="url(#paint8_linear_786_4)"/>
<g opacity="0.54">
<path d="M65.1936 62.913C61.3458 50.4504 75.2582 41.4569 73.0643 26.9313C72.0964 20.5214 68.3299 15.2695 63.6978 11.0566C41.7994 17.7754 25.8245 39.0413 25.8797 64.2007C25.9469 94.7023 49.5487 119.371 78.5955 119.301C85.7174 119.283 92.5044 117.777 98.693 115.068C97.7964 97.4409 92.389 87.4836 86.6391 81.4845C77.7766 72.2384 68.1278 72.4159 65.1936 62.913Z" fill="#D8DEE8"/>
</g>
<path d="M77.2741 68.1211C78.9827 68.1211 80.3677 66.6667 80.3677 64.8726C80.3677 63.0784 78.9827 61.624 77.2741 61.624C75.5656 61.624 74.1805 63.0784 74.1805 64.8726C74.1805 66.6667 75.5656 68.1211 77.2741 68.1211Z" fill="url(#paint9_linear_786_4)"/>
<path d="M77.2742 38.9824C76.1945 38.9824 75.319 39.9016 75.319 41.0355V62.9348C75.319 64.0686 76.1945 64.9878 77.2742 64.9878C78.3539 64.9878 79.2295 64.0686 79.2295 62.9348V41.0355C79.229 39.9016 78.3539 38.9824 77.2742 38.9824Z" fill="url(#paint10_linear_786_4)"/>
<path d="M77.7791 64.5649L42.7502 54.2666C42.1329 54.0781 41.4544 54.4206 41.2347 55.0314C41.0156 55.6422 41.338 56.2901 41.9553 56.4786L76.9842 66.7769C77.6015 66.9654 78.28 66.6229 78.4997 66.0121C78.7193 65.4013 78.3964 64.7534 77.7791 64.5649Z" fill="url(#paint11_linear_786_4)"/>
<path d="M146.548 16.7863L107.539 19.0324C105.43 19.1537 103.791 21.4284 103.791 24.1158V36.0208L101.158 41.4597L103.729 41.8464L107.392 42.1778L146.553 45.7097C149.945 46.0156 152.803 43.3944 152.803 39.845V22.8551C152.803 19.3052 149.94 16.5912 146.548 16.7863Z" fill="url(#paint12_linear_786_4)"/>
<path d="M145.187 16.7863L106.149 19.0324C104.041 19.1537 102.373 21.4284 102.373 24.1158V36.0208L99.7812 41.4597L102.373 41.8464L106.046 42.1778L145.187 45.7097C148.579 46.0156 151.415 43.3944 151.415 39.845V22.8551C151.415 19.3052 148.578 16.5912 145.187 16.7863Z" fill="url(#paint13_linear_786_4)"/>
<path d="M35.8585 60.3696C35.8585 60.3696 26.2016 43.648 13.1412 72.0845C2.97186 94.2276 9.54466 118.862 33.0713 125.621C56.5984 132.381 93.3443 118.729 81.8104 109.108C57.3441 88.7003 38.775 70.6112 35.8585 60.3696Z" fill="url(#paint14_linear_786_4)"/>
<g opacity="0.35">
<path d="M23.7408 75.3965C23.0533 77.4219 22.8979 83.1914 23.1877 89.8269C23.4465 95.7457 22.9089 98.8408 32.3261 103.146C35.554 104.622 37.7861 109.305 42.7286 112.09C44.9692 113.353 53.41 117.923 64.311 116.076C71.5237 114.854 76.894 111.316 80.5106 108.02C56.6906 88.0587 38.7228 70.4284 35.8584 60.3693C35.8584 60.3693 32.3301 54.2644 26.6554 55.7096C28.0319 57.2446 28.4993 61.3778 23.7408 75.3965Z" fill="url(#paint15_linear_786_4)"/>
</g>
<g opacity="0.13">
<path d="M70.7279 118.895C59.6012 125.039 41.0186 128.789 27.1739 118.506C14.3548 108.985 13.2129 93.0396 12.7857 88.1738C12.039 79.6693 13.7004 72.2641 16.0959 66.291C15.1331 67.974 14.1477 69.8941 13.1417 72.0845C2.97235 94.2276 9.54515 118.862 33.0718 125.621C56.2298 132.275 92.1949 119.152 82.3179 109.564C79.5107 112.73 75.7235 116.136 70.7279 118.895Z" fill="url(#paint16_linear_786_4)"/>
</g>
<path opacity="0.3" d="M53.1988 120.72C52.8694 120.72 52.5384 120.716 52.2034 120.709C43.6102 120.517 31.5457 117.663 22.8713 105.155C15.5447 94.5909 16.5251 82.6689 18.6378 74.5275C20.9245 65.7166 24.9945 59.3133 25.0356 59.2501C25.0812 59.1789 25.176 59.1583 25.2467 59.204C25.3179 59.2496 25.3385 59.3444 25.2929 59.4151C25.2522 59.4783 21.2049 65.8475 18.9317 74.6127C16.837 82.69 15.8637 94.5147 23.1225 104.98C31.7238 117.382 43.6879 120.212 52.2099 120.402C61.4571 120.608 68.7475 117.846 68.8202 117.818C68.8985 117.787 68.9872 117.827 69.0178 117.905C69.0484 117.984 69.0088 118.073 68.93 118.103C68.8598 118.131 62.0243 120.719 53.1988 120.72Z" fill="url(#paint17_linear_786_4)"/>
<path d="M99.345 119.138C98.7317 118.478 97.6329 115.636 99.6368 115.053C101.652 114.465 102.772 113.722 105.547 111.498C108.322 109.273 109.035 111.183 105.115 114.796C101.196 118.408 100.217 120.077 99.345 119.138Z" fill="url(#paint18_linear_786_4)"/>
<path d="M96.7192 114.988L98.3701 116.429C98.7151 116.73 99.2166 116.769 99.6037 116.525C99.7842 116.411 99.8996 116.218 99.9146 116.005C99.9302 115.792 99.8434 115.585 99.6814 115.446L97.2684 113.382L96.7192 114.988Z" fill="url(#paint19_linear_786_4)"/>
<path d="M47.2786 101.11C44.362 103.665 50.4499 112.044 60.1754 109.328C71.9611 106.037 86.9501 107.516 97.0538 115.743C97.64 115.221 99.0918 114.403 98.4278 113.732C89.3005 104.502 80.8462 99.2032 73.8436 97.7815C63.2575 95.6322 55.5834 93.8349 47.2786 101.11Z" fill="url(#paint20_linear_786_4)"/>
<g opacity="0.24">
<path d="M81.471 104.62C83.1805 105.614 83.5451 103.594 84.4272 102.264C80.641 99.9393 77.0856 98.4399 73.8446 97.7815C63.258 95.6322 55.5839 93.8349 47.279 101.11C44.3625 103.665 50.4504 112.044 60.1764 109.328C63.6938 108.346 67.4984 107.8 71.3718 107.72C74.4865 105.76 77.0355 101.265 81.471 104.62Z" fill="#552D63"/>
</g>
<path d="M45.5575 109.838L44.9587 110.067C44.9587 110.067 41.0864 106.41 40.3958 105.479C39.5539 104.342 49.0367 101.443 52.1158 97.6507C55.3518 93.6655 52.7953 102.382 52.7953 102.382L45.5575 109.838Z" fill="url(#paint21_linear_786_4)"/>
<path d="M42.0452 73.9658C42.0452 73.9658 45.4833 74.4372 49.2528 81.1218C52.0872 86.1476 58.2407 90.3113 58.2407 90.3113L58.8726 94.2659L53.7651 95.1631L51.9382 93.9601L46.9546 83.3564L42.0452 73.9658Z" fill="url(#paint22_linear_786_4)"/>
<path d="M35.3795 73.5398C35.3795 73.5398 26.9051 74.5849 26.7231 84.336C26.5551 93.3349 29.8016 96.8212 37.7685 104.325C38.5694 105.079 39.8687 105.079 39.965 105.188C40.4825 105.772 41.0071 106.38 41.5371 107.016C48.6671 100.174 56.7062 97.8567 56.7062 97.8567C56.7062 97.8567 49.2708 82.4751 46.0037 77.3761C42.6353 72.1191 37.5549 73.0168 35.3795 73.5398Z" fill="url(#paint23_linear_786_4)"/>
<g opacity="0.2">
<path d="M49.4494 96.2555C45.8718 98.1696 40.802 97.9529 38.9375 95.5845C37.5334 93.8007 37.3057 93.1358 35.5967 90.3346C34.2216 88.0809 33.5522 87.7199 30.5478 85.8223C29.414 85.1062 28.1272 84.0697 26.865 82.5166C26.7853 83.0873 26.7351 83.6915 26.7231 84.3359C26.5551 93.3349 29.8016 96.8211 37.7685 104.325C38.5694 105.079 39.8687 105.079 39.965 105.188C40.4825 105.771 41.0071 106.38 41.5371 107.016C48.6671 100.173 56.7062 97.8562 56.7062 97.8562C56.7062 97.8562 55.472 95.437 53.8382 92.0351C52.6528 94.0214 51.7441 95.0279 49.4494 96.2555Z" fill="url(#paint24_linear_786_4)"/>
</g>
<path d="M43.6062 96.5416C43.6062 96.5416 45.2124 96.6158 46.3528 96.1565C47.4936 95.6971 47.3993 95.5913 48.7122 95.4248C49.9885 95.2628 52.5018 94.5051 51.0792 93.2108C49.495 91.7701 46.78 92.1738 45.9997 93.1306C45.2475 94.0528 43.9442 94.638 43.9442 94.638L43.6062 96.5416Z" fill="url(#paint25_linear_786_4)"/>
<path d="M29.2817 78.4007C29.2817 78.4007 24.5748 78.9489 27.3214 94.1049C28.7456 101.965 35.7868 100.859 44.2893 97.6112C44.8649 96.4071 44.1243 93.8551 44.1243 93.8551C44.1243 93.8551 33.5612 98.2104 33.2879 91.8568C32.981 84.7329 32.0272 77.6485 29.2817 78.4007Z" fill="url(#paint26_linear_786_4)"/>
<path d="M37.3514 76.7644C35.337 76.7644 33.2905 75.2726 33.1922 75.2004C33.1581 75.1753 33.1511 75.1276 33.1761 75.0935C33.2012 75.0594 33.2494 75.0524 33.283 75.0775C33.31 75.0976 35.9999 77.0588 38.1778 76.5142C38.7811 76.3638 39.1943 76.0684 39.4054 75.6371C39.8076 74.8162 39.3518 73.7631 39.3473 73.7526C39.3302 73.714 39.3478 73.6689 39.3864 73.6518C39.4255 73.6353 39.4701 73.6523 39.4872 73.6909C39.5072 73.7366 39.9756 74.8202 39.5428 75.7048C39.3107 76.1787 38.8638 76.5012 38.2149 76.6632C37.9316 76.7334 37.6418 76.7644 37.3514 76.7644Z" fill="#9F73F8"/>
<path d="M40.3461 104.876C40.325 104.876 40.3045 104.868 40.2894 104.85C40.2609 104.819 40.2634 104.771 40.295 104.743C40.3707 104.674 47.957 97.8835 54.8061 96.2086C54.8482 96.1975 54.8883 96.2241 54.8989 96.2647C54.9089 96.3059 54.8838 96.347 54.8427 96.3575C48.0312 98.0229 40.473 104.788 40.3978 104.856C40.3827 104.87 40.3642 104.876 40.3461 104.876Z" fill="#AE87F9"/>
<path d="M35.0757 69.7715C35.0757 69.7715 35.354 72.9744 35.1028 73.5812C34.851 74.188 35.6459 75.0149 37.216 75.3333C38.7861 75.6518 37.5429 72.1389 37.5429 72.1389L35.0757 69.7715Z" fill="url(#paint27_linear_786_4)"/>
<path d="M39.6005 70.0103C41.2327 69.1202 41.1981 64.9419 40.2754 64.624C39.7454 64.4414 39.4846 65.7292 37.736 66.4744C36.3745 67.0551 35.4056 66.7542 34.9087 67.5556C34.6755 67.9322 34.5862 68.4873 34.6619 68.9547C34.7011 69.1954 34.8094 69.5073 35.0681 70.1131C35.2978 70.6507 35.2793 70.6301 35.3515 70.7876C35.5245 71.1657 35.875 71.8141 36.5931 72.63C36.6899 72.3998 36.8258 72.118 37.0179 71.8191C37.0916 71.7043 37.3865 71.2564 37.7796 70.9084C38.4947 70.2756 39.1321 70.2655 39.6005 70.0103Z" fill="url(#paint28_linear_786_4)"/>
<path d="M35.6353 71.7758C35.6353 71.7758 36.2466 73.2712 37.9165 73.4297C39.4119 73.5716 40.1626 70.2874 39.3306 69.4309C39.0528 69.1451 38.437 68.946 37.9004 69.0072C37.5835 69.0433 37.4606 69.1531 36.9416 69.2018C36.4627 69.2469 36.3413 69.1752 36.1839 69.2694C35.9868 69.3878 35.8023 69.7253 35.9357 70.7423C35.6995 70.4108 35.378 70.2468 35.1198 70.3215C35.0786 70.3336 34.9658 70.3862 34.8916 70.482C34.6238 70.8285 34.8921 71.3681 35.6353 71.7758Z" fill="url(#paint29_linear_786_4)"/>
<path d="M44.7351 98.579C44.6579 98.59 44.5867 98.6462 44.5671 98.7194C44.5641 98.7304 44.5942 99.1146 44.5932 99.1261C44.5857 99.2154 44.6403 99.2981 44.7256 99.3257L51.9317 101.667L65.3983 96.3926L59 96.882L44.7351 98.579Z" fill="#26264F"/>
<path d="M44.7316 98.5278C44.6428 98.5408 44.5746 98.613 44.5671 98.7023C44.5596 98.7915 44.6142 98.8743 44.6995 98.9019L51.9057 101.243L65.3727 95.9688L58.9739 96.4582L44.7316 98.5278Z" fill="#444B8C"/>
<path d="M51.5872 101.137L52.6608 87.0893C52.6779 86.8641 52.8479 86.6806 53.071 86.6455L69.1979 84.1211C69.3423 84.0985 69.4892 84.1421 69.5981 84.2394C69.7069 84.3372 69.7661 84.4781 69.7595 84.6245L69.1543 97.718C69.1437 97.9442 68.9792 98.1327 68.7566 98.1743L52.0029 101.276L51.5872 101.137Z" fill="url(#paint30_linear_786_4)"/>
<path d="M51.9321 101.666L53.0394 87.3085C53.0569 87.0833 53.2264 86.8998 53.4496 86.8652L69.577 84.3408C69.7214 84.3182 69.8683 84.3619 69.9771 84.4591C70.086 84.5569 70.1451 84.6978 70.1386 84.8443L69.5333 97.9397C69.5228 98.1649 69.3593 98.3535 69.1382 98.3956L51.9321 101.666Z" fill="#26264F"/>
<path d="M51.9323 101.666L69.1378 98.3957C69.3589 98.3536 69.5229 98.165 69.533 97.9398L69.7155 93.9902C64.5899 96.9008 58.1671 97.2709 52.181 98.4388L51.9323 101.666Z" fill="#1F1F44"/>
<path d="M81.0729 98.7236C80.8377 97.9067 80.3177 97.0045 82.1731 96.3456C83.5201 95.8677 85.8599 95.7138 87.9867 95.6049C90.9669 95.452 91.6525 97.2352 87.2972 98.3695C84.4453 99.1122 81.4074 99.885 81.0729 98.7236Z" fill="url(#paint31_linear_786_4)"/>
<path d="M83.3952 97.4738C83.4233 97.9307 83.1319 98.2897 82.7523 98.3439C81.8707 98.4697 82.0362 98.0159 82.0081 97.5591C81.98 97.1022 81.6235 96.7848 82.651 96.689C83.0331 96.6529 83.3671 97.0165 83.3952 97.4738Z" fill="url(#paint32_linear_786_4)"/>
<path d="M74.3462 94.8459L75.2167 94.709C75.2167 94.709 76.9122 94.8675 81.5855 96.1562C82.5859 96.3222 83.9499 99.2418 81.0183 99.3566C78.0867 99.4715 74.5197 101.654 74.5197 101.654L74.3462 94.8459Z" fill="url(#paint33_linear_786_4)"/>
<path d="M43.9127 108.43C43.9127 108.43 44.3395 112.219 53.1494 111.874C61.9593 111.529 77.6975 102.384 77.5987 97.5846C77.4994 92.7855 71.6432 94.7026 65.5794 97.4768C60.4614 99.8182 52.5556 101.174 50.9354 101.425C48.8603 101.747 43.4118 106.61 43.9127 108.43Z" fill="url(#paint34_linear_786_4)"/>
<g opacity="0.2">
<path d="M55.4395 103.682C59.5175 103.267 60.4332 100.34 65.5076 99.4942C68.7958 98.9461 69.9572 99.9169 71.6336 98.7941C72.957 97.908 73.6325 96.3625 73.9574 94.6846C71.7088 94.8751 68.6734 96.0611 65.5788 97.4768C60.6077 99.7509 53.0069 101.095 51.0897 101.401C51.0331 101.41 49.7478 100.95 49.7478 100.95C49.7478 100.95 48.791 101.497 48.105 101.929C50.7778 103.362 53.9502 103.833 55.4395 103.682Z" fill="url(#paint35_linear_786_4)"/>
</g>
</g>
<defs>
<linearGradient id="paint0_linear_786_4" x1="137.252" y1="50.9944" x2="115.83" y2="85.4906" gradientUnits="userSpaceOnUse">
<stop stop-color="#F73E94"/>
<stop offset="1" stop-color="#FB6FBB"/>
</linearGradient>
<linearGradient id="paint1_linear_786_4" x1="134.277" y1="62.6996" x2="116.317" y2="116.285" gradientUnits="userSpaceOnUse">
<stop stop-color="#0C65E2"/>
<stop offset="0.9964" stop-color="#22DCD9"/>
</linearGradient>
<linearGradient id="paint2_linear_786_4" x1="156.143" y1="50.8075" x2="147.36" y2="64.8073" gradientUnits="userSpaceOnUse">
<stop stop-color="#0C65E2"/>
<stop offset="0.9964" stop-color="#22DCD9"/>
</linearGradient>
<linearGradient id="paint3_linear_786_4" x1="44.829" y1="48.495" x2="110.206" y2="86.3447" gradientUnits="userSpaceOnUse">
<stop stop-color="#444B8C"/>
<stop offset="0.9964" stop-color="#26264F"/>
</linearGradient>
<linearGradient id="paint4_linear_786_4" x1="100.204" y1="31.4247" x2="-4.9921" y2="189.467" gradientUnits="userSpaceOnUse">
<stop stop-color="#22DCD9"/>
<stop offset="0.9964" stop-color="#0C65E2"/>
</linearGradient>
<linearGradient id="paint5_linear_786_4" x1="105.255" y1="26.62" x2="73.6513" y2="70.8157" gradientUnits="userSpaceOnUse">
<stop stop-color="#22DCD9"/>
<stop offset="0.9964" stop-color="#0C65E2"/>
</linearGradient>
<linearGradient id="paint6_linear_786_4" x1="45.5848" y1="-23.9175" x2="93.2114" y2="103.502" gradientUnits="userSpaceOnUse">
<stop stop-color="#22DCD9"/>
<stop offset="0.9964" stop-color="#0C65E2"/>
</linearGradient>
<linearGradient id="paint7_linear_786_4" x1="16.8929" y1="227.182" x2="111.732" y2="-28.4321" gradientUnits="userSpaceOnUse">
<stop offset="0.00359712" stop-color="#EBEFF2"/>
<stop offset="1" stop-color="white"/>
</linearGradient>
<linearGradient id="paint8_linear_786_4" x1="112.524" y1="26.0113" x2="56.1094" y2="139.482" gradientUnits="userSpaceOnUse">
<stop stop-color="#22DCD9"/>
<stop offset="0.9964" stop-color="#4C429A"/>
</linearGradient>
<linearGradient id="paint9_linear_786_4" x1="50.5329" y1="15.022" x2="111.126" y2="127.979" gradientUnits="userSpaceOnUse">
<stop stop-color="#F73E94"/>
<stop offset="1" stop-color="#FB6FBB"/>
</linearGradient>
<linearGradient id="paint10_linear_786_4" x1="55.901" y1="12.1414" x2="116.494" y2="125.099" gradientUnits="userSpaceOnUse">
<stop stop-color="#F73E94"/>
<stop offset="1" stop-color="#FB6FBB"/>
</linearGradient>
<linearGradient id="paint11_linear_786_4" x1="-7.21075" y1="-64.5248" x2="131.199" y2="193.499" gradientUnits="userSpaceOnUse">
<stop stop-color="#F73E94"/>
<stop offset="1" stop-color="#FB6FBB"/>
</linearGradient>
<linearGradient id="paint12_linear_786_4" x1="101.158" y1="31.2553" x2="152.803" y2="31.2553" gradientUnits="userSpaceOnUse">
<stop stop-color="#0C65E2"/>
<stop offset="0.9964" stop-color="#22DCD9"/>
</linearGradient>
<linearGradient id="paint13_linear_786_4" x1="136.721" y1="4.81068" x2="106.841" y2="87.4345" gradientUnits="userSpaceOnUse">
<stop stop-color="#0C65E2"/>
<stop offset="0.9964" stop-color="#22DCD9"/>
</linearGradient>
<linearGradient id="paint14_linear_786_4" x1="26.9665" y1="65.334" x2="84.2839" y2="187.776" gradientUnits="userSpaceOnUse">
<stop stop-color="#F73E94"/>
<stop offset="1" stop-color="#FB6FBB"/>
</linearGradient>
<linearGradient id="paint15_linear_786_4" x1="33.5466" y1="62.254" x2="90.8639" y2="184.696" gradientUnits="userSpaceOnUse">
<stop stop-color="#F73E94"/>
<stop offset="1" stop-color="#FB6FBB"/>
</linearGradient>
<linearGradient id="paint16_linear_786_4" x1="26.9665" y1="65.3335" x2="84.284" y2="187.776" gradientUnits="userSpaceOnUse">
<stop stop-color="#F73E94"/>
<stop offset="1" stop-color="#FB6FBB"/>
</linearGradient>
<linearGradient id="paint17_linear_786_4" x1="17.1048" y1="89.9496" x2="69.0286" y2="89.9496" gradientUnits="userSpaceOnUse">
<stop stop-color="#F73E94"/>
<stop offset="1" stop-color="#FB6FBB"/>
</linearGradient>
<linearGradient id="paint18_linear_786_4" x1="98.9186" y1="118.776" x2="106.736" y2="109.797" gradientUnits="userSpaceOnUse">
<stop stop-color="#40447E"/>
<stop offset="0.9964" stop-color="#3C3B6B"/>
</linearGradient>
<linearGradient id="paint19_linear_786_4" x1="65.7666" y1="74.1614" x2="151.367" y2="182.491" gradientUnits="userSpaceOnUse">
<stop stop-color="#22DCD9"/>
<stop offset="0.9964" stop-color="#0C65E2"/>
</linearGradient>
<linearGradient id="paint20_linear_786_4" x1="44.2639" y1="94.5602" x2="104.924" y2="122.169" gradientUnits="userSpaceOnUse">
<stop stop-color="#311944"/>
<stop offset="1" stop-color="#6B3976"/>
</linearGradient>
<linearGradient id="paint21_linear_786_4" x1="22.8737" y1="109.901" x2="75.5406" y2="96.742" gradientUnits="userSpaceOnUse">
<stop stop-color="#311944"/>
<stop offset="1" stop-color="#893976"/>
</linearGradient>
<linearGradient id="paint22_linear_786_4" x1="67.2846" y1="116.704" x2="51.582" y2="85.0687" gradientUnits="userSpaceOnUse">
<stop stop-color="#AA80F9"/>
<stop offset="0.9964" stop-color="#6165D7"/>
</linearGradient>
<linearGradient id="paint23_linear_786_4" x1="44.8421" y1="102.996" x2="37.6259" y2="80.5813" gradientUnits="userSpaceOnUse">
<stop stop-color="#AA80F9"/>
<stop offset="0.9964" stop-color="#6165D7"/>
</linearGradient>
<linearGradient id="paint24_linear_786_4" x1="44.8422" y1="102.996" x2="37.626" y2="80.5814" gradientUnits="userSpaceOnUse">
<stop stop-color="#AA80F9"/>
<stop offset="0.9964" stop-color="#6165D7"/>
</linearGradient>
<linearGradient id="paint25_linear_786_4" x1="42.736" y1="95.7315" x2="70.2477" y2="86.6021" gradientUnits="userSpaceOnUse">
<stop stop-color="#22DCD9"/>
<stop offset="0.9964" stop-color="#0C65E2"/>
</linearGradient>
<linearGradient id="paint26_linear_786_4" x1="39.6068" y1="106.216" x2="32.0141" y2="82.6315" gradientUnits="userSpaceOnUse">
<stop offset="0.2828" stop-color="#AA80F9"/>
<stop offset="0.9964" stop-color="#6165D7"/>
</linearGradient>
<linearGradient id="paint27_linear_786_4" x1="35.8698" y1="77.2372" x2="37.1144" y2="67.8686" gradientUnits="userSpaceOnUse">
<stop stop-color="#22DCD9"/>
<stop offset="0.9964" stop-color="#0C65E2"/>
</linearGradient>
<linearGradient id="paint28_linear_786_4" x1="32.1361" y1="77.7409" x2="39.4863" y2="65.2169" gradientUnits="userSpaceOnUse">
<stop stop-color="#311944"/>
<stop offset="1" stop-color="#6B3976"/>
</linearGradient>
<linearGradient id="paint29_linear_786_4" x1="37.3517" y1="69.6775" x2="35.8534" y2="83.6322" gradientUnits="userSpaceOnUse">
<stop stop-color="#22DCD9"/>
<stop offset="0.9964" stop-color="#0C65E2"/>
</linearGradient>
<linearGradient id="paint30_linear_786_4" x1="51.106" y1="93.2788" x2="70.2201" y2="92.1087" gradientUnits="userSpaceOnUse">
<stop stop-color="#40447E"/>
<stop offset="0.9964" stop-color="#3C3B6B"/>
</linearGradient>
<linearGradient id="paint31_linear_786_4" x1="81.1324" y1="98.8799" x2="89.9432" y2="95.2968" gradientUnits="userSpaceOnUse">
<stop stop-color="#40447E"/>
<stop offset="0.9964" stop-color="#3C3B6B"/>
</linearGradient>
<linearGradient id="paint32_linear_786_4" x1="79.3138" y1="94.5228" x2="181.014" y2="187.903" gradientUnits="userSpaceOnUse">
<stop stop-color="#22DCD9"/>
<stop offset="0.9964" stop-color="#0C65E2"/>
</linearGradient>
<linearGradient id="paint33_linear_786_4" x1="40.0489" y1="103.739" x2="83.5832" y2="96.7888" gradientUnits="userSpaceOnUse">
<stop stop-color="#311944"/>
<stop offset="1" stop-color="#6B3976"/>
</linearGradient>
<linearGradient id="paint34_linear_786_4" x1="23.7351" y1="113.349" x2="76.4023" y2="100.19" gradientUnits="userSpaceOnUse">
<stop stop-color="#311944"/>
<stop offset="1" stop-color="#893976"/>
</linearGradient>
<linearGradient id="paint35_linear_786_4" x1="42.3118" y1="105.243" x2="74.1201" y2="96.3813" gradientUnits="userSpaceOnUse">
<stop stop-color="#311944"/>
<stop offset="1" stop-color="#6B3976"/>
</linearGradient>
<clipPath id="clip0_786_4">
<rect width="155" height="129" fill="white"/>
</clipPath>
</defs>
</svg>
