<svg width="150" height="159" viewBox="0 0 150 159" fill="none" xmlns="http://www.w3.org/2000/svg">
<g clip-path="url(#clip0_771_177)">
<path d="M147.726 66.9387C143.68 40.453 127.089 7.91336 94.3137 4.50797C94.3137 4.50797 69.4286 1.48102 44.8976 6.06862C30.3385 8.79153 17.5719 16.8961 9.49378 28.5452C1.41561 40.1937 -1.2825 54.398 1.99189 67.9398C4.11858 76.7355 5.55631 85.8384 5.1617 94.8762C4.47545 110.606 4.87006 125.289 20.1353 134.669C33.7655 143.045 50.9191 150.432 67.2841 151.726C78.4054 152.606 90.8776 151.183 101.597 148.287C156.224 133.531 151.773 93.4244 147.726 66.9387Z" fill="#F4F7FA"/>
<path d="M58.9068 93.1962C67.3698 84.1358 65.8545 68.4743 60.3316 65.2124C57.4588 63.5153 54.6911 65.8749 51.958 63.7067C48.93 61.304 50.8308 57.2199 48.9494 49.3843C47.9774 45.3358 46.2151 37.994 41.4016 36.1789C36.6281 34.3789 33.6135 39.808 28.3709 38.1552C23.4135 36.5924 24.2248 31.1439 17.8329 27.4355C17.2383 27.0905 10.5014 23.2905 6.21028 26.1067C1.85071 28.9676 1.55583 37.6463 4.98009 42.4436C8.09114 46.8021 13.3569 46.676 13.579 49.5347C13.8238 52.6851 7.50893 53.8706 7.44909 57.1309C7.36338 61.8436 20.4944 62.8059 22.1095 69.9304C23.0588 74.1196 18.944 75.6652 18.9839 81.1698C19.0345 88.2743 25.9515 94.4231 31.476 97.1115C39.4814 101.008 51.5715 101.049 58.9068 93.1962Z" fill="url(#paint0_linear_771_177)"/>
<mask id="mask0_771_177" style="mask-type:luminance" maskUnits="userSpaceOnUse" x="2" y="25" width="63" height="75">
<path d="M58.9068 93.1962C67.3698 84.1358 65.8545 68.4743 60.3316 65.2124C57.4588 63.5153 54.6911 65.8749 51.958 63.7067C48.93 61.304 50.8308 57.2199 48.9494 49.3843C47.9774 45.3358 46.2151 37.994 41.4016 36.1789C36.6281 34.3789 33.6135 39.808 28.3709 38.1552C23.4135 36.5924 24.2248 31.1439 17.8329 27.4355C17.2383 27.0905 10.5014 23.2905 6.21028 26.1067C1.85071 28.9676 1.55583 37.6463 4.98009 42.4436C8.09114 46.8021 13.3569 46.676 13.579 49.5347C13.8238 52.6851 7.50893 53.8706 7.44909 57.1309C7.36338 61.8436 20.4944 62.8059 22.1095 69.9304C23.0588 74.1196 18.944 75.6652 18.9839 81.1698C19.0345 88.2743 25.9515 94.4231 31.476 97.1115C39.4814 101.008 51.5715 101.049 58.9068 93.1962Z" fill="white"/>
</mask>
<g mask="url(#mask0_771_177)">
<g opacity="0.7">
<path d="M55.1288 100.833L55.484 100.665C49.001 86.899 42.118 74.2888 35.0263 63.1837C29.3514 54.2974 23.5309 46.3497 17.7266 39.561C7.83497 27.9917 1.32445 23.7427 1.25976 23.7012L1.04736 24.0316C1.11151 24.0731 7.58807 28.3028 17.4468 39.8376C26.5471 50.4845 40.4716 69.7093 55.1288 100.833Z" fill="white"/>
<path d="M18.636 40.7029C18.5131 28.5239 12.8199 19.664 12.7622 19.5762L12.4333 19.7907C12.4905 19.8781 18.1212 28.6468 18.2431 40.7066L18.636 40.7029Z" fill="white"/>
<path d="M36.0755 64.7542C40.0761 52.1035 40.3262 43.6275 39.8313 38.745C39.2923 33.4264 37.8162 31.1418 37.7542 31.0469L37.4265 31.2636C37.4416 31.2862 38.9214 33.5887 39.4453 38.8285C39.9294 43.6701 39.6728 52.0771 35.7014 64.6361L36.0755 64.7542Z" fill="white"/>
<path d="M49.7094 89.1121C61.4948 69.1337 59.4771 55.6065 59.4555 55.4717L59.0673 55.5347C59.0727 55.5687 59.5854 59.0765 58.5638 65.0808C57.6641 70.3682 55.3396 78.7946 49.3708 88.9121L49.7094 89.1121Z" fill="white"/>
<path d="M29.6577 62.1097C31.0178 62.0811 32.3995 61.9781 33.7952 61.7868L33.7418 61.3975C24.6211 62.6498 16.0761 60.0752 10.5138 57.6946C4.48414 55.114 0.568776 52.2029 0.530501 52.1738L0.294922 52.4881C0.334275 52.5172 4.28683 55.4568 10.3596 58.0558C15.1165 60.0919 22.0421 62.2687 29.6577 62.1097Z" fill="white"/>
<path d="M44.9268 84.7995C45.6611 84.7839 46.405 84.7429 47.1587 84.6729L47.1225 84.2815C37.5651 85.1672 29.5193 81.4157 24.4519 78.1128C18.957 74.5311 15.6886 70.6955 15.6562 70.6572L15.356 70.9106C15.3888 70.9494 18.695 74.8292 24.2374 78.4421C28.9576 81.5192 36.2401 84.9818 44.9268 84.7995Z" fill="white"/>
</g>
</g>
<path d="M58.3337 100.309C44.593 98.8188 34.4722 84.4921 36.7606 77.7174C37.9509 74.1935 42.0054 74.1714 42.7348 70.3509C43.5429 66.118 38.965 64.0533 34.849 56.0673C32.7224 51.9412 28.8668 44.4592 31.6097 39.4231C34.3299 34.4285 40.8275 36.8183 44.0512 31.6064C47.0992 26.6781 42.448 22.6679 45.1461 14.884C45.3973 14.16 48.3197 6.04736 53.9925 5.30181C59.7558 4.54386 66.3224 11.6576 66.9234 18.201C67.4695 24.1455 62.931 27.8727 64.8248 30.4479C66.9116 33.2862 73.1062 29.69 75.5299 32.3999C79.0329 36.3169 68.6458 46.6878 72.4679 53.8786C74.7159 58.1072 80.5531 56.3886 81.7957 62.3983C83.7989 72.0856 82.773 74.96 80.0658 81.2517C76.1428 90.3687 70.2437 101.6 58.3337 100.309Z" fill="url(#paint1_linear_771_177)"/>
<mask id="mask1_771_177" style="mask-type:luminance" maskUnits="userSpaceOnUse" x="30" y="5" width="53" height="96">
<path d="M58.3337 100.309C44.593 98.8188 34.4722 84.4921 36.7606 77.7174C37.9509 74.1935 42.0054 74.1714 42.7348 70.3509C43.5429 66.118 38.965 64.0533 34.849 56.0673C32.7224 51.9412 28.8668 44.4592 31.6097 39.4231C34.3299 34.4285 40.8275 36.8183 44.0512 31.6064C47.0992 26.6781 42.448 22.6679 45.1461 14.884C45.3973 14.16 48.3197 6.04736 53.9925 5.30181C59.7558 4.54386 66.3224 11.6576 66.9234 18.201C67.4695 24.1455 62.931 27.8727 64.8248 30.4479C66.9116 33.2862 73.1062 29.69 75.5299 32.3999C79.0329 36.3169 68.6458 46.6878 72.4679 53.8786C74.7159 58.1072 80.5531 56.3886 81.7957 62.3983C83.7989 72.0856 82.773 74.96 80.0658 81.2517C76.1428 90.3687 70.2437 101.6 58.3337 100.309Z" fill="white"/>
</mask>
<g mask="url(#mask1_771_177)">
<g opacity="0.7">
<path d="M67.082 104.006L66.6599 104.124C62.1132 87.7813 58.7456 72.1231 56.6501 57.584C54.9736 45.95 54.1024 35.0023 54.062 25.0449C53.993 8.07616 56.3979 -0.251067 56.4221 -0.333008L56.8421 -0.209019C56.8178 -0.127079 54.4286 8.15864 54.5003 25.0745C54.5666 40.6891 56.8027 67.0573 67.082 104.006Z" fill="white"/>
<path d="M54.1261 26.6715C45.3644 16.2985 43.7229 4.67369 43.7073 4.55724L44.1412 4.49902C44.1563 4.61385 45.7854 16.1174 54.4609 26.389L54.1261 26.6715Z" fill="white"/>
<path d="M56.9085 59.6743C44.322 51.9045 37.9408 44.9298 34.8044 40.4468C31.3877 35.5638 30.971 32.56 30.9548 32.435L31.3893 32.3789C31.3931 32.4091 31.8201 35.4301 35.1915 40.2355C38.3069 44.6754 44.6432 51.5875 57.1387 59.3013L56.9085 59.6743Z" fill="white"/>
<path d="M63.1273 90.1656C38.633 81.875 30.4901 68.9845 30.4109 68.8551L30.7839 68.626C30.8039 68.6583 32.9246 71.9936 38.1581 76.3198C42.7661 80.1295 50.8632 85.5521 63.2675 89.7505L63.1273 90.1656Z" fill="white"/>
<path d="M60.4022 52.7692C59.2329 53.7353 57.9919 54.6538 56.6733 55.5083L56.4351 55.1406C65.048 49.559 70.3887 41.1644 73.3526 35.1056C76.565 28.5374 77.752 23.2296 77.7639 23.1768L78.1919 23.2706C78.1801 23.3239 76.9817 28.683 73.7467 35.2975C71.2113 40.4813 66.9483 47.3606 60.4022 52.7692Z" fill="white"/>
<path d="M64.0266 83.0429C63.3954 83.5647 62.7371 84.0709 62.0498 84.5604L61.7959 84.2035C70.5107 77.9949 74.5733 68.9701 76.4476 62.4925C78.48 55.4682 78.4482 49.8504 78.4476 49.7943L78.8859 49.79C78.8865 49.8466 78.9188 55.5291 76.8687 62.6143C75.1226 68.6488 71.494 76.8736 64.0266 83.0429Z" fill="white"/>
</g>
</g>
<path d="M103.626 89.7627L75.1676 94.8932L61.241 17.6392L89.6997 12.5088L103.626 89.7627Z" fill="url(#paint2_linear_771_177)"/>
<path d="M88.6922 29.592L67.2264 33.4616L64.8835 20.4643L86.3493 16.5947L88.6922 29.592Z" fill="url(#paint3_linear_771_177)"/>
<path d="M91.4346 44.8039L69.9688 48.6735L67.626 35.6767L89.0917 31.8066L91.4346 44.8039Z" fill="url(#paint4_linear_771_177)"/>
<path d="M94.1768 60.0159L72.7111 63.8854L70.3677 50.8881L91.8334 47.0186L94.1768 60.0159Z" fill="url(#paint5_linear_771_177)"/>
<path d="M96.9185 75.2268L75.4527 79.0963L73.1099 66.0996L94.5756 62.2295L96.9185 75.2268Z" fill="url(#paint6_linear_771_177)"/>
<g opacity="0.3">
<path d="M89.6996 12.5088L74.5708 15.236C76.7476 17.5142 78.704 20.3692 79.7579 23.8851C81.7643 30.5756 79.0862 34.9223 78.7519 43.9799C78.4037 53.4328 80.9832 57.8581 83.0048 66.6489C84.4797 73.0624 85.6689 81.8559 84.8447 93.1487L103.626 89.7632L89.6996 12.5088Z" fill="url(#paint7_linear_771_177)"/>
</g>
<path d="M97.5741 97.53L70.1709 88.2939L95.2437 13.9062L122.646 23.1429L97.5741 97.53Z" fill="url(#paint8_linear_771_177)"/>
<path d="M113.522 37.6206L92.8528 30.654L97.0711 18.1387L117.74 25.1058L113.522 37.6206Z" fill="url(#paint9_linear_771_177)"/>
<path d="M108.585 52.2675L87.916 45.301L92.1343 32.7861L112.803 39.7527L108.585 52.2675Z" fill="url(#paint10_linear_771_177)"/>
<path d="M103.648 66.9146L82.979 59.948L87.1973 47.4326L107.866 54.3992L103.648 66.9146Z" fill="url(#paint11_linear_771_177)"/>
<path d="M98.7115 81.5615L78.042 74.5949L82.2603 62.0801L102.929 69.0467L98.7115 81.5615Z" fill="url(#paint12_linear_771_177)"/>
<g opacity="0.3">
<path d="M122.646 23.1426L104.598 17.0596C106.212 21.9318 105.967 25.5819 105.306 28.1933C103.448 35.5313 97.7628 36.8563 93.9672 45.5798C90.4081 53.7598 92.407 59.4881 92.0884 66.4035C91.7849 72.983 89.338 81.6089 80.6707 91.8326L97.5742 97.5302L122.646 23.1426Z" fill="url(#paint13_linear_771_177)"/>
</g>
<path d="M91.2955 100.974L71.7483 79.6636L129.598 26.6016L149.145 47.9126L91.2955 100.974Z" fill="url(#paint14_linear_771_177)"/>
<path d="M134.168 56.1915L119.424 40.1177L129.157 31.1904L143.9 47.2643L134.168 56.1915Z" fill="url(#paint15_linear_771_177)"/>
<path d="M122.777 66.6397L108.033 50.5659L117.766 41.6387L132.51 57.7125L122.777 66.6397Z" fill="url(#paint16_linear_771_177)"/>
<path d="M111.386 77.088L96.6426 61.0141L106.375 52.0869L121.119 68.1608L111.386 77.088Z" fill="url(#paint17_linear_771_177)"/>
<path d="M99.9951 87.5362L85.2517 71.4624L94.9843 62.5352L109.728 78.609L99.9951 87.5362Z" fill="url(#paint18_linear_771_177)"/>
<g opacity="0.3">
<path d="M149.145 47.9124L136.6 34.2354C136.117 41.3054 133.754 45.3017 131.57 47.6925C126.467 53.2823 120.83 51.7647 113.363 57.6601C106.362 63.1885 105.418 69.1814 101.87 75.1265C98.7246 80.3965 93.0976 86.3534 82.2561 91.1194L91.2949 100.974L149.145 47.9124Z" fill="url(#paint19_linear_771_177)"/>
</g>
<path d="M85.9514 89.3305C87.6496 89.3305 89.0263 87.9538 89.0263 86.2556C89.0263 84.5574 87.6496 83.1807 85.9514 83.1807C84.2532 83.1807 82.8765 84.5574 82.8765 86.2556C82.8765 87.9538 84.2532 89.3305 85.9514 89.3305Z" fill="url(#paint20_linear_771_177)"/>
<path d="M96.0366 147.098C94.062 146.443 92.586 144.767 92.1698 142.707L89.2954 128.481L64.7083 129.355L61.6824 144.175C61.2587 146.25 62.9552 148.333 64.9089 149.097L75.1957 153.122C77.1089 153.871 79.1655 154.169 81.2097 153.994L102.949 152.134C103.585 152.079 104.094 151.58 104.169 150.939C104.243 150.298 104.688 149.578 104.082 149.377L96.0366 147.098Z" fill="#97A6B7"/>
<path d="M96.2798 146.233C94.3068 145.586 92.8324 143.931 92.4167 141.897L89.5456 127.851L65.5574 128.714L62.5343 143.347C62.1111 145.397 63.2313 147.452 65.1828 148.206L75.4593 152.181C77.3709 152.92 79.4254 153.214 81.4674 153.041L103.185 151.205C103.82 151.151 104.329 150.658 104.403 150.025C104.477 149.392 104.095 148.795 103.49 148.596L96.2798 146.233Z" fill="url(#paint21_linear_771_177)"/>
<path d="M14.4673 137.937C11.801 138.096 9.61987 136.366 9.61987 134.08V51.6912C9.61987 49.4055 11.801 47.64 14.4673 47.7553L137.774 53.0982C139.731 53.1828 141.317 54.8335 141.317 56.7774V126.849C141.317 128.793 139.732 130.47 137.774 130.586L14.4673 137.937Z" fill="url(#paint22_linear_771_177)"/>
<path d="M15.5757 137.937C12.9094 138.096 10.7283 136.366 10.7283 134.08V51.6912C10.7283 49.4055 12.9094 47.64 15.5757 47.7553L138.882 53.0982C140.84 53.1828 142.425 54.8335 142.425 56.7774V126.849C142.425 128.793 140.84 130.47 138.882 130.586L15.5757 137.937Z" fill="url(#paint23_linear_771_177)"/>
<path opacity="0.3" d="M138.882 54.7473L15.5756 49.6745C14.1502 49.6157 12.9912 50.5575 12.9912 51.7785V115.856V133.956C12.9912 135.176 14.1502 136.099 15.5756 136.018L138.882 128.937C139.931 128.877 140.78 127.982 140.78 126.939V110.921V56.7138C140.78 55.6707 139.931 54.7904 138.882 54.7473Z" fill="#D8DEE8"/>
<path d="M139.496 56.6693V122.147C139.496 122.554 139.228 122.902 138.819 122.923L15.5261 129.019C14.9708 129.046 14.5342 128.681 14.5342 128.208V51.8386C14.5342 51.3653 15.0032 50.9954 15.5579 51.0175L138.81 55.9006C139.219 55.9178 139.496 56.2617 139.496 56.6693Z" fill="#D8DEE8"/>
<path opacity="0.7" d="M139.611 56.748L139.68 67.7712L14.5342 65.3523V51.8353C14.5342 51.3636 14.9951 50.9954 15.5407 51.0175L138.87 55.9679C139.286 55.9857 139.609 56.3351 139.611 56.748Z" fill="white"/>
<g opacity="0.5">
<path d="M94.7611 99.0139L21.8888 100.253L21.8586 70.7002L94.4694 71.7088L94.7611 99.0139Z" fill="white"/>
<path d="M134.587 98.3369L98.9426 98.9429L98.637 71.7666L134.17 72.2599L134.587 98.3369Z" fill="white"/>
<path d="M134.897 117.809L21.9119 122.339L21.8931 104.129L134.641 101.755L134.897 117.809Z" fill="white"/>
</g>
<path d="M67.3456 95.365C67.6388 96.3089 67.172 97.221 66.3278 97.483L6.98545 115.918C6.14125 116.18 5.2399 115.693 4.94664 114.749L0.168199 99.3666C-0.125063 98.4226 0.321299 97.4447 1.1655 97.1827L60.5084 78.7477C61.3526 78.4857 62.2744 79.0383 62.5677 79.9822L67.3456 95.365Z" fill="url(#paint24_linear_771_177)"/>
<path d="M64.2705 79.4534L69.0495 94.8362C69.3422 95.779 68.8754 96.6917 68.0317 96.9537L8.68887 115.389C7.8452 115.651 6.94332 115.163 6.65005 114.221L1.87108 98.8378C1.57782 97.8933 2.02418 96.916 2.86839 96.6534L62.2107 78.2184C63.0549 77.9564 63.9767 78.509 64.2705 79.4534Z" fill="url(#paint25_linear_771_177)"/>
<path opacity="0.2" d="M67.6743 90.4107L69.049 94.8361C69.3417 95.7789 68.8748 96.6916 68.0312 96.9536L8.68887 115.389C7.8452 115.651 6.94332 115.163 6.65005 114.22L1.87108 98.8377C1.57782 97.8932 2.02418 96.9158 2.86839 96.6533L10.4554 94.2964C12.4312 94.1902 14.456 94.4954 16.2226 95.5746C22.1951 99.2237 22.6846 104.08 38.1067 98.525C49.3417 94.4776 61.1708 90.1611 67.6743 90.4107Z" fill="url(#paint26_linear_771_177)"/>
<path d="M22.0846 151.309C22.2204 151.193 22.3735 151.234 23.0598 151.354C23.9034 151.5 24.0792 151.509 24.36 151.676C24.429 151.717 24.8916 151.994 24.8398 152.159C24.8005 152.286 24.4932 152.255 23.3692 152.227C22.3746 152.202 22.118 152.212 21.987 152.01C21.8544 151.804 21.9056 151.462 22.0846 151.309Z" fill="#26264F"/>
<path d="M22.2312 150.598L22.3778 151.563C22.5633 151.662 22.7433 151.669 22.9164 151.563L22.904 150.718L22.2312 150.598Z" fill="url(#paint27_linear_771_177)"/>
<path d="M21.2037 114.979C21.1412 116.349 21.1422 118.426 21.5465 120.9C22.3099 125.57 23.615 126.175 23.8673 129.751C24.0802 132.769 23.3627 135.345 22.512 138.401C21.6172 141.615 20.911 142.548 20.8118 144.879C20.7029 147.45 21.4242 149.575 22.035 150.948C22.3773 150.964 22.7201 150.98 23.0624 150.997C23.4781 149.176 24.2554 146.467 25.8032 143.46C27.4738 140.214 29.1961 138.263 29.8161 137.441C32.0177 134.525 33.3282 128.63 28.8371 115.419C26.2932 115.272 23.7482 115.125 21.2037 114.979Z" fill="url(#paint28_linear_771_177)"/>
<path d="M37.7805 150.743L38.1363 152.252C38.1363 152.252 38.3676 152.465 38.7735 152.252V150.816L37.7805 150.743Z" fill="url(#paint29_linear_771_177)"/>
<path d="M37.9525 152.187C38.0883 152.071 38.2414 152.112 38.9277 152.231C39.7713 152.378 39.9471 152.387 40.2279 152.554C40.2969 152.595 40.7595 152.872 40.7077 153.037C40.6684 153.164 40.3611 153.133 39.2371 153.105C38.2425 153.079 37.9859 153.09 37.8549 152.888C37.7223 152.682 37.7735 152.34 37.9525 152.187Z" fill="#26264F"/>
<path opacity="0.3" d="M28.8382 115.419C26.2932 115.272 23.7487 115.125 21.2037 114.979C21.1412 116.349 21.1422 118.426 21.5466 120.9C21.7902 122.39 22.0889 123.465 22.3913 124.356C22.5908 124.559 22.8015 124.755 23.0393 124.937C25.0226 126.456 26.7094 125.838 27.5169 127.212C28.3142 128.569 26.9174 129.588 27.0765 133.085C27.1778 135.316 27.7643 135.305 27.5169 136.535C26.9999 139.106 24.4614 139.048 23.4059 141.894C22.7422 143.685 23.5347 144.281 22.8188 146.298C22.4474 147.345 21.8759 148.185 21.2851 148.853C21.5099 149.665 21.7811 150.375 22.036 150.947C22.3784 150.963 22.7212 150.98 23.0635 150.996C23.4792 149.176 24.2565 146.467 25.8042 143.46C27.4749 140.213 29.1972 138.262 29.8172 137.441C32.0182 134.525 33.3293 128.63 28.8382 115.419Z" fill="url(#paint30_linear_771_177)"/>
<path d="M25.1678 114.293C24.4669 115.758 24.3397 116.945 24.3365 117.712C24.3192 121.871 27.9058 125.655 33.2071 131.122C34.5133 132.469 35.1467 133.045 35.6271 134.246C36.62 136.728 35.6147 138.561 35.4448 142.334C35.2864 145.864 35.6378 147.387 35.9586 148.427C36.3764 149.779 36.9349 150.825 37.3532 151.51C37.9403 151.534 38.5279 151.559 39.1149 151.584C40.5101 149.368 42.5936 145.349 42.882 140.057C43.1225 135.647 42.0076 132.347 40.5721 128.098C39.5483 125.069 37.8421 120.897 34.9306 116.275C31.6766 115.614 28.4222 114.954 25.1678 114.293Z" fill="url(#paint31_linear_771_177)"/>
<path d="M14.7429 111.745V112.244L15.5839 112.431C15.6955 112.456 15.8044 112.492 15.909 112.537L16.2701 112.693C16.9866 113.003 17.813 112.919 18.4513 112.469L14.7429 111.745Z" fill="url(#paint32_linear_771_177)"/>
<path d="M58.31 96.6492C58.2405 96.3225 57.9623 96.667 57.7973 96.5409C57.4556 96.2794 56.8637 97.2077 56.4761 97.5657C56.054 97.9554 56.1499 98.3948 55.889 99.2088C55.7477 99.6492 55.4825 100.26 54.9348 100.934L55.889 101.961L57.006 100.271C57.2205 100.086 57.531 99.7657 57.7402 99.2832C57.8205 99.0983 57.8707 98.9236 57.903 98.7705L58.1548 98.0142C58.2486 97.446 58.3758 96.9581 58.31 96.6492Z" fill="url(#paint33_linear_771_177)"/>
<path d="M15.0883 111.201C15.0468 111.742 15.0058 112.283 14.9643 112.825C14.3595 112.906 10.5923 113.354 7.84356 110.769C4.49585 107.621 5.5848 102.727 5.78803 101.813C7.20905 95.4284 14.0144 92.9503 14.8026 92.6775C17.6446 91.6931 19.9756 91.919 24.36 92.3438C27.6182 92.6597 30.8743 92.9756 34.4182 94.5082C42.1503 97.8527 43.167 103.337 48.0716 103.453C49.7514 103.493 52.2441 102.908 55.3508 99.6991C55.8177 100.017 56.2851 100.335 56.7519 100.653C56.5244 101.638 55.2861 106.551 50.7864 109.007C45.8382 111.708 38.9562 110.342 34.3384 105.301C33.9746 109.409 34.7411 112.318 35.5913 114.293C36.2651 115.858 36.932 116.696 36.5454 117.596C35.8479 119.219 32.5185 119.184 28.1034 119.138C23.7611 119.092 21.5665 119.044 20.4171 117.779C19.2468 116.491 19.856 115.322 19.2107 110.612C18.6581 106.577 18.2506 103.601 16.7153 103.14C15.3045 102.716 12.7368 104.356 12.4694 106.862C12.277 108.671 13.3336 110.45 15.0883 111.201Z" fill="url(#paint34_linear_771_177)"/>
<path d="M15.0883 111.201C15.0468 111.742 15.0058 112.283 14.9643 112.825C14.3595 112.906 10.5923 113.354 7.84356 110.769C4.49585 107.621 5.5848 102.727 5.78803 101.813C7.20905 95.4284 14.0144 92.9503 14.8026 92.6775C17.6446 91.6931 19.9756 91.919 24.36 92.3438C27.6182 92.6597 30.8743 92.9756 34.4182 94.5082C42.1503 97.8527 43.167 103.337 48.0716 103.453C49.7514 103.493 52.2441 102.908 55.3508 99.6991C55.8177 100.017 56.2851 100.335 56.7519 100.653C56.5244 101.638 55.2861 106.551 50.7864 109.007C45.8382 111.708 38.9562 110.342 34.3384 105.301C33.9746 109.409 34.7411 112.318 35.5913 114.293C36.2651 115.858 36.932 116.696 36.5454 117.596C35.8479 119.219 32.5185 119.184 28.1034 119.138C23.7611 119.092 21.5665 119.044 20.4171 117.779C19.0419 116.266 20.0991 114.816 19.2107 110.612C19.071 109.95 17.6635 103.511 15.3239 103.383C14.0684 103.314 12.6624 105.069 12.4689 106.862C12.2737 108.68 13.3325 110.459 15.0883 111.201Z" fill="url(#paint35_linear_771_177)"/>
<path d="M20.3596 89.1152C20.5682 91.2009 20.1828 91.9406 19.7327 92.1918C19.1192 92.5346 17.7537 92.3233 17.1068 92.7853C17.0761 92.8069 17.0211 92.8468 17.0243 92.8985C17.0367 93.1152 18.1364 93.2452 19.5893 93.5929C21.2777 93.9966 24.5602 93.85 25.2313 93.5929C25.2782 93.5745 25.3726 93.5352 25.379 93.471C25.4054 93.2117 23.9257 93.3136 23.0577 92.4365C22.4081 91.7805 22.6529 91.1336 21.7165 90.0689C21.4971 89.8193 21.2912 89.636 21.1488 89.5185C20.8858 89.3842 20.6227 89.2495 20.3596 89.1152Z" fill="url(#paint36_linear_771_177)"/>
<path d="M21.8378 91.0263C21.9931 90.9411 23.2562 90.7875 23.4298 90.1082C23.6659 89.1864 22.8378 88.0646 22.7343 87.884C22.302 87.1282 22.1936 87.0263 21.9926 86.898L21.7139 86.7346C21.7139 86.7346 21.6977 86.7287 21.681 86.7228C21.5031 86.664 20.9009 86.6592 20.7796 86.6883C20.392 86.7805 20.013 88.3762 20.1823 90.616C20.1683 90.7018 20.1543 90.7886 20.1413 90.8753C20.1079 91.1023 21.8497 91.1061 21.8378 91.0263Z" fill="url(#paint37_linear_771_177)"/>
<path d="M23.026 86.592C22.8804 87.0146 22.3036 87.4518 22.0459 87.6465C22.0082 87.675 21.8993 87.7715 21.8006 87.9268C21.7861 87.9494 21.7737 87.9758 21.7629 88.0098C21.6206 88.4513 22.3284 88.9505 22.1985 89.15C22.1041 89.2944 21.6265 89.1149 21.5731 89.2389C21.523 89.3559 21.9214 89.5861 21.8643 89.7257C21.8211 89.8314 21.5769 89.7413 21.4281 89.9047C21.3537 89.9861 21.3775 90.0486 21.3025 90.2944C21.2599 90.4335 21.1996 90.5855 21.1521 90.6707C20.9214 91.0842 20.2443 91.2486 20.1101 91.088C20.0729 91.0432 20.1031 91.0044 20.0626 90.8524C20.0626 90.8524 20.0249 90.7117 19.923 90.5505C19.7769 90.3198 19.4335 90.1602 19.0853 89.9214C18.4405 89.4788 18.2589 89.0934 18.2044 88.9629C18.1985 88.9483 18.1931 88.9349 18.1882 88.9225C18.1791 88.9004 18.171 88.8783 18.164 88.8562C18.0184 88.3845 18.3915 87.8761 18.5926 87.6394C18.8804 87.3036 19.3651 86.8049 20.075 86.3607C20.268 86.24 22.1473 85.0799 22.8362 85.6535C23.0815 85.8583 23.1246 86.3047 23.026 86.592Z" fill="#26264F"/>
<path d="M21.9445 88.9928C21.7688 88.7626 21.4744 88.989 21.4798 89.292C21.4852 89.5949 21.7855 89.9028 22.0685 89.8365C22.352 89.7707 22.1806 89.3028 21.9445 88.9928Z" fill="url(#paint38_linear_771_177)"/>
<path opacity="0.3" d="M35.4447 117.303C34.4555 117.775 33.0792 117.748 32.2884 117.01C31.0587 115.863 32.3202 113.742 31.0404 112.899C29.8711 112.128 28.7326 113.144 27.6636 112.458C25.8232 111.276 27.9229 107.444 25.9752 105.264C24.3703 103.468 22.0361 105.054 20.1024 103.208C17.9348 101.139 19.6463 97.9772 17.6798 96.602C16.0356 95.4522 13.0636 96.422 11.2932 97.7034C8.31642 99.8575 8.12289 103.335 6.74176 103.282C6.43556 103.27 6.06629 103.082 5.65551 102.476C5.35847 104.154 4.99351 108.09 7.84311 110.77C10.5914 113.354 14.359 112.907 14.9639 112.825C15.0054 112.284 15.0463 111.743 15.0879 111.201C13.3326 110.459 12.2738 108.681 12.4695 106.862C12.6631 105.069 14.0684 103.314 15.3245 103.383C17.6641 103.512 19.0717 109.951 19.2113 110.612C20.0992 114.816 19.0426 116.267 20.4178 117.779C21.5671 119.044 23.7617 119.093 28.104 119.138C32.5186 119.185 35.8485 119.22 36.5461 117.597C36.7121 117.21 36.6765 116.831 36.5364 116.404C36.2436 116.783 35.8781 117.097 35.4447 117.303Z" fill="url(#paint39_linear_771_177)"/>
<path d="M128.733 87.9506C128.733 89.3598 127.695 90.6148 126.533 90.6148H86.1941C85.0318 90.6148 84.0593 89.3598 84.0593 87.9506V63.2892C84.0593 61.88 85.0318 60.832 86.1941 60.832H126.533C127.695 60.832 128.733 61.8806 128.733 63.2892V87.9506Z" fill="url(#paint40_linear_771_177)"/>
<path d="M129.85 63.2903V87.9517C129.85 88.8973 129.433 89.7765 128.804 90.2326C128.495 90.4568 128.143 90.6153 127.761 90.6153H87.4216C86.2588 90.6153 85.1758 89.3603 85.1758 87.9517V63.2903C85.1758 61.88 86.2588 60.832 87.4216 60.832H127.761C128.923 60.832 129.85 61.88 129.85 63.2903Z" fill="url(#paint41_linear_771_177)"/>
<path d="M123.492 85.9928L115.67 74.9787C115.591 74.8677 115.458 74.8014 115.315 74.8014C115.172 74.8014 115.038 74.8682 114.96 74.9787L110.461 81.3103L103.094 70.9361C103.016 70.8251 102.882 70.7588 102.739 70.7588C102.596 70.7588 102.463 70.8256 102.384 70.9361L91.6895 85.9928C91.6033 86.114 91.5957 86.32 91.6701 86.4477C91.7445 86.5755 91.8884 86.706 92.0448 86.706H106.7H114.222H123.136C123.292 86.706 123.436 86.576 123.511 86.4477C123.585 86.32 123.578 86.114 123.492 85.9928Z" fill="white"/>
<path d="M114.37 71.436C116.231 71.436 117.74 69.9271 117.74 68.0657C117.74 66.2043 116.231 64.6953 114.37 64.6953C112.508 64.6953 111 66.2043 111 68.0657C111 69.9271 112.508 71.436 114.37 71.436Z" fill="white"/>
<g opacity="0.2">
<path d="M128.811 90.2316C128.502 90.4559 128.143 90.6143 127.761 90.6143H87.4216C86.2588 90.6143 85.1758 89.3594 85.1758 87.9507V63.2893C85.1758 61.879 86.2588 60.8311 87.4216 60.8311H87.8286C88.5796 62.134 89.5089 63.8936 90.6631 65.4532C101.244 79.7437 117.971 75.6208 127.635 88.5556C128.071 89.1405 128.46 89.6914 128.811 90.2316Z" fill="url(#paint42_linear_771_177)"/>
</g>
<path d="M128.736 85.6432V83.1936C128.736 83.1936 128.384 82.6707 128.199 81.3758C128.014 80.0809 128.35 80.5947 128.515 81.1332C128.561 81.2836 128.656 81.4108 128.77 81.5165C129.055 81.7823 129.524 81.6081 129.579 81.2227L129.811 79.6006C129.811 79.6006 130.751 80.5623 130.07 82.9682C129.858 83.7213 130.07 85.5386 130.07 85.5386L128.736 85.6432Z" fill="url(#paint43_linear_771_177)"/>
<path d="M85.8361 87.5927L85.2189 85.2078C85.2189 85.2078 85.8124 84.2924 85.5272 83.3582C85.2426 82.424 85.4135 82.7566 85.1838 83.3582C84.9542 83.9598 84.5008 82.9409 84.1466 82.0132C83.7924 81.0854 83.6108 82.5118 83.697 83.3582C83.7833 84.2046 83.8151 84.7086 84.3207 85.3259C84.8264 85.9436 84.7251 88.1399 84.7251 88.1399L85.8361 87.5927Z" fill="url(#paint44_linear_771_177)"/>
<path d="M120.858 153.255C120.878 152.729 122.145 152.835 122.974 152.915C123.804 152.995 124.169 153.327 124.299 153.639C124.429 153.95 124.332 154.718 123.565 154.396C122.936 154.132 120.841 153.72 120.858 153.255Z" fill="#26264F"/>
<path d="M122.384 151.218L122.975 153.254C122.975 153.254 123.565 153.66 123.759 153.458L123.54 151.111L122.384 151.218Z" fill="url(#paint45_linear_771_177)"/>
<path d="M118.214 150.014L120.169 150.866L119.84 151.855L117.883 151.346L118.214 150.014Z" fill="url(#paint46_linear_771_177)"/>
<path d="M118.102 153.853C118.102 153.853 119.405 154.19 119.981 153.42C120.352 152.925 120.66 152.084 120.833 151.547C120.927 151.255 120.779 150.942 120.495 150.828C120.081 150.663 119.52 150.486 119.28 150.621C118.879 150.846 119.254 152.345 119.079 152.735C118.904 153.126 118.052 153.377 118.102 153.853Z" fill="#26264F"/>
<path d="M115.065 119.541C115.359 124.264 116.01 129.735 117.305 135.732C118.654 141.983 120.408 147.432 122.168 151.987C122.338 152.068 122.64 152.186 123.035 152.197C123.495 152.211 123.848 152.071 124.024 151.987C124.344 149.552 124.509 147.497 124.6 145.971C124.842 141.941 124.951 139.876 124.403 137.478C123.888 135.228 123.474 135.404 122.936 132.916C122.458 130.704 122.448 129.003 122.447 126.511C122.446 124.801 122.525 122.49 122.855 119.749C120.258 119.68 117.661 119.611 115.065 119.541Z" fill="url(#paint47_linear_771_177)"/>
<path opacity="0.3" d="M122.424 150.323C121.907 148.656 122.927 147.894 122.808 145.779C122.663 143.195 121.071 143.118 120.568 140.212C120.164 137.876 121.148 137.675 120.888 134.836C120.612 131.819 119.424 131.207 119.673 129.397C119.811 128.39 120.398 127.016 122.457 125.521C122.485 123.946 122.585 121.995 122.855 119.749C120.259 119.68 117.662 119.611 115.065 119.541C115.36 124.264 116.01 129.735 117.305 135.732C118.655 141.983 120.409 147.432 122.169 151.987C122.339 152.068 122.641 152.186 123.035 152.197C123.244 152.203 123.427 152.176 123.585 152.138C123.093 151.662 122.655 151.067 122.424 150.323Z" fill="url(#paint48_linear_771_177)"/>
<path d="M108.729 118.709C108.635 119.847 108.45 121.57 108.051 123.64C107.153 128.306 106.122 129.801 105.85 132.852C105.533 136.41 106.504 139.211 106.873 140.276C109.396 147.547 116.322 150.932 118.155 151.76C118.362 151.089 118.569 150.418 118.776 149.747C118.315 149.13 117.632 148.138 116.988 146.822C115.889 144.577 115.815 143.254 115.065 141.043C113.712 137.055 112.683 137.619 112.436 135.588C112.045 132.369 114.642 131.07 116.984 124.917C117.656 123.153 118.048 121.669 118.264 120.757C115.086 120.074 111.908 119.391 108.729 118.709Z" fill="url(#paint49_linear_771_177)"/>
<path d="M128.311 84.664C128.973 84.5572 129.634 84.4505 130.295 84.3438C131.125 85.5114 133.518 89.203 133.047 94.1351C132.936 95.3039 132.453 99.1826 129.175 102.268C126.827 104.477 124.217 105.171 123.021 105.411C123.019 111.155 123.128 114.777 123.325 116.945C123.349 117.206 123.553 119.4 123.256 122.228C123.165 123.09 123.118 123.527 123 123.764C121.363 127.067 111.982 124.449 109.447 123.355C108.789 123.07 108.119 122.674 107.833 121.972C107.465 121.072 107.818 120.255 107.961 119.541C108.312 117.787 107.27 116.463 105.179 113.061C104.295 111.622 103.011 109.462 101.512 106.659C99.7767 107.165 95.6867 108.072 91.6829 106.162C85.7999 103.356 82.4425 95.5826 84.1541 87.1588C84.7514 86.988 85.3487 86.8176 85.946 86.6467C86.3411 88.2812 87.1034 90.4823 88.6646 92.7022C89.6117 94.0489 90.401 95.1707 91.7692 95.7977C93.9179 96.7826 95.8268 95.7826 98.6166 95.0936C103.013 94.0084 106.689 94.4133 111.154 94.9055C116.032 95.4429 117.369 96.4451 120.936 95.7712C122.523 95.4715 124.509 95.0704 126.135 93.4936C129.334 90.3934 128.444 85.3556 128.311 84.664Z" fill="url(#paint50_linear_771_177)"/>
<path d="M110.085 91.083C110.085 91.083 109.792 92.2539 110.205 92.779C110.617 93.3035 111.993 95.3148 112.441 95.4135C112.696 95.4695 113.335 95.566 113.839 95.6393C114.103 95.6776 114.16 96.042 113.914 96.1488C113.414 96.366 112.532 96.5844 111.017 96.5682C108.827 96.5445 107.066 95.711 106.298 95.2798C106.189 95.2183 106.24 95.0528 106.365 95.0625L107.35 95.1364C108.195 95.2 108.888 94.4803 108.794 93.6393L108.733 93.0916L110.085 91.083Z" fill="url(#paint51_linear_771_177)"/>
<path d="M109.181 93.4403C109.046 93.3659 107.945 93.2322 107.793 92.6403C107.587 91.8365 108.31 90.8587 108.399 90.7012C108.776 90.0425 108.87 89.9535 109.046 89.8414L109.289 89.6991C109.289 89.6991 109.303 89.6937 109.317 89.6888C109.473 89.6376 109.998 89.6333 110.103 89.6586C110.441 89.739 110.771 91.1298 110.624 93.0829C110.636 93.1578 110.648 93.2333 110.66 93.3093C110.69 93.5066 109.171 93.5099 109.181 93.4403Z" fill="url(#paint52_linear_771_177)"/>
<path d="M108.146 89.5742C108.098 89.813 108.73 90.2885 109.001 90.4933C109.033 90.5181 109.128 90.6022 109.215 90.7381C109.227 90.758 109.238 90.7807 109.247 90.8103C109.371 91.1952 108.754 91.6308 108.868 91.8044C108.95 91.9305 109.367 91.7737 109.413 91.882C109.457 91.9839 109.109 92.185 109.159 92.3068C109.197 92.399 109.41 92.3203 109.54 92.4632C109.604 92.5338 109.584 92.5888 109.649 92.8028C109.686 92.9235 109.739 93.0567 109.78 93.1306C109.982 93.4907 110.571 93.6341 110.688 93.4944C110.721 93.4556 110.694 93.4217 110.73 93.289C110.73 93.289 110.763 93.1661 110.852 93.0254C110.979 92.8243 111.278 92.6853 111.582 92.4766C112.144 92.0907 112.302 91.7548 112.35 91.6411C112.355 91.6281 112.36 91.6168 112.364 91.606C112.372 91.5866 112.379 91.5672 112.385 91.5483C112.504 91.1607 112.011 90.4874 112.011 90.4874C111.616 89.9559 111.118 89.5996 110.719 89.3726C109.989 89.2292 109.396 89.247 108.984 89.2928C108.65 89.33 108.184 89.385 108.146 89.5742Z" fill="#26264F"/>
<path d="M107.919 91.5843C107.919 91.5843 108.385 92.1439 109.001 91.4717L109.305 91.5612C109.305 91.5612 108.562 93.1967 108.403 93.1967C108.244 93.1967 107.779 93.0911 107.779 93.0911C107.605 93.0183 107.507 92.8318 107.548 92.6474C107.62 92.3116 107.811 91.8215 107.919 91.5843Z" fill="#26264F"/>
<path d="M109.149 91.6671C109.302 91.4666 109.558 91.6639 109.554 91.9281C109.55 92.1922 109.288 92.4607 109.041 92.403C108.793 92.3453 108.943 91.9372 109.149 91.6671Z" fill="url(#paint53_linear_771_177)"/>
<path opacity="0.3" d="M120.504 122.804C117.326 123.925 113.622 122.287 112.697 120.052C112.013 118.401 113.474 116.826 112.44 115.125C111.445 113.487 109.649 114.221 108.409 112.565C107.058 110.76 108.647 109.162 107.449 106.741C106.547 104.921 104.387 103.282 102.265 103.286C99.7424 103.29 98.8006 105.612 96.6329 105.142C95.5008 104.896 95.5273 104.213 93.945 103.094C91.1995 101.153 89.3585 101.966 87.0976 100.598C86.4335 100.196 85.6917 99.5797 85.0022 98.5889C86.3526 102.019 88.6895 104.734 91.6831 106.162C95.6868 108.072 99.7769 107.165 101.512 106.658C103.011 109.462 104.295 111.622 105.179 113.061C107.27 116.463 108.312 117.787 107.961 119.54C107.817 120.255 107.465 121.071 107.833 121.972C108.119 122.673 108.789 123.069 109.447 123.354C111.982 124.449 121.363 127.066 123 123.764C123.118 123.526 123.166 123.09 123.256 122.228C123.313 121.691 123.35 121.178 123.376 120.695C122.721 121.534 121.798 122.348 120.504 122.804Z" fill="url(#paint54_linear_771_177)"/>
<path d="M84.3783 139.478C84.3783 131.831 77.325 125.862 68.9233 126.135C64.139 126.291 59.9762 128.448 57.3772 131.631C57.3767 131.63 57.3767 131.63 57.3762 131.629C57.36 131.649 57.3449 131.669 57.3287 131.689C57.284 131.745 57.2403 131.802 57.1961 131.858C57.1158 131.961 57.0365 132.064 56.9595 132.169C56.9142 132.231 56.8689 132.293 56.8247 132.356C56.7503 132.461 56.678 132.566 56.6074 132.672C56.567 132.733 56.526 132.794 56.4861 132.856C56.4069 132.979 56.3309 133.103 56.256 133.229C56.229 133.274 56.2004 133.319 56.174 133.365C56.0754 133.534 55.9805 133.707 55.8899 133.881C55.8657 133.927 55.8441 133.974 55.8204 134.02C55.7546 134.151 55.6899 134.282 55.6285 134.415C55.5983 134.48 55.5697 134.546 55.5411 134.611C55.4894 134.729 55.4387 134.847 55.3907 134.966C55.3627 135.035 55.3352 135.104 55.3082 135.174C55.2613 135.296 55.2166 135.419 55.174 135.543C55.1514 135.608 55.1282 135.672 55.1066 135.737C55.0554 135.893 55.0074 136.05 54.9627 136.208C54.9535 136.241 54.9422 136.273 54.9336 136.306C54.8807 136.497 54.8333 136.69 54.7902 136.883C54.7772 136.94 54.767 136.998 54.7551 137.055C54.726 137.194 54.6985 137.333 54.6743 137.474C54.6619 137.546 54.6511 137.617 54.6403 137.689C54.6204 137.819 54.6026 137.95 54.5869 138.081C54.5783 138.154 54.5697 138.228 54.5621 138.302C54.5481 138.44 54.5374 138.579 54.5282 138.718C54.5239 138.783 54.5185 138.848 54.5152 138.913C54.505 139.117 54.4985 139.321 54.4985 139.527C54.4985 144.435 57.4705 148.763 61.926 151.081C62.3357 151.293 62.7584 151.49 63.1923 151.668C63.4096 151.758 63.6301 151.842 63.8533 151.923C65.4214 152.486 67.1287 152.82 68.9239 152.872C69.1713 152.879 69.4171 152.881 69.6624 152.877C69.7449 152.876 69.8268 152.871 69.9093 152.869C70.071 152.864 70.2333 152.86 70.394 152.85C70.4921 152.844 70.5896 152.836 70.6872 152.828C70.8306 152.817 70.9745 152.807 71.1169 152.792C71.2214 152.781 71.325 152.768 71.4285 152.755C71.5632 152.739 71.698 152.723 71.8317 152.703C71.9384 152.688 72.0446 152.67 72.1503 152.653C72.2797 152.631 72.4085 152.609 72.5368 152.584C72.6441 152.564 72.7508 152.542 72.8576 152.519C72.9832 152.493 73.1082 152.465 73.2322 152.435C73.339 152.41 73.4452 152.384 73.5508 152.357C73.6737 152.325 73.7956 152.292 73.9174 152.257C74.022 152.228 74.1266 152.198 74.2306 152.166C74.2689 152.154 74.3082 152.145 74.3465 152.133C74.3454 152.132 74.3449 152.131 74.3438 152.13C80.1573 150.309 84.3783 145.374 84.3783 139.478Z" fill="url(#paint55_linear_771_177)"/>
<path d="M83.2243 139.48C83.2243 147.107 76.2065 153.085 67.8474 152.841C59.7995 152.606 53.4922 146.649 53.4922 139.529C53.4922 132.408 59.7995 126.431 67.8474 126.169C76.2065 125.898 83.2243 131.853 83.2243 139.48Z" fill="url(#paint56_linear_771_177)"/>
<path d="M64.0756 143.175L58.1079 140.138V139.16L64.0756 135.704V137.369L59.9467 139.574L64.0756 141.517V143.175Z" fill="white"/>
<path d="M70.4239 134.355L67.0298 144.613L65.3247 144.595L68.6918 134.379L70.4239 134.355Z" fill="white"/>
<path d="M71.6858 141.539L76.047 139.549L71.6858 137.317V135.623L78.0464 139.109V140.133L71.6858 143.226V141.539Z" fill="white"/>
<g opacity="0.3">
<path d="M71.4825 149.521C69.6685 145.528 71.5024 141.838 69.0534 139.276C66.593 136.703 63.4377 139.108 60.0933 137.05C58.814 136.262 57.4011 134.756 56.3569 131.648C54.5553 133.86 53.4922 136.587 53.4922 139.528C53.4922 146.648 59.7995 152.605 67.8474 152.84C69.7342 152.895 71.5547 152.632 73.2442 152.102C72.4092 151.232 71.8582 150.348 71.4825 149.521Z" fill="url(#paint57_linear_771_177)"/>
</g>
</g>
<defs>
<linearGradient id="paint0_linear_771_177" x1="38.4924" y1="54.7438" x2="137.681" y2="-28.4142" gradientUnits="userSpaceOnUse">
<stop offset="0.00359712" stop-color="#5C4794"/>
<stop offset="1" stop-color="#9571F6"/>
</linearGradient>
<linearGradient id="paint1_linear_771_177" x1="30.6596" y1="52.828" x2="82.845" y2="52.828" gradientUnits="userSpaceOnUse">
<stop stop-color="#EB4899"/>
<stop offset="1" stop-color="#FB6FBB"/>
</linearGradient>
<linearGradient id="paint2_linear_771_177" x1="72.8243" y1="46.7557" x2="95.4642" y2="63.1185" gradientUnits="userSpaceOnUse">
<stop offset="0.00359712" stop-color="white"/>
<stop offset="1" stop-color="#F4F7FA"/>
</linearGradient>
<linearGradient id="paint3_linear_771_177" x1="71.3269" y1="11.1441" x2="95.1676" y2="71.7574" gradientUnits="userSpaceOnUse">
<stop stop-color="#0C65E2"/>
<stop offset="0.9964" stop-color="#287ED8"/>
</linearGradient>
<linearGradient id="paint4_linear_771_177" x1="66.5785" y1="7.31163" x2="90.4192" y2="67.925" gradientUnits="userSpaceOnUse">
<stop stop-color="#0C65E2"/>
<stop offset="0.9964" stop-color="#287ED8"/>
</linearGradient>
<linearGradient id="paint5_linear_771_177" x1="63.7271" y1="8.30212" x2="87.5678" y2="68.9154" gradientUnits="userSpaceOnUse">
<stop stop-color="#0C65E2"/>
<stop offset="0.9964" stop-color="#287ED8"/>
</linearGradient>
<linearGradient id="paint6_linear_771_177" x1="62.5319" y1="13.5033" x2="86.3727" y2="74.1167" gradientUnits="userSpaceOnUse">
<stop stop-color="#0C65E2"/>
<stop offset="0.9964" stop-color="#287ED8"/>
</linearGradient>
<linearGradient id="paint7_linear_771_177" x1="89.6863" y1="11.8954" x2="89.008" y2="58.7752" gradientUnits="userSpaceOnUse">
<stop stop-color="#0C65E2"/>
<stop offset="0.9964" stop-color="#287ED8"/>
</linearGradient>
<linearGradient id="paint8_linear_771_177" x1="101.243" y1="18.9368" x2="95.2298" y2="64.6888" gradientUnits="userSpaceOnUse">
<stop offset="0.00359712" stop-color="white"/>
<stop offset="1" stop-color="#F4F7FA"/>
</linearGradient>
<linearGradient id="paint9_linear_771_177" x1="106.967" y1="16.1043" x2="99.2829" y2="70.2639" gradientUnits="userSpaceOnUse">
<stop offset="0.00359712" stop-color="#22DCD9"/>
<stop offset="1" stop-color="#4C429A"/>
</linearGradient>
<linearGradient id="paint10_linear_771_177" x1="104.165" y1="15.7068" x2="96.4807" y2="69.8665" gradientUnits="userSpaceOnUse">
<stop offset="0.00359712" stop-color="#22DCD9"/>
<stop offset="1" stop-color="#4C429A"/>
</linearGradient>
<linearGradient id="paint11_linear_771_177" x1="101.362" y1="15.309" x2="93.6783" y2="69.4687" gradientUnits="userSpaceOnUse">
<stop offset="0.00359712" stop-color="#22DCD9"/>
<stop offset="1" stop-color="#4C429A"/>
</linearGradient>
<linearGradient id="paint12_linear_771_177" x1="99.968" y1="4.98786" x2="92.2839" y2="59.1475" gradientUnits="userSpaceOnUse">
<stop offset="0.00359712" stop-color="#22DCD9"/>
<stop offset="1" stop-color="#4C429A"/>
</linearGradient>
<linearGradient id="paint13_linear_771_177" x1="106.632" y1="19.6445" x2="100.619" y2="65.3966" gradientUnits="userSpaceOnUse">
<stop offset="0.00359712" stop-color="#22DCD9"/>
<stop offset="1" stop-color="#4C429A"/>
</linearGradient>
<linearGradient id="paint14_linear_771_177" x1="104.167" y1="55.3234" x2="120.005" y2="76.6717" gradientUnits="userSpaceOnUse">
<stop offset="0.00359712" stop-color="white"/>
<stop offset="1" stop-color="#F4F7FA"/>
</linearGradient>
<linearGradient id="paint15_linear_771_177" x1="132.971" y1="41.9497" x2="100.111" y2="85.6886" gradientUnits="userSpaceOnUse">
<stop stop-color="#F73E94"/>
<stop offset="1" stop-color="#FB6FBB"/>
</linearGradient>
<linearGradient id="paint16_linear_771_177" x1="132.721" y1="37.5686" x2="99.8611" y2="81.3074" gradientUnits="userSpaceOnUse">
<stop stop-color="#F73E94"/>
<stop offset="1" stop-color="#FB6FBB"/>
</linearGradient>
<linearGradient id="paint17_linear_771_177" x1="131.634" y1="34.3007" x2="98.7747" y2="78.0395" gradientUnits="userSpaceOnUse">
<stop stop-color="#F73E94"/>
<stop offset="1" stop-color="#FB6FBB"/>
</linearGradient>
<linearGradient id="paint18_linear_771_177" x1="131.366" y1="29.9438" x2="98.5064" y2="73.6827" gradientUnits="userSpaceOnUse">
<stop stop-color="#F73E94"/>
<stop offset="1" stop-color="#FB6FBB"/>
</linearGradient>
<linearGradient id="paint19_linear_771_177" x1="124.043" y1="26.1954" x2="116.747" y2="64.0808" gradientUnits="userSpaceOnUse">
<stop stop-color="#F73E94"/>
<stop offset="1" stop-color="#FB6FBB"/>
</linearGradient>
<linearGradient id="paint20_linear_771_177" x1="82.925" y1="86.8009" x2="88.9778" y2="85.7098" gradientUnits="userSpaceOnUse">
<stop offset="0.00359712" stop-color="#E38DDD"/>
<stop offset="1" stop-color="#9571F6"/>
</linearGradient>
<linearGradient id="paint21_linear_771_177" x1="80.6566" y1="173.768" x2="83.7224" y2="144.131" gradientUnits="userSpaceOnUse">
<stop stop-color="#444B8C"/>
<stop offset="0.9964" stop-color="#26264F"/>
</linearGradient>
<linearGradient id="paint22_linear_771_177" x1="59.3801" y1="91.0764" x2="27.0181" y2="94.8235" gradientUnits="userSpaceOnUse">
<stop stop-color="#444B8C"/>
<stop offset="0.3946" stop-color="#383C74"/>
<stop offset="0.9964" stop-color="#26264F"/>
</linearGradient>
<linearGradient id="paint23_linear_771_177" x1="114.457" y1="31.6469" x2="27.5913" y2="163.819" gradientUnits="userSpaceOnUse">
<stop stop-color="#444B8C"/>
<stop offset="0.9964" stop-color="#26264F"/>
</linearGradient>
<linearGradient id="paint24_linear_771_177" x1="2.54726" y1="107.026" x2="64.9462" y2="87.6401" gradientUnits="userSpaceOnUse">
<stop stop-color="#AB316D"/>
<stop offset="1" stop-color="#792D3D"/>
</linearGradient>
<linearGradient id="paint25_linear_771_177" x1="4.25039" y1="106.497" x2="66.6493" y2="87.1106" gradientUnits="userSpaceOnUse">
<stop stop-color="#F73E94"/>
<stop offset="1" stop-color="#FB6FBB"/>
</linearGradient>
<linearGradient id="paint26_linear_771_177" x1="4.25039" y1="106.497" x2="66.649" y2="87.1105" gradientUnits="userSpaceOnUse">
<stop stop-color="#F73E94"/>
<stop offset="1" stop-color="#FB6FBB"/>
</linearGradient>
<linearGradient id="paint27_linear_771_177" x1="22.8492" y1="149.283" x2="22.1519" y2="153.835" gradientUnits="userSpaceOnUse">
<stop stop-color="#311944"/>
<stop offset="1" stop-color="#A03976"/>
</linearGradient>
<linearGradient id="paint28_linear_771_177" x1="20.8011" y1="132.988" x2="31.8386" y2="132.988" gradientUnits="userSpaceOnUse">
<stop stop-color="#AB316D"/>
<stop offset="1" stop-color="#792D3D"/>
</linearGradient>
<linearGradient id="paint29_linear_771_177" x1="38.8846" y1="149.316" x2="37.4531" y2="154.454" gradientUnits="userSpaceOnUse">
<stop stop-color="#311944"/>
<stop offset="1" stop-color="#A03976"/>
</linearGradient>
<linearGradient id="paint30_linear_771_177" x1="20.8011" y1="132.988" x2="31.8386" y2="132.988" gradientUnits="userSpaceOnUse">
<stop stop-color="#AB316D"/>
<stop offset="1" stop-color="#792D3D"/>
</linearGradient>
<linearGradient id="paint31_linear_771_177" x1="24.3366" y1="132.938" x2="42.915" y2="132.938" gradientUnits="userSpaceOnUse">
<stop stop-color="#AB316D"/>
<stop offset="1" stop-color="#792D3D"/>
</linearGradient>
<linearGradient id="paint32_linear_771_177" x1="26.3928" y1="87.8156" x2="15.5285" y2="114.756" gradientUnits="userSpaceOnUse">
<stop stop-color="#311944"/>
<stop offset="1" stop-color="#A03976"/>
</linearGradient>
<linearGradient id="paint33_linear_771_177" x1="56.3303" y1="110.392" x2="56.7497" y2="94.373" gradientUnits="userSpaceOnUse">
<stop stop-color="#311944"/>
<stop offset="1" stop-color="#A03976"/>
</linearGradient>
<linearGradient id="paint34_linear_771_177" x1="35.3922" y1="91.6387" x2="21.1512" y2="124.966" gradientUnits="userSpaceOnUse">
<stop stop-color="#22DCD9"/>
<stop offset="0.9964" stop-color="#287ED8"/>
</linearGradient>
<linearGradient id="paint35_linear_771_177" x1="35.3922" y1="91.6387" x2="21.1512" y2="124.966" gradientUnits="userSpaceOnUse">
<stop stop-color="#22DCD9"/>
<stop offset="0.9964" stop-color="#287ED8"/>
</linearGradient>
<linearGradient id="paint36_linear_771_177" x1="17.0238" y1="91.4793" x2="25.3788" y2="91.4793" gradientUnits="userSpaceOnUse">
<stop stop-color="#311944"/>
<stop offset="1" stop-color="#A03976"/>
</linearGradient>
<linearGradient id="paint37_linear_771_177" x1="18.0734" y1="94.0943" x2="22.671" y2="87.5811" gradientUnits="userSpaceOnUse">
<stop stop-color="#311944"/>
<stop offset="1" stop-color="#A03976"/>
</linearGradient>
<linearGradient id="paint38_linear_771_177" x1="18.3938" y1="94.3208" x2="22.9913" y2="87.8077" gradientUnits="userSpaceOnUse">
<stop stop-color="#311944"/>
<stop offset="1" stop-color="#A03976"/>
</linearGradient>
<linearGradient id="paint39_linear_771_177" x1="29.9551" y1="89.3159" x2="15.7141" y2="122.643" gradientUnits="userSpaceOnUse">
<stop stop-color="#AA80F9"/>
<stop offset="0.9964" stop-color="#6165D7"/>
</linearGradient>
<linearGradient id="paint40_linear_771_177" x1="113.253" y1="70.126" x2="87.0986" y2="91.2781" gradientUnits="userSpaceOnUse">
<stop stop-color="#22DCD9"/>
<stop offset="0.9964" stop-color="#0C65E2"/>
</linearGradient>
<linearGradient id="paint41_linear_771_177" x1="103.894" y1="78.497" x2="160.418" y2="35.2261" gradientUnits="userSpaceOnUse">
<stop stop-color="#22DCD9"/>
<stop offset="0.9964" stop-color="#0C65E2"/>
</linearGradient>
<linearGradient id="paint42_linear_771_177" x1="85.1757" y1="75.7232" x2="128.811" y2="75.7232" gradientUnits="userSpaceOnUse">
<stop stop-color="#22DCD9"/>
<stop offset="0.9964" stop-color="#0C65E2"/>
</linearGradient>
<linearGradient id="paint43_linear_771_177" x1="129.684" y1="84.4686" x2="131.476" y2="97.2037" gradientUnits="userSpaceOnUse">
<stop stop-color="#FFC444"/>
<stop offset="0.9964" stop-color="#F36F56"/>
</linearGradient>
<linearGradient id="paint44_linear_771_177" x1="85.6422" y1="90.6651" x2="87.434" y2="103.4" gradientUnits="userSpaceOnUse">
<stop stop-color="#FFC444"/>
<stop offset="0.9964" stop-color="#F36F56"/>
</linearGradient>
<linearGradient id="paint45_linear_771_177" x1="121.679" y1="147.485" x2="124.386" y2="155.544" gradientUnits="userSpaceOnUse">
<stop stop-color="#FFC444"/>
<stop offset="0.9964" stop-color="#F36F56"/>
</linearGradient>
<linearGradient id="paint46_linear_771_177" x1="118.211" y1="148.68" x2="120.898" y2="156.679" gradientUnits="userSpaceOnUse">
<stop stop-color="#FFC444"/>
<stop offset="0.9964" stop-color="#F36F56"/>
</linearGradient>
<linearGradient id="paint47_linear_771_177" x1="129.151" y1="143.354" x2="116.437" y2="129.019" gradientUnits="userSpaceOnUse">
<stop stop-color="#444B8C"/>
<stop offset="0.9964" stop-color="#3E4177"/>
</linearGradient>
<linearGradient id="paint48_linear_771_177" x1="129.151" y1="143.354" x2="116.437" y2="129.019" gradientUnits="userSpaceOnUse">
<stop stop-color="#444B8C"/>
<stop offset="0.9964" stop-color="#3E4177"/>
</linearGradient>
<linearGradient id="paint49_linear_771_177" x1="113.163" y1="135.183" x2="94.3914" y2="131.684" gradientUnits="userSpaceOnUse">
<stop stop-color="#444B8C"/>
<stop offset="0.9964" stop-color="#3E4177"/>
</linearGradient>
<linearGradient id="paint50_linear_771_177" x1="104.176" y1="77.0997" x2="115.865" y2="120.019" gradientUnits="userSpaceOnUse">
<stop stop-color="#F73E94"/>
<stop offset="1" stop-color="#FB6FBB"/>
</linearGradient>
<linearGradient id="paint51_linear_771_177" x1="109.519" y1="93.6572" x2="111.631" y2="99.8861" gradientUnits="userSpaceOnUse">
<stop stop-color="#FFC444"/>
<stop offset="0.9964" stop-color="#F36F56"/>
</linearGradient>
<linearGradient id="paint52_linear_771_177" x1="136.127" y1="171.091" x2="138.239" y2="177.319" gradientUnits="userSpaceOnUse">
<stop stop-color="#FFC444"/>
<stop offset="0.9964" stop-color="#F36F56"/>
</linearGradient>
<linearGradient id="paint53_linear_771_177" x1="181.669" y1="208.8" x2="187.109" y2="217.567" gradientUnits="userSpaceOnUse">
<stop stop-color="#FFC444"/>
<stop offset="0.9964" stop-color="#F36F56"/>
</linearGradient>
<linearGradient id="paint54_linear_771_177" x1="95.9369" y1="79.3429" x2="107.627" y2="122.262" gradientUnits="userSpaceOnUse">
<stop stop-color="#FF9085"/>
<stop offset="1" stop-color="#FB6FBB"/>
</linearGradient>
<linearGradient id="paint55_linear_771_177" x1="49.6081" y1="99.6952" x2="71.6593" y2="143.947" gradientUnits="userSpaceOnUse">
<stop stop-color="#311944"/>
<stop offset="1" stop-color="#893976"/>
</linearGradient>
<linearGradient id="paint56_linear_771_177" x1="62.5758" y1="128.76" x2="83.9943" y2="168.485" gradientUnits="userSpaceOnUse">
<stop stop-color="#F73E94"/>
<stop offset="1" stop-color="#FB6FBB"/>
</linearGradient>
<linearGradient id="paint57_linear_771_177" x1="56.6939" y1="131.4" x2="77.5013" y2="173.156" gradientUnits="userSpaceOnUse">
<stop stop-color="#F73E94"/>
<stop offset="1" stop-color="#FB6FBB"/>
</linearGradient>
<clipPath id="clip0_771_177">
<rect width="150" height="159" fill="white"/>
</clipPath>
</defs>
</svg>
