<svg width="118" height="146" viewBox="0 0 118 146" fill="none" xmlns="http://www.w3.org/2000/svg">
<g clip-path="url(#clip0_778_58)">
<path d="M0.923039 1.05753C0.105732 1.87483 0.105732 144.279 0.923039 145.096C1.74035 145.913 116.26 145.913 117.077 145.096C117.51 144.663 117.654 131.25 117.654 87.7402V31.0095L102.365 15.721L87.125 0.480606H44.2884C11.6442 0.480606 1.35573 0.624832 0.923039 1.05753ZM84 18.4614C84 30.6729 84.0961 32.7402 84.7692 33.3652C85.3942 34.0383 87.4615 34.1345 99.673 34.1345H113.808L113.711 87.8364L113.567 141.586H59H4.43265L4.28842 73.5575C4.24035 36.1537 4.28842 5.24022 4.43265 4.90369C4.57689 4.47099 13.0384 4.32677 44.3365 4.32677H84V18.4614ZM99.625 18.7498L110.683 29.8075H99.4807H88.3269V18.7498C88.3269 12.6441 88.375 7.69214 88.4711 7.69214C88.5192 7.69214 93.5673 12.6441 99.625 18.7498Z" fill="url(#paint0_linear_778_58)"/>
<path d="M16.7885 86.8271C15.5385 87.6925 15.4423 88.6059 16.5 89.6155C17.1731 90.2886 21.6923 90.3848 59 90.3848C96.3077 90.3848 100.827 90.2886 101.5 89.6155C102.558 88.6059 102.462 87.6925 101.212 86.8271C100.25 86.154 95.4423 86.0578 59 86.0578C22.5577 86.0578 17.75 86.154 16.7885 86.8271Z" fill="#22DCD9"/>
<path d="M16.7598 66.9316C15.5098 67.797 15.4136 68.7104 16.4713 69.72C17.1444 70.3931 21.6636 70.4893 58.9713 70.4893C96.279 70.4893 100.798 70.3931 101.471 69.72C102.529 68.7104 102.433 67.797 101.183 66.9316C100.221 66.2585 95.4136 66.1623 58.9713 66.1623C22.529 66.1623 17.7213 66.2585 16.7598 66.9316Z" fill="#22DCD9"/>
<path d="M16.2116 106.25C15.8269 106.923 15.8269 107.5 16.2116 108.173C16.7404 109.135 17.2212 109.135 59 109.135C100.779 109.135 101.26 109.135 101.788 108.173C102.173 107.5 102.173 106.923 101.788 106.25C101.26 105.289 100.779 105.289 59 105.289C17.2212 105.289 16.7404 105.289 16.2116 106.25Z" fill="#22DCD9"/>
<path d="M16.1153 125.288C15.5865 126.394 15.6346 126.683 16.6442 127.452C17.7019 128.317 19.3365 128.365 59 128.365C98.6634 128.365 100.298 128.317 101.356 127.452C102.365 126.683 102.413 126.394 101.885 125.288L101.308 124.038H59H16.6923L16.1153 125.288Z" fill="#22DCD9"/>
<path d="M29.4175 16.4823C30.056 17.6658 30.3596 19.2074 30.2272 20.5855C30.0092 22.8434 29.0594 24.6419 27.1596 26.3938C26.5523 26.9544 26.3577 27.1879 26.1786 27.5772C25.9061 28.1845 25.3533 29.041 24.8005 29.7183C24.3178 30.3256 24.3178 30.3256 25.5479 29.7106C28.7635 28.0911 31.0448 25.584 31.9012 22.7188C32.1581 21.878 32.2438 20.3986 32.0959 19.511C32.0024 18.9738 31.9713 18.9037 31.4886 18.3432C30.8268 17.5724 30.1416 16.8638 29.5966 16.3811L29.1528 15.9996L29.4175 16.4823Z" fill="url(#paint1_linear_778_58)"/>
<path d="M38.6437 22.5555C36.3469 26.4017 35.1089 30.318 34.9999 34.0241C34.9377 36.1574 35.2102 37.8547 35.8564 39.4742C36.0043 39.8401 36.0978 40.136 36.0744 40.136C35.9654 40.136 34.9143 39.2873 34.307 38.7112C33.9488 38.3764 33.653 38.1428 33.653 38.2051C33.653 38.2596 33.5985 38.7423 33.5362 39.2795L33.4116 40.245L33.6296 40.4241C34.9922 41.5452 37.0321 42.573 38.8306 43.0401C39.687 43.2581 40.5824 43.4372 40.6291 43.3827C40.6447 43.3671 40.4734 43.2348 40.2476 43.0868C39.6559 42.7053 38.5503 41.6153 38.1065 40.9613C37.1488 39.5832 36.5026 37.8469 36.2145 35.8538C36.09 34.9973 36.09 32.7628 36.2145 31.7662C36.4481 29.9287 36.9542 27.9589 37.7094 26.0046C37.8729 25.5764 38.1299 24.7744 38.2856 24.2294C38.4335 23.6844 38.6905 22.9058 38.8617 22.501C39.0252 22.0961 39.1498 21.7613 39.142 21.7613C39.1265 21.7613 38.9007 22.1194 38.6437 22.5555Z" fill="url(#paint2_linear_778_58)"/>
<path d="M33.8866 22.3459C33.8788 23.7551 33.1236 25.7483 32.0803 27.1186C29.69 30.2486 25.8127 32.2729 20.4093 33.1994C19.6618 33.3318 18.9066 33.4875 18.7275 33.5498C18.4161 33.6588 17.0535 33.9469 16.5241 34.0169C16.3762 34.0325 17.1625 34.0403 18.2759 34.0247C19.7864 34.0014 20.5728 33.9546 21.3669 33.8379C26.4745 33.0826 30.5932 31.0505 32.8745 28.1542C33.147 27.8038 33.3806 27.5391 33.4039 27.5546C33.4662 27.6247 33.2404 29.1585 33.0613 29.8515C32.9523 30.2486 32.8823 30.5911 32.89 30.5989C32.929 30.6301 34.782 29.8281 34.8287 29.758C34.8988 29.649 35.0545 28.0218 35.0545 27.3444C35.0545 25.9975 34.7898 24.3936 34.3226 22.9688C33.9567 21.8476 33.8866 21.7542 33.8866 22.3459Z" fill="url(#paint3_linear_778_58)"/>
<path d="M38.2155 31.1905C38.1844 31.2917 38.1454 31.899 38.1143 32.5452C38.0209 34.9199 38.4413 37.0377 39.3834 38.9141C40.3722 40.8995 42.054 42.4722 43.7902 43.0328L44.3041 43.1963L45.3474 42.9939C45.9158 42.8849 46.7722 42.6746 47.2394 42.5345L48.0958 42.2776L47.2627 42.1841C45.4875 41.9895 44.1172 41.3588 42.8481 40.1676C41.4467 38.844 40.6136 37.3024 40.1542 35.1379C39.9985 34.406 39.9284 34.2347 39.5469 33.6586C39.0252 32.8644 38.8384 32.4985 38.5192 31.6576C38.3089 31.1126 38.2622 31.0347 38.2155 31.1905Z" fill="url(#paint4_linear_778_58)"/>
<path d="M24.3099 34.0944C22.8929 34.7251 21.7639 35.4491 20.6038 36.4691C19.9498 37.0375 18.743 38.3299 18.8053 38.4C18.8209 38.4156 19.07 38.3221 19.3503 38.1898C20.6895 37.5825 22.3012 37.3333 23.8272 37.4891C27.8914 37.9095 31.8233 40.362 35.288 44.6521C35.615 45.0569 36.1834 45.6954 36.5571 46.0691C36.9231 46.4428 37.4447 47.0345 37.7094 47.3771C37.9742 47.7197 38.2077 48 38.2233 48C38.2622 48 38.0287 47.5873 37.2579 46.2871C34.9377 42.3552 31.6287 39.1085 28.2807 37.4968C26.8715 36.8195 25.143 36.29 24.1386 36.2277C23.9751 36.22 23.8428 36.1888 23.8428 36.1577C23.8428 36.0487 25.6413 35.3713 26.4355 35.1844C26.8403 35.091 26.8481 35.0988 25.2832 33.9387L25.0496 33.7674L24.3099 34.0944Z" fill="url(#paint5_linear_778_58)"/>
<path d="M21.4214 39.6764C20.1601 39.8555 19.1324 40.2292 18.2136 40.8287C17.1547 41.5217 17.1158 41.5762 16.7187 42.7908C16.5241 43.3825 16.2983 44.1767 16.2049 44.5504C16.1192 44.9319 16.0258 45.3056 16.0024 45.3913C15.9791 45.4769 16.127 45.2901 16.3372 44.9864C17.3805 43.437 18.8988 42.3781 20.7907 41.8721C21.4603 41.6852 21.6861 41.6618 22.8696 41.6618C24.2944 41.6618 24.9718 41.7708 26.2564 42.2146C26.8015 42.4015 26.9338 42.4093 28.0939 42.4015C29.1917 42.3859 29.8224 42.4326 30.5387 42.5961C30.9747 42.6974 29.2696 41.5684 28.0783 40.9689C25.8749 39.8633 23.399 39.3806 21.4214 39.6764Z" fill="url(#paint6_linear_778_58)"/>
</g>
<defs>
<linearGradient id="paint0_linear_778_58" x1="118.07" y1="146.162" x2="-0.0698893" y2="0.115785" gradientUnits="userSpaceOnUse">
<stop stop-color="#F73E94"/>
<stop offset="1" stop-color="#22DCD9"/>
</linearGradient>
<linearGradient id="paint1_linear_778_58" x1="32.4891" y1="29.2159" x2="20.7602" y2="23.4549" gradientUnits="userSpaceOnUse">
<stop stop-color="#22DCD9"/>
<stop offset="1" stop-color="#F73E94"/>
</linearGradient>
<linearGradient id="paint2_linear_778_58" x1="40.9322" y1="41.9321" x2="28.3792" y2="38.1289" gradientUnits="userSpaceOnUse">
<stop stop-color="#22DCD9"/>
<stop offset="1" stop-color="#F73E94"/>
</linearGradient>
<linearGradient id="paint3_linear_778_58" x1="35.8307" y1="33.2198" x2="23.9093" y2="16.5553" gradientUnits="userSpaceOnUse">
<stop stop-color="#22DCD9"/>
<stop offset="1" stop-color="#F73E94"/>
</linearGradient>
<linearGradient id="paint4_linear_778_58" x1="48.514" y1="42.3809" x2="36.3854" y2="33.2683" gradientUnits="userSpaceOnUse">
<stop stop-color="#22DCD9"/>
<stop offset="1" stop-color="#F73E94"/>
</linearGradient>
<linearGradient id="paint5_linear_778_58" x1="39.0402" y1="47.039" x2="24.4937" y2="29.015" gradientUnits="userSpaceOnUse">
<stop stop-color="#22DCD9"/>
<stop offset="1" stop-color="#F73E94"/>
</linearGradient>
<linearGradient id="paint6_linear_778_58" x1="31.2197" y1="45.0191" x2="26.7397" y2="34.812" gradientUnits="userSpaceOnUse">
<stop stop-color="#22DCD9"/>
<stop offset="1" stop-color="#F73E94"/>
</linearGradient>
<clipPath id="clip0_778_58">
<rect width="118" height="146" fill="white"/>
</clipPath>
</defs>
</svg>
