<svg width="158" height="157" viewBox="0 0 158 157" fill="none" xmlns="http://www.w3.org/2000/svg">
<path d="M65.8297 2.36802C68.9621 8.17435 70.4518 15.7379 69.8024 22.4992C68.7329 33.577 64.0725 42.4011 54.7518 50.996C51.7723 53.7464 50.8173 54.8923 49.9387 56.8023C48.6017 59.7819 45.8896 63.9838 43.1774 67.3072C40.809 70.2868 40.809 70.2868 46.8445 67.269C62.6209 59.3235 73.8134 47.0232 78.0153 32.9658C79.2759 28.8403 79.6961 21.5824 78.9703 17.2276C78.5119 14.5919 78.3591 14.2481 75.9908 11.4977C72.7438 7.71595 69.3822 4.2398 66.7083 1.87143L64.5309 -0.000347731L65.8297 2.36802Z" fill="url(#paint0_linear_1030_212)"/>
<path d="M111.096 32.1644C99.8272 51.0349 93.7535 70.2493 93.2187 88.4322C92.9131 98.8989 94.2501 107.226 97.4207 115.172C98.1465 116.967 98.6049 118.419 98.4903 118.419C97.9555 118.419 92.7985 114.255 89.819 111.428C88.0618 109.786 86.6102 108.64 86.6102 108.945C86.6102 109.213 86.3428 111.581 86.0372 114.217L85.426 118.954L86.4956 119.832C93.1805 125.333 103.189 130.375 112.013 132.667C116.215 133.737 120.608 134.615 120.837 134.348C120.913 134.272 120.073 133.622 118.965 132.896C116.062 131.025 110.638 125.677 108.46 122.468C103.762 115.707 100.591 107.188 99.1778 97.4091C98.5667 93.2072 98.5667 82.2439 99.1778 77.3544C100.324 68.3393 102.807 58.6748 106.512 49.0867C107.314 46.9858 108.575 43.0512 109.339 40.3773C110.065 37.7033 111.325 33.8833 112.166 31.897C112.968 29.9106 113.579 28.268 113.541 28.268C113.464 28.268 112.357 30.0252 111.096 32.1644Z" fill="url(#paint1_linear_1030_212)"/>
<path d="M87.7562 31.1327C87.718 38.0468 84.0126 47.8259 78.8939 54.549C67.1666 69.9052 48.1433 79.8371 21.6328 84.3828C17.9656 85.0322 14.2603 85.7962 13.3817 86.1018C11.8537 86.6366 5.16881 88.05 2.57125 88.3938C1.84546 88.4702 5.70361 88.5084 11.1661 88.432C18.5768 88.3174 22.435 88.0882 26.3313 87.5152C51.3902 83.8098 71.5978 73.8398 82.7902 59.6296C84.1272 57.9106 85.2732 56.6118 85.3878 56.6882C85.6934 57.032 84.5856 64.5573 83.707 67.9571C83.1722 69.9052 82.8284 71.586 82.8666 71.6242C83.0576 71.777 92.1491 67.8425 92.3783 67.4987C92.7221 66.9639 93.4861 58.9802 93.4861 55.6568C93.4861 49.0483 92.1873 41.1792 89.8953 34.1887C88.1 28.688 87.7562 28.2296 87.7562 31.1327Z" fill="url(#paint2_linear_1030_212)"/>
<path d="M108.995 74.527C108.842 75.0236 108.651 78.0032 108.499 81.1737C108.04 92.8246 110.103 103.215 114.725 112.421C119.576 122.162 127.827 129.878 136.346 132.628L138.867 133.431L143.986 132.437C146.774 131.903 150.976 130.871 153.268 130.184L157.47 128.923L153.383 128.465C144.673 127.51 137.95 124.416 131.724 118.571C124.848 112.077 120.761 104.514 118.507 93.8942C117.743 90.3034 117.399 89.463 115.527 86.6363C112.968 82.7399 112.051 80.9445 110.485 76.819C109.454 74.145 109.224 73.763 108.995 74.527Z" fill="url(#paint3_linear_1030_212)"/>
<path d="M40.7708 88.7757C33.8184 91.8698 28.2795 95.4224 22.5878 100.427C19.379 103.215 13.4581 109.556 13.7637 109.9C13.8401 109.976 15.0625 109.518 16.4377 108.869C23.008 105.889 30.9153 104.667 38.4024 105.431C58.3425 107.493 77.6333 119.526 94.6321 140.574C96.2364 142.561 99.025 145.693 100.859 147.527C102.654 149.36 105.213 152.263 106.512 153.944C107.811 155.625 108.957 157 109.033 157C109.224 157 108.078 154.975 104.297 148.596C92.9131 129.305 76.6783 113.376 60.2525 105.469C53.3384 102.146 44.8581 99.5479 39.9304 99.2423C39.1282 99.2041 38.4788 99.0513 38.4788 98.8985C38.4788 98.3638 47.3029 95.0404 51.1992 94.1236C53.1856 93.6652 53.2238 93.7034 45.5457 88.0117L44.3997 87.1713L40.7708 88.7757Z" fill="url(#paint4_linear_1030_212)"/>
<path d="M26.5988 116.165C20.4104 117.044 15.3681 118.877 10.8606 121.819C5.66542 125.218 5.47443 125.486 3.52625 131.445C2.57126 134.348 1.46348 138.244 1.00508 140.078C0.584888 141.95 0.126494 143.783 0.0118956 144.203C-0.102703 144.624 0.623088 143.707 1.65447 142.217C6.77321 134.615 14.2221 129.42 23.5046 126.937C26.7898 126.02 27.8975 125.906 33.7039 125.906C40.6944 125.906 44.0177 126.441 50.3207 128.618C52.9946 129.535 53.644 129.573 59.3357 129.535C64.7219 129.458 67.816 129.688 71.3304 130.49C73.4696 130.986 65.1039 125.447 59.2593 122.506C48.4489 117.082 36.3014 114.713 26.5988 116.165Z" fill="url(#paint5_linear_1030_212)"/>
<defs>
<linearGradient id="paint0_linear_1030_212" x1="80.8997" y1="64.8421" x2="23.3549" y2="36.577" gradientUnits="userSpaceOnUse">
<stop stop-color="#22DCD9"/>
<stop offset="1" stop-color="#F73E94"/>
</linearGradient>
<linearGradient id="paint1_linear_1030_212" x1="122.324" y1="127.231" x2="60.7359" y2="108.572" gradientUnits="userSpaceOnUse">
<stop stop-color="#22DCD9"/>
<stop offset="1" stop-color="#F73E94"/>
</linearGradient>
<linearGradient id="paint2_linear_1030_212" x1="97.2941" y1="84.483" x2="38.805" y2="2.7229" gradientUnits="userSpaceOnUse">
<stop stop-color="#22DCD9"/>
<stop offset="1" stop-color="#F73E94"/>
</linearGradient>
<linearGradient id="paint3_linear_1030_212" x1="159.522" y1="129.43" x2="100.016" y2="84.7213" gradientUnits="userSpaceOnUse">
<stop stop-color="#22DCD9"/>
<stop offset="1" stop-color="#F73E94"/>
</linearGradient>
<linearGradient id="paint4_linear_1030_212" x1="113.041" y1="152.285" x2="41.6724" y2="63.8547" gradientUnits="userSpaceOnUse">
<stop stop-color="#22DCD9"/>
<stop offset="1" stop-color="#F73E94"/>
</linearGradient>
<linearGradient id="paint5_linear_1030_212" x1="74.6715" y1="142.377" x2="52.6917" y2="92.2988" gradientUnits="userSpaceOnUse">
<stop stop-color="#22DCD9"/>
<stop offset="1" stop-color="#F73E94"/>
</linearGradient>
</defs>
</svg>
