<svg width="150" height="150" viewBox="0 0 150 150" fill="none" xmlns="http://www.w3.org/2000/svg">
<g clip-path="url(#clip0_777_3)">
<path d="M70.2499 17.7257C62.1749 19.4507 55.0749 25.1507 51.0248 33.1757L50.2499 34.7507H41.1249H31.9999V42.9507V51.1507L29.8998 52.7007C13.0748 65.1757 13.0248 90.1257 29.8248 102.676L31.9999 104.301V111.026V117.751H41.6999H51.3998L53.0998 120.276C56.9999 126.001 62.4249 130.001 68.8749 131.901C71.6749 132.701 76.6749 133.001 79.6749 132.501C87.4999 131.251 94.2999 126.651 98.9749 119.426L100.05 117.751H109.525H119V110.776V103.776L120.825 102.301C128.775 95.7757 132.825 87.5257 132.825 77.7507C132.825 68.2007 128.775 59.6257 121.425 53.6507L119 51.6757V43.2257V34.7507H110.15H101.275L100.125 32.5507C95.8999 24.5507 88.5749 19.0257 80.1499 17.5257C77.8499 17.1007 72.6999 17.2257 70.2499 17.7257Z" fill="white"/>
<path d="M73.1249 0.150238C67.3499 0.750244 61.4249 2.70024 57.1499 5.45024C51.6499 8.97523 46.1499 14.9752 43.3499 20.5502L42.4999 22.2502H30.6249H18.7499V33.0752V43.9002L17.1749 45.0502C11.5499 49.1002 6.79992 54.8002 3.92492 61.0002C-1.32508 72.3252 -1.17508 85.6502 4.29992 96.6252C7.29992 102.65 11.7249 107.95 16.9999 111.775L18.7499 113.05V122.025V131H31.4499H44.1249L45.1249 132.55C50.7499 141.3 59.3249 147.275 69.1999 149.3C72.9749 150.075 78.7999 150.05 82.4999 149.275C89.6249 147.775 95.2749 144.8 100.475 139.85C102.8 137.65 105.575 134.275 106.975 131.925L107.55 131H120.025H132.5V121.55L132.525 112.125L134.025 111C136.2 109.375 139.775 105.775 141.575 103.35C148.85 93.6502 151.5 81.6752 149 69.8002C147.075 60.7252 141.85 52.1502 134.75 46.4752L132.5 44.7002V33.4752V22.2502H120.875H109.25L108.525 20.7752C106.85 17.4502 104.2 13.9002 101.15 10.8752C95.5749 5.35023 89.6749 2.12524 82.4749 0.725235C80.0999 0.275238 75.0249 -0.0497589 73.1249 0.150238ZM81.9749 4.10023C88.7249 5.57524 94.0249 8.50024 99.1499 13.6002C102.125 16.6002 104.125 19.2502 106.1 22.8002L107.05 24.5002H117.9H128.75V35.3502V46.2002L130.125 47.2502C132.275 48.9252 136.475 53.4252 138.075 55.8002C141.8 61.3502 144.025 67.4502 144.775 74.0502C145.15 77.5252 144.925 83.0002 144.275 86.3002C142.475 95.2752 137.55 103.525 130.575 109.3L128.75 110.775V119.775V128.75H117.075L105.375 128.775L104.25 130.575C99.1249 138.825 90.1749 144.875 80.9249 146.375C77.9749 146.85 73.2749 146.85 70.3249 146.375C61.0749 144.875 52.1249 138.825 46.9999 130.575L45.8749 128.775L33.9499 128.75H21.9999V120.125V111.525L20.5499 110.45C19.7749 109.875 18.0749 108.375 16.7749 107.125C10.9249 101.5 7.09992 94.4252 5.32492 86.0002C4.62492 82.7002 4.69992 73.8002 5.44992 70.3502C7.49992 60.9252 13.0249 52.0752 20.1999 46.7752L21.9999 45.4252V34.9752V24.5002H33.1249H44.2249L45.1499 22.8002C48.0249 17.6002 53.0249 12.0002 57.2499 9.22523C61.2749 6.55025 65.8999 4.67525 69.8749 4.02524C70.8499 3.87524 71.8999 3.70024 72.2499 3.65024C73.5999 3.40024 80.2249 3.72523 81.9749 4.10023Z" fill="url(#paint0_linear_777_3)"/>
<path d="M69.3508 41.0559C70.7474 43.6447 71.4116 47.017 71.1221 50.0316C70.6452 54.9707 68.5673 58.9051 64.4116 62.7372C63.0831 63.9634 62.6573 64.4744 62.2656 65.326C61.6695 66.6544 60.4603 68.5279 59.251 70.0097C58.195 71.3381 58.195 71.3381 60.886 69.9926C67.9201 66.4501 72.9104 60.9659 74.7839 54.6982C75.3459 52.8588 75.5332 49.6228 75.2096 47.6812C75.0053 46.506 74.9371 46.3527 73.8812 45.1265C72.4335 43.4403 70.9347 41.8905 69.7425 40.8345L68.7717 39.9999L69.3508 41.0559Z" fill="url(#paint1_linear_777_3)"/>
<path d="M89.5334 54.3407C84.5091 62.7543 81.801 71.3212 81.5626 79.4283C81.4263 84.0949 82.0224 87.8078 83.4361 91.3504C83.7597 92.1509 83.964 92.7981 83.913 92.7981C83.6745 92.7981 81.3752 90.9416 80.0468 89.6813C79.2633 88.9489 78.6161 88.438 78.6161 88.5742C78.6161 88.6935 78.4969 89.7494 78.3606 90.9246L78.0881 93.0365L78.565 93.4283C81.5456 95.8808 86.0078 98.129 89.9421 99.1509C91.8156 99.6278 93.7743 100.02 93.8765 99.9003C93.9105 99.8662 93.5358 99.5767 93.0419 99.2531C91.7475 98.4185 89.329 96.0341 88.3582 94.6034C86.2633 91.5888 84.8497 87.7908 84.2195 83.4307C83.947 81.5572 83.947 76.6691 84.2195 74.4891C84.7305 70.4696 85.8375 66.1606 87.4896 61.8857C87.8473 60.9489 88.4093 59.1947 88.7499 58.0025C89.0735 56.8103 89.6356 55.1071 90.0103 54.2215C90.3679 53.3358 90.6404 52.6035 90.6234 52.6035C90.5894 52.6035 90.0954 53.3869 89.5334 54.3407Z" fill="url(#paint2_linear_777_3)"/>
<path d="M79.1271 53.8813C79.11 56.964 77.458 61.3241 75.1757 64.3216C69.947 71.1684 61.4653 75.5966 49.6453 77.6233C48.0103 77.9129 46.3582 78.2535 45.9665 78.3898C45.2852 78.6282 42.3047 79.2584 41.1465 79.4117C40.8229 79.4457 42.5431 79.4628 44.9787 79.4287C48.2828 79.3776 50.003 79.2754 51.7402 79.0199C62.913 77.3679 71.9227 72.9226 76.913 66.5869C77.5091 65.8204 78.02 65.2414 78.0711 65.2754C78.2074 65.4287 77.7134 68.7839 77.3217 70.2997C77.0833 71.1684 76.93 71.9177 76.947 71.9348C77.0322 72.0029 81.0857 70.2487 81.1879 70.0954C81.3412 69.8569 81.6818 66.2973 81.6818 64.8156C81.6818 61.8691 81.1027 58.3606 80.0808 55.2438C79.2804 52.7912 79.1271 52.5869 79.1271 53.8813Z" fill="url(#paint3_linear_777_3)"/>
<path d="M88.5964 73.2284C88.5283 73.4499 88.4432 74.7783 88.375 76.1919C88.1706 81.3866 89.0904 86.0192 91.1512 90.1238C93.3142 94.4669 96.993 97.9073 100.791 99.1335L101.915 99.4912L104.197 99.0484C105.441 98.8099 107.314 98.3501 108.336 98.0435L110.21 97.4815L108.387 97.2771C104.504 96.8513 101.506 95.4717 98.7303 92.8659C95.6646 89.9705 93.8422 86.5983 92.8373 81.8635C92.4967 80.2625 92.3434 79.8878 91.5088 78.6275C90.3677 76.8902 89.959 76.0898 89.2607 74.2503C88.8008 73.0581 88.6986 72.8878 88.5964 73.2284Z" fill="url(#paint4_linear_777_3)"/>
<path d="M58.178 79.5815C55.0783 80.9611 52.6087 82.545 50.071 84.7762C48.6403 86.0195 46.0004 88.8467 46.1367 89C46.1707 89.0341 46.7157 88.8297 47.3289 88.5401C50.2583 87.2117 53.7839 86.6667 57.1221 87.0073C66.0126 87.927 74.6136 93.292 82.1926 102.676C82.908 103.562 84.1513 104.959 84.9688 105.776C85.7693 106.594 86.9104 107.888 87.4895 108.637C88.0685 109.387 88.5795 110 88.6136 110C88.6987 110 88.1878 109.097 86.5016 106.253C81.4262 97.6521 74.1878 90.5499 66.8642 87.0243C63.7814 85.5426 60.0004 84.3844 57.8033 84.2482C57.4457 84.2311 57.1561 84.163 57.1561 84.0949C57.1561 83.8564 61.0904 82.3747 62.8277 81.9659C63.7133 81.7616 63.7303 81.7786 60.307 79.2409L59.796 78.8662L58.178 79.5815Z" fill="url(#paint5_linear_777_3)"/>
<path d="M51.8593 91.793C49.1002 92.1848 46.852 93.0023 44.8423 94.3137C42.526 95.8295 42.4408 95.9488 41.5722 98.6057C41.1464 99.9001 40.6525 101.637 40.4481 102.455C40.2608 103.289 40.0564 104.107 40.0053 104.294C39.9542 104.482 40.2778 104.073 40.7377 103.409C43.0199 100.019 46.3411 97.703 50.4798 96.596C51.9445 96.1872 52.4384 96.1361 55.0272 96.1361C58.144 96.1361 59.6257 96.3746 62.436 97.3454C63.6282 97.7541 63.9177 97.7711 66.4554 97.7541C68.8569 97.7201 70.2364 97.8222 71.8034 98.1799C72.7571 98.4013 69.0272 95.9317 66.4214 94.6203C61.6014 92.2018 56.1854 91.1458 51.8593 91.793Z" fill="url(#paint6_linear_777_3)"/>
</g>
<defs>
<linearGradient id="paint0_linear_777_3" x1="126" y1="150" x2="13" y2="14.5" gradientUnits="userSpaceOnUse">
<stop stop-color="#F73E94"/>
<stop offset="0.979167" stop-color="#22DCD9"/>
</linearGradient>
<linearGradient id="paint1_linear_777_3" x1="76.0699" y1="68.9106" x2="50.413" y2="56.3083" gradientUnits="userSpaceOnUse">
<stop stop-color="#22DCD9"/>
<stop offset="1" stop-color="#F73E94"/>
</linearGradient>
<linearGradient id="paint2_linear_777_3" x1="94.5394" y1="96.727" x2="67.0798" y2="88.4077" gradientUnits="userSpaceOnUse">
<stop stop-color="#22DCD9"/>
<stop offset="1" stop-color="#F73E94"/>
</linearGradient>
<linearGradient id="paint3_linear_777_3" x1="83.3797" y1="77.668" x2="57.3017" y2="41.2145" gradientUnits="userSpaceOnUse">
<stop stop-color="#22DCD9"/>
<stop offset="1" stop-color="#F73E94"/>
</linearGradient>
<linearGradient id="paint4_linear_777_3" x1="111.124" y1="97.7075" x2="84.5931" y2="77.7736" gradientUnits="userSpaceOnUse">
<stop stop-color="#22DCD9"/>
<stop offset="1" stop-color="#F73E94"/>
</linearGradient>
<linearGradient id="paint5_linear_777_3" x1="90.4005" y1="107.898" x2="58.5801" y2="68.4702" gradientUnits="userSpaceOnUse">
<stop stop-color="#22DCD9"/>
<stop offset="1" stop-color="#F73E94"/>
</linearGradient>
<linearGradient id="paint6_linear_777_3" x1="73.293" y1="103.48" x2="63.4931" y2="81.1521" gradientUnits="userSpaceOnUse">
<stop stop-color="#22DCD9"/>
<stop offset="1" stop-color="#F73E94"/>
</linearGradient>
<clipPath id="clip0_777_3">
<rect width="150" height="150" fill="white"/>
</clipPath>
</defs>
</svg>
