<svg width="500" height="500" viewBox="0 0 500 500" fill="none" xmlns="http://www.w3.org/2000/svg">
<path d="M89.0502 437.1C176.31 483.11 317.79 483.11 405.05 437.1C492.31 391.09 492.31 316.48 405.05 270.47C317.79 224.46 176.31 224.46 89.0502 270.47C1.78016 316.48 1.78016 391.09 89.0502 437.1Z" fill="#F5F5F5"/>
<path d="M163.52 357.3L166.13 354.18L86.7604 308.35L81.3804 311.45L109.57 327.73L82.5104 343.36L54.0704 326.94L48.6904 330.05L129.94 376.95L130.79 375.93L131.22 376.17L162.38 358.22L162.63 358.36L163.08 357.81L163.75 357.43L163.52 357.3Z" fill="#E0E0E0"/>
<path d="M388.681 396.86C371.411 405.09 343.421 405.09 326.151 396.86C308.881 388.63 308.881 375.29 326.151 367.06C343.421 358.83 371.411 358.83 388.681 367.06C405.951 375.29 405.951 388.63 388.681 396.86Z" fill="#E0E0E0"/>
<path d="M255.101 440.3C237.831 448.53 209.841 448.53 192.571 440.3C175.301 432.07 175.301 418.73 192.571 410.5C209.841 402.27 237.831 402.27 255.101 410.5C272.371 418.72 272.371 432.07 255.101 440.3Z" fill="#E0E0E0"/>
<path d="M392.67 408.28C401.25 413.23 415.16 413.23 423.74 408.28C432.32 403.33 432.32 395.3 423.74 390.34C415.16 385.39 401.25 385.39 392.67 390.34C384.09 395.29 384.09 403.33 392.67 408.28Z" fill="#E0E0E0"/>
<path d="M89.8401 417.25C101.974 417.25 111.81 411.573 111.81 404.57C111.81 397.567 101.974 391.89 89.8401 391.89C77.7064 391.89 67.8701 397.567 67.8701 404.57C67.8701 411.573 77.7064 417.25 89.8401 417.25Z" fill="#E0E0E0"/>
<path d="M131.04 189.48L86.4802 310.75L86.4702 310.77C86.3702 311.08 86.1102 311.37 85.6902 311.61C84.5702 312.26 82.7502 312.26 81.6302 311.61C81.1402 311.33 80.8702 310.98 80.8002 310.61C80.7802 310.5 80.7802 310.39 80.8002 310.28C80.8102 310.01 80.8602 309.73 80.9602 309.45L125.64 187.5C126.19 186.01 127.84 185.24 129.33 185.79C130.82 186.34 131.59 187.99 131.04 189.48Z" fill="#37474F"/>
<path d="M71.4805 272.92L116.16 298.72" stroke="#37474F" stroke-width="6" stroke-miterlimit="10"/>
<path d="M103.971 254.16L148.661 279.96" stroke="#37474F" stroke-width="6" stroke-miterlimit="10"/>
<path d="M94.6807 181.15L118.511 167.39C120.461 166.27 122.641 166.1 124.491 166.92C126.341 167.74 127.671 169.47 128.141 171.67L167.701 356.75C167.731 356.88 167.751 357 167.751 357.13C167.771 357.26 167.771 357.4 167.761 357.53C167.691 357.89 167.421 358.24 166.931 358.52C165.811 359.17 163.991 359.17 162.871 358.52C162.451 358.27 162.191 357.97 162.081 357.66C162.061 357.6 162.051 357.54 162.041 357.49L122.521 172.87C122.431 172.47 122.271 172.22 122.151 172.17C122.041 172.12 121.751 172.16 121.391 172.37L97.5507 186.13" fill="#455A64"/>
<path d="M133.571 358.02L119.051 349.64C118.571 349.36 118.181 348.69 118.181 348.14V347.79C118.181 347.24 118.571 346.57 119.051 346.29L153.881 326.18C154.361 325.9 155.131 325.9 155.611 326.18L170.131 334.56C170.611 334.84 171.001 335.51 171.001 336.06V336.41C171.001 336.96 170.611 337.63 170.131 337.91L135.301 358.02C134.831 358.3 134.051 358.3 133.571 358.02Z" fill="#F73E94"/>
<path opacity="0.1" d="M118.45 346.94C118.29 347.21 118.2 347.52 118.2 347.79V348.14C118.2 348.69 118.59 349.36 119.07 349.64L133.59 358.02C133.83 358.16 134.14 358.23 134.46 358.23V356.18L118.45 346.94Z" fill="black"/>
<path opacity="0.15" d="M134.44 356.18V358.23C134.75 358.23 135.07 358.16 135.31 358.02L152.72 347.97L170.13 337.92C170.61 337.64 171 336.97 171 336.42V336.07C171 335.79 170.9 335.49 170.75 335.22L134.44 356.18Z" fill="black"/>
<path d="M127.281 328.59L112.761 320.21C112.281 319.93 111.891 319.26 111.891 318.71V318.36C111.891 317.81 112.281 317.14 112.761 316.86L147.591 296.75C148.071 296.47 148.841 296.47 149.321 296.75L163.841 305.13C164.321 305.41 164.711 306.08 164.711 306.63V306.98C164.711 307.53 164.321 308.2 163.841 308.48L129.011 328.59C128.531 328.87 127.761 328.87 127.281 328.59Z" fill="#F73E94"/>
<path opacity="0.1" d="M112.15 317.51C111.99 317.78 111.9 318.09 111.9 318.36V318.71C111.9 319.26 112.29 319.93 112.77 320.21L127.29 328.59C127.53 328.73 127.84 328.8 128.16 328.8V326.75L112.15 317.51Z" fill="black"/>
<path opacity="0.15" d="M128.15 326.75V328.8C128.46 328.8 128.78 328.73 129.02 328.59L146.43 318.54L163.84 308.49C164.32 308.21 164.71 307.54 164.71 306.99V306.64C164.71 306.36 164.61 306.06 164.46 305.79L128.15 326.75Z" fill="black"/>
<path d="M120.991 299.16L106.471 290.78C105.991 290.5 105.601 289.83 105.601 289.28V288.93C105.601 288.38 105.991 287.71 106.471 287.43L141.301 267.32C141.781 267.04 142.551 267.04 143.031 267.32L157.551 275.7C158.031 275.98 158.421 276.65 158.421 277.2V277.55C158.421 278.1 158.031 278.77 157.551 279.05L122.721 299.16C122.241 299.44 121.461 299.44 120.991 299.16Z" fill="#F73E94"/>
<path opacity="0.1" d="M105.86 288.08C105.7 288.35 105.61 288.66 105.61 288.93V289.28C105.61 289.83 106 290.5 106.48 290.78L113.74 294.97L121 299.16C121.24 299.3 121.55 299.37 121.87 299.37V297.32L105.86 288.08Z" fill="black"/>
<path opacity="0.15" d="M121.851 297.31V299.36C122.161 299.36 122.481 299.29 122.721 299.15L140.131 289.1L157.541 279.05C158.021 278.77 158.411 278.1 158.411 277.55V277.2C158.411 276.92 158.311 276.62 158.161 276.35L121.851 297.31Z" fill="black"/>
<path d="M114.691 269.73L100.171 261.35C99.6908 261.07 99.3008 260.4 99.3008 259.85V259.5C99.3008 258.95 99.6908 258.28 100.171 258L135.001 237.9C135.481 237.62 136.251 237.62 136.731 237.9L151.251 246.28C151.731 246.56 152.121 247.23 152.121 247.78V248.13C152.121 248.68 151.731 249.35 151.251 249.63L116.421 269.74C115.951 270.01 115.171 270 114.691 269.73Z" fill="#F73E94"/>
<path opacity="0.15" d="M115.561 267.88V269.93C115.871 269.93 116.191 269.86 116.431 269.72L133.841 259.67L151.251 249.62C151.731 249.34 152.121 248.67 152.121 248.12V247.77C152.121 247.49 152.021 247.19 151.871 246.92L115.561 267.88Z" fill="black"/>
<path opacity="0.1" d="M99.5605 258.65C99.4005 258.92 99.3105 259.23 99.3105 259.5V259.85C99.3105 260.4 99.7005 261.07 100.181 261.35L114.701 269.73C114.941 269.87 115.251 269.94 115.571 269.94V267.89L99.5605 258.65Z" fill="black"/>
<path d="M108.4 240.3L84.2802 226.38C83.8002 226.1 83.4102 225.43 83.4102 224.88V224.53C83.4102 223.98 83.8002 223.31 84.2802 223.03L119.11 202.92C119.59 202.64 120.36 202.64 120.84 202.92L144.96 216.84C145.44 217.12 145.83 217.79 145.83 218.34V218.69C145.83 219.24 145.44 219.91 144.96 220.19L110.13 240.3C109.65 240.57 108.88 240.57 108.4 240.3Z" fill="#F73E94"/>
<path opacity="0.15" d="M109.26 238.45V240.5C109.57 240.5 109.89 240.43 110.13 240.29L127.54 230.24L144.95 220.19C145.43 219.91 145.82 219.24 145.82 218.69V218.34C145.82 218.06 145.72 217.76 145.57 217.49L109.26 238.45Z" fill="black"/>
<path opacity="0.1" d="M83.6602 223.67C83.5002 223.94 83.4102 224.25 83.4102 224.52V224.87C83.4102 225.42 83.8002 226.09 84.2802 226.37L108.4 240.29C108.64 240.43 108.95 240.5 109.27 240.5V238.45L83.6602 223.67Z" fill="black"/>
<path d="M98.5505 208.24L54.0305 329.37L54.0205 329.41L53.9205 329.68C53.7905 329.93 53.5505 330.17 53.2005 330.38C52.0805 331.02 50.2605 331.02 49.1305 330.38C48.6405 330.09 48.3705 329.74 48.3005 329.38C48.2905 329.27 48.2905 329.16 48.3005 329.05C48.3105 328.76 48.3705 328.49 48.4705 328.21L93.1505 206.26C93.6905 204.77 95.3405 204.01 96.8405 204.55C98.3305 205.1 99.0905 206.75 98.5505 208.24Z" fill="#37474F"/>
<path d="M97.5506 186.13C96.2306 186.9 95.3206 188.94 95.6406 190.43L135.211 375.5C135.251 375.65 135.271 375.8 135.271 375.95C135.281 376.05 135.281 376.16 135.271 376.27C135.211 376.63 134.931 376.99 134.441 377.28C133.321 377.93 131.501 377.93 130.381 377.28C129.971 377.04 129.711 376.75 129.591 376.45C129.591 376.44 129.591 376.43 129.581 376.42L129.531 376.18L90.0206 191.64C89.1906 187.75 91.2306 183.14 94.6806 181.15" fill="#455A64"/>
<path d="M108.59 373.06L71.8897 372.56L71.5697 402.53C71.5397 405.24 73.2997 407.98 76.8597 410.08C83.9797 414.3 95.5997 414.42 102.82 410.36C106.46 408.31 108.28 405.59 108.27 402.85L108.59 373.06Z" fill="#37474F"/>
<path d="M77.3496 365.13C70.1396 369.19 70.0696 375.9 77.1896 380.12C84.3096 384.34 95.9296 384.46 103.15 380.4C110.36 376.34 110.44 369.63 103.31 365.41C96.1796 361.19 84.5596 361.07 77.3496 365.13Z" fill="#455A64"/>
<path d="M107.02 372.94C107.02 373.42 106.92 373.9 106.76 374.38C106.2 376.1 104.7 377.69 102.37 379.01C99.11 380.83 94.78 381.81 90.15 381.77C85.54 381.71 81.22 380.65 78.01 378.75C75.75 377.41 74.28 375.79 73.76 374.12C73.58 373.62 73.5 373.1 73.5 372.58C73.54 370.34 75.18 368.19 78.15 366.53C81.39 364.69 85.74 363.71 90.35 363.77C94.98 363.81 99.3 364.89 102.51 366.79C105.44 368.52 107.04 370.7 107.02 372.94Z" fill="#263238"/>
<path d="M106.76 374.37C106.2 376.09 104.7 377.68 102.37 379C99.1098 380.82 94.7798 381.8 90.1498 381.76C85.5398 381.7 81.2198 380.64 78.0098 378.74C75.7498 377.4 74.2798 375.78 73.7598 374.11C74.3198 372.39 75.8198 370.79 78.1498 369.5C81.3898 367.66 85.7398 366.68 90.3498 366.72C94.9798 366.78 99.2998 367.86 102.51 369.76C104.76 371.1 106.22 372.7 106.76 374.37Z" fill="#22DCD9"/>
<path d="M98.07 384.29C98.87 383.84 99.52 384.22 99.51 385.14C99.5 386.06 98.84 387.18 98.03 387.63C97.22 388.08 96.58 387.7 96.59 386.78C96.6 385.86 97.26 384.74 98.07 384.29Z" fill="#263238"/>
<path d="M71.8297 377.83C69.8097 381.8 65.7997 391.27 71.0097 395.12C71.2297 395.28 71.4297 395.42 71.6497 395.56L71.6297 397.48C71.1097 397.16 70.5697 396.8 70.0497 396.42C62.2597 390.65 71.0497 375.83 71.4297 375.21C71.5297 375.03 71.6897 374.93 71.8697 374.87L71.8297 377.83Z" fill="#E0E0E0"/>
<path d="M98.7501 386.34C98.5301 386.8 92.8601 397.64 83.5301 399.82C82.4501 400.08 81.3901 400.2 80.3101 400.2C77.4101 400.2 74.5201 399.3 71.6201 397.48L71.6401 395.56C75.4901 398.24 79.3701 399.15 83.1601 398.28C91.7701 396.26 97.2801 385.7 97.3201 385.6C97.5201 385.2 98.0201 385.06 98.4001 385.26C98.8101 385.46 98.9701 385.94 98.7501 386.34Z" fill="#E0E0E0"/>
<path d="M174.929 281.05L171.139 278.86C169.939 278.17 168.979 276.49 168.979 275.11V101.87C168.979 100.49 169.949 98.81 171.149 98.12L296.799 25.57C297.999 24.88 299.93 24.88 301.13 25.57L304.92 27.76C306.12 28.45 307.089 30.13 307.089 31.51V204.75C307.089 206.13 306.12 207.81 304.92 208.5L179.259 281.05C178.059 281.74 176.119 281.74 174.929 281.05Z" fill="#22DCD9"/>
<path opacity="0.4" d="M307.05 31.16C306.9 30.04 305.99 29.63 304.91 30.26L179.25 102.81C178.66 103.15 178.12 103.75 177.72 104.43L169.6 99.74C169.99 99.06 170.53 98.47 171.13 98.12L296.78 25.57C297.98 24.88 299.92 24.88 301.11 25.57L304.91 27.76C306 28.39 306.91 29.86 307.05 31.16Z" fill="white"/>
<path opacity="0.1" d="M178.75 281.27C177.57 281.73 175.96 281.65 174.92 281.05L171.13 278.86C169.93 278.17 168.96 276.49 168.96 275.11V101.87C168.96 101.18 169.21 100.42 169.6 99.74L177.72 104.43C177.33 105.11 177.09 105.87 177.09 106.56V279.8C177.09 280.98 177.8 281.56 178.75 281.27Z" fill="black"/>
<path d="M316.89 167.52C316.61 167.36 316.23 167.37 315.84 167.63L310.78 170.96C310.09 171.42 309.22 171.18 308.75 170.5C308.44 170.06 308.12 169.66 307.76 169.29C307.19 168.69 306.88 167.66 307.17 166.88L315.21 161.79L309.21 158.33V158.34C309.09 158.27 308.96 158.21 308.81 158.18L305 157.33C304.19 157.15 303.22 157.6 302.84 158.33L299.26 165.16C298.88 165.89 297.9 166.58 297.09 166.79C297.02 166.81 296.94 166.83 296.87 166.85C297.09 166.2 297.18 165.26 297.18 165.26L291.16 161.79V161.8C290.84 161.61 290.42 161.65 290.03 161.95L284.32 166.44C283.67 166.95 283.18 168.04 283.23 168.86L283.57 174.3C283.62 175.13 283.21 176.3 282.68 176.93C281.74 178.05 280.86 179.22 280.03 180.44C279.56 181.12 278.53 181.66 277.71 181.62L274.04 181.44C273.21 181.4 272.27 181.98 271.93 182.74L268.48 190.48C268.17 191.17 268.44 191.96 269.07 192.34V192.35L273.14 194.7C273.27 195.03 273.31 195.4 273.24 195.75C272.96 196.99 272.74 198.23 272.6 199.44C272.51 200.26 271.97 201.39 271.36 201.95L266.3 206.6C265.69 207.16 265.31 208.28 265.45 209.09L266.4 214.61C266.46 214.97 266.63 215.22 266.86 215.36H266.85L272.89 218.84L272.97 211.93C273.66 211.47 274.53 211.71 275 212.39C275.31 212.83 275.63 213.23 275.99 213.6C276.56 214.2 276.87 215.23 276.58 216.01L274 222.99C273.77 223.61 274 224.22 274.51 224.54V224.55L280.54 228.03L282.18 223.54L284.51 217.75C284.89 217.02 285.87 216.33 286.68 216.12C287.45 215.92 288.23 215.67 289.03 215.34C289.8 215.03 290.59 215.37 290.83 216.16L292.12 220.44C292.22 220.76 292.39 220.98 292.61 221.11L298.66 224.6L297.6 217.91L299.45 216.46C300.1 215.95 300.59 214.86 300.54 214.04L300.2 208.6C300.15 207.77 300.56 206.6 301.09 205.97C302.03 204.85 303.44 204.25 304.27 203.04C304.74 202.36 305.24 201.24 306.07 201.28L309.74 201.46C310.57 201.5 311.51 200.92 311.85 200.16L315.3 192.42C315.64 191.66 315.29 190.79 314.53 190.46L311.56 189.19C310.8 188.86 310.36 187.95 310.54 187.15C310.82 185.91 311.04 184.67 311.18 183.46C311.27 182.64 311.81 181.51 312.42 180.95L317.48 176.29C317.91 175.89 318.22 175.21 318.32 174.56L322.92 170.97L316.89 167.52ZM293.91 203.23C287.72 208.1 281.79 206.77 280.67 200.27C279.55 193.77 284.62 185.5 290.81 180.63C297 175.76 301.98 176.13 303.1 182.64C304.21 189.14 300.1 198.36 293.91 203.23Z" fill="#263238"/>
<path d="M271.3 202L266.29 206.6C265.92 206.94 265.65 207.48 265.52 208.04L272.96 212.33V211.93C273.65 211.47 274.52 211.71 274.99 212.39C274.99 212.39 274.99 212.4 275 212.4L282.16 208.26L271.3 202Z" fill="#455A64"/>
<path d="M284.06 188.06C284.62 187.19 285.24 186.33 285.9 185.51L278.77 181.39C278.42 181.53 278.06 181.63 277.72 181.61L274.05 181.43C273.53 181.4 272.96 181.63 272.53 181.98L283.51 188.32L284.06 188.06Z" fill="#455A64"/>
<path d="M322.89 170.98C322.61 170.82 322.24 170.85 321.86 171.1L316.8 174.43C316.11 174.88 315.25 174.65 314.77 173.97C314.46 173.53 314.14 173.13 313.78 172.76C313.21 172.16 312.9 171.13 313.19 170.35L313.67 169.06L315.84 167.63C316.23 167.38 316.61 167.36 316.89 167.53V167.52L322.89 170.98Z" fill="#455A64"/>
<path d="M307.94 169.5C307.88 169.44 307.83 169.36 307.77 169.29C307.2 168.69 306.89 167.66 307.18 166.88L315.22 161.79L309.22 158.33V158.34C309.1 158.27 308.97 158.21 308.82 158.18L305.01 157.33C304.2 157.15 303.23 157.6 302.85 158.33L299.27 165.16C299.1 165.49 298.8 165.8 298.45 166.08L306.55 170.76L307.94 169.5Z" fill="#455A64"/>
<path d="M283.39 167.94L290.83 172.23L296.94 166.63C297.11 166.01 297.19 165.26 297.19 165.26L291.17 161.79V161.8C290.85 161.61 290.43 161.65 290.04 161.95L284.33 166.44C283.9 166.77 283.57 167.35 283.39 167.94Z" fill="#455A64"/>
<path d="M324.32 177.28L323.37 171.76C323.23 170.94 322.55 170.65 321.86 171.11L316.8 174.44C316.11 174.9 315.24 174.66 314.77 173.98C314.46 173.54 314.14 173.14 313.78 172.77C313.21 172.17 312.9 171.14 313.19 170.36L315.77 163.38C316.06 162.6 315.63 161.83 314.83 161.65L311.02 160.8C310.21 160.62 309.24 161.07 308.86 161.8L305.28 168.63C304.9 169.36 303.92 170.05 303.11 170.26C302.34 170.46 301.56 170.71 300.76 171.04C299.99 171.35 299.2 171.01 298.96 170.22L297.67 165.94C297.43 165.15 296.71 164.92 296.06 165.43L290.35 169.92C289.7 170.43 289.21 171.52 289.26 172.34L289.6 177.78C289.65 178.61 289.24 179.78 288.71 180.41C287.77 181.53 286.89 182.7 286.06 183.92C285.59 184.6 284.56 185.14 283.74 185.1L280.07 184.92C279.24 184.88 278.3 185.46 277.96 186.22L274.51 193.96C274.17 194.72 274.52 195.59 275.28 195.92L278.25 197.19C279.01 197.51 279.45 198.43 279.27 199.23C278.99 200.47 278.77 201.71 278.63 202.92C278.54 203.74 278 204.87 277.39 205.43L272.33 210.08C271.72 210.64 271.34 211.76 271.48 212.57L272.43 218.09C272.57 218.91 273.25 219.2 273.94 218.74L279 215.41C279.69 214.95 280.56 215.19 281.03 215.87C281.34 216.31 281.66 216.71 282.02 217.08C282.59 217.68 282.9 218.71 282.61 219.49L280.03 226.47C279.74 227.25 280.17 228.02 280.97 228.2L284.78 229.05C285.59 229.23 286.56 228.78 286.94 228.05L290.53 221.22C290.91 220.49 291.89 219.8 292.7 219.59C293.47 219.39 294.25 219.14 295.05 218.81C295.82 218.5 296.61 218.84 296.85 219.63L298.14 223.91C298.38 224.7 299.1 224.93 299.75 224.42L305.46 219.93C306.11 219.42 306.6 218.33 306.55 217.51L306.21 212.07C306.16 211.24 306.57 210.07 307.1 209.44C308.04 208.32 308.92 207.15 309.75 205.93C310.22 205.25 311.25 204.71 312.07 204.75L315.74 204.93C316.57 204.97 317.51 204.39 317.85 203.63L321.3 195.89C321.64 195.13 321.29 194.26 320.53 193.93L317.56 192.66C316.8 192.34 316.36 191.42 316.54 190.61C316.82 189.37 317.04 188.13 317.18 186.92C317.27 186.1 317.81 184.97 318.42 184.41L323.48 179.75C324.08 179.21 324.46 178.09 324.32 177.28ZM299.92 206.7C293.73 211.57 287.8 210.24 286.68 203.74C285.56 197.24 289.67 188.02 295.86 183.15C302.05 178.28 307.98 179.61 309.1 186.11C310.22 192.61 306.11 201.83 299.92 206.7Z" fill="#37474F"/>
<path d="M288.3 114.07L282.38 110.65C282.38 110.65 282.38 110.65 282.38 110.66C282.14 110.52 281.81 110.51 281.45 110.67L270.75 115.49C269.99 115.83 269.22 115.45 268.97 114.66C268.35 112.69 267.55 110.92 266.58 109.35C266.15 108.64 266.05 107.5 266.42 106.76L273.55 92.38C273.92 91.64 273.63 90.7 272.92 90.29L265.18 85.82C264.46 85.41 263.51 85.63 263.05 86.32L254.16 99.69C253.7 100.38 252.66 100.87 251.83 100.85C250.82 100.82 249.79 100.88 248.73 101V91.23L242.79 87.81C242.53 87.67 242.18 87.69 241.82 87.9L229.8 94.84C229.08 95.25 228.44 96.26 228.37 97.08L227.17 110.46C227.1 111.29 226.53 112.4 225.92 112.96C223.58 115.11 221.35 117.49 219.24 120.03C218.71 120.67 217.66 120.97 216.88 120.7L209.16 118.01C208.38 117.74 207.41 118.1 206.99 118.81L198.15 134.12C197.74 134.84 197.91 135.86 198.54 136.4L204.73 141.74C205.36 142.28 205.62 143.34 205.33 144.12C204.18 147.21 203.24 150.33 202.55 153.44C202.37 154.25 201.69 155.29 201.01 155.77L190.03 163.5C189.35 163.98 188.8 165.03 188.8 165.86V179.74C188.8 180.17 188.97 180.48 189.23 180.63L195.15 184.04L203.94 179.88C204.28 180.59 204.64 181.28 205.04 181.92C205.47 182.63 205.57 183.77 205.2 184.51L198.07 198.89C197.7 199.63 197.99 200.57 198.7 200.98L206.44 205.45C207.16 205.86 208.11 205.64 208.57 204.95L217.46 191.58C217.92 190.89 218.96 190.4 219.79 190.42C221.63 190.47 223.56 190.28 225.58 189.83C226.39 189.65 227.1 190.14 227.18 190.96L228.35 202.64C228.39 203.04 228.56 203.32 228.81 203.46L234.72 206.87L241.82 196.44C242.54 196.03 243.18 195.02 243.25 194.2L244.45 180.82C244.52 179.99 245.22 179.12 245.99 178.8C249.42 177.36 252.9 174.88 255.33 172.25C255.89 171.64 256.94 171.34 257.72 171.61L262.46 173.28C263.24 173.56 264.21 173.2 264.63 172.48L273.47 157.17C273.88 156.45 273.71 155.43 273.08 154.89L269.01 151.38C268.38 150.84 268.12 149.78 268.35 148.98C269.33 145.55 269.55 141.08 269.45 137.89C269.43 137.06 269.93 136 270.6 135.53L281.58 127.8C282.26 127.32 282.81 126.27 282.81 125.44L288.06 119.15L288.3 114.07ZM235.81 169.09C224.59 175.57 217.62 170.97 217.62 158.02C217.62 145.07 226.89 129.2 238.1 122.73C249.32 116.25 256.11 120.97 256.11 133.92C256.11 146.87 247.02 162.61 235.81 169.09Z" fill="#263238"/>
<path d="M271.189 97.15L273.549 92.39C273.919 91.65 273.629 90.71 272.919 90.3L265.179 85.83C264.459 85.42 263.509 85.64 263.049 86.33L254.159 99.7C254.019 99.92 253.799 100.1 253.569 100.27L263.519 106.01L271.189 97.15Z" fill="#455A64"/>
<path d="M201.86 154.84C201.6 155.2 201.31 155.53 201.01 155.74L190.03 163.47C189.75 163.66 189.51 163.97 189.31 164.3L196.01 168.17L210.59 159.88L201.86 154.84Z" fill="#455A64"/>
<path d="M208.53 117.9C207.91 117.92 207.29 118.26 206.98 118.79L198.14 134.1C197.95 134.43 197.89 134.83 197.94 135.22L205.56 139.62L217.66 123.26L208.53 117.9Z" fill="#455A64"/>
<path d="M228.6 96.28L238.03 101.72L248.74 95.54V91.23L242.8 87.81C242.54 87.67 242.19 87.69 241.83 87.9L229.81 94.84C229.3 95.12 228.86 95.69 228.6 96.28Z" fill="#455A64"/>
<path d="M288.72 128.85V114.97C288.72 114.14 288.11 113.75 287.35 114.09L276.65 118.91C275.89 119.25 275.12 118.87 274.87 118.08C274.25 116.11 273.45 114.34 272.48 112.78C272.05 112.07 271.95 110.93 272.32 110.19L279.45 95.81C279.82 95.07 279.53 94.13 278.82 93.72L271.08 89.25C270.36 88.84 269.41 89.06 268.95 89.75L260.06 103.12C259.6 103.81 258.56 104.3 257.73 104.28C255.89 104.23 253.96 104.42 251.94 104.87C251.13 105.05 250.42 104.56 250.34 103.74L249.17 92.06C249.09 91.24 248.44 90.9 247.72 91.32L235.7 98.26C234.98 98.67 234.34 99.68 234.27 100.5L233.07 113.88C233 114.71 232.43 115.82 231.82 116.38C229.48 118.53 227.25 120.91 225.14 123.45C224.61 124.09 223.56 124.39 222.78 124.12L215.06 121.43C214.28 121.16 213.31 121.52 212.89 122.23L204.05 137.54C203.64 138.26 203.81 139.28 204.44 139.82L210.63 145.16C211.26 145.7 211.52 146.76 211.23 147.54C210.08 150.63 209.14 153.75 208.45 156.86C208.27 157.67 207.59 158.71 206.91 159.19L195.93 166.92C195.25 167.4 194.7 168.45 194.7 169.28V183.16C194.7 183.99 195.31 184.38 196.07 184.04L206.77 179.22C207.53 178.88 208.3 179.26 208.55 180.05C209.17 182.02 209.97 183.79 210.93 185.36C211.36 186.07 211.46 187.21 211.09 187.95L203.96 202.33C203.59 203.07 203.88 204.01 204.59 204.42L212.33 208.89C213.05 209.3 214 209.08 214.46 208.39L223.35 195.02C223.81 194.33 224.85 193.84 225.68 193.86C227.52 193.91 229.45 193.72 231.47 193.27C232.28 193.09 232.99 193.58 233.07 194.4L234.24 206.08C234.32 206.9 234.97 207.24 235.69 206.82L247.71 199.88C248.43 199.47 249.07 198.46 249.14 197.64L250.34 184.26C250.41 183.43 250.98 182.32 251.59 181.76C253.93 179.61 256.16 177.23 258.27 174.69C258.8 174.05 259.85 173.75 260.63 174.02L268.35 176.71C269.13 176.98 270.1 176.62 270.52 175.91L279.36 160.6C279.77 159.88 279.6 158.86 278.97 158.32L272.78 152.98C272.15 152.44 271.89 151.38 272.18 150.6C273.33 147.51 274.27 144.39 274.96 141.28C275.14 140.47 275.82 139.43 276.5 138.95L287.48 131.22C288.17 130.74 288.72 129.68 288.72 128.85ZM241.72 172.5C230.5 178.98 221.41 173.73 221.41 160.78C221.41 147.83 230.5 132.08 241.72 125.61C252.94 119.14 262.03 124.38 262.03 137.33C262.03 150.27 252.93 166.02 241.72 172.5Z" fill="#37474F"/>
<path d="M288.3 114.07C288.06 113.92 287.72 113.91 287.35 114.08L276.65 118.9C275.9 119.24 275.12 118.87 274.87 118.08C274.45 116.73 273.94 115.48 273.34 114.32L281.44 110.67C281.8 110.51 282.13 110.52 282.37 110.66V110.65L288.3 114.07Z" fill="#455A64"/>
<path d="M372.54 374.67V373.53C372.09 374.87 370.01 380.61 366.85 383.49C364.34 385.78 360.92 388.42 360.05 390.98C359.14 393.63 364.81 394.53 367.16 394.11C369.88 393.63 373.41 392.08 375.33 389.72C376.68 388.06 377.54 386.1 378.5 384.79C379.46 383.49 381.68 382.03 382.2 380.52C382.49 379.69 382.15 377.88 381.74 376.34C381.37 374.93 380.97 373.39 380.49 373.52C380.49 373.69 380.49 374.39 380.49 374.39C379.91 375.03 378.31 375.67 376.51 375.73C375.35 375.79 372.53 375.56 372.54 374.67Z" fill="#263238"/>
<path d="M364.58 385.51C365.36 384.82 366.14 384.14 366.85 383.49C369.06 381.48 370.74 378.07 371.7 375.74C372.25 374.41 372.53 372.99 372.53 371.55V367.01H380.49V374.39V374.59L380.45 374.61C380.07 376.26 376.42 380.66 374.34 383.53C372.95 385.45 370.31 387.9 367.15 388.32C364.16 388.72 362.63 387.78 364.58 385.51Z" fill="#FFA8A7"/>
<path d="M341.5 366.83V365.69C341.05 367.03 338.97 372.77 335.81 375.65C333.3 377.94 329.88 380.58 329.01 383.14C328.1 385.79 333.77 386.69 336.12 386.27C338.84 385.79 342.37 384.24 344.29 381.88C345.64 380.22 346.5 378.26 347.46 376.95C348.42 375.65 350.64 374.19 351.16 372.68C351.45 371.85 351.11 370.04 350.7 368.5C350.33 367.09 349.93 365.55 349.45 365.68C349.45 365.85 349.45 366.55 349.45 366.55C348.87 367.19 347.27 367.83 345.47 367.89C344.31 367.94 341.49 367.71 341.5 366.83Z" fill="#263238"/>
<path d="M333.54 377.66C334.32 376.97 335.1 376.29 335.81 375.64C338.02 373.63 339.7 370.22 340.66 367.89C341.21 366.56 341.49 365.14 341.49 363.7V359.16H349.45V366.54V366.74L349.41 366.76C349.03 368.41 345.38 372.81 343.3 375.68C341.91 377.6 339.27 380.05 336.11 380.47C333.12 380.88 331.59 379.93 333.54 377.66Z" fill="#FFA8A7"/>
<path d="M378.91 251C385.08 264.47 378.69 311.94 378.69 311.94C378.88 314.13 381.38 318.43 382.31 328.05C383.41 339.42 380.58 367.97 380.58 367.97C380.58 367.97 376.9 370.38 372.54 368.29C372.54 368.29 364.96 325.29 363.53 313.99C362.29 304.12 359.9 282.43 359.9 282.43L353.11 313.94C353.11 313.94 354.85 319.47 355.26 323.68C355.9 330.33 349.46 361.29 349.46 361.29C349.46 361.29 346.71 362.3 341.5 361.53C341.5 361.53 339.22 320.44 338.62 312.43C337.61 298.98 341.18 257 343.65 249.04L378.91 251Z" fill="#37474F"/>
<path d="M359.89 282.43L357.89 269.92C357.89 269.92 349.42 268.16 345.57 264.55C345.57 264.55 349.6 269.56 355.59 271.21L357.84 280.84L353.91 310.01L359.89 282.43Z" fill="#263238"/>
<path d="M346.85 242.51C351.52 226.97 357.48 203.83 355.23 203.83C352.98 203.83 349.53 203.62 347 206.16C342.02 211.16 341.11 220.44 340.06 225.73C339.01 231.02 338.27 235.2 336.6 243.06C335.33 249.03 333.79 256.22 331.53 260.83C331.13 261.65 330.42 262.27 329.58 262.61C327.32 263.53 326.28 264.7 324.47 266.04C323.05 267.09 321.98 267.22 322.06 267.65C322.17 268.2 322.89 269.18 324.44 268.99C325.22 268.89 326.28 268.48 327.6 267.92C327.6 267.92 326.31 270.27 323.76 272.49C320.3 275.5 319.8 277.62 325.56 278.67C329.17 279.33 332.43 277.6 336.53 270.11C337.71 267.95 339.56 264.55 340.62 261.61C343.36 253.98 345.44 247.21 346.85 242.51Z" fill="#FFA8A7"/>
<path d="M368.03 204.2C375.94 204.74 376.49 208.56 378.47 212.74C379.98 215.92 379.99 219.61 378.84 222.93L373.33 238.87C373.33 238.87 375.91 245.11 378.91 251C365.08 258.72 347.81 254.66 343.65 249.03C343.47 247.83 344.54 238.49 345.2 232.39C342.76 226.28 342.12 222.41 343.15 218.37C345.06 210.87 352.46 203.57 355.74 203.83L368.03 204.2Z" fill="#F73E94"/>
<path d="M360.43 197.64H363.5C372.43 197.64 379.67 190.4 379.67 181.47C379.67 172.49 372.39 165.22 363.42 165.22H360.53C351.55 165.22 344.28 172.5 344.28 181.47C344.26 190.4 351.5 197.64 360.43 197.64Z" fill="#263238"/>
<path d="M388.321 206.16C383.051 206.16 378.771 201.88 378.771 196.61V176.16C384.041 176.16 388.321 180.44 388.321 185.71V206.16Z" fill="#263238"/>
<path d="M380.52 172.53L378.13 176.38C379.19 177.09 380.59 176.8 381.25 175.74C381.9 174.68 381.58 173.24 380.52 172.53Z" fill="#263238"/>
<path d="M350.08 172.38C348.21 173.48 345.9 178.19 346.13 188.04C346.32 196.39 349.03 198.46 350.39 199.05C351.75 199.64 354.37 199.28 356.92 198.86V203.87C356.92 203.87 353.4 207.96 353.62 210.26C353.84 212.56 358.71 213.1 362.01 210.86C365.31 208.61 367.42 205.2 367.42 205.2V193.08C367.42 193.08 369.14 195.38 371.96 193.51C374.78 191.64 374.88 187.01 373.25 185.35C371.61 183.69 368.09 184.21 367.43 186.51C367.43 186.51 363.36 186.66 357.95 183.68C352.52 180.71 350.44 175.62 350.08 172.38Z" fill="#FFA8A7"/>
<path d="M356.39 185.95C356.36 186.55 356.81 187.06 357.38 187.09C357.96 187.12 358.45 186.65 358.48 186.05C358.51 185.45 358.06 184.94 357.49 184.91C356.91 184.88 356.42 185.34 356.39 185.95Z" fill="#263238"/>
<path d="M355.17 193.03L352.73 193.81C352.93 194.51 353.64 194.9 354.32 194.69C354.99 194.47 355.37 193.73 355.17 193.03Z" fill="#F28F8F"/>
<path d="M347.77 182.72L349.9 181.25C349.51 180.64 348.72 180.48 348.13 180.89C347.55 181.29 347.38 182.11 347.77 182.72Z" fill="#263238"/>
<path d="M348.26 185.19C348.23 185.79 348.68 186.3 349.25 186.33C349.83 186.36 350.32 185.89 350.35 185.29C350.38 184.69 349.93 184.18 349.36 184.15C348.79 184.12 348.29 184.59 348.26 185.19Z" fill="#263238"/>
<path d="M353.39 184.59L353.23 190.91L349.9 189.88L353.39 184.59Z" fill="#F28F8F"/>
<path d="M356.92 198.87C359.61 198.52 365.13 196.93 366 194.74C366 194.74 365.71 196.11 364.06 197.53C362.41 198.95 356.92 200.54 356.92 200.54V198.87Z" fill="#F28F8F"/>
<path opacity="0.1" d="M364.491 252.5C369.031 251.42 371.921 246.83 370.721 242.32C370.671 242.15 370.631 242 370.581 241.89C369.691 239.75 367.781 240.03 367.781 240.03C369.571 238.84 370.821 236.99 371.241 234.88L372.921 226.45C372.921 226.45 369.801 216.55 370.121 213.15L378.061 213.61C378.061 213.61 378.461 213.89 379.091 214.32C379.961 217.1 379.831 220.14 378.861 222.93L373.351 238.87C373.351 238.87 375.931 245.11 378.931 251C368.741 256.69 356.681 255.98 349.381 252.96C355.131 253.86 360.471 253.45 364.491 252.5Z" fill="black"/>
<path d="M375.921 244.78C372.991 245.56 364.111 246.61 363.451 240.37C363.021 236.29 363.221 230.11 363.491 225.44C363.901 218.07 366.531 210.98 371.101 205.18C371.321 204.9 371.451 204.74 371.451 204.74C371.451 204.74 370.171 203.69 367.411 204.18C367.411 204.18 361.411 209.87 359.581 218.15C355.611 217.57 350.591 217.14 347.251 216.89C350.051 207.71 356.911 203.89 356.911 203.89C355.431 203.11 353.391 203.83 353.391 203.83C347.871 206.98 344.971 212.31 343.631 216.64C340.451 225.46 340.561 258.28 340.621 269.94L346.111 261.2H381.141C380.691 248.66 375.921 244.78 375.921 244.78Z" fill="#37474F"/>
<path d="M393.04 236.25C393.04 236.25 389.3 228.27 384.12 216.45C380.37 207.91 379.53 205.98 373.57 205.06L371.46 204.73C368.63 214.02 370.58 218.22 374.31 224.58L381.66 238.84C384.58 238.27 393.1 237.14 393.04 236.25Z" fill="#FFA8A7"/>
<path d="M381.66 238.85C383.85 243.24 385.72 245.96 388.37 246.67C391.02 247.38 412.91 247.13 412.91 247.13V238.85L392.08 235.69L381.66 238.85Z" fill="#FFA8A7"/>
<path d="M425.43 329.76H390.99V396.85C390.83 399.51 392.49 402.2 396.01 404.24C402.74 408.13 413.65 408.13 420.38 404.24C423.75 402.29 425.43 399.75 425.43 397.2V329.76Z" fill="#F73E94"/>
<path d="M421.81 323.66H421.83C418.02 321.17 420.39 315.11 420.39 315.11H396.02C396.02 315.11 398.32 321.13 394.58 323.66H394.6C389.35 327.56 389.81 333.2 396.02 336.79C402.75 340.68 413.66 340.68 420.39 336.79C426.59 333.2 427.06 327.57 421.81 323.66Z" fill="#F73E94"/>
<path opacity="0.05" d="M421.81 323.66H421.83C418.02 321.17 420.39 315.11 420.39 315.11H396.02C396.02 315.11 398.32 321.13 394.58 323.66H394.6C389.35 327.56 389.81 333.2 396.02 336.79C402.75 340.68 413.66 340.68 420.39 336.79C426.59 333.2 427.06 327.57 421.81 323.66Z" fill="black"/>
<path opacity="0.05" d="M419.71 318.1C419.87 316.44 420.38 315.12 420.38 315.12H396.01C396.01 315.12 396.51 316.43 396.66 318.09C403.2 321.5 413.16 321.5 419.71 318.1Z" fill="black"/>
<path d="M425.43 303.39H423.39C422.61 302.55 421.61 301.76 420.38 301.04C413.65 297.15 402.74 297.15 396.01 301.04C394.78 301.75 393.78 302.54 393 303.39H390.96V308.08C390.96 310.63 392.64 313.17 396.01 315.12C402.74 319.01 413.65 319.01 420.38 315.12C423.75 313.18 425.43 310.63 425.43 308.08V303.39Z" fill="#F73E94"/>
<path d="M396.01 310.42C402.74 314.31 413.65 314.31 420.38 310.42C427.11 306.53 427.11 300.23 420.38 296.35C413.65 292.46 402.74 292.46 396.01 296.35C389.28 300.24 389.28 306.54 396.01 310.42Z" fill="#F73E94"/>
<path opacity="0.4" d="M396.01 310.42C402.74 314.31 413.65 314.31 420.38 310.42C427.11 306.53 427.11 300.23 420.38 296.35C413.65 292.46 402.74 292.46 396.01 296.35C389.28 300.24 389.28 306.54 396.01 310.42Z" fill="white"/>
<path opacity="0.2" d="M408.21 399.83C406.35 399.83 404.85 398.33 404.85 396.47V348.55C404.85 346.69 406.35 345.19 408.21 345.19C410.07 345.19 411.57 346.69 411.57 348.55V396.47C411.56 398.32 410.06 399.83 408.21 399.83Z" fill="black"/>
<path opacity="0.2" d="M419.68 397.8C418.07 398.38 416.77 397.56 416.77 395.95V347.13C416.77 345.52 418.07 343.75 419.68 343.16C421.29 342.58 422.59 343.4 422.59 345.01V393.83C422.59 395.44 421.29 397.22 419.68 397.8Z" fill="black"/>
<path opacity="0.2" d="M396.73 397.8C398.34 398.38 399.64 397.56 399.64 395.95V347.13C399.64 345.52 398.34 343.75 396.73 343.16C395.12 342.58 393.82 343.4 393.82 345.01V393.83C393.82 395.44 395.12 397.22 396.73 397.8Z" fill="black"/>
<path d="M412.91 182.71L405.87 178.65L401.43 199.54C401.43 199.54 405.87 206.79 405.87 211.48V300.6L410.52 306.03L412.9 304.66V215.54C412.9 210.85 417.34 208.72 417.34 208.72L412.91 182.71Z" fill="#E0E0E0"/>
<path d="M410.52 184.09L403.48 180.03L399.04 200.92C399.04 200.92 403.48 208.17 403.48 212.86V301.98L410.52 306.04V216.92C410.52 212.23 414.96 210.1 414.96 210.1L410.52 184.09Z" fill="#EBEBEB"/>
<path d="M403.49 180.02L405.87 178.65L412.91 182.71L410.52 184.09L403.49 180.02Z" fill="#FAFAFA"/>
<path d="M412.91 182.71L410.52 184.09L414.96 210.1L417.34 208.73L412.91 182.71Z" fill="#F5F5F5"/>
<path d="M412.91 232.28C413.27 230.71 415.76 229.82 415.51 232.45C415.26 235.07 416.52 236.9 416.88 238.12C417.63 240.69 417.46 245.54 416.45 246.49C415.44 247.44 414.15 248.55 412.22 248.41C410.3 248.26 408.94 247.81 406.95 246.26C405.33 245 403.59 237.76 407.36 238.79C412.95 240.32 412.92 236.29 412.92 236.29V232.28H412.91Z" fill="#FFA8A7"/>
<path d="M229.06 256.02C232.99 256.81 235.32 259.7 240.05 267.06C244.78 274.42 252.13 286.99 252.13 286.99L270.51 294.03L269.72 302.3C269.72 302.3 249.67 298.74 246.92 296.7C244.18 294.66 233.55 279.28 233.55 279.28L229.06 256.02Z" fill="#FFA8A7"/>
<path d="M225.77 254.51C229.85 255.23 233.89 256.22 236.39 260.11C238.9 263.99 248.05 278.86 248.05 278.86C248.05 278.86 244.71 286.68 238.64 287.86L229.9 275.27L225.77 254.51Z" fill="#E6E6E6"/>
<path d="M210.81 254.84C209.41 255.18 208 255.26 206.76 255.51C200.69 256.73 199.56 259.89 199.42 267.22C199.18 279.49 199.39 307.89 199.39 307.89C204.8 311.83 224.78 314.23 236.16 305.92C236.16 305.92 235.58 273.25 235.58 267.46C235.58 261.67 232.36 254.72 223.48 254.2L210.81 254.84Z" fill="#F5F5F5"/>
<path d="M197.984 421.448H205.834V408.008H197.984V421.448Z" fill="#FFA8A7"/>
<path d="M230.1 411.27L237.94 411.54L238.34 397.32L230.1 397.05V411.27Z" fill="#FFA8A7"/>
<path d="M237.3 305.93L235.9 274.04L211.2 278.02C211.2 278.02 211.42 283.87 210.33 293.12C209.86 297.06 206.08 302.43 199.39 304.2C199.39 304.2 198.98 308.98 199.33 319.69C199.45 323.41 197.71 364.54 197.71 364.54C197.53 366.7 195.45 370.53 195.29 378.3C195.06 389.57 197.68 414.73 197.68 414.73C197.68 414.73 201.49 416.96 206.42 414.9C206.42 414.9 211.7 378.74 213.1 367.59C214.33 357.86 219.45 330.48 219.45 330.48L225.45 363.38C225.45 363.38 224 369.19 224.48 375.86C224.85 381.02 229.62 406.86 229.62 406.86C229.62 406.86 233.32 409.37 238.68 407.55C238.68 407.55 239.15 366.99 239.24 362.25C239.33 356.87 237.3 305.93 237.3 305.93Z" fill="#37474F"/>
<path d="M235.89 274.04C235.63 267.73 234.75 261.9 229.31 256.44C227.83 254.96 225.81 254.16 223.72 254.16H222.56C222.56 254.16 228.02 258.49 230.15 264.77C232 270.22 231.88 277.01 231.88 277.01L235.89 274.04Z" fill="#37474F"/>
<path d="M205.84 417.57V416.45C206.26 416.44 206.52 416.86 206.68 417.87C206.79 418.59 206.9 419.14 207.14 420.09C207.5 421.54 207.83 422.43 208.51 424.11C209.62 426.85 210.55 427.86 213.09 431.06C213.69 431.82 215.05 433.02 215.53 433.87C216 434.71 216.17 437.07 215.37 437.6C212.41 439.58 207.9 439.63 204.72 438.7C202.27 437.98 200.5 436.03 200.1 433.51C199.98 432.79 200.03 432.05 199.94 431.32C199.75 429.66 198.92 428.14 197.97 426.76C197.42 425.96 196.83 425.18 196.46 424.28C195.8 422.67 196.33 420.85 196.75 419.24C197.11 417.85 197.51 416.33 197.98 416.46C197.98 416.63 197.98 417.32 197.98 417.32C198.55 417.95 200.13 418.58 201.91 418.65C203.06 418.68 205.85 418.45 205.84 417.57Z" fill="#263238"/>
<path d="M238.03 409.12C238.44 409.13 238.77 409.71 239.67 410.68C240.76 411.86 242.53 413.12 244.29 414C247.23 415.47 252.95 417.74 255.53 418.9C257.15 419.63 257.07 421.58 255.4 422.69C253.73 423.8 249.7 424.6 244.85 423.52C242.21 422.93 238.78 420.49 236.6 420.63C234.43 420.76 230.36 420.73 228.75 419.62C227.15 418.51 227.79 416.15 228.24 414.12C228.73 411.91 229.35 408.45 230.09 408.6V409.36C231.03 410.79 235.9 411.37 237.98 410.32L238.03 409.12Z" fill="#263238"/>
<path d="M219.43 330.48C219.43 330.48 225.7 328.71 230.36 324.21C230.36 324.21 228.25 328.16 221.98 331.84L225.02 361.11L219.43 330.48Z" fill="#263238"/>
<path d="M224.72 239.54C230.679 239.54 235.51 234.709 235.51 228.75C235.51 222.791 230.679 217.96 224.72 217.96C218.761 217.96 213.93 222.791 213.93 228.75C213.93 234.709 218.761 239.54 224.72 239.54Z" fill="#263238"/>
<path d="M206.07 236.42C206.07 236.42 207.82 244.63 208.52 245.98C209.22 247.33 210.67 247.71 210.67 247.71L210.55 241.93L206.07 236.42Z" fill="#263238"/>
<path d="M208.26 224.65C208.26 224.65 206.38 224.33 204.91 225.83C203.47 227.3 204.27 231.91 206.07 236.42L209.36 236.8L208.26 224.65Z" fill="#263238"/>
<path d="M210.35 236.8C209.69 237.19 208.75 235.93 207.93 235.07C207.12 234.22 204.46 233.05 203.13 235.85C201.78 238.7 204.3 242.46 206.39 243.12C210 244.25 210.54 241.94 210.54 241.94L210.81 255.35C215.29 261.1 227.74 260.61 222.55 254.61L222.54 250.65C222.54 250.65 225.81 251.15 227.4 250.9C230.05 250.49 231.72 248.4 232.53 245.53C233.82 240.92 234.31 237.19 233.22 228.12C232.02 218.18 220.45 218.07 214.21 222.01C207.97 225.93 210.35 236.8 210.35 236.8Z" fill="#FFA8A7"/>
<path d="M211.18 279.96C211.36 271.8 209.5 259.7 206.76 255.52C206.76 255.52 208.7 254.56 210.81 254.85C210.81 254.85 215.95 262.85 215.73 279.96H211.18Z" fill="#37474F"/>
<path d="M210.35 237.91C210.02 237.92 208.75 235.82 207.93 235.07C206.79 234.03 208.26 224.65 208.26 224.65C208.26 224.65 206.85 222 209.04 219.58C210.6 217.86 212.78 215.77 219.86 216.6C224.91 217.2 230.4 218.77 234.84 216.59C235.5 219.35 234.97 222.43 232.21 224.61C232.21 224.61 230.6 225.65 226.38 226.16C222.15 226.67 215.57 226.06 214.67 225.94C213.44 225.77 213.18 226.96 212.52 230.2C211.95 233.06 211.46 237.89 210.35 237.91Z" fill="#263238"/>
<path d="M208.27 225.38L204.28 223.24C204.85 222.1 206.2 221.65 207.3 222.24C208.4 222.83 208.83 224.24 208.27 225.38Z" fill="#263238"/>
<path d="M222.55 250.64C222.55 250.64 216.63 249.45 214.56 248.35C213.17 247.61 212.03 246.34 211.7 245.52C211.7 245.52 212.09 247.28 213.33 248.86C214.84 250.8 222.56 252.22 222.56 252.22L222.55 250.64Z" fill="#F28F8F"/>
<path d="M222.32 236.07C222.32 236.75 221.79 237.3 221.13 237.3C220.47 237.3 219.94 236.74 219.94 236.06C219.94 235.38 220.47 234.83 221.13 234.83C221.79 234.83 222.32 235.39 222.32 236.07Z" fill="#263238"/>
<path d="M221.07 231.59L218.53 232.99C218.16 232.26 218.42 231.36 219.12 230.97C219.82 230.58 220.69 230.86 221.07 231.59Z" fill="#263238"/>
<path d="M222.01 243.51L224.72 244.53C224.45 245.31 223.63 245.71 222.88 245.43C222.13 245.15 221.74 244.29 222.01 243.51Z" fill="#F28F8F"/>
<path d="M232.911 232.58L230.601 230.8C231.071 230.14 231.971 230 232.611 230.49C233.241 230.98 233.381 231.91 232.911 232.58Z" fill="#263238"/>
<path d="M232.191 235.73C232.191 236.41 231.661 236.96 231.001 236.96C230.341 236.96 229.811 236.4 229.811 235.72C229.811 235.04 230.341 234.49 231.001 234.49C231.661 234.5 232.191 235.05 232.191 235.73Z" fill="#263238"/>
<path d="M225.841 234.83L226.231 241.97L229.951 240.7L225.841 234.83Z" fill="#F28F8F"/>
<path d="M282.459 248.09C282.469 245.9 284.299 242.83 283.739 241.19L279.679 238.84L271.549 259.29L263.249 264.01L259.149 258.03L271.419 239.72L267.359 237.37C266.849 237.61 266.329 237.87 265.799 238.17C256.529 243.44 248.959 256.42 248.889 267.17C248.849 272.59 250.739 276.39 253.789 278.16L257.839 280.5L258.309 279.27C258.409 279.27 258.509 279.28 258.609 279.27V374.42C252.909 380.77 248.939 389.68 248.889 397.45C248.859 401.48 249.889 404.61 251.669 406.69L255.729 409.04L259.799 386.24L268.099 381.52L272.199 387.5L263.989 408.15L268.049 410.5C268.049 410.5 282.389 389.1 282.459 378.36C282.479 375.2 281.839 372.61 280.709 370.63L281.719 369.78L277.689 367.45L277.699 367.46C276.279 366.6 274.609 366.18 272.739 366.25V271.1C278.439 264.77 282.409 255.86 282.459 248.09Z" fill="#455A64"/>
<path d="M258.6 374.43L262.66 376.78V281.63L258.6 279.28V374.43Z" fill="#263238"/>
<path d="M276.799 368.62V273.47C282.499 267.12 286.469 258.21 286.519 250.44C286.549 246.41 285.519 243.28 283.739 241.2L275.609 261.65L267.309 266.37L263.209 260.39L271.419 239.74C270.909 239.98 270.389 240.24 269.859 240.54C260.589 245.81 253.019 258.79 252.949 269.54C252.899 277.42 256.889 281.88 262.669 281.64V376.79C256.969 383.14 252.999 392.05 252.949 399.82C252.919 403.85 253.949 406.98 255.729 409.06L263.859 388.61L272.159 383.89L276.259 389.87L268.049 410.52C268.559 410.28 269.079 410.02 269.609 409.72C278.879 404.45 286.449 391.47 286.519 380.72C286.569 372.85 282.579 368.39 276.799 368.62Z" fill="#37474F"/>
<path d="M270.389 384.89L272.159 383.89L276.259 389.87L268.049 410.52L263.989 408.18L272.199 387.52L270.389 384.89Z" fill="#263238"/>
<path d="M276.8 290.4C276.8 291.93 274.48 293.63 272.77 294.7C271.06 295.77 268.92 297.26 269.72 300.35C270.53 303.44 273.85 304.23 275.54 303.41C277.22 302.59 278.89 301.18 279.31 298.33C279.73 295.48 280.69 288.66 276.79 287.86V290.4H276.8Z" fill="#FFA8A7"/>
<path d="M183.63 298.58C190.39 268.23 194.62 261.62 204.03 258.11L202.75 276.36C202.75 276.36 193.93 296.02 192.6 302.98C191.43 309.09 190.13 316.77 190.33 322C190.37 322.93 190.77 323.8 191.41 324.47C193.13 326.26 193.63 327.78 194.76 329.78C195.65 331.34 196.6 331.92 196.34 332.28C196.01 332.74 194.94 333.36 193.57 332.54C192.88 332.13 192.07 331.3 191.07 330.24C191.07 330.24 191.29 332.97 192.76 336.09C194.74 340.32 194.33 342.51 188.53 341.11C184.9 340.23 182.57 337.27 181.84 328.6C181.63 326.1 181.31 322.16 181.54 318.99C182.14 310.71 182.54 303.46 183.63 298.58Z" fill="#FFA8A7"/>
<path d="M204.85 256.02C204.85 256.02 201.159 256.02 198.059 258.1C195.699 259.69 191.769 266.1 189.279 274.03C186.789 281.96 185.479 286.36 185.479 286.36C185.479 286.36 189.559 292.57 198.359 290.12C198.359 290.12 203.319 277.72 203.029 278.51C203.029 278.52 209.59 266.29 204.85 256.02Z" fill="#E6E6E6"/>
</svg>
