<svg width="158" height="155" viewBox="0 0 158 155" fill="none" xmlns="http://www.w3.org/2000/svg">
<g clip-path="url(#clip0_1030_260)">
<path d="M65.6599 4.21892C65.6599 4.21892 12.2017 6.54237 9.1688 53.5575C6.13592 100.573 -7.89265 145.307 26.2297 147.977C60.3521 150.647 140.35 155.834 151.724 127.824C163.098 99.8146 168.785 -5.64415 65.6599 4.21892Z" fill="#F4F7FA"/>
<path d="M51.0265 58.4223C50.3699 57.5366 49.7219 55.0299 49.8222 54.307C50.4907 49.4957 51.1575 40.4056 55.0594 37.0671C55.7257 36.4967 59.0254 38.7517 59.9845 38.5895C62.4373 39.5162 63.2303 39.99 65.9947 39.7259C74.1564 38.9458 74.7731 22.2073 87.2109 29.0143C96.3214 34.0008 99.6686 42.3992 110.012 30.9582C120.355 19.5178 149.015 8.85847 152.553 28.0062C154.584 38.9954 138.594 41.2525 134.969 51.4029C131.526 61.0482 123.39 63.4849 112.668 60.2849C101.946 57.0849 102.508 63.7684 98.1942 71.8531C93.0125 81.5647 80.5058 71.2509 75.1376 65.997C70.8163 61.7663 56.9548 53.9086 51.0265 58.4223Z" fill="url(#paint0_linear_1030_260)"/>
<mask id="mask0_1030_260" style="mask-type:luminance" maskUnits="userSpaceOnUse" x="43" y="17" width="110" height="59">
<path d="M54.2955 34.3641C50.7262 41.0525 46.8184 47.7108 43.1871 54.4267C45.9262 57.7749 49.2297 61.6466 53.71 58.6569C59.9392 54.5 70.8605 61.7463 75.1569 65.997C80.4745 71.2579 93.026 81.5609 98.1963 71.8525C102.501 63.7706 101.949 57.0838 112.669 60.2849C123.389 63.486 131.524 61.0477 134.97 51.4024C138.596 41.2525 154.58 38.9981 152.553 28.0062C149.022 8.85308 120.341 19.5264 110.018 30.956C99.695 42.3857 96.2605 34.0294 87.227 29.0073C74.8944 22.1507 73.8912 39.0671 66.1224 39.6574C60.0335 40.1199 58.5251 37.314 54.2955 34.3641Z" fill="white"/>
</mask>
<g mask="url(#mask0_1030_260)">
<path d="M52.2179 46.0917L52.2988 45.8718C86.2222 58.2858 123.835 49.2276 152.912 21.6416L153.073 21.812C139.293 34.8858 122.962 44.1322 105.846 48.551C87.8524 53.1958 69.3079 52.3456 52.2179 46.0917Z" fill="#FCFDFE"/>
<path d="M96.5047 76.136C92.2114 67.2374 81.3802 55.8681 72.3602 50.7932L72.4751 50.5889C81.5306 55.6843 92.405 67.0988 96.716 76.0342L96.5047 76.136Z" fill="#FCFDFE"/>
<path d="M58.9053 48.4525L58.922 48.2185C64.2886 48.5948 69.6395 46.2433 74.8255 41.2298C78.6282 37.5538 82.2557 32.5581 85.6066 26.3818L85.8126 26.494C82.4497 32.6913 78.8082 37.7058 74.9883 41.3986C69.7522 46.46 64.3414 48.8336 58.9053 48.4525Z" fill="#FCFDFE"/>
<path d="M108.251 47.8283L108.256 47.5938C118.408 47.7824 127.078 54.0164 132.563 59.2121L132.402 59.3824C126.947 54.2148 118.328 48.0159 108.251 47.8283Z" fill="#FCFDFE"/>
<path d="M129.756 39.0051L129.607 38.825C138.399 31.507 141.087 19.804 141.907 13.4795L142.14 13.5097C141.315 19.8682 138.61 31.6353 129.756 39.0051Z" fill="#FCFDFE"/>
</g>
<mask id="mask1_1030_260" style="mask-type:luminance" maskUnits="userSpaceOnUse" x="17" y="2" width="108" height="122">
<path d="M34.0912 123.8C28.5737 120.315 23.1219 116.698 17.7408 112.95C17.6065 112.994 21.3586 99.3069 30.4357 95.2794C48.2648 87.5866 45.3327 72.2896 46.0896 64.3316C46.7165 52.9144 53.882 41.8756 63.6615 48.8729C73.3009 55.4384 84.4631 34.5505 90.0265 17.1128C92.0702 8.33165 104.064 1.89392 112.682 3.02815C121.567 3.99041 127.077 12.5241 122.303 29.7171C117.624 49.9996 98.992 55.2238 89.7904 62.3538C80.7456 69.3478 89.0055 81.9122 76.0906 85.937C65.0561 89.709 52.8869 90.5424 52.4631 101.236C52.1834 111.872 48.0378 118.83 34.0912 123.8Z" fill="white"/>
</mask>
<g mask="url(#mask1_1030_260)">
<path d="M34.0912 123.8C28.5737 120.316 23.1219 116.699 17.7408 112.95C17.6065 112.995 21.3586 99.3073 30.4357 95.2798C48.2648 87.5871 45.3327 72.29 46.0896 64.3321C46.7505 52.9386 53.3683 43.2167 63.3791 47.4669C74.578 51.965 84.6664 34.6011 90.0265 17.1138C92.0702 8.33263 104.064 1.89489 112.682 3.02913C121.567 3.99139 127.077 12.5251 122.303 29.7181C117.624 50.0006 98.992 55.2248 89.7904 62.3547C80.7456 69.3488 89.0055 81.9132 76.0906 85.938C65.0561 89.71 52.8869 90.5434 52.4631 101.237C52.1834 111.872 48.0378 118.83 34.0912 123.8Z" fill="url(#paint1_linear_1030_260)"/>
</g>
<mask id="mask2_1030_260" style="mask-type:luminance" maskUnits="userSpaceOnUse" x="17" y="2" width="108" height="122">
<path d="M34.0912 123.8C28.5737 120.315 23.1219 116.698 17.7408 112.95C17.6065 112.994 21.3586 99.3069 30.4357 95.2794C48.2648 87.5866 45.3327 72.2896 46.0896 64.3316C46.7165 52.9144 53.882 41.8756 63.6615 48.8729C73.3009 55.4384 84.4632 34.5505 90.0265 17.1128C92.0702 8.33165 104.064 1.89392 112.682 3.02815C121.567 3.99041 127.077 12.5241 122.303 29.7171C117.624 49.9996 98.992 55.2238 89.7904 62.3538C80.7456 69.3478 89.0055 81.9122 76.0906 85.937C65.0561 89.709 52.8869 90.5424 52.4631 101.236C52.1834 111.872 48.0378 118.83 34.0912 123.8Z" fill="white"/>
</mask>
<g mask="url(#mask2_1030_260)">
<path d="M25.564 120.928C25.613 120.813 43.2189 96.3144 64.6001 74.3441C67.827 70.6875 71.1882 67.0438 74.4384 63.5204C92.5397 43.8977 109.638 25.3635 112.394 -2.45215L112.781 -2.41387C110.011 25.5317 92.8712 44.1123 74.7241 63.784C71.475 67.3058 68.1154 70.9479 64.8847 74.6082C43.3877 96.6977 26.006 120.935 25.9149 121.094L25.564 120.928Z" fill="#BEB8F2"/>
<path d="M91.0842 45.2792L90.9257 44.9244C100.743 40.5314 113.287 33.6614 120.025 29.9708C125.479 26.9837 125.494 26.9918 125.662 27.1013L125.557 27.2646L125.571 27.4549C125.321 27.5137 123.066 28.7482 120.212 30.3115C113.469 34.0048 100.917 40.8792 91.0842 45.2792Z" fill="#BEB8F2"/>
<path d="M97.4309 36.059C99.7716 27.1215 98.7797 20.1118 97.5349 15.8051C96.1791 11.114 94.1694 8.34256 93.8627 8.13501L93.9473 8.00994L93.9053 7.76897C94.0201 7.74903 94.1101 7.8191 94.2357 7.95603C96.0373 9.91452 101.923 20.4412 97.8066 36.1571L97.4309 36.059Z" fill="#BEB8F2"/>
<path d="M51.5343 89.1449L51.2001 88.9465C60.578 73.1487 56.1489 52.567 53.8087 44.4511C53.6831 44.015 53.6427 43.8737 53.6356 43.8058L54.0222 43.7638L53.8292 43.7848L54.0222 43.7627C54.0292 43.8107 54.1003 44.0576 54.1828 44.3433C55.8702 50.1961 56.8949 56.0166 57.2281 61.6425C57.8669 72.4506 55.9516 81.7034 51.5343 89.1449Z" fill="#BEB8F2"/>
<path d="M57.813 82.1369L57.5936 81.8161C69.7198 73.532 84.9651 79.3018 85.1947 79.4361C85.1958 79.4366 85.1963 79.4372 85.1969 79.4377L85.2556 79.6625L85.0567 79.7832L85.0745 79.5913L84.9845 79.7606C84.8454 79.6943 69.8184 73.9358 57.813 82.1369Z" fill="#BEB8F2"/>
<path d="M28.5042 116.953C30.1289 113.625 31.475 107.316 28.6653 96.1712C28.5058 95.5388 28.5058 95.5388 28.5597 95.4531L28.8891 95.6601L28.7246 95.5566L28.9176 95.5545C28.9225 95.5997 28.9785 95.8208 29.0427 96.0768C31.8815 107.336 30.5068 113.737 28.854 117.125L28.5042 116.953Z" fill="#BEB8F2"/>
<path d="M33.1775 111.409L32.8799 111.158C37.3058 105.896 47.6874 105.215 53.482 105.277C53.6659 105.279 53.7839 105.281 53.8276 105.278L53.8497 105.666C53.8028 105.669 53.6756 105.668 53.4777 105.666C47.7521 105.604 37.5009 106.269 33.1775 111.409Z" fill="#BEB8F2"/>
</g>
<path d="M10.5348 133.118C7.55745 133.292 5.12402 131.211 5.12402 128.478V29.9852C5.12402 27.2526 7.55745 25.1173 10.5348 25.2256L151.061 30.3248C153.337 30.4073 155.182 32.4062 155.182 34.7803V120.36C155.182 122.735 153.337 124.774 151.061 124.908L10.5348 133.118Z" fill="url(#paint2_linear_1030_260)"/>
<path d="M102.152 144.019C99.9057 143.238 98.227 141.238 97.7536 138.779L94.4846 121.804L66.5197 122.846L63.0782 140.53C62.5962 143.007 64.5256 145.492 66.7477 146.404L78.4474 151.207C80.6237 152.1 82.9628 152.456 85.2873 152.247L110.013 150.028C110.736 149.963 111.316 149.367 111.4 148.602C111.484 147.837 111.99 146.978 111.301 146.738L102.152 144.019Z" fill="url(#paint3_linear_1030_260)"/>
<path d="M102.429 142.987C100.185 142.215 98.5079 140.241 98.0346 137.813L94.7688 121.051L67.4858 122.08L64.0475 139.543C63.5661 141.989 64.84 144.441 67.0599 145.342L78.7483 150.084C80.9224 150.966 83.2588 151.318 85.5817 151.112L110.283 148.92C111.005 148.856 111.584 148.267 111.669 147.512C111.753 146.757 111.318 146.044 110.63 145.808L102.429 142.987Z" fill="url(#paint4_linear_1030_260)"/>
<path d="M11.6475 133.118C8.67066 133.292 6.23669 131.211 6.23669 128.478V29.9852C6.23669 27.2526 8.67012 25.1173 11.6475 25.2256L152.174 30.3248C154.45 30.4073 156.295 32.4062 156.295 34.7803V120.36C156.295 122.735 154.45 124.774 152.174 124.908L11.6475 133.118Z" fill="url(#paint5_linear_1030_260)"/>
<path d="M152.174 32.3376L11.6474 27.5214C10.0555 27.467 8.76172 28.606 8.76172 30.0659V106.696V128.342C8.76172 129.802 10.0555 130.912 11.6474 130.822L152.174 122.895C153.394 122.826 154.381 121.738 154.381 120.464V100.906V34.7192C154.381 33.4459 153.394 32.3796 152.174 32.3376Z" fill="url(#paint6_linear_1030_260)"/>
<path d="M11.6475 122.448C11.0275 122.478 10.5229 122.041 10.5229 121.474V30.1226C10.5229 29.5549 11.0275 29.1091 11.6475 29.1296L152.174 33.7474C152.65 33.763 153.036 34.1803 153.036 34.6767V114.61C153.036 115.107 152.649 115.531 152.174 115.554L11.6475 122.448Z" fill="white"/>
<path d="M147.388 110.628L17.8114 116.319V42.7812L147.388 45.5015V110.628Z" fill="url(#paint7_linear_1030_260)"/>
<path d="M147.388 43.2771L17.8114 40.2696V33.9893L147.388 37.7149V43.2771Z" fill="url(#paint8_linear_1030_260)"/>
<path d="M137.547 40.2402C137.547 40.6375 137.234 40.9513 136.848 40.9416C136.462 40.9319 136.148 40.6014 136.148 40.2035C136.148 39.8057 136.462 39.492 136.848 39.5022C137.233 39.513 137.547 39.8434 137.547 40.2402Z" fill="white"/>
<path d="M140.414 40.3147C140.414 40.7109 140.103 41.0241 139.719 41.0144C139.335 41.0047 139.023 40.6753 139.023 40.2786C139.023 39.8818 139.335 39.5686 139.719 39.5794C140.103 39.5891 140.414 39.9185 140.414 40.3147Z" fill="white"/>
<path d="M143.266 40.3892C143.266 40.7844 142.956 41.0965 142.575 41.0868C142.192 41.0771 141.883 40.7488 141.883 40.3531C141.883 39.9574 142.193 39.6453 142.575 39.6555C142.956 39.6658 143.266 39.9946 143.266 40.3892Z" fill="white"/>
<g opacity="0.68">
<path d="M121.162 98.8924L20.6378 102.049V44.6924L121.162 46.6379V98.8924Z" fill="white"/>
</g>
<path opacity="0.68" d="M146.004 61.8288L122.921 61.7199V46.6719L146.004 47.1182V61.8288Z" fill="white"/>
<path d="M146.004 64.5232L122.921 64.4763V63.3496L146.004 63.4213V64.5232Z" fill="white"/>
<path d="M137.415 66.4247L122.921 66.4226V65.2959L137.415 65.3137V66.4247Z" fill="white"/>
<path opacity="0.68" d="M146.004 83.4078L122.921 83.7948V68.7463L146.004 68.6973V83.4078Z" fill="white"/>
<path d="M146.004 86.1029L122.921 86.5514V85.4247L146.004 85.001V86.1029Z" fill="white"/>
<path d="M137.415 88.1882L122.921 88.4976V87.3704L137.415 87.0771V88.1882Z" fill="white"/>
<path opacity="0.68" d="M146.004 104.988L122.921 105.87V90.8224L146.004 90.2773V104.988Z" fill="white"/>
<path d="M146.004 107.683L122.921 108.627V107.501L146.004 106.581V107.683Z" fill="white"/>
<path d="M137.415 109.953L122.921 110.573V109.447L137.415 108.842V109.953Z" fill="white"/>
<path d="M90.2038 105.928L20.6378 108.51V104.74L90.2038 102.39V105.928Z" fill="white"/>
<path d="M121.162 104.78L111.237 105.148V101.679L121.162 101.345V104.78Z" fill="white"/>
<path d="M109.704 105.205L99.5553 105.582V102.074L109.704 101.731V105.205Z" fill="white"/>
<path d="M52.4642 111.758L20.6378 113.068V111.182L52.4642 109.926V111.758Z" fill="white"/>
<path d="M15.0339 142.773L14.3778 142.086C13.3315 140.99 13.415 139.264 14.5649 138.235L59.6398 97.8936L63.7541 102.573L18.9892 142.888C17.8474 143.916 16.077 143.866 15.0339 142.773Z" fill="url(#paint9_linear_1030_260)"/>
<path d="M104.989 59.0066C93.6193 45.0125 73.4592 42.7532 59.9832 54.447C46.2598 66.3554 45.153 87.7241 57.47 101.669C69.498 115.287 89.5676 116.333 102.345 104.483C114.901 92.8362 116.099 72.6821 104.989 59.0066ZM61.3897 98.15C51.1315 86.4562 52.0684 68.5963 63.5099 58.6125C74.7789 48.7796 91.704 50.5942 101.295 62.323C110.702 73.8265 109.701 90.8303 99.0824 100.629C88.3067 110.572 71.4458 109.613 61.3897 98.15Z" fill="url(#paint10_linear_1030_260)"/>
<path opacity="0.3" d="M59.6399 97.8926L53.8927 103.037C54.4237 105.384 54.0981 107.021 53.545 108.183C51.4641 112.554 45.5321 111.592 40.7585 117.799C38.3633 120.915 39.4501 121.685 37.0215 124.21C33.0065 128.384 29.5423 126.789 26.0113 130.531C22.4399 134.316 23.7633 138.302 21.214 139.319C20.1234 139.755 18.3951 139.615 15.5073 137.391L14.5644 138.234C13.4145 139.263 13.331 140.989 14.3773 142.085L15.0334 142.772C16.0765 143.865 17.8469 143.915 18.9887 142.887L63.7536 102.571L59.6399 97.8926Z" fill="url(#paint11_linear_1030_260)"/>
<path d="M106.637 59.8943C95.2674 45.9002 75.1073 43.6409 61.6313 55.3347C47.9078 67.2431 46.8011 88.6118 59.1181 102.557C71.1461 116.175 91.2157 117.22 103.993 105.37C116.549 93.7245 117.747 73.5703 106.637 59.8943ZM63.0372 99.0377C52.779 87.3439 53.7159 69.484 65.1574 59.5002C76.4264 49.6673 93.3515 51.4819 102.942 63.2107C112.349 74.7142 111.349 91.718 100.73 101.516C89.9542 111.46 73.0933 110.501 63.0372 99.0377Z" fill="url(#paint12_linear_1030_260)"/>
<path d="M105.332 61.0656C94.5897 47.8737 75.5741 45.775 62.8808 56.8112C49.9682 68.0381 48.9213 88.1621 60.5062 101.31C71.835 114.167 90.7698 115.186 102.841 104.011C114.715 93.0176 115.844 73.974 105.332 61.0656ZM63.0372 99.0381C52.779 87.3443 53.7159 69.4845 65.1574 59.5007C76.4264 49.6678 93.3515 51.4823 102.942 63.2112C112.349 74.7147 111.349 91.7184 100.73 101.517C89.9542 111.46 73.0932 110.501 63.0372 99.0381Z" fill="url(#paint13_linear_1030_260)"/>
<path d="M65.4771 37.1563C67.2712 38.0668 69.5245 37.2301 70.51 35.2878C71.496 33.3455 70.8404 31.0328 69.0469 30.1223C68.9542 30.0749 68.8593 30.0355 68.7639 29.9978C69.097 28.9228 69.3477 27.8398 69.5164 26.7563C69.6194 26.7557 69.7224 26.7541 69.8275 26.7449C71.8739 26.5622 73.4976 24.6813 73.4545 22.5439C73.4113 20.4064 71.717 18.822 69.6706 19.0048C69.5639 19.0145 69.4588 19.0312 69.3542 19.0501C69.1402 17.9908 68.8474 16.9563 68.4776 15.9546C68.572 15.8997 68.6652 15.8425 68.7569 15.7784C70.5073 14.5514 71.0669 12.1304 70.0059 10.3708C68.945 8.61124 66.6663 8.17944 64.9154 9.40639C64.8259 9.46947 64.7412 9.53739 64.6577 9.60585C63.966 8.84143 63.2076 8.13308 62.3865 7.48671C62.4442 7.39184 62.5008 7.29642 62.5515 7.19561C63.5375 5.25329 64.8253 3.13146 63.0178 2.24898C58.8356 0.20801 57.0415 1.95626 56.0555 3.89857C56.0043 3.99938 55.9607 4.10127 55.9181 4.2037C54.9116 3.92283 53.8922 3.72877 52.8669 3.62203C52.8733 3.51421 52.8782 3.40585 52.876 3.29642C52.8329 1.15895 53.4669 0.00207955 51.4124 -0.0372736C46.9326 -0.123527 45.4221 1.82095 45.4652 3.95842C45.4674 4.07001 45.4771 4.17944 45.4879 4.28779C44.4615 4.58052 43.4534 4.95464 42.4722 5.40747C42.4253 5.31205 42.3774 5.21717 42.3218 5.12553C41.2609 3.36596 38.9822 2.93416 37.2313 4.16111C35.4809 5.38807 34.9213 7.80909 35.9822 9.56866C36.0367 9.65868 36.096 9.74332 36.1563 9.82634C35.3811 10.6021 34.655 11.4441 33.9844 12.3476C33.8976 12.2932 33.8097 12.2398 33.7165 12.1929C31.9224 11.2824 29.669 12.1191 28.6836 14.0614C27.6976 16.0037 28.3531 18.3164 30.1466 19.2269C30.2394 19.2743 30.3342 19.3137 30.4297 19.3514C30.0965 20.4263 29.8453 21.5094 29.6771 22.5929C29.5741 22.5935 29.4712 22.5951 29.3666 22.6042C27.3202 22.787 25.696 24.6678 25.7396 26.8053C25.7828 28.9428 27.4771 30.5271 29.5235 30.3444C29.6302 30.3347 29.7353 30.318 29.8399 30.2997C30.0539 31.359 30.3472 32.3935 30.7164 33.3951C30.6221 33.4501 30.5288 33.5072 30.4372 33.5714C28.6868 34.7983 28.1272 37.2193 29.1881 38.9789C30.2491 40.7385 33.7596 41.5557 35.51 40.3288C35.5995 40.2657 34.4523 39.8129 34.5359 39.7439C35.2275 40.5083 35.986 41.2166 36.807 41.863C36.7493 41.9573 36.6927 42.0533 36.6421 42.1541C35.6561 44.0964 36.3116 46.4091 38.1051 47.3196C39.8992 48.2301 42.1526 47.3935 43.138 45.4511C43.1892 45.3503 43.2329 45.2484 43.2755 45.146C44.2819 45.4269 45.3014 45.6209 46.3267 45.7277C46.3202 45.8355 46.3154 45.9439 46.3175 46.0533C46.3607 48.1908 48.055 49.7751 50.1014 49.5924C52.1477 49.4096 53.772 47.5288 53.7283 45.3913C53.7262 45.2797 53.7164 45.1703 53.7057 45.0619C54.7321 44.7692 55.7402 44.3951 56.7213 43.9422C56.7682 44.0377 56.8162 44.1325 56.8717 44.2242C57.9326 45.9837 60.2113 46.4156 61.9623 45.1886C63.7127 43.9616 64.2722 41.5406 63.2119 39.7811C63.1574 39.691 63.0981 39.6069 63.0377 39.5234C63.8129 38.7476 64.5391 37.9056 65.2097 37.0021C65.296 37.056 65.3844 37.1094 65.4771 37.1563ZM43.1165 37.4441C36.6032 34.1385 34.2248 25.7417 37.8038 18.6894C41.3828 11.6371 49.5644 8.59938 56.0776 11.9045C62.5908 15.2102 64.9693 23.6064 61.3903 30.6592C57.8113 37.7121 49.6297 40.7498 43.1165 37.4441Z" fill="#26264F"/>
<path d="M69.827 26.7448C71.8733 26.562 73.4971 24.6812 73.4539 22.5437C73.4108 20.4062 71.7165 18.8219 69.6701 19.0046C69.5634 19.0143 69.4582 19.031 69.3537 19.0499C69.1396 17.9906 68.8469 16.9561 68.4771 15.9545C68.5714 15.8995 68.6647 15.8424 68.7564 15.7782C70.5068 14.5513 72.6723 11.5868 71.4372 9.94533C69.0922 6.82996 66.6663 8.17929 64.9154 9.4057C64.8259 9.46878 64.7413 9.5367 64.6577 9.60517C63.9661 8.84074 63.2076 8.13239 62.3865 7.48603C62.4442 7.39169 62.5008 7.29573 62.5515 7.19492C63.0879 6.13778 63.1353 4.97228 62.7806 3.98145C61.09 6.95826 59.4221 9.94748 57.7844 12.9529C62.9806 16.7593 64.6361 24.2618 61.3898 30.6585C58.6388 36.0796 53.1687 39.1238 47.827 38.7437C47.5887 39.3615 47.3547 39.9831 47.0997 40.5949C46.4076 42.2558 45.6216 43.8823 44.834 45.507C45.3294 45.6003 45.827 45.6736 46.3256 45.7259C46.3192 45.8337 46.3143 45.9421 46.3165 46.0515C46.3596 48.189 47.6577 50.0046 51.3666 49.8073C53.4183 49.6979 53.7704 47.527 53.7272 45.3895C53.7251 45.2779 53.7159 45.1685 53.7046 45.0602C54.731 44.7674 55.7391 44.3928 56.7202 43.9405C56.7671 44.0359 56.8151 44.1308 56.8706 44.2224C57.9316 45.982 61.6097 46.7292 63.3607 45.5022C65.1116 44.2752 64.2712 41.5389 63.2103 39.7793C63.1558 39.6893 63.0965 39.6046 63.0361 39.5216C63.8113 38.7459 64.5375 37.9038 65.2081 37.0003C65.2949 37.0548 65.3828 37.1081 65.476 37.155C67.2701 38.0655 69.5235 37.2289 70.5089 35.2866C71.4949 33.3442 70.8394 31.0316 69.0458 30.1211C68.9531 30.0736 68.8582 30.0343 68.7628 29.9965C69.096 28.9216 69.3467 27.8386 69.5154 26.755C69.6189 26.7561 69.7224 26.7545 69.827 26.7448Z" fill="#26264F"/>
<path d="M67.4065 37.3752C69.2006 38.2857 71.454 37.449 72.4394 35.5067C73.4254 33.5644 72.7699 31.2517 70.9763 30.3412C70.8836 30.2943 70.7887 30.2544 70.6933 30.2167C71.0265 29.1418 71.2777 28.0587 71.4459 26.9752C71.5488 26.9746 71.6518 26.973 71.7569 26.9639C73.8033 26.7811 75.427 24.9003 75.3839 22.7628C75.3407 20.6253 73.6464 19.041 71.6001 19.2237C71.4933 19.2334 71.3882 19.2501 71.2836 19.269C71.0696 18.2097 70.7763 17.1752 70.4071 16.1736C70.5014 16.1186 70.5947 16.0614 70.6863 15.9973C72.4367 14.7703 72.9963 12.3493 71.9354 10.5897C70.8744 8.83017 68.5957 8.39837 66.8448 9.62532C66.7553 9.68839 66.6707 9.75632 66.5871 9.82478C65.8955 9.06036 65.137 8.35201 64.316 7.70564C64.3736 7.6113 64.4302 7.51535 64.4814 7.41454C65.4674 5.47222 64.8119 3.15955 63.0184 2.24904C61.2243 1.33853 58.9709 2.17518 57.9855 4.1175C57.9343 4.21831 57.8906 4.3202 57.848 4.42262C56.8416 4.14176 55.8221 3.94769 54.7968 3.84095C54.8033 3.73314 54.8081 3.62478 54.806 3.51534C54.7629 1.37788 53.0685 -0.206488 51.0221 -0.023739C48.9758 0.15901 47.3521 2.03987 47.3952 4.17734C47.3974 4.28893 47.4071 4.39836 47.4178 4.50672C46.3914 4.79944 45.3833 5.17411 44.4022 5.6264C44.3553 5.53098 44.3073 5.4361 44.2518 5.34445C43.1914 3.58489 40.9122 3.15308 39.1612 4.38004C37.4108 5.60699 36.8513 8.02802 37.9122 9.78758C37.9666 9.87761 38.0259 9.96224 38.0863 10.0453C37.3111 10.821 36.585 11.6631 35.9143 12.5666C35.8275 12.5121 35.7397 12.4587 35.6464 12.4118C33.8523 11.5013 31.599 12.338 30.6135 14.2803C29.6275 16.2226 30.2831 18.5353 32.0766 19.4458C32.1693 19.4932 32.2642 19.5326 32.3596 19.5703C32.0265 20.6453 31.7753 21.7283 31.6071 22.8118C31.5041 22.8124 31.4011 22.814 31.296 22.8232C29.2496 23.0059 27.6259 24.8868 27.6691 27.0242C27.7122 29.1617 29.4065 30.7461 31.4529 30.5633C31.5596 30.5536 31.6647 30.5369 31.7693 30.5186C31.9833 31.5779 32.2766 32.6124 32.6459 33.614C32.5515 33.669 32.4583 33.7261 32.3666 33.7903C30.6162 35.0172 30.0567 37.4383 31.1176 39.1978C32.1785 40.9574 34.4572 41.3892 36.2076 40.1622C36.2971 40.0992 36.3817 40.0312 36.4653 39.9628C37.1569 40.7272 37.9154 41.4356 38.7364 42.0819C38.6788 42.1768 38.6222 42.2722 38.5715 42.373C37.5855 44.3153 38.241 46.628 40.0346 47.5385C41.8286 48.449 44.082 47.6124 45.0674 45.6701C45.1186 45.5693 45.1623 45.4674 45.2049 45.3649C46.2114 45.6458 47.2308 45.8399 48.2561 45.9466C48.2496 46.0544 48.2448 46.1628 48.2469 46.2722C48.2901 48.4097 49.9844 49.994 52.0308 49.8113C54.0771 49.6286 55.7009 47.7477 55.6577 45.6102C55.6556 45.4986 55.6464 45.3892 55.6351 45.2808C56.6615 44.9881 57.6696 44.614 58.6507 44.1612C58.6976 44.2566 58.7461 44.3515 58.8011 44.4431C59.862 46.2027 62.1408 46.6345 63.8912 45.4075C65.6421 44.1806 66.2011 41.7595 65.1407 40C65.0863 39.91 65.027 39.8253 64.9666 39.7423C65.7418 38.9666 66.468 38.1245 67.1386 37.221C67.2254 37.2749 67.3133 37.3283 67.4065 37.3752ZM45.0459 37.6631C38.5327 34.3574 36.1542 25.9612 39.7332 18.9083C43.3122 11.856 51.4939 8.81831 58.0071 12.1234C64.5203 15.4291 66.8987 23.8253 63.3197 30.8781C59.7407 37.931 51.5591 40.9687 45.0459 37.6631Z" fill="url(#paint14_linear_1030_260)"/>
<path d="M29.661 68.473C30.979 69.142 32.634 68.5269 33.358 67.1005C34.082 65.6735 33.6011 63.9748 32.2831 63.3058C32.2146 63.2713 32.1451 63.2422 32.0755 63.2142C32.3203 62.4244 32.5046 61.6288 32.6281 60.8331C32.7035 60.8331 32.7796 60.8314 32.8566 60.8244C34.3602 60.6902 35.5526 59.3085 35.5213 57.7382C35.4895 56.1678 34.2453 55.004 32.7418 55.1382C32.6631 55.1452 32.586 55.1576 32.5095 55.1711C32.3526 54.3932 32.137 53.6331 31.8653 52.8972C31.9343 52.8568 32.0033 52.8147 32.0707 52.7678C33.3564 51.8665 33.7677 50.0881 32.9882 48.7953C32.2092 47.5026 30.5348 47.1856 29.2491 48.087C29.1833 48.1333 29.1213 48.1829 29.0599 48.2336C28.5515 47.6719 27.9947 47.1517 27.3914 46.6767C27.434 46.6072 27.4755 46.5366 27.5127 46.4627C28.2367 45.0358 29.1833 43.4773 27.855 42.8293C24.7828 41.3301 23.4647 42.6142 22.7407 44.0412C22.703 44.115 22.6707 44.1899 22.6399 44.2654C21.9009 44.0589 21.1515 43.9166 20.3984 43.8379C20.4033 43.7587 20.4065 43.6789 20.4054 43.5986C20.3736 42.0287 20.8394 41.1786 19.3305 41.1495C16.0399 41.0859 14.93 42.5145 14.9618 44.0848C14.9634 44.1668 14.9704 44.2471 14.9785 44.3269C14.2243 44.542 13.4841 44.8169 12.7628 45.1495C12.7283 45.0794 12.6928 45.0099 12.6523 44.9425C11.8734 43.6498 10.199 43.3328 8.91271 44.2341C7.62646 45.1355 7.21568 46.9139 7.99519 48.2066C8.03508 48.273 8.07875 48.3349 8.12295 48.3959C7.55368 48.9657 7.01999 49.584 6.52727 50.2476C6.46365 50.2077 6.39897 50.1684 6.3305 50.1339C5.01244 49.4649 3.35746 50.0794 2.63347 51.5064C1.90948 52.9333 2.39034 54.632 3.7084 55.301C3.77686 55.3355 3.8464 55.3646 3.91649 55.3926C3.67174 56.1824 3.48738 56.9781 3.36392 57.7738C3.28845 57.7738 3.21244 57.7754 3.13589 57.7818C1.63239 57.9161 0.439397 59.2978 0.471203 60.8681C0.503008 62.4385 1.74721 63.6023 3.25072 63.4681C3.32942 63.4611 3.40651 63.4487 3.48306 63.4352C3.64047 64.2131 3.85557 64.9732 4.12727 65.7091C4.05826 65.7495 3.98926 65.7916 3.92188 65.8385C2.63562 66.7398 2.22484 68.5182 3.00436 69.811C3.78333 71.1037 6.36231 71.7037 7.64856 70.8023C7.71433 70.756 6.87174 70.4234 6.9332 70.3727C7.44155 70.9344 7.99843 71.4546 8.60166 71.9296C8.55961 71.9991 8.51756 72.0692 8.48037 72.1436C7.75638 73.5705 8.23724 75.2692 9.5553 75.9382C10.8734 76.6072 12.5283 75.9926 13.2523 74.5657C13.2901 74.4918 13.3224 74.4169 13.3531 74.3414C14.0922 74.5479 14.8416 74.6902 15.5947 74.7689C15.5898 74.8482 15.5866 74.9279 15.5882 75.0083C15.62 76.5781 16.8642 77.7425 18.3677 77.6083C19.8712 77.474 21.0642 76.0924 21.0324 74.522C21.0308 74.4401 21.0238 74.3597 21.0157 74.28C21.7699 74.0649 22.5106 73.7899 23.2313 73.4573C23.2658 73.5274 23.3014 73.5969 23.3418 73.6643C24.1208 74.9571 25.7952 75.274 27.0809 74.3727C28.3672 73.4713 28.7779 71.6929 27.9984 70.4002C27.9585 70.3339 27.9149 70.2719 27.8701 70.211C28.4394 69.6411 28.9731 69.0228 29.4658 68.3592C29.5278 68.3991 29.5925 68.4385 29.661 68.473ZM13.2345 68.6843C8.45018 66.2562 6.70247 60.0881 9.33158 54.9069C11.9607 49.7263 17.9709 47.4945 22.7553 49.9231C27.5402 52.3511 29.2874 58.5193 26.6583 63.7004C24.0297 68.881 18.0195 71.1123 13.2345 68.6843Z" fill="#26264F"/>
<path d="M32.8567 60.8249C34.3602 60.6907 35.5526 59.309 35.5214 57.7387C35.4895 56.1683 34.2453 55.0044 32.7418 55.1387C32.6631 55.1457 32.586 55.1581 32.5095 55.1715C32.3526 54.3936 32.137 53.6335 31.8653 52.8977C31.9343 52.8573 32.0033 52.8152 32.0707 52.7683C33.3564 51.867 34.9472 49.6896 34.0399 48.4837C32.317 46.1953 30.5348 47.1861 29.2491 48.0874C29.1833 48.1338 29.1213 48.1834 29.0599 48.2341C28.5515 47.6723 27.9947 47.1521 27.3914 46.6772C27.434 46.6077 27.4755 46.5376 27.5127 46.4632C27.9068 45.6864 27.9413 44.8303 27.6809 44.1025C26.4389 46.2891 25.2141 48.4853 24.0108 50.6928C27.8281 53.4891 29.0443 59.0001 26.6594 63.6993C24.6383 67.6815 20.62 69.9182 16.6965 69.6384C16.5213 70.0923 16.3499 70.5489 16.1623 70.9985C15.654 72.2184 15.0761 73.4136 14.4982 74.6071C14.8621 74.6756 15.2275 74.7295 15.5941 74.7678C15.5893 74.847 15.586 74.9268 15.5877 75.0071C15.6195 76.5775 16.5731 77.9112 19.2976 77.7661C20.8049 77.6858 21.0637 76.0912 21.0319 74.5209C21.0302 74.4389 21.0232 74.3586 21.0152 74.2788C21.7693 74.0637 22.51 73.7888 23.2308 73.4562C23.2653 73.5263 23.3009 73.5958 23.3413 73.6632C24.1203 74.9559 26.8227 75.5047 28.1089 74.6033C29.3952 73.702 28.778 71.6918 27.9984 70.399C27.9585 70.3327 27.9149 70.2707 27.8701 70.2098C28.4394 69.64 28.9731 69.0217 29.4658 68.3581C29.5294 68.398 29.5941 68.4373 29.6626 68.4718C30.9806 69.1408 32.6356 68.5263 33.3596 67.0993C34.0836 65.6723 33.6028 63.9737 32.2847 63.3047C32.2162 63.2702 32.1467 63.2411 32.0766 63.2131C32.3214 62.4233 32.5057 61.6276 32.6292 60.8319C32.7036 60.833 32.7796 60.8319 32.8567 60.8249Z" fill="#26264F"/>
<path d="M31.0783 68.6339C32.3963 69.3029 34.0513 68.6884 34.7753 67.2614C35.4993 65.8345 35.0184 64.1358 33.7004 63.4668C33.6319 63.4323 33.5624 63.4032 33.4923 63.3751C33.737 62.5854 33.9214 61.7897 34.0448 60.994C34.1203 60.994 34.1963 60.9924 34.2734 60.9854C35.7769 60.8512 36.9694 59.4695 36.9381 57.8991C36.9063 56.3288 35.6621 55.1649 34.1586 55.2991C34.0799 55.3061 34.0028 55.3185 33.9262 55.332C33.7688 54.5541 33.5537 53.794 33.282 53.0582C33.351 53.0177 33.42 52.9757 33.4874 52.9288C34.7731 52.0274 35.1845 50.249 34.4049 48.9563C33.626 47.6636 31.9516 47.3466 30.6653 48.2479C30.5996 48.2943 30.5376 48.3439 30.4761 48.3946C29.9677 47.8328 29.4109 47.3126 28.8076 46.8377C28.8502 46.7681 28.8917 46.6975 28.9289 46.6237C29.6529 45.1967 29.1721 43.4981 27.854 42.8291C26.5359 42.1601 24.881 42.7746 24.157 44.2016C24.1192 44.2754 24.0869 44.3504 24.0562 44.4258C23.3171 44.2194 22.5677 44.077 21.8146 43.9983C21.8195 43.9191 21.8227 43.8393 21.8211 43.759C21.7893 42.1886 20.5451 41.0247 19.0416 41.159C17.5381 41.2932 16.3456 42.6749 16.3769 44.2452C16.3785 44.3272 16.3855 44.4075 16.3936 44.4873C15.6394 44.7024 14.8993 44.9773 14.178 45.3099C14.1435 45.2398 14.1079 45.1703 14.0675 45.1029C13.2885 43.8102 11.6141 43.4932 10.3279 44.3946C9.0416 45.2959 8.63082 47.0743 9.41033 48.3671C9.45023 48.4334 9.49389 48.4954 9.53864 48.5563C8.96936 49.1261 8.43567 49.7444 7.94295 50.408C7.87934 50.3681 7.81465 50.3288 7.74618 50.2943C6.42812 49.6253 4.77314 50.2398 4.04915 51.6668C3.32516 53.0937 3.80602 54.7924 5.12408 55.4614C5.19254 55.4959 5.26209 55.525 5.33217 55.553C5.08742 56.3428 4.90306 57.1385 4.77961 57.9342C4.70413 57.9342 4.62812 57.9358 4.55103 57.9423C3.04753 58.0765 1.85508 59.4582 1.88634 61.0285C1.91815 62.5989 3.16235 63.7628 4.66586 63.6285C4.74456 63.6215 4.82165 63.6091 4.8982 63.5956C5.05562 64.3735 5.27071 65.1336 5.54241 65.8695C5.47341 65.9099 5.4044 65.952 5.33702 65.9989C4.05076 66.9002 3.63998 68.6787 4.4195 69.9714C5.19847 71.2641 6.87287 71.5811 8.15858 70.6797C8.22435 70.6334 8.28634 70.5838 8.3478 70.5331C8.85615 71.0948 9.41303 71.615 10.0163 72.09C9.97367 72.1595 9.93217 72.2301 9.89497 72.304C9.17098 73.7309 9.65184 75.4296 10.9699 76.0986C12.288 76.7676 13.9429 76.153 14.6669 74.7261C14.7047 74.6522 14.737 74.5773 14.7677 74.5018C15.5068 74.7083 16.2562 74.8506 17.0093 74.9293C17.0044 75.0086 17.0012 75.0884 17.0022 75.1687C17.0341 76.7385 18.2783 77.9029 19.7818 77.7687C21.2853 77.6344 22.4783 76.2528 22.4465 74.6824C22.4448 74.6005 22.4378 74.5202 22.4297 74.4404C23.1839 74.2253 23.9241 73.9503 24.6454 73.6177C24.6799 73.6878 24.7155 73.7574 24.7559 73.8247C25.5349 75.1175 27.2093 75.4345 28.495 74.5331C29.7812 73.6318 30.192 71.8533 29.4125 70.5606C29.3726 70.4943 29.3289 70.4323 29.2842 70.3714C29.8535 69.8016 30.3872 69.1832 30.8799 68.5196C30.9451 68.5606 31.0098 68.5994 31.0783 68.6339ZM14.6518 68.8458C9.86748 66.4177 8.11977 60.2495 10.7489 55.0684C13.378 49.8878 19.3882 47.656 24.1726 50.0846C28.9575 52.5126 30.7047 58.6808 28.0756 63.8619C25.447 69.042 19.4367 71.2738 14.6518 68.8458Z" fill="url(#paint15_linear_1030_260)"/>
</g>
<defs>
<linearGradient id="paint0_linear_1030_260" x1="149.338" y1="47.4835" x2="-45.5777" y2="42.7873" gradientUnits="userSpaceOnUse">
<stop stop-color="#4C429A"/>
<stop offset="0.9964" stop-color="#F36F56"/>
</linearGradient>
<linearGradient id="paint1_linear_1030_260" x1="111.541" y1="5.66409" x2="32.704" y2="120.956" gradientUnits="userSpaceOnUse">
<stop stop-color="#F73E94"/>
<stop offset="0.9964" stop-color="#22DCD9"/>
</linearGradient>
<linearGradient id="paint2_linear_1030_260" x1="20.8034" y1="81.3076" x2="45.7238" y2="78.7039" gradientUnits="userSpaceOnUse">
<stop offset="0.003597" stop-color="#26264F"/>
<stop offset="1" stop-color="#444B8C"/>
</linearGradient>
<linearGradient id="paint3_linear_1030_260" x1="73.926" y1="157.441" x2="79.2059" y2="149.878" gradientUnits="userSpaceOnUse">
<stop stop-color="#444B8C"/>
<stop offset="0.9964" stop-color="#26264F"/>
</linearGradient>
<linearGradient id="paint4_linear_1030_260" x1="89.9092" y1="155.502" x2="81.8285" y2="111.635" gradientUnits="userSpaceOnUse">
<stop stop-color="#444B8C"/>
<stop offset="0.9964" stop-color="#26264F"/>
</linearGradient>
<linearGradient id="paint5_linear_1030_260" x1="109.843" y1="34.4045" x2="150.282" y2="-23.3106" gradientUnits="userSpaceOnUse">
<stop stop-color="#444B8C"/>
<stop offset="0.9964" stop-color="#26264F"/>
</linearGradient>
<linearGradient id="paint6_linear_1030_260" x1="92.2795" y1="41.2571" x2="41.6962" y2="201.916" gradientUnits="userSpaceOnUse">
<stop stop-color="#444B8C"/>
<stop offset="0.9964" stop-color="#26264F"/>
</linearGradient>
<linearGradient id="paint7_linear_1030_260" x1="95.0214" y1="51.0916" x2="47.6006" y2="148.873" gradientUnits="userSpaceOnUse">
<stop offset="0.00359712" stop-color="#22DCD9"/>
<stop offset="1" stop-color="#F73E94"/>
</linearGradient>
<linearGradient id="paint8_linear_1030_260" x1="82.499" y1="39.4669" x2="79.7008" y2="62.6297" gradientUnits="userSpaceOnUse">
<stop stop-color="#F73E94"/>
<stop offset="1" stop-color="#FB6FBB"/>
</linearGradient>
<linearGradient id="paint9_linear_1030_260" x1="13.6447" y1="120.76" x2="63.7542" y2="120.76" gradientUnits="userSpaceOnUse">
<stop stop-color="#287ED8"/>
<stop offset="0.9964" stop-color="#4C429A"/>
</linearGradient>
<linearGradient id="paint10_linear_1030_260" x1="48.9141" y1="79.8027" x2="112.6" y2="79.8027" gradientUnits="userSpaceOnUse">
<stop stop-color="#287ED8"/>
<stop offset="0.9964" stop-color="#4C429A"/>
</linearGradient>
<linearGradient id="paint11_linear_1030_260" x1="13.6448" y1="120.76" x2="63.7542" y2="120.76" gradientUnits="userSpaceOnUse">
<stop stop-color="#287ED8"/>
<stop offset="0.9964" stop-color="#4C429A"/>
</linearGradient>
<linearGradient id="paint12_linear_1030_260" x1="103.572" y1="108.585" x2="74.5628" y2="70.3237" gradientUnits="userSpaceOnUse">
<stop stop-color="#287ED8"/>
<stop offset="0.9964" stop-color="#4C429A"/>
</linearGradient>
<linearGradient id="paint13_linear_1030_260" x1="52.462" y1="80.7121" x2="112.536" y2="80.7121" gradientUnits="userSpaceOnUse">
<stop stop-color="#4C429A"/>
<stop offset="0.9964" stop-color="#287ED8"/>
</linearGradient>
<linearGradient id="paint14_linear_1030_260" x1="27.6685" y1="24.8936" x2="75.3844" y2="24.8936" gradientUnits="userSpaceOnUse">
<stop stop-color="#0C65E2"/>
<stop offset="0.9964" stop-color="#22DCD9"/>
</linearGradient>
<linearGradient id="paint15_linear_1030_260" x1="1.8866" y1="59.4649" x2="36.9387" y2="59.4649" gradientUnits="userSpaceOnUse">
<stop stop-color="#22DCD9"/>
<stop offset="0.9964" stop-color="#0C65E2"/>
</linearGradient>
<clipPath id="clip0_1030_260">
<rect width="158" height="155" fill="white"/>
</clipPath>
</defs>
</svg>
