<svg width="925" height="286" viewBox="0 0 925 286" fill="none" xmlns="http://www.w3.org/2000/svg">
<rect y="97" width="90" height="25" rx="12.5" fill="url(#paint0_linear_763_2)"/>
<path d="M32.464 113V104.6H33.076V113H32.464ZM35.8111 113V106.736H36.3871V108.452L36.3271 108.26C36.5031 107.756 36.7991 107.368 37.2151 107.096C37.6311 106.824 38.1511 106.688 38.7751 106.688V107.276C38.7511 107.276 38.7271 107.276 38.7031 107.276C38.6791 107.268 38.6551 107.264 38.6311 107.264C37.9351 107.264 37.3911 107.484 36.9991 107.924C36.6071 108.356 36.4111 108.96 36.4111 109.736V113H35.8111ZM40.4283 113V106.736H41.0283V113H40.4283ZM40.7283 105.212C40.5923 105.212 40.4763 105.164 40.3803 105.068C40.2843 104.972 40.2363 104.86 40.2363 104.732C40.2363 104.596 40.2843 104.48 40.3803 104.384C40.4763 104.288 40.5923 104.24 40.7283 104.24C40.8723 104.24 40.9883 104.288 41.0763 104.384C41.1723 104.472 41.2203 104.584 41.2203 104.72C41.2203 104.856 41.1723 104.972 41.0763 105.068C40.9883 105.164 40.8723 105.212 40.7283 105.212ZM46.6172 106.688C47.1292 106.688 47.5732 106.788 47.9492 106.988C48.3332 107.18 48.6292 107.476 48.8372 107.876C49.0532 108.268 49.1612 108.756 49.1612 109.34V113H48.5612V109.388C48.5612 108.684 48.3812 108.148 48.0212 107.78C47.6692 107.412 47.1732 107.228 46.5332 107.228C46.0452 107.228 45.6212 107.328 45.2612 107.528C44.9012 107.728 44.6252 108.008 44.4332 108.368C44.2492 108.728 44.1572 109.16 44.1572 109.664V113H43.5572V106.736H44.1332V108.476L44.0492 108.284C44.2412 107.788 44.5572 107.4 44.9972 107.12C45.4372 106.832 45.9772 106.688 46.6172 106.688ZM55.5794 113V111.572L55.5554 111.356V109.004C55.5554 108.42 55.3954 107.976 55.0754 107.672C54.7634 107.368 54.3034 107.216 53.6954 107.216C53.2634 107.216 52.8594 107.292 52.4834 107.444C52.1154 107.588 51.7994 107.776 51.5354 108.008L51.2354 107.576C51.5474 107.296 51.9234 107.08 52.3634 106.928C52.8034 106.768 53.2634 106.688 53.7434 106.688C54.5194 106.688 55.1154 106.884 55.5314 107.276C55.9474 107.668 56.1554 108.252 56.1554 109.028V113H55.5794ZM53.3234 113.048C52.8594 113.048 52.4554 112.976 52.1114 112.832C51.7754 112.68 51.5154 112.468 51.3314 112.196C51.1554 111.924 51.0674 111.612 51.0674 111.26C51.0674 110.94 51.1394 110.652 51.2834 110.396C51.4354 110.132 51.6834 109.92 52.0274 109.76C52.3714 109.592 52.8314 109.508 53.4074 109.508H55.7114V109.976H53.4194C52.7714 109.976 52.3154 110.096 52.0514 110.336C51.7954 110.576 51.6674 110.876 51.6674 111.236C51.6674 111.636 51.8194 111.956 52.1234 112.196C52.4274 112.436 52.8554 112.556 53.4074 112.556C53.9354 112.556 54.3794 112.436 54.7394 112.196C55.1074 111.956 55.3794 111.608 55.5554 111.152L55.7234 111.56C55.5554 112.016 55.2674 112.38 54.8594 112.652C54.4594 112.916 53.9474 113.048 53.3234 113.048Z" fill="white"/>
<path d="M100 105H109.029V115.801H100V105Z" fill="#F13F95"/>
<path d="M113.366 111.179C113.713 110.8 113.715 110.219 113.372 109.837L109.029 105L108.982 115.979L113.366 111.179Z" fill="#F13F95"/>
<rect x="759.363" y="260.924" width="90" height="25" rx="12.5" fill="url(#paint1_linear_763_2)"/>
<path d="M790.016 277.06C789.392 277.06 788.812 276.956 788.276 276.748C787.748 276.532 787.288 276.232 786.896 275.848C786.504 275.464 786.2 275.016 785.984 274.504C785.768 273.984 785.66 273.416 785.66 272.8C785.66 272.184 785.768 271.62 785.984 271.108C786.2 270.588 786.504 270.136 786.896 269.752C787.296 269.368 787.76 269.072 788.288 268.864C788.816 268.648 789.392 268.54 790.016 268.54C790.608 268.54 791.16 268.636 791.672 268.828C792.192 269.02 792.636 269.312 793.004 269.704L792.62 270.1C792.26 269.748 791.86 269.496 791.42 269.344C790.988 269.184 790.528 269.104 790.04 269.104C789.504 269.104 789.004 269.196 788.54 269.38C788.084 269.564 787.684 269.824 787.34 270.16C787.004 270.496 786.74 270.888 786.548 271.336C786.364 271.784 786.272 272.272 786.272 272.8C786.272 273.328 786.364 273.816 786.548 274.264C786.74 274.712 787.004 275.104 787.34 275.44C787.684 275.776 788.084 276.036 788.54 276.22C789.004 276.404 789.504 276.496 790.04 276.496C790.528 276.496 790.988 276.42 791.42 276.268C791.86 276.108 792.26 275.848 792.62 275.488L793.004 275.884C792.636 276.276 792.192 276.572 791.672 276.772C791.16 276.964 790.608 277.06 790.016 277.06ZM797.113 277.048C796.481 277.048 795.921 276.912 795.433 276.64C794.953 276.368 794.573 275.992 794.293 275.512C794.021 275.032 793.885 274.484 793.885 273.868C793.885 273.244 794.013 272.696 794.269 272.224C794.533 271.744 794.893 271.368 795.349 271.096C795.805 270.824 796.317 270.688 796.885 270.688C797.453 270.688 797.961 270.82 798.409 271.084C798.865 271.348 799.221 271.72 799.477 272.2C799.741 272.672 799.873 273.22 799.873 273.844C799.873 273.868 799.869 273.896 799.861 273.928C799.861 273.952 799.861 273.98 799.861 274.012H794.329V273.544H799.537L799.297 273.772C799.305 273.284 799.201 272.848 798.985 272.464C798.777 272.072 798.493 271.768 798.133 271.552C797.773 271.328 797.357 271.216 796.885 271.216C796.421 271.216 796.005 271.328 795.637 271.552C795.277 271.768 794.993 272.072 794.785 272.464C794.577 272.848 794.473 273.288 794.473 273.784V273.892C794.473 274.404 794.585 274.86 794.809 275.26C795.041 275.652 795.357 275.96 795.757 276.184C796.157 276.4 796.613 276.508 797.125 276.508C797.525 276.508 797.897 276.436 798.241 276.292C798.593 276.148 798.889 275.928 799.129 275.632L799.477 276.028C799.205 276.364 798.861 276.62 798.445 276.796C798.037 276.964 797.593 277.048 797.113 277.048ZM796.201 269.716L797.869 268.3H798.733L796.849 269.716H796.201ZM801.729 277V268.096H802.329V277H801.729ZM804.858 277V270.736H805.458V277H804.858ZM805.158 269.212C805.022 269.212 804.906 269.164 804.81 269.068C804.714 268.972 804.666 268.86 804.666 268.732C804.666 268.596 804.714 268.48 804.81 268.384C804.906 268.288 805.022 268.24 805.158 268.24C805.302 268.24 805.418 268.288 805.506 268.384C805.602 268.472 805.65 268.584 805.65 268.72C805.65 268.856 805.602 268.972 805.506 269.068C805.418 269.164 805.302 269.212 805.158 269.212ZM811.047 270.688C811.559 270.688 812.003 270.788 812.379 270.988C812.763 271.18 813.059 271.476 813.267 271.876C813.483 272.268 813.591 272.756 813.591 273.34V277H812.991V273.388C812.991 272.684 812.811 272.148 812.451 271.78C812.099 271.412 811.603 271.228 810.963 271.228C810.475 271.228 810.051 271.328 809.691 271.528C809.331 271.728 809.055 272.008 808.863 272.368C808.679 272.728 808.587 273.16 808.587 273.664V277H807.987V270.736H808.563V272.476L808.479 272.284C808.671 271.788 808.987 271.4 809.427 271.12C809.867 270.832 810.407 270.688 811.047 270.688ZM818.605 277.048C817.973 277.048 817.413 276.912 816.925 276.64C816.445 276.368 816.065 275.992 815.785 275.512C815.513 275.032 815.377 274.484 815.377 273.868C815.377 273.244 815.505 272.696 815.761 272.224C816.025 271.744 816.385 271.368 816.841 271.096C817.297 270.824 817.809 270.688 818.377 270.688C818.945 270.688 819.453 270.82 819.901 271.084C820.357 271.348 820.713 271.72 820.969 272.2C821.233 272.672 821.365 273.22 821.365 273.844C821.365 273.868 821.361 273.896 821.353 273.928C821.353 273.952 821.353 273.98 821.353 274.012H815.821V273.544H821.029L820.789 273.772C820.797 273.284 820.693 272.848 820.477 272.464C820.269 272.072 819.985 271.768 819.625 271.552C819.265 271.328 818.849 271.216 818.377 271.216C817.913 271.216 817.497 271.328 817.129 271.552C816.769 271.768 816.485 272.072 816.277 272.464C816.069 272.848 815.965 273.288 815.965 273.784V273.892C815.965 274.404 816.077 274.86 816.301 275.26C816.533 275.652 816.849 275.96 817.249 276.184C817.649 276.4 818.105 276.508 818.617 276.508C819.017 276.508 819.389 276.436 819.733 276.292C820.085 276.148 820.381 275.928 820.621 275.632L820.969 276.028C820.697 276.364 820.353 276.62 819.937 276.796C819.529 276.964 819.085 277.048 818.605 277.048Z" fill="white"/>
<path d="M755.151 265.617L748.604 259.399L756.043 251.567L762.59 257.785L755.151 265.617Z" fill="#F73E94"/>
<path d="M749.715 251.932C749.202 251.969 748.801 252.388 748.786 252.902L748.604 259.399L756.199 251.471L749.715 251.932Z" fill="#F73E94"/>
<rect x="834.363" y="0.924072" width="90" height="25" rx="12.5" fill="url(#paint2_linear_763_2)"/>
<path d="M862.367 13.3881H866.915V13.9281H862.367V13.3881ZM862.439 17.3721H867.623V17.9241H861.827V9.52407H867.443V10.0761H862.439V17.3721ZM869.662 17.9241V9.02007H870.262V17.9241H869.662ZM875.335 17.9721C874.703 17.9721 874.143 17.8361 873.655 17.5641C873.175 17.2921 872.795 16.9161 872.515 16.4361C872.243 15.9561 872.107 15.4081 872.107 14.7921C872.107 14.1681 872.235 13.6201 872.491 13.1481C872.755 12.6681 873.115 12.2921 873.571 12.0201C874.027 11.7481 874.539 11.6121 875.107 11.6121C875.675 11.6121 876.183 11.7441 876.631 12.0081C877.087 12.2721 877.443 12.6441 877.699 13.1241C877.963 13.5961 878.095 14.1441 878.095 14.7681C878.095 14.7921 878.091 14.8201 878.083 14.8521C878.083 14.8761 878.083 14.9041 878.083 14.9361H872.551V14.4681H877.759L877.519 14.6961C877.527 14.2081 877.423 13.7721 877.207 13.3881C876.999 12.9961 876.715 12.6921 876.355 12.4761C875.995 12.2521 875.579 12.1401 875.107 12.1401C874.643 12.1401 874.227 12.2521 873.859 12.4761C873.499 12.6921 873.215 12.9961 873.007 13.3881C872.799 13.7721 872.695 14.2121 872.695 14.7081V14.8161C872.695 15.3281 872.807 15.7841 873.031 16.1841C873.263 16.5761 873.579 16.8841 873.979 17.1081C874.379 17.3241 874.835 17.4321 875.347 17.4321C875.747 17.4321 876.119 17.3601 876.463 17.2161C876.815 17.0721 877.111 16.8521 877.351 16.5561L877.699 16.9521C877.427 17.2881 877.083 17.5441 876.667 17.7201C876.259 17.8881 875.815 17.9721 875.335 17.9721ZM883.011 11.6121C883.523 11.6121 883.967 11.7121 884.343 11.9121C884.727 12.1041 885.023 12.4001 885.231 12.8001C885.447 13.1921 885.555 13.6801 885.555 14.2641V17.9241H884.955V14.3121C884.955 13.6081 884.775 13.0721 884.415 12.7041C884.063 12.3361 883.567 12.1521 882.927 12.1521C882.439 12.1521 882.015 12.2521 881.655 12.4521C881.295 12.6521 881.019 12.9321 880.827 13.2921C880.643 13.6521 880.551 14.0841 880.551 14.5881V17.9241H879.951V11.6601H880.527V13.4001L880.443 13.2081C880.635 12.7121 880.951 12.3241 881.391 12.0441C881.831 11.7561 882.371 11.6121 883.011 11.6121ZM891.974 17.9241V16.4961L891.95 16.2801V13.9281C891.95 13.3441 891.79 12.9001 891.47 12.5961C891.158 12.2921 890.698 12.1401 890.09 12.1401C889.658 12.1401 889.254 12.2161 888.878 12.3681C888.51 12.5121 888.194 12.7001 887.93 12.9321L887.63 12.5001C887.942 12.2201 888.318 12.0041 888.758 11.8521C889.198 11.6921 889.658 11.6121 890.138 11.6121C890.914 11.6121 891.51 11.8081 891.926 12.2001C892.342 12.5921 892.55 13.1761 892.55 13.9521V17.9241H891.974ZM889.718 17.9721C889.254 17.9721 888.85 17.9001 888.506 17.7561C888.17 17.6041 887.91 17.3921 887.726 17.1201C887.55 16.8481 887.462 16.5361 887.462 16.1841C887.462 15.8641 887.534 15.5761 887.678 15.3201C887.83 15.0561 888.078 14.8441 888.422 14.6841C888.766 14.5161 889.226 14.4321 889.802 14.4321H892.106V14.9001H889.814C889.166 14.9001 888.71 15.0201 888.446 15.2601C888.19 15.5001 888.062 15.8001 888.062 16.1601C888.062 16.5601 888.214 16.8801 888.518 17.1201C888.822 17.3601 889.25 17.4801 889.802 17.4801C890.33 17.4801 890.774 17.3601 891.134 17.1201C891.502 16.8801 891.774 16.5321 891.95 16.0761L892.118 16.4841C891.95 16.9401 891.662 17.3041 891.254 17.5761C890.854 17.8401 890.342 17.9721 889.718 17.9721Z" fill="white"/>
<path d="M833.804 26.6138L826.734 32.229L820.016 23.7707L827.087 18.1555L833.804 26.6138Z" fill="#0956E2"/>
<path d="M819.495 30.0878C819.459 30.6006 819.818 31.0567 820.325 31.1426L826.734 32.2292L819.942 23.6027L819.495 30.0878Z" fill="#0956E2"/>
<defs>
<linearGradient id="paint0_linear_763_2" x1="7" y1="98.5" x2="90" y2="110" gradientUnits="userSpaceOnUse">
<stop stop-color="#1882DD"/>
<stop offset="1" stop-color="#E64298"/>
</linearGradient>
<linearGradient id="paint1_linear_763_2" x1="766.363" y1="262.424" x2="849.363" y2="273.924" gradientUnits="userSpaceOnUse">
<stop stop-color="#D73F95"/>
<stop offset="1" stop-color="#4C429A"/>
</linearGradient>
<linearGradient id="paint2_linear_763_2" x1="841.363" y1="2.42407" x2="924.363" y2="13.9241" gradientUnits="userSpaceOnUse">
<stop stop-color="#0A5BE2"/>
<stop offset="1" stop-color="#21D6D9"/>
</linearGradient>
</defs>
</svg>
