<svg width="500" height="500" viewBox="0 0 500 500" fill="none" xmlns="http://www.w3.org/2000/svg">
<path d="M449.9 398.49H416.78V398.74H449.9V398.49Z" fill="#EBEBEB"/>
<path d="M331.22 401.21H322.53V401.46H331.22V401.21Z" fill="#EBEBEB"/>
<path d="M415.78 389.21H396.59V389.46H415.78V389.21Z" fill="#EBEBEB"/>
<path d="M95.65 390.89H52.46V391.14H95.65V390.89Z" fill="#EBEBEB"/>
<path d="M110.89 390.89H104.56V391.14H110.89V390.89Z" fill="#EBEBEB"/>
<path d="M225.15 395.11H131.47V395.36H225.15V395.11Z" fill="#EBEBEB"/>
<path d="M237.01 337.8H43.92C40.77 337.8 38.21 335.24 38.21 332.09V60.6602C38.21 57.5102 40.77 54.9502 43.92 54.9502H237.02C240.17 54.9502 242.73 57.5102 242.73 60.6602V332.09C242.72 335.24 240.16 337.8 237.01 337.8ZM43.92 55.2002C40.91 55.2002 38.46 57.6502 38.46 60.6602V332.09C38.46 335.1 40.91 337.55 43.92 337.55H237.02C240.03 337.55 242.48 335.1 242.48 332.09V60.6602C242.48 57.6502 240.03 55.2002 237.02 55.2002H43.92Z" fill="#EBEBEB"/>
<path d="M453.31 337.8H260.21C257.06 337.8 254.5 335.24 254.5 332.09V60.6602C254.5 57.5102 257.06 54.9502 260.21 54.9502H453.31C456.46 54.9502 459.02 57.5102 459.02 60.6602V332.09C459.02 335.24 456.46 337.8 453.31 337.8ZM260.21 55.2002C257.2 55.2002 254.75 57.6502 254.75 60.6602V332.09C254.75 335.1 257.2 337.55 260.21 337.55H453.31C456.32 337.55 458.77 335.1 458.77 332.09V60.6602C458.77 57.6502 456.32 55.2002 453.31 55.2002H260.21Z" fill="#EBEBEB"/>
<path d="M500 382.4H0V382.65H500V382.4Z" fill="#EBEBEB"/>
<path d="M377.83 215.16L436.11 215.15C444.17 215.15 449.56 206.88 446.35 199.49C442.48 190.6 434.24 185.78 426.81 192.45C415.62 202.5 416.14 183.02 402.76 185.75C391.05 188.14 392.66 199.67 385.49 202.04C378.31 204.41 368.42 212.51 377.83 215.16Z" fill="#FAFAFA"/>
<path d="M285.48 110.4H328.02C333.9 110.4 337.84 104.36 335.49 98.9703C332.67 92.4803 326.65 88.9703 321.23 93.8303C313.06 101.16 313.44 86.9503 303.67 88.9403C295.12 90.6903 296.3 99.1003 291.06 100.83C285.83 102.55 278.62 108.46 285.48 110.4Z" fill="#FAFAFA"/>
<path d="M369.67 382.52H362.67V158.67C362.67 146.14 372.87 135.94 385.4 135.94H391.58V142.94H385.4C376.73 142.94 369.67 149.99 369.67 158.67V382.52Z" fill="#F0F0F0"/>
<path d="M418.13 100H391.59V174.98H418.13V100Z" fill="#EBEBEB"/>
<path d="M418.13 174.98H391.59V175.12C391.59 177.97 393.9 180.29 396.76 180.29H412.96C415.81 180.29 418.13 177.98 418.13 175.12V174.98Z" fill="#E6E6E6"/>
<path d="M404.86 123.731C409.405 123.731 413.09 120.046 413.09 115.501C413.09 110.955 409.405 107.271 404.86 107.271C400.315 107.271 396.63 110.955 396.63 115.501C396.63 120.046 400.315 123.731 404.86 123.731Z" fill="#F0F0F0"/>
<path d="M404.86 121.731C409.405 121.731 413.09 118.046 413.09 113.501C413.09 108.955 409.405 105.271 404.86 105.271C400.315 105.271 396.63 108.955 396.63 113.501C396.63 118.046 400.315 121.731 404.86 121.731Z" fill="#FAFAFA"/>
<path d="M404.86 146.23C409.405 146.23 413.09 142.546 413.09 138.001C413.09 133.455 409.405 129.771 404.86 129.771C400.315 129.771 396.63 133.455 396.63 138.001C396.63 142.546 400.315 146.23 404.86 146.23Z" fill="#F0F0F0"/>
<path d="M404.86 144.231C409.405 144.231 413.09 140.546 413.09 136.001C413.09 131.455 409.405 127.771 404.86 127.771C400.315 127.771 396.63 131.455 396.63 136.001C396.63 140.546 400.315 144.231 404.86 144.231Z" fill="#FAFAFA"/>
<path d="M404.86 168.73C409.405 168.73 413.09 165.046 413.09 160.501C413.09 155.955 409.405 152.271 404.86 152.271C400.315 152.271 396.63 155.955 396.63 160.501C396.63 165.046 400.315 168.73 404.86 168.73Z" fill="#F0F0F0"/>
<path d="M404.86 166.73C409.405 166.73 413.09 163.046 413.09 158.501C413.09 153.955 409.405 150.271 404.86 150.271C400.315 150.271 396.63 153.955 396.63 158.501C396.63 163.046 400.315 166.73 404.86 166.73Z" fill="#FAFAFA"/>
<path d="M436.91 317.051H390.72V337.211H436.91V317.051Z" fill="#EBEBEB"/>
<path d="M393.929 314.261H387.499V340.001H393.929V314.261Z" fill="#F5F5F5"/>
<path d="M440.119 314.261H433.689V340.001H440.119V314.261Z" fill="#F5F5F5"/>
<path d="M390.719 330.351H386.359C385.209 330.351 384.279 329.421 384.279 328.271V325.991C384.279 324.841 385.209 323.911 386.359 323.911H390.719V330.351Z" fill="#F5F5F5"/>
<path d="M436.909 323.92H441.269C442.419 323.92 443.349 324.85 443.349 326V328.28C443.349 329.43 442.419 330.36 441.269 330.36H436.909V323.92Z" fill="#F5F5F5"/>
<path d="M426.218 373.961H401.398V304.301C401.398 297.451 406.958 291.891 413.808 291.891C420.658 291.891 426.218 297.451 426.218 304.301V373.961Z" fill="#F5F5F5"/>
<path d="M430.699 382.521H396.919V375.951C396.919 372.551 399.669 369.801 403.069 369.801H424.559C427.959 369.801 430.709 372.551 430.709 375.951V382.521H430.699Z" fill="#EBEBEB"/>
<path d="M413.809 337.711C419.675 337.711 424.429 332.956 424.429 327.091C424.429 321.225 419.675 316.471 413.809 316.471C407.944 316.471 403.189 321.225 403.189 327.091C403.189 332.956 407.944 337.711 413.809 337.711Z" fill="#FAFAFA"/>
<path d="M416.339 327.091C416.339 328.491 415.209 329.621 413.809 329.621C412.409 329.621 411.279 328.491 411.279 327.091C411.279 325.691 412.409 324.561 413.809 324.561C415.209 324.571 416.339 325.701 416.339 327.091Z" fill="#EBEBEB"/>
<path d="M396.919 307.83C396.919 306.05 398.359 304.61 400.139 304.61H427.489C429.269 304.61 430.709 306.05 430.709 307.83C430.709 309.61 429.269 311.05 427.489 311.05H400.139C398.359 311.05 396.919 309.61 396.919 307.83Z" fill="#F0F0F0"/>
<path d="M408.409 343.491C410.189 343.491 411.629 344.931 411.629 346.711V363.341C411.629 365.121 410.189 366.561 408.409 366.561C406.629 366.561 405.189 365.121 405.189 363.341V346.701C405.199 344.931 406.639 343.491 408.409 343.491Z" fill="#EBEBEB"/>
<path d="M419.209 343.491C420.989 343.491 422.429 344.931 422.429 346.711V363.341C422.429 365.121 420.989 366.561 419.209 366.561C417.429 366.561 415.989 365.121 415.989 363.341V346.701C415.999 344.931 417.439 343.491 419.209 343.491Z" fill="#EBEBEB"/>
<path d="M72.0501 382.67H69.5901C68.8701 382.67 68.2901 382.07 68.3301 381.35L70.9801 320.92H77.3001L73.3101 381.49C73.2701 382.15 72.7101 382.67 72.0501 382.67Z" fill="#F0F0F0"/>
<path d="M82.3801 382.67H79.9201C79.2001 382.67 78.6202 382.07 78.6602 381.35L81.3101 320.92H87.6301L83.6402 381.49C83.6002 382.15 83.0501 382.67 82.3801 382.67Z" fill="#F0F0F0"/>
<path d="M111.08 382.67H113.54C114.26 382.67 114.84 382.07 114.8 381.35L112.15 320.92H105.83L109.82 381.49C109.86 382.15 110.41 382.67 111.08 382.67Z" fill="#F0F0F0"/>
<path d="M121.26 382.67H123.72C124.44 382.67 125.02 382.07 124.98 381.35L122.33 320.92H116.01L120 381.49C120.04 382.15 120.59 382.67 121.26 382.67Z" fill="#F0F0F0"/>
<path d="M87.9 285.37H82.54V313.69H87.9V285.37Z" fill="#F0F0F0"/>
<path d="M111.6 285.37H106.24V313.69H111.6V285.37Z" fill="#F0F0F0"/>
<path d="M129.75 319.73C129.75 325.99 115.27 325.41 97.3998 325.41C79.5398 325.41 65.0498 326 65.0498 319.73C65.0498 313.46 79.5298 308.39 97.3998 308.39C115.27 308.39 129.75 313.46 129.75 319.73Z" fill="#F5F5F5"/>
<path d="M112.79 288.45H82.0197C77.1597 288.45 73.1097 284.71 72.7297 279.86L71.7697 267.57C71.3497 262.16 75.6297 257.53 81.0597 257.53H113.76C119.19 257.53 123.47 262.16 123.05 267.57L122.09 279.86C121.7 284.71 117.66 288.45 112.79 288.45Z" fill="#F5F5F5"/>
<path d="M104.859 172.121H68.5293V200.761H104.859V172.121Z" fill="#F0F0F0"/>
<path d="M68.5293 172.121H66.5693V200.761H68.5293V172.121Z" fill="#E0E0E0"/>
<path d="M101.149 175.041H72.2295V197.841H101.149V175.041Z" fill="#FAFAFA"/>
<path d="M98.7791 176.92H74.6191V195.97H98.7791V176.92Z" fill="#EBEBEB"/>
<path d="M152.34 125.641H112.35V176.351H152.34V125.641Z" fill="#EBEBEB"/>
<path d="M112.349 125.641H110.439V176.351H112.349V125.641Z" fill="#E0E0E0"/>
<path d="M148.26 130.811H116.43V171.181H148.26V130.811Z" fill="#F5F5F5"/>
<path d="M145.64 134.141H119.05V167.871H145.64V134.141Z" fill="#FAFAFA"/>
<path d="M127.079 146.041C127.079 146.041 131.779 152.691 134.189 152.581C136.399 152.481 140.159 146.041 140.159 146.041C140.159 146.041 135.459 139.391 133.049 139.501C130.839 139.591 127.079 146.041 127.079 146.041Z" fill="#EBEBEB"/>
<path d="M139.379 160.761C140.769 158.081 133.499 152.451 130.489 152.581C127.719 152.701 121.949 158.211 123.029 160.761C124.609 164.531 137.499 164.391 139.379 160.761Z" fill="#F0F0F0"/>
<path d="M245.18 423.71C352.263 423.71 439.07 418.642 439.07 412.39C439.07 406.138 352.263 401.07 245.18 401.07C138.098 401.07 51.29 406.138 51.29 412.39C51.29 418.642 138.098 423.71 245.18 423.71Z" fill="#F5F5F5"/>
<path d="M321.779 195.61C319.089 192.81 317.179 187.58 316.249 184.27L312.039 194.41C313.419 196.04 314.059 198.36 313.599 200.23C313.579 200.32 313.449 202.02 310.649 203.76C310.649 203.76 311.159 214.02 317.269 212.56C323.379 211.1 326.699 198.94 326.699 198.94L327.139 195.49C327.139 195.48 324.269 197.82 321.779 195.61Z" fill="#FFC3BD"/>
<path opacity="0.1" d="M313.069 191.92L312.039 194.41C312.849 195.36 313.389 196.55 313.619 197.74C316.419 194.43 316.729 189.1 316.729 189.1L313.069 191.92Z" fill="black"/>
<path d="M268.71 241.27C268.71 241.27 285.2 241.95 292.52 239.94C299.85 237.93 306.06 225.13 306.06 225.13L297.71 220.52L289.41 232.87L268.72 236.18L262.78 231.95C262.78 231.95 250.77 229.39 250.77 230.94C250.77 232.49 256.96 233.77 256.96 233.77C256.96 233.77 257.32 241.15 259.87 241.37C262.42 241.6 268.71 241.27 268.71 241.27Z" fill="#FFC3BD"/>
<path d="M309.069 205.98C309.069 205.98 301.929 206.98 297.259 215.63C292.589 224.28 296.569 224.62 300.529 227.07C304.479 229.52 306.459 230.04 308.279 224.73C310.099 219.43 313.689 205.45 309.069 205.98Z" fill="#F73E94"/>
<path opacity="0.1" d="M309.05 222.31L306.41 216.91L301.96 216.57C301.96 216.57 301.57 222.77 302.19 228.03C305.08 229.54 306.75 229.25 308.29 224.74C308.51 224.05 308.78 223.23 309.05 222.31Z" fill="black"/>
<path d="M294.829 171.54C294.829 171.54 289.629 173.38 293.059 178.68C296.489 183.98 289.569 187.56 301.209 189.03C312.859 190.49 301.619 169.42 301.619 169.42L294.829 171.54Z" fill="#263238"/>
<path opacity="0.3" d="M294.829 171.54C294.829 171.54 289.629 173.38 293.059 178.68C296.489 183.98 289.569 187.56 301.209 189.03C312.859 190.49 301.619 169.42 301.619 169.42L294.829 171.54Z" fill="black"/>
<path d="M339.619 204.74C337.879 193.42 331.289 193.62 324.859 196.15C325.309 200.42 325.32 205.86 319.16 209.24C313.61 212.29 311.44 207.28 311.32 203.02C305.51 206.33 300.64 210.58 302.23 218.98C303.14 223.79 307.38 229.06 311.72 235.75C316.91 243.74 322.25 252.83 322.25 252.83L351.91 237.73C351.92 237.72 341.509 217.02 339.619 204.74Z" fill="#F73E94"/>
<path opacity="0.2" d="M339.62 204.74C339.36 203.07 339 201.66 338.55 200.46L334.06 199.7L331.72 203.43C331.72 203.43 336.67 212.15 343.25 217.66C341.6 213.11 340.2 208.53 339.62 204.74Z" fill="black"/>
<path d="M347.549 201.14C347.549 201.14 357.729 208.1 360.829 210.79C365.459 214.78 377.939 228.26 377.939 228.26L385.579 232.45V237.28L381.969 239.78C380.859 240.55 379.329 240.26 378.569 239.13L373.939 232.2C373.939 232.2 362.499 221.74 358.289 218.76C354.729 216.24 343.189 210.05 343.189 210.05L347.549 201.14Z" fill="#FFC3BD"/>
<path d="M328.76 195.1C328.76 195.1 335.31 192.15 340.91 195.1C346.51 198.05 348.96 199.68 348.42 203.24C347.87 206.79 345.83 214.16 342.14 212.93C338.45 211.7 326.72 200.06 328.76 195.1Z" fill="#F73E94"/>
<path d="M317.8 175.82C318.56 183.48 319.05 186.71 315.84 191.22C311.02 198.01 301.45 197.27 298.41 189.99C295.68 183.44 294.9 172.01 301.83 167.79C306.77 164.75 313.24 166.29 316.28 171.23C317.14 172.62 317.66 174.19 317.8 175.82Z" fill="#FFC3BD"/>
<path d="M301.69 181.68C301.37 183.18 300.84 184.63 300.13 185.98C300.84 186.34 301.67 186.36 302.4 186.05L301.69 181.68Z" fill="#ED893E"/>
<path d="M306.81 176.56C306.86 176.53 306.89 176.49 306.92 176.45C307 176.3 306.95 176.12 306.81 176.03C306.81 176.03 306.81 176.03 306.8 176.03C305.8 175.43 304.58 175.35 303.51 175.82C303.36 175.9 303.31 176.08 303.38 176.23C303.46 176.38 303.64 176.44 303.78 176.36C304.66 175.99 305.67 176.06 306.5 176.56C306.6 176.62 306.71 176.62 306.81 176.56Z" fill="#263238"/>
<path d="M295.36 178.5C295.41 178.48 295.45 178.45 295.49 178.41C296.09 177.67 297.01 177.26 297.96 177.31C298.13 177.33 298.28 177.22 298.3 177.05C298.32 176.88 298.2 176.73 298.03 176.71C296.87 176.64 295.75 177.13 295.01 178.03C294.9 178.15 294.9 178.35 295.03 178.46C295.12 178.52 295.25 178.54 295.36 178.5Z" fill="#263238"/>
<path d="M305.89 179.96C305.99 180.57 305.74 181.13 305.33 181.2C304.92 181.27 304.52 180.82 304.43 180.2C304.33 179.58 304.58 179.03 304.98 178.97C305.37 178.89 305.78 179.34 305.89 179.96Z" fill="#263238"/>
<path d="M298.9 181.089C299 181.699 298.75 182.259 298.35 182.319C297.95 182.389 297.54 181.939 297.44 181.319C297.34 180.699 297.59 180.149 297.99 180.089C298.39 180.019 298.81 180.459 298.9 181.089Z" fill="#263238"/>
<path d="M298.17 180.089L296.62 179.899C296.62 179.909 297.57 180.939 298.17 180.089Z" fill="#263238"/>
<path d="M305.16 178.96L303.61 178.77C303.61 178.78 304.56 179.81 305.16 178.96Z" fill="#263238"/>
<path d="M307.38 188.89C307.76 188.7 308.12 188.48 308.46 188.22C308.56 188.15 308.58 188.01 308.51 187.91C308.51 187.91 308.51 187.91 308.51 187.9C308.44 187.8 308.3 187.78 308.2 187.85C306.69 189.02 304.72 189.4 302.88 188.88C302.76 188.84 302.63 188.89 302.59 189.01C302.55 189.13 302.6 189.26 302.72 189.3C304.27 189.78 305.94 189.63 307.38 188.89Z" fill="#263238"/>
<path d="M301.26 171.62C298.28 171.97 290.26 174.26 291.53 166.8C292.8 159.34 307.09 155.61 313.73 160.43C320.37 165.25 325.47 164.89 330.75 160.98C336.03 157.07 338.58 158.61 345.31 162.25C345.31 162.25 341.67 168.53 343.4 172.35C343.4 172.35 339.4 168.35 331.94 172.62C331.94 172.62 340.58 170.32 343.86 176.29C343.86 176.29 342.95 182.88 346.13 186.8C349.31 190.72 346.04 195.36 333.85 190.63C321.66 185.9 320.36 190.24 317.55 188.15C314.74 186.06 312.63 180.4 312.2 176.29C311.88 173.34 310.55 170.52 301.26 171.62Z" fill="#263238"/>
<path d="M318.85 181.09C318.66 182.57 317.88 183.91 316.7 184.81C315.12 186 313.62 184.77 313.45 182.9C313.3 181.23 313.94 178.59 315.82 178.13C317.19 177.84 318.54 178.72 318.84 180.09C318.91 180.42 318.91 180.76 318.85 181.09Z" fill="#FFC3BD"/>
<path d="M359.019 393C359.289 399.39 359.469 404.46 359.469 404.46L352.369 405.27C352.369 405.27 351.689 400.95 350.659 394.32L359.019 393Z" fill="#FFC3BD"/>
<path d="M349.23 403.73C348.35 403.79 347.43 403.68 347.11 403.32C346.94 403.11 346.93 402.81 347.08 402.59C347.19 402.39 347.37 402.23 347.58 402.16C348.74 401.76 351.31 403.01 351.42 403.07C351.48 403.1 351.52 403.17 351.51 403.24C351.5 403.31 351.45 403.37 351.38 403.39C350.68 403.57 349.96 403.68 349.23 403.73ZM348.02 402.43C347.91 402.43 347.8 402.46 347.7 402.49C347.56 402.52 347.45 402.62 347.39 402.75C347.28 402.97 347.33 403.07 347.38 403.12C347.74 403.56 349.53 403.46 350.84 403.21C349.95 402.77 348.99 402.51 348.02 402.43Z" fill="#407BFF"/>
<path d="M351.36 403.39C351.34 403.4 351.31 403.4 351.29 403.39C350.42 403.07 348.61 401.64 348.71 400.83C348.71 400.64 348.84 400.39 349.3 400.32C349.64 400.26 349.98 400.34 350.25 400.55C351.2 401.23 351.51 403.14 351.53 403.22C351.54 403.28 351.51 403.34 351.46 403.38C351.44 403.4 351.4 403.4 351.36 403.39ZM349.44 400.63H349.34C349.04 400.67 349.03 400.8 349.02 400.84C349.01 401.32 350.2 402.46 351.11 402.92C350.97 402.12 350.6 401.38 350.03 400.81C349.87 400.68 349.66 400.62 349.44 400.63Z" fill="#407BFF"/>
<path d="M352.05 402.35L359.79 401.86C360.08 401.84 360.35 402.03 360.43 402.31L362.23 408.52C362.39 409.07 362.08 409.65 361.53 409.81C361.46 409.83 361.39 409.84 361.31 409.85C358.52 409.98 356.02 409.99 352.55 410.21C348.45 410.47 349.52 410.9 344.7 411.27C341.8 411.49 341.05 408.23 342.28 407.98C347.87 406.91 348.35 405.17 350.4 403.01C350.85 402.61 351.44 402.37 352.05 402.35Z" fill="#263238"/>
<path d="M354.7 242.18L353.35 237.33C353.18 236.74 352.52 236.44 351.97 236.72L321.71 251.98C321.18 252.25 321.01 252.92 321.35 253.41L324.42 257.87C324.42 257.87 331.93 309.04 335.04 326.04C338.22 343.38 349.6 395.23 349.6 395.23C349.68 395.61 350.04 395.87 350.43 395.81L359.24 394.38C359.58 394.32 359.84 394.03 359.85 393.68C359.95 389.26 359.88 361.32 357.07 341.55C356.06 334.49 353.69 328.83 352.88 324.94C351.99 320.65 353.37 317.77 353.91 307.43C354.94 287.98 356.16 257.3 354.7 242.18Z" fill="#263238"/>
<path opacity="0.5" d="M353.91 307.44C354.25 300.93 354.62 293.17 354.9 285.15L346.13 270.35L342.21 261.61L338.51 266.64C338.51 266.64 345.05 294.15 353.64 311.44C353.74 310.24 353.83 308.92 353.91 307.44Z" fill="black"/>
<path d="M420.499 368.54C424.189 373.77 426.579 377.21 426.579 377.21L421.049 381.73C421.049 381.73 418.139 378.46 413.689 373.45L420.499 368.54Z" fill="#FFC3BD"/>
<path d="M417.16 382.08C416.45 382.6 415.62 383.02 415.16 382.88C414.91 382.79 414.74 382.55 414.74 382.28C414.72 382.05 414.79 381.83 414.93 381.65C415.69 380.68 418.53 380.35 418.65 380.34C418.72 380.33 418.79 380.37 418.82 380.43C418.85 380.49 418.84 380.57 418.79 380.62C418.29 381.16 417.74 381.64 417.16 382.08ZM415.43 381.64C415.34 381.7 415.26 381.78 415.2 381.86C415.1 381.96 415.05 382.1 415.07 382.25C415.09 382.49 415.19 382.55 415.26 382.57C415.8 382.75 417.25 381.69 418.22 380.77C417.24 380.88 416.29 381.18 415.43 381.64Z" fill="#407BFF"/>
<path d="M418.77 380.64C418.76 380.66 418.73 380.67 418.71 380.68C417.8 380.88 415.51 380.66 415.16 379.92C415.06 379.75 415.04 379.48 415.38 379.17C415.63 378.94 415.97 378.82 416.31 378.84C417.48 378.9 418.77 380.33 418.83 380.4C418.87 380.45 418.88 380.51 418.86 380.57C418.84 380.6 418.8 380.63 418.77 380.64ZM415.66 379.36L415.58 379.41C415.35 379.61 415.41 379.72 415.42 379.76C415.67 380.17 417.29 380.48 418.31 380.38C417.76 379.78 417.05 379.36 416.26 379.19C416.04 379.17 415.83 379.23 415.66 379.36Z" fill="#407BFF"/>
<path d="M418.779 379.4L425.019 374.79C425.259 374.62 425.579 374.63 425.799 374.82L430.679 379.07C431.119 379.44 431.169 380.1 430.789 380.53C430.739 380.59 430.689 380.64 430.629 380.68C428.349 382.3 426.259 383.66 423.459 385.73C420.149 388.17 421.279 387.95 417.439 390.87C415.119 392.63 412.729 390.28 413.619 389.42C417.739 385.49 417.199 383.77 417.759 380.85C417.909 380.26 418.279 379.74 418.779 379.4Z" fill="#263238"/>
<path d="M332.539 254.52C332.539 254.52 355.709 307.94 366.659 323.86C376.379 337.99 413.319 374.18 413.319 374.18C413.889 374.79 414.839 374.85 415.469 374.31L420.599 369.95C421.179 369.45 421.319 368.6 420.919 367.95C417.779 362.82 404.509 341.49 392.879 327.62C388.239 322.08 383.769 318.03 381.579 314.98C378.689 310.95 379.359 307.72 377.069 296.53C372.809 275.73 364.519 245.13 351.909 240.23L332.539 254.52Z" fill="#263238"/>
<path opacity="0.3" d="M286.58 406.7H192.19C185.66 406.7 180.83 401.4 181.4 394.87L202.14 157.83C202.71 151.3 208.47 146 215 146H309.39C315.92 146 320.75 151.3 320.18 157.83L299.44 394.87C298.87 401.41 293.11 406.7 286.58 406.7Z" fill="#22DCD9"/>
<path d="M310.62 144.74H216.23C209.7 144.74 203.94 150.04 203.37 156.57L182.63 393.61C182.06 400.14 186.89 405.44 193.42 405.44H287.81C294.34 405.44 300.1 400.14 300.67 393.61L321.41 156.57C321.98 150.03 317.15 144.74 310.62 144.74ZM295.42 393.61C295.1 397.24 291.89 400.19 288.27 400.19H193.88C190.25 400.19 187.56 397.24 187.88 393.61L208.62 156.57C208.94 152.94 212.15 149.99 215.77 149.99H310.16C313.79 149.99 316.48 152.94 316.16 156.57L295.42 393.61Z" fill="#22DCD9"/>
<path opacity="0.6" d="M310.62 144.74H216.23C209.7 144.74 203.94 150.04 203.37 156.57L182.63 393.61C182.06 400.14 186.89 405.44 193.42 405.44H287.81C294.34 405.44 300.1 400.14 300.67 393.61L321.41 156.57C321.98 150.03 317.15 144.74 310.62 144.74ZM295.42 393.61C295.1 397.24 291.89 400.19 288.27 400.19H193.88C190.25 400.19 187.56 397.24 187.88 393.61L208.62 156.57C208.94 152.94 212.15 149.99 215.77 149.99H310.16C313.79 149.99 316.48 152.94 316.16 156.57L295.42 393.61Z" fill="white"/>
<path d="M254.79 390.79C254.23 390.79 229.39 390.79 228.83 390.79C228.03 390.79 227.32 391.44 227.25 392.25C227.18 393.05 227.77 393.71 228.58 393.71C229.15 393.71 253.97 393.71 254.54 393.71C255.34 393.71 256.05 393.06 256.12 392.25C256.19 391.44 255.59 390.79 254.79 390.79Z" fill="white"/>
<path opacity="0.1" d="M254.149 254.98H226.619C222.809 254.98 219.989 251.89 220.319 248.08L222.729 220.55C223.059 216.74 226.419 213.65 230.239 213.65H257.769C261.579 213.65 264.399 216.74 264.069 220.55L261.659 248.08C261.329 251.89 257.969 254.98 254.149 254.98Z" fill="black"/>
<path d="M251.149 251.98H223.619C219.809 251.98 216.989 248.89 217.319 245.08L219.729 217.55C220.059 213.74 223.419 210.65 227.239 210.65H254.769C258.579 210.65 261.399 213.74 261.069 217.55L258.659 245.08C258.329 248.89 254.969 251.98 251.149 251.98Z" fill="#22DCD9"/>
<path d="M243.819 228.82C244.289 223.49 239.769 219.16 233.719 219.16C227.679 219.16 222.399 223.48 221.929 228.82C221.559 233.04 224.309 236.61 228.469 237.93C227.789 239.16 226.829 240.08 225.849 240.52C226.049 240.63 226.259 240.75 226.479 240.83C228.689 241.63 231.229 240.57 232.459 238.46C238.319 238.25 243.369 234.02 243.819 228.82Z" fill="white"/>
<path d="M256.489 233.44C256.879 229.04 253.139 225.47 248.149 225.47C247.259 225.47 246.389 225.59 245.549 225.8C245.749 226.76 245.83 227.77 245.74 228.81C245.41 232.63 243.079 236 239.729 238.11C241.089 239.96 243.379 241.21 246.109 241.38C246.719 243.03 248.529 243.88 250.339 243.27C250.519 243.21 250.689 243.12 250.859 243.04C250.189 242.71 249.609 242.02 249.249 241.11C253.129 240.15 256.169 237.09 256.489 233.44Z" fill="white"/>
<path opacity="0.1" d="M241.529 340.2H221.059C218.219 340.2 216.129 337.9 216.369 335.07L218.159 314.6C218.409 311.76 220.909 309.47 223.739 309.47H244.209C247.049 309.47 249.139 311.77 248.899 314.6L247.109 335.07C246.869 337.91 244.369 340.2 241.529 340.2Z" fill="black"/>
<path opacity="0.1" d="M271.57 300.36H245.98C242.44 300.36 239.81 297.49 240.12 293.94L242.36 268.35C242.67 264.81 245.8 261.93 249.34 261.93H274.93C278.47 261.93 281.1 264.8 280.79 268.35L278.55 293.94C278.23 297.49 275.11 300.36 271.57 300.36Z" fill="black"/>
<path d="M268.57 297.36H242.98C239.44 297.36 236.81 294.49 237.12 290.94L239.36 265.35C239.67 261.81 242.8 258.93 246.34 258.93H271.93C275.47 258.93 278.1 261.8 277.79 265.35L275.55 290.94C275.23 294.49 272.11 297.36 268.57 297.36Z" fill="#22DCD9"/>
<path d="M238.529 337.2H218.059C215.219 337.2 213.129 334.9 213.369 332.07L215.159 311.6C215.409 308.76 217.909 306.47 220.739 306.47H241.209C244.049 306.47 246.139 308.77 245.899 311.6L244.109 332.07C243.869 334.91 241.369 337.2 238.529 337.2Z" fill="#22DCD9"/>
<path d="M270.24 267.59H246.5C245 267.59 243.67 268.81 243.54 270.31L242.17 285.97C242.04 287.47 243.15 288.69 244.65 288.69H268.39C269.89 288.69 271.22 287.47 271.35 285.97L272.72 270.31C272.86 268.82 271.75 267.59 270.24 267.59ZM252.06 278.13L244.11 285.44L245.39 270.82L252.06 278.13ZM246.84 269.48H269.57L258.08 280.05C257.6 280.49 256.89 280.49 256.49 280.05L246.84 269.48ZM253.28 279.47L255.03 281.39C255.57 281.98 256.31 282.27 257.09 282.27C257.86 282.27 258.66 281.98 259.3 281.39L261.39 279.47L268.09 286.81H245.3L253.28 279.47ZM262.84 278.13L270.79 270.82L269.51 285.44L262.84 278.13Z" fill="white"/>
<path d="M220.249 316.32L226.239 318.76L232.849 314.24L227.889 320.11L231.529 325.25L237.299 310.93L220.249 316.32Z" fill="white"/>
<path d="M225.839 320.12L228.539 323.42H225.659L225.839 320.12Z" fill="white"/>
<path d="M223.448 324.43L222.818 324.02C223.148 323.51 223.418 323.19 223.438 323.17L224.008 323.66C223.998 323.67 223.738 323.97 223.448 324.43Z" fill="white"/>
<path d="M223.149 329.361C222.479 328.961 222.039 328.421 221.859 327.761L222.579 327.561C222.709 328.041 223.029 328.411 223.529 328.721L223.149 329.361ZM222.519 326.781L221.769 326.721C221.819 326.151 222.009 325.521 222.339 324.851L223.009 325.181C222.729 325.771 222.559 326.311 222.519 326.781Z" fill="white"/>
<path d="M238.269 331.98L237.529 331.85C237.559 331.65 237.579 331.47 237.579 331.31C237.579 330.93 237.489 330.64 237.309 330.42L237.889 329.94C238.179 330.3 238.329 330.76 238.329 331.31C238.329 331.51 238.309 331.73 238.269 331.98ZM227.639 330.25C227.379 330.25 227.109 330.24 226.859 330.23L226.889 329.48C227.479 329.51 228.069 329.5 228.679 329.47L228.709 330.22C228.349 330.24 227.989 330.25 227.639 330.25ZM229.629 330.17L229.579 329.42C230.189 329.38 230.799 329.32 231.389 329.26L231.459 330.01C230.859 330.07 230.249 330.12 229.629 330.17ZM225.919 330.16C225.819 330.15 225.709 330.14 225.609 330.12C225.029 330.04 224.509 329.92 224.059 329.77L224.299 329.06C224.709 329.2 225.179 329.31 225.709 329.38L225.999 329.42L225.919 330.16ZM236.719 330.01C236.319 329.85 235.779 329.77 235.059 329.76L235.069 329.01C235.879 329.02 236.509 329.12 236.999 329.31L236.719 330.01ZM232.369 329.92L232.299 329.17C232.939 329.11 233.559 329.06 234.139 329.03L234.179 329.78C233.609 329.81 232.999 329.86 232.369 329.92Z" fill="white"/>
<path d="M237.649 333.9L236.959 333.6C237.099 333.28 237.219 332.98 237.309 332.7L238.019 332.94C237.919 333.23 237.799 333.55 237.649 333.9Z" fill="white"/>
<path opacity="0.1" d="M265.4 208.07H242.37C239.18 208.07 236.82 205.48 237.1 202.29L239.12 179.26C239.4 176.07 242.21 173.48 245.4 173.48H268.43C271.62 173.48 273.98 176.07 273.7 179.26L271.68 202.29C271.4 205.48 268.59 208.07 265.4 208.07Z" fill="black"/>
<path d="M262.4 205.07H239.37C236.18 205.07 233.82 202.48 234.1 199.29L236.12 176.26C236.4 173.07 239.21 170.48 242.4 170.48H265.43C268.62 170.48 270.98 173.07 270.7 176.26L268.68 199.29C268.4 202.48 265.59 205.07 262.4 205.07Z" fill="#22DCD9"/>
<path d="M263.629 192.471C263.209 184.001 257.089 177.291 248.719 176.131C246.479 174.921 243.499 175.551 241.709 177.751C239.729 180.181 241.479 181.721 243.749 183.491C246.019 185.251 247.959 186.571 249.939 184.141C250.709 183.191 251.129 182.091 251.239 181.011C254.989 182.551 257.819 185.641 259.009 189.531C257.919 189.541 256.789 189.871 255.789 190.561C253.209 192.321 254.339 194.381 255.889 196.801C257.439 199.231 258.819 201.111 261.399 199.351C263.749 197.741 264.629 194.811 263.629 192.471Z" fill="white"/>
<path d="M254.02 140.76C259.25 140.76 264.47 140.76 269.7 140.76C270.47 140.76 270.58 139.56 269.8 139.56C264.57 139.56 259.35 139.56 254.12 139.56C253.36 139.56 253.25 140.76 254.02 140.76Z" fill="#407BFF"/>
<path d="M275.45 140.76C276.95 140.76 278.45 140.76 279.96 140.76C280.73 140.76 280.84 139.56 280.06 139.56C278.56 139.56 277.06 139.56 275.55 139.56C274.78 139.56 274.67 140.76 275.45 140.76Z" fill="#407BFF"/>
<g opacity="0.3">
<path d="M254.02 140.76C259.25 140.76 264.47 140.76 269.7 140.76C270.47 140.76 270.58 139.56 269.8 139.56C264.57 139.56 259.35 139.56 254.12 139.56C253.36 139.56 253.25 140.76 254.02 140.76Z" fill="white"/>
</g>
<g opacity="0.3">
<path d="M275.45 140.76C276.95 140.76 278.45 140.76 279.96 140.76C280.73 140.76 280.84 139.56 280.06 139.56C278.56 139.56 277.06 139.56 275.55 139.56C274.78 139.56 274.67 140.76 275.45 140.76Z" fill="white"/>
</g>
<path d="M305.7 262.07C305.24 267.3 304.79 272.52 304.33 277.75C304.26 278.52 305.45 278.63 305.52 277.85C305.98 272.62 306.43 267.4 306.89 262.17C306.95 261.4 305.76 261.29 305.7 262.07Z" fill="#407BFF"/>
<path d="M303.82 283.49C303.69 284.99 303.56 286.49 303.43 288C303.36 288.77 304.55 288.88 304.62 288.1C304.75 286.6 304.88 285.1 305.01 283.59C305.08 282.83 303.89 282.72 303.82 283.49Z" fill="#407BFF"/>
<g opacity="0.3">
<path d="M305.7 262.07C305.24 267.3 304.79 272.52 304.33 277.75C304.26 278.52 305.45 278.63 305.52 277.85C305.98 272.62 306.43 267.4 306.89 262.17C306.95 261.4 305.76 261.29 305.7 262.07Z" fill="white"/>
</g>
<g opacity="0.3">
<path d="M303.82 283.49C303.69 284.99 303.56 286.49 303.43 288C303.36 288.77 304.55 288.88 304.62 288.1C304.75 286.6 304.88 285.1 305.01 283.59C305.08 282.83 303.89 282.72 303.82 283.49Z" fill="white"/>
</g>
<path d="M166.85 192.29C166.85 192.29 161.05 191.49 161.75 194.51C162.26 196.72 164.21 192.39 166.85 192.29Z" fill="#263238"/>
<path d="M161.81 199.15C161.81 199.15 166.59 199.11 167.33 190.39C167.33 190.39 171.89 188.8 174.48 191.64C177.07 194.48 171.12 199.99 174.4 202.84C174.4 202.84 171.12 204.63 161.81 199.15Z" fill="#FF8B7B"/>
<path d="M179.5 168.38C179.5 168.38 185.66 167.06 187.26 171.59C188.86 176.12 178.14 174.13 178.14 174.13L179.5 168.38Z" fill="#263238"/>
<path opacity="0.3" d="M179.5 168.38C179.5 168.38 185.66 167.06 187.26 171.59C188.86 176.12 178.14 174.13 178.14 174.13L179.5 168.38Z" fill="black"/>
<path d="M184.54 179.67C184.64 179.09 185.02 178.67 185.4 178.74C185.78 178.8 186.01 179.33 185.91 179.9C185.81 180.48 185.43 180.9 185.05 180.83C184.67 180.77 184.44 180.25 184.54 179.67Z" fill="#263238"/>
<path d="M184.84 180.76L187.54 185.11C187.54 185.11 186.09 186.15 184.1 185.41L184.84 180.76Z" fill="#FF5652"/>
<path d="M164.469 176.87C164.129 184.28 163.829 187.41 167.139 191.59C172.409 196.04 181.309 196.67 183.849 189.5C186.139 183.05 186.299 172.05 179.409 168.31C174.489 165.64 168.349 167.47 165.679 172.38C164.939 173.77 164.519 175.3 164.469 176.87Z" fill="#FF8B7B"/>
<path d="M183.61 177.84C183.72 177.88 183.84 177.86 183.93 177.8C184.62 177.27 185.53 177.1 186.37 177.36C186.55 177.43 186.74 177.34 186.81 177.16C186.88 176.98 186.79 176.79 186.62 176.71C185.57 176.37 184.42 176.57 183.53 177.23C183.37 177.33 183.33 177.54 183.43 177.69L183.44 177.7C183.48 177.78 183.54 177.82 183.61 177.84Z" fill="#263238"/>
<path d="M158.449 200.65C158.449 200.65 160.509 194.96 169.039 198.59C177.569 202.21 178.369 207.22 178.369 207.22L158.449 200.65Z" fill="#263238"/>
<path opacity="0.4" d="M158.449 200.65C158.449 200.65 160.509 194.96 169.039 198.59C177.569 202.21 178.369 207.22 178.369 207.22L158.449 200.65Z" fill="black"/>
<path d="M162.28 308.49C162.28 308.49 161.06 318.86 160.48 322.29C159.97 325.33 143.5 403.99 143.5 403.99L135.99 402.75C135.99 402.75 135.16 362.88 140.94 336.49C142.12 331.09 144.51 326.56 145.38 322.44C146.08 319.12 145.02 308.89 145.02 308.89L162.28 308.49Z" fill="#FF8B7B"/>
<path d="M130.999 306.8C130.999 306.8 127.509 316.3 125.879 319.24C124.109 322.44 117.389 331.15 117.389 331.15L81.5893 381.37L74.7393 377.04C74.7393 377.04 85.0693 349.39 100.629 326.86C104.339 321.49 109.679 317.4 112.579 312.07C114.249 309 115.679 298.44 115.679 298.44L130.999 306.8Z" fill="#FF8B7B"/>
<path d="M140.6 210.64C140.6 210.64 132.03 221.57 132.76 226.16C133.49 230.75 146.92 236.34 146.92 236.34L150.33 231.49L141.51 225.05L149.91 215.42L140.6 210.64Z" fill="#FF8B7B"/>
<path d="M154.769 199.7C153.689 199.2 148.949 197.29 138.699 210.62C138.699 210.62 142.429 215.27 150.429 218.04C150.419 218.03 159.419 201.87 154.769 199.7Z" fill="#263238"/>
<path opacity="0.4" d="M150.42 218.03C150.42 218.03 151.91 215.35 153.37 212.02C153.13 206.31 152.43 199.22 150.42 201.77C147.76 205.15 144.08 211.96 142.88 214.24C144.75 215.53 147.24 216.93 150.42 218.03Z" fill="black"/>
<path d="M142.349 243.96C142.349 243.96 156.109 252.1 174.239 253.14L162.679 317.55C162.679 317.55 129.339 317.45 111.909 300.88C111.919 300.88 118.869 265.78 142.349 243.96Z" fill="#F73E94"/>
<path d="M140.939 244.14C140.939 244.14 154.289 253.98 175.559 253.31C175.559 253.31 187.769 219.53 180.119 208.11C175.389 201.05 157.229 197.85 152.339 199.86C146.439 202.28 149.849 223.46 140.939 244.14Z" fill="#263238"/>
<path opacity="0.1" d="M144.14 278.84L129.29 311.31C135.35 313.69 141.71 314.92 145.29 315.7C145.29 315.7 145.79 285.37 144.14 278.84Z" fill="black"/>
<path opacity="0.4" d="M174.509 213.63L172.149 215.37C172.149 215.37 174.189 223.91 180.949 233.76C181.909 228.98 182.609 223.95 182.619 219.43L177.359 214.97L174.509 213.63Z" fill="black"/>
<path d="M187.89 218.51L195.89 229.66L215.99 230.99L219.68 227.92C219.93 227.71 220.23 227.59 220.56 227.56L231.29 226.71C231.62 226.68 231.9 226.96 231.87 227.29L231.81 228.2C231.79 228.47 231.58 228.68 231.31 228.7L226.22 229.1L225.18 234.32C225.06 234.92 224.61 235.39 224.02 235.54L220.03 236.56C219.77 236.63 219.5 236.63 219.25 236.56L216.43 235.85C216.43 235.85 200.76 239.02 193.57 237.75C186.38 236.48 179.29 224.78 179.29 224.78L187.89 218.51Z" fill="#FF8B7B"/>
<path d="M178.63 226.98C178.63 226.98 165.75 209.76 173.7 205.75C181.65 201.75 190.01 219.45 190.01 219.45C190.01 219.45 186.74 224.45 178.63 226.98Z" fill="#263238"/>
<path d="M145.13 403.54C145.05 403.52 144.99 403.45 144.98 403.37C144.97 403.29 145.01 403.21 145.08 403.17C145.21 403.1 148.16 401.56 149.53 401.99C149.79 402.07 150 402.24 150.13 402.47C150.31 402.73 150.3 403.07 150.11 403.32C149.75 403.75 148.68 403.9 147.65 403.86C146.81 403.84 145.96 403.73 145.13 403.54ZM145.78 403.3C147.31 403.55 149.4 403.61 149.81 403.09C149.87 403.03 149.92 402.91 149.79 402.66C149.72 402.51 149.58 402.41 149.42 402.37C149.3 402.33 149.17 402.31 149.05 402.31C147.89 402.43 146.79 402.77 145.78 403.3Z" fill="#407BFF"/>
<path d="M145.03 403.53C144.97 403.49 144.94 403.42 144.95 403.35C144.96 403.25 145.27 401.02 146.36 400.19C146.67 399.95 147.07 399.84 147.46 399.9C148 399.97 148.16 400.25 148.17 400.48C148.31 401.42 146.25 403.14 145.25 403.54C145.22 403.55 145.19 403.55 145.17 403.54C145.12 403.55 145.07 403.55 145.03 403.53ZM147.31 400.26C147.06 400.25 146.82 400.33 146.62 400.48C145.98 401.17 145.56 402.04 145.43 402.98C146.48 402.41 147.84 401.06 147.81 400.49C147.8 400.44 147.78 400.3 147.43 400.25L147.31 400.26Z" fill="#407BFF"/>
<path d="M144.33 402.35L135.29 402.01C134.95 402 134.65 402.22 134.56 402.55L132.65 409.84C132.48 410.49 132.86 411.15 133.5 411.32C133.58 411.34 133.67 411.36 133.75 411.36C137.01 411.43 139.92 411.35 143.97 411.51C148.76 411.69 147.52 412.22 153.15 412.51C156.54 412.68 157.3 408.85 155.87 408.61C149.32 407.54 148.71 405.52 146.26 403.07C145.73 402.61 145.04 402.35 144.33 402.35Z" fill="#263238"/>
<path d="M82.7095 381.87C82.6495 381.82 82.6195 381.73 82.6495 381.65C82.6795 381.57 82.7495 381.52 82.8295 381.52C82.9795 381.52 86.3095 381.47 87.3295 382.47C87.5195 382.65 87.6395 382.9 87.6495 383.17C87.6895 383.48 87.5295 383.78 87.2495 383.92C86.7395 384.14 85.7095 383.79 84.8095 383.29C84.0795 382.89 83.3695 382.41 82.7095 381.87ZM83.3995 381.95C84.6595 382.86 86.4895 383.86 87.0895 383.58C87.1695 383.55 87.2695 383.47 87.2595 383.19C87.2595 383.02 87.1895 382.87 87.0595 382.76C86.9695 382.67 86.8695 382.6 86.7495 382.54C85.6795 382.13 84.5395 381.93 83.3995 381.95Z" fill="#407BFF"/>
<path d="M82.6298 381.81C82.5998 381.75 82.5998 381.67 82.6398 381.61C82.6998 381.52 83.9698 379.68 85.3198 379.43C85.7098 379.35 86.1098 379.44 86.4398 379.67C86.8898 379.98 86.8998 380.3 86.8098 380.51C86.5098 381.41 83.8998 382.02 82.8198 381.93C82.7898 381.93 82.7598 381.92 82.7398 381.9C82.6998 381.87 82.6598 381.85 82.6298 381.81ZM86.1398 379.93C85.9198 379.81 85.6698 379.77 85.4298 379.82C84.5398 380.15 83.7798 380.74 83.2398 381.51C84.4298 381.48 86.2598 380.88 86.4798 380.36C86.4898 380.31 86.5398 380.17 86.2498 379.98L86.1398 379.93Z" fill="#407BFF"/>
<path d="M82.5296 380.45L74.6096 376.07C74.3096 375.9 73.9396 375.97 73.7096 376.22L68.7196 381.87C68.2696 382.37 68.3196 383.13 68.8096 383.58C68.8696 383.64 68.9396 383.69 69.0196 383.73C71.8996 385.26 74.5296 386.5 78.0796 388.47C82.2696 390.79 80.9296 390.7 85.8196 393.5C88.7696 395.18 91.1796 392.11 90.0096 391.24C84.6496 387.33 85.0096 385.26 83.9296 381.96C83.6696 381.31 83.1696 380.77 82.5296 380.45Z" fill="#263238"/>
<path d="M176.95 183.24C176.95 183.24 179.99 182.29 178.84 177.88C178.84 177.88 180.61 174.92 180.33 173.29C180.33 173.29 189.31 168.11 184.2 162.41C179.09 156.72 169.73 160.53 165.6 167.8C165.6 167.8 143.65 174.93 158.93 188.36C173.85 201.47 176.95 183.24 176.95 183.24Z" fill="#263238"/>
<path d="M167.929 170.85C167.929 170.85 164.509 163.32 169.649 157.63C174.799 151.95 166.239 165.65 167.929 170.85Z" fill="#263238"/>
<path d="M176.949 183.24C176.949 183.24 177.049 183.21 177.189 183.14C177.149 177.51 175.019 170.74 166.699 166.12C166.299 166.66 165.919 167.22 165.589 167.8C165.589 167.8 164.959 168.01 163.989 168.41C166.869 171.47 174.769 181.6 165.879 192.67C174.859 195.47 176.949 183.24 176.949 183.24Z" fill="#F73E94"/>
<path d="M177.35 180.6C178.37 181.72 178.91 183.2 178.84 184.71C178.73 186.72 176.77 187.1 175.21 186.02C173.79 185.04 172.16 182.83 173.04 181.06C173.92 179.29 176.08 179.25 177.35 180.6Z" fill="#FF8B7B"/>
<path d="M185.26 178.75L186.89 178.67C186.88 178.67 185.82 179.68 185.26 178.75Z" fill="#263238"/>
<path opacity="0.2" d="M170.43 193.67C170.84 194.52 171.91 196.31 174.04 197.64C174.37 196.7 174.74 195.76 174.95 194.87C173.43 194.74 171.89 194.34 170.43 193.67Z" fill="black"/>
</svg>
