<svg width="391" height="393" viewBox="0 0 391 393" fill="none" xmlns="http://www.w3.org/2000/svg">
<path d="M273.252 258.413C293.57 258.551 319.473 255.827 344.282 244.606C350.614 241.742 389.725 224.052 385.105 206.238C383.479 199.963 377.799 198.973 375.477 190.621C372.725 180.725 378.938 175.783 383.244 163.449C385.814 156.09 393.333 134.554 380.432 122.629C372.721 115.504 358.068 112.133 346.913 114.737C330.552 118.556 324.928 134.482 315.876 161.593C307.852 185.625 309.914 191.524 303.835 208.729C299.321 221.497 290.825 239.078 273.252 258.413Z" fill="url(#paint0_linear_1030_620)"/>
<mask id="mask0_1030_620" style="mask-type:luminance" maskUnits="userSpaceOnUse" x="273" y="113" width="115" height="146">
<path d="M273.252 258.412C293.57 258.55 319.473 255.826 344.282 244.605C350.613 241.741 389.725 224.051 385.105 206.237C383.479 199.962 377.799 198.972 375.477 190.62C372.725 180.724 378.938 175.782 383.244 163.448C385.814 156.089 393.333 134.553 380.431 122.628C372.721 115.503 358.068 112.132 346.913 114.736C330.551 118.555 324.927 134.481 315.876 161.592C307.852 185.624 309.914 191.523 303.834 208.728C299.321 221.496 290.825 239.077 273.252 258.412Z" fill="white"/>
</mask>
<g mask="url(#mask0_1030_620)">
<g opacity="0.5">
<path d="M222.212 269.505C210.445 269.505 198.403 267.877 186.184 264.624L186.43 263.697C208.665 269.616 230.3 270.118 250.736 265.189C277.957 258.621 301.57 242.314 320.918 216.718C341.073 190.056 351.552 160 356.794 139.48C360.421 125.282 359.721 109.559 354.713 92.7492L355.632 92.4756C360.692 109.454 361.395 125.349 357.724 139.717C352.461 160.322 341.936 190.508 321.685 217.298C302.2 243.074 278.405 259.501 250.961 266.122C241.607 268.377 232.004 269.505 222.212 269.505Z" fill="white"/>
<path d="M343.058 180.48L342.787 180.145C342.731 180.075 337.022 172.963 332.413 162.107C328.153 152.076 323.978 136.696 328.278 120.389L329.207 120.634C321.589 149.521 340.765 175.917 343.27 179.2C386.278 151.199 385.852 119.204 384.692 110.045C384.659 109.794 384.643 109.637 384.645 109.58L385.124 109.584L385.604 109.58C385.607 109.633 385.622 109.749 385.645 109.924C386.827 119.25 387.277 151.882 343.424 180.245L343.058 180.48Z" fill="white"/>
<path d="M338.084 218.291C333.023 218.291 327.525 217.91 321.568 217.034L321.314 216.996L321.205 216.764C321.088 216.516 309.472 191.573 312.019 157.664L314.588 123.489L315.545 123.561L312.976 157.736C310.579 189.644 320.805 213.532 321.967 216.121C336.5 218.226 357.434 218.573 375.149 208.454C385.8 202.369 390.287 195.278 390.332 195.206L391.147 195.712C390.964 196.008 386.518 203.049 375.68 209.255C367.934 213.691 355.662 218.291 338.084 218.291Z" fill="white"/>
</g>
</g>
<path d="M251.372 258.246C235.779 248.625 214.441 232.189 200.882 205.566C183.097 170.651 194.316 148.895 179.87 86.5942C170.736 47.202 163.964 19.8031 140.987 9.08746C122.98 0.691231 97.1769 3.54433 83.9869 17.4096C73.0192 28.9379 69.4882 49.4284 69.9896 63.4406C70.3979 74.8597 73.5085 82.578 68.3252 89.6926C63.0287 96.9635 55.3198 95.0268 50.1324 100.668C39.6122 112.11 52.778 140.24 54.906 144.787C78.5758 195.358 134.884 221.255 159.581 232.253C180.003 241.348 211.038 252.689 251.372 258.246Z" fill="url(#paint1_linear_1030_620)"/>
<mask id="mask1_1030_620" style="mask-type:luminance" maskUnits="userSpaceOnUse" x="46" y="4" width="206" height="255">
<path d="M251.372 258.246C235.779 248.624 214.441 232.188 200.882 205.565C183.097 170.65 194.316 148.894 179.87 86.5932C170.736 47.201 163.964 19.8021 140.987 9.08648C122.98 0.690255 97.1769 3.54335 83.9869 17.4086C73.0192 28.9369 69.4882 49.4274 69.9896 63.4396C70.3979 74.8587 73.5085 82.577 68.3252 89.6916C63.0287 96.9625 55.3198 95.0258 50.1324 100.667C39.6122 112.109 52.778 140.239 54.906 144.786C78.5758 195.357 134.884 221.254 159.581 232.252C180.003 241.347 211.038 252.688 251.372 258.246Z" fill="white"/>
</mask>
<g mask="url(#mask1_1030_620)">
<g opacity="0.5">
<path d="M268.347 264.953C243.759 260.926 222.011 254.58 203.705 246.089C176.614 233.523 157.882 216.566 148.03 195.69C140.325 179.361 138.095 160.417 135.27 136.431C132.929 116.549 133.062 102.256 133.181 89.647C133.335 73.3007 133.454 60.3883 127.98 42.8667C122.418 25.0662 112.74 8.20903 99.2186 -7.23706L99.941 -7.86914C113.553 7.67668 123.295 24.6511 128.897 42.5796C134.417 60.2454 134.294 73.2238 134.14 89.6551C134.022 102.236 133.888 116.495 136.223 136.318C139.147 161.151 141.259 179.093 148.898 195.28C158.651 215.949 177.227 232.749 204.109 245.218C222.336 253.673 244 259.993 268.503 264.007L268.347 264.953Z" fill="white"/>
<path d="M134.192 122.312L133.937 121.833C116.193 88.5948 92.7578 70.309 76.2214 60.8212C58.3198 50.5503 44.4573 48.1055 44.3198 48.0813L44.4816 47.1352C44.6217 47.1594 58.6514 49.6338 76.6999 59.9883C93.2632 69.491 116.703 87.7605 134.522 120.891C136.739 119.223 146.969 111.107 155.992 97.0233C165.336 82.4398 175.262 58.2848 169.487 26.0233L170.432 25.8535C176.266 58.4384 166.227 82.8414 156.779 97.5745C146.542 113.538 134.755 121.914 134.637 121.998L134.192 122.312Z" fill="white"/>
<path d="M141.93 175.711L141.583 175.681C118.886 173.755 90.991 149.041 71.5853 128.647C50.6001 106.593 34.747 84.7081 34.5894 84.4897L35.367 83.9277C35.5247 84.1461 51.3454 105.986 72.2875 127.992C91.4775 148.158 118.986 172.571 141.318 174.692C142.507 171.936 151.219 152.104 163.604 133.769C176.944 114.022 214.599 100.474 214.978 100.339L215.3 101.243C214.924 101.377 177.562 114.821 164.401 134.305C151.174 153.885 142.155 175.173 142.066 175.386L141.93 175.711Z" fill="white"/>
<path d="M183.638 243.016C175.199 243.016 162.744 242.558 148.2 240.586C123.221 237.202 86.7821 228.537 55.0341 206.48L-6.27319 163.886L-5.72602 163.097L55.5813 205.692C87.1648 227.635 123.437 236.26 148.304 239.632C171.911 242.833 189.986 242.035 194.246 241.778C186.808 233.07 182.752 223.224 182.192 212.498C181.731 203.69 183.614 194.282 187.789 184.534C194.88 167.972 206.305 155.988 206.42 155.868L207.111 156.534C206.998 156.653 195.68 168.529 188.661 184.936C184.55 194.545 182.696 203.806 183.151 212.462C183.719 223.263 187.909 233.158 195.601 241.875L196.234 242.592L195.281 242.67C195.189 242.677 190.899 243.016 183.638 243.016Z" fill="white"/>
</g>
</g>
<path d="M246.272 256.113C223.353 273.765 191.636 292.982 153.844 301.621C144.2 303.826 84.6189 317.446 74.5164 293.27C70.9585 284.754 76.5447 278.741 71.9854 267.272C66.5838 253.681 55.2833 253.427 39.7806 243.15C30.5299 237.018 3.45849 219.075 7.81968 194.444C10.4261 179.726 24.1391 163.285 39.0286 156.632C60.8682 146.874 80.9598 160.087 114.568 183.033C144.36 203.373 147.103 211.838 168.812 226.11C184.923 236.704 209.696 249.322 246.272 256.113Z" fill="url(#paint2_linear_1030_620)"/>
<mask id="mask2_1030_620" style="mask-type:luminance" maskUnits="userSpaceOnUse" x="7" y="153" width="240" height="155">
<path d="M246.272 256.112C223.353 273.764 191.636 292.981 153.844 301.62C144.2 303.825 84.6189 317.445 74.5164 293.269C70.9585 284.753 76.5447 278.74 71.9854 267.271C66.5838 253.68 55.2833 253.426 39.7806 243.149C30.5299 237.017 3.45849 219.074 7.81968 194.443C10.4261 179.725 24.1391 163.284 39.0286 156.631C60.8682 146.873 80.9598 160.086 114.568 183.032C144.36 203.372 147.103 211.837 168.812 226.109C184.923 236.703 209.696 249.321 246.272 256.112Z" fill="white"/>
</mask>
<g mask="url(#mask2_1030_620)">
<g opacity="0.5">
<path d="M211.886 259.117C193.92 259.117 175.266 256.414 156.007 251.001C110.01 238.074 72.1068 212.926 48.4101 194.107C31.9033 180.997 19.0368 162.399 10.1661 138.828L11.0637 138.489C19.8723 161.896 32.6392 180.356 49.0071 193.354C72.6351 212.119 110.425 237.193 156.267 250.077C200.291 262.45 241.154 260.604 277.719 244.59C305.166 232.57 329.291 213.35 349.426 187.464L350.184 188.053C329.95 214.066 305.7 233.383 278.104 245.469C257.337 254.565 235.193 259.117 211.886 259.117Z" fill="white"/>
<path d="M84.7133 228.271C21.65 228.271 -2.63571 195.197 -8.84999 184.428C-8.98342 184.196 -9.06832 184.045 -9.11145 183.987L-8.35134 183.402C-8.29069 183.48 -8.21927 183.603 -8.01981 183.949C-1.42816 195.37 25.739 232.153 98.8751 226.779C98.8953 224.412 98.7942 212.588 95.1271 198.119C91.3629 183.262 82.96 162.492 64.3104 147.914L64.902 147.158C83.774 161.909 92.2646 182.899 96.0637 197.912C100.177 214.162 99.8306 227.112 99.8266 227.242L99.8131 227.673L99.3832 227.705C94.2794 228.089 89.3845 228.271 84.7133 228.271Z" fill="white"/>
<path d="M77.5205 289.048C65.8858 289.048 58.7699 286.384 58.6796 286.349L59.0232 285.453C59.1351 285.496 70.3602 289.687 87.72 287.415C103.712 285.322 128.322 277.159 154.845 250.172C154.078 246.822 145.216 210.519 114.692 176.032L82.3521 139.495L83.0704 138.858L115.41 175.396C147.463 211.61 155.759 249.842 155.84 250.224L155.893 250.474L155.712 250.658C128.903 278.013 103.973 286.267 87.7793 288.375C84.0704 288.857 80.6337 289.048 77.5205 289.048Z" fill="white"/>
</g>
</g>
<path d="M240.798 276.826C239.055 274.458 228.574 260.657 211.987 260.082C198.1 259.601 187.48 268.651 185.02 270.746C175.115 279.187 176.259 285.92 168.257 288.653C158.756 291.899 151.937 284.183 145.792 288.637C141.554 291.71 140.313 298.636 142.031 303.465C145.047 311.94 157.902 315.98 167.651 313.954C181.082 311.161 181.384 298.36 196.635 294.248C205.497 291.858 208.078 295.458 217.504 293.148C228.45 290.466 236.047 282.897 240.798 276.826Z" fill="url(#paint3_linear_1030_620)"/>
<mask id="mask3_1030_620" style="mask-type:luminance" maskUnits="userSpaceOnUse" x="141" y="260" width="100" height="55">
<path d="M240.798 276.828C239.055 274.46 228.574 260.659 211.986 260.084C198.1 259.603 187.48 268.653 185.02 270.748C175.114 279.189 176.259 285.922 168.257 288.655C158.756 291.901 151.937 284.185 145.792 288.639C141.554 291.712 140.313 298.638 142.031 303.467C145.047 311.942 157.902 315.981 167.651 313.956C181.082 311.163 181.384 298.362 196.635 294.25C205.497 291.86 208.078 295.46 217.504 293.15C228.45 290.468 236.047 282.899 240.798 276.828Z" fill="white"/>
</mask>
<g mask="url(#mask3_1030_620)">
<g opacity="0.5">
<path d="M164.508 301.417C156.268 301.417 146.236 297.307 134.551 289.126L134.826 288.732C150.478 299.692 163.102 303.296 172.346 299.445C178.172 297.019 181.058 292.444 184.114 287.602C187.552 282.152 191.108 276.517 199.176 273.825C205.381 271.757 212.567 272.747 226.884 274.72C234.039 275.707 241.187 277.135 248.133 278.967L248.011 279.431C241.083 277.603 233.954 276.179 226.819 275.195C212.575 273.231 205.427 272.246 199.329 274.28C191.423 276.916 187.914 282.478 184.52 287.856C181.423 292.766 178.497 297.404 172.531 299.887C170.083 300.908 167.406 301.416 164.508 301.417Z" fill="white"/>
<path d="M148.113 315.306L148.004 314.839C165.008 310.893 169.624 301.327 170.034 300.398C168.507 295.145 164.054 290.703 160.575 287.897C156.774 284.828 153.284 282.997 153.248 282.978L153.47 282.552C153.611 282.625 167.578 290.007 170.518 300.347L170.54 300.425L170.511 300.501C170.47 300.608 166.147 311.12 148.113 315.306Z" fill="white"/>
<path d="M186.811 309.807C185.101 304.666 186.647 297.06 191.403 287.196C194.588 280.591 198.222 275.142 198.933 274.098C191.252 267.84 172.472 282.699 172.282 282.851L171.981 282.476C172.03 282.437 176.894 278.571 182.651 275.59C190.449 271.552 196.088 270.975 199.41 273.874L199.571 274.016L199.449 274.192C199.287 274.425 183.278 297.665 187.266 309.656L186.811 309.807Z" fill="white"/>
<path d="M203.452 302.635C198.929 285.275 222.2 275.697 224.977 274.623C216.995 260.857 197.058 258.251 196.856 258.227L196.915 257.751C197.12 257.777 217.528 260.445 225.534 274.631L225.674 274.879L225.406 274.975C225.143 275.069 199.241 284.577 203.915 302.515L203.452 302.635Z" fill="white"/>
</g>
</g>
<path d="M142.128 88.3496C144.781 89.696 148.112 88.4601 149.57 85.5882C151.029 82.7162 150.061 79.2971 147.409 77.9507C147.271 77.8806 147.131 77.8227 146.991 77.7661C147.484 76.1771 147.855 74.5761 148.104 72.9736C148.256 72.9736 148.409 72.9709 148.564 72.9574C151.589 72.6879 153.991 69.9076 153.927 66.7472C153.864 63.5868 151.36 61.2445 148.334 61.5141C148.177 61.5289 148.02 61.5531 147.867 61.5801C147.55 60.0141 147.117 58.4844 146.572 57.0033C146.71 56.9224 146.849 56.8375 146.984 56.7432C149.573 54.9291 150.4 51.3496 148.833 48.7486C147.266 46.1461 143.896 45.5073 141.307 47.3213C141.175 47.4143 141.05 47.5141 140.926 47.6165C139.903 46.4858 138.782 45.4386 137.569 44.4831C137.654 44.3429 137.737 44.2014 137.813 44.0531C139.271 41.1812 141.175 38.0451 138.503 36.7405C132.32 33.7216 129.667 36.3065 128.209 39.1771C128.134 39.3254 128.069 39.4763 128.006 39.6286C126.518 39.2135 125.011 38.9265 123.495 38.7674C123.504 38.6084 123.512 38.448 123.508 38.2863C123.445 35.1259 124.383 33.4157 121.345 33.3577C114.723 33.2283 112.488 36.103 112.551 39.2634C112.554 39.4292 112.569 39.5895 112.585 39.7499C111.068 40.1825 109.577 40.7351 108.126 41.4049C108.057 41.2634 107.985 41.1232 107.903 40.9871C106.336 38.3847 102.967 37.7459 100.378 39.5599C97.7886 41.3739 96.9611 44.9534 98.5285 47.5545C98.6094 47.6879 98.697 47.8119 98.7859 47.9359C97.639 49.0828 96.5662 50.3267 95.5743 51.6623C95.4463 51.5814 95.3156 51.5033 95.1781 51.4332C92.5258 50.0868 89.1943 51.3227 87.736 54.1946C86.2778 57.0666 87.2455 60.4858 89.8978 61.8321C90.0352 61.9022 90.1754 61.9601 90.3156 62.0167C89.8223 63.6057 89.4517 65.2068 89.2024 66.8092C89.0501 66.8092 88.8978 66.8119 88.7428 66.8254C85.7172 67.0949 83.3156 69.8752 83.3789 73.0356C83.4423 76.196 85.9463 78.5383 88.9719 78.2688C89.1296 78.2553 89.2859 78.2297 89.4396 78.2027C89.7549 79.7688 90.1889 81.2984 90.7347 82.7795C90.5959 82.8604 90.4571 82.9453 90.3223 83.0397C87.7334 84.8537 86.9059 88.4332 88.4732 91.0343C90.0406 93.6367 95.2307 94.8442 97.8196 93.0316C97.9517 92.9386 96.2563 92.2688 96.3803 92.1663C97.4032 93.2971 98.5245 94.3442 99.7374 95.2998C99.6525 95.4399 99.5689 95.5814 99.4935 95.7297C98.0352 98.6016 99.0029 102.021 101.655 103.367C104.307 104.714 107.639 103.478 109.097 100.606C109.173 100.457 109.237 100.307 109.301 100.154C110.789 100.569 112.295 100.856 113.812 101.015C113.802 101.174 113.795 101.335 113.798 101.497C113.861 104.657 116.365 106.999 119.391 106.73C122.417 106.46 124.818 103.68 124.755 100.519C124.752 100.354 124.737 100.193 124.721 100.033C126.239 99.6003 127.729 99.0477 129.181 98.3779C129.25 98.5194 129.321 98.6596 129.403 98.7944C130.971 101.397 134.34 102.036 136.929 100.222C139.518 98.4076 140.345 94.8281 138.778 92.227C138.697 92.0936 138.609 91.9696 138.52 91.8456C139.667 90.6987 140.74 89.4548 141.732 88.1192C141.861 88.2014 141.991 88.2796 142.128 88.3496ZM109.069 88.7688C99.4396 83.8806 95.9261 71.4655 101.22 61.0397C106.514 50.6138 118.611 46.1246 128.239 51.0141C137.868 55.9022 141.382 68.3173 136.088 78.7432C130.794 89.169 118.698 93.6583 109.069 88.7688Z" fill="#D8DEE8"/>
<path d="M148.564 72.9577C151.589 72.6882 153.991 69.9079 153.928 66.7475C153.864 63.5871 151.36 61.2448 148.335 61.5143C148.177 61.5278 148.021 61.5534 147.867 61.5804C147.552 60.0143 147.118 58.4847 146.572 57.0035C146.711 56.9227 146.849 56.8378 146.984 56.7434C149.573 54.9294 152.775 50.548 150.949 48.1208C147.483 43.5143 143.895 45.5076 141.308 47.3216C141.176 47.4146 141.05 47.5143 140.926 47.6167C139.903 46.486 138.782 45.4389 137.569 44.4833C137.654 44.3432 137.738 44.2017 137.813 44.0534C138.607 42.4901 138.677 40.7677 138.153 39.3027C135.653 43.703 133.186 48.1221 130.763 52.5655C138.445 58.1949 140.89 69.2866 136.089 78.7434C132.021 86.7569 123.933 91.2569 116.035 90.6936C115.684 91.6073 115.337 92.5251 114.96 93.4308C113.936 95.8863 112.774 98.2906 111.608 100.692C112.34 100.83 113.076 100.939 113.813 101.016C113.804 101.176 113.797 101.335 113.8 101.497C113.863 104.657 115.782 107.342 121.264 107.051C124.298 106.89 124.82 103.68 124.756 100.52C124.754 100.355 124.739 100.194 124.723 100.033C126.24 99.6006 127.731 99.048 129.182 98.3782C129.251 98.5197 129.322 98.6599 129.405 98.7946C130.972 101.397 136.411 102.502 138.999 100.688C141.588 98.8742 140.345 94.8283 138.778 92.2272C138.697 92.0938 138.609 91.9698 138.521 91.8459C139.667 90.699 140.74 89.455 141.732 88.1194C141.86 88.2003 141.991 88.2785 142.128 88.3486C144.781 89.6949 148.112 88.4591 149.57 85.5871C151.029 82.7151 150.061 79.296 147.409 77.9496C147.271 77.8795 147.131 77.8216 146.991 77.765C147.484 76.176 147.855 74.575 148.104 72.9725C148.255 72.9739 148.409 72.9712 148.564 72.9577Z" fill="#D8DEE8"/>
<path d="M144.981 88.6741C147.634 90.0204 150.965 88.7846 152.423 85.9126C153.882 83.0406 152.914 79.6215 150.262 78.2751C150.124 78.2051 149.984 78.1471 149.844 78.0905C150.337 76.5016 150.708 74.9005 150.957 73.2981C151.109 73.2981 151.262 73.2954 151.417 73.2819C154.442 73.0123 156.844 70.232 156.781 67.0716C156.717 63.9113 154.213 61.5689 151.188 61.8385C151.03 61.8533 150.874 61.8776 150.72 61.9045C150.403 60.3385 149.971 58.8088 149.425 57.3277C149.564 57.2468 149.702 57.1619 149.837 57.0676C152.426 55.2536 153.254 51.6741 151.686 49.073C150.119 46.4706 146.75 45.8317 144.161 47.6458C144.029 47.7387 143.903 47.8385 143.781 47.9409C142.758 46.8102 141.636 45.763 140.423 44.8075C140.508 44.6673 140.592 44.5258 140.667 44.3776C142.126 41.5056 141.158 38.0865 138.506 36.7401C135.853 35.3937 132.522 36.6296 131.064 39.5016C130.988 39.6498 130.923 39.8007 130.86 39.953C129.372 39.5379 127.865 39.2509 126.349 39.0919C126.359 38.9328 126.365 38.7724 126.363 38.6107C126.299 35.4503 123.795 33.108 120.77 33.3776C117.744 33.6471 115.343 36.4274 115.406 39.5878C115.409 39.7536 115.423 39.9139 115.44 40.0743C113.922 40.5069 112.432 41.0595 110.98 41.7293C110.911 41.5878 110.84 41.449 110.758 41.3129C109.19 38.7104 105.821 38.0716 103.232 39.8857C100.643 41.6997 99.8156 45.2792 101.383 47.8803C101.464 48.0137 101.551 48.1377 101.64 48.2617C100.494 49.4086 99.4207 50.6525 98.4288 51.9881C98.3008 51.9072 98.1701 51.829 98.0326 51.759C95.3803 50.4126 92.0488 51.6485 90.5905 54.5204C89.1323 57.3924 90.1 60.8115 92.7523 62.1579C92.8897 62.228 93.0299 62.2859 93.1701 62.3425C92.6768 63.9315 92.3062 65.5326 92.0568 67.135C91.9046 67.135 91.7523 67.1377 91.5973 67.1512C88.5717 67.4207 86.1701 70.201 86.2334 73.3614C86.2967 76.5218 88.8008 78.8641 91.8264 78.5946C91.9841 78.5811 92.1404 78.5555 92.294 78.5285C92.6094 80.0946 93.0434 81.6242 93.5892 83.1053C93.4504 83.1862 93.3116 83.2711 93.1768 83.3654C90.5879 85.1794 89.7604 88.759 91.3277 91.3601C92.8951 93.9625 96.2644 94.6013 98.8534 92.7873C98.9854 92.6943 99.1108 92.5946 99.2347 92.4921C100.258 93.6229 101.379 94.67 102.592 95.6256C102.507 95.7657 102.423 95.9072 102.348 96.0555C100.89 98.9274 101.857 102.347 104.51 103.693C107.162 105.039 110.494 103.803 111.952 100.931C112.027 100.783 112.092 100.632 112.155 100.48C113.643 100.895 115.15 101.182 116.666 101.341C116.657 101.502 116.65 101.661 116.653 101.822C116.716 104.983 119.22 107.325 122.246 107.055C125.271 106.786 127.673 104.006 127.609 100.845C127.607 100.679 127.592 100.519 127.576 100.359C129.093 99.9261 130.584 99.3735 132.035 98.7037C132.104 98.8452 132.175 98.984 132.258 99.1202C133.825 101.723 137.194 102.361 139.783 100.547C142.372 98.7334 143.2 95.1538 141.632 92.5528C141.551 92.4193 141.464 92.2954 141.375 92.1714C142.522 91.0245 143.595 89.7805 144.587 88.445C144.713 88.5258 144.844 88.604 144.981 88.6741ZM111.922 89.0932C102.293 84.2051 98.7792 71.79 104.073 61.3641C109.367 50.9382 121.464 46.449 131.092 51.3385C140.721 56.2266 144.235 68.6417 138.941 79.0676C133.647 89.4935 121.55 93.9813 111.922 89.0932Z" fill="white"/>
<path d="M317.981 51.3362C315.382 42.9184 311.32 38.8483 308.225 36.696C301.596 32.0855 292.611 31.5586 292.861 29.7931C292.969 29.0276 294.747 28.5047 295.279 28.3483C297.88 27.5842 299.336 28.8969 300.783 28.033C301.863 27.3888 302.155 25.9993 302.369 24.9117C303.453 19.4063 300.275 12.63 298.586 7.66235C298.469 7.31599 298.204 6.5168 298.464 6.32812C298.745 6.12327 299.493 6.73243 299.745 6.93863C302.433 9.12731 305.789 18.9009 305.786 18.9022C305.785 18.9022 305.79 17.7823 304.779 14.5936C303.018 9.03836 301.104 6.46019 301.271 2.05318C301.303 1.192 301.34 0.418416 301.638 0.329467C303.146 -0.116624 308.565 17.8362 309.568 17.5047C309.82 17.4211 309.679 16.2243 309.609 15.6273C308.957 10.0586 305.892 8.3955 306.152 3.8955C306.193 3.18796 306.254 2.15426 306.64 2.0451C307.941 1.67852 311.391 12.1718 313.104 16.9723C315.662 24.1394 318.914 34.4278 321.63 47.4845C320.413 48.7675 319.197 50.0518 317.981 51.3362Z" fill="url(#paint4_linear_1030_620)"/>
<path d="M207.173 37.7431C202.378 36.2458 201.092 30.6959 200.584 28.5032C199.382 23.3172 199.848 14.3644 205.279 11.8832C209.642 9.88863 214.518 13.3024 215.122 13.7377C221.269 18.173 220.115 26.6703 219.979 27.5584C219.676 29.5504 219.05 33.6595 215.437 36.2148C215.182 36.394 211.32 39.0382 207.173 37.7431Z" fill="url(#paint5_linear_1030_620)"/>
<g opacity="0.3">
<path d="M213.526 24.9803C210.348 21.8307 205.855 23.2094 203.961 20.3428C203.015 18.9116 202.772 16.4965 204.681 12.1973C199.818 15.0463 199.427 23.5153 200.584 28.5018C201.092 30.6946 202.379 36.2444 207.173 37.7417C211.32 39.0369 215.182 36.3927 215.437 36.2121C215.596 36.1002 215.747 35.9843 215.894 35.8657C216.425 31.7444 216.122 27.5531 213.526 24.9803Z" fill="url(#paint6_linear_1030_620)"/>
</g>
<path d="M203.382 148.096C203.382 148.096 184.085 88.0825 184.151 65.5044C184.216 42.9262 203.91 34.1513 212.654 32.065C221.394 29.9787 239.933 32.2739 245.639 57.6917C251.344 83.1014 247.225 140.072 247.225 140.072L203.382 148.096Z" fill="url(#paint7_linear_1030_620)"/>
<path opacity="0.3" d="M219.402 87.6724C233.304 85.9729 236.384 72.8476 249.165 71.3301C250.402 71.1832 251.794 71.14 253.333 71.2896C253.142 68.8004 252.902 66.4055 252.611 64.1414C250.872 63.9271 249.312 63.9635 247.94 64.1252C235.159 65.64 232.079 78.7654 218.176 80.4621C206.836 81.8462 201.778 73.9864 192.182 77.4069C189.711 78.2883 187.622 79.6751 185.863 81.2802C186.262 83.5619 186.723 85.9352 187.232 88.3678C188.963 86.8166 191.006 85.4797 193.411 84.6212C203.006 81.1993 208.064 89.0592 219.402 87.6724Z" fill="white"/>
<path opacity="0.8" d="M220.589 110.682C210.19 111.872 205.436 103.951 196.669 107.199C195.019 107.81 193.562 108.694 192.275 109.737C197.526 129.877 203.383 148.097 203.383 148.097L247.227 140.071C247.227 140.071 248.84 117.746 248.649 94.8164C248.326 94.8339 248.014 94.8595 247.712 94.8919C235.988 96.1884 233.339 109.222 220.589 110.682Z" fill="url(#paint8_linear_1030_620)"/>
<path opacity="0.3" d="M243.898 72.4683C232.174 73.758 229.523 86.7917 216.771 88.2419C206.371 89.4252 201.613 81.5006 192.845 84.7446C190.647 85.5572 188.787 86.8551 187.22 88.3712C188.639 95.2526 190.418 102.614 192.275 109.736C193.562 108.693 195.021 107.809 196.669 107.199C205.436 103.949 210.192 111.871 220.589 110.681C233.339 109.223 235.988 96.1893 247.711 94.8928C248.012 94.8591 245.033 72.3443 243.898 72.4683Z" fill="url(#paint9_linear_1030_620)"/>
<path d="M144.525 190.625C136.065 179.603 147.705 154.652 160.483 140.594C175.348 124.24 194.379 119.737 206.453 117.05C246.419 108.155 259.241 126.234 279.415 115.864C310.708 99.776 303.841 43.8649 317.981 42.3204C329.592 41.0523 347.886 77.2746 342.834 113.195C338.915 141.068 312.406 168.486 285.642 180.694C266.225 189.55 269.174 187.199 224.964 189.753C173.716 192.714 152.864 201.49 144.525 190.625Z" fill="url(#paint10_linear_1030_620)"/>
<path d="M192.573 120.52C200.776 117.564 214.188 116.896 214.046 87.5845C214.046 87.5845 231.037 86.5104 231.681 86.7219C232.29 86.9228 227.179 116 250.923 115.801C252.538 115.788 252.962 118.058 251.666 119.084C247.372 122.486 237.689 127.754 223.349 127.92C214.272 128.025 203.919 130.06 192.524 124.063C190.965 123.242 190.852 121.14 192.573 120.52Z" fill="url(#paint11_linear_1030_620)"/>
<path d="M250.708 175.942C245.9 176.002 247.568 135.374 233.185 75.7313C230.201 63.3593 227.277 53.2731 225.206 46.4968C230.318 45.8418 235.43 45.1882 240.539 44.5332C249.421 61.6019 262.647 93.362 260.13 134.516C258.945 153.867 254.244 175.897 250.708 175.942Z" fill="url(#paint12_linear_1030_620)"/>
<path d="M250.708 175.942C245.9 176.002 247.568 135.374 233.185 75.7313C230.201 63.3593 227.277 53.2731 225.206 46.4968C230.318 45.8418 235.43 45.1882 240.539 44.5332C249.421 61.6019 262.647 93.362 260.13 134.516C258.945 153.867 254.244 175.897 250.708 175.942Z" fill="url(#paint13_linear_1030_620)"/>
<path d="M197.318 70.3583C197.969 74.1791 200.975 102.523 222.586 97.8381C242.322 93.5605 237.127 73.5214 234.809 63.4001C234.809 63.4001 232.341 54.388 225.247 53.2061C225.247 53.2061 232.295 57.14 234.135 68.5349C234.135 68.5349 231.57 62.7991 217.055 65.7209C202.53 68.6454 200.604 75.7788 200.604 75.7788C200.604 75.7788 196.178 65.3732 202.584 58.0915C202.584 58.0902 197.628 60.8247 197.318 70.3583Z" fill="url(#paint14_linear_1030_620)"/>
<g opacity="0.3">
<path d="M338.076 67.5879C340.782 83.2968 337.879 93.4423 333.646 100.273C324.112 115.653 307.256 115.181 286.503 139.456C274.886 153.045 274.132 160.254 266.911 170.68C263.596 175.467 259.266 180.429 253.479 185.219C269.078 185.653 272.095 186.872 285.642 180.693C312.406 168.485 338.915 141.068 342.834 113.194C345.13 96.8736 342.604 80.4895 338.076 67.5879Z" fill="url(#paint15_linear_1030_620)"/>
</g>
<path d="M343.096 188.172L70.8065 178.779C65.0571 178.581 60.2876 183.188 60.2876 188.94V364.432C60.2876 370.347 65.3173 375.014 71.2162 374.572L343.506 354.144C348.812 353.746 352.913 349.324 352.913 344.004V198.335C352.913 192.855 348.572 188.362 343.096 188.172Z" fill="url(#paint16_linear_1030_620)"/>
<path d="M347.776 188.172L75.4866 178.779C69.7373 178.581 64.9678 183.188 64.9678 188.94V364.432C64.9678 370.347 69.9974 375.014 75.8963 374.572L348.186 354.144C353.492 353.746 357.593 349.324 357.593 344.004V198.335C357.593 192.855 353.252 188.362 347.776 188.172Z" fill="url(#paint17_linear_1030_620)"/>
<path d="M240.874 285.761L354.968 191.531C353.184 189.553 350.639 188.272 347.777 188.172L75.4869 178.779C72.8966 178.69 70.5058 179.578 68.6608 181.105L221.188 286.599C227.197 290.757 235.239 290.415 240.874 285.761Z" fill="url(#paint18_linear_1030_620)"/>
<path d="M240.874 285.76C235.239 290.414 227.198 290.758 221.188 286.6L68.6594 181.105C66.4087 182.968 64.9667 185.781 64.9667 188.941V364.433C64.9667 370.348 69.9963 375.015 75.8952 374.573L348.185 354.145C353.491 353.747 357.592 349.325 357.592 344.004V198.335C357.592 195.72 356.595 193.336 354.967 191.53L240.874 285.76Z" fill="url(#paint19_linear_1030_620)"/>
<path opacity="0.37" d="M354.968 191.53L240.874 285.76C235.239 290.414 227.198 290.758 221.188 286.6L68.6594 181.105C66.4087 182.968 64.9667 185.781 64.9667 188.941V214.822C70.4775 212.507 75.1405 212.062 78.9303 212.379C89.4087 213.255 91.9114 219.795 111.976 229.239C130.738 238.068 132.705 234.305 140.976 240.704C156.91 253.031 149.941 267.259 163.906 280.494C178.448 294.275 190.995 283.577 211.789 296.68C233.762 310.525 226.728 326.866 244.835 336.469C270.203 349.925 296.107 324.269 317.67 337.818C324.19 341.915 328.359 348.372 331.046 355.429L348.185 354.143C353.491 353.746 357.592 349.324 357.592 344.003V198.335C357.593 195.719 356.597 193.336 354.968 191.53Z" fill="url(#paint20_linear_1030_620)"/>
<path d="M150.549 135.169C151.802 135.805 153.375 135.222 154.063 133.865C154.752 132.509 154.295 130.893 153.042 130.257C152.977 130.224 152.911 130.196 152.844 130.169C153.077 129.419 153.252 128.663 153.369 127.905C153.441 127.905 153.514 127.904 153.586 127.897C155.015 127.769 156.15 126.456 156.12 124.963C156.09 123.47 154.907 122.363 153.479 122.491C153.404 122.498 153.33 122.51 153.257 122.522C153.108 121.782 152.904 121.06 152.646 120.361C152.712 120.322 152.776 120.282 152.841 120.238C154.063 119.381 154.454 117.691 153.714 116.462C152.973 115.233 151.383 114.931 150.159 115.788C150.096 115.832 150.038 115.879 149.98 115.927C149.497 115.393 148.968 114.898 148.394 114.447C148.434 114.381 148.473 114.313 148.51 114.243C149.198 112.888 150.098 111.405 148.836 110.789C145.915 109.363 144.662 110.584 143.973 111.94C143.938 112.01 143.907 112.082 143.877 112.153C143.175 111.956 142.462 111.822 141.747 111.746C141.751 111.671 141.755 111.595 141.753 111.518C141.724 110.025 142.166 109.218 140.732 109.189C137.604 109.129 136.549 110.486 136.578 111.979C136.58 112.057 136.586 112.133 136.594 112.21C135.877 112.415 135.174 112.675 134.488 112.991C134.456 112.925 134.422 112.859 134.383 112.795C133.643 111.565 132.051 111.264 130.828 112.121C129.605 112.978 129.214 114.668 129.954 115.897C129.992 115.96 130.034 116.018 130.076 116.078C129.534 116.619 129.027 117.207 128.558 117.838C128.497 117.8 128.435 117.762 128.371 117.73C127.117 117.094 125.545 117.677 124.856 119.034C124.167 120.39 124.624 122.006 125.877 122.642C125.942 122.675 126.008 122.703 126.076 122.73C125.842 123.481 125.667 124.237 125.55 124.994C125.479 124.994 125.406 124.995 125.333 125.002C123.903 125.13 122.77 126.443 122.799 127.936C122.829 129.429 124.012 130.536 125.441 130.408C125.515 130.401 125.589 130.389 125.662 130.377C125.811 131.117 126.016 131.839 126.274 132.539C126.208 132.578 126.143 132.617 126.078 132.661C124.856 133.518 124.465 135.208 125.205 136.437C125.945 137.667 128.398 138.238 129.62 137.381C129.682 137.336 128.881 137.021 128.939 136.972C129.422 137.506 129.952 138.001 130.526 138.452C130.485 138.518 130.446 138.586 130.41 138.656C129.721 140.012 130.178 141.627 131.431 142.264C132.685 142.9 134.257 142.316 134.946 140.959C134.981 140.889 135.012 140.817 135.042 140.746C135.744 140.943 136.457 141.078 137.173 141.153C137.169 141.229 137.165 141.304 137.166 141.381C137.196 142.874 138.379 143.981 139.807 143.853C141.236 143.724 142.371 142.412 142.341 140.919C142.34 140.84 142.333 140.765 142.325 140.688C143.042 140.483 143.745 140.222 144.431 139.906C144.464 139.972 144.497 140.04 144.536 140.103C145.276 141.332 146.868 141.634 148.092 140.777C149.314 139.92 149.705 138.23 148.965 137.001C148.927 136.937 148.886 136.879 148.844 136.822C149.386 136.28 149.892 135.692 150.361 135.061C150.422 135.099 150.484 135.136 150.549 135.169ZM134.933 135.367C130.384 133.057 128.724 127.193 131.225 122.269C133.725 117.344 139.439 115.223 143.988 117.533C148.536 119.842 150.197 125.707 147.696 130.632C145.196 135.556 139.481 137.676 134.933 135.367Z" fill="#D8DEE8"/>
<path d="M153.588 127.899C155.016 127.771 156.151 126.458 156.121 124.965C156.092 123.471 154.908 122.365 153.48 122.493C153.406 122.5 153.332 122.512 153.259 122.524C153.109 121.784 152.904 121.062 152.647 120.362C152.713 120.324 152.778 120.284 152.842 120.24C154.065 119.382 155.578 117.312 154.716 116.167C153.078 113.99 151.384 114.932 150.162 115.789C150.098 115.834 150.041 115.881 149.983 115.928C149.5 115.395 148.97 114.9 148.396 114.448C148.437 114.382 148.476 114.315 148.512 114.245C148.887 113.506 148.921 112.692 148.673 112.001C147.492 114.079 146.326 116.167 145.182 118.266C148.81 120.926 149.966 126.165 147.698 130.633C145.776 134.419 141.956 136.544 138.225 136.277C138.059 136.709 137.895 137.142 137.717 137.57C137.233 138.73 136.685 139.865 136.134 141C136.48 141.064 136.828 141.116 137.175 141.153C137.171 141.229 137.167 141.304 137.169 141.381C137.198 142.874 138.105 144.142 140.696 144.005C142.128 143.93 142.375 142.413 142.345 140.92C142.344 140.842 142.337 140.766 142.329 140.69C143.046 140.485 143.749 140.223 144.435 139.908C144.468 139.974 144.501 140.041 144.541 140.105C145.28 141.334 147.851 141.855 149.073 141C150.295 140.142 149.709 138.231 148.969 137.002C148.931 136.939 148.89 136.881 148.848 136.822C149.39 136.28 149.896 135.692 150.365 135.062C150.426 135.099 150.488 135.137 150.553 135.169C151.806 135.806 153.379 135.222 154.067 133.865C154.756 132.509 154.299 130.893 153.046 130.257C152.981 130.225 152.915 130.196 152.848 130.169C153.081 129.419 153.256 128.663 153.373 127.905C153.442 127.907 153.515 127.905 153.588 127.899Z" fill="#D8DEE8"/>
<path d="M151.896 135.323C153.148 135.959 154.723 135.376 155.411 134.019C156.1 132.663 155.643 131.047 154.39 130.411C154.325 130.378 154.259 130.35 154.192 130.323C154.425 129.572 154.6 128.816 154.717 128.059C154.789 128.059 154.861 128.058 154.934 128.051C156.363 127.924 157.497 126.61 157.468 125.117C157.438 123.624 156.255 122.517 154.826 122.645C154.752 122.652 154.678 122.664 154.605 122.676C154.456 121.936 154.251 121.214 153.993 120.515C154.059 120.475 154.124 120.436 154.189 120.392C155.411 119.535 155.802 117.845 155.062 116.616C154.322 115.386 152.731 115.085 151.507 115.942C151.444 115.986 151.386 116.033 151.328 116.081C150.845 115.547 150.316 115.052 149.741 114.601C149.782 114.535 149.821 114.467 149.857 114.397C150.546 113.041 150.089 111.426 148.836 110.789C147.584 110.153 146.01 110.737 145.321 112.094C145.286 112.164 145.255 112.236 145.225 112.307C144.523 112.11 143.81 111.975 143.095 111.9C143.099 111.825 143.103 111.749 143.101 111.672C143.072 110.179 141.888 109.072 140.46 109.201C139.03 109.329 137.896 110.641 137.926 112.134C137.927 112.213 137.934 112.288 137.942 112.365C137.225 112.57 136.522 112.831 135.836 113.147C135.803 113.081 135.77 113.015 135.731 112.95C134.991 111.721 133.399 111.419 132.175 112.276C130.953 113.133 130.562 114.823 131.302 116.052C131.34 116.116 131.382 116.174 131.423 116.232C130.882 116.773 130.375 117.361 129.906 117.992C129.845 117.954 129.783 117.916 129.718 117.884C128.465 117.248 126.892 117.831 126.204 119.188C125.515 120.544 125.972 122.16 127.225 122.796C127.29 122.829 127.356 122.857 127.423 122.884C127.19 123.634 127.015 124.391 126.898 125.148C126.826 125.148 126.754 125.149 126.681 125.156C125.251 125.284 124.117 126.597 124.147 128.09C124.177 129.583 125.36 130.69 126.789 130.562C126.863 130.555 126.937 130.543 127.01 130.531C127.159 131.271 127.364 131.993 127.621 132.692C127.555 132.731 127.491 132.771 127.426 132.815C126.204 133.672 125.813 135.362 126.553 136.591C127.293 137.82 128.884 138.122 130.108 137.265C130.17 137.221 130.229 137.174 130.287 137.126C130.77 137.66 131.299 138.155 131.873 138.606C131.833 138.672 131.794 138.74 131.758 138.81C131.069 140.165 131.526 141.781 132.779 142.417C134.033 143.054 135.605 142.47 136.294 141.113C136.329 141.043 136.36 140.971 136.39 140.9C137.092 141.097 137.805 141.232 138.52 141.307C138.516 141.382 138.512 141.458 138.514 141.535C138.543 143.028 139.727 144.134 141.155 144.006C142.584 143.878 143.718 142.566 143.689 141.072C143.687 140.994 143.681 140.917 143.673 140.842C144.39 140.637 145.093 140.376 145.779 140.06C145.811 140.126 145.845 140.192 145.884 140.257C146.625 141.486 148.216 141.788 149.44 140.931C150.662 140.074 151.053 138.384 150.313 137.155C150.275 137.091 150.233 137.033 150.192 136.975C150.733 136.434 151.24 135.846 151.709 135.215C151.77 135.253 151.832 135.289 151.896 135.323ZM136.28 135.521C131.732 133.213 130.072 127.347 132.573 122.423C135.073 117.498 140.787 115.377 145.336 117.687C149.884 119.996 151.545 125.861 149.043 130.785C146.542 135.71 140.828 137.83 136.28 135.521Z" fill="white"/>
<path opacity="0.3" d="M92.7899 214.722V373.304L111.608 390.425L146.904 362.164L92.7899 214.722Z" fill="url(#paint21_linear_1030_620)"/>
<path d="M184.762 217.932L201.015 381.391C201.257 383.825 199.581 385.953 197.285 386.122L118.096 392.755C113.269 392.925 110.664 390.324 110.402 387.748L92.793 214.725C92.5289 212.126 94.9399 209.827 99.8173 209.925L180.085 213.309C182.414 213.395 184.518 215.476 184.762 217.932Z" fill="url(#paint22_linear_1030_620)"/>
<path d="M188.362 217.722L204.682 382.024C204.925 384.47 203.243 386.61 200.937 386.779L118.837 392.798C116.274 392.985 113.956 391.021 113.692 388.433L96.0032 214.492C95.7377 211.879 97.6568 209.822 100.262 209.92L183.662 213.075C186.006 213.163 188.116 215.255 188.362 217.722Z" fill="#26264F"/>
<path d="M186.634 226.788L201.771 379.073C201.999 381.358 200.424 383.354 198.266 383.508L121.046 388.997C118.662 389.167 116.507 387.333 116.262 384.922L99.9359 224.261C99.6893 221.83 101.471 219.903 103.89 219.98L182.242 222.473C184.431 222.542 186.405 224.484 186.634 226.788Z" fill="url(#paint23_linear_1030_620)"/>
<path d="M145.102 216.717C145.189 217.596 144.569 218.286 143.715 218.256C142.859 218.228 142.094 217.491 142.005 216.609C141.916 215.729 142.538 215.039 143.394 215.07C144.248 215.1 145.013 215.837 145.102 216.717Z" fill="white"/>
<g opacity="0.66">
<path d="M137.79 260.952C128.56 265.755 124.608 276.435 128.964 284.804C133.32 293.175 144.333 296.067 153.562 291.263L137.79 260.952Z" fill="#F4F7FA"/>
<path d="M153.564 291.262L137.792 260.951C142.089 258.715 147.387 260.386 149.623 264.684L157.297 279.432C159.533 283.729 157.862 289.026 153.564 291.262Z" fill="#F4F7FA"/>
<path d="M160.166 304.921C150.936 309.724 146.984 320.403 151.34 328.773C155.696 337.143 166.709 340.035 175.939 335.232L160.166 304.921Z" fill="#F4F7FA"/>
<path d="M175.939 335.231L160.166 304.92C164.464 302.684 169.762 304.355 171.998 308.653L179.672 323.401C181.907 327.697 180.236 332.995 175.939 335.231Z" fill="#F4F7FA"/>
<path d="M162.584 325.969L152.984 330.964C140.718 319.021 132.428 303.091 128.116 283.174L137.716 278.18L162.584 325.969Z" fill="#F4F7FA"/>
</g>
<g opacity="0.3">
<path d="M137.501 296.915C129.342 272.806 143.544 260.661 135.501 238.332C131.125 226.182 122.366 217.131 112.728 210.391L100.263 209.919C97.6583 209.821 95.7392 211.878 96.0046 214.491L113.693 388.432C113.956 391.02 116.276 392.985 118.838 392.797L189.719 387.601C189.497 369.44 184.882 356.514 179.751 347.325C165.65 322.074 145.949 321.879 137.501 296.915Z" fill="#F4F7FA"/>
</g>
<defs>
<linearGradient id="paint0_linear_1030_620" x1="373.965" y1="115.265" x2="325.327" y2="245.82" gradientUnits="userSpaceOnUse">
<stop offset="0.00359712" stop-color="#4C429A"/>
<stop offset="1" stop-color="#9571F6"/>
</linearGradient>
<linearGradient id="paint1_linear_1030_620" x1="46.1045" y1="131.31" x2="251.373" y2="131.31" gradientUnits="userSpaceOnUse">
<stop stop-color="#F73E94"/>
<stop offset="1" stop-color="#F73E94"/>
</linearGradient>
<linearGradient id="paint2_linear_1030_620" x1="142.999" y1="181.644" x2="104.403" y2="285.243" gradientUnits="userSpaceOnUse">
<stop offset="0.00359712" stop-color="#4C429A"/>
<stop offset="1" stop-color="#9571F6"/>
</linearGradient>
<linearGradient id="paint3_linear_1030_620" x1="141.284" y1="287.267" x2="240.798" y2="287.267" gradientUnits="userSpaceOnUse">
<stop stop-color="#FF9085"/>
<stop offset="1" stop-color="#FB6FBB"/>
</linearGradient>
<linearGradient id="paint4_linear_1030_620" x1="306.504" y1="56.7048" x2="313.922" y2="-124.488" gradientUnits="userSpaceOnUse">
<stop stop-color="#FFC444"/>
<stop offset="0.9964" stop-color="#F36F56"/>
</linearGradient>
<linearGradient id="paint5_linear_1030_620" x1="220.194" y1="5.87191" x2="212.616" y2="19.5309" gradientUnits="userSpaceOnUse">
<stop stop-color="#444B8C"/>
<stop offset="0.9964" stop-color="#3E4177"/>
</linearGradient>
<linearGradient id="paint6_linear_1030_620" x1="219.623" y1="6.15802" x2="212.161" y2="19.6072" gradientUnits="userSpaceOnUse">
<stop stop-color="#444B8C"/>
<stop offset="0.9964" stop-color="#3E4177"/>
</linearGradient>
<linearGradient id="paint7_linear_1030_620" x1="230.596" y1="25.1826" x2="215.884" y2="100.077" gradientUnits="userSpaceOnUse">
<stop stop-color="#444B8C"/>
<stop offset="0.9964" stop-color="#3E4177"/>
</linearGradient>
<linearGradient id="paint8_linear_1030_620" x1="239.733" y1="23.1772" x2="224.585" y2="100.29" gradientUnits="userSpaceOnUse">
<stop stop-color="#444B8C"/>
<stop offset="0.9964" stop-color="#3E4177"/>
</linearGradient>
<linearGradient id="paint9_linear_1030_620" x1="230.996" y1="22.7693" x2="215.746" y2="100.4" gradientUnits="userSpaceOnUse">
<stop stop-color="#444B8C"/>
<stop offset="0.9964" stop-color="#3E4177"/>
</linearGradient>
<linearGradient id="paint10_linear_1030_620" x1="236.193" y1="294.121" x2="241.331" y2="173.008" gradientUnits="userSpaceOnUse">
<stop stop-color="#22DCD9"/>
<stop offset="1" stop-color="#22DCD9"/>
</linearGradient>
<linearGradient id="paint11_linear_1030_620" x1="224.636" y1="179.475" x2="219.807" y2="75.1873" gradientUnits="userSpaceOnUse">
<stop stop-color="#FFC444"/>
<stop offset="0.9964" stop-color="#F36F56"/>
</linearGradient>
<linearGradient id="paint12_linear_1030_620" x1="255.532" y1="29.3554" x2="241.005" y2="103.304" gradientUnits="userSpaceOnUse">
<stop stop-color="#444B8C"/>
<stop offset="0.9964" stop-color="#3E4177"/>
</linearGradient>
<linearGradient id="paint13_linear_1030_620" x1="255.532" y1="29.3554" x2="241.005" y2="103.304" gradientUnits="userSpaceOnUse">
<stop stop-color="#444B8C"/>
<stop offset="0.9964" stop-color="#3E4177"/>
</linearGradient>
<linearGradient id="paint14_linear_1030_620" x1="221.019" y1="103.278" x2="201.123" y2="-54.2293" gradientUnits="userSpaceOnUse">
<stop stop-color="#FFC444"/>
<stop offset="0.9964" stop-color="#F36F56"/>
</linearGradient>
<linearGradient id="paint15_linear_1030_620" x1="292.195" y1="218.177" x2="312.722" y2="-16.9431" gradientUnits="userSpaceOnUse">
<stop offset="0.00359712" stop-color="#E38DDD"/>
<stop offset="0.7059" stop-color="#AC79EF"/>
<stop offset="1" stop-color="#9571F6"/>
</linearGradient>
<linearGradient id="paint16_linear_1030_620" x1="120.42" y1="275.62" x2="-0.299452" y2="288.434" gradientUnits="userSpaceOnUse">
<stop stop-color="#0C65E2"/>
<stop offset="0.9964" stop-color="#4C429A"/>
</linearGradient>
<linearGradient id="paint17_linear_1030_620" x1="184.885" y1="222.925" x2="285.371" y2="445.48" gradientUnits="userSpaceOnUse">
<stop stop-color="#0C65E2"/>
<stop offset="0.9964" stop-color="#4C429A"/>
</linearGradient>
<linearGradient id="paint18_linear_1030_620" x1="208.789" y1="252.412" x2="218.68" y2="36.2905" gradientUnits="userSpaceOnUse">
<stop stop-color="#0C65E2"/>
<stop offset="0.9375" stop-color="#4C429A"/>
</linearGradient>
<linearGradient id="paint19_linear_1030_620" x1="184.882" y1="222.926" x2="285.369" y2="445.481" gradientUnits="userSpaceOnUse">
<stop stop-color="#0C65E2"/>
<stop offset="0.9964" stop-color="#4C429A"/>
</linearGradient>
<linearGradient id="paint20_linear_1030_620" x1="213.35" y1="210.072" x2="313.837" y2="432.627" gradientUnits="userSpaceOnUse">
<stop stop-color="#0C65E2"/>
<stop offset="0.9964" stop-color="#4C429A"/>
</linearGradient>
<linearGradient id="paint21_linear_1030_620" x1="92.7901" y1="302.573" x2="146.904" y2="302.573" gradientUnits="userSpaceOnUse">
<stop stop-color="#AA80F9"/>
<stop offset="0.9964" stop-color="#6165D7"/>
</linearGradient>
<linearGradient id="paint22_linear_1030_620" x1="91.0455" y1="300.992" x2="202.604" y2="303.212" gradientUnits="userSpaceOnUse">
<stop stop-color="#444B8C"/>
<stop offset="0.9964" stop-color="#26264F"/>
</linearGradient>
<linearGradient id="paint23_linear_1030_620" x1="150.489" y1="303.586" x2="91.1879" y2="616.398" gradientUnits="userSpaceOnUse">
<stop offset="0.00359712" stop-color="#F73E94"/>
<stop offset="1" stop-color="#F73E94"/>
</linearGradient>
</defs>
</svg>
