<svg width="30" height="30" viewBox="0 0 30 30" fill="none" xmlns="http://www.w3.org/2000/svg">
<path d="M7.40345 0.401271C6.74195 0.514971 5.63975 0.86897 5.04515 1.16957C2.60645 2.38547 0.849649 4.76357 0.415249 7.44257C0.261649 8.39117 0.261649 21.5924 0.415249 22.541C0.702649 24.3047 1.52435 25.8947 2.82035 27.1841C3.82235 28.193 4.82465 28.8143 6.16085 29.2619C7.35005 29.6561 7.74425 29.6894 11.7258 29.6894H15.2799V24.2444V18.7997H13.4427H11.6055V16.4615V14.1233H13.4427H15.2799V12.6269C15.2799 11.8052 15.3132 10.823 15.3468 10.4423C15.6075 7.87007 16.8969 5.94617 18.861 5.19797C19.6761 4.89077 20.1438 4.84397 22.482 4.83707H24.633V7.16867V9.50027L23.25 9.52697C22.0209 9.55367 21.8205 9.57377 21.4863 9.70067C20.778 9.98117 20.3838 10.3955 20.1501 11.117C20.0298 11.4779 19.9965 11.7584 19.9698 12.8339L19.9431 14.1233H22.2747H24.6129L24.1452 16.4615L23.6775 18.7997H21.8202H19.9563V24.2513V29.7095L21.2124 29.6696C22.1142 29.6429 22.6221 29.5961 23.0295 29.5025C24.693 29.1083 26.0157 28.3802 27.2049 27.1844C28.3941 26.0018 29.1024 24.7259 29.5299 23.009C29.6703 22.4546 29.6703 22.3076 29.6904 15.3128C29.7171 7.38947 29.7172 7.45637 29.2828 6.13997C28.8286 4.79717 28.2072 3.79487 27.2118 2.79947C25.9089 1.49687 24.3258 0.681772 22.5621 0.394372C21.66 0.254272 8.27855 0.254271 7.40345 0.401271Z" fill="black"/>
</svg>
