<svg width="170" height="120" viewBox="0 0 170 120" fill="none" xmlns="http://www.w3.org/2000/svg">
<path fill-rule="evenodd" clip-rule="evenodd" d="M16.9087 88.4902H18.553C27.8915 88.4902 35.4617 95.0511 35.4617 103.144V105.225C35.4617 113.319 27.8915 119.88 18.553 119.88H16.9087C7.57028 119.88 0 113.319 0 105.225V103.144C0 95.0511 7.57028 88.4902 16.9087 88.4902ZM63.5189 88.4904H92.0688C101.608 88.4904 109.341 95.1925 109.341 103.46V104.91C109.341 113.178 101.608 119.88 92.0688 119.88H63.5189C53.9796 119.88 46.2464 113.178 46.2464 104.91V103.46C46.2464 95.1925 53.9796 88.4904 63.5189 88.4904ZM127.573 88.4904H126.903C123.158 88.4904 120.122 91.1215 120.122 94.3672V114.003C120.122 117.249 123.158 119.88 126.903 119.88H127.573C131.318 119.88 134.354 117.249 134.354 114.003V94.3672C134.354 91.1215 131.318 88.4904 127.573 88.4904ZM156.224 88.4904H157.359C163.893 88.4904 169.189 93.0808 169.189 98.7433V109.627C169.189 115.289 163.893 119.88 157.359 119.88H156.224C149.69 119.88 144.394 115.289 144.394 109.627V98.7433C144.394 93.0808 149.69 88.4904 156.224 88.4904Z" fill="url(#paint0_linear_236_5928)"/>
<path d="M31.1341 52.5289C27.3362 52.5289 23.711 51.8877 20.2584 50.6053C16.8551 49.2736 14.1917 47.572 12.2681 45.5004L13.9697 42.689C15.7947 44.6126 18.2361 46.1909 21.2942 47.424C24.4015 48.6078 27.6568 49.1996 31.0601 49.1996C35.9924 49.1996 39.7163 48.2625 42.2318 46.3882C44.7472 44.514 46.005 42.0725 46.005 39.0638C46.005 36.7456 45.3391 34.896 44.0074 33.5149C42.6757 32.1339 41.0233 31.0735 39.0504 30.3336C37.0775 29.5938 34.4141 28.8293 31.0601 28.0401C27.2622 27.103 24.2042 26.1905 21.886 25.3027C19.6172 24.4149 17.6689 23.0585 16.0413 21.2335C14.4629 19.3593 13.6738 16.8685 13.6738 13.7611C13.6738 11.2456 14.3396 8.95212 15.6714 6.88055C17.0031 4.75967 19.0253 3.08269 21.7381 1.84961C24.5002 0.616538 27.9281 0 32.0219 0C34.8826 0 37.694 0.419246 40.4561 1.25774C43.2182 2.09623 45.6104 3.23066 47.6326 4.66102L46.2269 7.69438C44.1554 6.26401 41.8618 5.17891 39.3464 4.43907C36.8802 3.69922 34.4387 3.3293 32.0219 3.3293C27.2376 3.3293 23.6123 4.2911 21.1462 6.21469C18.6801 8.13829 17.447 10.6291 17.447 13.6871C17.447 16.0053 18.1128 17.8549 19.4446 19.236C20.7763 20.617 22.4286 21.6774 24.4015 22.4173C26.3744 23.1571 29.0625 23.9463 32.4658 24.7848C36.2637 25.7219 39.297 26.6344 41.5659 27.5222C43.8348 28.41 45.7584 29.7664 47.3367 31.5914C48.9643 33.367 49.7782 35.7838 49.7782 38.8418C49.7782 41.3573 49.0877 43.6508 47.7066 45.7224C46.3749 47.7939 44.3033 49.4463 41.4919 50.6793C38.6805 51.9124 35.2279 52.5289 31.1341 52.5289Z" fill="white"/>
<path d="M138.587 0.369922L121.275 52.159H113.507L99.3755 10.8017L85.2445 52.159H77.3281L60.0158 0.369922H67.6362L81.6192 42.4671L96.1942 0.369922H103.001L117.28 42.689L131.559 0.369922H138.587Z" fill="white"/>
<defs>
<linearGradient id="paint0_linear_236_5928" x1="0" y1="88.4902" x2="166.349" y2="129.857" gradientUnits="userSpaceOnUse">
<stop stop-color="#22DCD9"/>
<stop offset="1" stop-color="#F73E94"/>
</linearGradient>
</defs>
</svg>
