<svg width="170" height="120" viewBox="0 0 170 120" fill="none" xmlns="http://www.w3.org/2000/svg">
<path fill-rule="evenodd" clip-rule="evenodd" d="M16.9087 88.4902H18.553C27.8915 88.4902 35.4617 95.0511 35.4617 103.144V105.225C35.4617 113.319 27.8915 119.88 18.553 119.88H16.9087C7.57028 119.88 0 113.319 0 105.225V103.144C0 95.0511 7.57028 88.4902 16.9087 88.4902ZM63.5189 88.4904H92.0688C101.608 88.4904 109.341 95.1925 109.341 103.46V104.91C109.341 113.178 101.608 119.88 92.0688 119.88H63.5189C53.9796 119.88 46.2464 113.178 46.2464 104.91V103.46C46.2464 95.1925 53.9796 88.4904 63.5189 88.4904ZM127.573 88.4904H126.903C123.158 88.4904 120.122 91.1215 120.122 94.3672V114.003C120.122 117.249 123.158 119.88 126.903 119.88H127.573C131.318 119.88 134.354 117.249 134.354 114.003V94.3672C134.354 91.1215 131.318 88.4904 127.573 88.4904ZM156.224 88.4904H157.359C163.893 88.4904 169.189 93.0808 169.189 98.7433V109.627C169.189 115.289 163.893 119.88 157.359 119.88H156.224C149.69 119.88 144.394 115.289 144.394 109.627V98.7433C144.394 93.0808 149.69 88.4904 156.224 88.4904Z" fill="url(#paint0_linear_48_260)"/>
<path d="M31.1339 52.5289C27.336 52.5289 23.7107 51.8877 20.2581 50.6053C16.8549 49.2736 14.1914 47.572 12.2678 45.5004L13.9695 42.689C15.7944 44.6126 18.2359 46.1909 21.2939 47.424C24.4013 48.6078 27.6566 49.1996 31.0599 49.1996C35.9922 49.1996 39.716 48.2625 42.2315 46.3882C44.747 44.514 46.0047 42.0725 46.0047 39.0638C46.0047 36.7456 45.3389 34.896 44.0071 33.5149C42.6754 32.1339 41.0231 31.0735 39.0502 30.3336C37.0773 29.5938 34.4138 28.8293 31.0599 28.0401C27.262 27.103 24.204 26.1905 21.8858 25.3027C19.6169 24.4149 17.6687 23.0585 16.041 21.2335C14.4627 19.3593 13.6735 16.8685 13.6735 13.7611C13.6735 11.2456 14.3394 8.95212 15.6711 6.88055C17.0028 4.75967 19.0251 3.08269 21.7378 1.84961C24.4999 0.616538 27.9279 0 32.0217 0C34.8824 0 37.6938 0.419246 40.4559 1.25774C43.218 2.09623 45.6101 3.23066 47.6324 4.66102L46.2267 7.69438C44.1551 6.26401 41.8616 5.17891 39.3461 4.43907C36.88 3.69922 34.4385 3.3293 32.0217 3.3293C27.2373 3.3293 23.6121 4.2911 21.146 6.21469C18.6798 8.13829 17.4467 10.6291 17.4467 13.6871C17.4467 16.0053 18.1126 17.8549 19.4443 19.236C20.776 20.617 22.4284 21.6774 24.4013 22.4173C26.3742 23.1571 29.0623 23.9463 32.4656 24.7848C36.2634 25.7219 39.2968 26.6344 41.5657 27.5222C43.8345 28.41 45.7581 29.7664 47.3364 31.5914C48.9641 33.367 49.7779 35.7838 49.7779 38.8418C49.7779 41.3573 49.0874 43.6508 47.7064 45.7224C46.3746 47.7939 44.3031 49.4463 41.4917 50.6793C38.6803 51.9124 35.2277 52.5289 31.1339 52.5289Z" fill="black"/>
<path d="M138.587 0.369922L121.275 52.159H113.506L99.3752 10.8017L85.2442 52.159H77.3279L60.0155 0.369922H67.6359L81.619 42.4671L96.1939 0.369922H103L117.279 42.689L131.558 0.369922H138.587Z" fill="black"/>
<defs>
<linearGradient id="paint0_linear_48_260" x1="0" y1="88.4902" x2="166.349" y2="129.857" gradientUnits="userSpaceOnUse">
<stop stop-color="#22DCD9"/>
<stop offset="1" stop-color="#F73E94"/>
</linearGradient>
</defs>
</svg>
