<svg width="207" height="220" viewBox="0 0 207 220" fill="none" xmlns="http://www.w3.org/2000/svg">
<path d="M147.015 112.663C139.688 95.0896 135.069 77.5158 131.795 58.7209C131.317 55.9777 128.963 53.9602 126.184 53.9602H80.1174C77.5335 53.9602 75.2328 55.6946 74.6134 58.2077C69.0386 80.436 66.8264 102.523 53.5886 121.849C53.447 122.061 53.2877 122.256 53.1107 122.433C52.3143 123.264 51.6241 124.202 50.8985 125.105C48.9518 127.583 49.9959 131.193 52.9161 132.343C71.1801 139.546 93.1783 163.544 100.7 197.966V141.281C100.7 137.529 98.5938 134.184 95.3728 132.255C90.7891 129.529 87.7097 124.539 87.692 118.805C87.692 110.469 94.541 103.39 102.877 103.124C111.761 102.859 119.035 109.973 119.035 118.787C119.035 124.592 115.884 129.636 111.195 132.343C108.009 134.184 106.027 137.582 106.027 141.263V199.453C113.92 165.031 137.706 140.75 154.342 132.857C157.332 131.441 157.916 127.459 155.474 125.229C151.793 121.902 148.855 117.283 147.015 112.663Z" fill="#2F2E41"/>
<path d="M125.601 48.5979H81.321C77.746 48.5979 74.8259 45.6778 74.8259 42.1028V33.4841C74.8259 29.9091 77.746 26.989 81.321 26.989H125.601C129.176 26.989 132.096 29.9091 132.096 33.4841V42.1028C132.096 45.6601 129.176 48.5979 125.601 48.5979Z" fill="#3F3D56"/>
<path d="M125.601 21.6089H81.321C77.746 21.6089 74.8259 18.6888 74.8259 15.1138V6.49506C74.8259 2.92012 77.746 0 81.321 0H125.601C129.176 0 132.096 2.92012 132.096 6.49506V15.1138C132.096 18.6711 129.176 21.6089 125.601 21.6089Z" fill="#3F3D56"/>
<path d="M7.96387 211.947H198.957" stroke="url(#paint0_linear_832_20)" stroke-width="1.1595" stroke-miterlimit="10"/>
<path d="M7.36223 219.309C11.4283 219.309 14.7245 216.013 14.7245 211.947C14.7245 207.881 11.4283 204.585 7.36223 204.585C3.29618 204.585 0 207.881 0 211.947C0 216.013 3.29618 219.309 7.36223 219.309Z" fill="#606060"/>
<path d="M199.559 204.567C195.489 204.567 192.197 207.859 192.197 211.93C192.197 216 195.489 219.292 199.559 219.292C203.63 219.292 206.922 216 206.922 211.93C206.922 207.859 203.612 204.567 199.559 204.567Z" fill="#606060"/>
<path d="M192.144 123.264C192.144 172.251 152.43 211.947 103.461 211.947C54.4738 211.947 14.7778 172.234 14.7778 123.264" stroke="url(#paint1_linear_832_20)" stroke-width="4.638" stroke-miterlimit="10"/>
<path d="M196.179 130.609H188.816C186.799 130.609 185.135 128.945 185.135 126.928V121.017C185.135 118.999 186.799 117.335 188.816 117.335H196.179C198.196 117.335 199.86 118.999 199.86 121.017V126.928C199.86 128.945 198.214 130.609 196.179 130.609Z" fill="#606060"/>
<path d="M18.0871 130.609H10.7248C8.70727 130.609 7.0437 128.945 7.0437 126.928V121.017C7.0437 118.999 8.70727 117.335 10.7248 117.335H18.0871C20.1046 117.335 21.7682 118.999 21.7682 121.017V126.928C21.7859 128.945 20.1223 130.609 18.0871 130.609Z" fill="#606060"/>
<path d="M107.142 220H99.7798C97.7622 220 96.0986 218.336 96.0986 216.319V210.408C96.0986 208.39 97.7622 206.727 99.7798 206.727H107.142C109.16 206.727 110.823 208.39 110.823 210.408V216.319C110.823 218.354 109.16 220 107.142 220Z" fill="#606060"/>
<defs>
<linearGradient id="paint0_linear_832_20" x1="nan" y1="nan" x2="nan" y2="nan" gradientUnits="userSpaceOnUse">
<stop stop-color="#F73E94"/>
<stop offset="1" stop-color="#22DCD9"/>
</linearGradient>
<linearGradient id="paint1_linear_832_20" x1="10.6633" y1="169.651" x2="196.244" y2="169.651" gradientUnits="userSpaceOnUse">
<stop stop-color="#22DCD9"/>
<stop offset="1" stop-color="#F73E94"/>
</linearGradient>
</defs>
</svg>
