<svg width="333" height="219" viewBox="0 0 333 219" fill="none" xmlns="http://www.w3.org/2000/svg">
<g clip-path="url(#clip0_769_5)">
<path d="M119.236 189.145C120.441 179.458 126.444 169.914 135.682 166.762C132.039 176.732 132.04 187.67 135.684 197.639C137.104 201.479 139.083 205.602 137.747 209.472C136.917 211.88 134.884 213.722 132.612 214.874C130.34 216.026 127.819 216.575 125.329 217.113L124.839 217.518C120.887 208.593 118.032 198.831 119.236 189.145Z" fill="#F0F0F0"/>
<path d="M135.774 166.945C130.394 172.973 127.05 180.543 126.218 188.579C126.008 190.306 126.071 192.055 126.406 193.763C126.786 195.415 127.601 196.935 128.767 198.166C129.832 199.335 131.056 200.408 131.817 201.816C132.196 202.542 132.418 203.341 132.467 204.159C132.516 204.976 132.391 205.795 132.101 206.562C131.429 208.49 130.104 210.062 128.755 211.554C127.256 213.211 125.674 214.908 125.037 217.104C124.96 217.37 124.552 217.235 124.629 216.969C125.737 213.148 129.446 210.977 131.215 207.536C132.04 205.93 132.387 204.065 131.613 202.37C130.936 200.888 129.675 199.78 128.587 198.606C127.432 197.422 126.584 195.973 126.118 194.386C125.697 192.701 125.567 190.958 125.731 189.229C126.039 185.332 126.958 181.508 128.455 177.896C130.14 173.765 132.519 169.952 135.489 166.623C135.673 166.417 135.957 166.741 135.774 166.945Z" fill="white"/>
<path d="M126.334 185.976C125.004 185.653 123.833 184.868 123.029 183.762C122.225 182.655 121.84 181.298 121.944 179.934C121.966 179.659 122.395 179.68 122.373 179.956C122.275 181.226 122.633 182.489 123.384 183.518C124.135 184.547 125.229 185.274 126.468 185.567C126.738 185.631 126.601 186.039 126.334 185.976Z" fill="white"/>
<path d="M128.15 197.644C130.551 196.211 132.323 193.925 133.114 191.242C133.192 190.976 133.6 191.112 133.522 191.377C132.694 194.167 130.845 196.542 128.343 198.028C128.105 198.17 127.912 197.785 128.15 197.644Z" fill="white"/>
<path d="M130.539 174.172C131.027 174.404 131.565 174.511 132.105 174.484C132.645 174.456 133.17 174.295 133.632 174.015C133.869 173.871 134.061 174.256 133.826 174.399C133.314 174.707 132.734 174.884 132.137 174.915C131.541 174.947 130.946 174.832 130.404 174.581C130.351 174.561 130.307 174.522 130.282 174.472C130.256 174.421 130.251 174.363 130.267 174.309C130.285 174.255 130.324 174.21 130.375 174.185C130.425 174.159 130.484 174.154 130.539 174.172Z" fill="white"/>
<path d="M163.841 184.063C163.696 184.158 163.55 184.252 163.405 184.35C161.459 185.63 159.621 187.065 157.908 188.642C157.774 188.762 157.639 188.885 157.509 189.009C153.422 192.852 150.084 197.421 147.665 202.483C146.705 204.498 145.899 206.583 145.254 208.721C144.365 211.672 143.635 214.944 141.874 217.358C141.693 217.612 141.497 217.855 141.286 218.085H125.372C125.336 218.066 125.299 218.052 125.263 218.034L124.627 218.063C124.653 217.95 124.682 217.834 124.707 217.721C124.722 217.656 124.74 217.591 124.755 217.525C124.765 217.482 124.776 217.438 124.784 217.398C124.787 217.384 124.791 217.369 124.794 217.358C124.802 217.318 124.813 217.282 124.82 217.246C124.98 216.596 125.144 215.946 125.314 215.296C125.314 215.292 125.314 215.292 125.317 215.289C126.621 210.34 128.349 205.456 130.764 200.99C130.836 200.856 130.909 200.718 130.989 200.584C132.088 198.577 133.35 196.663 134.761 194.862C135.537 193.878 136.362 192.934 137.234 192.033C139.49 189.711 142.097 187.758 144.96 186.246C150.668 183.232 157.276 182.077 163.376 183.918C163.532 183.965 163.685 184.013 163.841 184.063Z" fill="#F0F0F0"/>
<path d="M163.805 184.265C155.88 185.839 148.653 189.87 143.15 195.785C141.943 197.038 140.94 198.473 140.18 200.037C139.488 201.585 139.224 203.29 139.414 204.975C139.559 206.549 139.891 208.143 139.651 209.725C139.517 210.534 139.213 211.304 138.76 211.987C138.306 212.669 137.714 213.248 137.021 213.686C135.323 214.821 133.319 215.278 131.343 215.657C129.149 216.077 126.864 216.48 125.034 217.85C124.812 218.016 124.567 217.662 124.789 217.496C127.974 215.112 132.242 215.613 135.727 213.93C137.353 213.144 138.752 211.864 139.155 210.045C139.507 208.454 139.166 206.81 139.005 205.217C138.796 203.577 138.991 201.909 139.574 200.362C140.253 198.763 141.198 197.292 142.37 196.011C144.962 193.085 147.999 190.585 151.368 188.602C155.201 186.318 159.396 184.706 163.772 183.836C164.043 183.783 164.074 184.212 163.805 184.265Z" fill="white"/>
<path d="M144.81 193.777C143.943 192.718 143.48 191.387 143.504 190.019C143.528 188.651 144.038 187.336 144.942 186.31C145.126 186.103 145.456 186.378 145.272 186.586C144.429 187.54 143.954 188.765 143.934 190.039C143.914 191.312 144.35 192.551 145.163 193.532C145.34 193.745 144.985 193.989 144.81 193.777Z" fill="white"/>
<path d="M139.235 204.186C142.015 204.487 144.806 203.729 147.053 202.063C147.275 201.898 147.52 202.252 147.297 202.417C144.957 204.146 142.05 204.929 139.158 204.61C138.882 204.579 138.961 204.156 139.235 204.186Z" fill="white"/>
<path d="M155.274 186.884C155.524 187.363 155.89 187.773 156.337 188.076C156.785 188.379 157.301 188.566 157.839 188.621C158.115 188.648 158.036 189.071 157.762 189.044C157.168 188.981 156.598 188.774 156.103 188.44C155.608 188.106 155.202 187.656 154.92 187.129C154.89 187.081 154.878 187.024 154.888 186.968C154.898 186.913 154.929 186.863 154.975 186.829C155.022 186.797 155.08 186.785 155.136 186.795C155.192 186.805 155.241 186.837 155.274 186.884Z" fill="white"/>
<path d="M172.879 2.40698C172.205 2.40774 171.559 2.67576 171.083 3.15224C170.606 3.62871 170.338 4.27474 170.337 4.94859V112.422C170.338 113.096 170.606 113.742 171.083 114.218C171.559 114.695 172.205 114.963 172.879 114.964H330.458C331.132 114.963 331.778 114.695 332.255 114.218C332.731 113.742 332.999 113.096 333 112.422V4.94859C332.999 4.27475 332.731 3.62874 332.255 3.15227C331.778 2.6758 331.132 2.40777 330.458 2.40698H172.879Z" fill="#E6E6E6"/>
<path d="M176.51 6.03784C175.836 6.0386 175.19 6.30662 174.714 6.78309C174.237 7.25957 173.969 7.9056 173.968 8.57945V108.791C173.969 109.465 174.237 110.111 174.714 110.587C175.19 111.064 175.836 111.332 176.51 111.333H326.828C327.501 111.332 328.147 111.064 328.624 110.587C329.1 110.111 329.368 109.465 329.369 108.791V8.57945C329.368 7.90561 329.1 7.2596 328.624 6.78313C328.147 6.30666 327.501 6.03863 326.828 6.03784H176.51Z" fill="white"/>
<path opacity="0.1" d="M315.204 27.9515C311.747 26.6019 308.02 29.9866 307.21 33.608C306.4 37.2294 307.437 40.9746 307.665 44.6784C307.893 48.3822 306.922 52.6831 303.618 54.3716C299.818 56.3132 295.361 53.789 291.111 53.4045C288.989 53.2361 286.86 53.6083 284.921 54.4865C282.983 55.3647 281.299 56.72 280.026 58.4259C276.522 63.2343 276.7 70.2162 272.552 74.4827C268.949 78.1896 263.076 78.6722 258.035 77.5259C252.994 76.3796 248.36 73.8893 243.403 72.4211C238.446 70.953 232.709 70.6465 228.461 73.5931C224.026 76.6693 222.053 82.699 217.184 85.0289C213.742 86.6763 209.668 86.0479 205.984 85.0503C202.3 84.0527 198.586 82.7069 194.783 83.0271C190.981 83.3472 187.016 85.9711 186.715 89.7754L317.23 89.411C317.823 72.184 318.416 54.9571 319.009 37.7301C319.138 33.9878 318.692 29.3134 315.204 27.9515Z" fill="#22DCD9"/>
<path d="M119.873 120.387C119.646 119.788 119.553 119.147 119.6 118.508C119.648 117.87 119.835 117.249 120.148 116.69C120.461 116.131 120.893 115.648 121.413 115.274C121.933 114.901 122.529 114.646 123.159 114.527L125.451 99.127L131.476 104.527L128.375 118.323C128.504 119.394 128.236 120.475 127.622 121.361C127.007 122.247 126.089 122.877 125.041 123.132C123.993 123.386 122.888 123.247 121.936 122.741C120.983 122.236 120.25 121.398 119.873 120.387Z" fill="#FFB6B6"/>
<path d="M77.8307 122.725C78.222 122.218 78.4973 121.631 78.6373 121.006C78.7773 120.381 78.7785 119.733 78.6409 119.107C78.5033 118.482 78.2302 117.894 77.8409 117.386C77.4515 116.877 76.9554 116.46 76.3874 116.164L78.6619 100.761L71.3293 104.181L70.2936 118.283C69.8593 119.27 69.8023 120.382 70.1332 121.409C70.4641 122.435 71.1601 123.304 72.0891 123.852C73.0182 124.399 74.1158 124.587 75.1741 124.379C76.2323 124.172 77.1775 123.583 77.8307 122.725Z" fill="#FFB6B6"/>
<path d="M110.061 211.285L116.864 211.285L120.101 185.044L110.06 185.044L110.061 211.285Z" fill="#FFB6B6"/>
<path d="M108.326 209.064L121.724 209.063H121.725C123.989 209.064 126.161 209.963 127.762 211.564C129.363 213.166 130.263 215.337 130.263 217.602V217.879L108.326 217.88L108.326 209.064Z" fill="#2F2E41"/>
<path d="M73.7526 211.285L80.5557 211.285L83.7923 185.044L73.7515 185.044L73.7526 211.285Z" fill="#FFB6B6"/>
<path d="M72.0173 209.064L85.4155 209.063H85.416C87.6805 209.064 89.8521 209.963 91.4533 211.564C93.0546 213.166 93.9542 215.337 93.9543 217.602V217.879L72.0177 217.88L72.0173 209.064Z" fill="#2F2E41"/>
<path d="M105.769 32.1638C112.557 32.1638 118.059 26.6616 118.059 19.8742C118.059 13.0867 112.557 7.58447 105.769 7.58447C98.9818 7.58447 93.4795 13.0867 93.4795 19.8742C93.4795 26.6616 98.9818 32.1638 105.769 32.1638Z" fill="#FFB6B6"/>
<path d="M76.6775 108.475C76.6775 108.475 76.8584 163.47 75.9805 164.348C75.1027 165.226 71.9866 198.115 71.9866 198.115H82.8792C83.6053 198.115 102.135 126.471 102.135 126.471C102.135 126.471 110.035 165.096 108.718 167.29C107.402 169.485 108.428 198.254 109.157 200.648C109.157 200.648 118.31 203.577 119.188 201.383C120.066 199.188 121.366 169.431 121.366 169.431L123.908 120.051L123.963 107.159L76.6775 108.475Z" fill="#2F2E41"/>
<path d="M127.153 45.2715H132.043C132.402 45.2713 132.751 45.3934 133.032 45.6178C133.312 45.8421 133.508 46.1553 133.587 46.5059C134.342 49.8473 136.286 59.319 135.931 66.7784C135.492 75.9957 134.614 90.48 134.614 91.7967C134.614 93.1135 130.225 113.304 130.225 113.304C130.225 113.304 127.208 108.344 123.888 109.288L124.519 91.3578L125.397 83.8962L124.08 70.7287L127.153 45.2715Z" fill="#3F3D56"/>
<path d="M95.9897 37.2354C95.9897 37.2354 80.4082 42.4185 78.6525 46.8077C76.8969 51.1968 85.4206 83.0165 85.4206 83.0165C85.4206 83.0165 82.1529 97.54 77.7747 111.329C75.7822 117.604 94.7966 112.231 103.575 109.159C109.014 107.272 119.075 110.169 124.739 109.134C124.739 109.134 125.617 97.2832 124.739 95.0886C123.861 92.894 121.666 94.2107 122.983 91.1383C124.3 88.0659 123.861 87.627 123.422 86.3102C122.983 84.9935 124.3 83.2378 124.3 81.4821C124.3 79.7265 123.861 75.7762 123.861 75.7762C123.861 75.7762 135.712 48.1244 133.078 45.4909C130.445 42.8574 117.04 37.7831 117.04 37.7831C117.04 37.7831 117.372 37.9938 95.9897 37.2354Z" fill="#3F3D56"/>
<path d="M81.5056 45.2715L79.9468 46.0509C79.34 46.3543 78.8117 46.794 78.4032 47.3356C77.9946 47.8772 77.717 48.506 77.592 49.1727L71.4105 82.1405L70.0938 113.304C70.0938 113.304 77.5553 111.109 79.7499 113.304C79.7499 113.304 77.5553 106.72 78.8721 104.525C80.1889 102.331 80.1889 99.2583 80.1889 99.2583C80.1889 99.2583 79.311 99.2583 81.5056 97.0637C83.7002 94.8691 84.1391 93.9913 83.7002 93.5524C83.2613 93.1135 82.8224 89.1632 82.8224 88.7243C82.8224 88.2854 87.2115 58.8779 87.2115 58.8779L81.5056 45.2715Z" fill="#3F3D56"/>
<path d="M186.09 89.3516C185.898 89.3516 185.713 89.275 185.577 89.1389C185.441 89.0027 185.364 88.818 185.364 88.6254C185.364 88.4328 185.441 88.2481 185.577 88.1119C185.713 87.9757 185.898 87.8992 186.09 87.8992C219.645 87.8992 251.646 81.1807 276.198 68.9811C299.22 57.5414 313.891 42.0287 316.448 26.4203C316.463 26.326 316.497 26.2357 316.547 26.1544C316.597 26.0732 316.663 26.0026 316.74 25.9467C316.817 25.8908 316.905 25.8508 316.998 25.8288C317.091 25.8068 317.187 25.8034 317.281 25.8187C317.375 25.834 317.466 25.8677 317.547 25.9179C317.628 25.9682 317.699 26.0339 317.754 26.1114C317.81 26.1889 317.85 26.2766 317.872 26.3695C317.894 26.4624 317.897 26.5588 317.882 26.653L317.881 26.655C316.553 34.7629 312.241 42.7162 305.066 50.2943C297.989 57.7682 288.494 64.4931 276.844 70.2817C252.095 82.5792 219.865 89.3516 186.09 89.3516Z" fill="#F73E94"/>
<path d="M323.923 89.4982H185.224V20.9736H185.95V88.772H323.923V89.4982Z" fill="#E6E6E6"/>
<path d="M94.1859 24.0142C93.6242 22.6354 93.5338 21.1097 93.9289 19.6743C94.9328 22.337 96.9273 21.5242 97.9435 20.2755C99.2181 18.7097 98.8511 15.0934 100.863 14.9316C102.876 14.7698 104.888 15.1506 106.871 15.5297C106.542 14.9671 106.214 14.4046 105.885 13.842C107.32 13.931 108.754 14.02 110.189 14.1091C109.762 13.4063 109.334 12.7037 108.907 12.001C110.857 12.6862 112.641 13.7746 114.142 15.1953C115.643 16.6159 116.828 18.337 117.62 20.2462C118.364 19.0419 118.828 17.6857 118.976 16.278C119.125 14.8702 118.955 13.4471 118.479 12.114C118.003 10.7809 117.233 9.57198 116.226 8.57684C115.219 7.58169 114.002 6.82581 112.663 6.36519C113.229 5.6228 113.795 4.88043 114.36 4.13807L102.843 3.00154C102.814 2.4464 102.921 1.89264 103.155 1.3882C103.388 0.883758 103.741 0.443843 104.183 0.106544C102.675 -0.234031 101.075 0.276864 99.7938 1.14172C98.5122 2.0066 97.493 3.19924 96.4908 4.37653C94.9734 6.15911 93.4376 7.96961 92.4443 10.0893C91.4255 12.3459 91.049 14.8399 91.3562 17.2967C91.6635 19.7536 92.6427 22.078 94.1859 24.0142ZM94.3251 18.606L94.3253 18.6053L94.3368 18.6033L94.3251 18.606Z" fill="#2F2E41"/>
<path d="M235.456 218.288H0.432291C0.31785 218.288 0.208211 218.242 0.127406 218.161C0.0466001 218.08 0.0012207 217.97 0.0012207 217.856C0.0012207 217.741 0.0466001 217.632 0.127406 217.551C0.208211 217.47 0.31785 217.424 0.432291 217.424H235.456C235.57 217.424 235.68 217.47 235.761 217.551C235.842 217.632 235.887 217.741 235.887 217.856C235.887 217.97 235.842 218.08 235.761 218.161C235.68 218.242 235.57 218.288 235.456 218.288Z" fill="#CACACA"/>
</g>
<defs>
<clipPath id="clip0_769_5">
<rect width="333" height="218.288" fill="white"/>
</clipPath>
</defs>
</svg>
