<svg width="331" height="333" viewBox="0 0 331 333" fill="none" xmlns="http://www.w3.org/2000/svg">
<path d="M311.227 288.316L5.14044 304.895C2.30454 305.049 0 302.731 0 299.72V110.554C0 107.543 3.1929 103.219 8.67731 103.719L311.226 120.589C313.224 120.688 314.839 122.811 314.839 125.33V283.56C314.839 286.079 313.223 288.209 311.226 288.317L311.227 288.316Z" fill="#61605E"/>
<path d="M311.197 310.393L9.13513 332.936C3.92471 332.936 0 329.042 0 326.006V128.141L5.07283 126.676L314.841 140.04V305.546C314.841 308.086 313.211 310.256 311.197 310.393Z" fill="#C5CDD8"/>
<path d="M321.359 289.455L15.3495 302.353C12.4673 302.51 9.13444 296.59 9.13444 293.53L5.07214 126.676V108.803C5.07214 105.742 7.41464 103.378 10.2968 103.521L321.359 119.001C323.389 119.102 325.032 121.259 325.032 123.819V284.62C325.032 287.181 323.389 289.345 321.359 289.455Z" fill="#99A1AD"/>
<path d="M321.329 311.891L10.3395 332.988C7.43362 333.185 5.07214 330.844 5.07214 327.758V126.676L325.032 138.769V306.966C325.032 309.547 323.376 311.752 321.329 311.891Z" fill="#D8DEE8"/>
<path d="M111.715 320.35L14.3806 326.65C11.712 326.824 9.54382 324.661 9.54382 321.822V243.573C9.54382 240.734 11.712 238.389 14.3806 238.338L111.715 236.452C114.116 236.406 116.059 238.544 116.059 241.229V315.208C116.059 317.894 114.116 320.196 111.715 320.351V320.35Z" fill="#F4F7FA"/>
<path d="M37.6106 308.186L22.5143 309.031C22.334 309.04 22.1893 308.893 22.1893 308.701V304.887C22.1893 304.694 22.3352 304.532 22.5143 304.521L37.6106 303.712C37.7874 303.703 37.9309 303.85 37.9309 304.04V307.823C37.9309 308.013 37.7874 308.176 37.6106 308.186Z" fill="#C281E8"/>
<path d="M81.9882 314.013L22.5102 317.601C22.3299 317.612 22.1852 317.465 22.1852 317.274V313.459C22.1852 313.267 22.3311 313.104 22.5102 313.093L81.9882 309.643C82.1566 309.633 82.2942 309.775 82.2942 309.962V313.657C82.2942 313.844 82.1578 314.003 81.9882 314.012V314.013Z" fill="#D8DEE8"/>
<path d="M21.5932 258.007C20.77 258.566 19.9765 259.757 20.1568 261.029C20.3395 262.321 21.4413 263.105 22.3095 263.343C23.5324 263.678 23.9356 262.832 25.2522 262.908C27.2484 263.023 28.8033 265.111 29.4521 266.67C30.0914 268.204 29.5932 268.6 30.006 270.378C30.7307 273.502 32.9818 275.354 35.1298 277.12C36.9208 278.593 39.6559 280.356 40.1481 279.785C40.3248 279.581 40.1659 279.131 40.0698 278.861C39.6903 277.787 38.8232 277.57 37.6419 276.598C36.8022 275.906 35.7442 275.035 35.915 274.302C36.0834 273.579 37.4249 273.086 38.4247 273.362C39.4269 273.64 39.9654 274.657 40.2252 275.147C40.447 275.567 40.4102 276.123 40.6166 276.142C40.7589 276.155 40.9167 275.924 40.9878 275.727C41.1717 275.221 40.8502 274.751 40.734 274.368C40.4648 273.488 41.1029 272.503 41.7362 271.524C42.7978 269.885 43.4193 269.85 45.062 267.928C46.1615 266.641 46.7118 265.98 46.7723 265.069C46.8755 263.507 45.6337 262.39 45.4249 262.202C44.4215 261.299 42.7207 260.716 41.9972 261.415C41.3484 262.042 42.0316 263.171 41.2689 264.076C40.7352 264.709 39.8053 264.864 39.0794 264.654C38.0547 264.358 37.4664 263.34 37.4083 262.404C37.3964 262.219 37.343 261.366 37.8791 260.758C38.0321 260.585 38.4034 260.237 39.6547 260.141C41.4136 260.005 41.7801 260.607 42.831 260.323C43.7075 260.085 44.7655 259.311 44.7524 258.581C44.737 257.727 43.2675 257.687 41.582 255.815C40.9261 255.087 40.3936 254.478 40.4363 253.658C40.4956 252.504 41.6627 251.561 41.894 251.374C42.8025 250.638 43.6102 250.039 43.6102 250.039C43.8379 249.871 44.1677 249.628 44.1297 249.409C44.1048 249.266 43.9269 249.171 43.6102 249.087C42.6092 248.819 41.8418 249.019 41.8418 249.019C40.6522 249.331 40.2738 249.96 38.8185 250.838C38.2314 251.192 37.241 251.79 35.8901 252.153C34.3506 252.567 33.8216 252.279 33.0577 252.905C32.3212 253.51 32.5537 253.99 31.7969 254.913C31.0046 255.88 30.0356 256.222 28.5305 256.756C27.9541 256.96 26.7905 257.332 25.2 257.532C22.9358 257.816 22.4578 257.419 21.5932 258.006V258.007Z" fill="#D8DEE8"/>
<path d="M46.669 249.737C45.05 250.239 43.6422 250.675 43.3492 251.728C43.1974 252.276 43.3385 253.016 43.7643 253.4C44.6124 254.161 45.8933 252.884 46.8244 253.54C47.3225 253.891 47.134 254.38 47.7045 257.04C48.0852 258.814 48.3971 259.661 48.9973 260.412C49.3365 260.837 49.8133 261.435 50.2877 261.321C50.9899 261.153 50.7242 259.654 51.8344 258.536C52.2246 258.144 52.2945 258.291 54.1496 257.296C55.2325 256.715 55.7757 256.419 55.8943 256.186C56.5051 254.989 54.8826 253.605 55.5349 252.185C55.6583 251.917 55.6749 252.056 56.5087 250.934C57.4682 249.644 57.4563 249.448 57.4302 249.35C57.3235 248.942 56.6107 248.93 54.764 248.75C51.7015 248.451 51.4536 248.269 50.5439 248.521C49.9402 248.688 49.7801 248.844 48.479 249.244C47.4637 249.555 47.3498 249.526 46.6678 249.737H46.669Z" fill="#D8DEE8"/>
<path d="M42.5702 279.685C41.6759 280.422 41.4979 281.649 41.4256 282.146C41.2477 283.374 41.581 284.161 42.206 286.152C42.9651 288.572 43.3447 289.78 43.4016 290.472C43.4905 291.545 43.3055 291.741 42.5702 296.009C42.0234 299.181 41.9641 300.003 42.4658 300.557C43.2035 301.373 44.7917 301.213 44.8557 300.992C44.8866 300.886 44.5438 300.809 44.2852 300.462C43.7088 299.69 44.1239 298.352 44.233 297.999C44.6648 296.606 45.4903 295.984 46.8258 294.565C48.4033 292.89 49.4304 291.798 50.1847 290.21C50.5595 289.42 51.3601 287.681 51.1134 285.475C51.0636 285.03 50.8561 283.532 49.8242 282.067C48.4851 280.167 46.6811 279.629 46.1521 279.481C45.125 279.192 43.6649 278.782 42.5702 279.685Z" fill="#D8DEE8"/>
<path d="M57.8924 271.319C57.3077 272.535 56.6601 273.88 56.4075 275.105C56.1809 276.202 55.9639 278.678 57.1251 279.586C58.1759 280.409 59.3881 279.189 60.8564 280.099C61.606 280.562 61.9358 281.28 62.3343 282.147C63.1918 284.009 62.7826 285.074 63.1491 287.495C63.3211 288.632 63.8691 292.249 65.233 292.444C66.3717 292.607 67.6123 290.321 67.8199 289.938C68.3702 288.923 68.5825 287.883 68.9834 285.845C69.5254 283.096 69.3238 282.722 69.8931 281.933C70.6273 280.917 71.5157 280.767 71.7102 279.812C71.8537 279.108 71.5121 278.494 71.3069 278.115C70.549 276.717 69.4934 276.915 68.7806 275.563C68.3714 274.786 68.2599 273.848 68.426 273.751C68.5742 273.664 68.9858 274.224 69.185 274.496C69.7982 275.331 69.7223 275.645 70.0948 276.064C70.8479 276.91 72.1194 276.713 72.2143 276.697C72.7978 276.597 73.8487 276.199 73.9768 275.467C74.0764 274.904 73.596 274.324 73.0208 273.627C72.5559 273.066 72.2083 272.83 72.2653 272.718C72.3222 272.604 72.7361 272.733 73.8261 273.1C75.011 273.497 75.6029 273.696 75.6859 273.745C76.0844 273.977 76.4248 274.3 77.5421 276.262C78.6748 278.249 79.0876 279.255 79.3449 279.16C79.473 279.113 79.4505 278.834 79.5454 277.887C79.6865 276.468 79.7636 275.749 80.0957 275.224C80.3756 274.781 80.9746 274.173 81.5937 274.23C81.965 274.264 82.4121 274.873 83.2886 276.085C84.1533 277.28 84.4451 277.687 85.031 277.99C85.3382 278.149 85.8897 278.433 86.3226 278.156C86.8042 277.847 86.969 276.958 86.7698 276.329C86.5278 275.569 85.8565 275.522 85.8755 275.049C85.9027 274.377 87.2928 273.88 87.415 273.838C88.3116 273.527 88.5417 273.83 89.0008 273.503C89.6828 273.015 89.9639 271.784 89.7931 270.846C89.6163 269.881 89.0174 269.545 89.1988 269.117C89.3518 268.757 89.831 268.863 90.7822 268.566C91.4891 268.346 92.5317 268.021 93.1022 267.117C93.4414 266.579 93.5019 266.014 93.5956 265.134C93.611 264.988 93.6786 264.311 93.5956 263.387C93.4806 262.107 93.2279 262.025 93.3489 261.648C93.6146 260.818 94.8979 261.003 97.3329 260.156C98.7266 259.671 99.7335 259.113 99.8332 259.314C99.9565 259.565 98.3268 260.352 98.2165 261.707C98.1335 262.734 98.9507 263.741 99.2947 263.631C99.5782 263.541 99.373 262.74 99.8818 261.544C100.069 261.102 100.354 260.433 100.958 259.985C101.683 259.447 102.112 259.791 102.765 259.221C103.288 258.766 103.157 258.422 103.594 257.946C104.587 256.866 106.262 257.548 106.368 257.155C106.468 256.793 105.176 255.706 103.496 255.504C102.002 255.325 101.772 256.034 100.076 256.095C99.1132 256.129 97.9485 255.745 95.6131 254.973C94.2942 254.538 93.6075 254.234 92.4119 254.192C91.5793 254.163 91.5544 254.298 90.6838 254.242C89.6958 254.179 88.473 254.1 87.5146 253.238C86.7638 252.56 86.9927 252.137 86.3736 251.735C85.3737 251.085 84.0038 251.686 82.8415 252.215C81.6068 252.777 80.7303 253.443 79.2453 254.57C77.5196 255.88 76.942 256.522 75.9872 256.427C75.2743 256.356 75.1285 255.951 74.329 255.98C73.6826 256.002 73.4798 256.277 72.1633 256.927C70.8918 257.555 70.2442 257.867 69.6903 257.775C68.8328 257.633 68.7996 256.984 67.8685 256.613C66.8769 256.217 65.9305 256.561 64.774 256.982C63.3472 257.501 61.9441 258.013 61.2621 259.364C60.5398 260.795 61.2099 262.014 60.3951 262.669C59.719 263.212 59.0275 262.56 58.4025 263.123C57.6517 263.801 57.8758 265.442 57.9933 266.308C58.2257 268.015 58.8022 268.416 58.6076 269.624C58.5211 270.159 58.3681 270.33 57.8913 271.319H57.8924Z" fill="#D8DEE8"/>
<path d="M71.7107 285.168C71.3548 285.143 70.7606 286.722 70.903 288.189C70.9113 288.276 71.0287 289.413 71.3572 289.439C71.662 289.463 71.9799 288.513 72.0131 288.414C72.0665 288.252 72.2266 287.721 72.1649 286.86C72.1471 286.62 72.0439 285.191 71.7107 285.169V285.168Z" fill="#D8DEE8"/>
<path d="M84.4864 281.03C84.4603 281.099 84.5611 281.212 84.8434 281.447C85.5882 282.067 85.9607 282.376 86.5739 282.585C87.104 282.765 88.423 283.079 88.7064 282.547C88.8879 282.206 88.627 281.549 88.2106 281.254C87.7671 280.941 87.4338 281.243 86.3746 281.224C85.2775 281.205 84.5504 280.861 84.4852 281.03H84.4864Z" fill="#D8DEE8"/>
<path d="M88.2094 278.024C87.99 278.071 88.0458 278.542 87.614 279.583C87.4124 280.068 87.3033 280.199 87.3661 280.359C87.5049 280.715 88.3387 280.854 88.7539 280.41C89.1405 279.996 88.965 279.285 88.9021 279.036C88.7847 278.564 88.4644 277.969 88.2082 278.024H88.2094Z" fill="#D8DEE8"/>
<path d="M92.6609 281.828C92.8258 282.085 93.1069 282.401 93.7948 282.707C94.0344 282.813 95.8088 283.601 96.2547 282.926C96.4362 282.651 96.3472 282.21 96.2061 281.946C95.9867 281.54 95.5858 281.457 94.9275 281.293C92.9681 280.807 92.5245 280.549 92.3656 280.803C92.1865 281.088 92.5708 281.688 92.6621 281.828H92.6609Z" fill="#D8DEE8"/>
<path d="M89.3489 276.062C89.1152 276.151 89.1306 277.325 89.5469 278.243C89.764 278.72 90.159 279.28 90.3381 279.194C90.5326 279.102 90.4341 278.275 90.2882 277.72C90.0724 276.893 89.5742 275.976 89.3477 276.062H89.3489Z" fill="#D8DEE8"/>
<path d="M91.2271 270.464C91.2306 270.189 91.8498 270.232 92.6587 269.646C93.2209 269.238 94.044 268.404 94.4816 267.287C94.5706 267.06 94.6619 266.774 94.7284 266.786C94.828 266.804 94.8398 267.493 94.7284 268.095C94.5208 269.208 93.853 270.223 93.0038 270.725C92.6705 270.922 92.4226 270.973 92.2151 270.973C91.7525 270.973 91.2235 270.718 91.2271 270.463V270.464Z" fill="#D8DEE8"/>
<path d="M89.5469 286.56C88.4652 287.64 87.8746 287.478 87.7144 288.069C87.533 288.738 88.2754 289.004 88.4083 290.337C88.4913 291.165 88.2624 291.644 88.4581 291.758C88.7534 291.931 89.2421 290.808 90.389 290.351C90.478 290.315 91.6795 289.856 92.6604 290.46C93.2309 290.811 93.1585 291.172 94.0896 292.029C94.685 292.578 94.9957 292.855 95.3693 292.785C95.9861 292.669 96.3348 291.691 96.5495 291.091C96.7262 290.594 97.133 289.454 96.8436 288.133C96.7191 287.561 96.6266 287.701 94.9269 285.113C94.4572 284.398 94.2687 284.09 93.844 283.907C92.977 283.533 92.027 284.071 91.8716 284.158C91.5312 284.351 91.2335 284.67 90.6369 285.308C89.9324 286.061 89.9763 286.134 89.5493 286.56H89.5469Z" fill="#D8DEE8"/>
<path d="M35.1053 265.843C34.1304 265.175 32.4473 263.776 31.5412 261.338C31.1723 260.348 30.093 257.445 31.4581 255.684C32.2694 254.638 33.5812 254.46 34.2561 254.369C34.8278 254.292 36.5915 254.052 37.7016 255.154C39.4724 256.912 38.2022 260.723 37.9471 261.49C37.2094 263.703 35.881 265.13 35.1053 265.844V265.843Z" fill="url(#paint0_linear_57_1023)"/>
<path d="M36.7209 258.485C36.7209 259.727 35.7851 260.763 34.6287 260.798C33.4711 260.834 32.5317 259.855 32.5317 258.611C32.5317 257.367 33.4711 256.331 34.6287 256.298C35.7851 256.265 36.7209 257.243 36.7209 258.485Z" fill="#F4F7FA"/>
<path d="M47.9393 290.647C46.9774 289.996 45.3169 288.628 44.4226 286.218C44.0585 285.239 42.9934 282.371 44.3408 280.602C45.1402 279.553 46.4354 279.359 47.102 279.26C47.6665 279.175 49.4065 278.915 50.5013 279.995C52.2483 281.718 50.9958 285.521 50.7432 286.285C50.0162 288.493 48.7044 289.927 47.9393 290.646V290.647Z" fill="url(#paint1_linear_57_1023)"/>
<path d="M49.5304 283.319C49.5304 284.553 48.6065 285.593 47.4655 285.644C46.3233 285.695 45.3958 284.734 45.3958 283.498C45.3958 282.262 46.3233 281.222 47.4655 281.174C48.6065 281.126 49.5304 282.087 49.5304 283.319Z" fill="#F4F7FA"/>
<path d="M90.9124 287.825C89.9932 287.187 88.4062 285.848 87.5511 283.49C87.2036 282.532 86.1859 279.727 87.4728 278.001C88.2366 276.976 89.4749 276.789 90.1106 276.693C90.6503 276.611 92.3132 276.358 93.3593 277.416C95.0293 279.103 93.8313 282.819 93.5906 283.566C92.8955 285.724 91.643 287.123 90.9101 287.825H90.9124Z" fill="url(#paint2_linear_57_1023)"/>
<path d="M92.432 280.664C92.432 281.869 91.5496 282.886 90.4584 282.933C89.3672 282.981 88.4812 282.041 88.4812 280.833C88.4812 279.624 89.3672 278.609 90.4584 278.563C91.5484 278.518 92.432 279.458 92.432 280.663V280.664Z" fill="#F4F7FA"/>
<path d="M78.449 273.228C77.5179 272.579 75.9096 271.217 75.0426 268.838C74.6904 267.871 73.6585 265.039 74.9643 263.311C75.7388 262.286 76.9925 262.107 77.6377 262.014C78.1845 261.936 79.8699 261.695 80.9303 262.769C82.6216 264.48 81.4095 268.21 81.1651 268.961C80.4606 271.128 79.1915 272.527 78.449 273.228Z" fill="url(#paint3_linear_57_1023)"/>
<path d="M79.9918 266.03C79.9918 267.243 79.0975 268.259 77.992 268.299C76.8854 268.339 75.9888 267.385 75.9888 266.168C75.9888 264.952 76.8866 263.936 77.992 263.899C79.0963 263.863 79.9918 264.816 79.9918 266.03Z" fill="#F4F7FA"/>
<path d="M116.761 218.212C116.761 220.896 114.82 223.095 112.42 223.125L15.1636 224.309C12.4973 224.341 10.3303 222.066 10.3303 219.227V141.01C10.3303 138.171 12.4973 135.941 15.1636 136.03L112.42 139.258C114.821 139.337 116.761 141.578 116.761 144.262V218.212Z" fill="#F4F7FA"/>
<path d="M37.6097 208.341L22.5133 208.401C22.3331 208.401 22.1884 208.247 22.1884 208.055V204.241C22.1884 204.048 22.3342 203.893 22.5133 203.893L37.6097 203.868C37.7864 203.868 37.9299 204.022 37.9299 204.212V207.996C37.9299 208.185 37.7864 208.341 37.6097 208.342V208.341Z" fill="#C281E8"/>
<path d="M81.9913 216.472L22.5133 216.974C22.3331 216.975 22.1884 216.821 22.1884 216.629V212.814C22.1884 212.622 22.3342 212.466 22.5133 212.465L81.9913 212.102C82.1598 212.102 82.2973 212.25 82.2973 212.436V216.132C82.2973 216.318 82.1609 216.47 81.9913 216.471V216.472Z" fill="#D8DEE8"/>
<path d="M108.453 180.118L22.424 179.166V146.704L108.453 149.096V180.118Z" fill="#D8DEE8"/>
<path opacity="0.32" d="M108.453 197.064L22.424 196.898V185.441L108.453 186.114V197.064Z" fill="#D8DEE8"/>
<path d="M191.887 315.161L135.871 318.787C133.587 318.935 131.731 316.953 131.731 314.359V265.053C131.731 262.46 133.587 260.297 135.871 260.222L191.887 258.393C194.028 258.323 195.761 260.296 195.761 262.797V310.378C195.761 312.88 194.029 315.021 191.887 315.159V315.161Z" fill="#F4F7FA"/>
<path d="M195.754 295.977L131.725 299.434V300.938L195.754 297.428V295.977Z" fill="white"/>
<path d="M162.557 259.335V298.825L163.774 298.759V259.294L162.557 259.335Z" fill="white"/>
<path d="M157.084 283.309L138.873 284.144V265.135L157.084 264.49V283.309Z" fill="#D8DEE8"/>
<path d="M157.084 293.589L138.873 294.527V287.817L157.084 286.947V293.589Z" fill="#D8DEE8"/>
<path d="M147.887 307.544L138.932 308.072C138.823 308.078 138.734 307.983 138.734 307.859V305.311C138.734 305.186 138.823 305.081 138.932 305.075L147.887 304.561C147.995 304.555 148.083 304.65 148.083 304.774V307.308C148.083 307.432 147.995 307.537 147.887 307.543V307.544Z" fill="#D8DEE8"/>
<path d="M174.546 311.56L138.932 313.771C138.823 313.778 138.734 313.683 138.734 313.559V311.011C138.734 310.886 138.823 310.781 138.932 310.774L174.546 308.621C174.652 308.615 174.736 308.707 174.736 308.83V311.328C174.736 311.45 174.651 311.553 174.546 311.56Z" fill="#D8DEE8"/>
<path d="M173.988 292.247L168.894 292.508V264.072L173.988 263.892V292.247Z" fill="white"/>
<path d="M182.463 291.812L177.417 292.071V263.77L182.463 263.591V291.812Z" fill="white"/>
<path d="M190.855 291.382L185.856 291.638V263.471L190.855 263.294V291.382Z" fill="white"/>
<mask id="mask0_57_1023" style="mask-type:luminance" maskUnits="userSpaceOnUse" x="166" y="272" width="27" height="22">
<path d="M166.885 280.461V293.555C175.46 293.112 183.953 292.671 192.366 292.235V275.537C185.618 271.733 181.819 272.358 179.59 273.677C177.081 275.159 175.629 278.067 171.448 279.618C169.574 280.313 167.93 280.447 166.887 280.46L166.885 280.461Z" fill="white"/>
</mask>
<g mask="url(#mask0_57_1023)">
<path d="M173.989 292.247L168.895 292.508V277.74L173.989 277.521V292.247Z" fill="url(#paint4_linear_57_1023)"/>
<path d="M182.46 291.814L177.414 292.072V270.339L182.46 270.141V291.814Z" fill="url(#paint5_linear_57_1023)"/>
<path d="M190.854 291.383L185.855 291.64V272.499L190.854 272.296V291.383Z" fill="url(#paint6_linear_57_1023)"/>
</g>
<path d="M257.958 310.885L206.107 314.242C203.995 314.378 202.279 312.469 202.279 309.976V262.571C202.279 260.078 203.995 258.001 206.107 257.932L257.958 256.239C259.942 256.174 261.548 258.075 261.548 260.484V306.292C261.548 308.701 259.942 310.757 257.958 310.887V310.885Z" fill="#F4F7FA"/>
<path d="M219.467 303.866L209.408 304.463C209.304 304.469 209.22 304.374 209.22 304.252V301.608C209.22 301.485 209.304 301.38 209.408 301.374L219.467 300.796C219.571 300.79 219.654 300.885 219.654 301.007V303.635C219.654 303.757 219.571 303.862 219.467 303.868V303.866Z" fill="#F4F7FA"/>
<path d="M230.021 309.046L209.407 310.336C209.302 310.342 209.218 310.248 209.218 310.125V307.481C209.218 307.358 209.302 307.253 209.407 307.246L230.021 305.991C230.123 305.986 230.205 306.079 230.205 306.2V308.813C230.205 308.934 230.122 309.038 230.021 309.044V309.046Z" fill="#D8DEE8"/>
<path d="M211.257 289.58L208.142 289.739V262.882L211.257 262.771V289.58Z" fill="white"/>
<path d="M215.875 289.345L212.777 289.503V262.717L215.875 262.606V289.345Z" fill="white"/>
<path d="M220.464 289.113L217.382 289.269V262.553L220.464 262.444V289.113Z" fill="white"/>
<path d="M225.032 288.88L221.967 289.035V262.39L225.032 262.281V288.88Z" fill="white"/>
<path d="M229.577 288.649L226.527 288.804V262.229L229.577 262.12V288.649Z" fill="white"/>
<path d="M234.096 288.419L231.062 288.573V262.067L234.096 261.959V288.419Z" fill="white"/>
<path d="M238.591 288.191L235.572 288.344V261.908L238.591 261.8V288.191Z" fill="white"/>
<path d="M243.065 287.963L240.062 288.116V261.747L243.065 261.641V287.963Z" fill="white"/>
<path d="M247.516 287.737L244.53 287.889V261.589L247.516 261.482V287.737Z" fill="white"/>
<path d="M251.94 287.513L248.968 287.663V261.432L251.94 261.327V287.513Z" fill="white"/>
<path d="M256.345 287.288L253.388 287.439V261.274L256.345 261.169V287.288Z" fill="white"/>
<mask id="mask1_57_1023" style="mask-type:luminance" maskUnits="userSpaceOnUse" x="205" y="270" width="53" height="22">
<path d="M205.657 280.791C208.322 278.293 210.455 277.771 211.951 277.79C213.846 277.815 214.454 278.706 216.506 278.327C218.598 277.942 218.76 276.867 221.097 276.324C221.483 276.234 223.339 275.831 225.604 276.455C228.277 277.19 228.381 278.493 230.03 278.376C231.549 278.269 231.662 277.146 234.67 275.328C236.088 274.47 237.412 273.67 239.166 273.434C241.077 273.176 241.212 273.896 243.64 273.81C245.568 273.741 247.079 273.229 248.032 272.898C250.615 272.001 250.948 271.232 252.692 270.854C253.726 270.63 255.298 270.534 257.327 271.384V288.844C240.465 289.717 223.265 290.608 205.719 291.517C205.698 287.941 205.678 284.366 205.657 280.79V280.791Z" fill="white"/>
</mask>
<g mask="url(#mask1_57_1023)">
<path d="M211.254 289.58L208.139 289.738V275.79L211.254 275.656V289.58Z" fill="#A09F9C"/>
<path d="M215.868 289.345L212.77 289.503V268.933L215.868 268.812V289.345Z" fill="#A09F9C"/>
<path d="M220.462 289.112L217.379 289.269V271.114L220.462 270.989V289.112Z" fill="#A09F9C"/>
<path d="M225.029 288.881L221.964 289.037V270.728L225.029 270.605V288.881Z" fill="#A09F9C"/>
<path d="M229.572 288.65L226.522 288.805V268.396L229.572 268.276V288.65Z" fill="#A09F9C"/>
<path d="M234.091 288.42L231.057 288.574V270.562L234.091 270.439V288.42Z" fill="#A09F9C"/>
<path d="M238.586 288.191L235.567 288.344V268.882L238.586 268.762V288.191Z" fill="#A09F9C"/>
<path d="M243.06 287.964L240.057 288.117V270.646L243.06 270.524V287.964Z" fill="#A09F9C"/>
<path d="M247.509 287.738L244.523 287.889V270.016L247.509 269.896V287.738Z" fill="#A09F9C"/>
<path d="M251.935 287.513L248.963 287.663V267.519L251.935 267.403V287.513Z" fill="#A09F9C"/>
<path d="M256.34 287.289L253.383 287.439V268.498L256.34 268.38V287.289Z" fill="#A09F9C"/>
</g>
<path d="M261.543 292.425L202.277 295.627V297.072L261.543 293.822V292.425Z" fill="white"/>
<path d="M318.37 306.974L270.185 310.093C268.224 310.22 266.631 308.376 266.631 305.974V260.303C266.631 257.901 268.224 255.901 270.185 255.837L318.37 254.265C320.217 254.204 321.71 256.039 321.71 258.364V302.551C321.71 304.874 320.217 306.855 318.37 306.975V306.974Z" fill="#F4F7FA"/>
<path d="M321.738 289.174L266.663 292.147V293.54L321.738 290.521V289.174Z" fill="white"/>
<path d="M287.283 300.022L272.02 300.928C271.921 300.934 271.841 300.84 271.841 300.718V298.34C271.841 298.218 271.922 298.115 272.02 298.11L287.283 297.229C287.38 297.223 287.46 297.317 287.46 297.436V299.792C287.46 299.913 287.38 300.015 287.283 300.021V300.022Z" fill="#D8DEE8"/>
<path d="M305.688 304.181L272.019 306.286C271.919 306.292 271.84 306.198 271.84 306.077V303.699C271.84 303.578 271.92 303.474 272.019 303.468L305.688 301.418C305.783 301.412 305.86 301.505 305.86 301.623V303.953C305.86 304.071 305.783 304.173 305.688 304.179V304.181Z" fill="#D8DEE8"/>
<path d="M304.13 274.742C304.13 276.227 303.139 277.476 301.915 277.533C300.688 277.589 299.693 276.428 299.693 274.94C299.693 273.451 300.688 272.201 301.915 272.148C303.139 272.094 304.13 273.256 304.13 274.741V274.742Z" fill="white"/>
<path d="M301.831 277.849C301.265 277.849 300.719 277.625 300.285 277.21C299.709 276.66 299.379 275.833 299.379 274.939C299.379 273.287 300.51 271.894 301.902 271.833C302.499 271.807 303.084 272.035 303.542 272.472C304.116 273.023 304.446 273.849 304.446 274.74C304.446 276.389 303.318 277.781 301.93 277.845C301.897 277.846 301.864 277.848 301.831 277.848V277.849ZM301.997 272.461C301.974 272.461 301.951 272.461 301.929 272.462C300.87 272.507 300.009 273.618 300.009 274.939C300.009 275.661 300.268 276.322 300.72 276.754C301.058 277.077 301.462 277.236 301.902 277.217C302.958 277.168 303.817 276.057 303.817 274.74C303.817 274.02 303.559 273.36 303.108 272.927C302.788 272.621 302.406 272.459 301.998 272.459L301.997 272.461Z" fill="#A67FF7"/>
<path d="M291.753 263.792L272.277 264.529V260.55L291.753 259.859V263.792Z" fill="#D8DEE8"/>
<path d="M312.816 280.361L305.13 280.732V277.752L312.816 277.394V280.361Z" fill="#C281E8"/>
<path d="M131.721 243.469V148.513C131.721 145.844 133.91 143.691 136.58 143.737L304.28 146.623C306.886 146.668 308.975 148.793 308.975 151.399V238.076C308.975 240.655 306.929 242.767 304.351 242.85L136.651 248.243C133.954 248.33 131.721 246.168 131.721 243.469Z" fill="#F4F7FA"/>
<path d="M23.9906 115.353C23.9906 117.036 22.7132 118.346 21.1345 118.278C19.5535 118.21 18.2701 116.788 18.2701 115.101C18.2701 113.413 19.5535 112.103 21.1345 112.176C22.7132 112.248 23.9906 113.67 23.9906 115.352V115.353Z" fill="#5B595A"/>
<path d="M34.9269 115.835C34.9269 117.508 33.6637 118.81 32.1029 118.744C30.5396 118.678 29.2705 117.264 29.2705 115.586C29.2705 113.907 30.5396 112.605 32.1029 112.676C33.6637 112.747 34.9269 114.161 34.9269 115.835Z" fill="#5B595A"/>
<path d="M45.7435 116.311C45.7435 117.975 44.4945 119.27 42.9514 119.205C41.406 119.14 40.1511 117.733 40.1511 116.066C40.1511 114.398 41.406 113.102 42.9514 113.173C44.4945 113.243 45.7435 114.648 45.7435 116.312V116.311Z" fill="#5B595A"/>
<path d="M309.658 244.362L128.432 249.597C126.239 249.647 124.284 247.644 124.284 245.564V144.261C124.284 142.18 126.238 140.072 128.38 140.17L309.657 146.644C311.138 146.693 312.337 148.245 312.337 150.111V240.912C312.337 242.777 311.138 244.322 309.657 244.361L309.658 244.362Z" fill="#97A6B7"/>
<path d="M312.711 244.723L129.102 249.645C127.252 249.695 125.749 248.033 125.749 245.935V143.764C125.749 141.665 127.252 140.014 129.102 140.075L312.711 146.168C314.205 146.218 315.414 147.783 315.414 149.665V241.244C315.414 243.125 314.204 244.682 312.711 244.723Z" fill="#F4F7FA"/>
<path d="M256.898 236.836L135.114 239.428V150.068L256.898 153.454V236.836Z" fill="#D8DEE8"/>
<path d="M307.561 162.357L266.371 161.399V153.707L307.561 154.853V162.357Z" fill="#D8DEE8"/>
<path d="M307.561 172.773L266.371 172.076V164.383L307.561 165.268V172.773Z" fill="#D8DEE8"/>
<path d="M307.561 235.506L266.371 236.376V181.09L307.561 181.568V235.506Z" fill="#D8DEE8"/>
<path d="M308.241 225.887L265.539 226.54V224.476L308.241 223.875V225.887Z" fill="#F4F7FA"/>
<path d="M272.271 234.095C272.271 234.095 269.194 231.762 269.886 229.973C270.577 228.187 271.769 228.861 272.397 229.39C273.462 228.601 273.899 228.876 274.4 229.176C274.9 229.475 275.587 231.515 272.271 234.095Z" fill="#FE8498"/>
<path d="M305.273 233.489L277.748 234.036V228.913L305.273 228.451V233.489Z" fill="#F4F7FA"/>
<path d="M308.25 245.036C308.146 245.036 308.06 244.953 308.057 244.848C308.055 244.741 308.139 244.652 308.245 244.65L312.704 244.53C314.092 244.493 315.22 243.019 315.22 241.244V149.665C315.22 147.89 314.091 146.408 312.703 146.362L307.346 146.184C307.239 146.181 307.156 146.092 307.159 145.985C307.163 145.879 307.242 145.811 307.359 145.799L312.715 145.977C314.308 146.03 315.605 147.685 315.605 149.665V241.244C315.605 243.226 314.308 244.874 312.714 244.917L308.254 245.036H308.249H308.25Z" fill="#D8DEE8"/>
<path d="M189.88 180.169V204.29L210.86 193.646L189.88 180.169Z" fill="#F4F7FA"/>
<path d="M167.314 128.449C171.103 130.371 175.86 128.604 177.942 124.503C180.023 120.401 178.64 115.518 174.852 113.595C174.656 113.496 174.456 113.412 174.254 113.332C174.957 111.063 175.488 108.775 175.842 106.487C176.059 106.487 176.277 106.483 176.498 106.464C180.819 106.078 184.248 102.106 184.157 97.5929C184.065 93.0799 180.488 89.734 176.167 90.1195C175.942 90.1397 175.72 90.1752 175.499 90.2144C175.048 87.9775 174.428 85.7927 173.648 83.6791C173.847 83.5629 174.044 83.4431 174.237 83.3067C177.933 80.7163 179.115 75.6043 176.875 71.8884C174.636 68.1724 169.824 67.2615 166.127 69.8519C165.937 69.9847 165.759 70.1282 165.584 70.2741C164.124 68.6599 162.521 67.1643 160.789 65.7991C160.911 65.5998 161.029 65.397 161.137 65.1847C163.219 61.0833 165.938 56.6035 162.122 54.7401C153.29 50.4311 149.502 54.1222 147.42 58.2236C147.312 58.4359 147.22 58.6518 147.13 58.8677C145.005 58.2746 142.853 57.8654 140.687 57.6389C140.7 57.4112 140.711 57.1823 140.706 56.951C140.615 52.438 141.954 49.9958 137.616 49.9116C128.157 49.729 124.967 53.8352 125.058 58.3482C125.063 58.5842 125.083 58.8143 125.106 59.0444C122.939 59.6623 120.81 60.4534 118.738 61.4082C118.639 61.2066 118.537 61.0073 118.42 60.8128C116.18 57.098 111.368 56.186 107.671 58.7763C103.974 61.3667 102.794 66.4787 105.034 70.1947C105.149 70.3856 105.274 70.5635 105.401 70.7391C103.765 72.377 102.232 74.155 100.815 76.0622C100.632 75.9471 100.446 75.8344 100.249 75.736C96.4607 73.8134 91.7034 75.5806 89.6218 79.6821C87.5402 83.7835 88.9232 88.6666 92.7115 90.5892C92.9072 90.6888 93.1077 90.773 93.3093 90.8525C92.606 93.1215 92.0758 95.4094 91.72 97.6973C91.5029 97.6973 91.2847 97.7021 91.0641 97.721C86.7432 98.1077 83.3143 102.079 83.4056 106.592C83.4969 111.105 87.0741 114.451 91.395 114.064C91.6203 114.044 91.8421 114.008 92.0627 113.969C92.5146 116.206 93.1338 118.39 93.9142 120.504C93.7149 120.621 93.518 120.74 93.3247 120.877C89.6277 123.467 88.4476 128.579 90.6869 132.295C92.9262 136.011 100.339 137.736 104.035 135.145C104.225 135.012 101.802 134.055 101.978 133.91C103.438 135.525 105.041 137.02 106.774 138.386C106.651 138.585 106.533 138.788 106.425 139C104.343 143.101 105.726 147.984 109.515 149.907C113.303 151.83 118.06 150.062 120.142 145.961C120.25 145.749 120.342 145.533 120.431 145.317C122.557 145.91 124.709 146.319 126.874 146.546C126.861 146.773 126.85 147.002 126.855 147.234C126.946 151.747 130.524 155.093 134.844 154.706C139.165 154.32 142.594 150.348 142.503 145.835C142.498 145.599 142.478 145.369 142.455 145.14C144.622 144.522 146.751 143.731 148.823 142.776C148.922 142.978 149.024 143.177 149.141 143.372C151.381 147.087 156.193 147.999 159.889 145.408C163.586 142.818 164.767 137.706 162.527 133.99C162.412 133.8 162.287 133.622 162.16 133.447C163.796 131.809 165.329 130.031 166.746 128.124C166.93 128.239 167.115 128.351 167.312 128.45L167.314 128.449ZM120.1 129.056C106.348 122.077 101.326 104.346 108.882 89.4553C116.44 74.5642 133.714 68.1499 147.467 75.1299C161.219 82.1088 166.242 99.8382 158.684 114.729C151.127 129.62 133.853 136.035 120.099 129.055L120.1 129.056Z" fill="#26264F"/>
<path d="M176.499 106.463C180.82 106.077 184.249 102.106 184.158 97.5928C184.066 93.0798 180.489 89.7338 176.168 90.1205C175.943 90.1407 175.721 90.1763 175.501 90.2154C175.049 87.9785 174.43 85.7949 173.649 83.6801C173.848 83.5639 174.045 83.4441 174.239 83.3077C177.934 80.7173 182.508 74.4584 179.899 70.9915C174.947 64.4136 169.824 67.2625 166.128 69.8529C165.939 69.9857 165.761 70.1293 165.585 70.274C164.125 68.6597 162.523 67.1641 160.79 65.8001C160.912 65.6008 161.031 65.398 161.139 65.1857C162.271 62.9535 162.371 60.4924 161.622 58.4014C158.052 64.6864 154.531 70.9986 151.073 77.3453C162.046 85.3821 165.541 101.223 158.686 114.73C152.878 126.176 141.328 132.604 130.049 131.801C129.546 133.106 129.053 134.418 128.514 135.711C127.053 139.218 125.393 142.653 123.731 146.083C124.777 146.28 125.828 146.435 126.881 146.546C126.868 146.773 126.857 147.002 126.862 147.233C126.954 151.746 129.695 155.58 137.525 155.164C141.857 154.933 142.601 150.349 142.509 145.836C142.504 145.6 142.484 145.37 142.461 145.141C144.628 144.523 146.757 143.732 148.829 142.777C148.928 142.979 149.03 143.178 149.147 143.373C151.387 147.089 159.154 148.666 162.851 146.075C166.548 143.484 164.774 137.706 162.535 133.991C162.419 133.801 162.294 133.622 162.167 133.447C163.804 131.809 165.337 130.031 166.753 128.123C166.937 128.239 167.122 128.351 167.319 128.45C171.107 130.372 175.865 128.605 177.946 124.504C180.028 120.402 178.645 115.519 174.857 113.596C174.661 113.497 174.46 113.413 174.259 113.333C174.962 111.064 175.492 108.776 175.847 106.488C176.064 106.488 176.282 106.484 176.503 106.465L176.499 106.463Z" fill="#26264F"/>
<path d="M171.389 128.911C175.177 130.833 179.934 129.066 182.016 124.964C184.097 120.863 182.714 115.98 178.926 114.057C178.73 113.958 178.53 113.874 178.328 113.794C179.032 111.525 179.562 109.237 179.916 106.949C180.133 106.949 180.352 106.944 180.572 106.925C184.893 106.54 188.322 102.568 188.231 98.0549C188.139 93.5418 184.562 90.1959 180.241 90.5826C180.016 90.6028 179.794 90.6383 179.574 90.6775C179.122 88.4406 178.503 86.257 177.722 84.1422C177.921 84.026 178.118 83.9062 178.312 83.7698C182.007 81.1794 183.189 76.0674 180.95 72.3515C178.71 68.6355 173.898 67.7246 170.201 70.315C170.012 70.4478 169.834 70.5913 169.658 70.7372C168.198 69.123 166.596 67.6273 164.863 66.2634C164.985 66.0641 165.104 65.8613 165.211 65.649C167.293 61.5475 165.91 56.6645 162.122 54.7418C158.333 52.8192 153.576 54.5865 151.495 58.6879C151.387 58.9002 151.294 59.1161 151.204 59.332C149.08 58.7389 146.927 58.3297 144.761 58.1032C144.774 57.8755 144.785 57.6465 144.78 57.4153C144.689 52.9023 141.112 49.5563 136.791 49.943C132.47 50.3285 129.041 54.3006 129.132 58.8136C129.137 59.0497 129.157 59.2798 129.18 59.5087C127.013 60.1266 124.884 60.9177 122.812 61.8737C122.713 61.6721 122.611 61.4728 122.494 61.2783C120.255 57.5635 115.443 56.6514 111.746 59.2418C108.049 61.8322 106.869 66.9454 109.108 70.6601C109.223 70.8499 109.349 71.029 109.476 71.2045C107.839 72.8425 106.305 74.6204 104.889 76.5276C104.705 76.4126 104.52 76.2999 104.323 76.2015C100.535 74.2788 95.7776 76.0461 93.6961 80.1475C91.6145 84.249 92.9975 89.132 96.7858 91.0546C96.9827 91.1543 97.1819 91.2373 97.3836 91.318C96.6802 93.5869 96.15 95.8749 95.7954 98.1628C95.5783 98.1628 95.3601 98.1675 95.1395 98.1865C90.8186 98.5732 87.3897 102.544 87.481 107.057C87.5724 111.57 91.1496 114.916 95.4704 114.529C95.6958 114.509 95.9176 114.474 96.1382 114.435C96.5901 116.671 97.2092 118.855 97.9896 120.97C97.7916 121.086 97.5935 121.206 97.4002 121.342C93.7032 123.933 92.523 129.045 94.7623 132.761C97.0016 136.476 101.814 137.387 105.511 134.797C105.7 134.664 105.878 134.521 106.054 134.375C107.514 135.989 109.116 137.485 110.849 138.85C110.727 139.049 110.608 139.252 110.5 139.464C108.419 143.566 109.802 148.449 113.59 150.371C117.378 152.294 122.136 150.527 124.217 146.425C124.325 146.213 124.418 145.997 124.508 145.781C126.632 146.374 128.786 146.783 130.951 147.01C130.938 147.238 130.927 147.467 130.932 147.698C131.023 152.211 134.6 155.557 138.921 155.17C143.242 154.785 146.671 150.813 146.579 146.3C146.575 146.064 146.555 145.833 146.532 145.605C148.699 144.987 150.828 144.195 152.9 143.241C152.999 143.442 153.101 143.642 153.218 143.836C155.457 147.552 160.269 148.463 163.966 145.873C167.663 143.282 168.843 138.17 166.604 134.454C166.489 134.264 166.363 134.087 166.236 133.911C167.873 132.273 169.407 130.495 170.823 128.588C171.007 128.703 171.192 128.816 171.389 128.914V128.911ZM124.175 129.518C110.422 122.539 105.399 104.81 112.957 89.9172C120.514 75.0261 137.788 68.6118 151.541 75.5918C165.293 82.5707 170.316 100.3 162.759 115.192C155.201 130.084 137.927 136.498 124.175 129.518Z" fill="url(#paint7_linear_57_1023)"/>
<path d="M301.773 108.422C307.001 111.077 313.57 108.639 316.443 102.978C319.317 97.3172 317.409 90.5767 312.181 87.9223C311.91 87.7847 311.634 87.6697 311.356 87.5582C312.328 84.4257 313.06 81.2684 313.551 78.1111C313.851 78.1111 314.151 78.1052 314.457 78.0779C320.421 77.5465 325.155 72.0645 325.031 65.8352C324.906 59.6048 319.968 54.9862 314.004 55.5176C313.692 55.5461 313.386 55.5947 313.081 55.6493C312.458 52.5619 311.604 49.5457 310.527 46.6268C310.801 46.4667 311.074 46.3006 311.341 46.1132C316.445 42.5384 318.075 35.4813 314.986 30.3515C311.895 25.2217 305.253 23.9621 300.149 27.5381C299.888 27.722 299.641 27.9189 299.398 28.1205C297.383 25.8919 295.172 23.8269 292.78 21.9423C292.948 21.6659 293.113 21.3872 293.262 21.0942C296.135 15.4331 299.892 9.24891 294.623 6.6775C282.434 0.726976 277.203 5.82115 274.329 11.4823C274.181 11.7752 274.052 12.0729 273.929 12.3718C270.995 11.5534 268.024 10.9865 265.035 10.6746C265.054 10.3603 265.069 10.0448 265.063 9.72571C264.938 3.49645 266.786 0.124449 260.799 0.00821422C247.742 -0.245605 243.337 5.42145 243.462 11.6507C243.469 11.9769 243.496 12.2947 243.528 12.6114C240.536 13.4642 237.598 14.5542 234.737 15.8731C234.601 15.5956 234.46 15.3192 234.298 15.0512C231.207 9.92141 224.565 8.6618 219.462 12.2378C214.358 15.8138 212.727 22.8698 215.818 27.9995C215.976 28.2628 216.15 28.5084 216.326 28.7503C214.066 31.011 211.949 33.4649 209.993 36.098C209.741 35.9391 209.483 35.7837 209.213 35.6473C203.985 32.9929 197.416 35.4303 194.542 41.0914C191.669 46.7525 193.577 53.4942 198.804 56.1474C199.074 56.285 199.352 56.4 199.628 56.5115C198.657 59.6439 197.924 62.8013 197.433 65.9586C197.133 65.9586 196.833 65.9645 196.528 65.9918C190.563 66.5244 185.828 72.0052 185.953 78.2344C186.077 84.4649 191.015 89.0835 196.98 88.5521C197.292 88.5248 197.598 88.475 197.901 88.4204C198.524 91.5078 199.378 94.524 200.455 97.4429C200.181 97.603 199.908 97.7691 199.641 97.9565C194.538 101.531 192.907 108.588 195.998 113.718C199.089 118.848 209.32 121.231 214.423 117.656C214.684 117.472 211.342 116.152 211.585 115.95C213.6 118.179 215.811 120.244 218.203 122.129C218.035 122.404 217.87 122.684 217.722 122.977C214.848 128.638 216.756 135.379 221.983 138.033C227.212 140.687 233.78 138.25 236.654 132.589C236.802 132.296 236.931 131.998 237.055 131.699C239.988 132.517 242.959 133.084 245.948 133.396C245.929 133.711 245.915 134.026 245.921 134.345C246.045 140.574 250.983 145.194 256.948 144.663C262.912 144.131 267.647 138.649 267.521 132.42C267.514 132.095 267.487 131.776 267.455 131.461C270.447 130.608 273.385 129.518 276.246 128.199C276.383 128.476 276.524 128.753 276.685 129.021C279.776 134.151 286.418 135.41 291.522 131.834C296.625 128.258 298.256 121.202 295.166 116.073C295.007 115.81 294.834 115.564 294.659 115.322C296.918 113.061 299.035 110.607 300.991 107.975C301.244 108.134 301.501 108.288 301.772 108.426L301.773 108.422ZM236.598 109.249C217.616 99.611 210.687 75.1364 221.123 54.5818C231.56 34.0271 255.407 25.1779 274.39 34.8159C293.372 44.4539 300.301 68.9285 289.866 89.4832C279.43 110.038 255.581 118.887 236.599 109.249H236.598Z" fill="url(#paint8_linear_57_1023)"/>
<path d="M314.459 78.0784C320.424 77.547 325.157 72.065 325.033 65.8358C324.908 59.6053 319.971 54.9868 314.006 55.5181C313.694 55.5454 313.388 55.5952 313.083 55.6498C312.46 52.5624 311.606 49.5462 310.529 46.6273C310.803 46.4672 311.076 46.3011 311.343 46.1137C316.447 42.5389 322.76 33.8996 319.159 29.115C312.326 20.0332 305.254 23.9638 300.151 27.5398C299.89 27.7237 299.644 27.9206 299.401 28.1222C297.384 25.8936 295.175 23.8286 292.782 21.944C292.951 21.6688 293.116 21.3889 293.264 21.0959C294.828 18.0145 294.966 14.6176 293.933 11.7295C289.003 20.4056 284.141 29.1173 279.365 37.8765C294.509 48.9734 299.331 70.8422 289.865 89.4849C281.843 105.283 265.899 114.155 250.329 113.043C249.634 114.844 248.953 116.654 248.208 118.438C246.191 123.278 243.897 128.019 241.602 132.754C243.046 133.027 244.496 133.24 245.95 133.393C245.931 133.708 245.917 134.023 245.923 134.343C246.047 140.573 249.83 145.866 260.641 145.293C266.621 144.976 267.648 138.648 267.524 132.418C267.517 132.093 267.49 131.774 267.457 131.459C270.45 130.606 273.388 129.515 276.248 128.197C276.385 128.475 276.526 128.751 276.687 129.019C279.778 134.149 290.499 136.328 295.603 132.753C300.706 129.177 298.258 121.202 295.167 116.072C295.009 115.809 294.835 115.563 294.66 115.321C296.919 113.062 299.036 110.606 300.992 107.975C301.245 108.133 301.502 108.289 301.773 108.425C307.001 111.08 313.569 108.642 316.443 102.981C319.317 97.3201 317.409 90.5784 312.181 87.9252C311.91 87.7876 311.634 87.6726 311.356 87.5611C312.328 84.4286 313.059 81.2713 313.55 78.114C313.851 78.114 314.151 78.1081 314.457 78.0808L314.459 78.0784Z" fill="url(#paint9_linear_57_1023)"/>
<path d="M307.396 109.062C312.624 111.716 319.193 109.279 322.066 103.618C324.94 97.9568 323.032 91.2164 317.804 88.5619C317.533 88.4243 317.257 88.3093 316.979 88.1978C317.951 85.0654 318.683 81.908 319.174 78.7495C319.474 78.7495 319.774 78.7436 320.08 78.7163C326.045 78.185 330.778 72.7029 330.654 66.4737C330.529 60.2432 325.591 55.6247 319.627 56.156C319.315 56.1845 319.009 56.2331 318.704 56.2877C318.081 53.2003 317.227 50.1842 316.15 47.2652C316.424 47.1051 316.697 46.9391 316.964 46.7517C322.068 43.1768 323.698 36.1197 320.609 30.9899C317.518 25.8602 310.876 24.6006 305.772 28.1766C305.511 28.3604 305.265 28.5573 305.021 28.7589C303.006 26.5303 300.795 24.4654 298.403 22.5807C298.572 22.3055 298.736 22.0256 298.885 21.7326C301.759 16.0715 299.85 9.33107 294.622 6.67664C289.394 4.02221 282.825 6.45959 279.951 12.1207C279.802 12.4137 279.674 12.7114 279.55 13.0103C276.617 12.1919 273.646 11.6249 270.657 11.313C270.676 10.9987 270.691 10.6832 270.685 10.3641C270.56 4.13488 265.622 -0.484869 259.658 0.0464913C253.693 0.577852 248.959 6.05988 249.084 12.2891C249.09 12.6153 249.118 12.9332 249.15 13.2487C246.158 14.1015 243.22 15.1926 240.359 16.5104C240.223 16.2328 240.083 15.9565 239.92 15.6884C236.829 10.5587 230.187 9.29905 225.084 12.8751C219.98 16.4511 218.349 23.507 221.44 28.6368C221.599 28.9001 221.772 29.1456 221.948 29.3876C219.688 31.6482 217.571 34.1022 215.615 36.7353C215.363 36.5763 215.106 36.421 214.835 36.2846C209.607 33.6301 203.038 36.0675 200.164 41.7286C197.29 47.3898 199.199 54.1302 204.426 56.7847C204.696 56.9222 204.974 57.0373 205.25 57.1488C204.279 60.2812 203.546 63.4385 203.055 66.5958C202.755 66.5958 202.455 66.6018 202.149 66.6291C196.184 67.1616 191.449 72.6424 191.575 78.8717C191.699 85.1021 196.637 89.7207 202.602 89.1893C202.914 89.1621 203.22 89.1123 203.524 89.0589C204.147 92.1462 205.001 95.1624 206.078 98.0813C205.804 98.2415 205.531 98.4075 205.264 98.5949C200.161 102.17 198.53 109.227 201.62 114.357C204.71 119.486 211.352 120.746 216.456 117.17C216.718 116.986 216.964 116.789 217.207 116.588C219.223 118.816 221.433 120.881 223.825 122.766C223.657 123.041 223.492 123.321 223.344 123.614C220.47 129.275 222.378 136.016 227.605 138.67C232.833 141.324 239.402 138.887 242.276 133.226C242.425 132.933 242.553 132.635 242.677 132.336C245.61 133.155 248.581 133.722 251.57 134.034C251.551 134.348 251.537 134.663 251.543 134.984C251.667 141.213 256.605 145.833 262.569 145.301C268.534 144.77 273.269 139.288 273.143 133.059C273.137 132.732 273.11 132.415 273.077 132.099C276.069 131.246 279.007 130.156 281.868 128.837C282.004 129.115 282.146 129.391 282.307 129.659C285.398 134.789 292.04 136.049 297.144 132.473C302.247 128.897 303.878 121.841 300.788 116.711C300.629 116.449 300.456 116.202 300.281 115.96C302.54 113.701 304.657 111.246 306.613 108.614C306.866 108.773 307.122 108.927 307.394 109.064L307.396 109.062ZM242.221 109.889C223.239 100.251 216.31 75.776 226.747 55.2214C237.183 34.668 261.03 25.8175 280.013 35.4555C298.995 45.0935 305.924 69.5681 295.488 90.1228C285.052 110.677 261.204 119.527 242.221 109.889Z" fill="url(#paint10_linear_57_1023)"/>
<defs>
<linearGradient id="paint0_linear_57_1023" x1="30.7868" y1="260.067" x2="38.6268" y2="260.067" gradientUnits="userSpaceOnUse">
<stop stop-color="#FF9085"/>
<stop offset="1" stop-color="#FB6FBB"/>
</linearGradient>
<linearGradient id="paint1_linear_57_1023" x1="43.679" y1="284.909" x2="51.4145" y2="284.909" gradientUnits="userSpaceOnUse">
<stop stop-color="#FF9085"/>
<stop offset="1" stop-color="#FB6FBB"/>
</linearGradient>
<linearGradient id="paint2_linear_57_1023" x1="86.8406" y1="282.216" x2="94.2334" y2="282.216" gradientUnits="userSpaceOnUse">
<stop stop-color="#FF9085"/>
<stop offset="1" stop-color="#FB6FBB"/>
</linearGradient>
<linearGradient id="paint3_linear_57_1023" x1="74.3227" y1="267.582" x2="81.8139" y2="267.582" gradientUnits="userSpaceOnUse">
<stop stop-color="#FF9085"/>
<stop offset="1" stop-color="#FB6FBB"/>
</linearGradient>
<linearGradient id="paint4_linear_57_1023" x1="162.488" y1="277.073" x2="188.336" y2="299.999" gradientUnits="userSpaceOnUse">
<stop stop-color="#FF9085"/>
<stop offset="1" stop-color="#FB6FBB"/>
</linearGradient>
<linearGradient id="paint5_linear_57_1023" x1="167.019" y1="269.648" x2="193.197" y2="292.869" gradientUnits="userSpaceOnUse">
<stop stop-color="#797170"/>
<stop offset="1" stop-color="#FB6FBB"/>
</linearGradient>
<linearGradient id="paint6_linear_57_1023" x1="169.569" y1="265.304" x2="195.454" y2="288.264" gradientUnits="userSpaceOnUse">
<stop stop-color="#FF9085"/>
<stop offset="1" stop-color="#FB6FBB"/>
</linearGradient>
<linearGradient id="paint7_linear_57_1023" x1="87.4822" y1="102.555" x2="188.233" y2="102.555" gradientUnits="userSpaceOnUse">
<stop stop-color="#2BD4D5"/>
<stop offset="1" stop-color="#768DB4"/>
</linearGradient>
<linearGradient id="paint8_linear_57_1023" x1="337.317" y1="118.662" x2="255.52" y2="70.7195" gradientUnits="userSpaceOnUse">
<stop stop-color="#EF4497"/>
<stop offset="1" stop-color="#792D3D"/>
</linearGradient>
<linearGradient id="paint9_linear_57_1023" x1="238.211" y1="62.2598" x2="256.388" y2="70.4401" gradientUnits="userSpaceOnUse">
<stop stop-color="#EE4698"/>
<stop offset="1" stop-color="#792D3D"/>
</linearGradient>
<linearGradient id="paint10_linear_57_1023" x1="234.226" y1="35.9703" x2="320.094" y2="153.169" gradientUnits="userSpaceOnUse">
<stop stop-color="#E54C9B"/>
<stop offset="1" stop-color="#976EA5"/>
</linearGradient>
</defs>
</svg>
