<svg width="70" height="61" viewBox="0 0 70 61" fill="none" xmlns="http://www.w3.org/2000/svg">
<path d="M38.7023 37.5723C38.3652 37.5723 38.0287 37.461 37.7747 37.2397L30.3702 30.7894C29.8766 30.3596 29.8766 29.6728 30.3702 29.243L37.7747 22.7932C38.2771 22.357 39.0996 22.3499 39.6096 22.776C40.1222 23.2031 40.1311 23.9034 39.6299 24.3397L33.1131 30.0162L39.6299 35.6932C40.1311 36.1295 40.1222 36.8298 39.6096 37.2569C39.3574 37.4675 39.0299 37.5723 38.7023 37.5723Z" fill="#030335"/>
<path d="M69.5 30.1585C69.5 46.3439 54.13 59.5924 35 59.5924C15.87 59.5924 0.5 46.3439 0.5 30.1585C0.5 13.9731 15.87 0.724609 35 0.724609C54.13 0.724609 69.5 13.9731 69.5 30.1585Z" stroke="url(#paint0_linear_48_236)"/>
<defs>
<linearGradient id="paint0_linear_48_236" x1="-7.51444e-07" y1="7.9219" x2="55.0945" y2="56.8802" gradientUnits="userSpaceOnUse">
<stop stop-color="#F73E94"/>
<stop offset="1" stop-color="#22DCD9"/>
</linearGradient>
</defs>
</svg>
